Version 165 32
{
	Locked False
	Skinned False
	BoneCount 0
	Mask 255
	Bounds
	{
		Aabb
		{
			Min -14.83995000 23.09883000 -13.57082000
			Max -12.74168000 24.69674000 -13.46779000
		}
		Aabb
		{
			Min -14.77289000 23.16248000 -13.57082000
			Max -12.80896000 24.63353000 -13.55763000
		}
		Aabb
		{
			Min -14.83995000 23.09883000 -13.55764000
			Max -12.74168000 24.69674000 -13.46779000
		}
	}
	Geometries
	{
		Geometry
		{
			ShaderIndex 26
			Flags -
			VertexDeclaration N209731BE
			Indices 30
			{
				0 24 28 29 2 11 7 22 3 10 1 25 4 27 12
				26 16 13 5 19 8 14 20 6 17 9 21 23 15 18
			}
			Vertices 30
			{
				-14.77289000 23.83025000 -13.55764000 / -0.43716010 0.10280510 -0.89348880 / 81 39 255 255 / 0.00039670 0.00079350
				-13.16334000 24.61259000 -13.57082000 / -0.00591260 0.39767270 -0.91750830 / 97 49 255 255 / 0.98490900 0.01554870
				-14.74574000 23.83113000 -13.57082000 / -0.31253210 0.24396010 -0.91804530 / 67 40 255 255 / 0.01393130 0.01554870
				-14.74574000 23.83113000 -13.57082000 / -0.31253210 0.24396010 -0.91804530 / 67 40 255 255 / 0.01393130 0.01554870
				-14.74574000 23.83113000 -13.57082000 / -0.31253210 0.24396010 -0.91804530 / 67 40 255 255 / 0.01393130 0.01554870
				-14.74574000 23.83113000 -13.57082000 / -0.31253210 0.24396010 -0.91804530 / 67 40 255 255 / 0.01393130 0.01554870
				-14.74574000 23.83113000 -13.57082000 / -0.31253210 0.24396010 -0.91804530 / 67 40 255 255 / 0.01393130 0.01554870
				-14.43553000 23.16248000 -13.55764000 / -0.18519980 -0.41655640 -0.89004600 / 52 36 255 255 / 0.00039670 0.99899290
				-14.43553000 23.16248000 -13.55764000 / -0.18519980 -0.41655640 -0.89004600 / 52 36 255 255 / 0.00039670 0.99899290
				-14.43553000 23.16248000 -13.55764000 / -0.18519980 -0.41655640 -0.89004600 / 52 36 255 255 / 0.00039670 0.99899290
				-12.83590000 23.96444000 -13.57082000 / 0.31661080 -0.25309790 -0.91416590 / 86 46 255 255 / 0.98490900 0.98423770
				-14.77289000 23.83025000 -13.55764000 / -0.43716010 0.10280510 -0.89348880 / 81 39 255 255 / 0.00039670 0.00079350
				-12.83590000 23.96444000 -13.57082000 / 0.31661080 -0.25309790 -0.91416590 / 86 46 255 255 / 0.98490900 0.98423770
				-12.83590000 23.96444000 -13.57082000 / 0.31661080 -0.25309790 -0.91416590 / 86 46 255 255 / 0.98490900 0.98423770
				-12.83590000 23.96444000 -13.57082000 / 0.31661080 -0.25309790 -0.91416590 / 86 46 255 255 / 0.98490900 0.98423770
				-12.83590000 23.96444000 -13.57082000 / 0.31661080 -0.25309790 -0.91416590 / 86 46 255 255 / 0.98490900 0.98423770
				-12.80896000 23.96576000 -13.55763000 / 0.44133710 -0.10184700 -0.89154290 / 80 40 255 255 / 0.99844360 0.99899290
				-12.80896000 23.96576000 -13.55763000 / 0.44133710 -0.10184700 -0.89154290 / 80 40 255 255 / 0.99844360 0.99899290
				-12.80896000 23.96576000 -13.55763000 / 0.44133710 -0.10184700 -0.89154290 / 80 40 255 255 / 0.99844360 0.99899290
				-14.41829000 23.18298000 -13.57082000 / 0.01068100 -0.40645150 -0.91361000 / 57 41 255 255 / 0.01393130 0.98423770
				-14.41829000 23.18298000 -13.57082000 / 0.01068100 -0.40645150 -0.91361000 / 57 41 255 255 / 0.01393130 0.98423770
				-14.41829000 23.18298000 -13.57082000 / 0.01068100 -0.40645150 -0.91361000 / 57 41 255 255 / 0.01393130 0.98423770
				-14.77289000 23.83025000 -13.55764000 / -0.43716010 0.10280510 -0.89348880 / 81 39 255 255 / 0.00039670 0.00079350
				-14.41829000 23.18298000 -13.57082000 / 0.01068100 -0.40645150 -0.91361000 / 57 41 255 255 / 0.01393130 0.98423770
				-13.14632000 24.63353000 -13.55763000 / 0.18186480 0.41370200 -0.89206270 / 106 43 255 255 / 0.99844360 0.00079350
				-13.14632000 24.63353000 -13.55763000 / 0.18186480 0.41370200 -0.89206270 / 106 43 255 255 / 0.99844360 0.00079350
				-13.14632000 24.63353000 -13.55763000 / 0.18186480 0.41370200 -0.89206270 / 106 43 255 255 / 0.99844360 0.00079350
				-13.16334000 24.61259000 -13.57082000 / -0.00591260 0.39767270 -0.91750830 / 97 49 255 255 / 0.98490900 0.01554870
				-13.16334000 24.61259000 -13.57082000 / -0.00591260 0.39767270 -0.91750830 / 97 49 255 255 / 0.98490900 0.01554870
				-13.16334000 24.61259000 -13.57082000 / -0.00591260 0.39767270 -0.91750830 / 97 49 255 255 / 0.98490900 0.01554870
			}
		}
		Geometry
		{
			ShaderIndex 27
			Flags -
			VertexDeclaration N209731BE
			Indices 48
			{
				45 47 0 1 2 46 3 5 6 7 8 4 9 11 12
				13 14 10 15 17 18 19 20 16 21 23 24 25 26 22
				27 29 30 31 32 28 33 35 36 37 38 34 39 41 42
				43 44 40
			}
			Vertices 48
			{
				-14.82042000 23.84109000 -13.55764000 / 0.00000000 0.00000000 -1.00000000 / 100 40 0 255 / 0.00726320 -0.15034480
				-14.82042000 23.84109000 -13.55764000 / 0.00000000 0.00000000 -1.00000000 / 100 40 0 255 / 0.00726320 -0.15034480
				-13.12654000 24.67761000 -13.55763000 / 0.00000000 0.00000000 -1.00000000 / 104 37 0 255 / 0.99273680 -0.15034480
				-12.80896000 23.96576000 -13.55763000 / 0.00000000 0.00000000 -1.00000000 / 81 40 0 255 / 0.47325130 -0.08227540
				-12.80896000 23.96576000 -13.55763000 / 0.00000000 0.00000000 -1.00000000 / 81 40 0 255 / 0.47325130 -0.08227540
				-13.14632000 24.63353000 -13.55763000 / 0.00000000 0.00000000 -1.00000000 / 107 43 0 255 / -0.43659970 -0.08227540
				-13.12654000 24.67760000 -13.55763000 / 0.00000000 0.00000000 -1.00000000 / 104 37 0 255 / -0.46693420 -0.14930730
				-13.12654000 24.67760000 -13.55763000 / 0.00000000 0.00000000 -1.00000000 / 104 37 0 255 / -0.46693420 -0.14930730
				-12.76144000 23.95492000 -13.55763000 / 0.00000000 0.00000000 -1.00000000 / 67 36 0 255 / 0.50360110 -0.14930730
				-14.43553000 23.16248000 -13.55764000 / 0.00000000 0.00000000 -1.00000000 / 53 36 0 255 / 0.97528080 -0.08152770
				-14.43553000 23.16248000 -13.55764000 / 0.00000000 0.00000000 -1.00000000 / 53 36 0 255 / 0.97528080 -0.08152770
				-12.80896000 23.96576000 -13.55763000 / 0.00000000 0.00000000 -1.00000000 / 81 40 0 255 / 0.02471920 -0.08152770
				-12.76143000 23.95492000 -13.55763000 / 0.00000000 0.00000000 -1.00000000 / 67 36 0 255 / 0.00726320 -0.14915470
				-12.76143000 23.95492000 -13.55763000 / 0.00000000 0.00000000 -1.00000000 / 67 36 0 255 / 0.00726320 -0.14915470
				-14.45531000 23.11840000 -13.55764000 / 0.00000000 0.00000000 -1.00000000 / 63 37 0 255 / 0.99273680 -0.14915470
				-14.77289000 23.83025000 -13.55764000 / 0.00000000 0.00000000 -1.00000000 / 82 39 0 255 / 1.43660000 -0.08384710
				-14.77289000 23.83025000 -13.55764000 / 0.00000000 0.00000000 -1.00000000 / 82 39 0 255 / 1.43660000 -0.08384710
				-14.43553000 23.16248000 -13.55764000 / -0.00009540 0.00000000 -1.00000000 / 53 36 0 255 / 0.52674870 -0.08384710
				-14.45531000 23.11840000 -13.55764000 / -0.00009540 0.00000000 -1.00000000 / 63 37 0 255 / 0.49639890 -0.15087890
				-14.45531000 23.11840000 -13.55764000 / -0.00009540 0.00000000 -1.00000000 / 63 37 0 255 / 0.49639890 -0.15087890
				-14.82042000 23.84108000 -13.55764000 / 0.00000000 0.00000000 -1.00000000 / 100 40 0 255 / 1.46693400 -0.15087890
				-13.12654000 24.67761000 -13.55763000 / -0.43718880 0.88410560 -0.16499490 / 28 116 0 255 / 0.99273680 -0.15034480
				-13.12654000 24.67761000 -13.55763000 / -0.43718880 0.88410560 -0.16499490 / 28 116 0 255 / 0.99273680 -0.15034480
				-14.82042000 23.84108000 -13.55764000 / -0.43732750 0.88571690 -0.15572520 / 30 116 0 255 / 0.00726320 -0.15034480
				-14.83995000 23.84723000 -13.46779000 / -0.43738190 0.88563630 -0.15603070 / 28 116 0 255 / 0.00050350 -0.32611090
				-14.83995000 23.84723000 -13.46779000 / -0.43738190 0.88563630 -0.15603070 / 28 116 0 255 / 0.00050350 -0.32611090
				-13.11977000 24.69674000 -13.47316000 / -0.43716820 0.88406380 -0.16527320 / 25 116 0 255 / 0.99949650 -0.32611090
				-12.76143000 23.95492000 -13.55763000 / 0.87941870 0.44423950 -0.17109610 / 57 72 0 255 / 0.50360110 -0.14930730
				-12.76143000 23.95492000 -13.55763000 / 0.87941870 0.44423950 -0.17109610 / 57 72 0 255 / 0.50360110 -0.14930730
				-13.12654000 24.67760000 -13.55763000 / 0.87941870 0.44423950 -0.17109610 / 83 78 0 255 / -0.46693420 -0.14930730
				-13.11977000 24.69674000 -13.47316000 / 0.87941870 0.44423950 -0.17109610 / 57 72 0 255 / -0.48117060 -0.32417300
				-13.11977000 24.69674000 -13.47316000 / 0.87941870 0.44423950 -0.17109610 / 57 72 0 255 / -0.48117060 -0.32417300
				-12.74168000 23.94833000 -13.47316000 / 0.87941870 0.44423950 -0.17109610 / 33 65 0 255 / 0.51782230 -0.32417300
				-14.45531000 23.11840000 -13.55764000 / 0.43662230 -0.88507090 -0.16127750 / 11 92 0 255 / 0.99273680 -0.14915470
				-14.45531000 23.11840000 -13.55764000 / 0.43662230 -0.88507090 -0.16127750 / 11 92 0 255 / 0.99273680 -0.14915470
				-12.76143000 23.95492000 -13.55763000 / 0.43628840 -0.88344850 -0.17079620 / 7 89 0 255 / 0.00726320 -0.14915470
				-12.74168000 23.94834000 -13.47316000 / 0.43630980 -0.88349150 -0.17051840 / 11 92 0 255 / 0.00050350 -0.32490540
				-12.74168000 23.94834000 -13.47316000 / 0.43630980 -0.88349150 -0.17051840 / 11 92 0 255 / 0.00050350 -0.32490540
				-14.46185000 23.09883000 -13.46779000 / 0.43656870 -0.88515310 -0.16097160 / 16 95 0 255 / 0.99949650 -0.32490540
				-14.82042000 23.84108000 -13.55764000 / -0.88092790 -0.44499400 -0.16107900 / 4 72 0 255 / 1.46693400 -0.15087890
				-14.82042000 23.84108000 -13.55764000 / -0.88092790 -0.44499400 -0.16107900 / 4 72 0 255 / 1.46693400 -0.15087890
				-14.45531000 23.11840000 -13.55764000 / -0.88092790 -0.44499400 -0.16107900 / 5 68 0 255 / 0.49639890 -0.15087890
				-14.46185000 23.09883000 -13.46779000 / -0.88092790 -0.44499400 -0.16107900 / 4 72 0 255 / 0.48217770 -0.32572940
				-14.46185000 23.09883000 -13.46779000 / -0.88092790 -0.44499400 -0.16107900 / 4 72 0 255 / 0.48217770 -0.32572940
				-14.83995000 23.84723000 -13.46779000 / -0.88092790 -0.44499400 -0.16107900 / 3 76 0 255 / 1.48117100 -0.32572940
				-13.14632000 24.63353000 -13.55763000 / 0.00000000 0.00000000 -1.00000000 / 107 43 0 255 / 0.97528080 -0.08273310
				-13.14632000 24.63353000 -13.55763000 / 0.00000000 0.00000000 -1.00000000 / 107 43 0 255 / 0.97528080 -0.08273310
				-14.77289000 23.83025000 -13.55764000 / 0.00000000 0.00000000 -1.00000000 / 82 39 0 255 / 0.02471920 -0.08273310
			}
		}
	}
}
