Version 165 32
{
	Locked False
	Skinned False
	BoneCount 0
	Mask 255
	Bounds
	{
		Aabb
		{
			Min -13.19657000 19.87353000 -13.57082000
			Max -11.09829000 21.47144000 -13.46779000
		}
		Aabb
		{
			Min -13.12951000 19.93718000 -13.57082000
			Max -11.16558000 21.40823000 -13.55763000
		}
		Aabb
		{
			Min -13.19657000 19.87353000 -13.55764000
			Max -11.09829000 21.47144000 -13.46779000
		}
	}
	Geometries
	{
		Geometry
		{
			ShaderIndex 26
			Flags -
			VertexDeclaration N209731BE
			Indices 30
			{
				0 24 28 29 2 11 7 22 3 10 1 25 4 27 12
				26 16 13 5 19 8 14 20 6 17 9 21 23 15 18
			}
			Vertices 30
			{
				-13.12951000 20.60495000 -13.55764000 / -0.43716010 0.10280510 -0.89348880 / 81 39 255 255 / 0.00039670 0.00079350
				-11.51996000 21.38729000 -13.57082000 / -0.00591260 0.39767270 -0.91750830 / 97 49 255 255 / 0.98490900 0.01554870
				-13.10235000 20.60584000 -13.57082000 / -0.31253210 0.24396010 -0.91804530 / 67 40 255 255 / 0.01393130 0.01554870
				-13.10235000 20.60584000 -13.57082000 / -0.31253210 0.24396010 -0.91804530 / 67 40 255 255 / 0.01393130 0.01554870
				-13.10235000 20.60584000 -13.57082000 / -0.31253210 0.24396010 -0.91804530 / 67 40 255 255 / 0.01393130 0.01554870
				-13.10235000 20.60584000 -13.57082000 / -0.31253210 0.24396010 -0.91804530 / 67 40 255 255 / 0.01393130 0.01554870
				-13.10235000 20.60584000 -13.57082000 / -0.31253210 0.24396010 -0.91804530 / 67 40 255 255 / 0.01393130 0.01554870
				-12.79215000 19.93718000 -13.55764000 / -0.18519980 -0.41655640 -0.89004600 / 52 36 255 255 / 0.00039670 0.99899290
				-12.79215000 19.93718000 -13.55764000 / -0.18519980 -0.41655640 -0.89004600 / 52 36 255 255 / 0.00039670 0.99899290
				-12.79215000 19.93718000 -13.55764000 / -0.18519980 -0.41655640 -0.89004600 / 52 36 255 255 / 0.00039670 0.99899290
				-11.19251000 20.73914000 -13.57082000 / 0.31661080 -0.25309790 -0.91416590 / 86 46 255 255 / 0.98490900 0.98423770
				-13.12951000 20.60495000 -13.55764000 / -0.43716010 0.10280510 -0.89348880 / 81 39 255 255 / 0.00039670 0.00079350
				-11.19251000 20.73914000 -13.57082000 / 0.31661080 -0.25309790 -0.91416590 / 86 46 255 255 / 0.98490900 0.98423770
				-11.19251000 20.73914000 -13.57082000 / 0.31661080 -0.25309790 -0.91416590 / 86 46 255 255 / 0.98490900 0.98423770
				-11.19251000 20.73914000 -13.57082000 / 0.31661080 -0.25309790 -0.91416590 / 86 46 255 255 / 0.98490900 0.98423770
				-11.19251000 20.73914000 -13.57082000 / 0.31661080 -0.25309790 -0.91416590 / 86 46 255 255 / 0.98490900 0.98423770
				-11.16558000 20.74047000 -13.55763000 / 0.44133710 -0.10184700 -0.89154290 / 80 40 255 255 / 0.99844360 0.99899290
				-11.16558000 20.74047000 -13.55763000 / 0.44133710 -0.10184700 -0.89154290 / 80 40 255 255 / 0.99844360 0.99899290
				-11.16558000 20.74047000 -13.55763000 / 0.44133710 -0.10184700 -0.89154290 / 80 40 255 255 / 0.99844360 0.99899290
				-12.77490000 19.95768000 -13.57082000 / 0.01068100 -0.40645150 -0.91361000 / 57 41 255 255 / 0.01393130 0.98423770
				-12.77490000 19.95768000 -13.57082000 / 0.01068100 -0.40645150 -0.91361000 / 57 41 255 255 / 0.01393130 0.98423770
				-12.77490000 19.95768000 -13.57082000 / 0.01068100 -0.40645150 -0.91361000 / 57 41 255 255 / 0.01393130 0.98423770
				-13.12951000 20.60495000 -13.55764000 / -0.43716010 0.10280510 -0.89348880 / 81 39 255 255 / 0.00039670 0.00079350
				-12.77490000 19.95768000 -13.57082000 / 0.01068100 -0.40645150 -0.91361000 / 57 41 255 255 / 0.01393130 0.98423770
				-11.50294000 21.40823000 -13.55763000 / 0.18195810 0.41388800 -0.89195730 / 106 43 255 255 / 0.99844360 0.00079350
				-11.50294000 21.40823000 -13.55763000 / 0.18195810 0.41388800 -0.89195730 / 106 43 255 255 / 0.99844360 0.00079350
				-11.50294000 21.40823000 -13.55763000 / 0.18195810 0.41388800 -0.89195730 / 106 43 255 255 / 0.99844360 0.00079350
				-11.51996000 21.38729000 -13.57082000 / -0.00591260 0.39767270 -0.91750830 / 97 49 255 255 / 0.98490900 0.01554870
				-11.51996000 21.38729000 -13.57082000 / -0.00591260 0.39767270 -0.91750830 / 97 49 255 255 / 0.98490900 0.01554870
				-11.51996000 21.38729000 -13.57082000 / -0.00591260 0.39767270 -0.91750830 / 97 49 255 255 / 0.98490900 0.01554870
			}
		}
		Geometry
		{
			ShaderIndex 27
			Flags -
			VertexDeclaration N209731BE
			Indices 48
			{
				45 47 0 1 2 46 3 5 6 7 8 4 9 11 12
				13 14 10 15 17 18 19 20 16 21 23 24 25 26 22
				27 29 30 31 32 28 33 35 36 37 38 34 39 41 42
				43 44 40
			}
			Vertices 48
			{
				-13.17704000 20.61579000 -13.55764000 / 0.00000000 0.00000000 -1.00000000 / 100 40 0 255 / 0.00726320 -0.15034480
				-13.17704000 20.61579000 -13.55764000 / 0.00000000 0.00000000 -1.00000000 / 100 40 0 255 / 0.00726320 -0.15034480
				-11.48316000 21.45231000 -13.55763000 / 0.00000000 0.00000000 -1.00000000 / 104 37 0 255 / 0.99273680 -0.15034480
				-11.16558000 20.74047000 -13.55763000 / 0.00000000 0.00000000 -1.00000000 / 81 40 0 255 / 0.47325130 -0.08227540
				-11.16558000 20.74047000 -13.55763000 / 0.00000000 0.00000000 -1.00000000 / 81 40 0 255 / 0.47325130 -0.08227540
				-11.50294000 21.40823000 -13.55763000 / 0.00000000 0.00000000 -1.00000000 / 107 43 0 255 / -0.43659970 -0.08227540
				-11.48316000 21.45231000 -13.55763000 / 0.00000000 0.00000000 -1.00000000 / 104 37 0 255 / -0.46693420 -0.14930730
				-11.48316000 21.45231000 -13.55763000 / 0.00000000 0.00000000 -1.00000000 / 104 37 0 255 / -0.46693420 -0.14930730
				-11.11805000 20.72962000 -13.55763000 / 0.00000000 0.00000000 -1.00000000 / 67 36 0 255 / 0.50360110 -0.14930730
				-12.79214000 19.93718000 -13.55764000 / 0.00000000 0.00000000 -1.00000000 / 53 36 0 255 / 0.97528080 -0.08152770
				-12.79214000 19.93718000 -13.55764000 / 0.00000000 0.00000000 -1.00000000 / 53 36 0 255 / 0.97528080 -0.08152770
				-11.16558000 20.74047000 -13.55763000 / 0.00000000 0.00000000 -1.00000000 / 81 40 0 255 / 0.02471920 -0.08152770
				-11.11805000 20.72962000 -13.55763000 / 0.00000000 0.00000000 -1.00000000 / 67 36 0 255 / 0.00726320 -0.14915470
				-11.11805000 20.72962000 -13.55763000 / 0.00000000 0.00000000 -1.00000000 / 67 36 0 255 / 0.00726320 -0.14915470
				-12.81193000 19.89310000 -13.55764000 / 0.00000000 0.00000000 -1.00000000 / 63 37 0 255 / 0.99273680 -0.14915470
				-13.12951000 20.60495000 -13.55764000 / 0.00000000 0.00000000 -1.00000000 / 82 39 0 255 / 1.43660000 -0.08384710
				-13.12951000 20.60495000 -13.55764000 / 0.00000000 0.00000000 -1.00000000 / 82 39 0 255 / 1.43660000 -0.08384710
				-12.79214000 19.93718000 -13.55764000 / -0.00009540 0.00000000 -1.00000000 / 53 36 0 255 / 0.52674870 -0.08384710
				-12.81193000 19.89310000 -13.55764000 / -0.00009540 0.00000000 -1.00000000 / 63 37 0 255 / 0.49639890 -0.15087890
				-12.81193000 19.89310000 -13.55764000 / -0.00009540 0.00000000 -1.00000000 / 63 37 0 255 / 0.49639890 -0.15087890
				-13.17703000 20.61579000 -13.55764000 / 0.00000000 0.00000000 -1.00000000 / 100 40 0 255 / 1.46693400 -0.15087890
				-11.48315000 21.45231000 -13.55763000 / -0.43718880 0.88410560 -0.16499490 / 28 116 0 255 / 0.99273680 -0.15034480
				-11.48315000 21.45231000 -13.55763000 / -0.43718880 0.88410560 -0.16499490 / 28 116 0 255 / 0.99273680 -0.15034480
				-13.17703000 20.61579000 -13.55764000 / -0.43732750 0.88571690 -0.15572520 / 30 116 0 255 / 0.00726320 -0.15034480
				-13.19657000 20.62194000 -13.46779000 / -0.43738190 0.88563630 -0.15603070 / 28 116 0 255 / 0.00050350 -0.32611090
				-13.19657000 20.62194000 -13.46779000 / -0.43738190 0.88563630 -0.15603070 / 28 116 0 255 / 0.00050350 -0.32611090
				-11.47639000 21.47144000 -13.47316000 / -0.43716820 0.88406380 -0.16527320 / 25 116 0 255 / 0.99949650 -0.32611090
				-11.11805000 20.72962000 -13.55763000 / 0.87941870 0.44423950 -0.17109610 / 57 72 0 255 / 0.50360110 -0.14930730
				-11.11805000 20.72962000 -13.55763000 / 0.87941870 0.44423950 -0.17109610 / 57 72 0 255 / 0.50360110 -0.14930730
				-11.48315000 21.45231000 -13.55763000 / 0.87941870 0.44423950 -0.17109610 / 83 78 0 255 / -0.46693420 -0.14930730
				-11.47639000 21.47144000 -13.47316000 / 0.87941870 0.44423950 -0.17109610 / 57 72 0 255 / -0.48117060 -0.32417300
				-11.47639000 21.47144000 -13.47316000 / 0.87941870 0.44423950 -0.17109610 / 57 72 0 255 / -0.48117060 -0.32417300
				-11.09829000 20.72304000 -13.47316000 / 0.87941870 0.44423950 -0.17109610 / 33 65 0 255 / 0.51782230 -0.32417300
				-12.81192000 19.89310000 -13.55764000 / 0.43662230 -0.88507090 -0.16127750 / 11 92 0 255 / 0.99273680 -0.14915470
				-12.81192000 19.89310000 -13.55764000 / 0.43662230 -0.88507090 -0.16127750 / 11 92 0 255 / 0.99273680 -0.14915470
				-11.11805000 20.72962000 -13.55763000 / 0.43628840 -0.88344850 -0.17079620 / 7 89 0 255 / 0.00726320 -0.14915470
				-11.09829000 20.72304000 -13.47316000 / 0.43630980 -0.88349150 -0.17051840 / 11 92 0 255 / 0.00050350 -0.32490540
				-11.09829000 20.72304000 -13.47316000 / 0.43630980 -0.88349150 -0.17051840 / 11 92 0 255 / 0.00050350 -0.32490540
				-12.81847000 19.87353000 -13.46779000 / 0.43656870 -0.88515310 -0.16097160 / 16 95 0 255 / 0.99949650 -0.32490540
				-13.17703000 20.61579000 -13.55764000 / -0.88092790 -0.44499400 -0.16107900 / 4 72 0 255 / 1.46693400 -0.15087890
				-13.17703000 20.61579000 -13.55764000 / -0.88092790 -0.44499400 -0.16107900 / 4 72 0 255 / 1.46693400 -0.15087890
				-12.81193000 19.89310000 -13.55764000 / -0.88092790 -0.44499400 -0.16107900 / 5 68 0 255 / 0.49639890 -0.15087890
				-12.81847000 19.87353000 -13.46779000 / -0.88092790 -0.44499400 -0.16107900 / 4 72 0 255 / 0.48217770 -0.32572940
				-12.81847000 19.87353000 -13.46779000 / -0.88092790 -0.44499400 -0.16107900 / 4 72 0 255 / 0.48217770 -0.32572940
				-13.19657000 20.62194000 -13.46779000 / -0.88092790 -0.44499400 -0.16107900 / 3 76 0 255 / 1.48117100 -0.32572940
				-11.50294000 21.40823000 -13.55763000 / 0.00000000 0.00000000 -1.00000000 / 107 43 0 255 / 0.97528080 -0.08273310
				-11.50294000 21.40823000 -13.55763000 / 0.00000000 0.00000000 -1.00000000 / 107 43 0 255 / 0.97528080 -0.08273310
				-13.12951000 20.60495000 -13.55764000 / 0.00000000 0.00000000 -1.00000000 / 82 39 0 255 / 0.02471920 -0.08273310
			}
		}
	}
}
