Version 165 32
{
	Locked False
	Skinned False
	BoneCount 0
	Mask 255
	Bounds
	{
		Aabb
		{
			Min -16.76983000 18.04368000 -17.15056000
			Max -8.75082600 27.14255000 -13.50492000
		}
	}
	Geometries
	{
		Geometry
		{
			ShaderIndex 25
			Flags -
			VertexDeclaration N51263BB5
			Indices 570
			{
				0 76 53 54 207 15 229 253 275 276 297 230 318 561 421
				434 96 319 342 365 387 388 410 343 430 455 487 499 88 431
				310 480 501 502 523 323 112 345 533 534 564 123 25 55 85
				86 116 26 144 177 195 196 197 146 198 202 205 206 208 201
				209 213 214 215 216 210 217 219 220 221 226 218 227 231 232
				233 235 228 236 239 240 241 242 238 247 250 251 252 254 248
				255 258 259 260 263 257 264 268 269 270 271 265 272 277 279
				280 281 273 282 284 288 290 291 283 292 294 295 296 299 293
				301 303 304 305 307 302 308 312 313 314 315 309 316 320 321
				324 325 317 328 330 331 332 335 329 337 339 340 341 243 338
				352 371 393 394 413 353 432 454 138 261 28 435 212 488 507
				508 526 225 145 356 531 532 562 167 17 44 69 70 124 18
				154 180 203 204 224 155 244 266 285 287 306 246 326 344 346
				347 349 327 350 354 355 357 358 351 359 362 363 364 366 361
				368 370 373 374 375 369 376 379 380 381 382 377 383 390 391
				392 395 386 396 399 401 402 403 398 404 406 407 408 412 405
				414 416 417 418 419 415 420 424 425 426 427 423 428 436 437
				438 439 429 440 442 443 446 448 441 449 451 452 453 457 450
				458 461 462 463 464 460 465 468 469 470 472 466 384 512 111
				34 156 475 278 522 535 547 560 400 3 40 52 64 101 16
				114 139 151 163 175 126 187 237 249 262 274 199 286 336 348
				360 372 298 385 409 447 459 471 397 473 476 477 479 481 474
				482 484 485 486 490 483 491 493 494 495 496 492 497 503 504
				505 506 498 509 513 514 515 516 510 517 519 520 521 222 518
				333 537 548 559 1 444 12 45 56 67 78 23 89 134 178
				189 200 100 211 234 245 256 267 223 289 311 322 334 367 300
				378 411 422 433 456 389 467 445 500 478 511 524 525 527 489
				528 530 536 538 540 529 541 539 543 544 545 542 546 551 552
				553 554 549 557 550 555 556 563 558 565 568 569 2 4 566
				7 567 5 6 9 8 10 14 19 20 21 11 27 13 22
				24 30 29 31 35 36 37 38 32 42 33 39 41 46 43
				47 50 57 48 58 51 49 62 59 60 63 65 66 68 61
				71 74 75 77 79 72 73 80 83 87 84 81 82 91 90
				92 95 97 93 98 99 94 102 105 107 106 103 104 109 108
				110 117 118 119 120 113 125 115 121 122 129 127 132 128 130
				131 135 133 136 141 142 143 147 137 150 140 148 149 157 152
				160 153 158 159 162 161 164 169 170 171 172 165 166 173 174
				176 179 168 181 185 186 188 190 182 183 191 192 193 194 184
			}
			Vertices 570
			{
				-16.73631000 24.81689000 -17.15056000 / 0.45338280 -0.89131590 0.00000000 / 22 125 0 255 / -3.44860800 1.00105300 / 0.89131590 0.45338280 0.00000380 1.00000000
				-13.30854000 18.07808000 -13.60406000 / -0.37718760 0.74159560 -0.55476610 / 13 123 0 255 / -1.56668100 0.87719720 / 0.89132820 0.45335870 0.00001960 1.00000000
				-9.64468600 21.68484000 -17.15045000 / -0.46776940 0.88385060 0.00000000 / 9 150 0 255 / -0.96418770 0.65960690 / 0.00000070 0.00000040 1.00000000 1.00000000
				-8.75083400 20.50159000 -14.02250000 / 0.00000000 0.00000000 1.00000000 / 42 220 0 255 / -0.96070860 0.65960690 / -0.45337920 0.89131770 0.00000000 1.00000000
				-9.64493200 21.68531000 -14.76959000 / -0.45338280 0.89131590 -0.00009540 / 10 150 0 255 / 5.99401900 0.65960690 / -0.00004570 0.00008380 1.00000000 1.00000000
				-9.64493200 21.68531000 -14.76959000 / -0.45338280 0.89131590 -0.00009540 / 10 150 0 255 / 5.99401900 0.65960690 / -0.00004620 0.00008350 1.00000000 1.00000000
				-9.64493200 21.68531000 -14.76959000 / -0.45338280 0.89131590 -0.00009540 / 10 150 0 255 / 5.99401900 0.65960690 / -0.00004820 0.00008250 1.00000000 1.00000000
				-9.61839400 21.69883000 -14.02252000 / -0.45338280 0.89131590 0.00000000 / 10 148 0 255 / 8.17686500 0.60969530 / -0.00000290 -0.00000150 1.00000000 1.00000000
				-9.61839400 21.69883000 -14.02252000 / -0.45338280 0.89131590 0.00000000 / 10 148 0 255 / 8.17686500 0.60969530 / -0.00000500 -0.00000250 1.00000000 1.00000000
				-9.64494200 21.68532000 -14.02252000 / -0.45338280 0.89131590 0.00000000 / 10 146 0 255 / 8.17686500 0.65960690 / -0.00000500 -0.00000250 1.00000000 1.00000000
				-8.77780800 20.48786000 -14.76957000 / 0.45338280 -0.89131590 -0.00009540 / 19 150 0 255 / 5.99270600 0.60969530 / 0.00004020 -0.00008660 1.00000000 1.00000000
				-8.77780800 20.48786000 -14.76957000 / 0.45338280 -0.89131590 -0.00009540 / 19 150 0 255 / 5.99270600 0.60969530 / 0.00003950 -0.00008690 1.00000000 1.00000000
				-9.83830600 22.07946000 -13.60407000 / -0.72554090 -0.36887390 -0.58096680 / 14 104 0 255 / 6.28767400 0.87716670 / -0.45319400 0.89141190 -0.00001330 1.00000000
				-8.77780800 20.48786000 -14.76957000 / 0.45338280 -0.89131590 -0.00009540 / 19 150 0 255 / 5.99270600 0.60969530 / 0.00004030 -0.00008650 1.00000000 1.00000000
				-8.77800500 20.48826000 -17.15043000 / 0.45338280 -0.89131590 -0.00019070 / 20 129 0 255 / -0.96549990 0.60969530 / 0.00008340 -0.00017160 1.00000000 1.00000000
				-16.73631000 24.81689000 -17.15056000 / 0.45338280 -0.89131590 0.00000000 / 22 125 0 255 / -3.44860800 1.00105300 / 0.89131590 0.45338280 0.00000380 1.00000000
				-8.75083400 20.50159000 -14.02250000 / 0.00000000 0.00000000 1.00000000 / 42 220 0 255 / -0.96070860 0.65960690 / -0.45338030 0.89131720 0.00000000 1.00000000
				-9.37665900 21.73193000 -14.84967000 / 0.45338280 -0.89131590 0.00000000 / 38 137 0 255 / 1.47486900 0.79862980 / -0.00003600 -0.00001830 1.00000000 1.00000000
				-9.37665900 21.73193000 -14.84967000 / 0.45338280 -0.89131590 0.00000000 / 38 137 0 255 / 1.47486900 0.79862980 / -0.00003570 -0.00001820 1.00000000 1.00000000
				-8.75102100 20.50199000 -17.15043000 / 0.45338280 -0.89131590 -0.00019070 / 19 138 0 255 / -0.96549990 0.65960690 / 0.00008340 -0.00017160 1.00000000 1.00000000
				-8.75102100 20.50199000 -17.15043000 / 0.45338280 -0.89131590 -0.00019070 / 19 138 0 255 / -0.96549990 0.65960690 / 0.00008280 -0.00017190 1.00000000 1.00000000
				-8.75082600 20.50158000 -14.76957000 / 0.45338280 -0.89131590 -0.00009540 / 18 164 0 255 / 5.99270600 0.65960690 / 0.00003950 -0.00008690 1.00000000 1.00000000
				-8.75082600 20.50158000 -14.76957000 / 0.45338280 -0.89131590 -0.00009540 / 18 164 0 255 / 5.99270600 0.65960690 / 0.00004030 -0.00008650 1.00000000 1.00000000
				-9.83830600 22.07946000 -13.60407000 / -0.72554090 -0.36887390 -0.58096680 / 14 104 0 255 / 6.28767400 0.87716670 / -0.45326330 0.89137670 0.00009550 1.00000000
				-8.75082600 20.50158000 -14.76957000 / 0.45338280 -0.89131590 -0.00009540 / 18 164 0 255 / 5.99270600 0.65960690 / 0.00004030 -0.00008650 1.00000000 1.00000000
				-10.04051000 22.86021000 -17.02059000 / -0.45338280 0.89131590 0.00000000 / 105 142 0 255 / 0.11428830 0.87788390 / -0.89131590 -0.45338280 -0.00013900 1.00000000
				-10.04051000 22.86021000 -17.02059000 / -0.45338280 0.89131590 0.00000000 / 105 142 0 255 / 0.11428830 0.87788390 / -0.89131590 -0.45338280 -0.00010540 1.00000000
				-8.77781700 20.48787000 -14.02250000 / 0.45338280 -0.89131590 0.00000000 / 19 171 0 255 / 8.17555300 0.60969530 / -0.00000290 -0.00000150 1.00000000 1.00000000
				-10.46584000 22.64846000 -13.50497000 / -0.45338280 0.89131590 0.00000000 / 117 81 0 255 / 7.25430300 1.00012200 / 0.89131590 0.45338280 -0.00002150 1.00000000
				-8.77781700 20.48787000 -14.02250000 / 0.45338280 -0.89131590 0.00000000 / 19 171 0 255 / 8.17555300 0.60969530 / -0.00000290 -0.00000150 1.00000000 1.00000000
				-8.75083400 20.50159000 -14.02250000 / 0.45338280 -0.89131590 0.00000000 / 19 173 0 255 / 8.17555300 0.65960690 / -0.00000290 -0.00000150 1.00000000 1.00000000
				-8.98279400 20.38359000 -14.76957000 / 0.45345860 -0.89127740 0.00000000 / 15 149 0 255 / 1.21896400 0.65960690 / 0.00000310 0.00000160 -1.00000000 1.00000000
				-8.98279400 20.38359000 -14.76957000 / 0.45345860 -0.89127740 0.00000000 / 15 149 0 255 / 1.21896400 0.65960690 / 0.00000280 0.00000140 -1.00000000 1.00000000
				-8.98279400 20.38359000 -14.76957000 / 0.45345860 -0.89127740 0.00000000 / 15 149 0 255 / 1.21896400 0.65960690 / 0.00000500 0.00000250 -1.00000000 1.00000000
				-9.44128700 21.66729000 -14.74127000 / 0.89131590 0.45338280 0.00000000 / 61 162 0 255 / 6.75737000 0.56944270 / -0.45338280 0.89131590 -0.00001530 1.00000000
				-8.98276900 20.38356000 -17.15043000 / 0.45338280 -0.89131590 0.00000000 / 16 115 0 255 / 8.17717000 0.65960690 / 0.00000310 0.00000160 -1.00000000 1.00000000
				-8.95622200 20.39706000 -17.15043000 / 0.45338280 -0.89131590 0.00000000 / 16 134 0 255 / 8.17717000 0.60969530 / 0.00000310 0.00000160 -1.00000000 1.00000000
				-8.95622200 20.39706000 -17.15043000 / 0.45338280 -0.89131590 0.00000000 / 16 134 0 255 / 8.17717000 0.60969530 / 0.00000280 0.00000140 -1.00000000 1.00000000
				-8.95624700 20.39710000 -14.76957000 / 0.45345860 -0.89127740 0.00000000 / 13 166 0 255 / 1.21896400 0.60969530 / 0.00000280 0.00000140 -1.00000000 1.00000000
				-8.95624700 20.39710000 -14.76957000 / 0.45345860 -0.89127740 0.00000000 / 13 166 0 255 / 1.21896400 0.60969530 / 0.00000500 0.00000250 -1.00000000 1.00000000
				-9.41297300 21.80332000 -14.02252000 / 0.00000000 0.00000000 1.00000000 / 45 220 0 255 / 3.30717500 0.65960690 / -0.45337920 0.89131770 0.00000000 1.00000000
				-8.95624700 20.39710000 -14.76957000 / 0.45345860 -0.89127740 0.00000000 / 13 166 0 255 / 1.21896400 0.60969530 / 0.00000500 0.00000250 -1.00000000 1.00000000
				-8.98280500 20.38360000 -14.02250000 / 0.45338280 -0.89131590 0.00000000 / 12 173 0 255 / -0.96389770 0.65960690 / 0.00000500 0.00000250 -1.00000000 1.00000000
				-8.98280500 20.38360000 -14.02250000 / 0.45338280 -0.89131590 0.00000000 / 12 173 0 255 / -0.96389770 0.65960690 / 0.00000500 0.00000250 -1.00000000 1.00000000
				-9.60862700 21.61394000 -14.84967000 / 0.45338280 -0.89131590 0.00000000 / 34 139 0 255 / 1.47486900 0.65782170 / -0.00003600 -0.00001830 1.00000000 1.00000000
				-9.83487600 22.08887000 -13.61433000 / -0.72545560 -0.36887900 -0.58107020 / 14 104 0 255 / 6.29562400 0.86407470 / -0.45322530 0.89139600 -0.00003850 1.00000000
				-8.95625600 20.39710000 -14.02250000 / 0.45338280 -0.89131590 0.00000000 / 12 171 0 255 / -0.96389770 0.60969530 / 0.00000500 0.00000250 -1.00000000 1.00000000
				-9.60862700 21.61394000 -14.84967000 / -0.89131590 -0.45338280 0.00000000 / 15 172 0 255 / -0.40951540 0.79600530 / -0.00000800 0.00001570 1.00000000 1.00000000
				-9.60862700 21.61394000 -14.84967000 / -0.89131590 -0.45338280 0.00000000 / 15 172 0 255 / -0.40951540 0.79600530 / -0.00006790 0.00013340 1.00000000 1.00000000
				-9.60862700 21.61394000 -14.84967000 / -0.89131590 -0.45338280 0.00000000 / 15 172 0 255 / -0.40951540 0.79600530 / -0.00008850 0.00017390 1.00000000 1.00000000
				-9.64468600 21.68484000 -17.15045000 / -0.89131590 -0.45338280 0.00000000 / 14 168 0 255 / -7.55178800 0.65530400 / -0.00000800 0.00001570 1.00000000 1.00000000
				-9.64468600 21.68484000 -17.15045000 / -0.89131590 -0.45338280 0.00000000 / 14 168 0 255 / -7.55178800 0.65530400 / -0.00006790 0.00013340 1.00000000 1.00000000
				-9.43995600 21.78959000 -14.02252000 / 0.00000000 0.00000000 1.00000000 / 42 220 0 255 / 3.30716000 0.60969530 / -0.45337920 0.89131770 0.00000000 1.00000000
				-12.20791000 27.12032000 -17.02066000 / 0.45338280 -0.89131590 0.00000000 / 22 125 0 255 / -0.76335140 0.87480160 / 0.89131590 0.45338280 0.00000380 1.00000000
				-12.20791000 27.12032000 -17.02066000 / 0.45338280 -0.89131590 0.00000000 / 22 125 0 255 / -0.76335140 0.87480160 / 0.89131590 0.45338280 0.00000380 1.00000000
				-10.04051000 22.86021000 -17.15047000 / -0.45338280 0.89131590 0.00000000 / 93 134 0 255 / 0.11431890 1.00148000 / -0.89131590 -0.45338280 -0.00013900 1.00000000
				-8.92523000 20.29949000 -13.61429000 / -0.74148680 -0.37727610 -0.55485140 / 14 104 0 255 / 4.01074200 0.86412050 / -0.45338990 0.89131230 -0.00015890 1.00000000
				-9.60860200 21.61391000 -17.15045000 / -0.89131590 -0.45338280 0.00000000 / 13 165 0 255 / -7.55178800 0.79600530 / -0.00000800 0.00001570 1.00000000 1.00000000
				-9.64493200 21.68531000 -14.76959000 / -0.89131590 -0.45338280 0.00000000 / 16 175 0 255 / -0.16119390 0.65499880 / -0.00006790 0.00013340 1.00000000 1.00000000
				-9.64493200 21.68531000 -14.76959000 / -0.89131590 -0.45338280 0.00000000 / 16 175 0 255 / -0.16119390 0.65499880 / -0.00008850 0.00017390 1.00000000 1.00000000
				-9.64493200 21.68531000 -14.76959000 / -0.89131590 -0.45338280 0.00000000 / 16 175 0 255 / -0.16119390 0.65499880 / 0.00000180 -0.00000360 1.00000000 1.00000000
				-9.64493200 21.68531000 -14.76959000 / -0.89131590 -0.45338280 0.00000000 / 16 175 0 255 / -0.16119390 0.65499880 / 0.00010240 -0.00020130 1.00000000 1.00000000
				-9.60862700 21.61394000 -14.76959000 / -0.89131590 -0.45338280 0.00000000 / 15 175 0 255 / -0.16119390 0.79603580 / -0.00008850 0.00017390 1.00000000 1.00000000
				-9.60862700 21.61394000 -14.76959000 / -0.89131590 -0.45338280 0.00000000 / 15 175 0 255 / -0.16119390 0.79603580 / 0.00000180 -0.00000360 1.00000000 1.00000000
				-9.43995600 21.78959000 -14.02252000 / 0.00000000 0.00000000 1.00000000 / 42 220 0 255 / 3.30716000 0.60969530 / -0.45338030 0.89131720 0.00000000 1.00000000
				-9.60863300 21.61394000 -14.10260000 / -0.89131590 -0.45338280 0.00000000 / 15 171 0 255 / 1.90898100 0.79602050 / 0.00000180 -0.00000360 1.00000000 1.00000000
				-9.60863300 21.61394000 -14.10260000 / -0.89131590 -0.45338280 0.00000000 / 15 171 0 255 / 1.90898100 0.79602050 / 0.00010240 -0.00020130 1.00000000 1.00000000
				-8.92523000 20.29949000 -13.61429000 / -0.74148680 -0.37727610 -0.55485140 / 14 104 0 255 / 4.01074200 0.86412050 / -0.45345290 0.89128020 -0.00005300 1.00000000
				-9.64494200 21.68532000 -14.02252000 / -0.89131590 -0.45338280 0.00000000 / 14 172 0 255 / 2.15730300 0.65467840 / 0.00010240 -0.00020130 1.00000000 1.00000000
				-9.60860200 21.61391000 -17.15045000 / 0.45338280 -0.89131590 0.00000000 / 38 137 0 255 / -0.72276310 0.65777590 / -0.00003600 -0.00001830 1.00000000 1.00000000
				-9.60860200 21.61391000 -17.15045000 / 0.45338280 -0.89131590 0.00000000 / 38 137 0 255 / -0.72276310 0.65777590 / -0.00003570 -0.00001820 1.00000000 1.00000000
				-9.37665900 21.73193000 -14.84967000 / 0.89121920 0.45357290 -0.00019070 / 174 158 0 255 / 4.33596800 0.66004940 / 0.00016170 0.00010290 1.00000000 1.00000000
				-9.37665900 21.73193000 -14.84967000 / 0.89121920 0.45357290 -0.00019070 / 174 158 0 255 / 4.33596800 0.66004940 / 0.00016200 0.00010220 1.00000000 1.00000000
				-9.37665900 21.73193000 -14.84967000 / 0.89121920 0.45357290 -0.00019070 / 174 158 0 255 / 4.33596800 0.66004940 / 0.00017000 0.00008650 1.00000000 1.00000000
				-9.37663200 21.73190000 -17.15045000 / 0.88857300 0.45873520 0.00000000 / 180 147 0 255 / -2.79766900 0.66004940 / -0.00000840 0.00001630 1.00000000 1.00000000
				-9.41337400 21.80305000 -17.15045000 / 0.88859310 0.45869640 0.00000000 / 178 157 0 255 / -2.79766900 0.80061340 / -0.00000840 0.00001630 1.00000000 1.00000000
				-12.20791000 27.12032000 -17.15054000 / 0.45338280 -0.89131590 0.00000000 / 26 135 0 255 / -0.76335140 1.00105300 / 0.89131590 0.45338280 0.00000380 1.00000000
				-9.41337400 21.80305000 -17.15045000 / 0.88859310 0.45869640 0.00000000 / 178 157 0 255 / -2.79766900 0.80061340 / -0.00000750 0.00001460 1.00000000 1.00000000
				-8.93464500 20.30292000 -13.60404000 / -0.74160810 -0.37728930 -0.55468020 / 14 104 0 255 / 4.01922600 0.87719720 / -0.45342090 0.89129650 -0.00002900 1.00000000
				-9.41296400 21.80331000 -14.76959000 / 0.89131590 0.45338280 0.00000000 / 171 154 0 255 / 4.58398400 0.80061340 / -0.00000800 0.00001570 1.00000000 1.00000000
				-9.41296400 21.80331000 -14.76959000 / 0.89131590 0.45338280 0.00000000 / 171 154 0 255 / 4.58398400 0.80061340 / 0.00000000 0.00000000 1.00000000 1.00000000
				-9.41296400 21.80331000 -14.76959000 / 0.89131590 0.45338280 0.00000000 / 171 154 0 255 / 4.58398400 0.80061340 / -0.00000440 0.00000860 1.00000000 1.00000000
				-9.41296400 21.80331000 -14.76959000 / 0.89131590 0.45338280 0.00000000 / 171 154 0 255 / 4.58398400 0.80061340 / -0.00000980 0.00001940 1.00000000 1.00000000
				-9.37665900 21.73193000 -14.76959000 / 0.89131590 0.45338280 0.00000000 / 171 155 0 255 / 4.58398400 0.66004940 / 0.00000000 0.00000000 1.00000000 1.00000000
				-9.37665900 21.73193000 -14.76959000 / 0.89131590 0.45338280 0.00000000 / 171 155 0 255 / 4.58398400 0.66004940 / -0.00000440 0.00000860 1.00000000 1.00000000
				-10.46397000 22.64481000 -17.15048000 / -0.45338280 0.89131590 0.00000000 / 105 142 0 255 / 1.17453000 1.00141900 / -0.89131590 -0.45338280 -0.00013900 1.00000000
				-10.46397000 22.64481000 -17.15048000 / -0.45338280 0.89131590 0.00000000 / 105 142 0 255 / 1.17453000 1.00141900 / -0.89131590 -0.45338280 -0.00010540 1.00000000
				-9.37666500 21.73193000 -14.10260000 / 0.89131590 0.45338280 0.00000000 / 153 155 0 255 / 6.65165700 0.66004940 / -0.00000440 0.00000860 1.00000000 1.00000000
				-12.21237000 27.12906000 -13.61441000 / 0.00000000 0.00000000 -1.00000000 / 29 66 0 255 / -15.95453000 0.86315920 / -0.89114010 -0.45372820 0.00000000 1.00000000
				-10.10727000 21.94265000 -13.60407000 / 0.37725590 -0.74173330 -0.55453570 / 12 86 0 255 / 6.63119500 0.87716670 / -0.89143790 -0.45314270 -0.00034120 1.00000000
				-9.37666500 21.73193000 -14.10260000 / 0.89131590 0.45338280 0.00000000 / 153 155 0 255 / 6.65165700 0.66004940 / -0.00000980 0.00001940 1.00000000 1.00000000
				-9.41297300 21.80332000 -14.02252000 / 0.89131590 0.45338280 0.00000000 / 151 155 0 255 / 6.89967300 0.80061340 / -0.00000980 0.00001940 1.00000000 1.00000000
				-9.01910100 20.45496000 -14.84965000 / -0.89131590 -0.45338280 0.00000000 / 14 169 0 255 / -0.47726440 0.65834040 / -0.00000940 0.00001840 1.00000000 1.00000000
				-9.01910100 20.45496000 -14.84965000 / -0.89131590 -0.45338280 0.00000000 / 14 169 0 255 / -0.47726440 0.65834040 / -0.00001060 0.00002090 1.00000000 1.00000000
				-9.01910100 20.45496000 -14.84965000 / -0.89131590 -0.45338280 0.00000000 / 14 169 0 255 / -0.47726440 0.65834040 / -0.00000240 0.00000480 1.00000000 1.00000000
				-9.01907500 20.45493000 -17.15043000 / -0.89131590 -0.45338280 0.00000000 / 14 151 0 255 / -7.61955200 0.65832520 / -0.00000940 0.00001840 1.00000000 1.00000000
				-12.20795000 27.12036000 -13.50504000 / 0.45338280 -0.89131590 -0.00009540 / 54 91 0 255 / -15.95453000 1.00013700 / -0.89131590 -0.45338280 -0.00000380 1.00000000
				-8.98276900 20.38356000 -17.15043000 / -0.89131590 -0.45338280 0.00000000 / 13 156 0 255 / -7.61955200 0.79902650 / -0.00000940 0.00001840 1.00000000 1.00000000
				-8.98276900 20.38356000 -17.15043000 / -0.89131590 -0.45338280 0.00000000 / 13 156 0 255 / -7.61955200 0.79902650 / -0.00001060 0.00002090 1.00000000 1.00000000
				-8.98279400 20.38359000 -14.76957000 / -0.89131590 -0.45338280 0.00000000 / 13 174 0 255 / -0.22894290 0.79905700 / -0.00001060 0.00002090 1.00000000 1.00000000
				-10.10727000 21.94265000 -13.60407000 / 0.37725590 -0.74173330 -0.55453570 / 12 86 0 255 / 6.63119500 0.87716670 / -0.89132860 -0.45335770 0.00002070 1.00000000
				-8.77781700 20.48787000 -14.02250000 / 0.00000000 0.00000000 1.00000000 / 38 220 0 255 / -0.96072380 0.60969530 / -0.45338030 0.89131720 0.00000000 1.00000000
				-8.98279400 20.38359000 -14.76957000 / -0.89131590 -0.45338280 0.00000000 / 13 174 0 255 / -0.22894290 0.79905700 / -0.00000240 0.00000480 1.00000000 1.00000000
				-8.98279400 20.38359000 -14.76957000 / -0.89131590 -0.45338280 0.00000000 / 13 174 0 255 / -0.22894290 0.79905700 / -0.00001230 0.00002420 1.00000000 1.00000000
				-8.98279400 20.38359000 -14.76957000 / -0.89131590 -0.45338280 0.00000000 / 13 174 0 255 / -0.22894290 0.79905700 / -0.00001960 0.00003860 1.00000000 1.00000000
				-9.01910200 20.45496000 -14.76957000 / -0.89131590 -0.45338280 0.00000000 / 14 179 0 255 / -0.22894290 0.65834040 / -0.00000240 0.00000480 1.00000000 1.00000000
				-9.01910200 20.45496000 -14.76957000 / -0.89131590 -0.45338280 0.00000000 / 14 179 0 255 / -0.22894290 0.65834040 / -0.00001230 0.00002420 1.00000000 1.00000000
				-9.01910800 20.45497000 -14.10258000 / -0.89131590 -0.45338280 0.00000000 / 13 171 0 255 / 1.84123200 0.65835570 / -0.00001230 0.00002420 1.00000000 1.00000000
				-9.01910800 20.45497000 -14.10258000 / -0.89131590 -0.45338280 0.00000000 / 13 171 0 255 / 1.84123200 0.65835570 / -0.00001960 0.00003860 1.00000000 1.00000000
				-8.98280500 20.38360000 -14.02250000 / -0.89131590 -0.45338280 0.00000000 / 12 172 0 255 / 2.08955400 0.79908750 / -0.00001960 0.00003860 1.00000000 1.00000000
				-8.86460700 20.53356000 -14.10258000 / 0.89131590 0.45338280 0.00000000 / 96 109 0 255 / 3.44168100 0.60877990 / 0.00000700 -0.00001370 -1.00000000 1.00000000
				-9.44128700 21.66729000 -14.74127000 / 0.89131590 0.45338280 0.00000000 / 61 162 0 255 / 6.75737000 0.56944270 / -0.45338280 0.89131590 -0.00001540 1.00000000
				-8.93764600 20.30023000 -17.15043000 / -0.45338280 0.89131590 0.00000000 / 61 151 0 255 / -10.03665000 1.00105300 / -0.89131590 -0.45338280 -0.00000350 1.00000000
				-8.86460700 20.53356000 -14.10258000 / 0.89131590 0.45338280 0.00000000 / 96 109 0 255 / 3.44168100 0.60877990 / 0.00000760 -0.00001500 -1.00000000 1.00000000
				-9.64494200 21.68532000 -14.02252000 / 0.00000000 0.00000000 1.00000000 / 12 183 0 255 / -0.96719360 0.65960690 / 0.45337920 -0.89131770 0.00000000 1.00000000
				-8.86460700 20.53356000 -14.10258000 / 0.89131590 0.45338280 0.00000000 / 96 109 0 255 / 3.44168100 0.60877990 / 0.45338280 -0.89131590 0.00001540 1.00000000
				-10.46397000 22.64481000 -17.02059000 / -0.45338280 0.89131590 0.00000000 / 118 150 0 255 / 1.17450000 0.87783810 / -0.89131590 -0.45338280 -0.00010540 1.00000000
				-8.86459900 20.53355000 -14.76957000 / 0.89131590 0.45338280 0.00000000 / 73 162 0 255 / 4.55014000 0.60877990 / 0.00000700 -0.00001370 -1.00000000 1.00000000
				-8.87744000 20.55880000 -14.74125000 / 0.89131590 0.45338280 0.00000000 / 86 145 0 255 / 4.55014000 0.56944270 / 0.00000700 -0.00001370 -1.00000000 1.00000000
				-8.87744000 20.55880000 -14.74125000 / 0.89131590 0.45338280 0.00000000 / 86 145 0 255 / 4.55014000 0.56944270 / 0.00000760 -0.00001500 -1.00000000 1.00000000
				-8.87744700 20.55880000 -14.13090000 / 0.89131590 0.45338280 0.00000000 / 96 93 0 255 / 3.44168100 0.56944270 / 0.00000760 -0.00001500 -1.00000000 1.00000000
				-8.87744700 20.55880000 -14.13090000 / 0.89131590 0.45338280 0.00000000 / 96 93 0 255 / 3.44168100 0.56944270 / 0.45338280 -0.89131590 0.00001540 1.00000000
				-8.87744700 20.55880000 -14.13090000 / 0.89131590 0.45338280 0.00000000 / 96 93 0 255 / 3.44168100 0.56944270 / 0.45338280 -0.89131590 0.00001530 1.00000000
				-8.93764600 20.30023000 -17.15043000 / -0.45338280 0.89131590 0.00000000 / 61 151 0 255 / -10.03665000 1.00105300 / -0.89131590 -0.45338280 -0.00000350 1.00000000
				-9.37663200 21.73190000 -17.15045000 / 0.45338280 -0.89131590 0.00000000 / 41 135 0 255 / -0.72276310 0.79858400 / -0.00003570 -0.00001820 1.00000000 1.00000000
				-9.45413100 21.69253000 -14.10260000 / 0.89131590 0.45338280 0.00000000 / 84 95 0 255 / 1.23445100 0.60877990 / 0.45338280 -0.89131590 0.00001540 1.00000000
				-9.64494200 21.68532000 -14.02252000 / 0.00000000 0.00000000 1.00000000 / 12 183 0 255 / -0.96719360 0.65960690 / 0.45337920 -0.89131770 0.00000000 1.00000000
				-9.45413100 21.69253000 -14.10260000 / 0.89131590 0.45338280 0.00000000 / 84 95 0 255 / 1.23445100 0.60877990 / 0.45338280 -0.89131590 0.00001530 1.00000000
				-9.45413100 21.69253000 -14.10260000 / 0.89131590 0.45338280 0.00000000 / 84 95 0 255 / 1.23445100 0.60877990 / -0.00000640 0.00001260 1.00000000 1.00000000
				-9.44129400 21.66729000 -14.13092000 / 0.89131590 0.45338280 0.00000000 / 68 117 0 255 / 1.23445100 0.56944270 / 0.45338280 -0.89131590 0.00001530 1.00000000
				-9.44129400 21.66729000 -14.13092000 / 0.89131590 0.45338280 0.00000000 / 68 117 0 255 / 1.23445100 0.56944270 / -0.00000640 0.00001260 1.00000000 1.00000000
				-9.44129400 21.66729000 -14.13092000 / 0.89131590 0.45338280 0.00000000 / 68 117 0 255 / 1.23445100 0.56944270 / -0.00000730 0.00001440 1.00000000 1.00000000
				-9.45412500 21.69252000 -14.76959000 / 0.89131590 0.45338280 0.00000000 / 58 144 0 255 / 0.12599180 0.60877990 / -0.00000640 0.00001260 1.00000000 1.00000000
				-9.45412500 21.69252000 -14.76959000 / 0.89131590 0.45338280 0.00000000 / 58 144 0 255 / 0.12599180 0.60877990 / -0.00000730 0.00001440 1.00000000 1.00000000
				-10.10384000 21.95206000 -13.61433000 / 0.37725590 -0.74173330 -0.55453570 / 12 86 0 255 / 6.62284900 0.86415100 / -0.89143790 -0.45314270 -0.00034120 1.00000000
				-9.44128700 21.66729000 -14.74127000 / 0.89131590 0.45338280 0.00000000 / 61 162 0 255 / 0.12599180 0.56944270 / -0.00000730 0.00001440 1.00000000 1.00000000
				-9.53116500 21.65335000 -14.10260000 / -0.89112250 -0.45376290 0.00038150 / 11 131 0 255 / -2.36334200 0.60690310 / -0.00033510 -0.00018260 -0.99999980 1.00000000
				-9.53116500 21.65335000 -14.10260000 / -0.89112250 -0.45376290 0.00038150 / 11 131 0 255 / -2.36334200 0.60690310 / -0.00033340 -0.00018590 -0.99999980 1.00000000
				-10.46584000 22.64845000 -13.60409000 / -0.45338280 0.89131590 0.00000000 / 115 73 0 255 / 7.25430300 0.87719720 / 0.89131590 0.45338280 0.00000400 1.00000000
				-8.98280500 20.38360000 -14.02250000 / 0.00000000 0.00000000 1.00000000 / 12 187 0 255 / 3.30067400 0.65960690 / 0.45337920 -0.89131770 0.00000000 1.00000000
				-9.53116500 21.65335000 -14.10260000 / -0.89112250 -0.45376290 0.00038150 / 11 131 0 255 / -2.36334200 0.60690310 / -0.45376290 0.89112250 -0.00001520 1.00000000
				-9.53159600 21.65312000 -14.76959000 / -0.89170210 -0.45262230 0.00076300 / 11 173 0 255 / -1.31701700 0.60690310 / -0.00067510 -0.00035560 -0.99999970 1.00000000
				-9.51875700 21.62788000 -14.74127000 / -0.89160550 -0.45281240 0.00076300 / 11 164 0 255 / -1.31701700 0.56977840 / -0.00067510 -0.00035570 -0.99999970 1.00000000
				-9.51875700 21.62788000 -14.74127000 / -0.89160550 -0.45281240 0.00076300 / 11 164 0 255 / -1.31701700 0.56977840 / -0.00067330 -0.00035910 -0.99999970 1.00000000
				-8.92845400 20.29724000 -17.01029000 / 0.00000000 0.00000000 1.00000000 / 13 196 0 255 / -10.04041000 0.86412050 / -0.89131810 -0.45337840 0.00000000 1.00000000
				-8.78713200 20.57296000 -14.84965000 / 0.00000000 0.00000000 -1.00000000 / 50 72 0 255 / 0.23300170 0.65835570 / -0.45335970 0.89132760 0.00000000 1.00000000
				-8.92845400 20.29724000 -17.01029000 / 0.00000000 0.00000000 1.00000000 / 13 196 0 255 / -10.04041000 0.86412050 / -0.89131780 -0.45337900 0.00000000 1.00000000
				-9.51832600 21.62811000 -14.13092000 / -0.89112250 -0.45376290 0.00038150 / 13 110 0 255 / -2.36334200 0.56977840 / -0.00033340 -0.00018590 -0.99999980 1.00000000
				-9.51832600 21.62811000 -14.13092000 / -0.89112250 -0.45376290 0.00038150 / 13 110 0 255 / -2.36334200 0.56977840 / -0.45376290 0.89112250 -0.00001520 1.00000000
				-9.51832600 21.62811000 -14.13092000 / -0.89112250 -0.45376290 0.00038150 / 13 110 0 255 / -2.36334200 0.56977840 / -0.45376290 0.89112250 -0.00001520 1.00000000
				-8.94163900 20.49437000 -14.10258000 / -0.89150910 -0.45300260 0.00038150 / 14 107 0 255 / -4.44686900 0.60690310 / -0.45300270 0.89150920 -0.00001560 1.00000000
				-8.95625600 20.39710000 -14.02250000 / 0.00000000 0.00000000 1.00000000 / 12 183 0 255 / 3.30067400 0.60969530 / 0.45337920 -0.89131770 0.00000000 1.00000000
				-8.94163900 20.49437000 -14.10258000 / -0.89150910 -0.45300260 0.00038150 / 14 107 0 255 / -4.44686900 0.60690310 / -0.45300260 0.89150920 -0.00001550 1.00000000
				-8.94163900 20.49437000 -14.10258000 / -0.89150910 -0.45300260 0.00038150 / 14 107 0 255 / -4.44686900 0.60690310 / 0.00033470 0.00018340 0.99999980 1.00000000
				-8.78713200 20.57296000 -14.84965000 / -0.45338280 0.89131590 0.00000000 / 135 157 0 255 / 1.47491500 0.65771490 / -0.00003630 -0.00001840 1.00000000 1.00000000
				-8.78713200 20.57296000 -14.84965000 / -0.45338280 0.89131590 0.00000000 / 135 157 0 255 / 1.47491500 0.65771490 / -0.00003640 -0.00001850 1.00000000 1.00000000
				-8.87744000 20.55880000 -14.74125000 / 0.89131590 0.45338280 0.00000000 / 86 145 0 255 / 4.55014000 0.56944270 / -0.45338280 0.89131590 -0.00001530 1.00000000
				-8.95447900 20.51962000 -14.13090000 / -0.89150910 -0.45300260 0.00038150 / 14 127 0 255 / -4.44686900 0.56977840 / -0.45300260 0.89150920 -0.00001550 1.00000000
				-8.95447900 20.51962000 -14.13090000 / -0.89150910 -0.45300260 0.00038150 / 14 127 0 255 / -4.44686900 0.56977840 / 0.00033470 0.00018340 0.99999980 1.00000000
				-8.95447900 20.51962000 -14.13090000 / -0.89150910 -0.45300260 0.00038150 / 14 127 0 255 / -4.44686900 0.56977840 / 0.00033420 0.00018440 0.99999980 1.00000000
				-8.94206800 20.49415000 -14.76957000 / -0.89102540 -0.45395280 0.00076290 / 14 159 0 255 / -5.49321000 0.60690310 / 0.00067480 0.00035630 0.99999970 1.00000000
				-8.94206800 20.49415000 -14.76957000 / -0.89102540 -0.45395280 0.00076290 / 14 159 0 255 / -5.49321000 0.60690310 / 0.00067430 0.00035720 0.99999970 1.00000000
				-8.95490900 20.51939000 -14.74125000 / -0.89092860 -0.45414280 0.00076290 / 12 173 0 255 / -5.49321000 0.56977840 / 0.00067430 0.00035720 0.99999970 1.00000000
				-8.95625600 20.39710000 -14.02250000 / 0.00000000 0.00000000 1.00000000 / 12 183 0 255 / 3.30067400 0.60969530 / 0.45337920 -0.89131770 0.00000000 1.00000000
				-14.44948000 20.32113000 -17.15049000 / 0.89131590 0.45338280 0.00000000 / 18 122 0 255 / -6.11442500 0.56745910 / -0.45338280 0.89131590 -0.00001550 1.00000000
				-14.44948000 20.32113000 -17.15049000 / 0.89131590 0.45338280 0.00000000 / 18 122 0 255 / -6.11442500 0.56745910 / -0.45338280 0.89131590 -0.00001550 1.00000000
				-14.44948000 20.32113000 -17.15049000 / 0.89131590 0.45338280 0.00000000 / 18 122 0 255 / -6.11442500 0.56745910 / -0.45338280 0.89131590 -0.00001590 1.00000000
				-8.78713200 20.57296000 -14.84965000 / 0.00000000 0.00000000 -1.00000000 / 50 72 0 255 / 0.23300170 0.65835570 / -0.45338020 0.89131720 0.00000000 1.00000000
				-14.44948000 20.32113000 -17.15049000 / 0.89131590 0.45338280 0.00000000 / 18 122 0 255 / -6.11442500 0.56745910 / -0.45338280 0.89131590 -0.00001590 1.00000000
				-16.73631000 24.81689000 -17.15056000 / 0.89131590 0.45338280 0.00000000 / 14 114 0 255 / -3.44860800 0.56745910 / -0.45338280 0.89131590 -0.00001550 1.00000000
				-16.73631000 24.81689000 -17.02068000 / 0.89131590 0.45338280 0.00000000 / 15 119 0 255 / -3.44860800 0.44119260 / -0.45338280 0.89131590 -0.00001550 1.00000000
				-16.73631000 24.81689000 -17.02068000 / 0.89131590 0.45338280 0.00000000 / 15 119 0 255 / -3.44860800 0.44119260 / -0.45338280 0.89131590 -0.00001550 1.00000000
				-14.44948000 20.32113000 -17.02060000 / 0.89131590 0.45338280 0.00000000 / 18 122 0 255 / -6.11442500 0.44119260 / -0.45338280 0.89131590 -0.00001550 1.00000000
				-14.44948000 20.32113000 -17.02060000 / 0.89131590 0.45338280 0.00000000 / 18 122 0 255 / -6.11442500 0.44119260 / -0.45338280 0.89131590 -0.00001590 1.00000000
				-13.30806000 18.07717000 -17.02056000 / 0.89131590 0.45338280 0.00000000 / 22 125 0 255 / -7.44500800 0.44119260 / -0.45338280 0.89131590 -0.00001590 1.00000000
				-9.61839400 21.69883000 -14.02252000 / 0.00000000 0.00000000 1.00000000 / 12 180 0 255 / -0.96719360 0.60969530 / 0.45337920 -0.89131770 0.00000000 1.00000000
				-13.30806000 18.07717000 -17.02056000 / 0.89131590 0.45338280 0.00000000 / 22 125 0 255 / -7.44500800 0.44119260 / -0.45338280 0.89131590 -0.00001590 1.00000000
				-13.31149000 18.06775000 -17.01031000 / 0.00000000 0.00000000 1.00000000 / 15 229 0 255 / -7.44125300 0.86410520 / -0.89131810 -0.45337840 0.00000000 1.00000000
				-9.83487600 22.08887000 -13.61433000 / 0.37735760 -0.74174570 -0.55444970 / 12 86 0 255 / 6.27951000 0.86401370 / -0.89140580 -0.45320580 -0.00038830 1.00000000
				-13.30806000 18.07717000 -17.15045000 / 0.89131590 0.45338280 0.00000000 / 24 130 0 255 / -7.44500800 0.56745910 / -0.45338280 0.89131590 -0.00001590 1.00000000
				-8.78710600 20.57293000 -17.15043000 / -0.45338280 0.89131590 0.00000000 / 141 157 0 255 / -0.72270210 0.65776060 / -0.00003630 -0.00001840 1.00000000 1.00000000
				-14.45862000 20.31648000 -17.01035000 / 0.00000000 0.00000000 1.00000000 / 13 229 0 255 / -6.11442500 0.43051150 / -0.45286250 0.89158030 0.00000000 1.00000000
				-14.45862000 20.31648000 -17.01035000 / 0.00000000 0.00000000 1.00000000 / 13 229 0 255 / -6.11442500 0.43051150 / -0.45338040 0.89131710 0.00000000 1.00000000
				-14.45862000 20.31648000 -17.01035000 / 0.00000000 0.00000000 1.00000000 / 13 229 0 255 / -6.11442500 0.43051150 / -0.45337850 0.89131810 0.00000000 1.00000000
				-14.45862000 20.31648000 -17.01035000 / 0.00000000 0.00000000 1.00000000 / 13 229 0 255 / -6.11442500 0.43051150 / -0.45441430 0.89079050 0.00000000 1.00000000
				-16.74593000 24.81966000 -17.01043000 / 0.00000000 0.00000000 1.00000000 / 18 227 0 255 / -3.44487000 0.43051150 / -0.45286250 0.89158030 0.00000000 1.00000000
				-16.76979000 24.82779000 -17.01043000 / 0.00000000 0.00000000 1.00000000 / 14 225 0 255 / -3.43539400 0.40000920 / -0.45286250 0.89158030 0.00000000 1.00000000
				-16.74593000 24.81966000 -17.01043000 / 0.37709920 -0.74141870 0.55506260 / 54 203 0 255 / -3.45234700 0.86489870 / 0.89132760 0.45335980 0.00001890 1.00000000
				-16.76979000 24.82779000 -17.01043000 / 0.00000000 0.00000000 1.00000000 / 14 225 0 255 / -3.43539400 0.40000920 / -0.45338040 0.89131710 0.00000000 1.00000000
				-9.83487600 22.08887000 -13.61433000 / 0.37735760 -0.74174570 -0.55444970 / 12 86 0 255 / 6.27951000 0.86401370 / -0.89129660 -0.45342080 -0.00002640 1.00000000
				-14.47168000 20.30984000 -17.01035000 / 0.00000000 0.00000000 1.00000000 / 12 225 0 255 / -6.11442500 0.40000920 / -0.45338040 0.89131710 0.00000000 1.00000000
				-14.47168000 20.30984000 -17.01035000 / 0.00000000 0.00000000 1.00000000 / 12 225 0 255 / -6.11442500 0.40000920 / -0.45337850 0.89131810 0.00000000 1.00000000
				-13.31897000 18.04368000 -17.01031000 / 0.00000000 0.00000000 1.00000000 / 14 222 0 255 / -7.45819100 0.40000920 / -0.45337850 0.89131810 0.00000000 1.00000000
				-13.31897000 18.04368000 -17.01031000 / 0.00000000 0.00000000 1.00000000 / 14 222 0 255 / -7.45819100 0.40000920 / -0.45441430 0.89079050 0.00000000 1.00000000
				-13.31149000 18.06775000 -17.01031000 / 0.00000000 0.00000000 1.00000000 / 15 229 0 255 / -7.44873000 0.43051150 / -0.45441430 0.89079050 0.00000000 1.00000000
				-13.31897000 18.04368000 -17.01031000 / 0.00000000 0.00000000 1.00000000 / 14 222 0 255 / -7.43177800 0.83361820 / -0.89131810 -0.45337840 0.00000000 1.00000000
				-13.31897000 18.04368000 -17.01031000 / 0.00000000 0.00000000 1.00000000 / 14 222 0 255 / -7.43177800 0.83361820 / -0.89131780 -0.45337900 0.00000000 1.00000000
				-8.90415900 20.28933000 -17.01029000 / 0.00000000 0.00000000 1.00000000 / 13 189 0 255 / -10.04988000 0.83361820 / -0.89131780 -0.45337900 0.00000000 1.00000000
				-10.03254000 22.84454000 -17.01034000 / -0.00009540 0.00019070 1.00000000 / 123 227 0 255 / 0.11410520 0.83351140 / -0.89555660 -0.44494770 -0.00000050 1.00000000
				-16.74593000 24.81966000 -17.01043000 / 0.37709920 -0.74141870 0.55506260 / 54 203 0 255 / -3.45234700 0.86489870 / 0.89134160 0.45333220 -0.00002760 1.00000000
				-9.83830600 22.07946000 -13.60407000 / 0.37735760 -0.74174570 -0.55444970 / 12 86 0 255 / 6.28767400 0.87716670 / -0.89129660 -0.45342080 -0.00002640 1.00000000
				-10.03254000 22.84454000 -17.01034000 / -0.00009540 0.00019070 1.00000000 / 123 227 0 255 / 0.11410520 0.83351140 / -0.89229950 -0.45144390 0.00000100 1.00000000
				-10.03586000 22.85107000 -17.01034000 / -0.00009540 0.00019070 1.00000000 / 139 227 0 255 / 0.11428830 0.86723330 / -0.89555660 -0.44494770 -0.00000050 1.00000000
				-9.01907500 20.45493000 -17.15043000 / -0.45338280 0.89131590 0.00000000 / 135 157 0 255 / -0.72271730 0.79856870 / -0.00003630 -0.00001840 1.00000000 1.00000000
				-9.01907500 20.45493000 -17.15043000 / -0.45338280 0.89131590 0.00000000 / 135 157 0 255 / -0.72271730 0.79856870 / -0.00003640 -0.00001850 1.00000000 1.00000000
				-10.45392000 22.64335000 -17.01034000 / 0.00000000 0.00000000 1.00000000 / 100 222 0 255 / 1.15593000 0.86717220 / -0.89555660 -0.44494770 0.00000000 1.00000000
				-10.45392000 22.64335000 -17.01034000 / 0.00000000 0.00000000 1.00000000 / 100 222 0 255 / 1.15593000 0.86717220 / -0.89229950 -0.45144390 0.00000000 1.00000000
				-16.73631000 24.81689000 -17.02068000 / 0.45338280 -0.89131590 0.00000000 / 19 115 0 255 / -3.44860800 0.87480160 / 0.89131590 0.45338280 0.00000380 1.00000000
				-10.43382000 22.64152000 -17.01034000 / 0.00000000 0.00000000 1.00000000 / 61 220 0 255 / 1.11843900 0.83351140 / -0.89229950 -0.45144390 0.00000000 1.00000000
				-10.10701000 21.94217000 -17.02058000 / 0.45482710 -0.89057980 0.00000000 / 14 114 0 255 / 2.38017300 0.87779240 / 0.89057980 0.45482700 -0.00015600 1.00000000
				-10.10701000 21.94217000 -17.02058000 / 0.45482710 -0.89057980 0.00000000 / 14 114 0 255 / 2.38017300 0.87779240 / 0.89057980 0.45482710 -0.00015530 1.00000000
				-10.46584000 22.64845000 -13.60409000 / -0.72535160 -0.36849310 -0.58144470 / 22 127 0 255 / 7.25430300 0.87719720 / -0.45290740 0.89155750 -0.00002690 1.00000000
				-10.03773000 22.85471000 -13.61434000 / 0.00000000 0.00000000 -1.00000000 / 73 72 0 255 / 7.79467800 0.86412050 / 0.89132200 0.45337080 0.00000000 1.00000000
				-10.10701000 21.94217000 -17.15046000 / 0.45482710 -0.89057980 0.00000000 / 15 110 0 255 / 2.38020300 1.00137300 / 0.89057980 0.45482700 -0.00015600 1.00000000
				-9.84174900 22.07765000 -17.15046000 / 0.45482710 -0.89057980 0.00000000 / 14 114 0 255 / 3.04495200 1.00132700 / 0.89057980 0.45482700 -0.00015600 1.00000000
				-9.84174900 22.07765000 -17.15046000 / 0.45482710 -0.89057980 0.00000000 / 14 114 0 255 / 3.04495200 1.00132700 / 0.89057980 0.45482710 -0.00015530 1.00000000
				-9.84175000 22.07765000 -17.02058000 / 0.45482710 -0.89057980 0.00000000 / 12 118 0 255 / 3.04492200 0.87774660 / 0.89057980 0.45482710 -0.00015530 1.00000000
				-10.09501000 21.97457000 -17.01032000 / 0.00000000 0.00000000 1.00000000 / 15 216 0 255 / 2.43608100 0.83351140 / 0.89059580 0.45479570 0.00000000 1.00000000
				-10.09501000 21.97457000 -17.01032000 / 0.00000000 0.00000000 1.00000000 / 15 216 0 255 / 2.43608100 0.83351140 / 0.89057100 0.45484420 0.00000000 1.00000000
				-10.10358000 21.95159000 -17.01032000 / 0.00000000 0.00000000 1.00000000 / 28 216 0 255 / 2.39648400 0.86712650 / 0.89059580 0.45479570 0.00000000 1.00000000
				-9.83832100 22.08706000 -17.01032000 / 0.00000000 0.00000000 1.00000000 / 11 213 0 255 / 3.06124900 0.86709600 / 0.89059580 0.45479570 0.00000000 1.00000000
				-9.83832100 22.08706000 -17.01032000 / 0.00000000 0.00000000 1.00000000 / 11 213 0 255 / 3.06124900 0.86709600 / 0.89057100 0.45484420 0.00000000 1.00000000
				-9.63380800 21.69038000 -17.01031000 / -0.64360540 -0.33186350 0.68966560 / 13 205 0 255 / 4.02606200 0.86709600 / 0.45827910 -0.88880840 -0.00001770 1.00000000
				-10.46584000 22.64845000 -13.60409000 / -0.72535160 -0.36849310 -0.58144470 / 22 127 0 255 / 7.25430300 0.87719720 / -0.45290050 0.89156110 -0.00003790 1.00000000
				-9.01910100 20.45496000 -14.84965000 / -0.45338280 0.89131590 0.00000000 / 129 157 0 255 / 1.47491500 0.79852290 / -0.00003640 -0.00001850 1.00000000 1.00000000
				-10.03773000 22.85471000 -13.61434000 / 0.00000000 0.00000000 -1.00000000 / 73 72 0 255 / 7.79467800 0.86412050 / 0.89414160 0.44778440 0.00000000 1.00000000
				-9.83018200 22.10983000 -17.01032000 / 0.00000000 0.00000000 1.00000000 / 9 206 0 255 / 3.10084500 0.83351140 / 0.89057100 0.45484420 0.00000000 1.00000000
				-10.46397000 22.64481000 -17.02059000 / -0.89150920 -0.45300270 0.00000000 / 16 156 0 255 / 1.17450000 0.87783810 / 0.45300260 -0.89150920 -0.00004180 1.00000000
				-10.46397000 22.64481000 -17.02059000 / -0.89150920 -0.45300270 0.00000000 / 16 156 0 255 / 1.17450000 0.87783810 / 0.45300260 -0.89150920 -0.00004150 1.00000000
				-16.74593000 24.81966000 -17.01043000 / 0.00000000 0.00000000 1.00000000 / 18 227 0 255 / -3.45234700 0.86489870 / 0.89112750 0.45375310 0.00000000 1.00000000
				-16.74593000 24.81966000 -17.01043000 / 0.00000000 0.00000000 1.00000000 / 18 227 0 255 / -3.45234700 0.86489870 / 0.89131710 0.45338030 0.00000000 1.00000000
				-10.46397000 22.64481000 -17.15048000 / -0.89150920 -0.45300270 0.00000000 / 15 153 0 255 / 1.17453000 1.00141900 / 0.45300260 -0.89150920 -0.00004180 1.00000000
				-10.10701000 21.94217000 -17.15046000 / -0.89150920 -0.45300270 0.00000000 / 16 156 0 255 / 2.38020300 1.00137300 / 0.45300260 -0.89150920 -0.00004180 1.00000000
				-10.10701000 21.94217000 -17.15046000 / -0.89150920 -0.45300270 0.00000000 / 16 156 0 255 / 2.38020300 1.00137300 / 0.45300260 -0.89150920 -0.00004150 1.00000000
				-10.45599000 22.64524000 -13.61434000 / -0.72535160 -0.36849310 -0.58144470 / 22 127 0 255 / 7.24623100 0.86410520 / -0.45290740 0.89155750 -0.00002690 1.00000000
				-10.10701000 21.94217000 -17.02058000 / -0.89150920 -0.45300270 0.00000000 / 18 158 0 255 / 2.38017300 0.87779240 / 0.45300260 -0.89150920 -0.00004150 1.00000000
				-10.43382000 22.64152000 -17.01034000 / 0.00000000 0.00000000 1.00000000 / 61 220 0 255 / 1.21170000 0.83351140 / 0.45178170 -0.89212850 0.00000000 1.00000000
				-16.73631000 24.81689000 -17.02068000 / 0.37728930 -0.74160810 0.55468020 / 54 203 0 255 / -3.44860800 0.87480160 / 0.89129610 0.45342170 -0.00002750 1.00000000
				-10.43382000 22.64152000 -17.01034000 / 0.00000000 0.00000000 1.00000000 / 61 220 0 255 / 1.21170000 0.83351140 / 0.45291370 -0.89155440 0.00000000 1.00000000
				-10.45392000 22.64335000 -17.01034000 / 0.00000000 0.00000000 1.00000000 / 100 222 0 255 / 1.18690500 0.86717220 / 0.45178170 -0.89212850 0.00000000 1.00000000
				-10.10358000 21.95159000 -17.01032000 / 0.00000000 0.00000000 1.00000000 / 28 216 0 255 / 2.36491400 0.86712650 / 0.45178170 -0.89212850 0.00000000 1.00000000
				-10.10358000 21.95159000 -17.01032000 / 0.00000000 0.00000000 1.00000000 / 28 216 0 255 / 2.36491400 0.86712650 / 0.45291370 -0.89155440 0.00000000 1.00000000
				-10.09501000 21.97457000 -17.01032000 / 0.00000000 0.00000000 1.00000000 / 15 216 0 255 / 2.32775900 0.83351140 / 0.45291370 -0.89155440 0.00000000 1.00000000
				-10.10727000 21.94265000 -13.50495000 / -0.89150920 -0.45300270 0.00000000 / 29 188 0 255 / 6.63119500 1.00010700 / -0.45300260 0.89150920 -0.00003570 1.00000000
				-9.64494200 21.68532000 -14.02252000 / -0.89131590 -0.45338280 0.00000000 / 14 172 0 255 / -2.85903900 0.65536500 / 0.45338280 -0.89131590 0.00001540 1.00000000
				-10.10384000 21.95206000 -13.61433000 / -0.72563720 -0.36868360 -0.58096750 / 22 127 0 255 / 6.63893200 0.86409000 / -0.45293690 0.89154260 -0.00005040 1.00000000
				-9.64494200 21.68532000 -14.02252000 / -0.89131590 -0.45338280 0.00000000 / 14 172 0 255 / -2.85903900 0.65536500 / 0.45338280 -0.89131590 0.00002160 1.00000000
				-8.98059500 20.38467000 -17.02055000 / -0.89131590 -0.45338280 0.00000000 / 22 142 0 255 / -10.08673000 0.87480160 / 0.45338280 -0.89131590 0.00000000 1.00000000
				-8.98059500 20.38467000 -17.02055000 / -0.89131590 -0.45338280 0.00000000 / 22 142 0 255 / -10.08673000 0.87480160 / 0.45338280 -0.89131590 0.00000000 1.00000000
				-12.20791000 27.12032000 -17.02066000 / 0.32875800 -0.64530800 0.68956200 / 54 203 0 255 / -0.76335140 0.87480160 / 0.89116600 0.45367720 -0.00031390 1.00000000
				-8.98059200 20.38466000 -17.15043000 / -0.89131590 -0.45338280 0.00000000 / 22 131 0 255 / -10.08673000 1.00105300 / 0.45338280 -0.89131590 0.00000000 1.00000000
				-8.93764600 20.30023000 -17.15043000 / -0.89131590 -0.45338280 0.00000000 / 22 142 0 255 / -10.03665000 1.00105300 / 0.45338280 -0.89131590 0.00000000 1.00000000
				-8.93764600 20.30023000 -17.15043000 / -0.89131590 -0.45338280 0.00000000 / 22 142 0 255 / -10.03665000 1.00105300 / 0.45338280 -0.89131590 0.00000000 1.00000000
				-12.21234000 27.12902000 -17.01041000 / 0.00000000 0.00000000 1.00000000 / 28 229 0 255 / -0.76335140 0.86332700 / 0.89112750 0.45375310 0.00000000 1.00000000
				-8.93764700 20.30023000 -17.02055000 / -0.89131590 -0.45338280 0.00000000 / 22 152 0 255 / -10.03665000 0.87480160 / 0.45338280 -0.89131590 0.00000000 1.00000000
				-8.95839900 20.39596000 -17.01029000 / 0.00000000 0.00000000 1.00000000 / 12 177 0 255 / -10.08696000 0.83361820 / 0.42751530 -0.90400810 0.00000000 1.00000000
				-10.10384000 21.95206000 -13.61433000 / -0.72563720 -0.36868360 -0.58096750 / 22 127 0 255 / 6.63893200 0.86409000 / -0.45292980 0.89154620 -0.00006150 1.00000000
				-8.95839900 20.39596000 -17.01029000 / 0.00000000 0.00000000 1.00000000 / 12 177 0 255 / -10.08696000 0.83361820 / 0.45338250 -0.89131610 0.00000000 1.00000000
				-8.97189100 20.38909000 -17.01029000 / 0.00000000 0.00000000 1.00000000 / 12 178 0 255 / -10.08673000 0.86410520 / 0.42751530 -0.90400810 0.00000000 1.00000000
				-8.92845400 20.29724000 -17.01029000 / 0.00000000 0.00000000 1.00000000 / 13 196 0 255 / -10.03293000 0.86410520 / 0.42751530 -0.90400810 0.00000000 1.00000000
				-8.92845400 20.29724000 -17.01029000 / 0.00000000 0.00000000 1.00000000 / 13 196 0 255 / -10.03293000 0.86410520 / 0.45338250 -0.89131610 0.00000000 1.00000000
				-10.46584000 22.64845000 -13.60409000 / -0.45338280 0.89131590 0.00000000 / 115 73 0 255 / 7.25430300 0.87719720 / 0.89131590 0.45338280 -0.00002150 1.00000000
				-12.20791000 27.12032000 -17.02066000 / 0.32875800 -0.64530800 0.68956200 / 54 203 0 255 / -0.76335140 0.87480160 / 0.89116100 0.45368710 -0.00030220 1.00000000
				-8.90415900 20.28933000 -17.01029000 / 0.00000000 0.00000000 1.00000000 / 13 189 0 255 / -10.02373000 0.83361820 / 0.45338250 -0.89131610 0.00000000 1.00000000
				-9.84175000 22.07765000 -17.02058000 / -0.89131590 -0.45338280 0.00000000 / 13 147 0 255 / 3.04492200 0.87774660 / 0.45338280 -0.89131590 0.00001740 1.00000000
				-9.84175000 22.07765000 -17.02058000 / -0.89131590 -0.45338280 0.00000000 / 13 147 0 255 / 3.04492200 0.87774660 / 0.45338280 -0.89131590 0.00001740 1.00000000
				-9.60863300 21.61394000 -14.10260000 / -0.89131590 -0.45338280 0.00000000 / 15 171 0 255 / -2.60960400 0.79608150 / 0.45338280 -0.89131590 0.00001540 1.00000000
				-10.10727000 21.94265000 -13.60407000 / -0.72563720 -0.36868360 -0.58096750 / 22 127 0 255 / 6.63119500 0.87716670 / -0.45292980 0.89154620 -0.00006150 1.00000000
				-9.84174900 22.07765000 -17.15046000 / -0.89131590 -0.45338280 0.00000000 / 13 145 0 255 / 3.04495200 1.00132700 / 0.45338280 -0.89131590 0.00001740 1.00000000
				-9.64250900 21.68595000 -17.15045000 / -0.89131590 -0.45338280 0.00000000 / 13 147 0 255 / 4.02604700 1.00132700 / 0.45338280 -0.89131590 0.00001740 1.00000000
				-9.64250900 21.68595000 -17.15045000 / -0.89131590 -0.45338280 0.00000000 / 13 147 0 255 / 4.02604700 1.00132700 / 0.45338280 -0.89131590 0.00001740 1.00000000
				-9.64251200 21.68595000 -17.02057000 / -0.89131590 -0.45338280 0.00000000 / 13 149 0 255 / 4.02606200 0.87774660 / 0.45338280 -0.89131590 0.00001740 1.00000000
				-9.83018200 22.10983000 -17.01032000 / 0.00000000 0.00000000 1.00000000 / 9 206 0 255 / 2.99281300 0.83351140 / 0.45824660 -0.88882510 0.00000000 1.00000000
				-9.83018200 22.10983000 -17.01032000 / 0.00000000 0.00000000 1.00000000 / 9 206 0 255 / 2.99281300 0.83351140 / 0.45338200 -0.89131630 0.00000000 1.00000000
				-12.21234000 27.12902000 -17.01041000 / 0.32867010 -0.64513200 0.68976860 / 54 203 0 255 / -0.76335140 0.86332700 / 0.89116050 0.45368810 -0.00030330 1.00000000
				-12.21920000 27.14251000 -17.01041000 / 0.00000000 0.00000000 1.00000000 / 22 223 0 255 / -0.76335140 0.83361820 / 0.89112750 0.45375310 0.00000000 1.00000000
				-12.21920000 27.14251000 -17.01041000 / 0.00000000 0.00000000 1.00000000 / 22 223 0 255 / -0.76335140 0.83361820 / 0.89131710 0.45338030 0.00000000 1.00000000
				-9.83832100 22.08706000 -17.01032000 / 0.00000000 0.00000000 1.00000000 / 11 213 0 255 / 3.02964800 0.86709600 / 0.45824660 -0.88882510 0.00000000 1.00000000
				-9.53159600 21.65312000 -14.76959000 / -0.89131590 -0.45338280 0.00000000 / 11 173 0 255 / -1.31701700 0.60690310 / 0.45338280 -0.89131590 0.00001540 1.00000000
				-9.63380800 21.69038000 -17.01031000 / 0.00000000 0.00000000 1.00000000 / 9 203 0 255 / 4.02606200 0.86709600 / 0.45824660 -0.88882510 0.00000000 1.00000000
				-9.63380800 21.69038000 -17.01031000 / 0.00000000 0.00000000 1.00000000 / 9 203 0 255 / 4.02606200 0.86709600 / 0.45338200 -0.89131630 0.00000000 1.00000000
				-9.62031600 21.69725000 -17.01031000 / 0.00000000 0.00000000 1.00000000 / 9 195 0 255 / 4.02627600 0.83351140 / 0.45338200 -0.89131630 0.00000000 1.00000000
				-8.93464500 20.30292000 -13.50492000 / -0.45338280 0.89131590 0.00000000 / 12 174 0 255 / 4.01922600 1.00013700 / 0.89131590 0.45338280 0.00000370 1.00000000
				-8.93464500 20.30292000 -13.50492000 / -0.45338280 0.89131590 0.00000000 / 12 174 0 255 / 4.01922600 1.00013700 / 0.89131590 0.45338280 0.00000370 1.00000000
				-8.93464500 20.30292000 -13.60404000 / -0.45338280 0.89131590 0.00000000 / 13 168 0 255 / 4.01922600 0.87719720 / 0.89131590 0.45338280 0.00000370 1.00000000
				-9.01910800 20.45497000 -14.10258000 / -0.89131590 -0.45338280 0.00000000 / 13 171 0 255 / 1.42567400 0.79608150 / 0.45338280 -0.89131590 0.00001540 1.00000000
				-12.21237000 27.12906000 -13.61441000 / 0.32853130 -0.64580960 -0.68920060 / 53 91 0 255 / -15.95453000 0.86315920 / -0.89130860 -0.45339720 -0.00002110 1.00000000
				-9.01910800 20.45497000 -14.10258000 / -0.89131590 -0.45338280 0.00000000 / 13 171 0 255 / 1.42567400 0.79608150 / 0.45338280 -0.89131590 0.00002160 1.00000000
				-13.30854000 18.07808000 -13.60406000 / -0.45338280 0.89131590 0.00000000 / 12 174 0 255 / -1.56668100 0.87719720 / 0.89131590 0.45338280 0.00000370 1.00000000
				-10.04238000 22.86385000 -13.60409000 / -0.31747640 0.63380850 -0.70533370 / 138 94 0 255 / 7.79467800 0.87719720 / 0.89412180 0.44782380 -0.00003980 1.00000000
				-13.30854000 18.07808000 -13.60406000 / -0.45338280 0.89131590 0.00000000 / 12 174 0 255 / -1.56668100 0.87719720 / 0.89131590 0.45338280 0.00000370 1.00000000
				-13.30854000 18.07808000 -13.50494000 / -0.45338280 0.89131590 0.00000000 / 12 179 0 255 / -1.56668100 1.00013700 / 0.89131590 0.45338280 0.00000370 1.00000000
				-8.92523000 20.29949000 -13.61429000 / 0.00000000 0.00000000 -1.00000000 / 12 75 0 255 / 4.02682500 0.86402890 / 0.89131770 0.45337940 0.00000000 1.00000000
				-8.92523000 20.29949000 -13.61429000 / 0.00000000 0.00000000 -1.00000000 / 12 75 0 255 / 4.02682500 0.86402890 / 0.89135300 0.45330970 0.00000000 1.00000000
				-8.90202100 20.29048000 -13.61429000 / 0.00000000 0.00000000 -1.00000000 / 11 74 0 255 / 4.04579200 0.83245850 / 0.89131770 0.45337940 0.00000000 1.00000000
				-13.31901000 18.04372000 -13.61431000 / 0.00000000 0.00000000 -1.00000000 / 14 75 0 255 / -1.59513800 0.83245850 / 0.89131770 0.45337940 0.00000000 1.00000000
				-13.31901000 18.04372000 -13.61431000 / 0.00000000 0.00000000 -1.00000000 / 14 75 0 255 / -1.59513800 0.83245850 / 0.89135300 0.45330970 0.00000000 1.00000000
				-16.76979000 24.82779000 -17.01043000 / 0.00000000 0.00000000 1.00000000 / 14 225 0 255 / -3.46182300 0.83361820 / 0.89131710 0.45338030 0.00000000 1.00000000
				-12.21237000 27.12906000 -13.61441000 / 0.32853130 -0.64580960 -0.68920060 / 53 91 0 255 / -15.95453000 0.86315920 / -0.89130200 -0.45341000 -0.00000600 1.00000000
				-13.31154000 18.06889000 -13.61431000 / 0.00000000 0.00000000 -1.00000000 / 17 71 0 255 / -1.57455400 0.86419680 / 0.89135300 0.45330970 0.00000000 1.00000000
				-10.04238000 22.86385000 -13.60409000 / -0.31747640 0.63380850 -0.70533370 / 138 94 0 255 / 7.79467800 0.87719720 / 0.89271520 0.45061070 0.00309770 1.00000000
				-9.83830600 22.07946000 -13.50495000 / -0.89131590 -0.45338280 0.00000000 / 14 90 0 255 / 6.28767400 1.00009200 / -0.45338280 0.89131590 -0.00000300 1.00000000
				-9.83830600 22.07946000 -13.50495000 / -0.89131590 -0.45338280 0.00000000 / 14 90 0 255 / 6.28767400 1.00009200 / -0.45338280 0.89131590 0.00000290 1.00000000
				-9.83830600 22.07946000 -13.60407000 / -0.89131590 -0.45338280 0.00000000 / 16 89 0 255 / 6.28767400 0.87716670 / -0.45338280 0.89131590 -0.00000300 1.00000000
				-8.93464500 20.30292000 -13.60404000 / -0.89131590 -0.45338280 0.00000000 / 14 90 0 255 / 4.01922600 0.87719720 / -0.45338280 0.89131590 -0.00000300 1.00000000
				-8.93464500 20.30292000 -13.60404000 / -0.89131590 -0.45338280 0.00000000 / 14 90 0 255 / 4.01922600 0.87719720 / -0.45338280 0.89131590 0.00000290 1.00000000
				-8.98280500 20.38360000 -14.02250000 / -0.89131590 -0.45338280 0.00000000 / 12 172 0 255 / 1.67404200 0.65538030 / 0.45338280 -0.89131590 0.00002160 1.00000000
				-8.93464500 20.30292000 -13.50492000 / -0.89131590 -0.45338280 0.00000000 / 13 91 0 255 / 4.01922600 1.00013700 / -0.45338280 0.89131590 0.00000290 1.00000000
				-9.83487600 22.08887000 -13.61433000 / 0.00000000 0.00000000 -1.00000000 / 10 73 0 255 / 6.29562400 0.86407470 / -0.45337970 0.89131750 0.00000000 1.00000000
				-9.83487600 22.08887000 -13.61433000 / 0.00000000 0.00000000 -1.00000000 / 10 73 0 255 / 6.29562400 0.86407470 / -0.45317400 0.89142210 0.00000000 1.00000000
				-16.76983000 24.82783000 -13.61443000 / 0.00000000 0.00000000 -1.00000000 / 21 68 0 255 / -10.20024000 0.39886470 / 0.45343730 -0.89128820 0.00000000 1.00000000
				-10.03773000 22.85471000 -13.61434000 / -0.31653600 0.63211820 -0.70727050 / 138 94 0 255 / 7.79467800 0.86412050 / 0.89414860 0.44777060 0.00001950 1.00000000
				-9.82781900 22.11054000 -13.61433000 / 0.00000000 0.00000000 -1.00000000 / 11 72 0 255 / 6.31355300 0.83245850 / -0.45337970 0.89131750 0.00000000 1.00000000
				-8.90202100 20.29048000 -13.61429000 / 0.00000000 0.00000000 -1.00000000 / 11 74 0 255 / 3.98954800 0.83245850 / -0.45337970 0.89131750 0.00000000 1.00000000
				-8.90202100 20.29048000 -13.61429000 / 0.00000000 0.00000000 -1.00000000 / 11 74 0 255 / 3.98954800 0.83245850 / -0.45317400 0.89142210 0.00000000 1.00000000
				-8.92523000 20.29949000 -13.61429000 / 0.00000000 0.00000000 -1.00000000 / 12 75 0 255 / 4.01074200 0.86412050 / -0.45317400 0.89142210 0.00000000 1.00000000
				-10.10727000 21.94265000 -13.50495000 / 0.45338280 -0.89131590 0.00000000 / 15 105 0 255 / 6.63119500 1.00010700 / -0.89131590 -0.45338280 -0.00000320 1.00000000
				-10.10727000 21.94265000 -13.50495000 / 0.45338280 -0.89131590 0.00000000 / 15 105 0 255 / 6.63119500 1.00010700 / -0.89131590 -0.45338280 -0.00004330 1.00000000
				-16.73635000 24.81693000 -13.50506000 / 0.45338280 -0.89131590 0.00000000 / 45 95 0 255 / -10.17178000 1.00013700 / -0.89131590 -0.45338280 -0.00000380 1.00000000
				-16.73635000 24.81693000 -13.50506000 / 0.45338280 -0.89131590 0.00000000 / 45 95 0 255 / -10.17178000 1.00013700 / -0.89131590 -0.45338280 -0.00000380 1.00000000
				-10.10727000 21.94265000 -13.60407000 / 0.45338280 -0.89131590 0.00000000 / 16 118 0 255 / 6.63119500 0.87716670 / -0.89131590 -0.45338280 -0.00000320 1.00000000
				-9.83830600 22.07946000 -13.60407000 / 0.45338280 -0.89131590 0.00000000 / 15 105 0 255 / 6.28767400 0.87716670 / -0.89131590 -0.45338280 -0.00000320 1.00000000
				-10.45599000 22.64524000 -13.61434000 / -0.36823400 0.72406950 -0.58320400 / 138 94 0 255 / 7.26232900 0.86412050 / 0.89230110 0.45143120 -0.00292870 1.00000000
				-16.76983000 24.82783000 -13.61443000 / 0.00000000 0.00000000 -1.00000000 / 21 68 0 255 / -10.20024000 0.39886470 / 0.45337980 -0.89131750 0.00000000 1.00000000
				-9.83830600 22.07946000 -13.60407000 / 0.45338280 -0.89131590 0.00000000 / 15 105 0 255 / 6.28767400 0.87716670 / -0.89131590 -0.45338280 -0.00004330 1.00000000
				-9.83830600 22.07946000 -13.50495000 / 0.45338280 -0.89131590 -0.00009540 / 14 92 0 255 / 6.28767400 1.00009200 / -0.89131590 -0.45338280 -0.00004330 1.00000000
				-9.44129400 21.66729000 -14.13092000 / 0.00000000 0.00000000 -1.00000000 / 60 93 0 255 / 4.93817100 0.00238040 / -0.45337930 0.89131770 0.00000000 1.00000000
				-9.44129400 21.66729000 -14.13092000 / 0.00000000 0.00000000 -1.00000000 / 60 93 0 255 / 4.93817100 0.00238040 / -0.45337930 0.89131770 0.00000000 1.00000000
				-10.10384000 21.95206000 -13.61433000 / 0.00000000 0.00000000 -1.00000000 / 14 67 0 255 / 6.62284900 0.86415100 / -0.89132430 -0.45336660 0.00000000 1.00000000
				-10.10384000 21.95206000 -13.61433000 / 0.00000000 0.00000000 -1.00000000 / 14 67 0 255 / 6.62284900 0.86415100 / -0.89142100 -0.45317620 0.00000000 1.00000000
				-10.09548000 21.97440000 -13.61433000 / 0.00000000 0.00000000 -1.00000000 / 22 63 0 255 / 6.60330200 0.83245850 / -0.89132430 -0.45336660 0.00000000 1.00000000
				-9.82781900 22.11054000 -13.61433000 / 0.00000000 0.00000000 -1.00000000 / 11 72 0 255 / 6.26110800 0.83245850 / -0.89132430 -0.45336660 0.00000000 1.00000000
				-9.82781900 22.11054000 -13.61433000 / 0.00000000 0.00000000 -1.00000000 / 11 72 0 255 / 6.26110800 0.83245850 / -0.89142100 -0.45317620 0.00000000 1.00000000
				-8.93464500 20.30292000 -13.60404000 / -0.36876070 0.72531520 -0.58132030 / 13 123 0 255 / 4.01922600 0.87719720 / 0.89138230 0.45325210 0.00007550 1.00000000
				-10.45599000 22.64524000 -13.61434000 / -0.36823400 0.72406950 -0.58320400 / 138 94 0 255 / 7.26232900 0.86412050 / 0.89133940 0.45333650 0.00004410 1.00000000
				-9.83487600 22.08887000 -13.61433000 / 0.00000000 0.00000000 -1.00000000 / 10 73 0 255 / 6.27951000 0.86401370 / -0.89142100 -0.45317620 0.00000000 1.00000000
				-12.20795000 27.12036000 -13.60416000 / 0.32844350 -0.64563360 -0.68940700 / 53 91 0 255 / -15.95453000 0.87719720 / -0.89130810 -0.45339810 -0.00002220 1.00000000
				-10.46584000 22.64846000 -13.50497000 / -0.89150920 -0.45300270 0.00000000 / 28 187 0 255 / 7.25430300 1.00012200 / -0.45300270 0.89150920 -0.00005160 1.00000000
				-10.46584000 22.64846000 -13.50497000 / -0.89150920 -0.45300270 0.00000000 / 28 187 0 255 / 7.25430300 1.00012200 / -0.45300260 0.89150920 -0.00003570 1.00000000
				-10.46584000 22.64845000 -13.60409000 / -0.89150920 -0.45300270 0.00000000 / 26 187 0 255 / 7.25430300 0.87719720 / -0.45300270 0.89150920 -0.00005160 1.00000000
				-10.10727000 21.94265000 -13.60407000 / -0.89150920 -0.45300270 0.00000000 / 28 187 0 255 / 6.63119500 0.87716670 / -0.45300270 0.89150920 -0.00005160 1.00000000
				-10.10727000 21.94265000 -13.60407000 / -0.89150920 -0.45300270 0.00000000 / 28 187 0 255 / 6.63119500 0.87716670 / -0.45300260 0.89150920 -0.00003570 1.00000000
				-16.73635000 24.81693000 -13.60418000 / 0.89131590 0.45338280 0.00000000 / 33 138 0 255 / -10.17178000 0.44360350 / 0.45338280 -0.89131590 0.00001540 1.00000000
				-16.73635000 24.81693000 -13.60418000 / 0.89131590 0.45338280 0.00000000 / 33 138 0 255 / -10.17178000 0.44360350 / 0.45338280 -0.89131590 0.00001540 1.00000000
				-8.87744700 20.55880000 -14.13090000 / 0.00000000 0.00000000 -1.00000000 / 53 89 0 255 / 1.64389000 0.00238040 / -0.45337930 0.89131770 0.00000000 1.00000000
				-13.30806000 18.07717000 -17.15045000 / -0.45338280 0.89131590 0.00000000 / 53 154 0 255 / -7.44500800 1.00105300 / -0.89131590 -0.45338280 -0.00000350 1.00000000
				-8.95447900 20.51962000 -14.13090000 / 0.00000000 0.00000000 -1.00000000 / 60 93 0 255 / 1.64389000 0.13514710 / -0.45337930 0.89131770 0.00000000 1.00000000
				-8.95447900 20.51962000 -14.13090000 / 0.00000000 0.00000000 -1.00000000 / 60 93 0 255 / 1.64389000 0.13514710 / -0.45337930 0.89131770 0.00000000 1.00000000
				-16.73635000 24.81693000 -13.60418000 / 0.37747980 -0.74122600 -0.55506120 / 53 91 0 255 / -10.17178000 0.87719720 / -0.89116810 -0.45367320 -0.00022260 1.00000000
				-9.51832600 21.62811000 -14.13092000 / 0.00000000 0.00000000 -1.00000000 / 68 97 0 255 / 4.93817100 0.13514710 / -0.45337930 0.89131770 0.00000000 1.00000000
				-9.44128700 21.66729000 -14.74127000 / 0.45338280 -0.89131590 0.00000000 / 28 150 0 255 / 6.55520700 0.00238040 / 0.00000360 0.00000190 -1.00000000 1.00000000
				-9.44128700 21.66729000 -14.74127000 / 0.45338280 -0.89131590 0.00000000 / 28 150 0 255 / 6.55520700 0.00238040 / -0.00071140 -0.00036190 -0.99999970 1.00000000
				-10.45599000 22.64524000 -13.61434000 / 0.00000000 0.00000000 -1.00000000 / 41 62 0 255 / 7.24623100 0.86410520 / -0.45290990 0.89155630 0.00000000 1.00000000
				-10.45599000 22.64524000 -13.61434000 / 0.00000000 0.00000000 -1.00000000 / 41 62 0 255 / 7.24623100 0.86410520 / -0.45291750 0.89155240 0.00000000 1.00000000
				-9.44129400 21.66729000 -14.13092000 / 0.45338280 -0.89131590 0.00000000 / 33 146 0 255 / 4.93817100 0.00238040 / 0.00000360 0.00000190 -1.00000000 1.00000000
				-9.51832600 21.62811000 -14.13092000 / 0.45338280 -0.89131590 0.00000000 / 28 150 0 255 / 4.93817100 0.13514710 / 0.00000360 0.00000190 -1.00000000 1.00000000
				-9.01910100 20.45496000 -14.84965000 / 0.00000000 0.00000000 -1.00000000 / 60 73 0 255 / 0.23300170 0.79914860 / -0.45335970 0.89132760 0.00000000 1.00000000
				-9.51832600 21.62811000 -14.13092000 / 0.45338280 -0.89131590 0.00000000 / 28 150 0 255 / 4.93817100 0.13514710 / -0.00071140 -0.00036190 -0.99999970 1.00000000
				-9.51875700 21.62788000 -14.74127000 / 0.45338280 -0.89131590 0.00000000 / 23 154 0 255 / 6.55520700 0.13514710 / -0.00071140 -0.00036190 -0.99999970 1.00000000
				-8.87744700 20.55880000 -14.13090000 / -0.45338280 0.89131590 0.00000000 / 156 155 0 255 / 11.46649000 0.00238040 / -0.00000490 -0.00000250 1.00000000 1.00000000
				-16.73635000 24.81693000 -13.60418000 / 0.37747980 -0.74122600 -0.55506120 / 53 91 0 255 / -10.17178000 0.87719720 / -0.89118370 -0.45364260 -0.00027400 1.00000000
				-8.87744700 20.55880000 -14.13090000 / -0.45338280 0.89131590 0.00000000 / 156 155 0 255 / 11.46649000 0.00238040 / 0.00070890 0.00036060 0.99999970 1.00000000
				-8.87744000 20.55880000 -14.74125000 / -0.45338280 0.89131590 0.00000000 / 154 163 0 255 / 9.84944200 0.00238040 / -0.00000490 -0.00000250 1.00000000 1.00000000
				-8.95490900 20.51939000 -14.74125000 / -0.45338280 0.89131590 0.00000000 / 156 155 0 255 / 9.84944200 0.13514710 / -0.00000490 -0.00000250 1.00000000 1.00000000
				-8.95490900 20.51939000 -14.74125000 / -0.45338280 0.89131590 0.00000000 / 156 155 0 255 / 9.84944200 0.13514710 / 0.00070890 0.00036060 0.99999970 1.00000000
				-16.73635000 24.81693000 -13.50506000 / 0.89131590 0.45338280 0.00000000 / 32 126 0 255 / -10.17178000 0.56652830 / 0.45338280 -0.89131590 0.00001540 1.00000000
				-8.95447900 20.51962000 -14.13090000 / -0.45338280 0.89131590 0.00000000 / 158 146 0 255 / 11.46649000 0.13514710 / 0.00070890 0.00036060 0.99999970 1.00000000
				-10.46584000 22.64845000 -13.60409000 / -0.36896640 0.72534470 -0.58115310 / 138 94 0 255 / 7.25430300 0.87719720 / 0.89131190 0.45339060 0.00000050 1.00000000
				-8.75083400 20.50159000 -14.02250000 / 0.89131590 0.45338280 0.00000000 / 126 163 0 255 / -2.32939100 0.66004940 / -0.45338280 0.89131590 -0.00001610 1.00000000
				-8.75083400 20.50159000 -14.02250000 / 0.89131590 0.45338280 0.00000000 / 126 163 0 255 / -2.32939100 0.66004940 / -0.45338280 0.89131590 -0.00001500 1.00000000
				-8.78713800 20.57296000 -14.10258000 / 0.89131590 0.45338280 0.00000000 / 125 161 0 255 / -2.08131400 0.80061340 / -0.45338280 0.89131590 -0.00001610 1.00000000
				-10.43258000 22.63798000 -13.61434000 / 0.00000000 0.00000000 -1.00000000 / 61 69 0 255 / 7.22625700 0.83245850 / -0.45290990 0.89155630 0.00000000 1.00000000
				-16.74597000 24.81970000 -13.61443000 / 0.37762990 -0.74133710 -0.55481080 / 53 91 0 255 / -10.16374000 0.86506650 / -0.89115210 -0.45370450 -0.00032030 1.00000000
				-9.37666500 21.73193000 -14.10260000 / 0.89131590 0.45338280 0.00000000 / 153 155 0 255 / 1.94905100 0.80061340 / -0.45338280 0.89131590 -0.00001610 1.00000000
				-9.37666500 21.73193000 -14.10260000 / 0.89131590 0.45338280 0.00000000 / 153 155 0 255 / 1.94905100 0.80061340 / -0.45338280 0.89131590 -0.00001500 1.00000000
				-9.41297300 21.80332000 -14.02252000 / 0.89131590 0.45338280 0.00000000 / 151 155 0 255 / 2.19821200 0.66004940 / -0.45338280 0.89131590 -0.00001500 1.00000000
				-9.60862700 21.61394000 -14.76959000 / -0.89131590 -0.45338280 0.00000000 / 15 175 0 255 / -2.92569000 0.65702820 / 0.45338280 -0.89131590 0.00002210 1.00000000
				-9.60862700 21.61394000 -14.76959000 / -0.89131590 -0.45338280 0.00000000 / 15 175 0 255 / -2.92569000 0.65702820 / 0.45338280 -0.89131590 0.00001610 1.00000000
				-8.75102100 20.50199000 -17.15043000 / 0.89131590 0.45338280 0.00000000 / 163 154 0 255 / -2.71513400 0.66004940 / -0.00000810 0.00001590 1.00000000 1.00000000
				-9.60862700 21.61394000 -14.84967000 / -0.89131590 -0.45338280 0.00000000 / 15 172 0 255 / -2.92573600 0.79772950 / 0.45338280 -0.89131590 0.00002210 1.00000000
				-9.01910100 20.45496000 -14.84965000 / -0.89131590 -0.45338280 0.00000000 / 14 169 0 255 / 1.10954300 0.79774480 / 0.45338280 -0.89131590 0.00002210 1.00000000
				-9.01910100 20.45496000 -14.84965000 / -0.89131590 -0.45338280 0.00000000 / 14 169 0 255 / 1.10954300 0.79774480 / 0.45338280 -0.89131590 0.00001610 1.00000000
				-9.01910200 20.45496000 -14.76957000 / -0.89131590 -0.45338280 0.00000000 / 14 179 0 255 / 1.10954300 0.65702820 / 0.45338280 -0.89131590 0.00001610 1.00000000
				-8.87744000 20.55880000 -14.74125000 / 0.00000000 0.00000000 1.00000000 / 17 203 0 255 / 9.84944200 0.00238040 / 0.45337990 -0.89131750 0.00000000 1.00000000
				-8.86459900 20.53355000 -14.76957000 / 0.89131590 0.45338280 0.00000000 / 73 162 0 255 / 4.55014000 0.60877990 / -0.45338280 0.89131590 -0.00001540 1.00000000
				-16.74597000 24.81970000 -13.61443000 / 0.72533000 0.36886360 -0.58123670 / 48 124 0 255 / -10.17984000 0.43051150 / 0.45333160 -0.89134190 0.00005410 1.00000000
				-8.87744000 20.55880000 -14.74125000 / 0.00000000 0.00000000 1.00000000 / 17 203 0 255 / 9.84944200 0.00238040 / 0.45338050 -0.89131710 0.00000000 1.00000000
				-13.30854000 18.07808000 -13.50494000 / 0.89131590 0.45338280 0.00000000 / 33 138 0 255 / -1.56668100 0.56652830 / 0.45338280 -0.89131590 0.00001540 1.00000000
				-13.30854000 18.07808000 -13.50494000 / 0.89131590 0.45338280 0.00000000 / 33 138 0 255 / -1.56668100 0.56652830 / 0.45338280 -0.89131590 0.00001540 1.00000000
				-8.75102100 20.50199000 -17.15043000 / 0.89131590 0.45338280 0.00000000 / 163 154 0 255 / -2.71513400 0.66004940 / 0.00008580 -0.00016870 1.00000000 1.00000000
				-9.44128700 21.66729000 -14.74127000 / 0.00000000 0.00000000 1.00000000 / 17 204 0 255 / 6.55520700 0.00238040 / 0.45337990 -0.89131750 0.00000000 1.00000000
				-9.51875700 21.62788000 -14.74127000 / 0.00000000 0.00000000 1.00000000 / 17 203 0 255 / 6.55520700 0.13514710 / 0.45337990 -0.89131750 0.00000000 1.00000000
				-9.51875700 21.62788000 -14.74127000 / 0.00000000 0.00000000 1.00000000 / 17 203 0 255 / 6.55520700 0.13514710 / 0.45338050 -0.89131710 0.00000000 1.00000000
				-10.09548000 21.97440000 -13.61433000 / 0.00000000 0.00000000 -1.00000000 / 22 63 0 255 / 6.65704300 0.83245850 / -0.45290990 0.89155630 0.00000000 1.00000000
				-10.09548000 21.97440000 -13.61433000 / 0.00000000 0.00000000 -1.00000000 / 22 63 0 255 / 6.65704300 0.83245850 / -0.45291750 0.89155240 0.00000000 1.00000000
				-8.95490900 20.51939000 -14.74125000 / 0.00000000 0.00000000 1.00000000 / 17 203 0 255 / 9.84944200 0.13514710 / 0.45338050 -0.89131710 0.00000000 1.00000000
				-8.78713100 20.57296000 -14.76957000 / 0.89131590 0.45338280 0.00000000 / 165 160 0 255 / -1.99874900 0.66004940 / -0.45338280 0.89131590 -0.00001540 1.00000000
				-16.74597000 24.81970000 -13.61443000 / 0.72533000 0.36886360 -0.58123670 / 48 124 0 255 / -10.17984000 0.43051150 / 0.45335100 -0.89133210 0.00008450 1.00000000
				-8.78713100 20.57296000 -14.76957000 / 0.89131590 0.45338280 0.00000000 / 165 160 0 255 / -1.99874900 0.66004940 / -0.45338280 0.89131590 -0.00001540 1.00000000
				-8.78713200 20.57296000 -14.84965000 / 0.89131590 0.45338280 0.00000000 / 165 157 0 255 / -1.99874900 0.80061340 / -0.45338280 0.89131590 -0.00001540 1.00000000
				-9.53159600 21.65312000 -14.76959000 / -0.89131590 -0.45338280 0.00000000 / 11 173 0 255 / -1.31701700 0.60690310 / 0.45338280 -0.89131590 0.00001610 1.00000000
				-9.37665900 21.73193000 -14.84967000 / 0.89131590 0.45338280 0.00000000 / 174 158 0 255 / 2.03161600 0.80061340 / -0.45338280 0.89131590 -0.00001540 1.00000000
				-9.37665900 21.73193000 -14.84967000 / 0.89131590 0.45338280 0.00000000 / 174 158 0 255 / 2.03161600 0.80061340 / -0.45338280 0.89131590 -0.00001540 1.00000000
				-9.37665900 21.73193000 -14.76959000 / 0.89131590 0.45338280 0.00000000 / 171 155 0 255 / 2.03157000 0.66004940 / -0.45338280 0.89131590 -0.00001540 1.00000000
				-9.37666500 21.73193000 -14.10260000 / 0.00000000 0.00000000 -1.00000000 / 92 80 0 255 / 2.51918000 0.66049200 / 0.45338140 -0.89131670 0.00000000 1.00000000
				-9.37666500 21.73193000 -14.10260000 / 0.00000000 0.00000000 -1.00000000 / 92 80 0 255 / 2.51918000 0.66049200 / 0.45337840 -0.89131810 0.00000000 1.00000000
				-8.78713800 20.57296000 -14.10258000 / 0.00000000 0.00000000 -1.00000000 / 84 81 0 255 / 3.92704800 0.66049200 / 0.45338140 -0.89131670 0.00000000 1.00000000
				-8.86460700 20.53356000 -14.10258000 / 0.00000000 0.00000000 -1.00000000 / 92 80 0 255 / 3.92703300 0.60726930 / 0.45338140 -0.89131670 0.00000000 1.00000000
				-8.86460700 20.53356000 -14.10258000 / 0.00000000 0.00000000 -1.00000000 / 92 80 0 255 / 3.92703300 0.60726930 / 0.45337840 -0.89131810 0.00000000 1.00000000
				-16.73635000 24.81693000 -13.60418000 / 0.72519920 0.36889410 -0.58138020 / 48 124 0 255 / -10.17178000 0.44360350 / 0.45339440 -0.89131000 0.00000390 1.00000000
				-13.30854000 18.07808000 -13.60406000 / 0.89131590 0.45338280 0.00000000 / 35 149 0 255 / -1.56668100 0.44360350 / 0.45338280 -0.89131590 0.00001540 1.00000000
				-8.78710600 20.57293000 -17.15043000 / 0.89131590 0.45338280 0.00000000 / 166 147 0 255 / -2.71513400 0.80061340 / -0.00000810 0.00001590 1.00000000 1.00000000
				-9.45413100 21.69253000 -14.10260000 / 0.00000000 0.00000000 -1.00000000 / 99 80 0 255 / 2.51918000 0.60726930 / 0.45337840 -0.89131810 0.00000000 1.00000000
				-10.10384000 21.95206000 -13.61433000 / 0.00000000 0.00000000 -1.00000000 / 14 67 0 255 / 6.63893200 0.86409000 / -0.45291750 0.89155240 0.00000000 1.00000000
				-9.01910800 20.45497000 -14.10258000 / 0.00000000 0.00000000 -1.00000000 / 20 83 0 255 / 0.31280520 0.65751650 / -0.45338020 0.89131720 0.00000000 1.00000000
				-9.01910800 20.45497000 -14.10258000 / 0.00000000 0.00000000 -1.00000000 / 20 83 0 255 / 0.31280520 0.65751650 / -0.45336070 0.89132710 0.00000000 1.00000000
				-9.60863300 21.61394000 -14.10260000 / 0.00000000 0.00000000 -1.00000000 / 19 85 0 255 / 1.62001000 0.65751650 / -0.45338020 0.89131720 0.00000000 1.00000000
				-9.53116500 21.65335000 -14.10260000 / 0.00000000 0.00000000 -1.00000000 / 20 83 0 255 / 1.62001000 0.60810850 / -0.45338020 0.89131720 0.00000000 1.00000000
				-9.53116500 21.65335000 -14.10260000 / 0.00000000 0.00000000 -1.00000000 / 20 83 0 255 / 1.62001000 0.60810850 / -0.45336070 0.89132710 0.00000000 1.00000000
				-8.94163900 20.49437000 -14.10258000 / 0.00000000 0.00000000 -1.00000000 / 22 80 0 255 / 0.31280520 0.60809330 / -0.45336070 0.89132710 0.00000000 1.00000000
				-9.37665900 21.73193000 -14.76959000 / 0.45338280 -0.89131590 0.00000000 / 17 141 0 255 / 3.92704800 0.66049200 / -0.00017190 -0.00008740 1.00000000 1.00000000
				-12.20795000 27.12036000 -13.60416000 / 0.45338280 -0.89131590 -0.00009540 / 45 95 0 255 / -15.95453000 0.87719720 / -0.89131590 -0.45338280 -0.00000380 1.00000000
				-8.78713200 20.57296000 -14.84965000 / 0.89131590 0.45338280 0.00000000 / 165 157 0 255 / 4.41850300 0.80061340 / -0.00000810 0.00001590 1.00000000 1.00000000
				-9.37665900 21.73193000 -14.76959000 / 0.45338280 -0.89131590 0.00000000 / 17 141 0 255 / 3.92704800 0.66049200 / -0.00016870 -0.00008580 1.00000000 1.00000000
				-9.37666500 21.73193000 -14.10260000 / 0.45338280 -0.89131590 0.00000000 / 19 140 0 255 / 4.64930700 0.66056820 / -0.00017190 -0.00008740 1.00000000 1.00000000
				-9.45413100 21.69253000 -14.10260000 / 0.45338280 -0.89131590 0.00000000 / 17 141 0 255 / 4.64930700 0.60734560 / -0.00017190 -0.00008740 1.00000000 1.00000000
				-9.45413100 21.69253000 -14.10260000 / 0.45338280 -0.89131590 0.00000000 / 17 141 0 255 / 4.64930700 0.60734560 / -0.00016870 -0.00008580 1.00000000 1.00000000
				-9.45412500 21.69252000 -14.76959000 / 0.45338280 -0.89131590 0.00000000 / 15 142 0 255 / 3.92704800 0.60726930 / -0.00016870 -0.00008580 1.00000000 1.00000000
				-9.60863300 21.61394000 -14.10260000 / 0.45338280 -0.89131590 0.00000000 / 11 145 0 255 / 1.62001000 0.65751650 / 0.00014720 0.00007490 -1.00000000 1.00000000
				-9.60863300 21.61394000 -14.10260000 / 0.45338280 -0.89131590 0.00000000 / 11 145 0 255 / 1.62001000 0.65751650 / -0.00050620 -0.00025750 -0.99999980 1.00000000
				-16.74597000 24.81970000 -13.61443000 / 0.00000000 0.00000000 -1.00000000 / 25 66 0 255 / -10.16374000 0.86506650 / -0.89131730 -0.45338000 0.00000000 1.00000000
				-16.74597000 24.81970000 -13.61443000 / 0.00000000 0.00000000 -1.00000000 / 25 66 0 255 / -10.16374000 0.86506650 / -0.89114010 -0.45372820 0.00000000 1.00000000
				-10.04238000 22.86385000 -13.50497000 / -0.45338280 0.89131590 0.00000000 / 115 73 0 255 / 7.79467800 1.00013700 / 0.89131590 0.45338280 0.00000400 1.00000000
				-8.78713200 20.57296000 -14.84965000 / 0.89131590 0.45338280 0.00000000 / 165 157 0 255 / 4.41850300 0.80061340 / 0.00008580 -0.00016870 1.00000000 1.00000000
				-12.20795000 27.12036000 -13.60416000 / 0.45338280 -0.89131590 -0.00009540 / 45 95 0 255 / -15.95453000 0.87719720 / -0.89131590 -0.45338280 -0.00000380 1.00000000
				-10.04238000 22.86385000 -13.50497000 / -0.45338280 0.89131590 0.00000000 / 115 73 0 255 / 7.79467800 1.00013700 / 0.89131590 0.45338280 -0.00002150 1.00000000
				-9.60862700 21.61394000 -14.76959000 / 0.45338280 -0.89131590 0.00000000 / 12 154 0 255 / 2.29064900 0.65757750 / 0.00014720 0.00007490 -1.00000000 1.00000000
				-9.53159600 21.65312000 -14.76959000 / 0.45338280 -0.89131590 0.00000000 / 11 145 0 255 / 2.29064900 0.60816960 / 0.00014720 0.00007490 -1.00000000 1.00000000
				-9.53159600 21.65312000 -14.76959000 / 0.45338280 -0.89131590 0.00000000 / 11 145 0 255 / 2.29064900 0.60816960 / -0.00050620 -0.00025750 -0.99999980 1.00000000
				-9.53116500 21.65335000 -14.10260000 / 0.45338280 -0.89131590 0.00000000 / 11 136 0 255 / 1.62001000 0.60810850 / -0.00050620 -0.00025750 -0.99999980 1.00000000
				-8.78713800 20.57296000 -14.10258000 / -0.45338280 0.89131590 0.00000000 / 161 143 0 255 / 1.79690600 0.66052250 / 0.00006990 0.00003560 -1.00000000 1.00000000
				-8.78713800 20.57296000 -14.10258000 / -0.45338280 0.89131590 0.00000000 / 161 143 0 255 / 1.79690600 0.66052250 / 0.00010430 0.00005300 -1.00000000 1.00000000
				-8.78713100 20.57296000 -14.76957000 / -0.45338280 0.89131590 0.00000000 / 165 164 0 255 / 2.51918000 0.66049200 / 0.00006990 0.00003560 -1.00000000 1.00000000
				-8.86459900 20.53355000 -14.76957000 / -0.45338280 0.89131590 0.00000000 / 161 143 0 255 / 2.51918000 0.60726930 / 0.00006990 0.00003560 -1.00000000 1.00000000
				-8.93464500 20.30292000 -13.60404000 / -0.36876070 0.72531520 -0.58132030 / 13 123 0 255 / 4.01922600 0.87719720 / 0.89137580 0.45326500 0.00009570 1.00000000
				-8.78713200 20.57296000 -14.84965000 / 0.89131590 0.45338280 0.00000000 / 165 157 0 255 / 4.41850300 0.80061340 / 0.00001210 -0.00002370 1.00000000 1.00000000
				-8.86459900 20.53355000 -14.76957000 / -0.45338280 0.89131590 0.00000000 / 161 143 0 255 / 2.51918000 0.60726930 / 0.00010430 0.00005300 -1.00000000 1.00000000
				-13.30854000 18.07808000 -13.60406000 / 0.74148680 0.37727610 -0.55485140 / 48 124 0 255 / -1.56668100 0.44360350 / 0.45345860 -0.89127740 -0.00004340 1.00000000
				-8.86460700 20.53356000 -14.10258000 / -0.45338280 0.89131590 0.00000000 / 153 118 0 255 / 1.79690600 0.60731500 / 0.00010430 0.00005300 -1.00000000 1.00000000
				-9.01910200 20.45496000 -14.76957000 / -0.45338280 0.89131590 0.00000000 / 101 139 0 255 / -0.35783390 0.65756220 / -0.00010960 -0.00005580 1.00000000 1.00000000
				-9.01910200 20.45496000 -14.76957000 / -0.45338280 0.89131590 0.00000000 / 101 139 0 255 / -0.35783390 0.65756220 / 0.00054170 0.00027550 0.99999980 1.00000000
				-9.01910800 20.45497000 -14.10258000 / -0.45338280 0.89131590 0.00000000 / 112 117 0 255 / 0.31280520 0.65751650 / -0.00010960 -0.00005580 1.00000000 1.00000000
				-8.94163900 20.49437000 -14.10258000 / -0.45338280 0.89131590 0.00000000 / 101 139 0 255 / 0.31280520 0.60809330 / -0.00010960 -0.00005580 1.00000000 1.00000000
				-8.94163900 20.49437000 -14.10258000 / -0.45338280 0.89131590 0.00000000 / 101 139 0 255 / 0.31280520 0.60809330 / 0.00054170 0.00027550 0.99999980 1.00000000
				-10.04238000 22.86385000 -13.60409000 / -0.45338280 0.89131590 0.00000000 / 113 64 0 255 / 7.79467800 0.87719720 / 0.89131590 0.45338280 0.00000400 1.00000000
				-16.76983000 24.82783000 -13.61443000 / 0.00000000 0.00000000 -1.00000000 / 21 68 0 255 / -10.14333000 0.83245850 / -0.89131730 -0.45338000 0.00000000 1.00000000
				-8.75082600 20.50158000 -14.76957000 / 0.89131590 0.45338280 0.00000000 / 139 160 0 255 / 4.66653500 0.66004940 / 0.00008580 -0.00016870 1.00000000 1.00000000
				-8.94206800 20.49415000 -14.76957000 / -0.45338280 0.89131590 0.00000000 / 91 158 0 255 / -0.35783390 0.60813910 / 0.00054170 0.00027550 0.99999980 1.00000000
				-8.78713100 20.57296000 -14.76957000 / 0.00000000 0.00000000 1.00000000 / 37 204 0 255 / 0.38905340 0.66056820 / -0.45332900 0.89134320 0.00000000 1.00000000
				-13.30854000 18.07808000 -13.60406000 / 0.74148680 0.37727610 -0.55485140 / 48 124 0 255 / -1.56668100 0.44360350 / 0.45347630 -0.89126840 -0.00001370 1.00000000
				-8.78713100 20.57296000 -14.76957000 / 0.00000000 0.00000000 1.00000000 / 37 204 0 255 / 0.38905340 0.66056820 / -0.45332830 0.89134360 0.00000000 1.00000000
				-9.37665900 21.73193000 -14.76959000 / 0.00000000 0.00000000 1.00000000 / 35 207 0 255 / 1.79690600 0.66052250 / -0.45332900 0.89134320 0.00000000 1.00000000
				-9.45412500 21.69252000 -14.76959000 / 0.00000000 0.00000000 1.00000000 / 37 204 0 255 / 1.79690600 0.60729980 / -0.45332900 0.89134320 0.00000000 1.00000000
				-9.45412500 21.69252000 -14.76959000 / 0.00000000 0.00000000 1.00000000 / 37 204 0 255 / 1.79690600 0.60729980 / -0.45332830 0.89134360 0.00000000 1.00000000
				-8.86459900 20.53355000 -14.76957000 / 0.00000000 0.00000000 1.00000000 / 39 201 0 255 / 0.38905340 0.60734560 / -0.45332830 0.89134360 0.00000000 1.00000000
				-9.60862700 21.61394000 -14.76959000 / 0.00000000 0.00000000 1.00000000 / 15 194 0 255 / -1.66503900 0.65757750 / 0.45336060 -0.89132720 0.00000000 1.00000000
				-9.60862700 21.61394000 -14.76959000 / 0.00000000 0.00000000 1.00000000 / 15 194 0 255 / -1.66503900 0.65757750 / 0.45334300 -0.89133610 0.00000000 1.00000000
				-8.75082600 20.50158000 -14.76957000 / 0.89131590 0.45338280 0.00000000 / 139 160 0 255 / 4.66653500 0.66004940 / 0.00001210 -0.00002370 1.00000000 1.00000000
				-9.01910200 20.45496000 -14.76957000 / 0.00000000 0.00000000 1.00000000 / 17 201 0 255 / -0.35783390 0.65756220 / 0.45336060 -0.89132720 0.00000000 1.00000000
				-8.94206800 20.49415000 -14.76957000 / 0.00000000 0.00000000 1.00000000 / 15 194 0 255 / -0.35783390 0.60813910 / 0.45336060 -0.89132720 0.00000000 1.00000000
				-8.94206800 20.49415000 -14.76957000 / 0.00000000 0.00000000 1.00000000 / 15 194 0 255 / -0.35783390 0.60813910 / 0.45334300 -0.89133610 0.00000000 1.00000000
				-13.31154000 18.06889000 -13.61431000 / 0.74148680 0.37727610 -0.55485140 / 48 124 0 255 / -1.55847200 0.43051150 / 0.45347630 -0.89126840 -0.00001370 1.00000000
				-9.53159600 21.65312000 -14.76959000 / 0.00000000 0.00000000 1.00000000 / 14 187 0 255 / -1.66503900 0.60816960 / 0.45334300 -0.89133610 0.00000000 1.00000000
				-8.92845400 20.29724000 -17.01029000 / -0.37723600 0.74169400 0.55460170 / 38 197 0 255 / -10.04041000 0.86412050 / -0.89133030 -0.45335440 0.00001520 1.00000000
				-8.92845400 20.29724000 -17.01029000 / -0.37723600 0.74169400 0.55460170 / 38 197 0 255 / -10.04041000 0.86412050 / -0.89133120 -0.45335270 0.00001220 1.00000000
				-8.86459900 20.53355000 -14.76957000 / 0.89131590 0.45338280 0.00000000 / 73 162 0 255 / 4.55014000 0.60877990 / -0.45338280 0.89131590 -0.00001530 1.00000000
				-8.93764700 20.30023000 -17.02055000 / -0.37723600 0.74169400 0.55460170 / 41 191 0 255 / -10.03665000 0.87480160 / -0.89133030 -0.45335440 0.00001520 1.00000000
				-13.30806000 18.07717000 -17.02056000 / -0.37716760 0.74155640 0.55483220 / 38 197 0 255 / -7.44500800 0.87480160 / -0.89132980 -0.45335560 0.00001440 1.00000000
				-8.75082600 20.50158000 -14.76957000 / 0.89131590 0.45338280 0.00000000 / 139 160 0 255 / 4.66653500 0.66004940 / -0.00000670 0.00001310 1.00000000 1.00000000
				-13.30806000 18.07717000 -17.02056000 / -0.37716760 0.74155640 0.55483220 / 38 197 0 255 / -7.44500800 0.87480160 / -0.89133070 -0.45335380 0.00001140 1.00000000
				-16.74597000 24.81970000 -13.61443000 / 0.00000000 0.00000000 -1.00000000 / 25 66 0 255 / -10.17984000 0.43051150 / 0.45343730 -0.89128820 0.00000000 1.00000000
				-13.31149000 18.06775000 -17.01031000 / -0.37716760 0.74155640 0.55483220 / 35 203 0 255 / -7.44125300 0.86410520 / -0.89133070 -0.45335380 0.00001140 1.00000000
				-10.03586000 22.85107000 -17.01034000 / -0.32187030 0.63305940 0.70401380 / 164 192 0 255 / 0.11428830 0.86723330 / -0.89140030 -0.45321680 -0.00000320 1.00000000
				-10.03586000 22.85107000 -17.01034000 / -0.32187030 0.63305940 0.70401380 / 164 192 0 255 / 0.11428830 0.86723330 / -0.89349790 -0.44904260 -0.00471560 1.00000000
				-10.04051000 22.86021000 -17.02059000 / -0.32060870 0.63034610 0.70701750 / 164 192 0 255 / 0.11428830 0.87788390 / -0.89136640 -0.45328340 -0.00007700 1.00000000
				-10.46397000 22.64481000 -17.02059000 / -0.38595600 0.77629890 0.49839540 / 164 192 0 255 / 1.17450000 0.87783810 / -0.89444260 -0.44716630 0.00385080 1.00000000
				-10.46397000 22.64481000 -17.02059000 / -0.38595600 0.77629890 0.49839540 / 164 192 0 255 / 1.17450000 0.87783810 / -0.89549630 -0.44506890 -0.00023210 1.00000000
				-12.21923000 27.14255000 -13.61441000 / 0.00000000 0.00000000 -1.00000000 / 27 66 0 255 / -15.95453000 0.83245850 / -0.89131730 -0.45338000 0.00000000 1.00000000
				-10.03131000 22.84209000 -13.61434000 / 0.00000000 0.00000000 -1.00000000 / 78 78 0 255 / 7.79478400 0.83245850 / 0.89132200 0.45337080 0.00000000 1.00000000
				-8.75082600 20.50158000 -14.76957000 / 0.89131590 0.45338280 0.00000000 / 139 160 0 255 / 4.66653500 0.66004940 / -0.00000860 0.00001680 1.00000000 1.00000000
				-10.45392000 22.64335000 -17.01034000 / -0.38769090 0.78015050 0.49097980 / 164 192 0 255 / 1.15593000 0.86717220 / -0.89555750 -0.44494570 -0.00015260 1.00000000
				-10.10358000 21.95159000 -17.01032000 / 0.37860710 -0.74138330 0.55408250 / 11 161 0 255 / 2.39648400 0.86712650 / 0.89062990 0.45472880 -0.00012730 1.00000000
				-10.10358000 21.95159000 -17.01032000 / 0.37860710 -0.74138330 0.55408250 / 11 161 0 255 / 2.39648400 0.86712650 / 0.89061560 0.45475690 -0.00007980 1.00000000
				-10.10701000 21.94217000 -17.02058000 / 0.37860710 -0.74138330 0.55408250 / 12 161 0 255 / 2.38017300 0.87779240 / 0.89062990 0.45472880 -0.00012730 1.00000000
				-9.84175000 22.07765000 -17.02058000 / 0.37862070 -0.74121910 0.55429300 / 11 161 0 255 / 3.04492200 0.87774660 / 0.89059720 0.45479300 -0.00017530 1.00000000
				-9.84175000 22.07765000 -17.02058000 / 0.37862070 -0.74121910 0.55429300 / 11 161 0 255 / 3.04492200 0.87774660 / 0.89058270 0.45482120 -0.00012780 1.00000000
				-9.83832100 22.08706000 -17.01032000 / 0.37862070 -0.74121910 0.55429300 / 11 162 0 255 / 3.06124900 0.86709600 / 0.89058270 0.45482120 -0.00012780 1.00000000
				-10.45392000 22.64335000 -17.01034000 / -0.69322930 -0.35209830 0.62885590 / 26 214 0 255 / 1.18690500 0.86717220 / 0.45285130 -0.89158610 0.00000610 1.00000000
				-10.45392000 22.64335000 -17.01034000 / -0.69322930 -0.35209830 0.62885590 / 26 214 0 255 / 1.18690500 0.86717220 / 0.45240690 -0.89181130 -0.00060990 1.00000000
				-12.21923000 27.14255000 -13.61441000 / 0.00000000 0.00000000 -1.00000000 / 27 66 0 255 / -15.95453000 0.83245850 / -0.89114010 -0.45372820 0.00000000 1.00000000
				-8.78713100 20.57296000 -14.76957000 / 0.89131590 0.45338280 0.00000000 / 165 160 0 255 / 4.66651900 0.80061340 / 0.00001210 -0.00002370 1.00000000 1.00000000
				-13.31154000 18.06889000 -13.61431000 / 0.00000000 0.00000000 -1.00000000 / 17 71 0 255 / -1.55847200 0.43051150 / 0.45343730 -0.89128820 0.00000000 1.00000000
				-13.31154000 18.06889000 -13.61431000 / 0.00000000 0.00000000 -1.00000000 / 17 71 0 255 / -1.55847200 0.43051150 / 0.45337980 -0.89131750 0.00000000 1.00000000
				-10.46397000 22.64481000 -17.02059000 / -0.69282820 -0.35189760 0.62941030 / 26 214 0 255 / 1.17450000 0.87783810 / 0.45285310 -0.89158510 0.00000440 1.00000000
				-10.10701000 21.94217000 -17.02058000 / -0.72587230 -0.36756160 0.58138450 / 26 214 0 255 / 2.38017300 0.87779240 / 0.45212660 -0.89195360 0.00058180 1.00000000
				-10.10701000 21.94217000 -17.02058000 / -0.72587230 -0.36756160 0.58138450 / 26 214 0 255 / 2.38017300 0.87779240 / 0.45174690 -0.89214620 -0.00001400 1.00000000
				-10.10358000 21.95159000 -17.01032000 / -0.72631770 -0.36792720 0.58059640 / 26 214 0 255 / 2.36491400 0.86712650 / 0.45183760 -0.89210020 -0.00008660 1.00000000
				-10.43258000 22.63798000 -13.61434000 / 0.00000000 0.00000000 -1.00000000 / 61 69 0 255 / 7.28231800 0.83245850 / 0.89132200 0.45337080 0.00000000 1.00000000
				-10.43258000 22.63798000 -13.61434000 / 0.00000000 0.00000000 -1.00000000 / 61 69 0 255 / 7.28231800 0.83245850 / 0.89414160 0.44778440 0.00000000 1.00000000
				-8.97189100 20.38909000 -17.01029000 / -0.65446640 -0.33071390 0.67992790 / 16 162 0 255 / -10.08673000 0.86410520 / 0.45210420 -0.89196410 0.00132670 1.00000000
				-8.97189100 20.38909000 -17.01029000 / -0.65446640 -0.33071390 0.67992790 / 16 162 0 255 / -10.08673000 0.86410520 / 0.44015320 -0.89782820 -0.01302900 1.00000000
				-8.78713100 20.57296000 -14.76957000 / 0.89131590 0.45338280 0.00000000 / 165 160 0 255 / 4.66651900 0.80061340 / -0.00000670 0.00001310 1.00000000 1.00000000
				-9.45412500 21.69252000 -14.76959000 / 0.89131590 0.45338280 0.00000000 / 58 144 0 255 / 6.75737000 0.60877990 / -0.45338280 0.89131590 -0.00001540 1.00000000
				-8.98059500 20.38467000 -17.02055000 / -0.64543550 -0.32824900 0.68968520 / 16 162 0 255 / -10.08673000 0.87480160 / 0.45334560 -0.89133480 0.00003710 1.00000000
				-8.93764700 20.30023000 -17.02055000 / -0.73908000 -0.35113450 0.57486120 / 16 162 0 255 / -10.03665000 0.87480160 / 0.43714460 -0.89930140 0.01271450 1.00000000
				-8.93764700 20.30023000 -17.02055000 / -0.73908000 -0.35113450 0.57486120 / 16 162 0 255 / -10.03665000 0.87480160 / 0.42860310 -0.90349250 -0.00082700 1.00000000
				-8.92845400 20.29724000 -17.01029000 / -0.74554850 -0.35265260 0.56550300 / 16 162 0 255 / -10.03293000 0.86410520 / 0.42757350 -0.90398060 -0.00002540 1.00000000
				-9.83832100 22.08706000 -17.01032000 / -0.72308690 -0.36793320 0.58461130 / 13 205 0 255 / 3.02964800 0.86709600 / 0.45346840 -0.89127240 -0.00005410 1.00000000
				-9.83832100 22.08706000 -17.01032000 / -0.72308690 -0.36793320 0.58461130 / 13 205 0 255 / 3.02964800 0.86709600 / 0.45513150 -0.89042060 0.00253910 1.00000000
				-9.84175000 22.07765000 -17.02058000 / -0.72524450 -0.36886860 0.58134000 / 13 205 0 255 / 3.04492200 0.87774660 / 0.45336380 -0.89132550 0.00003030 1.00000000
				-9.64251200 21.68595000 -17.02057000 / -0.64523640 -0.33263150 0.68776910 / 13 205 0 255 / 4.02606200 0.87774660 / 0.45593540 -0.89000870 -0.00270270 1.00000000
				-9.64251200 21.68595000 -17.02057000 / -0.64523640 -0.33263150 0.68776910 / 13 205 0 255 / 4.02606200 0.87774660 / 0.45823730 -0.88882990 0.00002700 1.00000000
				-8.94206800 20.49415000 -14.76957000 / -0.89131590 -0.45338280 0.00000000 / 14 159 0 255 / 0.76649480 0.60690310 / 0.45338280 -0.89131590 0.00001540 1.00000000
				-13.31901000 18.04372000 -13.61431000 / 0.00000000 0.00000000 -1.00000000 / 14 75 0 255 / -1.53700200 0.39886470 / 0.45337980 -0.89131750 0.00000000 1.00000000
				-8.78713800 20.57296000 -14.10258000 / 0.89131590 0.45338280 0.00000000 / 125 161 0 255 / 6.73419200 0.80061340 / -0.00000670 0.00001310 1.00000000 1.00000000
				-8.78713800 20.57296000 -14.10258000 / 0.89131590 0.45338280 0.00000000 / 125 161 0 255 / 6.73419200 0.80061340 / -0.00000860 0.00001680 1.00000000 1.00000000
				-10.45599000 22.64524000 -13.61434000 / 0.00000000 0.00000000 -1.00000000 / 41 62 0 255 / 7.26232900 0.86412050 / 0.89414160 0.44778440 0.00000000 1.00000000
				-8.75083400 20.50159000 -14.02250000 / 0.89131590 0.45338280 0.00000000 / 126 163 0 255 / 6.98222300 0.66004940 / -0.00000860 0.00001680 1.00000000 1.00000000
				-16.73631000 24.81689000 -17.02068000 / 0.72531130 0.36847270 0.58150780 / 14 181 0 255 / -3.44860800 0.44119260 / -0.45289710 0.89156280 -0.00004320 1.00000000
				-16.73631000 24.81689000 -17.02068000 / 0.72531130 0.36847270 0.58150780 / 14 181 0 255 / -3.44860800 0.44119260 / -0.45307200 0.89147390 0.00023130 1.00000000
				-16.74593000 24.81966000 -17.01043000 / 0.72539180 0.36851350 0.58138160 / 14 181 0 255 / -3.44487000 0.43051150 / -0.45289710 0.89156280 -0.00004320 1.00000000
				-9.60862700 21.61394000 -14.84967000 / 0.00000000 0.00000000 -1.00000000 / 50 72 0 255 / 1.47462500 0.79916380 / -0.45335970 0.89132760 0.00000000 1.00000000
				-9.60862700 21.61394000 -14.84967000 / 0.00000000 0.00000000 -1.00000000 / 50 72 0 255 / 1.47462500 0.79916380 / -0.45338020 0.89131720 0.00000000 1.00000000
				-13.30806000 18.07717000 -17.02056000 / -0.45338280 0.89131590 0.00000000 / 61 151 0 255 / -7.44500800 0.87480160 / -0.89131590 -0.45338280 -0.00000350 1.00000000
				-13.30806000 18.07717000 -17.02056000 / -0.45338280 0.89131590 0.00000000 / 61 151 0 255 / -7.44500800 0.87480160 / -0.89131590 -0.45338280 -0.00000350 1.00000000
				-8.95490900 20.51939000 -14.74125000 / -0.89131590 -0.45338280 0.00000000 / 12 173 0 255 / 0.76649480 0.56977840 / 0.45338280 -0.89131590 0.00001540 1.00000000
				-14.45862000 20.31648000 -17.01035000 / 0.63015410 0.32098950 0.70701610 / 16 181 0 255 / -6.11442500 0.43051150 / -0.45336920 0.89132260 -0.00058380 1.00000000
				-8.92523000 20.29949000 -13.61429000 / -0.36881180 0.72522490 -0.58140070 / 13 123 0 255 / 4.02682500 0.86402890 / 0.89135040 0.45331480 0.00002520 1.00000000
				-14.45862000 20.31648000 -17.01035000 / 0.63015410 0.32098950 0.70701610 / 16 181 0 255 / -6.11442500 0.43051150 / -0.45362770 0.89119120 -0.00029370 1.00000000
				-14.45862000 20.31648000 -17.01035000 / 0.63015410 0.32098950 0.70701610 / 16 181 0 255 / -6.11442500 0.43051150 / -0.45414470 0.89092790 0.00028670 1.00000000
				-14.44948000 20.32113000 -17.02060000 / 0.63029660 0.32101350 0.70687820 / 16 181 0 255 / -6.11442500 0.44119260 / -0.45360060 0.89120510 -0.00026310 1.00000000
				-14.44948000 20.32113000 -17.02060000 / 0.63029660 0.32101350 0.70687820 / 16 181 0 255 / -6.11442500 0.44119260 / -0.45411740 0.89094180 0.00031730 1.00000000
				-14.44948000 20.32113000 -17.02060000 / 0.63029660 0.32101350 0.70687820 / 16 181 0 255 / -6.11442500 0.44119260 / -0.45360090 0.89120490 -0.00026270 1.00000000
				-13.31149000 18.06775000 -17.01031000 / 0.72482810 0.36870860 0.58196060 / 18 181 0 255 / -7.44873000 0.43051150 / -0.45373370 0.89113720 0.00053080 1.00000000
				-13.31149000 18.06775000 -17.01031000 / 0.72482810 0.36870860 0.58196060 / 18 181 0 255 / -7.44873000 0.43051150 / -0.45338360 0.89131550 -0.00001810 1.00000000
				-13.30806000 18.07717000 -17.02056000 / 0.72537020 0.36888400 0.58117350 / 18 181 0 255 / -7.44500800 0.44119260 / -0.45331870 0.89134850 0.00003380 1.00000000
				-9.41296400 21.80331000 -14.76959000 / -0.45338280 0.89131590 0.00000000 / 181 151 0 255 / 1.22023000 0.65960690 / -0.00018020 -0.00009170 -1.00000000 1.00000000
				-8.95490900 20.51939000 -14.74125000 / -0.89131590 -0.45338280 0.00000000 / 12 173 0 255 / 0.76649480 0.56977840 / 0.45338280 -0.89131590 0.00001610 1.00000000
				-13.31154000 18.06889000 -13.61431000 / -0.37716760 0.74155640 -0.55483220 / 13 123 0 255 / -1.57455400 0.86419680 / 0.89133380 0.45334760 0.00000100 1.00000000
				-9.41296400 21.80331000 -14.76959000 / -0.45338280 0.89131590 0.00000000 / 181 151 0 255 / 1.22023000 0.65960690 / 0.00000340 0.00000170 -1.00000000 1.00000000
				-9.41296400 21.80331000 -14.76959000 / -0.45338280 0.89131590 0.00000000 / 181 151 0 255 / 1.22023000 0.65960690 / 0.00000290 0.00000150 -1.00000000 1.00000000
				-9.41337400 21.80305000 -17.15045000 / -0.45345860 0.89127740 0.00000000 / 181 142 0 255 / 8.17843600 0.65960690 / -0.00018020 -0.00009170 -1.00000000 1.00000000
				-9.43992000 21.78955000 -17.15045000 / -0.45345860 0.89127740 0.00000000 / 182 146 0 255 / 8.17845100 0.60969530 / -0.00018020 -0.00009170 -1.00000000 1.00000000
				-9.43992000 21.78955000 -17.15045000 / -0.45345860 0.89127740 0.00000000 / 182 146 0 255 / 8.17845100 0.60969530 / 0.00000340 0.00000170 -1.00000000 1.00000000
				-9.43994700 21.78958000 -14.76959000 / -0.45338280 0.89131590 0.00000000 / 179 155 0 255 / 1.22024500 0.60969530 / 0.00000340 0.00000170 -1.00000000 1.00000000
				-9.43994700 21.78958000 -14.76959000 / -0.45338280 0.89131590 0.00000000 / 179 155 0 255 / 1.22024500 0.60969530 / 0.00000290 0.00000150 -1.00000000 1.00000000
				-9.43994700 21.78958000 -14.76959000 / -0.45338280 0.89131590 0.00000000 / 179 155 0 255 / 1.22024500 0.60969530 / 0.00000190 0.00000100 -1.00000000 1.00000000
				-9.41297300 21.80332000 -14.02252000 / -0.45345860 0.89127740 0.00000000 / 177 157 0 255 / -0.96260070 0.65960690 / 0.00000290 0.00000150 -1.00000000 1.00000000
				-9.41297300 21.80332000 -14.02252000 / -0.45345860 0.89127740 0.00000000 / 177 157 0 255 / -0.96260070 0.65960690 / 0.00000190 0.00000100 -1.00000000 1.00000000
				-13.31154000 18.06889000 -13.61431000 / -0.37716760 0.74155640 -0.55483220 / 13 123 0 255 / -1.57455400 0.86419680 / 0.89132820 0.45335870 0.00001960 1.00000000
				-9.51875700 21.62788000 -14.74127000 / -0.89131590 -0.45338280 0.00000000 / 11 164 0 255 / -1.31701700 0.56977840 / 0.45338280 -0.89131590 0.00001610 1.00000000
				-16.73635000 24.81693000 -13.60418000 / 0.45338280 -0.89131590 0.00000000 / 36 100 0 255 / -10.17178000 0.87719720 / -0.89131590 -0.45338280 -0.00000380 1.00000000
				-9.37665900 21.73193000 -14.84967000 / 0.00000000 0.00000000 -1.00000000 / 40 70 0 255 / 1.47462500 0.65835570 / -0.45338020 0.89131720 0.00000000 1.00000000
				-9.43995600 21.78959000 -14.02252000 / -0.45345860 0.89127740 0.00000000 / 175 153 0 255 / -0.96260070 0.60969530 / 0.00000190 0.00000100 -1.00000000 1.00000000
				-8.93764700 20.30023000 -17.02055000 / -0.45338280 0.89131590 0.00000000 / 70 148 0 255 / -10.03665000 0.87480160 / -0.89131590 -0.45338280 -0.00000350 1.00000000
				-9.61838500 21.69882000 -14.76959000 / -0.45338280 0.89131590 -0.00009540 / 10 150 0 255 / 5.99401900 0.60969530 / -0.00004660 0.00008330 1.00000000 1.00000000
				-9.61838500 21.69882000 -14.76959000 / -0.45338280 0.89131590 -0.00009540 / 10 150 0 255 / 5.99401900 0.60969530 / -0.00004570 0.00008380 1.00000000 1.00000000
				-9.61838500 21.69882000 -14.76959000 / -0.45338280 0.89131590 -0.00009540 / 10 150 0 255 / 5.99401900 0.60969530 / -0.00004620 0.00008350 1.00000000 1.00000000
				-9.61835900 21.69878000 -17.15045000 / -0.46784390 0.88381110 0.00000000 / 9 144 0 255 / -0.96418770 0.60969530 / -0.00000310 -0.00000170 1.00000000 1.00000000
				-9.64468600 21.68484000 -17.15045000 / -0.46776940 0.88385060 0.00000000 / 9 150 0 255 / -0.96418770 0.65960690 / -0.00000310 -0.00000170 1.00000000 1.00000000
			}
		}
	}
}
