Version 165 32
{
	Locked False
	Skinned False
	BoneCount 0
	Mask 255
	Bounds
	{
		Aabb
		{
			Min -1.29980500 -0.05371090 -0.00131170
			Max 0.00000000 0.05371090 2.29849200
		}
	}
	Geometries
	{
		Geometry
		{
			ShaderIndex 0
			Flags -
			VertexDeclaration N51263BB5
			Indices 540
			{
				0 222 424 425 441 1 457 474 490 491 507 458 523 2 18
				19 35 524 51 74 94 95 117 52 139 168 196 197 223 140
				248 279 305 306 331 249 359 388 410 411 421 360 422 426 427
				428 429 423 430 432 433 434 435 431 436 438 439 440 442 437
				443 445 446 447 448 444 449 451 452 453 454 450 455 459 460
				461 462 456 463 465 466 467 468 464 469 471 472 473 475 470
				476 478 479 480 481 477 482 484 485 486 487 483 488 492 493
				494 495 489 496 498 499 500 501 497 502 504 505 506 508 503
				509 511 512 513 514 510 515 517 518 519 520 516 521 525 526
				527 528 522 529 531 532 533 534 530 535 537 538 539 3 536
				4 6 7 8 9 5 10 12 13 14 15 11 16 20 21
				22 23 17 24 26 27 28 29 25 30 32 33 34 36 31
				37 39 40 41 42 38 43 45 46 47 48 44 49 53 54
				55 56 50 57 59 60 61 63 58 64 62 66 67 69 65
				70 68 72 73 75 71 76 78 79 80 82 77 83 85 86
				87 88 84 91 93 89 90 96 92 99 81 97 98 101 100
				102 104 105 106 108 103 109 111 112 113 114 110 118 120 115
				116 121 119 124 107 122 123 126 125 127 130 131 132 133 128
				136 129 134 135 141 137 144 138 142 143 147 145 150 146 148
				149 153 151 156 152 154 155 159 157 162 158 160 161 164 163
				165 169 170 171 172 166 175 167 173 174 178 176 181 177 179
				180 184 182 187 183 185 186 190 188 193 189 191 192 198 194
				201 195 199 200 203 202 204 207 208 209 210 205 213 206 211
				212 216 214 219 215 217 218 224 220 227 221 225 226 230 228
				233 229 231 232 236 234 239 235 237 238 241 240 242 245 246
				247 250 243 253 244 251 252 256 254 259 255 257 258 262 260
				265 261 263 264 268 266 271 267 269 270 274 272 277 273 275
				276 280 278 281 284 285 286 287 282 290 283 288 289 293 291
				296 292 294 295 299 297 302 298 300 301 307 303 310 304 308
				309 313 311 316 312 314 315 318 317 319 322 323 324 325 320
				328 321 326 327 332 329 335 330 333 334 338 336 341 337 339
				340 344 342 347 343 345 346 350 348 353 349 351 352 355 354
				356 361 362 363 364 357 367 358 365 366 370 368 373 369 371
				372 376 374 379 375 377 378 382 380 385 381 383 384 389 386
				392 387 390 391 394 393 395 398 399 396 400 402 401 405 403
				397 404 406 407 412 413 408 414 416 415 419 417 409 418 420
			}
			Vertices 540
			{
				-0.04394530 -0.05371090 2.29849200 / -1.00000000 0.00000000 0.00000000 / 176 176 176 255 / 0.59207150 -0.48823550 / 0.00000000 -1.00000000 0.00000000 1.00000000
				-0.04394530 -0.05371090 2.29849200 / -1.00000000 0.00000000 0.00000000 / 176 176 176 255 / 0.59207150 -0.48823550 / 0.00000000 -1.00000000 0.00000000 1.00000000
				-1.29980500 0.05371090 2.29849200 / -1.00000000 0.00000000 0.00000000 / 176 176 176 255 / 0.50000000 -0.48823550 / 0.00000000 -1.00000000 0.00000000 1.00000000
				-1.25585900 -0.05371090 1.28091500 / 0.00000000 -0.70710720 0.70710640 / 192 190 191 255 / -2.08798200 0.59207150 / 1.00000000 0.00000000 0.00000000 1.00000000
				-0.94775390 -0.04345700 1.28091500 / 0.70710770 -0.70710590 0.00000000 / 192 190 191 255 / -1.82336400 0.38644410 / 0.70710580 0.70710770 0.00028040 1.00000000
				-0.94775390 -0.04345700 1.28091500 / 0.70710770 -0.70710590 0.00000000 / 192 190 191 255 / -1.82336400 0.38644410 / 0.70710580 0.70710770 0.00028040 1.00000000
				-0.95800780 -0.05371090 1.27652000 / 0.70710770 -0.70710590 0.00000000 / 192 190 191 255 / -1.83197000 0.38999940 / 0.70699240 0.70699430 0.01790960 1.00000000
				-0.95800780 -0.05371090 1.02066100 / 0.70710770 -0.70710590 0.00000000 / 192 190 191 255 / -1.83197000 0.61000060 / 0.70710580 0.70710770 0.00028040 1.00000000
				-0.95800780 -0.05371090 1.02066100 / 0.70710770 -0.70710590 0.00000000 / 192 190 191 255 / -1.83197000 0.61000060 / 0.70710580 0.70710770 0.00028040 1.00000000
				-0.94775390 -0.04345700 1.01626600 / 0.70710770 -0.70710590 0.00000000 / 192 190 191 255 / -1.82336400 0.61355590 / 0.70699940 0.70700130 -0.01734910 1.00000000
				-0.96191410 -0.05371090 1.01626600 / 0.50002910 -0.70706780 -0.50002620 / 192 190 191 255 / -1.83552600 0.61355590 / 0.81483480 0.57967290 -0.00485340 1.00000000
				-0.96191410 -0.05371090 1.01626600 / 0.50002910 -0.70706780 -0.50002620 / 192 190 191 255 / -1.83552600 0.61355590 / 0.81483480 0.57967290 -0.00485340 1.00000000
				-0.95800780 -0.04345700 1.00650100 / 0.50002910 -0.70706780 -0.50002620 / 192 190 191 255 / -1.83197000 0.62214660 / 0.81483480 0.57967290 -0.00485340 1.00000000
				-0.94775390 -0.04345700 1.01626600 / 0.50002910 -0.70706780 -0.50002620 / 192 190 191 255 / -1.82336400 0.61355590 / 0.81483480 0.57967290 -0.00485340 1.00000000
				-0.94775390 -0.04345700 1.01626600 / 0.50002910 -0.70706780 -0.50002620 / 192 190 191 255 / -1.82336400 0.61355590 / 0.81483480 0.57967290 -0.00485340 1.00000000
				-0.95800780 -0.05371090 1.02066100 / 0.50002910 -0.70706780 -0.50002620 / 192 190 191 255 / -1.83197000 0.61000060 / 0.81483480 0.57967290 -0.00485340 1.00000000
				-0.95800780 -0.05371090 1.27652000 / 0.50002910 -0.70706780 0.50002620 / 192 190 191 255 / -1.83197000 0.38999940 / 0.81729420 0.57621510 -0.00249550 1.00000000
				-0.95800780 -0.05371090 1.27652000 / 0.50002910 -0.70706780 0.50002620 / 192 190 191 255 / -1.83197000 0.38999940 / 0.81729420 0.57621510 -0.00249550 1.00000000
				-1.29980500 0.05371090 -0.00131170 / -1.00000000 0.00000000 0.00000000 / 176 176 176 255 / 0.50000000 1.48823600 / 0.00000000 -1.00000000 0.00000000 1.00000000
				-1.29980500 0.05371090 -0.00131170 / -1.00000000 0.00000000 0.00000000 / 176 176 176 255 / 0.50000000 1.48823600 / 0.00000000 -1.00000000 0.00000000 1.00000000
				-0.94775390 -0.04345700 1.28091500 / 0.50002910 -0.70706780 0.50002620 / 192 190 191 255 / -1.82336400 0.38644410 / 0.81136520 0.58434860 0.01493470 1.00000000
				-0.95800780 -0.04345700 1.29068000 / 0.50002910 -0.70706780 0.50002620 / 192 190 191 255 / -1.83197000 0.37785340 / 0.81729420 0.57621510 -0.00249550 1.00000000
				-0.95800780 -0.04345700 1.29068000 / 0.50002910 -0.70706780 0.50002620 / 192 190 191 255 / -1.83197000 0.37785340 / 0.81729420 0.57621510 -0.00249550 1.00000000
				-0.96191410 -0.05371090 1.28091500 / 0.50002910 -0.70706780 0.50002620 / 192 190 191 255 / -1.83552600 0.38644410 / 0.82318570 0.56738860 -0.02086840 1.00000000
				-1.25585900 0.05371090 1.01626600 / 0.00000000 0.70710720 -0.70710640 / 192 190 191 255 / 3.08798200 0.50000000 / -1.00000000 0.00000000 0.00000000 1.00000000
				-1.25585900 0.05371090 1.01626600 / 0.00000000 0.70710720 -0.70710640 / 192 190 191 255 / 3.08798200 0.50000000 / -1.00000000 0.00000000 0.00000000 1.00000000
				-0.96191410 0.05371090 1.01626600 / 0.00000000 0.70710720 -0.70710640 / 192 190 191 255 / 2.83552600 0.50000000 / -1.00000000 0.00000000 0.00000000 1.00000000
				-0.95800780 0.04345700 1.00650100 / 0.00000000 0.70710720 -0.70710640 / 192 190 191 255 / 2.83197000 0.50859070 / -1.00000000 0.00000000 0.00000000 1.00000000
				-0.95800780 0.04345700 1.00650100 / 0.00000000 0.70710720 -0.70710640 / 192 190 191 255 / 2.83197000 0.50859070 / -1.00000000 0.00000000 0.00000000 1.00000000
				-1.25585900 0.04345700 1.00650100 / 0.00000000 0.70710720 -0.70710640 / 192 190 191 255 / 3.08798200 0.50859070 / -1.00000000 0.00000000 0.00000000 1.00000000
				-0.96191410 0.05371090 1.28091500 / 0.00000000 0.70710720 0.70710640 / 192 190 191 255 / -1.83552600 0.50000000 / 1.00000000 0.00000000 0.00000000 1.00000000
				-0.96191410 0.05371090 1.28091500 / 0.00000000 0.70710720 0.70710640 / 192 190 191 255 / -1.83552600 0.50000000 / 1.00000000 0.00000000 0.00000000 1.00000000
				-1.25585900 0.05371090 1.28091500 / 0.00000000 0.70710720 0.70710640 / 192 190 191 255 / -2.08798200 0.50000000 / 1.00000000 0.00000000 0.00000000 1.00000000
				-1.25585900 0.04345700 1.29068000 / 0.00000000 0.70710720 0.70710640 / 192 190 191 255 / -2.08798200 0.50859070 / 1.00000000 0.00000000 0.00000000 1.00000000
				-1.25585900 0.04345700 1.29068000 / 0.00000000 0.70710720 0.70710640 / 192 190 191 255 / -2.08798200 0.50859070 / 1.00000000 0.00000000 0.00000000 1.00000000
				-1.29980500 -0.05371090 -0.00131170 / -1.00000000 0.00000000 0.00000000 / 176 176 176 255 / 0.59207150 1.48823600 / 0.00000000 -1.00000000 0.00000000 1.00000000
				-0.95800780 0.04345700 1.29068000 / 0.00000000 0.70710720 0.70710640 / 192 190 191 255 / -1.83197000 0.50859070 / 1.00000000 0.00000000 0.00000000 1.00000000
				-0.94775390 0.04345700 1.28091500 / 0.70710770 0.70710590 0.00000000 / 192 190 191 255 / 0.49140930 0.38644410 / -0.70710580 0.70710770 -0.00028040 1.00000000
				-0.94775390 0.04345700 1.28091500 / 0.70710770 0.70710590 0.00000000 / 192 190 191 255 / 0.49140930 0.38644410 / -0.70710580 0.70710770 -0.00028040 1.00000000
				-0.94775390 0.04345700 1.01626600 / 0.70710770 0.70710590 0.00000000 / 192 190 191 255 / 0.49140930 0.61355590 / -0.70699940 0.70700130 0.01734910 1.00000000
				-0.95800780 0.05371090 1.02066100 / 0.70710770 0.70710590 0.00000000 / 192 190 191 255 / 0.50000000 0.61000060 / -0.70710580 0.70710770 -0.00028040 1.00000000
				-0.95800780 0.05371090 1.02066100 / 0.70710770 0.70710590 0.00000000 / 192 190 191 255 / 0.50000000 0.61000060 / -0.70710580 0.70710770 -0.00028040 1.00000000
				-0.95800780 0.05371090 1.27652000 / 0.70710770 0.70710590 0.00000000 / 192 190 191 255 / 0.50000000 0.38999940 / -0.70699240 0.70699430 -0.01790960 1.00000000
				-0.96191410 0.05371090 1.01626600 / 0.50002910 0.70706780 -0.50002620 / 192 190 191 255 / 2.83552600 0.61355590 / -0.81483480 0.57967290 0.00485340 1.00000000
				-0.96191410 0.05371090 1.01626600 / 0.50002910 0.70706780 -0.50002620 / 192 190 191 255 / 2.83552600 0.61355590 / -0.81483480 0.57967290 0.00485340 1.00000000
				-0.95800780 0.05371090 1.02066100 / 0.50002910 0.70706780 -0.50002620 / 192 190 191 255 / 2.83197000 0.61000060 / -0.81483480 0.57967290 0.00485340 1.00000000
				-0.94775390 0.04345700 1.01626600 / 0.50002910 0.70706780 -0.50002620 / 192 190 191 255 / 2.82336400 0.61355590 / -0.81483480 0.57967290 0.00485340 1.00000000
				-0.94775390 0.04345700 1.01626600 / 0.50002910 0.70706780 -0.50002620 / 192 190 191 255 / 2.82336400 0.61355590 / -0.81483480 0.57967290 0.00485340 1.00000000
				-0.95800780 0.04345700 1.00650100 / 0.50002910 0.70706780 -0.50002620 / 192 190 191 255 / 2.83197000 0.62214660 / -0.81483480 0.57967290 0.00485340 1.00000000
				-0.95800780 0.05371090 1.27652000 / 0.50002910 0.70706780 0.50002620 / 192 190 191 255 / 2.83197000 0.38999940 / -0.81729420 0.57621510 0.00249550 1.00000000
				-0.95800780 0.05371090 1.27652000 / 0.50002910 0.70706780 0.50002620 / 192 190 191 255 / 2.83197000 0.38999940 / -0.81729420 0.57621510 0.00249550 1.00000000
				-1.25585900 0.05371090 2.29849200 / 1.00000000 0.00000000 0.00000000 / 176 176 176 255 / 0.50000000 -0.48823550 / 0.00000000 1.00000000 0.00000000 1.00000000
				-1.25585900 0.05371090 2.29849200 / 1.00000000 0.00000000 0.00000000 / 176 176 176 255 / 0.50000000 -0.48823550 / 0.00000000 1.00000000 0.00000000 1.00000000
				-0.96191410 0.05371090 1.28091500 / 0.50002910 0.70706780 0.50002620 / 192 190 191 255 / 2.83552600 0.38644410 / -0.82318570 0.56738860 0.02086840 1.00000000
				-0.95800780 0.04345700 1.29068000 / 0.50002910 0.70706780 0.50002620 / 192 190 191 255 / 2.83197000 0.37785340 / -0.81729420 0.57621510 0.00249550 1.00000000
				-0.95800780 0.04345700 1.29068000 / 0.50002910 0.70706780 0.50002620 / 192 190 191 255 / 2.83197000 0.37785340 / -0.81729420 0.57621510 0.00249550 1.00000000
				-0.94775390 0.04345700 1.28091500 / 0.50002910 0.70706780 0.50002620 / 192 190 191 255 / 2.82336400 0.38644410 / -0.81136520 0.58434860 -0.01493470 1.00000000
				0.00000000 -0.05371090 2.29849200 / 0.00000000 0.00000000 1.00000000 / 176 176 176 255 / -1.00877400 0.59207150 / 1.00000000 0.00000000 0.00000000 1.00000000
				0.00000000 -0.05371090 2.29849200 / 0.00000000 0.00000000 1.00000000 / 176 176 176 255 / -1.00877400 0.59207150 / 1.00000000 0.00000000 0.00000000 1.00000000
				0.00000000 0.05371090 2.29849200 / 0.00000000 0.00000000 1.00000000 / 176 176 176 255 / -1.00877400 0.50000000 / 1.00000000 0.00000000 0.00000000 1.00000000
				-0.04394530 0.05371090 2.29849200 / 0.00000000 0.00000000 1.00000000 / 176 176 176 255 / -1.04670700 0.50000000 / 1.00000000 0.00000000 0.00000000 1.00000000
				-0.04394530 0.05371090 2.29849200 / 0.00000000 0.00000000 1.00000000 / 176 176 176 255 / -1.04670700 0.50000000 / 1.00000000 0.00000000 0.00000000 1.00000000
				-0.04394530 0.05371090 2.29849200 / 0.00000000 0.00000000 1.00000000 / 176 176 176 255 / -1.04670700 0.50000000 / 1.00000000 0.00000000 0.00000000 1.00000000
				-0.04394530 -0.05371090 2.29849200 / 0.00000000 0.00000000 1.00000000 / 176 176 176 255 / -1.04670700 0.59207150 / 1.00000000 0.00000000 0.00000000 1.00000000
				-0.04394530 -0.05371090 2.29849200 / 0.00000000 0.00000000 1.00000000 / 176 176 176 255 / -1.04670700 0.59207150 / 1.00000000 0.00000000 0.00000000 1.00000000
				-0.04394530 -0.05371090 2.29849200 / 0.00000000 0.00000000 1.00000000 / 176 176 176 255 / -1.04670700 0.59207150 / 1.00000000 0.00000000 0.00000000 1.00000000
				-1.25585900 0.05371090 2.29849200 / 0.00000000 0.00000000 1.00000000 / 176 176 176 255 / -2.08798200 0.50000000 / 1.00000000 0.00000000 0.00000000 1.00000000
				-1.25585900 0.05371090 2.29849200 / 0.00000000 0.00000000 1.00000000 / 176 176 176 255 / -2.08798200 0.50000000 / 1.00000000 0.00000000 0.00000000 1.00000000
				-1.25585900 0.05371090 2.29849200 / 0.00000000 0.00000000 1.00000000 / 176 176 176 255 / -2.08798200 0.50000000 / 1.00000000 0.00000000 0.00000000 1.00000000
				-1.25585900 -0.05371090 2.29849200 / 0.00000000 0.00000000 1.00000000 / 176 176 176 255 / -2.08798200 0.59207150 / 1.00000000 0.00000000 0.00000000 1.00000000
				-1.25585900 -0.05371090 2.29849200 / 0.00000000 0.00000000 1.00000000 / 176 176 176 255 / -2.08798200 0.59207150 / 1.00000000 0.00000000 0.00000000 1.00000000
				-1.25585900 -0.05371090 2.29849200 / 0.00000000 0.00000000 1.00000000 / 176 176 176 255 / -2.08798200 0.59207150 / 1.00000000 0.00000000 0.00000000 1.00000000
				-1.29980500 0.05371090 2.29849200 / 0.00000000 0.00000000 1.00000000 / 176 176 176 255 / -2.12591600 0.50000000 / 1.00000000 0.00000000 0.00000000 1.00000000
				-1.29980500 0.05371090 2.29849200 / 0.00000000 0.00000000 1.00000000 / 176 176 176 255 / -2.12591600 0.50000000 / 1.00000000 0.00000000 0.00000000 1.00000000
				-1.25585900 -0.05371090 2.29849200 / 1.00000000 0.00000000 0.00000000 / 176 176 176 255 / 0.40792850 -0.48823550 / 0.00000000 1.00000000 0.00000000 1.00000000
				-1.29980500 -0.05371090 2.29849200 / 0.00000000 0.00000000 1.00000000 / 176 176 176 255 / -2.12591600 0.59207150 / 1.00000000 0.00000000 0.00000000 1.00000000
				-0.04394530 -0.05371090 0.04995730 / 0.00000000 -1.00000000 0.00000000 / 192 190 191 255 / -1.04670700 1.44404600 / 1.00000000 0.00000000 0.00000000 1.00000000
				-0.04394530 -0.05371090 0.04995730 / 0.00000000 -1.00000000 0.00000000 / 192 190 191 255 / -1.04670700 1.44404600 / 1.00000000 0.00000000 0.00000000 1.00000000
				-1.25585900 -0.05371090 0.04995730 / 0.00000000 -1.00000000 0.00000000 / 192 190 191 255 / -2.08798200 1.44404600 / 1.00000000 0.00000000 0.00000000 1.00000000
				-1.25585900 -0.05371090 -0.00131170 / 0.00000000 -1.00000000 0.00000000 / 192 190 191 255 / -2.08798200 1.48823600 / 1.00000000 0.00000000 0.00000000 1.00000000
				-1.25585900 -0.05371090 -0.00131170 / 0.00000000 -1.00000000 0.00000000 / 192 190 191 255 / -2.08798200 1.48823600 / 1.00000000 0.00000000 0.00000000 1.00000000
				-1.25585900 -0.05371090 -0.00131170 / 0.00000000 -1.00000000 0.00000000 / 192 190 191 255 / -2.08798200 1.48823600 / 1.00000000 0.00000000 0.00000000 1.00000000
				-0.04394530 -0.05371090 -0.00131170 / 0.00000000 -1.00000000 0.00000000 / 192 190 191 255 / -1.04670700 1.48823600 / 1.00000000 0.00000000 0.00000000 1.00000000
				-0.04394530 -0.05371090 -0.00131170 / 0.00000000 -1.00000000 0.00000000 / 192 190 191 255 / -1.04670700 1.48823600 / 1.00000000 0.00000000 0.00000000 1.00000000
				-0.04394530 -0.05371090 -0.00131170 / 0.00000000 -1.00000000 0.00000000 / 192 190 191 255 / -1.04670700 1.48823600 / 1.00000000 0.00000000 0.00000000 1.00000000
				0.00000000 -0.05371090 -0.00131170 / 0.00000000 -1.00000000 0.00000000 / 192 190 191 255 / -1.00877400 1.48823600 / 1.00000000 0.00000000 0.00000000 1.00000000
				0.00000000 -0.05371090 2.29849200 / 0.00000000 -1.00000000 0.00000000 / 192 190 191 255 / -1.00877400 -0.48823550 / 1.00000000 0.00000000 0.00000000 1.00000000
				0.00000000 -0.05371090 2.29849200 / 0.00000000 -1.00000000 0.00000000 / 192 190 191 255 / -1.00877400 -0.48823550 / 1.00000000 0.00000000 0.00000000 1.00000000
				-0.04394530 -0.05371090 2.29849200 / 0.00000000 -1.00000000 0.00000000 / 192 190 191 255 / -1.04670700 -0.48823550 / 1.00000000 0.00000000 0.00000000 1.00000000
				-0.04394530 -0.05371090 2.29849200 / 0.00000000 -1.00000000 0.00000000 / 192 190 191 255 / -1.04670700 -0.48823550 / 1.00000000 0.00000000 0.00000000 1.00000000
				-0.04394530 -0.05371090 2.29849200 / 0.00000000 -1.00000000 0.00000000 / 192 190 191 255 / -1.04670700 -0.48823550 / 1.00000000 0.00000000 0.00000000 1.00000000
				-1.25585900 -0.05371090 2.24722300 / 0.00000000 -1.00000000 0.00000000 / 192 190 191 255 / -2.08798200 -0.44404600 / 1.00000000 0.00000000 0.00000000 1.00000000
				-1.25585900 -0.05371090 2.24722300 / 0.00000000 -1.00000000 0.00000000 / 192 190 191 255 / -2.08798200 -0.44404600 / 1.00000000 0.00000000 0.00000000 1.00000000
				-0.04394530 -0.05371090 2.24722300 / 0.00000000 -1.00000000 0.00000000 / 192 190 191 255 / -1.04670700 -0.44404600 / 1.00000000 0.00000000 0.00000000 1.00000000
				-1.25585900 -0.05371090 -0.00131170 / 1.00000000 0.00000000 0.00000000 / 176 176 176 255 / 0.40792850 1.48823600 / 0.00000000 1.00000000 0.00000000 1.00000000
				-1.25585900 -0.05371090 -0.00131170 / 1.00000000 0.00000000 0.00000000 / 176 176 176 255 / 0.40792850 1.48823600 / 0.00000000 1.00000000 0.00000000 1.00000000
				-1.25585900 -0.05371090 2.29849200 / 0.00000000 -1.00000000 0.00000000 / 192 190 191 255 / -2.08798200 -0.48823550 / 1.00000000 0.00000000 0.00000000 1.00000000
				-1.25585900 -0.05371090 2.29849200 / 0.00000000 -1.00000000 0.00000000 / 192 190 191 255 / -2.08798200 -0.48823550 / 1.00000000 0.00000000 0.00000000 1.00000000
				-1.25585900 -0.05371090 2.29849200 / 0.00000000 -1.00000000 0.00000000 / 192 190 191 255 / -2.08798200 -0.48823550 / 1.00000000 0.00000000 0.00000000 1.00000000
				-1.29980500 -0.05371090 -0.00131170 / 0.00000000 -1.00000000 0.00000000 / 192 190 191 255 / -2.12591600 1.48823600 / 1.00000000 0.00000000 0.00000000 1.00000000
				-1.29980500 -0.05371090 -0.00131170 / 0.00000000 -1.00000000 0.00000000 / 192 190 191 255 / -2.12591600 1.48823600 / 1.00000000 0.00000000 0.00000000 1.00000000
				-1.29980500 -0.05371090 2.29849200 / 0.00000000 -1.00000000 0.00000000 / 192 190 191 255 / -2.12591600 -0.48823550 / 1.00000000 0.00000000 0.00000000 1.00000000
				-1.25585900 0.05371090 0.04995730 / 0.00000000 1.00000000 0.00000000 / 192 190 191 255 / 3.08798200 1.44404600 / -1.00000000 0.00000000 0.00000000 1.00000000
				-1.25585900 0.05371090 0.04995730 / 0.00000000 1.00000000 0.00000000 / 192 190 191 255 / 3.08798200 1.44404600 / -1.00000000 0.00000000 0.00000000 1.00000000
				-0.04394530 0.05371090 0.04995730 / 0.00000000 1.00000000 0.00000000 / 192 190 191 255 / 2.04670700 1.44404600 / -1.00000000 0.00000000 0.00000000 1.00000000
				-0.04394530 0.05371090 -0.00131170 / 0.00000000 1.00000000 0.00000000 / 192 190 191 255 / 2.04670700 1.48823600 / -1.00000000 0.00000000 0.00000000 1.00000000
				-0.04394530 0.05371090 -0.00131170 / 0.00000000 1.00000000 0.00000000 / 192 190 191 255 / 2.04670700 1.48823600 / -1.00000000 0.00000000 0.00000000 1.00000000
				-0.04394530 0.05371090 -0.00131170 / 0.00000000 1.00000000 0.00000000 / 192 190 191 255 / 2.04670700 1.48823600 / -1.00000000 0.00000000 0.00000000 1.00000000
				-1.25585900 0.05371090 -0.00131170 / 0.00000000 1.00000000 0.00000000 / 192 190 191 255 / 3.08798200 1.48823600 / -1.00000000 0.00000000 0.00000000 1.00000000
				-1.25585900 0.05371090 -0.00131170 / 0.00000000 1.00000000 0.00000000 / 192 190 191 255 / 3.08798200 1.48823600 / -1.00000000 0.00000000 0.00000000 1.00000000
				-1.25585900 0.05371090 -0.00131170 / 0.00000000 1.00000000 0.00000000 / 192 190 191 255 / 3.08798200 1.48823600 / -1.00000000 0.00000000 0.00000000 1.00000000
				-1.29980500 0.05371090 -0.00131170 / 0.00000000 1.00000000 0.00000000 / 192 190 191 255 / 3.12591600 1.48823600 / -1.00000000 0.00000000 0.00000000 1.00000000
				-1.29980500 0.05371090 2.29849200 / 0.00000000 1.00000000 0.00000000 / 192 190 191 255 / 3.12591600 -0.48823550 / -1.00000000 0.00000000 0.00000000 1.00000000
				-1.29980500 0.05371090 2.29849200 / 0.00000000 1.00000000 0.00000000 / 192 190 191 255 / 3.12591600 -0.48823550 / -1.00000000 0.00000000 0.00000000 1.00000000
				-1.25585900 0.05371090 2.29849200 / 0.00000000 1.00000000 0.00000000 / 192 190 191 255 / 3.08798200 -0.48823550 / -1.00000000 0.00000000 0.00000000 1.00000000
				-1.25585900 0.05371090 2.29849200 / 0.00000000 1.00000000 0.00000000 / 192 190 191 255 / 3.08798200 -0.48823550 / -1.00000000 0.00000000 0.00000000 1.00000000
				-1.25585900 0.05371090 2.29849200 / 0.00000000 1.00000000 0.00000000 / 192 190 191 255 / 3.08798200 -0.48823550 / -1.00000000 0.00000000 0.00000000 1.00000000
				-1.25585900 0.05371090 -0.00131170 / 1.00000000 0.00000000 0.00000000 / 176 176 176 255 / 0.50000000 1.48823600 / 0.00000000 1.00000000 0.00000000 1.00000000
				-0.04394530 0.05371090 2.24722300 / 0.00000000 1.00000000 0.00000000 / 192 190 191 255 / 2.04670700 -0.44404600 / -1.00000000 0.00000000 0.00000000 1.00000000
				-0.04394530 0.05371090 2.24722300 / 0.00000000 1.00000000 0.00000000 / 192 190 191 255 / 2.04670700 -0.44404600 / -1.00000000 0.00000000 0.00000000 1.00000000
				-1.25585900 0.05371090 2.24722300 / 0.00000000 1.00000000 0.00000000 / 192 190 191 255 / 3.08798200 -0.44404600 / -1.00000000 0.00000000 0.00000000 1.00000000
				-0.04394530 0.05371090 2.29849200 / 0.00000000 1.00000000 0.00000000 / 192 190 191 255 / 2.04670700 -0.48823550 / -1.00000000 0.00000000 0.00000000 1.00000000
				-0.04394530 0.05371090 2.29849200 / 0.00000000 1.00000000 0.00000000 / 192 190 191 255 / 2.04670700 -0.48823550 / -1.00000000 0.00000000 0.00000000 1.00000000
				-0.04394530 0.05371090 2.29849200 / 0.00000000 1.00000000 0.00000000 / 192 190 191 255 / 2.04670700 -0.48823550 / -1.00000000 0.00000000 0.00000000 1.00000000
				0.00000000 0.05371090 -0.00131170 / 0.00000000 1.00000000 0.00000000 / 192 190 191 255 / 2.00877400 1.48823600 / -1.00000000 0.00000000 0.00000000 1.00000000
				0.00000000 0.05371090 -0.00131170 / 0.00000000 1.00000000 0.00000000 / 192 190 191 255 / 2.00877400 1.48823600 / -1.00000000 0.00000000 0.00000000 1.00000000
				0.00000000 0.05371090 2.29849200 / 0.00000000 1.00000000 0.00000000 / 192 190 191 255 / 2.00877400 -0.48823550 / -1.00000000 0.00000000 0.00000000 1.00000000
				-0.64990240 0.02490230 0.04995730 / -0.18783210 0.98220110 0.00000000 / 192 190 191 255 / 1.00000000 4.24415600 / -0.98220120 -0.18783210 0.00000000 1.00000000
				-0.64990240 0.02490230 0.04995730 / -0.18783210 0.98220110 0.00000000 / 192 190 191 255 / 1.00000000 4.24415600 / -0.98220120 -0.18783210 0.00000000 1.00000000
				-0.64990240 0.02490230 0.04995730 / -0.18783210 0.98220110 0.00000000 / 192 190 191 255 / 1.00000000 4.24415600 / -0.98220120 -0.18783210 0.00000000 1.00000000
				-0.67187500 0.01269530 0.04995730 / -0.94470800 0.32791280 0.00000000 / 192 190 191 255 / 1.15641800 4.24415600 / -0.32791270 -0.94470800 0.00000000 1.00000000
				-0.67187500 0.01269530 2.24722300 / -0.75594750 0.65463220 0.00000000 / 192 190 191 255 / 1.15641800 -3.24415600 / -0.65463220 -0.75594750 0.00000000 1.00000000
				-0.67187500 0.01269530 2.24722300 / -0.75594750 0.65463220 0.00000000 / 192 190 191 255 / 1.15641800 -3.24415600 / -0.65463220 -0.75594750 0.00000000 1.00000000
				-0.64990240 0.02490230 2.24722300 / 0.18783210 0.98220110 0.00000000 / 192 190 191 255 / 1.00000000 -3.24415600 / -0.98220120 0.18783210 0.00000000 1.00000000
				-0.64990240 0.02490230 2.24722300 / 0.18783210 0.98220110 0.00000000 / 192 190 191 255 / 1.00000000 -3.24415600 / -0.98220120 0.18783210 0.00000000 1.00000000
				-0.64990240 0.02490230 2.24722300 / 0.18783210 0.98220110 0.00000000 / 192 190 191 255 / 1.00000000 -3.24415600 / -0.98220120 0.18783210 0.00000000 1.00000000
				-0.62841800 0.01269530 0.04995730 / 0.75594750 0.65463220 0.00000000 / 192 190 191 255 / 0.84358220 4.24415600 / -0.65463220 0.75594750 0.00000000 1.00000000
				-0.62841800 0.01269530 0.04995730 / 0.75594750 0.65463220 0.00000000 / 192 190 191 255 / 0.84358220 4.24415600 / -0.65463220 0.75594750 0.00000000 1.00000000
				-0.62841800 0.01269530 0.04995730 / 0.75594750 0.65463220 0.00000000 / 192 190 191 255 / 0.84358220 4.24415600 / -0.65463220 0.75594750 0.00000000 1.00000000
				-0.04394530 -0.05371090 0.04995730 / 0.00000000 0.00000000 1.00000000 / 176 176 176 255 / -1.04670700 0.59207150 / 1.00000000 0.00000000 0.00000000 1.00000000
				-0.04394530 -0.05371090 0.04995730 / 0.00000000 0.00000000 1.00000000 / 176 176 176 255 / -1.04670700 0.59207150 / 1.00000000 0.00000000 0.00000000 1.00000000
				-0.62841800 0.01269530 2.24722300 / 0.94470800 0.32791280 0.00000000 / 192 190 191 255 / 0.84358220 -3.24415600 / -0.32791270 0.94470800 0.00000000 1.00000000
				-0.62841800 0.01269530 2.24722300 / 0.94470800 0.32791280 0.00000000 / 192 190 191 255 / 0.84358220 -3.24415600 / -0.32791270 0.94470800 0.00000000 1.00000000
				-0.62841800 0.01269530 2.24722300 / 0.94470800 0.32791280 0.00000000 / 192 190 191 255 / 0.84358220 -3.24415600 / -0.32791270 0.94470800 0.00000000 1.00000000
				-0.62841800 -0.01269530 0.04995730 / 0.94470800 -0.32791280 0.00000000 / 192 190 191 255 / 0.65641790 4.24415600 / 0.32791280 0.94470800 0.00000000 1.00000000
				-0.62841800 -0.01269530 0.04995730 / 0.94470800 -0.32791280 0.00000000 / 192 190 191 255 / 0.65641790 4.24415600 / 0.32791280 0.94470800 0.00000000 1.00000000
				-0.62841800 -0.01269530 0.04995730 / 0.94470800 -0.32791280 0.00000000 / 192 190 191 255 / 0.65641790 4.24415600 / 0.32791280 0.94470800 0.00000000 1.00000000
				-0.62841800 -0.01269530 2.24722300 / 0.75594750 -0.65463220 0.00000000 / 192 190 191 255 / 0.65641790 -3.24415600 / 0.65463220 0.75594750 0.00000000 1.00000000
				-0.62841800 -0.01269530 2.24722300 / 0.75594750 -0.65463220 0.00000000 / 192 190 191 255 / 0.65641790 -3.24415600 / 0.65463220 0.75594750 0.00000000 1.00000000
				-0.62841800 -0.01269530 2.24722300 / 0.75594750 -0.65463220 0.00000000 / 192 190 191 255 / 0.65641790 -3.24415600 / 0.65463220 0.75594750 0.00000000 1.00000000
				-0.64990240 -0.02490230 0.04995730 / 0.18783210 -0.98220110 0.00000000 / 192 190 191 255 / 0.50000000 4.24415600 / 0.98220120 0.18783210 0.00000000 1.00000000
				-0.64990240 -0.02490230 0.04995730 / 0.18783210 -0.98220110 0.00000000 / 192 190 191 255 / 0.50000000 4.24415600 / 0.98220120 0.18783210 0.00000000 1.00000000
				-0.64990240 -0.02490230 0.04995730 / 0.18783210 -0.98220110 0.00000000 / 192 190 191 255 / 0.50000000 4.24415600 / 0.98220120 0.18783210 0.00000000 1.00000000
				-0.64990240 -0.02490230 2.24722300 / -0.18783210 -0.98220110 0.00000000 / 192 190 191 255 / 0.50000000 -3.24415600 / 0.98220120 -0.18783210 0.00000000 1.00000000
				-0.64990240 -0.02490230 2.24722300 / -0.18783210 -0.98220110 0.00000000 / 192 190 191 255 / 0.50000000 -3.24415600 / 0.98220120 -0.18783210 0.00000000 1.00000000
				-0.64990240 -0.02490230 2.24722300 / -0.18783210 -0.98220110 0.00000000 / 192 190 191 255 / 0.50000000 -3.24415600 / 0.98220120 -0.18783210 0.00000000 1.00000000
				-0.67187500 -0.01269530 0.04995730 / -0.75594750 -0.65463220 0.00000000 / 192 190 191 255 / 0.34358220 4.24415600 / 0.65463220 -0.75594750 0.00000000 1.00000000
				-0.67187500 -0.01269530 0.04995730 / -0.75594750 -0.65463220 0.00000000 / 192 190 191 255 / 0.34358220 4.24415600 / 0.65463220 -0.75594750 0.00000000 1.00000000
				-0.67187500 -0.01269530 0.04995730 / -0.75594750 -0.65463220 0.00000000 / 192 190 191 255 / 0.34358220 4.24415600 / 0.65463220 -0.75594750 0.00000000 1.00000000
				-0.67187500 -0.01269530 2.24722300 / -0.94470800 -0.32791280 0.00000000 / 192 190 191 255 / 0.34358220 -3.24415600 / 0.32791270 -0.94470800 0.00000000 1.00000000
				-0.67187500 -0.01269530 2.24722300 / -0.94470800 -0.32791280 0.00000000 / 192 190 191 255 / 0.34358220 -3.24415600 / 0.32791270 -0.94470800 0.00000000 1.00000000
				-0.67187500 -0.01269530 2.24722300 / -0.94470800 -0.32791280 0.00000000 / 192 190 191 255 / 0.34358220 -3.24415600 / 0.32791270 -0.94470800 0.00000000 1.00000000
				-0.67187500 0.01269530 0.04995730 / -0.94470800 0.32791280 0.00000000 / 192 190 191 255 / 0.15641780 4.24415600 / -0.32791280 -0.94470800 0.00000000 1.00000000
				-0.67187500 0.01269530 0.04995730 / -0.94470800 0.32791280 0.00000000 / 192 190 191 255 / 0.15641780 4.24415600 / -0.32791280 -0.94470800 0.00000000 1.00000000
				-0.67187500 0.01269530 2.24722300 / -0.75594750 0.65463220 0.00000000 / 192 190 191 255 / 0.15641780 -3.24415600 / -0.65463220 -0.75594750 0.00000000 1.00000000
				-0.81884770 0.02490230 0.04995730 / -0.18783210 0.98220110 0.00000000 / 192 190 191 255 / 1.00000000 4.24415600 / -0.98220120 -0.18783210 0.00000000 1.00000000
				-0.81884770 0.02490230 0.04995730 / -0.18783210 0.98220110 0.00000000 / 192 190 191 255 / 1.00000000 4.24415600 / -0.98220120 -0.18783210 0.00000000 1.00000000
				-0.81884770 0.02490230 0.04995730 / -0.18783210 0.98220110 0.00000000 / 192 190 191 255 / 1.00000000 4.24415600 / -0.98220120 -0.18783210 0.00000000 1.00000000
				-0.04394530 0.05371090 0.04995730 / 0.00000000 0.00000000 1.00000000 / 176 176 176 255 / -1.04670700 0.50000000 / 1.00000000 0.00000000 0.00000000 1.00000000
				-0.84033200 0.01269530 0.04995730 / -0.94470800 0.32791280 0.00000000 / 192 190 191 255 / 1.15641800 4.24415600 / -0.32791270 -0.94470800 0.00000000 1.00000000
				-0.84033200 0.01269530 2.24722300 / -0.75594750 0.65463220 0.00000000 / 192 190 191 255 / 1.15641800 -3.24415600 / -0.65463220 -0.75594750 0.00000000 1.00000000
				-0.84033200 0.01269530 2.24722300 / -0.75594750 0.65463220 0.00000000 / 192 190 191 255 / 1.15641800 -3.24415600 / -0.65463220 -0.75594750 0.00000000 1.00000000
				-0.81884770 0.02490230 2.24722300 / 0.18783210 0.98220110 0.00000000 / 192 190 191 255 / 1.00000000 -3.24415600 / -0.98220120 0.18783210 0.00000000 1.00000000
				-0.81884770 0.02490230 2.24722300 / 0.18783210 0.98220110 0.00000000 / 192 190 191 255 / 1.00000000 -3.24415600 / -0.98220120 0.18783210 0.00000000 1.00000000
				-0.81884770 0.02490230 2.24722300 / 0.18783210 0.98220110 0.00000000 / 192 190 191 255 / 1.00000000 -3.24415600 / -0.98220120 0.18783210 0.00000000 1.00000000
				-0.79687500 0.01269530 0.04995730 / 0.75594750 0.65463220 0.00000000 / 192 190 191 255 / 0.84358220 4.24415600 / -0.65463220 0.75594750 0.00000000 1.00000000
				-0.79687500 0.01269530 0.04995730 / 0.75594750 0.65463220 0.00000000 / 192 190 191 255 / 0.84358220 4.24415600 / -0.65463220 0.75594750 0.00000000 1.00000000
				-0.79687500 0.01269530 0.04995730 / 0.75594750 0.65463220 0.00000000 / 192 190 191 255 / 0.84358220 4.24415600 / -0.65463220 0.75594750 0.00000000 1.00000000
				-0.79687500 0.01269530 2.24722300 / 0.94470800 0.32791280 0.00000000 / 192 190 191 255 / 0.84358220 -3.24415600 / -0.32791270 0.94470800 0.00000000 1.00000000
				-0.79687500 0.01269530 2.24722300 / 0.94470800 0.32791280 0.00000000 / 192 190 191 255 / 0.84358220 -3.24415600 / -0.32791270 0.94470800 0.00000000 1.00000000
				-0.79687500 0.01269530 2.24722300 / 0.94470800 0.32791280 0.00000000 / 192 190 191 255 / 0.84358220 -3.24415600 / -0.32791270 0.94470800 0.00000000 1.00000000
				-0.79687500 -0.01269530 0.04995730 / 0.94470800 -0.32791280 0.00000000 / 192 190 191 255 / 0.65641790 4.24415600 / 0.32791280 0.94470800 0.00000000 1.00000000
				-0.79687500 -0.01269530 0.04995730 / 0.94470800 -0.32791280 0.00000000 / 192 190 191 255 / 0.65641790 4.24415600 / 0.32791280 0.94470800 0.00000000 1.00000000
				-0.79687500 -0.01269530 0.04995730 / 0.94470800 -0.32791280 0.00000000 / 192 190 191 255 / 0.65641790 4.24415600 / 0.32791280 0.94470800 0.00000000 1.00000000
				-0.79687500 -0.01269530 2.24722300 / 0.75594750 -0.65463220 0.00000000 / 192 190 191 255 / 0.65641790 -3.24415600 / 0.65463220 0.75594750 0.00000000 1.00000000
				-0.79687500 -0.01269530 2.24722300 / 0.75594750 -0.65463220 0.00000000 / 192 190 191 255 / 0.65641790 -3.24415600 / 0.65463220 0.75594750 0.00000000 1.00000000
				-0.79687500 -0.01269530 2.24722300 / 0.75594750 -0.65463220 0.00000000 / 192 190 191 255 / 0.65641790 -3.24415600 / 0.65463220 0.75594750 0.00000000 1.00000000
				-0.81884770 -0.02490230 0.04995730 / 0.18783210 -0.98220110 0.00000000 / 192 190 191 255 / 0.50000000 4.24415600 / 0.98220120 0.18783210 0.00000000 1.00000000
				-0.81884770 -0.02490230 0.04995730 / 0.18783210 -0.98220110 0.00000000 / 192 190 191 255 / 0.50000000 4.24415600 / 0.98220120 0.18783210 0.00000000 1.00000000
				-0.81884770 -0.02490230 0.04995730 / 0.18783210 -0.98220110 0.00000000 / 192 190 191 255 / 0.50000000 4.24415600 / 0.98220120 0.18783210 0.00000000 1.00000000
				-0.81884770 -0.02490230 2.24722300 / -0.18783210 -0.98220110 0.00000000 / 192 190 191 255 / 0.50000000 -3.24415600 / 0.98220120 -0.18783210 0.00000000 1.00000000
				-0.81884770 -0.02490230 2.24722300 / -0.18783210 -0.98220110 0.00000000 / 192 190 191 255 / 0.50000000 -3.24415600 / 0.98220120 -0.18783210 0.00000000 1.00000000
				-0.81884770 -0.02490230 2.24722300 / -0.18783210 -0.98220110 0.00000000 / 192 190 191 255 / 0.50000000 -3.24415600 / 0.98220120 -0.18783210 0.00000000 1.00000000
				-0.84033200 -0.01269530 0.04995730 / -0.75594750 -0.65463220 0.00000000 / 192 190 191 255 / 0.34358220 4.24415600 / 0.65463220 -0.75594750 0.00000000 1.00000000
				-0.84033200 -0.01269530 0.04995730 / -0.75594750 -0.65463220 0.00000000 / 192 190 191 255 / 0.34358220 4.24415600 / 0.65463220 -0.75594750 0.00000000 1.00000000
				-0.84033200 -0.01269530 0.04995730 / -0.75594750 -0.65463220 0.00000000 / 192 190 191 255 / 0.34358220 4.24415600 / 0.65463220 -0.75594750 0.00000000 1.00000000
				-1.25585900 0.05371090 0.04995730 / 0.00000000 0.00000000 1.00000000 / 176 176 176 255 / -2.08798200 0.50000000 / 1.00000000 0.00000000 0.00000000 1.00000000
				-1.25585900 0.05371090 0.04995730 / 0.00000000 0.00000000 1.00000000 / 176 176 176 255 / -2.08798200 0.50000000 / 1.00000000 0.00000000 0.00000000 1.00000000
				-0.84033200 -0.01269530 2.24722300 / -0.94470800 -0.32791280 0.00000000 / 192 190 191 255 / 0.34358220 -3.24415600 / 0.32791270 -0.94470800 0.00000000 1.00000000
				-0.84033200 -0.01269530 2.24722300 / -0.94470800 -0.32791280 0.00000000 / 192 190 191 255 / 0.34358220 -3.24415600 / 0.32791270 -0.94470800 0.00000000 1.00000000
				-0.84033200 -0.01269530 2.24722300 / -0.94470800 -0.32791280 0.00000000 / 192 190 191 255 / 0.34358220 -3.24415600 / 0.32791270 -0.94470800 0.00000000 1.00000000
				-0.84033200 0.01269530 0.04995730 / -0.94470800 0.32791280 0.00000000 / 192 190 191 255 / 0.15641780 4.24415600 / -0.32791280 -0.94470800 0.00000000 1.00000000
				-0.84033200 0.01269530 0.04995730 / -0.94470800 0.32791280 0.00000000 / 192 190 191 255 / 0.15641780 4.24415600 / -0.32791280 -0.94470800 0.00000000 1.00000000
				-0.84033200 0.01269530 2.24722300 / -0.75594750 0.65463220 0.00000000 / 192 190 191 255 / 0.15641780 -3.24415600 / -0.65463220 -0.75594750 0.00000000 1.00000000
				-0.98730470 0.02490230 0.04995730 / -0.18783210 0.98220110 0.00000000 / 192 190 191 255 / 1.00000000 4.24415600 / -0.98220120 -0.18783210 0.00000000 1.00000000
				-0.98730470 0.02490230 0.04995730 / -0.18783210 0.98220110 0.00000000 / 192 190 191 255 / 1.00000000 4.24415600 / -0.98220120 -0.18783210 0.00000000 1.00000000
				-0.98730470 0.02490230 0.04995730 / -0.18783210 0.98220110 0.00000000 / 192 190 191 255 / 1.00000000 4.24415600 / -0.98220120 -0.18783210 0.00000000 1.00000000
				-1.00927700 0.01269530 0.04995730 / -0.94470800 0.32791280 0.00000000 / 192 190 191 255 / 1.15641800 4.24415600 / -0.32791270 -0.94470800 0.00000000 1.00000000
				-1.00927700 0.01269530 2.24722300 / -0.75594280 0.65463780 0.00000000 / 192 190 191 255 / 1.15641800 -3.24415600 / -0.65463770 -0.75594280 0.00000000 1.00000000
				-1.00927700 0.01269530 2.24722300 / -0.75594280 0.65463780 0.00000000 / 192 190 191 255 / 1.15641800 -3.24415600 / -0.65463770 -0.75594280 0.00000000 1.00000000
				-0.98730470 0.02490230 2.24722300 / 0.18783210 0.98220110 0.00000000 / 192 190 191 255 / 1.00000000 -3.24415600 / -0.98220120 0.18783210 0.00000000 1.00000000
				-0.98730470 0.02490230 2.24722300 / 0.18783210 0.98220110 0.00000000 / 192 190 191 255 / 1.00000000 -3.24415600 / -0.98220120 0.18783210 0.00000000 1.00000000
				-0.98730470 0.02490230 2.24722300 / 0.18783210 0.98220110 0.00000000 / 192 190 191 255 / 1.00000000 -3.24415600 / -0.98220120 0.18783210 0.00000000 1.00000000
				-0.96582030 0.01269530 0.04995730 / 0.75594750 0.65463220 0.00000000 / 192 190 191 255 / 0.84358220 4.24415600 / -0.65463220 0.75594750 0.00000000 1.00000000
				-0.96582030 0.01269530 0.04995730 / 0.75594750 0.65463220 0.00000000 / 192 190 191 255 / 0.84358220 4.24415600 / -0.65463220 0.75594750 0.00000000 1.00000000
				-0.96582030 0.01269530 0.04995730 / 0.75594750 0.65463220 0.00000000 / 192 190 191 255 / 0.84358220 4.24415600 / -0.65463220 0.75594750 0.00000000 1.00000000
				-0.96582030 0.01269530 2.24722300 / 0.94470800 0.32791280 0.00000000 / 192 190 191 255 / 0.84358220 -3.24415600 / -0.32791270 0.94470800 0.00000000 1.00000000
				-0.96582030 0.01269530 2.24722300 / 0.94470800 0.32791280 0.00000000 / 192 190 191 255 / 0.84358220 -3.24415600 / -0.32791270 0.94470800 0.00000000 1.00000000
				-0.96582030 0.01269530 2.24722300 / 0.94470800 0.32791280 0.00000000 / 192 190 191 255 / 0.84358220 -3.24415600 / -0.32791270 0.94470800 0.00000000 1.00000000
				-0.96582030 -0.01269530 0.04995730 / 0.94470800 -0.32791280 0.00000000 / 192 190 191 255 / 0.65641790 4.24415600 / 0.32791280 0.94470800 0.00000000 1.00000000
				-0.96582030 -0.01269530 0.04995730 / 0.94470800 -0.32791280 0.00000000 / 192 190 191 255 / 0.65641790 4.24415600 / 0.32791280 0.94470800 0.00000000 1.00000000
				-0.96582030 -0.01269530 0.04995730 / 0.94470800 -0.32791280 0.00000000 / 192 190 191 255 / 0.65641790 4.24415600 / 0.32791280 0.94470800 0.00000000 1.00000000
				-0.04394530 0.05371090 2.29849200 / -1.00000000 0.00000000 0.00000000 / 176 176 176 255 / 0.50000000 -0.48823550 / 0.00000000 -1.00000000 0.00000000 1.00000000
				-1.25585900 -0.05371090 0.04995730 / 0.00000000 0.00000000 1.00000000 / 176 176 176 255 / -2.08798200 0.59207150 / 1.00000000 0.00000000 0.00000000 1.00000000
				-0.96582030 -0.01269530 2.24722300 / 0.75594750 -0.65463220 0.00000000 / 192 190 191 255 / 0.65641790 -3.24415600 / 0.65463220 0.75594750 0.00000000 1.00000000
				-0.96582030 -0.01269530 2.24722300 / 0.75594750 -0.65463220 0.00000000 / 192 190 191 255 / 0.65641790 -3.24415600 / 0.65463220 0.75594750 0.00000000 1.00000000
				-0.96582030 -0.01269530 2.24722300 / 0.75594750 -0.65463220 0.00000000 / 192 190 191 255 / 0.65641790 -3.24415600 / 0.65463220 0.75594750 0.00000000 1.00000000
				-0.98730470 -0.02490230 0.04995730 / 0.18783210 -0.98220110 0.00000000 / 192 190 191 255 / 0.50000000 4.24415600 / 0.98220120 0.18783210 0.00000000 1.00000000
				-0.98730470 -0.02490230 0.04995730 / 0.18783210 -0.98220110 0.00000000 / 192 190 191 255 / 0.50000000 4.24415600 / 0.98220120 0.18783210 0.00000000 1.00000000
				-0.98730470 -0.02490230 0.04995730 / 0.18783210 -0.98220110 0.00000000 / 192 190 191 255 / 0.50000000 4.24415600 / 0.98220120 0.18783210 0.00000000 1.00000000
				-0.98730470 -0.02490230 2.24722300 / -0.18783210 -0.98220110 0.00000000 / 192 190 191 255 / 0.50000000 -3.24415600 / 0.98220120 -0.18783210 0.00000000 1.00000000
				-0.98730470 -0.02490230 2.24722300 / -0.18783210 -0.98220110 0.00000000 / 192 190 191 255 / 0.50000000 -3.24415600 / 0.98220120 -0.18783210 0.00000000 1.00000000
				-0.98730470 -0.02490230 2.24722300 / -0.18783210 -0.98220110 0.00000000 / 192 190 191 255 / 0.50000000 -3.24415600 / 0.98220120 -0.18783210 0.00000000 1.00000000
				-1.00927700 -0.01269530 0.04995730 / -0.75594280 -0.65463780 0.00000000 / 192 190 191 255 / 0.34358220 4.24415600 / 0.65463780 -0.75594270 0.00000000 1.00000000
				-1.00927700 -0.01269530 0.04995730 / -0.75594280 -0.65463780 0.00000000 / 192 190 191 255 / 0.34358220 4.24415600 / 0.65463780 -0.75594270 0.00000000 1.00000000
				-1.00927700 -0.01269530 0.04995730 / -0.75594280 -0.65463780 0.00000000 / 192 190 191 255 / 0.34358220 4.24415600 / 0.65463780 -0.75594270 0.00000000 1.00000000
				-1.00927700 -0.01269530 2.24722300 / -0.94470800 -0.32791280 0.00000000 / 192 190 191 255 / 0.34358220 -3.24415600 / 0.32791270 -0.94470800 0.00000000 1.00000000
				-1.00927700 -0.01269530 2.24722300 / -0.94470800 -0.32791280 0.00000000 / 192 190 191 255 / 0.34358220 -3.24415600 / 0.32791270 -0.94470800 0.00000000 1.00000000
				-1.00927700 -0.01269530 2.24722300 / -0.94470800 -0.32791280 0.00000000 / 192 190 191 255 / 0.34358220 -3.24415600 / 0.32791270 -0.94470800 0.00000000 1.00000000
				-1.00927700 0.01269530 0.04995730 / -0.94470800 0.32791280 0.00000000 / 192 190 191 255 / 0.15641780 4.24415600 / -0.32791280 -0.94470800 0.00000000 1.00000000
				-1.00927700 0.01269530 0.04995730 / -0.94470800 0.32791280 0.00000000 / 192 190 191 255 / 0.15641780 4.24415600 / -0.32791280 -0.94470800 0.00000000 1.00000000
				-1.00927700 0.01269530 2.24722300 / -0.75594280 0.65463780 0.00000000 / 192 190 191 255 / 0.15641780 -3.24415600 / -0.65463780 -0.75594270 0.00000000 1.00000000
				-1.15625000 0.02490230 0.04995730 / -0.18782620 0.98220240 0.00000000 / 192 190 191 255 / 1.00000000 4.24415600 / -0.98220230 -0.18782620 0.00000000 1.00000000
				-1.15625000 0.02490230 0.04995730 / -0.18782620 0.98220240 0.00000000 / 192 190 191 255 / 1.00000000 4.24415600 / -0.98220230 -0.18782620 0.00000000 1.00000000
				-1.15625000 0.02490230 0.04995730 / -0.18782620 0.98220240 0.00000000 / 192 190 191 255 / 1.00000000 4.24415600 / -0.98220230 -0.18782620 0.00000000 1.00000000
				-1.17773400 0.01269530 0.04995730 / -0.94470800 0.32791280 0.00000000 / 192 190 191 255 / 1.15641800 4.24415600 / -0.32791260 -0.94470800 0.00000000 1.00000000
				-1.17773400 0.01269530 2.24722300 / -0.75594280 0.65463780 0.00000000 / 192 190 191 255 / 1.15641800 -3.24415600 / -0.65463770 -0.75594280 0.00000000 1.00000000
				-1.17773400 0.01269530 2.24722300 / -0.75594280 0.65463780 0.00000000 / 192 190 191 255 / 1.15641800 -3.24415600 / -0.65463770 -0.75594280 0.00000000 1.00000000
				-0.04394530 -0.05371090 2.24722300 / 0.00000000 0.00000000 -1.00000000 / 178 178 178 255 / 2.04670700 0.59207150 / -1.00000000 0.00000000 0.00000000 1.00000000
				-0.04394530 -0.05371090 2.24722300 / 0.00000000 0.00000000 -1.00000000 / 178 178 178 255 / 2.04670700 0.59207150 / -1.00000000 0.00000000 0.00000000 1.00000000
				-1.15625000 0.02490230 2.24722300 / 0.18782620 0.98220240 0.00000000 / 192 190 191 255 / 1.00000000 -3.24415600 / -0.98220230 0.18782620 0.00000000 1.00000000
				-1.15625000 0.02490230 2.24722300 / 0.18782620 0.98220240 0.00000000 / 192 190 191 255 / 1.00000000 -3.24415600 / -0.98220230 0.18782620 0.00000000 1.00000000
				-1.15625000 0.02490230 2.24722300 / 0.18782620 0.98220240 0.00000000 / 192 190 191 255 / 1.00000000 -3.24415600 / -0.98220230 0.18782620 0.00000000 1.00000000
				-1.13476600 0.01269530 0.04995730 / 0.75594280 0.65463780 0.00000000 / 192 190 191 255 / 0.84358220 4.24415600 / -0.65463770 0.75594280 0.00000000 1.00000000
				-1.13476600 0.01269530 0.04995730 / 0.75594280 0.65463780 0.00000000 / 192 190 191 255 / 0.84358220 4.24415600 / -0.65463770 0.75594280 0.00000000 1.00000000
				-1.13476600 0.01269530 0.04995730 / 0.75594280 0.65463780 0.00000000 / 192 190 191 255 / 0.84358220 4.24415600 / -0.65463770 0.75594280 0.00000000 1.00000000
				-1.13476600 0.01269530 2.24722300 / 0.94470800 0.32791280 0.00000000 / 192 190 191 255 / 0.84358220 -3.24415600 / -0.32791270 0.94470800 0.00000000 1.00000000
				-1.13476600 0.01269530 2.24722300 / 0.94470800 0.32791280 0.00000000 / 192 190 191 255 / 0.84358220 -3.24415600 / -0.32791270 0.94470800 0.00000000 1.00000000
				-1.13476600 0.01269530 2.24722300 / 0.94470800 0.32791280 0.00000000 / 192 190 191 255 / 0.84358220 -3.24415600 / -0.32791270 0.94470800 0.00000000 1.00000000
				-1.13476600 -0.01269530 0.04995730 / 0.94470800 -0.32791280 0.00000000 / 192 190 191 255 / 0.65641790 4.24415600 / 0.32791280 0.94470800 0.00000000 1.00000000
				-1.13476600 -0.01269530 0.04995730 / 0.94470800 -0.32791280 0.00000000 / 192 190 191 255 / 0.65641790 4.24415600 / 0.32791280 0.94470800 0.00000000 1.00000000
				-1.13476600 -0.01269530 0.04995730 / 0.94470800 -0.32791280 0.00000000 / 192 190 191 255 / 0.65641790 4.24415600 / 0.32791280 0.94470800 0.00000000 1.00000000
				-1.13476600 -0.01269530 2.24722300 / 0.75594280 -0.65463780 0.00000000 / 192 190 191 255 / 0.65641790 -3.24415600 / 0.65463780 0.75594280 0.00000000 1.00000000
				-1.13476600 -0.01269530 2.24722300 / 0.75594280 -0.65463780 0.00000000 / 192 190 191 255 / 0.65641790 -3.24415600 / 0.65463780 0.75594280 0.00000000 1.00000000
				-1.13476600 -0.01269530 2.24722300 / 0.75594280 -0.65463780 0.00000000 / 192 190 191 255 / 0.65641790 -3.24415600 / 0.65463780 0.75594280 0.00000000 1.00000000
				-1.15625000 -0.02490230 0.04995730 / 0.18782620 -0.98220240 0.00000000 / 192 190 191 255 / 0.50000000 4.24415600 / 0.98220230 0.18782620 0.00000000 1.00000000
				-1.15625000 -0.02490230 0.04995730 / 0.18782620 -0.98220240 0.00000000 / 192 190 191 255 / 0.50000000 4.24415600 / 0.98220230 0.18782620 0.00000000 1.00000000
				-1.15625000 -0.02490230 0.04995730 / 0.18782620 -0.98220240 0.00000000 / 192 190 191 255 / 0.50000000 4.24415600 / 0.98220230 0.18782620 0.00000000 1.00000000
				-1.15625000 -0.02490230 2.24722300 / -0.18782620 -0.98220240 0.00000000 / 192 190 191 255 / 0.50000000 -3.24415600 / 0.98220230 -0.18782620 0.00000000 1.00000000
				-1.15625000 -0.02490230 2.24722300 / -0.18782620 -0.98220240 0.00000000 / 192 190 191 255 / 0.50000000 -3.24415600 / 0.98220230 -0.18782620 0.00000000 1.00000000
				-1.15625000 -0.02490230 2.24722300 / -0.18782620 -0.98220240 0.00000000 / 192 190 191 255 / 0.50000000 -3.24415600 / 0.98220230 -0.18782620 0.00000000 1.00000000
				-1.17773400 -0.01269530 0.04995730 / -0.75594280 -0.65463780 0.00000000 / 192 190 191 255 / 0.34358220 4.24415600 / 0.65463770 -0.75594280 0.00000000 1.00000000
				-1.17773400 -0.01269530 0.04995730 / -0.75594280 -0.65463780 0.00000000 / 192 190 191 255 / 0.34358220 4.24415600 / 0.65463770 -0.75594280 0.00000000 1.00000000
				-1.17773400 -0.01269530 0.04995730 / -0.75594280 -0.65463780 0.00000000 / 192 190 191 255 / 0.34358220 4.24415600 / 0.65463770 -0.75594280 0.00000000 1.00000000
				-1.17773400 -0.01269530 2.24722300 / -0.94470800 -0.32791280 0.00000000 / 192 190 191 255 / 0.34358220 -3.24415600 / 0.32791270 -0.94470800 0.00000000 1.00000000
				-1.17773400 -0.01269530 2.24722300 / -0.94470800 -0.32791280 0.00000000 / 192 190 191 255 / 0.34358220 -3.24415600 / 0.32791270 -0.94470800 0.00000000 1.00000000
				-1.17773400 -0.01269530 2.24722300 / -0.94470800 -0.32791280 0.00000000 / 192 190 191 255 / 0.34358220 -3.24415600 / 0.32791270 -0.94470800 0.00000000 1.00000000
				-1.17773400 0.01269530 0.04995730 / -0.94470800 0.32791280 0.00000000 / 192 190 191 255 / 0.15641780 4.24415600 / -0.32791280 -0.94470800 0.00000000 1.00000000
				-1.17773400 0.01269530 0.04995730 / -0.94470800 0.32791280 0.00000000 / 192 190 191 255 / 0.15641780 4.24415600 / -0.32791280 -0.94470800 0.00000000 1.00000000
				-1.25585900 -0.05371090 2.24722300 / 0.00000000 0.00000000 -1.00000000 / 178 178 178 255 / 3.08798200 0.59207150 / -1.00000000 0.00000000 0.00000000 1.00000000
				-1.17773400 0.01269530 2.24722300 / -0.75594280 0.65463780 0.00000000 / 192 190 191 255 / 0.15641780 -3.24415600 / -0.65463780 -0.75594270 0.00000000 1.00000000
				-0.48144530 0.02490230 0.04995730 / -0.18783210 0.98220110 0.00000000 / 192 190 191 255 / 1.00000000 4.24415600 / -0.98220120 -0.18783210 0.00000000 1.00000000
				-0.48144530 0.02490230 0.04995730 / -0.18783210 0.98220110 0.00000000 / 192 190 191 255 / 1.00000000 4.24415600 / -0.98220120 -0.18783210 0.00000000 1.00000000
				-0.48144530 0.02490230 0.04995730 / -0.18783210 0.98220110 0.00000000 / 192 190 191 255 / 1.00000000 4.24415600 / -0.98220120 -0.18783210 0.00000000 1.00000000
				-0.50292970 0.01269530 0.04995730 / -0.94470800 0.32791280 0.00000000 / 192 190 191 255 / 1.15641800 4.24415600 / -0.32791270 -0.94470800 0.00000000 1.00000000
				-0.50292970 0.01269530 2.24722300 / -0.75594750 0.65463220 0.00000000 / 192 190 191 255 / 1.15641800 -3.24415600 / -0.65463220 -0.75594750 0.00000000 1.00000000
				-0.50292970 0.01269530 2.24722300 / -0.75594750 0.65463220 0.00000000 / 192 190 191 255 / 1.15641800 -3.24415600 / -0.65463220 -0.75594750 0.00000000 1.00000000
				-0.48144530 0.02490230 2.24722300 / 0.18783210 0.98220110 0.00000000 / 192 190 191 255 / 1.00000000 -3.24415600 / -0.98220120 0.18783210 0.00000000 1.00000000
				-0.48144530 0.02490230 2.24722300 / 0.18783210 0.98220110 0.00000000 / 192 190 191 255 / 1.00000000 -3.24415600 / -0.98220120 0.18783210 0.00000000 1.00000000
				-0.48144530 0.02490230 2.24722300 / 0.18783210 0.98220110 0.00000000 / 192 190 191 255 / 1.00000000 -3.24415600 / -0.98220120 0.18783210 0.00000000 1.00000000
				-0.45947260 0.01269530 0.04995730 / 0.75594510 0.65463500 0.00000000 / 192 190 191 255 / 0.84358220 4.24415600 / -0.65463500 0.75594510 0.00000000 1.00000000
				-0.45947260 0.01269530 0.04995730 / 0.75594510 0.65463500 0.00000000 / 192 190 191 255 / 0.84358220 4.24415600 / -0.65463500 0.75594510 0.00000000 1.00000000
				-0.45947260 0.01269530 0.04995730 / 0.75594510 0.65463500 0.00000000 / 192 190 191 255 / 0.84358220 4.24415600 / -0.65463500 0.75594510 0.00000000 1.00000000
				-0.45947260 0.01269530 2.24722300 / 0.94470710 0.32791530 0.00000000 / 192 190 191 255 / 0.84358220 -3.24415600 / -0.32791540 0.94470710 0.00000000 1.00000000
				-0.45947260 0.01269530 2.24722300 / 0.94470710 0.32791530 0.00000000 / 192 190 191 255 / 0.84358220 -3.24415600 / -0.32791540 0.94470710 0.00000000 1.00000000
				-0.45947260 0.01269530 2.24722300 / 0.94470710 0.32791530 0.00000000 / 192 190 191 255 / 0.84358220 -3.24415600 / -0.32791540 0.94470710 0.00000000 1.00000000
				-0.45947260 -0.01269530 0.04995730 / 0.94470710 -0.32791530 0.00000000 / 192 190 191 255 / 0.65641790 4.24415600 / 0.32791540 0.94470710 0.00000000 1.00000000
				-0.45947260 -0.01269530 0.04995730 / 0.94470710 -0.32791530 0.00000000 / 192 190 191 255 / 0.65641790 4.24415600 / 0.32791540 0.94470710 0.00000000 1.00000000
				-0.45947260 -0.01269530 0.04995730 / 0.94470710 -0.32791530 0.00000000 / 192 190 191 255 / 0.65641790 4.24415600 / 0.32791540 0.94470710 0.00000000 1.00000000
				-0.45947260 -0.01269530 2.24722300 / 0.75594510 -0.65463500 0.00000000 / 192 190 191 255 / 0.65641790 -3.24415600 / 0.65463500 0.75594510 0.00000000 1.00000000
				-0.45947260 -0.01269530 2.24722300 / 0.75594510 -0.65463500 0.00000000 / 192 190 191 255 / 0.65641790 -3.24415600 / 0.65463500 0.75594510 0.00000000 1.00000000
				-0.45947260 -0.01269530 2.24722300 / 0.75594510 -0.65463500 0.00000000 / 192 190 191 255 / 0.65641790 -3.24415600 / 0.65463500 0.75594510 0.00000000 1.00000000
				-0.48144530 -0.02490230 0.04995730 / 0.18783210 -0.98220110 0.00000000 / 192 190 191 255 / 0.50000000 4.24415600 / 0.98220120 0.18783210 0.00000000 1.00000000
				-0.48144530 -0.02490230 0.04995730 / 0.18783210 -0.98220110 0.00000000 / 192 190 191 255 / 0.50000000 4.24415600 / 0.98220120 0.18783210 0.00000000 1.00000000
				-0.48144530 -0.02490230 0.04995730 / 0.18783210 -0.98220110 0.00000000 / 192 190 191 255 / 0.50000000 4.24415600 / 0.98220120 0.18783210 0.00000000 1.00000000
				-1.25585900 0.05371090 2.24722300 / 0.00000000 0.00000000 -1.00000000 / 178 178 178 255 / 3.08798200 0.50000000 / -1.00000000 0.00000000 0.00000000 1.00000000
				-1.25585900 0.05371090 2.24722300 / 0.00000000 0.00000000 -1.00000000 / 178 178 178 255 / 3.08798200 0.50000000 / -1.00000000 0.00000000 0.00000000 1.00000000
				-0.48144530 -0.02490230 2.24722300 / -0.18783210 -0.98220110 0.00000000 / 192 190 191 255 / 0.50000000 -3.24415600 / 0.98220120 -0.18783210 0.00000000 1.00000000
				-0.48144530 -0.02490230 2.24722300 / -0.18783210 -0.98220110 0.00000000 / 192 190 191 255 / 0.50000000 -3.24415600 / 0.98220120 -0.18783210 0.00000000 1.00000000
				-0.48144530 -0.02490230 2.24722300 / -0.18783210 -0.98220110 0.00000000 / 192 190 191 255 / 0.50000000 -3.24415600 / 0.98220120 -0.18783210 0.00000000 1.00000000
				-0.50292970 -0.01269530 0.04995730 / -0.75594750 -0.65463220 0.00000000 / 192 190 191 255 / 0.34358220 4.24415600 / 0.65463220 -0.75594750 0.00000000 1.00000000
				-0.50292970 -0.01269530 0.04995730 / -0.75594750 -0.65463220 0.00000000 / 192 190 191 255 / 0.34358220 4.24415600 / 0.65463220 -0.75594750 0.00000000 1.00000000
				-0.50292970 -0.01269530 0.04995730 / -0.75594750 -0.65463220 0.00000000 / 192 190 191 255 / 0.34358220 4.24415600 / 0.65463220 -0.75594750 0.00000000 1.00000000
				-0.50292970 -0.01269530 2.24722300 / -0.94470800 -0.32791280 0.00000000 / 192 190 191 255 / 0.34358220 -3.24415600 / 0.32791270 -0.94470800 0.00000000 1.00000000
				-0.50292970 -0.01269530 2.24722300 / -0.94470800 -0.32791280 0.00000000 / 192 190 191 255 / 0.34358220 -3.24415600 / 0.32791270 -0.94470800 0.00000000 1.00000000
				-0.50292970 -0.01269530 2.24722300 / -0.94470800 -0.32791280 0.00000000 / 192 190 191 255 / 0.34358220 -3.24415600 / 0.32791270 -0.94470800 0.00000000 1.00000000
				-0.50292970 0.01269530 0.04995730 / -0.94470800 0.32791280 0.00000000 / 192 190 191 255 / 0.15641780 4.24415600 / -0.32791280 -0.94470800 0.00000000 1.00000000
				-0.50292970 0.01269530 0.04995730 / -0.94470800 0.32791280 0.00000000 / 192 190 191 255 / 0.15641780 4.24415600 / -0.32791280 -0.94470800 0.00000000 1.00000000
				-0.50292970 0.01269530 2.24722300 / -0.75594750 0.65463220 0.00000000 / 192 190 191 255 / 0.15641780 -3.24415600 / -0.65463220 -0.75594750 0.00000000 1.00000000
				-0.31250000 0.02490230 0.04995730 / -0.18783210 0.98220110 0.00000000 / 192 190 191 255 / 1.00000000 4.24415600 / -0.98220120 -0.18783210 0.00000000 1.00000000
				-0.31250000 0.02490230 0.04995730 / -0.18783210 0.98220110 0.00000000 / 192 190 191 255 / 1.00000000 4.24415600 / -0.98220120 -0.18783210 0.00000000 1.00000000
				-0.31250000 0.02490230 0.04995730 / -0.18783210 0.98220110 0.00000000 / 192 190 191 255 / 1.00000000 4.24415600 / -0.98220120 -0.18783210 0.00000000 1.00000000
				-0.33398440 0.01269530 0.04995730 / -0.94470710 0.32791530 0.00000000 / 192 190 191 255 / 1.15641800 4.24415600 / -0.32791540 -0.94470710 0.00000000 1.00000000
				-0.33398440 0.01269530 2.24722300 / -0.75594510 0.65463500 0.00000000 / 192 190 191 255 / 1.15641800 -3.24415600 / -0.65463500 -0.75594510 0.00000000 1.00000000
				-0.33398440 0.01269530 2.24722300 / -0.75594510 0.65463500 0.00000000 / 192 190 191 255 / 1.15641800 -3.24415600 / -0.65463500 -0.75594510 0.00000000 1.00000000
				-0.31250000 0.02490230 2.24722300 / 0.18783210 0.98220110 0.00000000 / 192 190 191 255 / 1.00000000 -3.24415600 / -0.98220120 0.18783210 0.00000000 1.00000000
				-0.31250000 0.02490230 2.24722300 / 0.18783210 0.98220110 0.00000000 / 192 190 191 255 / 1.00000000 -3.24415600 / -0.98220120 0.18783210 0.00000000 1.00000000
				-0.31250000 0.02490230 2.24722300 / 0.18783210 0.98220110 0.00000000 / 192 190 191 255 / 1.00000000 -3.24415600 / -0.98220120 0.18783210 0.00000000 1.00000000
				-0.29101560 0.01269530 0.04995730 / 0.75594510 0.65463500 0.00000000 / 192 190 191 255 / 0.84358220 4.24415600 / -0.65463500 0.75594510 0.00000000 1.00000000
				-0.29101560 0.01269530 0.04995730 / 0.75594510 0.65463500 0.00000000 / 192 190 191 255 / 0.84358220 4.24415600 / -0.65463500 0.75594510 0.00000000 1.00000000
				-0.29101560 0.01269530 0.04995730 / 0.75594510 0.65463500 0.00000000 / 192 190 191 255 / 0.84358220 4.24415600 / -0.65463500 0.75594510 0.00000000 1.00000000
				-0.04394530 0.05371090 2.24722300 / 0.00000000 0.00000000 -1.00000000 / 178 178 178 255 / 2.04670700 0.50000000 / -1.00000000 0.00000000 0.00000000 1.00000000
				-0.29101560 0.01269530 2.24722300 / 0.94470710 0.32791530 0.00000000 / 192 190 191 255 / 0.84358220 -3.24415600 / -0.32791540 0.94470710 0.00000000 1.00000000
				-0.29101560 0.01269530 2.24722300 / 0.94470710 0.32791530 0.00000000 / 192 190 191 255 / 0.84358220 -3.24415600 / -0.32791540 0.94470710 0.00000000 1.00000000
				-0.29101560 0.01269530 2.24722300 / 0.94470710 0.32791530 0.00000000 / 192 190 191 255 / 0.84358220 -3.24415600 / -0.32791540 0.94470710 0.00000000 1.00000000
				-0.29101560 -0.01269530 0.04995730 / 0.94470710 -0.32791530 0.00000000 / 192 190 191 255 / 0.65641790 4.24415600 / 0.32791540 0.94470710 0.00000000 1.00000000
				-0.29101560 -0.01269530 0.04995730 / 0.94470710 -0.32791530 0.00000000 / 192 190 191 255 / 0.65641790 4.24415600 / 0.32791540 0.94470710 0.00000000 1.00000000
				-0.29101560 -0.01269530 0.04995730 / 0.94470710 -0.32791530 0.00000000 / 192 190 191 255 / 0.65641790 4.24415600 / 0.32791540 0.94470710 0.00000000 1.00000000
				-0.29101560 -0.01269530 2.24722300 / 0.75594510 -0.65463500 0.00000000 / 192 190 191 255 / 0.65641790 -3.24415600 / 0.65463500 0.75594510 0.00000000 1.00000000
				-0.29101560 -0.01269530 2.24722300 / 0.75594510 -0.65463500 0.00000000 / 192 190 191 255 / 0.65641790 -3.24415600 / 0.65463500 0.75594510 0.00000000 1.00000000
				-0.29101560 -0.01269530 2.24722300 / 0.75594510 -0.65463500 0.00000000 / 192 190 191 255 / 0.65641790 -3.24415600 / 0.65463500 0.75594510 0.00000000 1.00000000
				-0.31250000 -0.02490230 0.04995730 / 0.18783210 -0.98220110 0.00000000 / 192 190 191 255 / 0.50000000 4.24415600 / 0.98220120 0.18783210 0.00000000 1.00000000
				-0.31250000 -0.02490230 0.04995730 / 0.18783210 -0.98220110 0.00000000 / 192 190 191 255 / 0.50000000 4.24415600 / 0.98220120 0.18783210 0.00000000 1.00000000
				-0.31250000 -0.02490230 0.04995730 / 0.18783210 -0.98220110 0.00000000 / 192 190 191 255 / 0.50000000 4.24415600 / 0.98220120 0.18783210 0.00000000 1.00000000
				-0.31250000 -0.02490230 2.24722300 / -0.18783210 -0.98220110 0.00000000 / 192 190 191 255 / 0.50000000 -3.24415600 / 0.98220120 -0.18783210 0.00000000 1.00000000
				-0.31250000 -0.02490230 2.24722300 / -0.18783210 -0.98220110 0.00000000 / 192 190 191 255 / 0.50000000 -3.24415600 / 0.98220120 -0.18783210 0.00000000 1.00000000
				-0.31250000 -0.02490230 2.24722300 / -0.18783210 -0.98220110 0.00000000 / 192 190 191 255 / 0.50000000 -3.24415600 / 0.98220120 -0.18783210 0.00000000 1.00000000
				-0.33398440 -0.01269530 0.04995730 / -0.75594510 -0.65463500 0.00000000 / 192 190 191 255 / 0.34358220 4.24415600 / 0.65463500 -0.75594510 0.00000000 1.00000000
				-0.33398440 -0.01269530 0.04995730 / -0.75594510 -0.65463500 0.00000000 / 192 190 191 255 / 0.34358220 4.24415600 / 0.65463500 -0.75594510 0.00000000 1.00000000
				-0.33398440 -0.01269530 0.04995730 / -0.75594510 -0.65463500 0.00000000 / 192 190 191 255 / 0.34358220 4.24415600 / 0.65463500 -0.75594510 0.00000000 1.00000000
				-0.33398440 -0.01269530 2.24722300 / -0.94470710 -0.32791530 0.00000000 / 192 190 191 255 / 0.34358220 -3.24415600 / 0.32791530 -0.94470710 0.00000000 1.00000000
				-0.33398440 -0.01269530 2.24722300 / -0.94470710 -0.32791530 0.00000000 / 192 190 191 255 / 0.34358220 -3.24415600 / 0.32791530 -0.94470710 0.00000000 1.00000000
				-0.33398440 -0.01269530 2.24722300 / -0.94470710 -0.32791530 0.00000000 / 192 190 191 255 / 0.34358220 -3.24415600 / 0.32791530 -0.94470710 0.00000000 1.00000000
				-0.33398440 0.01269530 0.04995730 / -0.94470710 0.32791530 0.00000000 / 192 190 191 255 / 0.15641780 4.24415600 / -0.32791530 -0.94470710 0.00000000 1.00000000
				-0.33398440 0.01269530 0.04995730 / -0.94470710 0.32791530 0.00000000 / 192 190 191 255 / 0.15641780 4.24415600 / -0.32791530 -0.94470710 0.00000000 1.00000000
				-0.33398440 0.01269530 2.24722300 / -0.75594510 0.65463500 0.00000000 / 192 190 191 255 / 0.15641780 -3.24415600 / -0.65463510 -0.75594510 0.00000000 1.00000000
				-0.14355470 0.02490230 0.04995730 / -0.18783060 0.98220150 0.00000000 / 192 190 191 255 / 1.00000000 4.24415600 / -0.98220150 -0.18783060 0.00000000 1.00000000
				-0.14355470 0.02490230 0.04995730 / -0.18783060 0.98220150 0.00000000 / 192 190 191 255 / 1.00000000 4.24415600 / -0.98220150 -0.18783060 0.00000000 1.00000000
				-0.14355470 0.02490230 0.04995730 / -0.18783060 0.98220150 0.00000000 / 192 190 191 255 / 1.00000000 4.24415600 / -0.98220150 -0.18783060 0.00000000 1.00000000
				-0.04394530 -0.04638670 0.21987940 / 0.00000000 0.00000000 -1.00000000 / 178 178 178 255 / 2.04670700 0.58580010 / -1.00000000 0.00000000 0.00000000 1.00000000
				-0.04394530 -0.04638670 0.21987940 / 0.00000000 0.00000000 -1.00000000 / 178 178 178 255 / 2.04670700 0.58580010 / -1.00000000 0.00000000 0.00000000 1.00000000
				-0.16552730 0.01269530 0.04995730 / -0.94470710 0.32791530 0.00000000 / 192 190 191 255 / 1.15641800 4.24415600 / -0.32791540 -0.94470710 0.00000000 1.00000000
				-0.16552730 0.01269530 2.24722300 / -0.75594630 0.65463360 0.00000000 / 192 190 191 255 / 1.15641800 -3.24415600 / -0.65463360 -0.75594630 0.00000000 1.00000000
				-0.16552730 0.01269530 2.24722300 / -0.75594630 0.65463360 0.00000000 / 192 190 191 255 / 1.15641800 -3.24415600 / -0.65463360 -0.75594630 0.00000000 1.00000000
				-0.14355470 0.02490230 2.24722300 / 0.18783060 0.98220150 0.00000000 / 192 190 191 255 / 1.00000000 -3.24415600 / -0.98220150 0.18783060 0.00000000 1.00000000
				-0.14355470 0.02490230 2.24722300 / 0.18783060 0.98220150 0.00000000 / 192 190 191 255 / 1.00000000 -3.24415600 / -0.98220150 0.18783060 0.00000000 1.00000000
				-0.14355470 0.02490230 2.24722300 / 0.18783060 0.98220150 0.00000000 / 192 190 191 255 / 1.00000000 -3.24415600 / -0.98220150 0.18783060 0.00000000 1.00000000
				-0.12207030 0.01269530 0.04995730 / 0.75594630 0.65463360 0.00000000 / 192 190 191 255 / 0.84358220 4.24415600 / -0.65463360 0.75594630 0.00000000 1.00000000
				-0.12207030 0.01269530 0.04995730 / 0.75594630 0.65463360 0.00000000 / 192 190 191 255 / 0.84358220 4.24415600 / -0.65463360 0.75594630 0.00000000 1.00000000
				-0.12207030 0.01269530 0.04995730 / 0.75594630 0.65463360 0.00000000 / 192 190 191 255 / 0.84358220 4.24415600 / -0.65463360 0.75594630 0.00000000 1.00000000
				-0.12207030 0.01269530 2.24722300 / 0.94470730 0.32791480 0.00000000 / 192 190 191 255 / 0.84358220 -3.24415600 / -0.32791480 0.94470730 0.00000000 1.00000000
				-0.12207030 0.01269530 2.24722300 / 0.94470730 0.32791480 0.00000000 / 192 190 191 255 / 0.84358220 -3.24415600 / -0.32791480 0.94470730 0.00000000 1.00000000
				-0.12207030 0.01269530 2.24722300 / 0.94470730 0.32791480 0.00000000 / 192 190 191 255 / 0.84358220 -3.24415600 / -0.32791480 0.94470730 0.00000000 1.00000000
				-0.12207030 -0.01269530 0.04995730 / 0.94470730 -0.32791480 0.00000000 / 192 190 191 255 / 0.65641790 4.24415600 / 0.32791470 0.94470730 0.00000000 1.00000000
				-0.12207030 -0.01269530 0.04995730 / 0.94470730 -0.32791480 0.00000000 / 192 190 191 255 / 0.65641790 4.24415600 / 0.32791470 0.94470730 0.00000000 1.00000000
				-0.12207030 -0.01269530 0.04995730 / 0.94470730 -0.32791480 0.00000000 / 192 190 191 255 / 0.65641790 4.24415600 / 0.32791470 0.94470730 0.00000000 1.00000000
				-0.12207030 -0.01269530 2.24722300 / 0.75594630 -0.65463360 0.00000000 / 192 190 191 255 / 0.65641790 -3.24415600 / 0.65463360 0.75594630 0.00000000 1.00000000
				-0.12207030 -0.01269530 2.24722300 / 0.75594630 -0.65463360 0.00000000 / 192 190 191 255 / 0.65641790 -3.24415600 / 0.65463360 0.75594630 0.00000000 1.00000000
				-0.12207030 -0.01269530 2.24722300 / 0.75594630 -0.65463360 0.00000000 / 192 190 191 255 / 0.65641790 -3.24415600 / 0.65463360 0.75594630 0.00000000 1.00000000
				-0.14355470 -0.02490230 0.04995730 / 0.18783060 -0.98220150 0.00000000 / 192 190 191 255 / 0.50000000 4.24415600 / 0.98220150 0.18783060 0.00000000 1.00000000
				-0.14355470 -0.02490230 0.04995730 / 0.18783060 -0.98220150 0.00000000 / 192 190 191 255 / 0.50000000 4.24415600 / 0.98220150 0.18783060 0.00000000 1.00000000
				-0.14355470 -0.02490230 0.04995730 / 0.18783060 -0.98220150 0.00000000 / 192 190 191 255 / 0.50000000 4.24415600 / 0.98220150 0.18783060 0.00000000 1.00000000
				-0.14355470 -0.02490230 2.24722300 / -0.18783060 -0.98220150 0.00000000 / 192 190 191 255 / 0.50000000 -3.24415600 / 0.98220150 -0.18783060 0.00000000 1.00000000
				-0.14355470 -0.02490230 2.24722300 / -0.18783060 -0.98220150 0.00000000 / 192 190 191 255 / 0.50000000 -3.24415600 / 0.98220150 -0.18783060 0.00000000 1.00000000
				-0.14355470 -0.02490230 2.24722300 / -0.18783060 -0.98220150 0.00000000 / 192 190 191 255 / 0.50000000 -3.24415600 / 0.98220150 -0.18783060 0.00000000 1.00000000
				-0.16552730 -0.01269530 0.04995730 / -0.75594630 -0.65463360 0.00000000 / 192 190 191 255 / 0.34358220 4.24415600 / 0.65463360 -0.75594630 0.00000000 1.00000000
				-0.16552730 -0.01269530 0.04995730 / -0.75594630 -0.65463360 0.00000000 / 192 190 191 255 / 0.34358220 4.24415600 / 0.65463360 -0.75594630 0.00000000 1.00000000
				-0.16552730 -0.01269530 0.04995730 / -0.75594630 -0.65463360 0.00000000 / 192 190 191 255 / 0.34358220 4.24415600 / 0.65463360 -0.75594630 0.00000000 1.00000000
				-1.25585900 -0.04638670 0.21987940 / 0.00000000 0.00000000 -1.00000000 / 178 178 178 255 / 3.08798200 0.58580010 / -1.00000000 0.00000000 0.00000000 1.00000000
				-0.16552730 -0.01269530 2.24722300 / -0.94470710 -0.32791530 0.00000000 / 192 190 191 255 / 0.34358220 -3.24415600 / 0.32791530 -0.94470710 0.00000000 1.00000000
				-0.16552730 -0.01269530 2.24722300 / -0.94470710 -0.32791530 0.00000000 / 192 190 191 255 / 0.34358220 -3.24415600 / 0.32791530 -0.94470710 0.00000000 1.00000000
				-0.16552730 -0.01269530 2.24722300 / -0.94470710 -0.32791530 0.00000000 / 192 190 191 255 / 0.34358220 -3.24415600 / 0.32791530 -0.94470710 0.00000000 1.00000000
				-0.16552730 0.01269530 0.04995730 / -0.94470710 0.32791530 0.00000000 / 192 190 191 255 / 0.15641780 4.24415600 / -0.32791530 -0.94470710 0.00000000 1.00000000
				-0.16552730 0.01269530 0.04995730 / -0.94470710 0.32791530 0.00000000 / 192 190 191 255 / 0.15641780 4.24415600 / -0.32791530 -0.94470710 0.00000000 1.00000000
				-0.16552730 0.01269530 2.24722300 / -0.75594630 0.65463360 0.00000000 / 192 190 191 255 / 0.15641780 -3.24415600 / -0.65463360 -0.75594630 0.00000000 1.00000000
				-0.95800780 -0.05371090 1.02066100 / 0.00000000 -1.00000000 0.00000000 / 192 190 191 255 / -1.83197000 0.61000060 / 0.99977900 0.00000000 -0.02102350 1.00000000
				-0.95800780 -0.05371090 1.02066100 / 0.00000000 -1.00000000 0.00000000 / 192 190 191 255 / -1.83197000 0.61000060 / 0.99977900 0.00000000 -0.02102350 1.00000000
				-0.95800780 -0.05371090 1.02066100 / 0.00000000 -1.00000000 0.00000000 / 192 190 191 255 / -1.83197000 0.61000060 / 0.99977900 0.00000000 -0.02102350 1.00000000
				-0.95800780 -0.05371090 1.27652000 / 0.00000000 -1.00000000 0.00000000 / 192 190 191 255 / -1.83197000 0.38999940 / 0.99779650 0.00000000 -0.06634920 1.00000000
				-0.96191410 -0.05371090 1.28091500 / 0.00000000 -1.00000000 0.00000000 / 192 190 191 255 / -1.83552600 0.38644410 / 0.99977900 0.00000000 -0.02102350 1.00000000
				-0.96191410 -0.05371090 1.28091500 / 0.00000000 -1.00000000 0.00000000 / 192 190 191 255 / -1.83552600 0.38644410 / 0.99977900 0.00000000 -0.02102350 1.00000000
				-0.96191410 -0.05371090 1.28091500 / 0.00000000 -1.00000000 0.00000000 / 192 190 191 255 / -1.83552600 0.38644410 / 0.99977900 0.00000000 -0.02102350 1.00000000
				-1.25585900 -0.05371090 1.01626600 / 0.00000000 -1.00000000 0.00000000 / 192 190 191 255 / -2.08798200 0.61355590 / 0.99999980 0.00000000 0.00028590 1.00000000
				-1.25585900 -0.05371090 1.01626600 / 0.00000000 -1.00000000 0.00000000 / 192 190 191 255 / -2.08798200 0.61355590 / 0.99999980 0.00000000 0.00028590 1.00000000
				-1.25585900 -0.05371090 1.01626600 / 0.00000000 -1.00000000 0.00000000 / 192 190 191 255 / -2.08798200 0.61355590 / 0.99999980 0.00000000 0.00028590 1.00000000
				-1.25585900 -0.05371090 1.28091500 / 0.00000000 -1.00000000 0.00000000 / 192 190 191 255 / -2.08798200 0.38644410 / 1.00000000 0.00000000 0.00000000 1.00000000
				-0.96191410 -0.05371090 1.01626600 / 0.00000000 -1.00000000 0.00000000 / 192 190 191 255 / -1.83552600 0.61355590 / 1.00000000 0.00000000 0.00000000 1.00000000
				-1.25585900 0.05371090 1.28091500 / 0.00000000 1.00000000 0.00000000 / 192 190 191 255 / 3.08798200 0.38644410 / -0.99999980 0.00000000 0.00028590 1.00000000
				-1.25585900 0.05371090 1.28091500 / 0.00000000 1.00000000 0.00000000 / 192 190 191 255 / 3.08798200 0.38644410 / -0.99999980 0.00000000 0.00028590 1.00000000
				-1.25585900 0.05371090 1.28091500 / 0.00000000 1.00000000 0.00000000 / 192 190 191 255 / 3.08798200 0.38644410 / -0.99999980 0.00000000 0.00028590 1.00000000
				-1.25585900 0.04638670 0.21987940 / 0.00000000 0.00000000 -1.00000000 / 178 178 178 255 / 3.08798200 0.50627140 / -1.00000000 0.00000000 0.00000000 1.00000000
				-1.25585900 0.04638670 0.21987940 / 0.00000000 0.00000000 -1.00000000 / 178 178 178 255 / 3.08798200 0.50627140 / -1.00000000 0.00000000 0.00000000 1.00000000
				-0.96191410 0.05371090 1.28091500 / 0.00000000 1.00000000 0.00000000 / 192 190 191 255 / 2.83552600 0.38644410 / -1.00000000 0.00000000 0.00000000 1.00000000
				-0.95800780 0.05371090 1.27652000 / 0.00000000 1.00000000 0.00000000 / 192 190 191 255 / 2.83197000 0.38999940 / -0.99977900 0.00000000 -0.02102350 1.00000000
				-0.95800780 0.05371090 1.27652000 / 0.00000000 1.00000000 0.00000000 / 192 190 191 255 / 2.83197000 0.38999940 / -0.99977900 0.00000000 -0.02102350 1.00000000
				-0.95800780 0.05371090 1.27652000 / 0.00000000 1.00000000 0.00000000 / 192 190 191 255 / 2.83197000 0.38999940 / -0.99977900 0.00000000 -0.02102350 1.00000000
				-0.96191410 0.05371090 1.01626600 / 0.00000000 1.00000000 0.00000000 / 192 190 191 255 / 2.83552600 0.61355590 / -0.99977900 0.00000000 -0.02102350 1.00000000
				-0.96191410 0.05371090 1.01626600 / 0.00000000 1.00000000 0.00000000 / 192 190 191 255 / 2.83552600 0.61355590 / -0.99977900 0.00000000 -0.02102350 1.00000000
				-0.96191410 0.05371090 1.01626600 / 0.00000000 1.00000000 0.00000000 / 192 190 191 255 / 2.83552600 0.61355590 / -0.99977900 0.00000000 -0.02102350 1.00000000
				-0.95800780 0.05371090 1.02066100 / 0.00000000 1.00000000 0.00000000 / 192 190 191 255 / 2.83197000 0.61000060 / -0.99779650 0.00000000 -0.06634920 1.00000000
				-1.25585900 0.05371090 1.01626600 / 0.00000000 1.00000000 0.00000000 / 192 190 191 255 / 3.08798200 0.61355590 / -1.00000000 0.00000000 0.00000000 1.00000000
				-0.04394530 0.04638670 0.21987940 / 0.00000000 0.00000000 -1.00000000 / 178 178 178 255 / 2.04670700 0.50627140 / -1.00000000 0.00000000 0.00000000 1.00000000
				-0.04394530 -0.04638670 0.27163710 / 0.00000000 0.00000000 1.00000000 / 196 196 196 255 / -1.04670700 0.58580010 / 1.00000000 0.00000000 0.00000000 1.00000000
				-0.04394530 -0.04638670 0.27163710 / 0.00000000 0.00000000 1.00000000 / 196 196 196 255 / -1.04670700 0.58580010 / 1.00000000 0.00000000 0.00000000 1.00000000
				-0.04394530 0.05371090 -0.00131170 / -1.00000000 0.00000000 0.00000000 / 176 176 176 255 / 0.50000000 1.48823600 / 0.00000000 -1.00000000 0.00000000 1.00000000
				-0.04394530 0.05371090 -0.00131170 / -1.00000000 0.00000000 0.00000000 / 176 176 176 255 / 0.50000000 1.48823600 / 0.00000000 -1.00000000 0.00000000 1.00000000
				-0.04394530 0.04638670 0.27163710 / 0.00000000 0.00000000 1.00000000 / 196 196 196 255 / -1.04670700 0.50627140 / 1.00000000 0.00000000 0.00000000 1.00000000
				-1.25585900 0.04638670 0.27163710 / 0.00000000 0.00000000 1.00000000 / 196 196 196 255 / -2.08798200 0.50627140 / 1.00000000 0.00000000 0.00000000 1.00000000
				-1.25585900 0.04638670 0.27163710 / 0.00000000 0.00000000 1.00000000 / 196 196 196 255 / -2.08798200 0.50627140 / 1.00000000 0.00000000 0.00000000 1.00000000
				-1.25585900 -0.04638670 0.27163710 / 0.00000000 0.00000000 1.00000000 / 196 196 196 255 / -2.08798200 0.58580010 / 1.00000000 0.00000000 0.00000000 1.00000000
				-0.04394530 -0.04638670 0.27163710 / 0.00000000 -1.00000000 0.00000000 / 192 190 191 255 / -1.04670700 1.25370800 / 1.00000000 0.00000000 0.00000000 1.00000000
				-0.04394530 -0.04638670 0.27163710 / 0.00000000 -1.00000000 0.00000000 / 192 190 191 255 / -1.04670700 1.25370800 / 1.00000000 0.00000000 0.00000000 1.00000000
				-1.25585900 -0.04638670 0.27163710 / 0.00000000 -1.00000000 0.00000000 / 192 190 191 255 / -2.08798200 1.25370800 / 1.00000000 0.00000000 0.00000000 1.00000000
				-1.25585900 -0.04638670 0.21987940 / 0.00000000 -1.00000000 0.00000000 / 192 190 191 255 / -2.08798200 1.29791300 / 1.00000000 0.00000000 0.00000000 1.00000000
				-1.25585900 -0.04638670 0.21987940 / 0.00000000 -1.00000000 0.00000000 / 192 190 191 255 / -2.08798200 1.29791300 / 1.00000000 0.00000000 0.00000000 1.00000000
				-0.04394530 -0.04638670 0.21987940 / 0.00000000 -1.00000000 0.00000000 / 192 190 191 255 / -1.04670700 1.29791300 / 1.00000000 0.00000000 0.00000000 1.00000000
				-1.25585900 0.04638670 0.27163710 / 0.00000000 1.00000000 0.00000000 / 192 190 191 255 / 3.08798200 1.25370800 / -1.00000000 0.00000000 0.00000000 1.00000000
				-1.25585900 0.04638670 0.27163710 / 0.00000000 1.00000000 0.00000000 / 192 190 191 255 / 3.08798200 1.25370800 / -1.00000000 0.00000000 0.00000000 1.00000000
				-0.04394530 0.04638670 0.27163710 / 0.00000000 1.00000000 0.00000000 / 192 190 191 255 / 2.04670700 1.25370800 / -1.00000000 0.00000000 0.00000000 1.00000000
				-0.04394530 0.04638670 0.21987940 / 0.00000000 1.00000000 0.00000000 / 192 190 191 255 / 2.04670700 1.29791300 / -1.00000000 0.00000000 0.00000000 1.00000000
				-0.04394530 0.04638670 0.21987940 / 0.00000000 1.00000000 0.00000000 / 192 190 191 255 / 2.04670700 1.29791300 / -1.00000000 0.00000000 0.00000000 1.00000000
				-0.04394530 -0.05371090 -0.00131170 / -1.00000000 0.00000000 0.00000000 / 176 176 176 255 / 0.59207150 1.48823600 / 0.00000000 -1.00000000 0.00000000 1.00000000
				-1.25585900 0.04638670 0.21987940 / 0.00000000 1.00000000 0.00000000 / 192 190 191 255 / 3.08798200 1.29791300 / -1.00000000 0.00000000 0.00000000 1.00000000
				-0.04394530 -0.04638670 2.02554400 / 0.00000000 0.00000000 -1.00000000 / 178 178 178 255 / 2.04670700 0.58580010 / -1.00000000 0.00000000 0.00000000 1.00000000
				-0.04394530 -0.04638670 2.02554400 / 0.00000000 0.00000000 -1.00000000 / 178 178 178 255 / 2.04670700 0.58580010 / -1.00000000 0.00000000 0.00000000 1.00000000
				-1.25585900 -0.04638670 2.02554400 / 0.00000000 0.00000000 -1.00000000 / 178 178 178 255 / 3.08798200 0.58580010 / -1.00000000 0.00000000 0.00000000 1.00000000
				-1.25585900 0.04638670 2.02554400 / 0.00000000 0.00000000 -1.00000000 / 178 178 178 255 / 3.08798200 0.50627140 / -1.00000000 0.00000000 0.00000000 1.00000000
				-1.25585900 0.04638670 2.02554400 / 0.00000000 0.00000000 -1.00000000 / 178 178 178 255 / 3.08798200 0.50627140 / -1.00000000 0.00000000 0.00000000 1.00000000
				-0.04394530 0.04638670 2.02554400 / 0.00000000 0.00000000 -1.00000000 / 178 178 178 255 / 2.04670700 0.50627140 / -1.00000000 0.00000000 0.00000000 1.00000000
				-0.04394530 -0.04638670 2.07730100 / 0.00000000 0.00000000 1.00000000 / 196 196 196 255 / -1.04670700 0.58580010 / 1.00000000 0.00000000 0.00000000 1.00000000
				-0.04394530 -0.04638670 2.07730100 / 0.00000000 0.00000000 1.00000000 / 196 196 196 255 / -1.04670700 0.58580010 / 1.00000000 0.00000000 0.00000000 1.00000000
				-0.04394530 0.04638670 2.07730100 / 0.00000000 0.00000000 1.00000000 / 196 196 196 255 / -1.04670700 0.50627140 / 1.00000000 0.00000000 0.00000000 1.00000000
				-1.25585900 0.04638670 2.07730100 / 0.00000000 0.00000000 1.00000000 / 196 196 196 255 / -2.08798200 0.50627140 / 1.00000000 0.00000000 0.00000000 1.00000000
				-1.25585900 0.04638670 2.07730100 / 0.00000000 0.00000000 1.00000000 / 196 196 196 255 / -2.08798200 0.50627140 / 1.00000000 0.00000000 0.00000000 1.00000000
				-1.25585900 -0.04638670 2.07730100 / 0.00000000 0.00000000 1.00000000 / 196 196 196 255 / -2.08798200 0.58580010 / 1.00000000 0.00000000 0.00000000 1.00000000
				-0.04394530 -0.04638670 2.07730100 / 0.00000000 -1.00000000 0.00000000 / 192 190 191 255 / -1.04670700 -0.29791260 / 1.00000000 0.00000000 0.00000000 1.00000000
				-0.04394530 -0.04638670 2.07730100 / 0.00000000 -1.00000000 0.00000000 / 192 190 191 255 / -1.04670700 -0.29791260 / 1.00000000 0.00000000 0.00000000 1.00000000
				0.00000000 0.05371090 2.29849200 / 1.00000000 0.00000000 0.00000000 / 176 176 176 255 / 0.50000000 -0.48823550 / 0.00000000 1.00000000 0.00000000 1.00000000
				0.00000000 0.05371090 2.29849200 / 1.00000000 0.00000000 0.00000000 / 176 176 176 255 / 0.50000000 -0.48823550 / 0.00000000 1.00000000 0.00000000 1.00000000
				-1.25585900 -0.04638670 2.07730100 / 0.00000000 -1.00000000 0.00000000 / 192 190 191 255 / -2.08798200 -0.29791260 / 1.00000000 0.00000000 0.00000000 1.00000000
				-1.25585900 -0.04638670 2.02554400 / 0.00000000 -1.00000000 0.00000000 / 192 190 191 255 / -2.08798200 -0.25370790 / 1.00000000 0.00000000 0.00000000 1.00000000
				-1.25585900 -0.04638670 2.02554400 / 0.00000000 -1.00000000 0.00000000 / 192 190 191 255 / -2.08798200 -0.25370790 / 1.00000000 0.00000000 0.00000000 1.00000000
				-0.04394530 -0.04638670 2.02554400 / 0.00000000 -1.00000000 0.00000000 / 192 190 191 255 / -1.04670700 -0.25370790 / 1.00000000 0.00000000 0.00000000 1.00000000
				-1.25585900 0.04638670 2.07730100 / 0.00000000 1.00000000 0.00000000 / 192 190 191 255 / 3.08798200 -0.29791260 / -1.00000000 0.00000000 0.00000000 1.00000000
				-1.25585900 0.04638670 2.07730100 / 0.00000000 1.00000000 0.00000000 / 192 190 191 255 / 3.08798200 -0.29791260 / -1.00000000 0.00000000 0.00000000 1.00000000
				-0.04394530 0.04638670 2.07730100 / 0.00000000 1.00000000 0.00000000 / 192 190 191 255 / 2.04670700 -0.29791260 / -1.00000000 0.00000000 0.00000000 1.00000000
				-0.04394530 0.04638670 2.02554400 / 0.00000000 1.00000000 0.00000000 / 192 190 191 255 / 2.04670700 -0.25370790 / -1.00000000 0.00000000 0.00000000 1.00000000
				-0.04394530 0.04638670 2.02554400 / 0.00000000 1.00000000 0.00000000 / 192 190 191 255 / 2.04670700 -0.25370790 / -1.00000000 0.00000000 0.00000000 1.00000000
				-1.25585900 0.04638670 2.02554400 / 0.00000000 1.00000000 0.00000000 / 192 190 191 255 / 3.08798200 -0.25370790 / -1.00000000 0.00000000 0.00000000 1.00000000
				-0.04394530 -0.04638670 1.12271100 / 0.00000000 0.00000000 -1.00000000 / 178 178 178 255 / 2.04670700 0.58580010 / -1.00000000 0.00000000 0.00000000 1.00000000
				-0.04394530 -0.04638670 1.12271100 / 0.00000000 0.00000000 -1.00000000 / 178 178 178 255 / 2.04670700 0.58580010 / -1.00000000 0.00000000 0.00000000 1.00000000
				-1.25585900 -0.04638670 1.12271100 / 0.00000000 0.00000000 -1.00000000 / 178 178 178 255 / 3.08798200 0.58580010 / -1.00000000 0.00000000 0.00000000 1.00000000
				-1.25585900 0.04638670 1.12271100 / 0.00000000 0.00000000 -1.00000000 / 178 178 178 255 / 3.08798200 0.50627140 / -1.00000000 0.00000000 0.00000000 1.00000000
				-1.25585900 0.04638670 1.12271100 / 0.00000000 0.00000000 -1.00000000 / 178 178 178 255 / 3.08798200 0.50627140 / -1.00000000 0.00000000 0.00000000 1.00000000
				0.00000000 -0.05371090 2.29849200 / 1.00000000 0.00000000 0.00000000 / 176 176 176 255 / 0.40792850 -0.48823550 / 0.00000000 1.00000000 0.00000000 1.00000000
				-0.04394530 0.04638670 1.12271100 / 0.00000000 0.00000000 -1.00000000 / 178 178 178 255 / 2.04670700 0.50627140 / -1.00000000 0.00000000 0.00000000 1.00000000
				-0.04394530 -0.04638670 1.17446900 / 0.00000000 0.00000000 1.00000000 / 196 196 196 255 / -1.04670700 0.58580010 / 1.00000000 0.00000000 0.00000000 1.00000000
				-0.04394530 -0.04638670 1.17446900 / 0.00000000 0.00000000 1.00000000 / 196 196 196 255 / -1.04670700 0.58580010 / 1.00000000 0.00000000 0.00000000 1.00000000
				-0.04394530 0.04638670 1.17446900 / 0.00000000 0.00000000 1.00000000 / 196 196 196 255 / -1.04670700 0.50627140 / 1.00000000 0.00000000 0.00000000 1.00000000
				-1.25585900 0.04638670 1.17446900 / 0.00000000 0.00000000 1.00000000 / 196 196 196 255 / -2.08798200 0.50627140 / 1.00000000 0.00000000 0.00000000 1.00000000
				-1.25585900 0.04638670 1.17446900 / 0.00000000 0.00000000 1.00000000 / 196 196 196 255 / -2.08798200 0.50627140 / 1.00000000 0.00000000 0.00000000 1.00000000
				-1.25585900 -0.04638670 1.17446900 / 0.00000000 0.00000000 1.00000000 / 196 196 196 255 / -2.08798200 0.58580010 / 1.00000000 0.00000000 0.00000000 1.00000000
				-0.04394530 -0.04638670 1.17446900 / 0.00000000 -1.00000000 0.00000000 / 192 190 191 255 / -1.04670700 0.47790530 / 1.00000000 0.00000000 0.00000000 1.00000000
				-0.04394530 -0.04638670 1.17446900 / 0.00000000 -1.00000000 0.00000000 / 192 190 191 255 / -1.04670700 0.47790530 / 1.00000000 0.00000000 0.00000000 1.00000000
				-1.25585900 -0.04638670 1.17446900 / 0.00000000 -1.00000000 0.00000000 / 192 190 191 255 / -2.08798200 0.47790530 / 1.00000000 0.00000000 0.00000000 1.00000000
				-1.25585900 -0.04638670 1.12271100 / 0.00000000 -1.00000000 0.00000000 / 192 190 191 255 / -2.08798200 0.52209470 / 1.00000000 0.00000000 0.00000000 1.00000000
				-1.25585900 -0.04638670 1.12271100 / 0.00000000 -1.00000000 0.00000000 / 192 190 191 255 / -2.08798200 0.52209470 / 1.00000000 0.00000000 0.00000000 1.00000000
				-0.04394530 -0.04638670 1.12271100 / 0.00000000 -1.00000000 0.00000000 / 192 190 191 255 / -1.04670700 0.52209470 / 1.00000000 0.00000000 0.00000000 1.00000000
				-1.25585900 0.04638670 1.17446900 / 0.00000000 1.00000000 0.00000000 / 192 190 191 255 / 3.08798200 0.47790530 / -1.00000000 0.00000000 0.00000000 1.00000000
				-1.25585900 0.04638670 1.17446900 / 0.00000000 1.00000000 0.00000000 / 192 190 191 255 / 3.08798200 0.47790530 / -1.00000000 0.00000000 0.00000000 1.00000000
				0.00000000 -0.05371090 -0.00131170 / 1.00000000 0.00000000 0.00000000 / 176 176 176 255 / 0.40792850 1.48823600 / 0.00000000 1.00000000 0.00000000 1.00000000
				0.00000000 -0.05371090 -0.00131170 / 1.00000000 0.00000000 0.00000000 / 176 176 176 255 / 0.40792850 1.48823600 / 0.00000000 1.00000000 0.00000000 1.00000000
				-0.04394530 0.04638670 1.17446900 / 0.00000000 1.00000000 0.00000000 / 192 190 191 255 / 2.04670700 0.47790530 / -1.00000000 0.00000000 0.00000000 1.00000000
				-0.04394530 0.04638670 1.12271100 / 0.00000000 1.00000000 0.00000000 / 192 190 191 255 / 2.04670700 0.52209470 / -1.00000000 0.00000000 0.00000000 1.00000000
				-0.04394530 0.04638670 1.12271100 / 0.00000000 1.00000000 0.00000000 / 192 190 191 255 / 2.04670700 0.52209470 / -1.00000000 0.00000000 0.00000000 1.00000000
				-1.25585900 0.04638670 1.12271100 / 0.00000000 1.00000000 0.00000000 / 192 190 191 255 / 3.08798200 0.52209470 / -1.00000000 0.00000000 0.00000000 1.00000000
				-0.95800780 -0.04345700 1.00650100 / 0.00000000 0.00000000 -1.00000000 / 178 178 178 255 / 2.83197000 0.58348090 / -1.00000000 0.00000000 0.00000000 1.00000000
				-0.95800780 -0.04345700 1.00650100 / 0.00000000 0.00000000 -1.00000000 / 178 178 178 255 / 2.83197000 0.58348090 / -1.00000000 0.00000000 0.00000000 1.00000000
				-1.25585900 -0.04345700 1.00650100 / 0.00000000 0.00000000 -1.00000000 / 178 178 178 255 / 3.08798200 0.58348090 / -1.00000000 0.00000000 0.00000000 1.00000000
				-1.25585900 0.04345700 1.00650100 / 0.00000000 0.00000000 -1.00000000 / 178 178 178 255 / 3.08798200 0.50859070 / -1.00000000 0.00000000 0.00000000 1.00000000
				-1.25585900 0.04345700 1.00650100 / 0.00000000 0.00000000 -1.00000000 / 178 178 178 255 / 3.08798200 0.50859070 / -1.00000000 0.00000000 0.00000000 1.00000000
				-0.95800780 0.04345700 1.00650100 / 0.00000000 0.00000000 -1.00000000 / 178 178 178 255 / 2.83197000 0.50859070 / -1.00000000 0.00000000 0.00000000 1.00000000
				-0.95800780 -0.04345700 1.29068000 / 0.00000000 0.00000000 1.00000000 / 196 196 196 255 / -1.83197000 0.58348090 / 1.00000000 0.00000000 0.00000000 1.00000000
				-0.95800780 -0.04345700 1.29068000 / 0.00000000 0.00000000 1.00000000 / 196 196 196 255 / -1.83197000 0.58348090 / 1.00000000 0.00000000 0.00000000 1.00000000
				-0.95800780 0.04345700 1.29068000 / 0.00000000 0.00000000 1.00000000 / 196 196 196 255 / -1.83197000 0.50859070 / 1.00000000 0.00000000 0.00000000 1.00000000
				-1.25585900 0.04345700 1.29068000 / 0.00000000 0.00000000 1.00000000 / 196 196 196 255 / -2.08798200 0.50859070 / 1.00000000 0.00000000 0.00000000 1.00000000
				-1.25585900 0.04345700 1.29068000 / 0.00000000 0.00000000 1.00000000 / 196 196 196 255 / -2.08798200 0.50859070 / 1.00000000 0.00000000 0.00000000 1.00000000
				0.00000000 0.05371090 -0.00131170 / 1.00000000 0.00000000 0.00000000 / 176 176 176 255 / 0.50000000 1.48823600 / 0.00000000 1.00000000 0.00000000 1.00000000
				-1.25585900 -0.04345700 1.29068000 / 0.00000000 0.00000000 1.00000000 / 196 196 196 255 / -2.08798200 0.58348090 / 1.00000000 0.00000000 0.00000000 1.00000000
				-0.94775390 -0.04345700 1.01626600 / 1.00000000 0.00000000 0.00000000 / 188 188 188 255 / 0.41651920 0.61355590 / 0.00000000 1.00000000 0.00000000 1.00000000
				-0.94775390 -0.04345700 1.01626600 / 1.00000000 0.00000000 0.00000000 / 188 188 188 255 / 0.41651920 0.61355590 / 0.00000000 1.00000000 0.00000000 1.00000000
				-0.94775390 0.04345700 1.01626600 / 1.00000000 0.00000000 0.00000000 / 188 188 188 255 / 0.49140930 0.61355590 / 0.00000000 1.00000000 0.00000000 1.00000000
				-0.94775390 0.04345700 1.28091500 / 1.00000000 0.00000000 0.00000000 / 188 188 188 255 / 0.49140930 0.38644410 / 0.00000000 1.00000000 0.00000000 1.00000000
				-0.94775390 0.04345700 1.28091500 / 1.00000000 0.00000000 0.00000000 / 188 188 188 255 / 0.49140930 0.38644410 / 0.00000000 1.00000000 0.00000000 1.00000000
				-0.94775390 -0.04345700 1.28091500 / 1.00000000 0.00000000 0.00000000 / 188 188 188 255 / 0.41651920 0.38644410 / 0.00000000 1.00000000 0.00000000 1.00000000
				-0.94775390 -0.04345700 1.01626600 / 0.70710750 0.00000000 -0.70710600 / 181 181 181 255 / 0.41651920 0.61355590 / 0.00000000 1.00000000 0.00000000 1.00000000
				-0.94775390 -0.04345700 1.01626600 / 0.70710750 0.00000000 -0.70710600 / 181 181 181 255 / 0.41651920 0.61355590 / 0.00000000 1.00000000 0.00000000 1.00000000
				-0.95800780 -0.04345700 1.00650100 / 0.70710750 0.00000000 -0.70710600 / 181 181 181 255 / 0.41651920 0.62214660 / 0.00000000 1.00000000 0.00000000 1.00000000
				-0.95800780 0.04345700 1.00650100 / 0.70710750 0.00000000 -0.70710600 / 181 181 181 255 / 0.49140930 0.62214660 / 0.00000000 1.00000000 0.00000000 1.00000000
				-0.95800780 0.04345700 1.00650100 / 0.70710750 0.00000000 -0.70710600 / 181 181 181 255 / 0.49140930 0.62214660 / 0.00000000 1.00000000 0.00000000 1.00000000
				-0.94775390 0.04345700 1.01626600 / 0.70710750 0.00000000 -0.70710600 / 181 181 181 255 / 0.49140930 0.61355590 / 0.00000000 1.00000000 0.00000000 1.00000000
				-0.94775390 0.04345700 1.28091500 / 0.70710750 0.00000000 0.70710600 / 191 191 191 255 / 0.49140930 0.38644410 / 0.00000000 1.00000000 0.00000000 1.00000000
				-0.94775390 0.04345700 1.28091500 / 0.70710750 0.00000000 0.70710600 / 191 191 191 255 / 0.49140930 0.38644410 / 0.00000000 1.00000000 0.00000000 1.00000000
				-1.29980500 -0.05371090 2.29849200 / -1.00000000 0.00000000 0.00000000 / 176 176 176 255 / 0.59207150 -0.48823550 / 0.00000000 -1.00000000 0.00000000 1.00000000
				-1.29980500 -0.05371090 2.29849200 / -1.00000000 0.00000000 0.00000000 / 176 176 176 255 / 0.59207150 -0.48823550 / 0.00000000 -1.00000000 0.00000000 1.00000000
				-0.95800780 0.04345700 1.29068000 / 0.70710750 0.00000000 0.70710600 / 191 191 191 255 / 0.49140930 0.37785340 / 0.00000000 1.00000000 0.00000000 1.00000000
				-0.95800780 -0.04345700 1.29068000 / 0.70710750 0.00000000 0.70710600 / 191 191 191 255 / 0.41651920 0.37785340 / 0.00000000 1.00000000 0.00000000 1.00000000
				-0.95800780 -0.04345700 1.29068000 / 0.70710750 0.00000000 0.70710600 / 191 191 191 255 / 0.41651920 0.37785340 / 0.00000000 1.00000000 0.00000000 1.00000000
				-0.94775390 -0.04345700 1.28091500 / 0.70710750 0.00000000 0.70710600 / 191 191 191 255 / 0.41651920 0.38644410 / 0.00000000 1.00000000 0.00000000 1.00000000
				-1.25585900 -0.05371090 1.01626600 / 0.00000000 -0.70710720 -0.70710640 / 192 190 191 255 / 3.08798200 0.59207150 / -1.00000000 0.00000000 0.00000000 1.00000000
				-1.25585900 -0.05371090 1.01626600 / 0.00000000 -0.70710720 -0.70710640 / 192 190 191 255 / 3.08798200 0.59207150 / -1.00000000 0.00000000 0.00000000 1.00000000
				-1.25585900 -0.04345700 1.00650100 / 0.00000000 -0.70710720 -0.70710640 / 192 190 191 255 / 3.08798200 0.58348090 / -1.00000000 0.00000000 0.00000000 1.00000000
				-0.95800780 -0.04345700 1.00650100 / 0.00000000 -0.70710720 -0.70710640 / 192 190 191 255 / 2.83197000 0.58348090 / -1.00000000 0.00000000 0.00000000 1.00000000
				-0.95800780 -0.04345700 1.00650100 / 0.00000000 -0.70710720 -0.70710640 / 192 190 191 255 / 2.83197000 0.58348090 / -1.00000000 0.00000000 0.00000000 1.00000000
				-0.96191410 -0.05371090 1.01626600 / 0.00000000 -0.70710720 -0.70710640 / 192 190 191 255 / 2.83552600 0.59207150 / -1.00000000 0.00000000 0.00000000 1.00000000
				-0.96191410 -0.05371090 1.28091500 / 0.00000000 -0.70710720 0.70710640 / 192 190 191 255 / -1.83552600 0.59207150 / 1.00000000 0.00000000 0.00000000 1.00000000
				-0.96191410 -0.05371090 1.28091500 / 0.00000000 -0.70710720 0.70710640 / 192 190 191 255 / -1.83552600 0.59207150 / 1.00000000 0.00000000 0.00000000 1.00000000
				-0.95800780 -0.04345700 1.29068000 / 0.00000000 -0.70710720 0.70710640 / 192 190 191 255 / -1.83197000 0.58348090 / 1.00000000 0.00000000 0.00000000 1.00000000
				-1.25585900 -0.04345700 1.29068000 / 0.00000000 -0.70710720 0.70710640 / 192 190 191 255 / -2.08798200 0.58348090 / 1.00000000 0.00000000 0.00000000 1.00000000
				-1.25585900 -0.04345700 1.29068000 / 0.00000000 -0.70710720 0.70710640 / 192 190 191 255 / -2.08798200 0.58348090 / 1.00000000 0.00000000 0.00000000 1.00000000
			}
		}
	}
}
