Version 165 32
{
	Locked False
	Skinned False
	BoneCount 0
	Mask 255
	Bounds
	{
		Aabb
		{
			Min -29.95992000 -2.08332000 -17.58173000
			Max -27.88156000 0.00779010 -17.07537000
		}
		Aabb
		{
			Min -29.95992000 -2.08332000 -17.58173000
			Max -27.88156000 0.00779010 -17.09051000
		}
		Aabb
		{
			Min -29.65826000 -1.88553700 -17.34784000
			Max -28.61924000 -0.20497390 -17.07537000
		}
		Aabb
		{
			Min -29.93247000 -2.06840000 -17.11151000
			Max -27.90903000 -0.00713520 -17.09100000
		}
	}
	Geometries
	{
		Geometry
		{
			ShaderIndex 4
			Flags -
			VertexDeclaration N209731BE
			Indices 420
			{
				0 395 342 343 12 67 256 372 394 396 418 267 26 330 226
				227 378 27 66 92 116 117 142 68 164 192 247 260 408 165
				213 239 263 264 287 214 16 274 312 313 338 28 340 344 348
				349 350 341 351 353 357 222 365 352 376 398 409 1 23 387
				45 89 100 112 134 56 145 178 189 200 223 167 234 289 300
				311 322 245 358 360 362 363 364 359 366 368 370 371 374 367
				375 379 380 381 383 377 384 388 389 390 391 386 392 399 401
				402 403 393 404 406 407 411 412 405 413 415 416 417 5 414
				6 8 9 10 11 7 13 17 19 20 21 14 22 29 30
				32 33 24 35 37 38 39 41 36 42 47 50 51 54 43
				77 97 121 122 144 79 166 191 44 181 211 169 127 248 270
				271 308 141 52 286 309 310 335 76 354 123 334 356 400 355
				419 25 48 49 53 2 55 58 60 61 62 57 63 69 70
				71 73 65 74 80 81 82 83 75 84 87 90 91 93 86
				94 96 99 102 103 95 104 106 107 108 109 105 110 118 119
				120 124 115 125 129 130 131 132 128 133 136 137 140 143 135
				146 148 149 150 152 147 153 157 158 159 160 155 161 170 171
				172 173 162 174 177 179 180 183 176 184 186 188 190 193 185
				194 197 198 201 202 196 203 205 206 207 209 204 219 275 15
				278 64 233 199 305 318 331 347 292 333 345 369 382 4 78
				18 46 59 72 85 31 98 154 168 182 195 113 208 215 216
				217 218 210 220 224 228 229 230 221 231 235 236 238 240 232
				241 243 244 246 250 242 251 253 254 255 257 252 258 265 266
				268 269 259 272 276 277 279 280 273 281 283 284 285 138 282
				261 320 332 346 111 296 34 361 373 385 397 156 410 40 88
				101 114 3 126 151 163 175 187 139 212 237 249 262 288 225
				290 293 294 295 297 291 298 301 302 303 304 299 306 314 315
				316 317 307 319 323 324 325 326 321 327 329 336 337 339 328
			}
			Vertices 420
			{
				-29.21853000 -2.08330700 -17.38641000 / 0.00000000 0.00000000 -1.00000000 / 17 26 18 255 / 0.93492130 0.98701480
				-28.49826000 -0.22177000 -17.09051000 / 0.00000000 0.00000000 1.00000000 / 93 137 92 255 / 0.97325130 0.94522090
				-29.19108000 -2.06840000 -17.09051000 / 0.00000000 0.00000000 1.00000000 / 93 137 92 255 / 1.01770000 0.14721680
				-29.87685000 -0.97061350 -17.10077000 / 0.00000000 -1.00000000 0.00000000 / 61 88 58 255 / 0.96342470 0.91740420
				-28.47983000 -0.15951930 -17.58172000 / 1.00000000 0.00000000 0.00000000 / 70 101 67 255 / 0.96659850 0.91740420
				-29.40630000 -1.83690000 -17.10077000 / -1.00000000 0.00000000 0.00000000 / 69 100 67 255 / 0.20460510 0.99656680
				-29.85842000 -0.90835890 -17.58172000 / 0.00000000 0.00000000 -1.00000000 / 18 26 18 255 / 0.95362860 0.90798950
				-29.85842000 -0.90835890 -17.58172000 / 0.00000000 0.00000000 -1.00000000 / 18 26 18 255 / 0.95362860 0.90798950
				-29.83651000 -0.94869330 -17.58173000 / 0.00000000 0.00000000 -1.00000000 / 17 26 18 255 / 0.95362860 0.94522090
				-29.87685000 -0.97060050 -17.58173000 / 0.00000000 0.00000000 -1.00000000 / 18 26 18 255 / 0.97325130 0.94522090
				-29.87685000 -0.97060050 -17.58173000 / 0.00000000 0.00000000 -1.00000000 / 18 26 18 255 / 0.97325130 0.94522090
				-29.89876000 -0.93026820 -17.58173000 / 0.00000000 0.00000000 -1.00000000 / 18 27 19 255 / 0.97325130 0.90798950
				-27.88156000 -1.35707100 -17.38641000 / 0.00000000 0.00000000 -1.00000000 / 17 26 18 255 / 0.93492130 0.87489320
				-29.85843000 -0.90837020 -17.09051000 / 0.00000000 0.00000000 1.00000000 / 93 137 93 255 / 0.95362860 0.90798950
				-29.85843000 -0.90837020 -17.09051000 / 0.00000000 0.00000000 1.00000000 / 93 137 93 255 / 0.95362860 0.90798950
				-28.49826000 -0.22175820 -17.58172000 / 0.00000000 -1.00000000 0.00000000 / 43 63 42 255 / 0.96659850 0.93174750
				-27.98736000 -1.06613900 -17.57147000 / 0.00000000 1.00000000 0.00000000 / 57 84 55 255 / 0.56613160 0.99656680
				-29.89876000 -0.93028100 -17.09051000 / 0.00000000 0.00000000 1.00000000 / 93 137 93 255 / 0.95362860 0.94522090
				-28.47983000 -0.15952750 -17.10076000 / 0.00000000 1.00000000 0.00000000 / 67 97 64 255 / 0.96342470 0.91740420
				-29.87685000 -0.97061350 -17.09051000 / 0.00000000 0.00000000 1.00000000 / 93 137 93 255 / 0.97325130 0.94522090
				-29.87685000 -0.97061350 -17.09051000 / 0.00000000 0.00000000 1.00000000 / 93 137 93 255 / 0.97325130 0.94522090
				-29.83652000 -0.94870710 -17.09051000 / 0.00000000 0.00000000 1.00000000 / 93 137 93 255 / 0.97325130 0.90798950
				-29.87685000 -0.97060140 -17.57147000 / 0.00000000 -1.00000000 0.00000000 / 51 75 49 255 / 0.56613160 0.99656680
				-28.45793000 -0.19986120 -17.09051000 / 0.00000000 0.00000000 1.00000000 / 93 136 91 255 / 0.97325130 0.90798950
				-29.87685000 -0.97060140 -17.57147000 / 0.00000000 -1.00000000 0.00000000 / 51 75 49 255 / 0.56613160 0.99656680
				-29.93246000 -0.70353900 -17.09051000 / 0.00000000 0.00000000 1.00000000 / 93 137 93 255 / 0.19226070 0.14721680
				-27.98736000 -1.06613900 -17.58172000 / 0.00000000 0.00000000 -1.00000000 / 17 26 18 255 / 0.95362860 0.90798950
				-27.98736000 -1.06613900 -17.58172000 / 0.00000000 0.00000000 -1.00000000 / 17 26 18 255 / 0.95362860 0.90798950
				-27.98736000 -1.06613900 -17.57147000 / 0.00000000 1.00000000 0.00000000 / 57 84 55 255 / 0.56613160 0.99656680
				-29.83651000 -0.94869330 -17.57147000 / 0.00000000 -1.00000000 0.00000000 / 47 69 46 255 / 0.56613160 0.86524950
				-29.83653000 -0.94870540 -17.10077000 / 0.00000000 -1.00000000 0.00000000 / 58 84 56 255 / 0.20460510 0.86524950
				-28.47983000 -0.15952750 -17.10076000 / 0.00000000 1.00000000 0.00000000 / 67 97 64 255 / 0.96342470 0.91740420
				-29.83653000 -0.94870540 -17.10077000 / 0.00000000 -1.00000000 0.00000000 / 58 84 56 255 / 0.20460510 0.86524950
				-29.87685000 -0.97061350 -17.10077000 / 0.00000000 -1.00000000 0.00000000 / 61 88 58 255 / 0.20460510 0.99656680
				-29.38438000 -1.87722000 -17.57147000 / -1.00000000 0.00000000 0.00000000 / 68 99 66 255 / 0.96342470 0.91740420
				-29.83651000 -0.94869330 -17.57147000 / 1.00000000 0.00000000 0.00000000 / 35 50 33 255 / 0.56613160 0.99656680
				-29.83651000 -0.94869330 -17.57147000 / 1.00000000 0.00000000 0.00000000 / 35 50 33 255 / 0.56613160 0.99656680
				-29.85842000 -0.90836090 -17.57147000 / 1.00000000 0.00000000 0.00000000 / 34 50 33 255 / 0.56613160 0.86524950
				-29.85843000 -0.90837010 -17.10077000 / 1.00000000 0.00000000 0.00000000 / 26 37 24 255 / 0.20460510 0.86524950
				-29.85843000 -0.90837010 -17.10077000 / 1.00000000 0.00000000 0.00000000 / 26 37 24 255 / 0.20460510 0.86524950
				-29.83653000 -0.94870540 -17.10077000 / 0.00000000 -1.00000000 0.00000000 / 58 84 56 255 / 0.96342470 0.93174750
				-29.83653000 -0.94870540 -17.10077000 / 1.00000000 0.00000000 0.00000000 / 65 95 63 255 / 0.20460510 0.99656680
				-29.85842000 -0.90836090 -17.57147000 / 0.00000000 1.00000000 0.00000000 / 61 89 59 255 / 0.56613160 0.99656680
				-29.85842000 -0.90836090 -17.57147000 / 0.00000000 1.00000000 0.00000000 / 61 89 59 255 / 0.56613160 0.99656680
				-29.95992000 -0.71844340 -17.38641000 / 0.00000000 1.00000000 0.00000000 / 68 99 66 255 / 1.37333700 0.55123900
				-28.49826000 -0.22175820 -17.57147000 / 0.00000000 -1.00000000 0.00000000 / 56 82 55 255 / 0.56613160 0.99656680
				-28.52017000 -0.18143490 -17.10076000 / 0.00000000 1.00000000 0.00000000 / 64 93 61 255 / 0.96342470 0.93174750
				-29.89876000 -0.93026820 -17.57147000 / 0.00000000 1.00000000 0.00000000 / 63 92 61 255 / 0.56613160 0.86524950
				-29.95992000 -0.71845070 -17.09051000 / 0.00000000 0.00000000 1.00000000 / 93 137 92 255 / 0.19226070 0.21450810
				-29.95992000 -0.71845070 -17.09051000 / 0.00000000 0.00000000 1.00000000 / 93 137 92 255 / 0.19226070 0.21450810
				-29.89876000 -0.93027840 -17.10077000 / 0.00000000 1.00000000 0.00000000 / 60 88 58 255 / 0.20460510 0.86524950
				-29.89876000 -0.93027840 -17.10077000 / 0.00000000 1.00000000 0.00000000 / 60 88 58 255 / 0.20460510 0.86524950
				-29.95992000 -0.71844340 -17.38641000 / -1.00000000 0.00000000 0.00000000 / 65 94 62 255 / 0.00416560 0.82585140
				-29.21855000 -2.08332000 -17.09051000 / 0.00000000 0.00000000 1.00000000 / 93 137 92 255 / 1.01770000 0.21450810
				-29.85843000 -0.90837010 -17.10077000 / 0.00000000 1.00000000 0.00000000 / 59 86 57 255 / 0.20460510 0.99656680
				-29.19107000 -2.06839100 -17.35223000 / 0.00000000 -1.00000000 0.00000000 / 68 99 66 255 / -0.18438720 0.08029171
				-28.49826000 -0.22175820 -17.57147000 / 0.00000000 -1.00000000 0.00000000 / 56 82 55 255 / 0.56613160 0.99656680
				-29.19107000 -2.06839100 -17.35223000 / 0.00000000 -1.00000000 0.00000000 / 68 99 66 255 / -0.18438720 0.08029171
				-29.19108000 -2.06840000 -17.09051000 / 0.00000000 -1.00000000 0.00000000 / 70 101 67 255 / -0.18438720 0.41757200
				-28.52017000 -0.18143490 -17.09051000 / 0.00000000 1.00000000 0.00000000 / 64 92 61 255 / 0.96659850 0.93174750
				-29.21855000 -2.08332000 -17.09051000 / 0.00000000 -1.00000000 0.00000000 / 68 100 66 255 / -0.15544130 0.41757200
				-29.21855000 -2.08332000 -17.09051000 / 0.00000000 -1.00000000 0.00000000 / 68 100 66 255 / -0.15544130 0.41757200
				-29.21853000 -2.08330700 -17.38641000 / 0.00000000 -1.00000000 0.00000000 / 67 98 65 255 / -0.15544130 0.03636170
				-27.90903000 -1.37199700 -17.09051000 / 0.00000000 -1.00000000 0.00000000 / 67 98 65 255 / 1.37738000 0.41757200
				-28.45793000 -0.19985350 -17.58172000 / 0.00000000 -1.00000000 0.00000000 / 34 49 33 255 / 0.96659850 0.91740420
				-27.90903000 -1.37199700 -17.09051000 / 0.00000000 -1.00000000 0.00000000 / 67 98 65 255 / 1.37738000 0.41757200
				-27.98737000 -1.06615200 -17.09051000 / 0.00000000 0.00000000 1.00000000 / 93 137 92 255 / 0.95362860 0.90798950
				-29.21853000 -2.08330700 -17.38641000 / 0.00000000 0.00000000 -1.00000000 / 17 26 18 255 / 0.93492130 0.98701480
				-27.98737000 -1.06615200 -17.09051000 / 0.00000000 0.00000000 1.00000000 / 93 137 92 255 / 0.95362860 0.90798950
				-27.90902000 -1.37198800 -17.35223000 / 0.00000000 -1.00000000 0.00000000 / 67 97 65 255 / 1.37738000 0.10031130
				-27.88156000 -1.35707100 -17.38641000 / 0.00000000 -1.00000000 0.00000000 / 67 98 65 255 / 1.34843400 0.05899050
				-27.88156000 -1.35707100 -17.38641000 / 0.00000000 -1.00000000 0.00000000 / 67 98 65 255 / 1.34843400 0.05899050
				-28.52017000 -0.18143490 -17.09051000 / 0.00000000 1.00000000 0.00000000 / 64 92 61 255 / 0.96659850 0.93174750
				-27.88157000 -1.35708200 -17.09051000 / 0.00000000 -1.00000000 0.00000000 / 68 99 66 255 / 1.34843400 0.41757200
				-28.65041000 -0.00712760 -17.35223000 / 0.00000000 1.00000000 0.00000000 / 69 101 67 255 / -0.18644710 0.07716370
				-28.65041000 -0.00712760 -17.35223000 / 0.00000000 1.00000000 0.00000000 / 69 101 67 255 / -0.18644710 0.07716370
				-29.95992000 -0.71844340 -17.38641000 / -1.00000000 0.00000000 0.00000000 / 65 94 62 255 / 0.00416560 0.82585140
				-29.89876000 -0.93026820 -17.57147000 / -1.00000000 0.00000000 0.00000000 / 68 99 66 255 / 0.56613160 0.99656680
				-28.47983000 -0.15951930 -17.57146000 / 1.00000000 0.00000000 0.00000000 / 68 100 66 255 / 0.96342470 0.91740420
				-29.89876000 -0.93026820 -17.57147000 / -1.00000000 0.00000000 0.00000000 / 68 99 66 255 / 0.56613160 0.99656680
				-28.65042000 -0.00713610 -17.09051000 / 0.00000000 1.00000000 0.00000000 / 70 102 68 255 / -0.18644710 0.41444400
				-28.62294000 0.00778470 -17.09051000 / 0.00000000 1.00000000 0.00000000 / 71 103 68 255 / -0.15751650 0.41444400
				-28.62294000 0.00778470 -17.09051000 / 0.00000000 1.00000000 0.00000000 / 71 103 68 255 / -0.15751650 0.41444400
				-28.62295000 0.00779010 -17.38641000 / 0.00000000 1.00000000 0.00000000 / 69 100 67 255 / -0.15751650 0.03324890
				-29.93246000 -0.70353900 -17.09051000 / 0.00000000 1.00000000 0.00000000 / 68 99 66 255 / 1.37530500 0.41462710
				-28.47983000 -0.15952760 -17.09051000 / 0.00000000 1.00000000 0.00000000 / 65 94 63 255 / 0.96659850 0.91740420
				-29.93246000 -0.70353900 -17.09051000 / 0.00000000 1.00000000 0.00000000 / 68 99 66 255 / 1.37530500 0.41462710
				-29.93246000 -0.70353000 -17.35223000 / 0.00000000 1.00000000 0.00000000 / 69 100 67 255 / 1.37530500 0.09736630
				-29.83652000 -0.94870710 -17.09051000 / 0.00000000 -1.00000000 0.00000000 / 63 92 61 255 / 0.96659850 0.93174750
				-28.45793000 -0.19985360 -17.57147000 / 0.00000000 -1.00000000 0.00000000 / 46 68 45 255 / 0.56613160 0.86524950
				-29.95992000 -0.71844340 -17.38641000 / 0.00000000 1.00000000 0.00000000 / 68 99 66 255 / 1.34635900 0.05606080
				-29.95992000 -0.71844340 -17.38641000 / 0.00000000 1.00000000 0.00000000 / 68 99 66 255 / 1.34635900 0.05606080
				-28.02770000 -1.08805800 -17.09051000 / 0.00000000 0.00000000 1.00000000 / 93 137 91 255 / 0.95362860 0.94522090
				-29.95992000 -0.71845070 -17.09051000 / 0.00000000 1.00000000 0.00000000 / 67 98 65 255 / 1.34635900 0.41462710
				-28.65041000 -0.00712760 -17.35223000 / 0.00000000 0.00000000 1.00000000 / 85 124 82 255 / 0.93371580 0.87359620
				-28.65041000 -0.00712760 -17.35223000 / 0.00000000 0.00000000 1.00000000 / 85 124 82 255 / 0.93371580 0.87359620
				-29.93246000 -0.70353000 -17.35223000 / 0.00000000 0.00000000 1.00000000 / 84 122 81 255 / 0.93371580 0.98622130
				-29.87685000 -0.97060140 -17.57147000 / -1.00000000 0.00000000 0.00000000 / 66 96 64 255 / 0.56613160 0.86524950
				-28.52017000 -0.18142740 -17.57146000 / 0.00000000 1.00000000 0.00000000 / 56 82 54 255 / 0.96342470 0.91740420
				-29.19107000 -2.06839100 -17.35223000 / 0.00000000 0.00000000 1.00000000 / 85 124 82 255 / 0.99186700 0.98622130
				-28.45793000 -0.19986100 -17.10076000 / 0.00000000 -1.00000000 0.00000000 / 62 90 60 255 / 0.20460510 0.86524950
				-29.83652000 -0.94870710 -17.09051000 / 0.00000000 -1.00000000 0.00000000 / 63 92 61 255 / 0.96659850 0.93174750
				-29.19107000 -2.06839100 -17.35223000 / 0.00000000 0.00000000 1.00000000 / 85 124 82 255 / 0.99186700 0.98622130
				-27.90902000 -1.37198800 -17.35223000 / 0.00000000 0.00000000 1.00000000 / 86 126 84 255 / 0.99186700 0.87359620
				-29.93246000 -0.70353000 -17.35223000 / 1.00000000 0.00000000 0.00000000 / 78 114 75 255 / 1.51277200 0.73518370
				-29.93246000 -0.70353000 -17.35223000 / 1.00000000 0.00000000 0.00000000 / 78 114 75 255 / 1.51277200 0.73518370
				-29.93246000 -0.70353900 -17.09051000 / 1.00000000 0.00000000 0.00000000 / 79 116 77 255 / 1.51277200 0.00383000
				-29.19108000 -2.06840000 -17.09051000 / 1.00000000 0.00000000 0.00000000 / 78 114 75 255 / 0.00502010 0.00383000
				-29.19108000 -2.06840000 -17.09051000 / 1.00000000 0.00000000 0.00000000 / 78 114 75 255 / 0.00502010 0.00383000
				-29.19107000 -2.06839100 -17.35223000 / 1.00000000 0.00000000 0.00000000 / 77 112 74 255 / 0.00502010 0.73518370
				-28.65042000 -0.00713610 -17.09051000 / -1.00000000 0.00000000 0.00000000 / 75 109 72 255 / 0.00428770 0.00070190
				-29.40630000 -1.83690000 -17.09052000 / -1.00000000 0.00000000 0.00000000 / 70 102 68 255 / 0.96659850 0.91740420
				-28.45793000 -0.19986100 -17.10076000 / 0.00000000 -1.00000000 0.00000000 / 62 90 60 255 / 0.20460510 0.86524950
				-28.52017000 -0.18142740 -17.57146000 / 0.00000000 1.00000000 0.00000000 / 56 82 54 255 / 0.96342470 0.91740420
				-29.87685000 -0.97061350 -17.09051000 / 0.00000000 -1.00000000 0.00000000 / 65 94 62 255 / 0.96659850 0.91740420
				-28.65042000 -0.00713610 -17.09051000 / -1.00000000 0.00000000 0.00000000 / 75 109 72 255 / 0.00428770 0.00070190
				-28.00579000 -1.12839000 -17.09051000 / 0.00000000 0.00000000 1.00000000 / 93 137 92 255 / 0.97325130 0.94522090
				-28.00579000 -1.12839000 -17.09051000 / 0.00000000 0.00000000 1.00000000 / 93 137 92 255 / 0.97325130 0.94522090
				-28.65041000 -0.00712760 -17.35223000 / -1.00000000 0.00000000 0.00000000 / 73 106 70 255 / 0.00428770 0.73205570
				-27.90902000 -1.37198800 -17.35223000 / -1.00000000 0.00000000 0.00000000 / 75 109 72 255 / 1.51203900 0.73205570
				-27.90902000 -1.37198800 -17.35223000 / -1.00000000 0.00000000 0.00000000 / 75 109 72 255 / 1.51203900 0.73205570
				-29.87685000 -0.97061350 -17.10077000 / -1.00000000 0.00000000 0.00000000 / 68 100 66 255 / 0.20460510 0.86524950
				-29.87685000 -0.97061350 -17.10077000 / -1.00000000 0.00000000 0.00000000 / 68 100 66 255 / 0.20460510 0.86524950
				-27.90903000 -1.37199700 -17.09051000 / 0.00000000 0.00000000 1.00000000 / 93 137 93 255 / 1.00650000 0.20742800
				-27.90903000 -1.37199700 -17.09051000 / -1.00000000 0.00000000 0.00000000 / 77 112 75 255 / 1.51203900 0.00070190
				-28.00579000 -1.12839000 -17.10076000 / 0.00000000 -1.00000000 0.00000000 / 60 88 58 255 / 0.96342470 0.91740420
				-29.83651000 -0.94869330 -17.57147000 / 0.00000000 -1.00000000 0.00000000 / 47 69 46 255 / 0.96342470 0.91740420
				-29.19107000 -2.06839100 -17.35223000 / 0.00000000 -1.00000000 0.00000000 / 68 99 66 255 / -0.15037540 0.47427370
				-28.00579000 -1.12839000 -17.10076000 / 0.00000000 -1.00000000 0.00000000 / 60 88 58 255 / 0.96342470 0.91740420
				-27.96546000 -1.10648100 -17.10076000 / 0.00000000 -1.00000000 0.00000000 / 58 85 56 255 / 0.96342470 0.93174750
				-27.96546000 -1.10648200 -17.09051000 / 0.00000000 -1.00000000 0.00000000 / 63 92 61 255 / 0.96659850 0.93174750
				-27.96546000 -1.10648200 -17.09051000 / 0.00000000 -1.00000000 0.00000000 / 63 92 61 255 / 0.96659850 0.93174750
				-28.00579000 -1.12839000 -17.09051000 / 0.00000000 -1.00000000 0.00000000 / 61 89 59 255 / 0.96659850 0.91740420
				-27.96545000 -1.10646900 -17.57146000 / 0.00000000 -1.00000000 0.00000000 / 55 80 53 255 / 0.96342470 0.91740420
				-28.49826000 -0.22176920 -17.10076000 / 0.00000000 -1.00000000 0.00000000 / 65 95 63 255 / 0.20460510 0.99656680
				-27.96545000 -1.10646900 -17.57146000 / 0.00000000 -1.00000000 0.00000000 / 55 80 53 255 / 0.96342470 0.91740420
				-28.00579000 -1.12838100 -17.57147000 / 0.00000000 -1.00000000 0.00000000 / 54 78 52 255 / 0.96342470 0.93174750
				-28.00579000 -1.12838100 -17.58172000 / 0.00000000 -1.00000000 0.00000000 / 55 80 53 255 / 0.96659850 0.93174750
				-29.40629000 -1.83688900 -17.58173000 / 0.00000000 1.00000000 0.00000000 / 60 87 58 255 / 0.96659850 0.91740420
				-29.83651000 -0.94869330 -17.57147000 / 0.00000000 -1.00000000 0.00000000 / 47 69 46 255 / 0.96342470 0.91740420
				-28.00579000 -1.12838100 -17.58172000 / 0.00000000 -1.00000000 0.00000000 / 55 80 53 255 / 0.96659850 0.93174750
				-29.19107000 -2.06839100 -17.35223000 / 0.00000000 -1.00000000 0.00000000 / 68 99 66 255 / -0.15037540 0.47427370
				-27.96546000 -1.10648200 -17.09051000 / 0.00000000 0.00000000 1.00000000 / 93 137 93 255 / 0.97325130 0.90798950
				-27.96545000 -1.10646900 -17.58172000 / 0.00000000 -1.00000000 0.00000000 / 58 84 56 255 / 0.96659850 0.91740420
				-29.89876000 -0.93027840 -17.10077000 / -1.00000000 0.00000000 0.00000000 / 70 101 67 255 / 0.20460510 0.99656680
				-28.45793000 -0.19985360 -17.57147000 / 1.00000000 0.00000000 0.00000000 / 67 97 65 255 / 0.56613160 0.99656680
				-27.96546000 -1.10648100 -17.10076000 / 1.00000000 0.00000000 0.00000000 / 68 99 66 255 / 0.96342470 0.91740420
				-27.96546000 -1.10648100 -17.10076000 / 1.00000000 0.00000000 0.00000000 / 68 99 66 255 / 0.96342470 0.91740420
				-27.98737000 -1.06615200 -17.10076000 / 1.00000000 0.00000000 0.00000000 / 68 99 66 255 / 0.96342470 0.93174750
				-27.98737000 -1.06615200 -17.09051000 / 1.00000000 0.00000000 0.00000000 / 68 99 66 255 / 0.96659850 0.93174750
				-27.98737000 -1.06615200 -17.09051000 / 1.00000000 0.00000000 0.00000000 / 68 99 66 255 / 0.96659850 0.93174750
				-29.87685000 -0.97060140 -17.57147000 / 0.00000000 -1.00000000 0.00000000 / 51 75 49 255 / 0.96342470 0.93174750
				-27.96546000 -1.10648200 -17.09051000 / 1.00000000 0.00000000 0.00000000 / 68 99 66 255 / 0.96659850 0.91740420
				-27.98736000 -1.06613900 -17.57147000 / 1.00000000 0.00000000 0.00000000 / 68 99 66 255 / 0.96342470 0.91740420
				-28.47983000 -0.15951930 -17.57146000 / 0.00000000 1.00000000 0.00000000 / 63 91 61 255 / 0.96342470 0.93174750
				-27.98736000 -1.06613900 -17.57147000 / 1.00000000 0.00000000 0.00000000 / 68 99 66 255 / 0.96342470 0.91740420
				-29.38438000 -1.87722000 -17.57147000 / -1.00000000 0.00000000 0.00000000 / 68 99 66 255 / 0.96342470 0.91740420
				-27.96545000 -1.10646900 -17.57146000 / 1.00000000 0.00000000 0.00000000 / 67 98 65 255 / 0.96342470 0.93174750
				-27.96545000 -1.10646900 -17.58172000 / 1.00000000 0.00000000 0.00000000 / 67 98 65 255 / 0.96659850 0.93174750
				-27.96545000 -1.10646900 -17.58172000 / 1.00000000 0.00000000 0.00000000 / 67 98 65 255 / 0.96659850 0.93174750
				-27.98736000 -1.06613900 -17.58172000 / 1.00000000 0.00000000 0.00000000 / 69 101 67 255 / 0.96659850 0.91740420
				-27.98737000 -1.06615200 -17.10076000 / 0.00000000 1.00000000 0.00000000 / 63 92 61 255 / 0.96342470 0.91740420
				-27.98737000 -1.06615200 -17.10076000 / 0.00000000 1.00000000 0.00000000 / 63 92 61 255 / 0.96342470 0.91740420
				-29.87685000 -0.97060050 -17.58173000 / 0.00000000 -1.00000000 0.00000000 / 42 62 41 255 / 0.96659850 0.93174750
				-28.00579000 -1.12838100 -17.57147000 / 0.00000000 -1.00000000 0.00000000 / 54 78 52 255 / 0.56613160 0.99656680
				-28.00579000 -1.12838100 -17.57147000 / 0.00000000 -1.00000000 0.00000000 / 54 78 52 255 / 0.56613160 0.99656680
				-28.65041000 -0.00712760 -17.35223000 / 0.00000000 1.00000000 0.00000000 / 69 101 67 255 / -0.14807130 0.47938540
				-28.45793000 -0.19985360 -17.57147000 / 1.00000000 0.00000000 0.00000000 / 67 97 65 255 / 0.56613160 0.99656680
				-28.47983000 -0.15951930 -17.58172000 / 0.00000000 1.00000000 0.00000000 / 57 83 55 255 / 0.96659850 0.93174750
				-28.65041000 -0.00712760 -17.35223000 / 0.00000000 1.00000000 0.00000000 / 69 101 67 255 / -0.14807130 0.47938540
				-28.02770000 -1.08805800 -17.10077000 / 0.00000000 1.00000000 0.00000000 / 59 86 57 255 / 0.96342470 0.93174750
				-28.02770000 -1.08805800 -17.09051000 / 0.00000000 1.00000000 0.00000000 / 63 92 61 255 / 0.96659850 0.93174750
				-28.02770000 -1.08805800 -17.09051000 / 0.00000000 1.00000000 0.00000000 / 63 92 61 255 / 0.96659850 0.93174750
				-27.98737000 -1.06615200 -17.09051000 / 0.00000000 1.00000000 0.00000000 / 64 93 62 255 / 0.96659850 0.91740420
				-28.02770000 -1.08805000 -17.57147000 / 0.00000000 1.00000000 0.00000000 / 56 81 54 255 / 0.96342470 0.91740420
				-29.87685000 -0.97060050 -17.58173000 / 0.00000000 -1.00000000 0.00000000 / 42 62 41 255 / 0.96659850 0.93174750
				-28.02770000 -1.08805000 -17.57147000 / 0.00000000 1.00000000 0.00000000 / 56 81 54 255 / 0.96342470 0.91740420
				-27.98736000 -1.06613900 -17.57147000 / 0.00000000 1.00000000 0.00000000 / 57 84 55 255 / 0.96342470 0.93174750
				-28.47983000 -0.15951930 -17.57146000 / 1.00000000 0.00000000 0.00000000 / 68 100 66 255 / 0.56613160 0.86524950
				-27.98736000 -1.06613900 -17.58172000 / 0.00000000 1.00000000 0.00000000 / 57 84 55 255 / 0.96659850 0.93174750
				-27.98736000 -1.06613900 -17.58172000 / 0.00000000 1.00000000 0.00000000 / 57 84 55 255 / 0.96659850 0.93174750
				-29.95992000 -0.71844340 -17.38641000 / 0.00000000 1.00000000 0.00000000 / 68 99 66 255 / 1.37333700 0.55123900
				-28.47983000 -0.15951930 -17.58172000 / 0.00000000 1.00000000 0.00000000 / 57 83 55 255 / 0.96659850 0.93174750
				-28.02770000 -1.08804900 -17.58172000 / 0.00000000 1.00000000 0.00000000 / 57 83 55 255 / 0.96659850 0.91740420
				-28.02770000 -1.08805800 -17.10077000 / -1.00000000 0.00000000 0.00000000 / 6 9 6 255 / 0.96342470 0.91740420
				-28.02770000 -1.08805800 -17.10077000 / -1.00000000 0.00000000 0.00000000 / 6 9 6 255 / 0.96342470 0.91740420
				-28.00579000 -1.12839000 -17.10076000 / -1.00000000 0.00000000 0.00000000 / 8 12 8 255 / 0.96342470 0.93174750
				-29.83651000 -0.94869330 -17.58173000 / 0.00000000 -1.00000000 0.00000000 / 43 62 41 255 / 0.96659850 0.91740420
				-28.00579000 -1.12839000 -17.09051000 / -1.00000000 0.00000000 0.00000000 / 0 0 0 255 / 0.96659850 0.93174750
				-28.47983000 -0.15952750 -17.10076000 / 1.00000000 0.00000000 0.00000000 / 67 97 65 255 / 0.20460510 0.86524950
				-28.00579000 -1.12839000 -17.09051000 / -1.00000000 0.00000000 0.00000000 / 0 0 0 255 / 0.96659850 0.93174750
				-28.62295000 0.00779010 -17.38641000 / 0.00000000 1.00000000 0.00000000 / 69 100 67 255 / -0.18011470 0.55123900
				-27.96545000 -1.10646900 -17.57146000 / 0.00000000 -1.00000000 0.00000000 / 55 80 53 255 / 0.56613160 0.86524950
				-28.02770000 -1.08805800 -17.09051000 / -1.00000000 0.00000000 0.00000000 / 0 0 0 255 / 0.96659850 0.91740420
				-28.00579000 -1.12838100 -17.57147000 / -1.00000000 0.00000000 0.00000000 / 21 31 21 255 / 0.96342470 0.91740420
				-28.52017000 -0.18142650 -17.58172000 / 0.00000000 1.00000000 0.00000000 / 55 80 53 255 / 0.96659850 0.91740420
				-28.00579000 -1.12838100 -17.57147000 / -1.00000000 0.00000000 0.00000000 / 21 31 21 255 / 0.96342470 0.91740420
				-28.02770000 -1.08805000 -17.57147000 / -1.00000000 0.00000000 0.00000000 / 20 29 19 255 / 0.96342470 0.93174750
				-28.02770000 -1.08804900 -17.58172000 / -1.00000000 0.00000000 0.00000000 / 27 40 27 255 / 0.96659850 0.93174750
				-28.45793000 -0.19986100 -17.10076000 / 1.00000000 0.00000000 0.00000000 / 66 96 64 255 / 0.96342470 0.91740420
				-28.47983000 -0.15952750 -17.10076000 / 1.00000000 0.00000000 0.00000000 / 67 97 65 255 / 0.20460510 0.86524950
				-28.02770000 -1.08804900 -17.58172000 / -1.00000000 0.00000000 0.00000000 / 27 40 27 255 / 0.96659850 0.93174750
				-28.00579000 -1.12838100 -17.58172000 / -1.00000000 0.00000000 0.00000000 / 21 31 21 255 / 0.96659850 0.91740420
				-28.49826000 -0.22176920 -17.10076000 / 0.00000000 -1.00000000 0.00000000 / 65 95 63 255 / 0.96342470 0.91740420
				-28.49826000 -0.22176920 -17.10076000 / 0.00000000 -1.00000000 0.00000000 / 65 95 63 255 / 0.96342470 0.91740420
				-28.45793000 -0.19986100 -17.10076000 / 0.00000000 -1.00000000 0.00000000 / 62 90 60 255 / 0.96342470 0.93174750
				-28.45793000 -0.19986120 -17.09051000 / 0.00000000 -1.00000000 0.00000000 / 66 96 64 255 / 0.96659850 0.93174750
				-28.45793000 -0.19986120 -17.09051000 / 0.00000000 -1.00000000 0.00000000 / 66 96 64 255 / 0.96659850 0.93174750
				-28.52017000 -0.18143490 -17.10076000 / -1.00000000 0.00000000 0.00000000 / 7 10 7 255 / 0.96342470 0.91740420
				-28.49826000 -0.22177000 -17.09051000 / 0.00000000 -1.00000000 0.00000000 / 64 93 61 255 / 0.96659850 0.91740420
				-28.52017000 -0.18143490 -17.10076000 / -1.00000000 0.00000000 0.00000000 / 7 10 7 255 / 0.96342470 0.91740420
				-29.93246000 -0.70353000 -17.35223000 / 0.00000000 1.00000000 0.00000000 / 69 100 67 255 / 1.34129300 0.47938540
				-29.83653000 -0.94870540 -17.10077000 / 1.00000000 0.00000000 0.00000000 / 65 95 63 255 / 0.96342470 0.91740420
				-27.96545000 -1.10646900 -17.57146000 / 1.00000000 0.00000000 0.00000000 / 67 98 65 255 / 0.56613160 0.99656680
				-27.96545000 -1.10646900 -17.57146000 / 1.00000000 0.00000000 0.00000000 / 67 98 65 255 / 0.56613160 0.99656680
				-28.49826000 -0.22176920 -17.10076000 / -1.00000000 0.00000000 0.00000000 / 10 14 9 255 / 0.96342470 0.93174750
				-28.49826000 -0.22177000 -17.09051000 / -1.00000000 0.00000000 0.00000000 / 6 10 6 255 / 0.96659850 0.93174750
				-28.49826000 -0.22177000 -17.09051000 / -1.00000000 0.00000000 0.00000000 / 6 10 6 255 / 0.96659850 0.93174750
				-28.52017000 -0.18143490 -17.09051000 / -1.00000000 0.00000000 0.00000000 / 13 19 12 255 / 0.96659850 0.91740420
				-28.45793000 -0.19985360 -17.57147000 / 0.00000000 -1.00000000 0.00000000 / 46 68 45 255 / 0.96342470 0.91740420
				-28.49826000 -0.22175820 -17.57147000 / -1.00000000 0.00000000 0.00000000 / 28 41 27 255 / 0.96342470 0.91740420
				-28.49826000 -0.22175820 -17.57147000 / -1.00000000 0.00000000 0.00000000 / 28 41 27 255 / 0.96342470 0.91740420
				-28.49826000 -0.22175820 -17.58172000 / 0.00000000 0.00000000 -1.00000000 / 17 26 18 255 / 0.97325130 0.94522090
				-28.45793000 -0.19986100 -17.10076000 / 1.00000000 0.00000000 0.00000000 / 66 96 64 255 / 0.20460510 0.99656680
				-28.52017000 -0.18142740 -17.57146000 / -1.00000000 0.00000000 0.00000000 / 22 33 21 255 / 0.96342470 0.93174750
				-29.83653000 -0.94870540 -17.10077000 / 1.00000000 0.00000000 0.00000000 / 65 95 63 255 / 0.96342470 0.91740420
				-28.00579000 -1.12838100 -17.58172000 / 0.00000000 0.00000000 -1.00000000 / 17 26 18 255 / 0.97325130 0.94522090
				-28.00579000 -1.12838100 -17.58172000 / 0.00000000 0.00000000 -1.00000000 / 17 26 18 255 / 0.97325130 0.94522090
				-28.52017000 -0.18142650 -17.58172000 / -1.00000000 0.00000000 0.00000000 / 32 46 31 255 / 0.96659850 0.93174750
				-28.52017000 -0.18142650 -17.58172000 / -1.00000000 0.00000000 0.00000000 / 32 46 31 255 / 0.96659850 0.93174750
				-28.49826000 -0.22175820 -17.58172000 / -1.00000000 0.00000000 0.00000000 / 28 41 27 255 / 0.96659850 0.91740420
				-29.38438000 -1.87723000 -17.10076000 / 0.00000000 -1.00000000 0.00000000 / 62 90 60 255 / 0.96342470 0.91740420
				-29.38438000 -1.87723000 -17.10076000 / 0.00000000 -1.00000000 0.00000000 / 62 90 60 255 / 0.96342470 0.91740420
				-28.45793000 -0.19985360 -17.57147000 / 0.00000000 -1.00000000 0.00000000 / 46 68 45 255 / 0.96342470 0.91740420
				-28.47983000 -0.15951930 -17.57146000 / 0.00000000 1.00000000 0.00000000 / 63 91 61 255 / 0.56613160 0.99656680
				-29.34405000 -1.85532100 -17.10076000 / 0.00000000 -1.00000000 0.00000000 / 58 85 56 255 / 0.96342470 0.93174750
				-29.34405000 -1.85532200 -17.09051000 / 0.00000000 -1.00000000 0.00000000 / 65 94 62 255 / 0.96659850 0.93174750
				-29.85843000 -0.90837010 -17.10077000 / 1.00000000 0.00000000 0.00000000 / 26 37 24 255 / 0.96342470 0.93174750
				-29.34405000 -1.85532200 -17.09051000 / 0.00000000 -1.00000000 0.00000000 / 65 94 62 255 / 0.96659850 0.93174750
				-27.98736000 -1.06613900 -17.57147000 / 1.00000000 0.00000000 0.00000000 / 68 99 66 255 / 0.56613160 0.86524950
				-29.38438000 -1.87723100 -17.09051000 / 0.00000000 -1.00000000 0.00000000 / 67 97 65 255 / 0.96659850 0.91740420
				-29.34404000 -1.85531000 -17.57147000 / 0.00000000 -1.00000000 0.00000000 / 58 84 56 255 / 0.96342470 0.91740420
				-29.34404000 -1.85531000 -17.57147000 / 0.00000000 -1.00000000 0.00000000 / 58 84 56 255 / 0.96342470 0.91740420
				-29.38438000 -1.87722000 -17.57147000 / 0.00000000 -1.00000000 0.00000000 / 57 82 55 255 / 0.96342470 0.93174750
				-29.38438000 -1.87722000 -17.58172000 / 0.00000000 -1.00000000 0.00000000 / 58 85 56 255 / 0.96659850 0.93174750
				-28.47983000 -0.15951930 -17.57146000 / 0.00000000 1.00000000 0.00000000 / 63 91 61 255 / 0.56613160 0.99656680
				-29.38438000 -1.87722000 -17.58172000 / 0.00000000 -1.00000000 0.00000000 / 58 85 56 255 / 0.96659850 0.93174750
				-27.96546000 -1.10648100 -17.10076000 / 0.00000000 -1.00000000 0.00000000 / 58 85 56 255 / 0.20460510 0.86524950
				-29.21853000 -2.08330700 -17.38641000 / 0.00000000 -1.00000000 0.00000000 / 67 98 65 255 / -0.18240360 0.54612730
				-29.85843000 -0.90837020 -17.09051000 / 1.00000000 0.00000000 0.00000000 / 74 108 72 255 / 0.96659850 0.93174750
				-29.34404000 -1.85531000 -17.58172000 / 0.00000000 -1.00000000 0.00000000 / 59 86 57 255 / 0.96659850 0.91740420
				-29.34405000 -1.85532100 -17.10076000 / 1.00000000 0.00000000 0.00000000 / 23 34 22 255 / 0.96342470 0.91740420
				-29.34405000 -1.85532100 -17.10076000 / 1.00000000 0.00000000 0.00000000 / 23 34 22 255 / 0.96342470 0.91740420
				-29.36596000 -1.81499000 -17.10077000 / 1.00000000 0.00000000 0.00000000 / 24 36 23 255 / 0.96342470 0.93174750
				-29.36596000 -1.81499000 -17.09052000 / 1.00000000 0.00000000 0.00000000 / 11 16 10 255 / 0.96659850 0.93174750
				-29.36596000 -1.81499000 -17.09052000 / 1.00000000 0.00000000 0.00000000 / 11 16 10 255 / 0.96659850 0.93174750
				-28.62294000 0.00778470 -17.09051000 / 1.00000000 0.00000000 0.00000000 / 65 94 63 255 / 1.51295500 0.00677490
				-29.34405000 -1.85532200 -17.09051000 / 1.00000000 0.00000000 0.00000000 / 21 31 20 255 / 0.96659850 0.91740420
				-29.36596000 -1.81498100 -17.57147000 / 1.00000000 0.00000000 0.00000000 / 26 39 26 255 / 0.96342470 0.91740420
				-29.36596000 -1.81498100 -17.57147000 / 1.00000000 0.00000000 0.00000000 / 26 39 26 255 / 0.96342470 0.91740420
				-27.96546000 -1.10648100 -17.10076000 / 0.00000000 -1.00000000 0.00000000 / 58 85 56 255 / 0.20460510 0.86524950
				-29.40630000 -1.83690000 -17.10077000 / -1.00000000 0.00000000 0.00000000 / 69 100 67 255 / 0.96342470 0.91740420
				-29.85843000 -0.90837020 -17.09051000 / 1.00000000 0.00000000 0.00000000 / 74 108 72 255 / 0.96659850 0.93174750
				-27.98737000 -1.06615200 -17.10076000 / 1.00000000 0.00000000 0.00000000 / 68 99 66 255 / 0.20460510 0.86524950
				-27.98737000 -1.06615200 -17.10076000 / 1.00000000 0.00000000 0.00000000 / 68 99 66 255 / 0.20460510 0.86524950
				-29.34404000 -1.85531000 -17.57147000 / 1.00000000 0.00000000 0.00000000 / 31 46 30 255 / 0.96342470 0.93174750
				-29.34404000 -1.85531000 -17.58172000 / 1.00000000 0.00000000 0.00000000 / 27 40 26 255 / 0.96659850 0.93174750
				-28.62294000 0.00778470 -17.09051000 / 1.00000000 0.00000000 0.00000000 / 65 94 63 255 / 1.51295500 0.00677490
				-29.34404000 -1.85531000 -17.58172000 / 1.00000000 0.00000000 0.00000000 / 27 40 26 255 / 0.96659850 0.93174750
				-29.36596000 -1.81498100 -17.58173000 / 1.00000000 0.00000000 0.00000000 / 29 42 28 255 / 0.96659850 0.91740420
				-27.88156000 -1.35707100 -17.38641000 / 0.00000000 -1.00000000 0.00000000 / 67 98 65 255 / 1.37104800 0.54612730
				-27.88156000 -1.35707100 -17.38641000 / 0.00000000 -1.00000000 0.00000000 / 67 98 65 255 / 1.37104800 0.54612730
				-29.36596000 -1.81499000 -17.10077000 / 0.00000000 1.00000000 0.00000000 / 59 86 57 255 / 0.96342470 0.91740420
				-29.36596000 -1.81499000 -17.10077000 / 0.00000000 1.00000000 0.00000000 / 59 86 57 255 / 0.96342470 0.91740420
				-28.02770000 -1.08805000 -17.57147000 / 0.00000000 1.00000000 0.00000000 / 56 81 54 255 / 0.56613160 0.86524950
				-28.49826000 -0.22175820 -17.57147000 / 0.00000000 -1.00000000 0.00000000 / 56 82 55 255 / 0.96342470 0.93174750
				-29.40630000 -1.83690000 -17.10077000 / 0.00000000 1.00000000 0.00000000 / 53 77 51 255 / 0.96342470 0.93174750
				-29.40630000 -1.83690000 -17.09052000 / 0.00000000 1.00000000 0.00000000 / 62 90 60 255 / 0.96659850 0.93174750
				-28.49826000 -0.22175820 -17.58172000 / 0.00000000 -1.00000000 0.00000000 / 43 63 42 255 / 0.96659850 0.93174750
				-29.40630000 -1.83690000 -17.09052000 / 0.00000000 1.00000000 0.00000000 / 62 90 60 255 / 0.96659850 0.93174750
				-29.36596000 -1.81499000 -17.09052000 / 0.00000000 1.00000000 0.00000000 / 67 97 65 255 / 0.96659850 0.91740420
				-29.40629000 -1.83688900 -17.57147000 / 0.00000000 1.00000000 0.00000000 / 53 77 51 255 / 0.96342470 0.91740420
				-29.40629000 -1.83688900 -17.57147000 / 0.00000000 1.00000000 0.00000000 / 53 77 51 255 / 0.96342470 0.91740420
				-29.36596000 -1.81498100 -17.57147000 / 0.00000000 1.00000000 0.00000000 / 50 73 49 255 / 0.96342470 0.93174750
				-29.36596000 -1.81498100 -17.58173000 / 0.00000000 1.00000000 0.00000000 / 55 80 53 255 / 0.96659850 0.93174750
				-29.36596000 -1.81498100 -17.58173000 / 0.00000000 1.00000000 0.00000000 / 55 80 53 255 / 0.96659850 0.93174750
				-29.21853000 -2.08330700 -17.38641000 / -1.00000000 0.00000000 0.00000000 / 65 95 63 255 / 1.51605200 0.82585140
				-27.96546000 -1.10648100 -17.10076000 / 1.00000000 0.00000000 0.00000000 / 68 99 66 255 / 0.20460510 0.99656680
				-29.83652000 -0.94870710 -17.09051000 / 1.00000000 0.00000000 0.00000000 / 93 137 93 255 / 0.96659850 0.91740420
				-28.52017000 -0.18142740 -17.57146000 / 0.00000000 1.00000000 0.00000000 / 56 82 54 255 / 0.56613160 0.86524950
				-29.85842000 -0.90836090 -17.57147000 / 1.00000000 0.00000000 0.00000000 / 34 50 33 255 / 0.96342470 0.91740420
				-29.85842000 -0.90836090 -17.57147000 / 1.00000000 0.00000000 0.00000000 / 34 50 33 255 / 0.96342470 0.91740420
				-28.45793000 -0.19986100 -17.10076000 / 1.00000000 0.00000000 0.00000000 / 66 96 64 255 / 0.96342470 0.91740420
				-29.83651000 -0.94869330 -17.57147000 / 1.00000000 0.00000000 0.00000000 / 35 50 33 255 / 0.96342470 0.93174750
				-29.83651000 -0.94869330 -17.58173000 / 1.00000000 0.00000000 0.00000000 / 38 55 36 255 / 0.96659850 0.93174750
				-29.83651000 -0.94869330 -17.58173000 / 1.00000000 0.00000000 0.00000000 / 38 55 36 255 / 0.96659850 0.93174750
				-29.40630000 -1.83690000 -17.10077000 / -1.00000000 0.00000000 0.00000000 / 69 100 67 255 / 0.96342470 0.91740420
				-29.85842000 -0.90835890 -17.58172000 / 1.00000000 0.00000000 0.00000000 / 39 56 37 255 / 0.96659850 0.91740420
				-29.85843000 -0.90837010 -17.10077000 / 0.00000000 1.00000000 0.00000000 / 59 86 57 255 / 0.96342470 0.91740420
				-29.85843000 -0.90837010 -17.10077000 / 0.00000000 1.00000000 0.00000000 / 59 86 57 255 / 0.96342470 0.91740420
				-28.52017000 -0.18143490 -17.10076000 / 0.00000000 1.00000000 0.00000000 / 64 93 61 255 / 0.20460510 0.86524950
				-29.89876000 -0.93027840 -17.10077000 / 0.00000000 1.00000000 0.00000000 / 60 88 58 255 / 0.96342470 0.93174750
				-29.89876000 -0.93028100 -17.09051000 / 0.00000000 1.00000000 0.00000000 / 60 87 57 255 / 0.96659850 0.93174750
				-29.89876000 -0.93028100 -17.09051000 / 0.00000000 1.00000000 0.00000000 / 60 87 57 255 / 0.96659850 0.93174750
				-29.85843000 -0.90837020 -17.09051000 / 0.00000000 1.00000000 0.00000000 / 55 80 53 255 / 0.96659850 0.91740420
				-28.47983000 -0.15952750 -17.10076000 / 1.00000000 0.00000000 0.00000000 / 67 97 65 255 / 0.96342470 0.93174750
				-29.89876000 -0.93026820 -17.57147000 / 0.00000000 1.00000000 0.00000000 / 63 92 61 255 / 0.96342470 0.91740420
				-29.89876000 -0.93026820 -17.57147000 / 0.00000000 1.00000000 0.00000000 / 63 92 61 255 / 0.96342470 0.91740420
				-27.90902000 -1.37198800 -17.35223000 / 0.00000000 -1.00000000 0.00000000 / 67 97 65 255 / 1.33900500 0.47427370
				-29.21855000 -2.08332000 -17.09051000 / -1.00000000 0.00000000 0.00000000 / 65 94 62 255 / 1.51605200 0.00195310
				-29.21855000 -2.08332000 -17.09051000 / -1.00000000 0.00000000 0.00000000 / 65 94 62 255 / 1.51605200 0.00195310
				-28.52017000 -0.18143490 -17.10076000 / 0.00000000 1.00000000 0.00000000 / 64 93 61 255 / 0.20460510 0.86524950
				-28.02770000 -1.08805800 -17.10077000 / 0.00000000 1.00000000 0.00000000 / 59 86 57 255 / 0.20460510 0.86524950
				-28.02770000 -1.08805800 -17.10077000 / 0.00000000 1.00000000 0.00000000 / 59 86 57 255 / 0.20460510 0.86524950
				-29.85842000 -0.90836090 -17.57147000 / 0.00000000 1.00000000 0.00000000 / 61 89 59 255 / 0.96342470 0.93174750
				-29.85842000 -0.90835890 -17.58172000 / 0.00000000 1.00000000 0.00000000 / 65 95 63 255 / 0.96659850 0.93174750
				-29.85842000 -0.90835890 -17.58172000 / 0.00000000 1.00000000 0.00000000 / 65 95 63 255 / 0.96659850 0.93174750
				-29.89876000 -0.93026820 -17.58173000 / 0.00000000 1.00000000 0.00000000 / 65 95 63 255 / 0.96659850 0.91740420
				-28.47983000 -0.15952760 -17.09051000 / 1.00000000 0.00000000 0.00000000 / 67 97 65 255 / 0.96659850 0.93174750
				-29.89876000 -0.93027840 -17.10077000 / -1.00000000 0.00000000 0.00000000 / 70 101 67 255 / 0.96342470 0.91740420
				-29.38438000 -1.87723000 -17.10076000 / -1.00000000 0.00000000 0.00000000 / 68 100 66 255 / 0.96342470 0.93174750
				-29.89876000 -0.93027840 -17.10077000 / -1.00000000 0.00000000 0.00000000 / 70 101 67 255 / 0.96342470 0.91740420
				-28.47983000 -0.15952750 -17.10076000 / 0.00000000 1.00000000 0.00000000 / 67 97 64 255 / 0.20460510 0.99656680
				-29.87685000 -0.97061350 -17.10077000 / -1.00000000 0.00000000 0.00000000 / 68 100 66 255 / 0.96342470 0.93174750
				-29.87685000 -0.97061350 -17.09051000 / -1.00000000 0.00000000 0.00000000 / 69 101 67 255 / 0.96659850 0.93174750
				-29.87685000 -0.97061350 -17.09051000 / -1.00000000 0.00000000 0.00000000 / 69 101 67 255 / 0.96659850 0.93174750
				-29.89876000 -0.93028100 -17.09051000 / -1.00000000 0.00000000 0.00000000 / 69 101 67 255 / 0.96659850 0.91740420
				-29.87685000 -0.97060140 -17.57147000 / -1.00000000 0.00000000 0.00000000 / 66 96 64 255 / 0.96342470 0.91740420
				-29.87685000 -0.97060140 -17.57147000 / -1.00000000 0.00000000 0.00000000 / 66 96 64 255 / 0.96342470 0.91740420
				-29.89876000 -0.93026820 -17.57147000 / -1.00000000 0.00000000 0.00000000 / 68 99 66 255 / 0.96342470 0.93174750
				-27.96545000 -1.10646900 -17.58172000 / 0.00000000 0.00000000 -1.00000000 / 16 25 17 255 / 0.95362860 0.94522090
				-28.47983000 -0.15952760 -17.09051000 / 1.00000000 0.00000000 0.00000000 / 67 97 65 255 / 0.96659850 0.93174750
				-29.38438000 -1.87723100 -17.09051000 / -1.00000000 0.00000000 0.00000000 / 69 100 66 255 / 0.96659850 0.93174750
				-28.47983000 -0.15951930 -17.57146000 / 1.00000000 0.00000000 0.00000000 / 68 100 66 255 / 0.96342470 0.91740420
				-27.88157000 -1.35708200 -17.09051000 / 0.00000000 0.00000000 1.00000000 / 93 137 92 255 / 1.00650000 0.14012150
				-29.95992000 -0.71845070 -17.09051000 / -1.00000000 0.00000000 0.00000000 / 64 93 62 255 / 0.00416560 0.00195310
				-29.89876000 -0.93026820 -17.58173000 / -1.00000000 0.00000000 0.00000000 / 67 97 64 255 / 0.96659850 0.93174750
				-29.89876000 -0.93026820 -17.58173000 / -1.00000000 0.00000000 0.00000000 / 67 97 64 255 / 0.96659850 0.93174750
				-27.98737000 -1.06615200 -17.10076000 / 0.00000000 1.00000000 0.00000000 / 63 92 61 255 / 0.20460510 0.99656680
				-29.87685000 -0.97060050 -17.58173000 / -1.00000000 0.00000000 0.00000000 / 66 96 64 255 / 0.96659850 0.91740420
				-28.02770000 -1.08805000 -17.57147000 / -1.00000000 0.00000000 0.00000000 / 20 29 19 255 / 0.56613160 0.99656680
				-28.02770000 -1.08805000 -17.57147000 / -1.00000000 0.00000000 0.00000000 / 20 29 19 255 / 0.56613160 0.99656680
				-28.62295000 0.00779010 -17.38641000 / 0.00000000 0.00000000 -1.00000000 / 17 26 18 255 / 0.99192810 0.87489320
				-28.62295000 0.00779010 -17.38641000 / 0.00000000 0.00000000 -1.00000000 / 17 26 18 255 / 0.99192810 0.87489320
				-28.00579000 -1.12838100 -17.57147000 / -1.00000000 0.00000000 0.00000000 / 21 31 21 255 / 0.56613160 0.86524950
				-28.45793000 -0.19985360 -17.57147000 / 1.00000000 0.00000000 0.00000000 / 67 97 65 255 / 0.96342470 0.93174750
				-29.38438000 -1.87723100 -17.09051000 / -1.00000000 0.00000000 0.00000000 / 69 100 66 255 / 0.96659850 0.93174750
				-28.45793000 -0.19986120 -17.09051000 / 1.00000000 0.00000000 0.00000000 / 65 95 63 255 / 0.96659850 0.91740420
				-28.00579000 -1.12839000 -17.10076000 / -1.00000000 0.00000000 0.00000000 / 8 12 8 255 / 0.20460510 0.86524950
				-28.00579000 -1.12839000 -17.10076000 / -1.00000000 0.00000000 0.00000000 / 8 12 8 255 / 0.20460510 0.86524950
				-28.02770000 -1.08805800 -17.10077000 / -1.00000000 0.00000000 0.00000000 / 6 9 6 255 / 0.20460510 0.99656680
				-28.47983000 -0.15951930 -17.58172000 / 0.00000000 0.00000000 -1.00000000 / 17 26 18 255 / 0.95362860 0.90798950
				-28.47983000 -0.15951930 -17.58172000 / 0.00000000 0.00000000 -1.00000000 / 17 26 18 255 / 0.95362860 0.90798950
				-28.45793000 -0.19985350 -17.58172000 / 0.00000000 0.00000000 -1.00000000 / 17 26 18 255 / 0.95362860 0.94522090
				-28.65042000 -0.00713610 -17.09051000 / 0.00000000 0.00000000 1.00000000 / 93 137 92 255 / 0.18107600 0.20742800
				-28.65042000 -0.00713610 -17.09051000 / 0.00000000 0.00000000 1.00000000 / 93 137 92 255 / 0.18107600 0.20742800
				-27.88157000 -1.35708200 -17.09051000 / 0.00000000 0.00000000 1.00000000 / 93 137 92 255 / 1.00650000 0.14012150
				-28.49826000 -0.22175820 -17.58172000 / 0.00000000 0.00000000 -1.00000000 / 17 26 18 255 / 0.97325130 0.94522090
				-28.52017000 -0.18142740 -17.57146000 / -1.00000000 0.00000000 0.00000000 / 22 33 21 255 / 0.56613160 0.99656680
				-28.52017000 -0.18142740 -17.57146000 / -1.00000000 0.00000000 0.00000000 / 22 33 21 255 / 0.56613160 0.99656680
				-28.49826000 -0.22175820 -17.57147000 / -1.00000000 0.00000000 0.00000000 / 28 41 27 255 / 0.56613160 0.86524950
				-29.40629000 -1.83688900 -17.57147000 / -1.00000000 0.00000000 0.00000000 / 69 100 66 255 / 0.96342470 0.93174750
				-28.49826000 -0.22176920 -17.10076000 / -1.00000000 0.00000000 0.00000000 / 10 14 9 255 / 0.20460510 0.86524950
				-28.49826000 -0.22176920 -17.10076000 / -1.00000000 0.00000000 0.00000000 / 10 14 9 255 / 0.20460510 0.86524950
				-28.52017000 -0.18143490 -17.10076000 / -1.00000000 0.00000000 0.00000000 / 7 10 7 255 / 0.20460510 0.99656680
				-28.52017000 -0.18142650 -17.58172000 / 0.00000000 0.00000000 -1.00000000 / 17 26 18 255 / 0.97325130 0.90798950
				-29.36596000 -1.81498100 -17.58173000 / 0.00000000 0.00000000 -1.00000000 / 18 26 18 255 / 0.95362860 0.90798950
				-29.36596000 -1.81498100 -17.58173000 / 0.00000000 0.00000000 -1.00000000 / 18 26 18 255 / 0.95362860 0.90798950
				-29.34404000 -1.85531000 -17.58172000 / 0.00000000 0.00000000 -1.00000000 / 18 27 19 255 / 0.95362860 0.94522090
				-28.45793000 -0.19985350 -17.58172000 / 1.00000000 0.00000000 0.00000000 / 69 100 67 255 / 0.96659850 0.93174750
				-29.38438000 -1.87722000 -17.58172000 / 0.00000000 0.00000000 -1.00000000 / 18 26 18 255 / 0.97325130 0.94522090
				-29.38438000 -1.87722000 -17.58172000 / 0.00000000 0.00000000 -1.00000000 / 18 26 18 255 / 0.97325130 0.94522090
				-27.88157000 -1.35708200 -17.09051000 / 1.00000000 0.00000000 0.00000000 / 65 94 63 255 / 0.00520320 0.00677490
				-29.40629000 -1.83688900 -17.58173000 / -1.00000000 0.00000000 0.00000000 / 67 98 65 255 / 0.96659850 0.93174750
				-29.40629000 -1.83688900 -17.58173000 / 0.00000000 0.00000000 -1.00000000 / 17 26 18 255 / 0.97325130 0.90798950
				-29.36596000 -1.81499000 -17.09052000 / 0.00000000 0.00000000 1.00000000 / 93 135 90 255 / 0.95362860 0.90798950
				-28.47983000 -0.15952760 -17.09051000 / 0.00000000 0.00000000 1.00000000 / 93 137 92 255 / 0.95362860 0.90798950
				-29.36596000 -1.81499000 -17.09052000 / 0.00000000 0.00000000 1.00000000 / 93 135 90 255 / 0.95362860 0.90798950
				-28.02770000 -1.08804900 -17.58172000 / 0.00000000 0.00000000 -1.00000000 / 18 27 19 255 / 0.97325130 0.90798950
				-29.40630000 -1.83690000 -17.09052000 / 0.00000000 0.00000000 1.00000000 / 93 137 91 255 / 0.95362860 0.94522090
				-29.38438000 -1.87723100 -17.09051000 / 0.00000000 0.00000000 1.00000000 / 93 135 90 255 / 0.97325130 0.94522090
				-29.38438000 -1.87723100 -17.09051000 / 0.00000000 0.00000000 1.00000000 / 93 135 90 255 / 0.97325130 0.94522090
				-28.45793000 -0.19985350 -17.58172000 / 1.00000000 0.00000000 0.00000000 / 69 100 67 255 / 0.96659850 0.93174750
				-29.34405000 -1.85532200 -17.09051000 / 0.00000000 0.00000000 1.00000000 / 92 134 89 255 / 0.97325130 0.90798950
				-29.38438000 -1.87722000 -17.57147000 / 0.00000000 -1.00000000 0.00000000 / 57 82 55 255 / 0.56613160 0.99656680
				-29.40629000 -1.83688900 -17.58173000 / -1.00000000 0.00000000 0.00000000 / 67 98 65 255 / 0.96659850 0.93174750
				-29.38438000 -1.87722000 -17.57147000 / 0.00000000 -1.00000000 0.00000000 / 57 82 55 255 / 0.56613160 0.99656680
				-28.47983000 -0.15952760 -17.09051000 / 0.00000000 0.00000000 1.00000000 / 93 137 92 255 / 0.95362860 0.90798950
				-29.34404000 -1.85531000 -17.57147000 / 0.00000000 -1.00000000 0.00000000 / 58 84 56 255 / 0.56613160 0.86524950
				-29.34405000 -1.85532100 -17.10076000 / 0.00000000 -1.00000000 0.00000000 / 58 85 56 255 / 0.20460510 0.86524950
				-29.34405000 -1.85532100 -17.10076000 / 0.00000000 -1.00000000 0.00000000 / 58 85 56 255 / 0.20460510 0.86524950
				-29.38438000 -1.87723000 -17.10076000 / 0.00000000 -1.00000000 0.00000000 / 62 90 60 255 / 0.20460510 0.99656680
				-29.34404000 -1.85531000 -17.57147000 / 1.00000000 0.00000000 0.00000000 / 31 46 30 255 / 0.56613160 0.99656680
				-29.34404000 -1.85531000 -17.57147000 / 1.00000000 0.00000000 0.00000000 / 31 46 30 255 / 0.56613160 0.99656680
				-27.88156000 -1.35707100 -17.38641000 / 1.00000000 0.00000000 0.00000000 / 65 94 63 255 / 0.00520320 0.83338930
				-29.95992000 -0.71844340 -17.38641000 / 0.00000000 0.00000000 -1.00000000 / 17 26 18 255 / 0.99192810 0.98701480
				-27.88156000 -1.35707100 -17.38641000 / 1.00000000 0.00000000 0.00000000 / 65 94 63 255 / 0.00520320 0.83338930
				-29.38438000 -1.87722000 -17.58172000 / -1.00000000 0.00000000 0.00000000 / 67 98 65 255 / 0.96659850 0.91740420
				-28.52017000 -0.18143490 -17.09051000 / 0.00000000 0.00000000 1.00000000 / 93 137 93 255 / 0.95362860 0.94522090
				-29.36596000 -1.81498100 -17.57147000 / 1.00000000 0.00000000 0.00000000 / 26 39 26 255 / 0.56613160 0.86524950
				-28.62294000 0.00778470 -17.09051000 / 0.00000000 0.00000000 1.00000000 / 93 137 91 255 / 0.18107600 0.14012150
				-29.36596000 -1.81499000 -17.10077000 / 1.00000000 0.00000000 0.00000000 / 24 36 23 255 / 0.20460510 0.86524950
				-29.36596000 -1.81499000 -17.10077000 / 1.00000000 0.00000000 0.00000000 / 24 36 23 255 / 0.20460510 0.86524950
				-29.34405000 -1.85532100 -17.10076000 / 1.00000000 0.00000000 0.00000000 / 23 34 22 255 / 0.20460510 0.99656680
				-29.36596000 -1.81498100 -17.57147000 / 0.00000000 1.00000000 0.00000000 / 50 73 49 255 / 0.56613160 0.99656680
				-29.36596000 -1.81498100 -17.57147000 / 0.00000000 1.00000000 0.00000000 / 50 73 49 255 / 0.56613160 0.99656680
				-29.40629000 -1.83688900 -17.57147000 / 0.00000000 1.00000000 0.00000000 / 53 77 51 255 / 0.56613160 0.86524950
				-29.40630000 -1.83690000 -17.10077000 / 0.00000000 1.00000000 0.00000000 / 53 77 51 255 / 0.20460510 0.86524950
				-28.00579000 -1.12839000 -17.10076000 / 0.00000000 -1.00000000 0.00000000 / 60 88 58 255 / 0.20460510 0.99656680
				-28.49826000 -0.22177000 -17.09051000 / 0.00000000 0.00000000 1.00000000 / 93 137 92 255 / 0.97325130 0.94522090
				-29.87685000 -0.97061350 -17.10077000 / 0.00000000 -1.00000000 0.00000000 / 61 88 58 255 / 0.96342470 0.91740420
				-29.40630000 -1.83690000 -17.10077000 / 0.00000000 1.00000000 0.00000000 / 53 77 51 255 / 0.20460510 0.86524950
				-29.36596000 -1.81499000 -17.10077000 / 0.00000000 1.00000000 0.00000000 / 59 86 57 255 / 0.20460510 0.99656680
				-29.40629000 -1.83688900 -17.57147000 / -1.00000000 0.00000000 0.00000000 / 69 100 66 255 / 0.56613160 0.99656680
				-29.40629000 -1.83688900 -17.57147000 / -1.00000000 0.00000000 0.00000000 / 69 100 66 255 / 0.56613160 0.99656680
				-29.38438000 -1.87722000 -17.57147000 / -1.00000000 0.00000000 0.00000000 / 68 99 66 255 / 0.56613160 0.86524950
				-29.38438000 -1.87723000 -17.10076000 / -1.00000000 0.00000000 0.00000000 / 68 100 66 255 / 0.20460510 0.86524950
				-29.38438000 -1.87723000 -17.10076000 / -1.00000000 0.00000000 0.00000000 / 68 100 66 255 / 0.20460510 0.86524950
				-28.62295000 0.00779010 -17.38641000 / 1.00000000 0.00000000 0.00000000 / 65 94 63 255 / 1.51295500 0.83338930
				-29.19108000 -2.06840000 -17.09051000 / 0.00000000 0.00000000 1.00000000 / 93 137 92 255 / 1.01770000 0.14721680
			}
		}
		Geometry
		{
			ShaderIndex 5
			Flags -
			VertexDeclaration N209731BE
			Indices 252
			{
				0 2 3 4 5 1 6 8 9 10 11 7 12 14 15
				16 17 13 18 20 21 22 23 19 24 26 27 28 29 25
				30 32 33 34 35 31 36 38 39 40 41 37 42 44 45
				46 47 43 48 50 51 52 53 49 54 56 57 58 59 55
				60 62 63 64 65 61 66 68 69 70 71 67 72 74 75
				76 77 73 78 80 81 82 83 79 84 86 87 88 89 85
				90 92 93 94 95 91 96 98 99 100 101 97 102 104 105
				106 107 103 108 110 111 112 113 109 114 116 117 118 119 115
				120 122 123 124 125 121 126 128 129 130 131 127 132 134 135
				136 137 133 138 140 141 142 143 139 144 146 147 148 149 145
				150 152 153 154 155 151 156 158 159 160 161 157 162 164 165
				166 167 163 168 170 171 172 173 169 174 176 177 178 179 175
				180 182 183 184 185 181 186 188 189 190 191 187 192 194 195
				196 197 193 198 200 201 202 203 199 204 206 207 208 209 205
				210 212 213 214 215 211 216 218 219 220 221 217 222 224 225
				226 227 223 228 230 231 232 233 229 234 236 237 238 239 235
				240 242 243 244 245 241 246 248 249 250 251 247
			}
			Vertices 252
			{
				-28.87857000 -0.20497390 -17.08709000 / 0.00000000 0.00000000 -1.00000000 / 42 62 41 255 / 0.00167850 0.00936890
				-28.87857000 -0.20497390 -17.08709000 / 0.00000000 0.00000000 -1.00000000 / 42 62 41 255 / 0.00167850 0.00936890
				-28.61924000 -0.50030740 -17.08710000 / 0.00000000 0.00000000 -1.00000000 / 44 64 42 255 / 0.00209040 0.49356080
				-28.82992000 -0.68531020 -17.08709000 / 0.00000000 0.00000000 -1.00000000 / 42 62 41 255 / 0.49826050 0.48867800
				-28.82992000 -0.68531020 -17.08709000 / 0.00000000 0.00000000 -1.00000000 / 42 62 41 255 / 0.49826050 0.48867800
				-29.08925000 -0.38998070 -17.08709000 / 0.00000000 0.00000000 -1.00000000 / 41 60 39 255 / 0.49786380 0.00450130
				-28.87857000 -0.20497390 -17.08221000 / 0.00000000 0.00000000 1.00000000 / 74 108 72 255 / 0.50196840 0.00936890
				-28.87857000 -0.20497390 -17.08221000 / 0.00000000 0.00000000 1.00000000 / 74 108 72 255 / 0.50196840 0.00936890
				-29.08925000 -0.38998150 -17.08221000 / 0.00000000 0.00000000 1.00000000 / 67 97 64 255 / 0.50238040 0.49356080
				-28.82991000 -0.68531080 -17.08221000 / 0.00000000 0.00000000 1.00000000 / 74 108 72 255 / 0.99855040 0.48867800
				-28.82991000 -0.68531080 -17.08221000 / 0.00000000 0.00000000 1.00000000 / 74 108 72 255 / 0.99855040 0.48867800
				-28.61924000 -0.50030740 -17.08221000 / 0.00000000 0.00000000 1.00000000 / 81 117 78 255 / 0.99815370 0.00450130
				-28.61924000 -0.50030740 -17.08221000 / 0.22125270 -0.97521660 0.00000000 / 79 115 76 255 / 0.50877380 0.90536500
				-28.61924000 -0.50030740 -17.08221000 / 0.22125270 -0.97521660 0.00000000 / 79 115 76 255 / 0.50877380 0.90536500
				-28.82991000 -0.68531080 -17.08221000 / 0.22125270 -0.97521660 0.00000000 / 89 130 86 255 / 0.78536990 0.90536500
				-28.82992000 -0.68531020 -17.08709000 / 0.22125270 -0.97521660 0.00000000 / 79 115 76 255 / 0.78536990 0.89775080
				-28.82992000 -0.68531020 -17.08709000 / 0.22125270 -0.97521660 0.00000000 / 79 115 76 255 / 0.78536990 0.89775080
				-28.61924000 -0.50030740 -17.08710000 / 0.22125270 -0.97521660 0.00000000 / 64 94 62 255 / 0.50877380 0.89775080
				-28.87857000 -0.20497390 -17.08221000 / 0.97523670 0.22116370 0.00000000 / 76 111 74 255 / 0.50877380 0.90536500
				-28.87857000 -0.20497390 -17.08221000 / 0.97523670 0.22116370 0.00000000 / 76 111 74 255 / 0.50877380 0.90536500
				-28.61924000 -0.50030740 -17.08221000 / 0.97523640 0.22116510 0.00000000 / 84 122 81 255 / 0.78536990 0.90536500
				-28.61924000 -0.50030740 -17.08710000 / 0.97523640 0.22116510 0.00000000 / 76 111 74 255 / 0.78536990 0.89775080
				-28.61924000 -0.50030740 -17.08710000 / 0.97523640 0.22116510 0.00000000 / 76 111 74 255 / 0.78536990 0.89775080
				-28.87857000 -0.20497390 -17.08709000 / 0.97523670 0.22116370 0.00000000 / 66 96 64 255 / 0.50877380 0.89775080
				-29.08925000 -0.38998150 -17.08221000 / -0.22125270 0.97521660 0.00000000 / 68 99 66 255 / 0.12875370 0.43937680
				-29.08925000 -0.38998150 -17.08221000 / -0.22125270 0.97521660 0.00000000 / 68 99 66 255 / 0.12875370 0.43937680
				-28.87857000 -0.20497390 -17.08221000 / -0.22125240 0.97521660 0.00000000 / 70 102 68 255 / 0.32606510 0.43937680
				-28.87857000 -0.20497390 -17.08709000 / -0.22125240 0.97521660 0.00000000 / 68 99 66 255 / 0.32606510 0.43174740
				-28.87857000 -0.20497390 -17.08709000 / -0.22125240 0.97521660 0.00000000 / 68 99 66 255 / 0.32606510 0.43174740
				-29.08925000 -0.38998070 -17.08709000 / -0.22125270 0.97521660 0.00000000 / 66 97 64 255 / 0.12875370 0.43174740
				-28.82991000 -0.68531080 -17.08221000 / -0.97524030 -0.22114810 0.00000000 / 44 64 42 255 / 0.50877380 0.90536500
				-28.82991000 -0.68531080 -17.08221000 / -0.97524030 -0.22114810 0.00000000 / 44 64 42 255 / 0.50877380 0.90536500
				-29.08925000 -0.38998150 -17.08221000 / -0.97523640 -0.22116510 0.00000000 / 23 33 22 255 / 0.78536990 0.90536500
				-29.08925000 -0.38998070 -17.08709000 / -0.97523640 -0.22116510 0.00000000 / 44 64 42 255 / 0.78536990 0.89775080
				-29.08925000 -0.38998070 -17.08709000 / -0.97523640 -0.22116510 0.00000000 / 44 64 42 255 / 0.78536990 0.89775080
				-28.82992000 -0.68531020 -17.08709000 / -0.97524030 -0.22114810 0.00000000 / 59 86 57 255 / 0.50877380 0.89775080
				-28.75582000 -0.62839280 -17.07977000 / 0.00000000 0.00000000 -1.00000000 / 53 76 50 255 / 0.00167850 0.00936890
				-28.75582000 -0.62839280 -17.07977000 / 0.00000000 0.00000000 -1.00000000 / 53 76 50 255 / 0.00167850 0.00936890
				-29.14039000 -0.71115140 -17.07977000 / 0.00000000 0.00000000 -1.00000000 / 54 78 51 255 / 0.00209040 0.49356080
				-29.19930000 -0.43698320 -17.07977000 / 0.00000000 0.00000000 -1.00000000 / 53 76 50 255 / 0.49826050 0.48867800
				-29.19930000 -0.43698320 -17.07977000 / 0.00000000 0.00000000 -1.00000000 / 53 76 50 255 / 0.49826050 0.48867800
				-28.81496000 -0.35379110 -17.07977000 / 0.00000000 0.00000000 -1.00000000 / 51 75 49 255 / 0.49786380 0.00450130
				-28.75582000 -0.62839460 -17.07538000 / 0.00000000 0.00000000 1.00000000 / 93 137 92 255 / 0.00167850 0.49926760
				-28.75582000 -0.62839460 -17.07538000 / 0.00000000 0.00000000 1.00000000 / 93 137 92 255 / 0.00167850 0.49926760
				-28.81496000 -0.35379110 -17.07538000 / 0.00000000 0.00000000 1.00000000 / 93 137 92 255 / 0.00209040 0.98344420
				-29.19930000 -0.43698320 -17.07538000 / 0.00000000 0.00000000 1.00000000 / 93 137 92 255 / 0.49826050 0.97856140
				-29.19930000 -0.43698320 -17.07538000 / 0.00000000 0.00000000 1.00000000 / 93 137 92 255 / 0.49826050 0.97856140
				-29.14039000 -0.71115140 -17.07537000 / 0.00000000 0.00000000 1.00000000 / 93 137 93 255 / 0.49786380 0.49438480
				-29.14039000 -0.71115140 -17.07537000 / -0.95939310 0.28207210 0.00000000 / 68 99 65 255 / 0.50877380 0.90536500
				-29.14039000 -0.71115140 -17.07537000 / -0.95939310 0.28207210 0.00000000 / 68 99 65 255 / 0.50877380 0.90536500
				-29.19930000 -0.43698320 -17.07538000 / -0.95939310 0.28207210 0.00000000 / 68 99 66 255 / 0.78536990 0.90536500
				-29.19930000 -0.43698320 -17.07977000 / -0.95939310 0.28207210 0.00000000 / 68 99 65 255 / 0.78536990 0.89775080
				-29.19930000 -0.43698320 -17.07977000 / -0.95939310 0.28207210 0.00000000 / 68 99 65 255 / 0.78536990 0.89775080
				-29.14039000 -0.71115140 -17.07977000 / -0.95939310 0.28207210 0.00000000 / 68 99 65 255 / 0.50877380 0.89775080
				-28.75582000 -0.62839460 -17.07538000 / -0.28171550 -0.95949800 0.00000000 / 63 92 61 255 / 0.50877380 0.90536500
				-28.75582000 -0.62839460 -17.07538000 / -0.28171550 -0.95949800 0.00000000 / 63 92 61 255 / 0.50877380 0.90536500
				-29.14039000 -0.71115140 -17.07537000 / -0.28171550 -0.95949800 0.00000000 / 65 94 62 255 / 0.78536990 0.90536500
				-29.14039000 -0.71115140 -17.07977000 / -0.28171550 -0.95949800 0.00000000 / 63 92 61 255 / 0.78536990 0.89775080
				-29.14039000 -0.71115140 -17.07977000 / -0.28171550 -0.95949800 0.00000000 / 63 92 61 255 / 0.78536990 0.89775080
				-28.75582000 -0.62839280 -17.07977000 / -0.28171550 -0.95949800 0.00000000 / 61 89 59 255 / 0.50877380 0.89775080
				-28.81496000 -0.35379110 -17.07538000 / 0.95956070 -0.28150200 0.00000000 / 66 97 64 255 / 0.12875370 0.43937680
				-28.81496000 -0.35379110 -17.07538000 / 0.95956070 -0.28150200 0.00000000 / 66 97 64 255 / 0.12875370 0.43937680
				-28.75582000 -0.62839460 -17.07538000 / 0.95956150 -0.28149930 0.00000000 / 70 101 67 255 / 0.32606510 0.43937680
				-28.75582000 -0.62839280 -17.07977000 / 0.95956150 -0.28149930 0.00000000 / 66 97 64 255 / 0.32606510 0.43174740
				-28.75582000 -0.62839280 -17.07977000 / 0.95956150 -0.28149930 0.00000000 / 66 97 64 255 / 0.32606510 0.43174740
				-28.81496000 -0.35379110 -17.07977000 / 0.95956070 -0.28150200 0.00000000 / 63 91 60 255 / 0.12875370 0.43174740
				-29.19930000 -0.43698320 -17.07538000 / 0.28057070 0.95983340 0.00000000 / 69 100 66 255 / 0.50877380 0.90536500
				-29.19930000 -0.43698320 -17.07538000 / 0.28057070 0.95983340 0.00000000 / 69 100 66 255 / 0.50877380 0.90536500
				-28.81496000 -0.35379110 -17.07538000 / 0.28057070 0.95983340 0.00000000 / 68 99 66 255 / 0.78536990 0.90536500
				-28.81496000 -0.35379110 -17.07977000 / 0.28057070 0.95983340 0.00000000 / 69 100 66 255 / 0.78536990 0.89775080
				-28.81496000 -0.35379110 -17.07977000 / 0.28057070 0.95983340 0.00000000 / 69 100 66 255 / 0.78536990 0.89775080
				-29.19930000 -0.43698320 -17.07977000 / 0.28057070 0.95983340 0.00000000 / 70 101 67 255 / 0.50877380 0.89775080
				-28.64294000 -0.52928970 -17.34784000 / 0.00000000 0.00000000 -1.00000000 / 64 93 61 255 / 0.49330140 0.00450130
				-28.64294000 -0.52928970 -17.34784000 / 0.00000000 0.00000000 -1.00000000 / 64 93 61 255 / 0.49330140 0.00450130
				-28.99322000 -0.70789320 -17.34784000 / 0.00000000 0.00000000 -1.00000000 / 62 90 59 255 / 0.00167850 0.00489810
				-29.12058000 -0.45811130 -17.34784000 / 0.00000000 0.00000000 -1.00000000 / 64 93 61 255 / 0.00663760 0.49356080
				-29.12058000 -0.45811130 -17.34784000 / 0.00000000 0.00000000 -1.00000000 / 64 93 61 255 / 0.00663760 0.49356080
				-28.77029000 -0.27950920 -17.34784000 / 0.00000000 0.00000000 -1.00000000 / 66 96 63 255 / 0.49826050 0.49316410
				-28.64294000 -0.52928970 -17.33710000 / 0.00000000 0.00000000 1.00000000 / 66 96 64 255 / 0.00167850 0.00936890
				-28.64294000 -0.52928970 -17.33710000 / 0.00000000 0.00000000 1.00000000 / 66 96 64 255 / 0.00167850 0.00936890
				-28.77028000 -0.27950720 -17.33710000 / 0.00000000 0.00000000 1.00000000 / 68 98 65 255 / 0.00209040 0.49356080
				-29.12058000 -0.45811130 -17.33710000 / 0.00000000 0.00000000 1.00000000 / 66 96 64 255 / 0.49826050 0.48867800
				-29.12058000 -0.45811130 -17.33710000 / 0.00000000 0.00000000 1.00000000 / 66 96 64 255 / 0.49826050 0.48867800
				-28.99323000 -0.70789590 -17.33710000 / 0.00000000 0.00000000 1.00000000 / 65 94 62 255 / 0.49786380 0.00450130
				-28.99323000 -0.70789590 -17.33710000 / -0.99965860 0.02613110 0.00000000 / 65 94 62 255 / 0.50877380 0.90536500
				-28.99323000 -0.70789590 -17.33710000 / -0.99965860 0.02613110 0.00000000 / 65 94 62 255 / 0.50877380 0.90536500
				-29.12058000 -0.45811130 -17.33710000 / -0.99965860 0.02613110 0.00000000 / 60 86 57 255 / 0.78536990 0.90536500
				-29.12058000 -0.45811130 -17.34784000 / -0.99965860 0.02613110 0.00000000 / 65 94 62 255 / 0.78536990 0.89775080
				-29.12058000 -0.45811130 -17.34784000 / -0.99965860 0.02613110 0.00000000 / 65 94 62 255 / 0.78536990 0.89775080
				-28.99322000 -0.70789320 -17.34784000 / -0.99965860 0.02613110 0.00000000 / 69 101 67 255 / 0.50877380 0.89775080
				-28.64294000 -0.52928970 -17.33710000 / -0.02613070 -0.99965860 0.00000000 / 76 111 74 255 / 0.50877380 0.90536500
				-28.64294000 -0.52928970 -17.33710000 / -0.02613070 -0.99965860 0.00000000 / 76 111 74 255 / 0.50877380 0.90536500
				-28.99323000 -0.70789590 -17.33710000 / -0.02613070 -0.99965860 0.00000000 / 74 108 72 255 / 0.78536990 0.90536500
				-28.99322000 -0.70789320 -17.34784000 / -0.02613070 -0.99965860 0.00000000 / 76 111 74 255 / 0.78536990 0.89775080
				-28.99322000 -0.70789320 -17.34784000 / -0.02613070 -0.99965860 0.00000000 / 76 111 74 255 / 0.78536990 0.89775080
				-28.64294000 -0.52928970 -17.34784000 / -0.02613070 -0.99965860 0.00000000 / 79 114 76 255 / 0.50877380 0.89775080
				-28.77028000 -0.27950720 -17.33710000 / 0.99965860 -0.02612520 0.00000000 / 64 94 62 255 / 0.12875370 0.43937680
				-28.77028000 -0.27950720 -17.33710000 / 0.99965860 -0.02612520 0.00000000 / 64 94 62 255 / 0.12875370 0.43937680
				-28.64294000 -0.52928970 -17.33710000 / 0.99965860 -0.02613110 0.00000000 / 57 82 54 255 / 0.32606510 0.43937680
				-28.64294000 -0.52928970 -17.34784000 / 0.99965860 -0.02613110 0.00000000 / 64 94 62 255 / 0.32606510 0.43174740
				-28.64294000 -0.52928970 -17.34784000 / 0.99965860 -0.02613110 0.00000000 / 64 94 62 255 / 0.32606510 0.43174740
				-28.77029000 -0.27950920 -17.34784000 / 0.99965860 -0.02612520 0.00000000 / 71 103 68 255 / 0.12875370 0.43174740
				-29.12058000 -0.45811130 -17.33710000 / 0.02613070 0.99965860 0.00000000 / 80 117 77 255 / 0.50877380 0.90536500
				-29.12058000 -0.45811130 -17.33710000 / 0.02613070 0.99965860 0.00000000 / 80 117 77 255 / 0.50877380 0.90536500
				-28.77028000 -0.27950720 -17.33710000 / 0.02613070 0.99965860 0.00000000 / 77 113 75 255 / 0.78536990 0.90536500
				-28.77029000 -0.27950920 -17.34784000 / 0.02613070 0.99965860 0.00000000 / 80 117 77 255 / 0.78536990 0.89775080
				-28.77029000 -0.27950920 -17.34784000 / 0.02613070 0.99965860 0.00000000 / 80 117 77 255 / 0.78536990 0.89775080
				-29.12058000 -0.45811130 -17.34784000 / 0.02613070 0.99965860 0.00000000 / 82 120 80 255 / 0.50877380 0.89775080
				-28.95882000 -1.39934500 -17.34735000 / 0.00000000 0.00000000 -1.00000000 / 16 23 15 255 / 0.00167850 0.00936890
				-28.95882000 -1.39934500 -17.34735000 / 0.00000000 0.00000000 -1.00000000 / 16 23 15 255 / 0.00167850 0.00936890
				-28.85657000 -1.77888600 -17.34735000 / 0.00000000 0.00000000 -1.00000000 / 8 11 7 255 / 0.00209040 0.49356080
				-29.12765000 -1.85167600 -17.34735000 / 0.00000000 0.00000000 -1.00000000 / 16 23 15 255 / 0.49826050 0.48867800
				-29.12765000 -1.85167600 -17.34735000 / 0.00000000 0.00000000 -1.00000000 / 16 23 15 255 / 0.49826050 0.48867800
				-29.22989000 -1.47213100 -17.34735000 / 0.00000000 0.00000000 -1.00000000 / 23 34 22 255 / 0.49786380 0.00450130
				-28.95882000 -1.39934500 -17.34149000 / 0.00000000 0.00000000 1.00000000 / 33 48 31 255 / 0.00167850 0.00936890
				-28.95882000 -1.39934500 -17.34149000 / 0.00000000 0.00000000 1.00000000 / 33 48 31 255 / 0.00167850 0.00936890
				-29.22989000 -1.47213100 -17.34149000 / 0.00000000 0.00000000 1.00000000 / 44 63 41 255 / 0.00209040 0.49356080
				-29.12765000 -1.85167600 -17.34149000 / 0.00000000 0.00000000 1.00000000 / 33 48 31 255 / 0.49826050 0.48867800
				-29.12765000 -1.85167600 -17.34149000 / 0.00000000 0.00000000 1.00000000 / 33 48 31 255 / 0.49826050 0.48867800
				-28.85657000 -1.77888600 -17.34149000 / 0.00000000 0.00000000 1.00000000 / 20 29 19 255 / 0.49786380 0.00450130
				-28.85657000 -1.77888600 -17.34149000 / -0.23307720 -0.97245830 0.00000000 / 49 70 46 255 / 0.50877380 0.90536500
				-28.85657000 -1.77888600 -17.34149000 / -0.23307720 -0.97245830 0.00000000 / 49 70 46 255 / 0.50877380 0.90536500
				-29.12765000 -1.85167600 -17.34149000 / -0.23307720 -0.97245830 0.00000000 / 64 93 62 255 / 0.78536990 0.90536500
				-29.12765000 -1.85167600 -17.34735000 / -0.23307720 -0.97245830 0.00000000 / 49 70 46 255 / 0.78536990 0.89775080
				-29.12765000 -1.85167600 -17.34735000 / -0.23307720 -0.97245830 0.00000000 / 49 70 46 255 / 0.78536990 0.89775080
				-28.85657000 -1.77888600 -17.34735000 / -0.23307720 -0.97245830 0.00000000 / 26 37 24 255 / 0.50877380 0.89775080
				-28.95882000 -1.39934500 -17.34149000 / 0.97261450 -0.23242420 0.00000000 / 27 40 26 255 / 0.50877380 0.90536500
				-28.95882000 -1.39934500 -17.34149000 / 0.97261450 -0.23242420 0.00000000 / 27 40 26 255 / 0.50877380 0.90536500
				-28.85657000 -1.77888600 -17.34149000 / 0.97261450 -0.23242420 0.00000000 / 8 11 7 255 / 0.78536990 0.90536500
				-28.85657000 -1.77888600 -17.34735000 / 0.97261450 -0.23242420 0.00000000 / 27 40 26 255 / 0.78536990 0.89775080
				-28.85657000 -1.77888600 -17.34735000 / 0.97261450 -0.23242420 0.00000000 / 27 40 26 255 / 0.78536990 0.89775080
				-28.95882000 -1.39934500 -17.34735000 / 0.97261450 -0.23242420 0.00000000 / 42 61 40 255 / 0.50877380 0.89775080
				-29.22989000 -1.47213100 -17.34149000 / 0.23307720 0.97245830 0.00000000 / 64 92 61 255 / 0.12875370 0.43937680
				-29.22989000 -1.47213100 -17.34149000 / 0.23307720 0.97245830 0.00000000 / 64 92 61 255 / 0.12875370 0.43937680
				-28.95882000 -1.39934500 -17.34149000 / 0.23307720 0.97245830 0.00000000 / 64 93 62 255 / 0.32606510 0.43937680
				-28.95882000 -1.39934500 -17.34735000 / 0.23307720 0.97245830 0.00000000 / 64 92 61 255 / 0.32606510 0.43174740
				-28.95882000 -1.39934500 -17.34735000 / 0.23307720 0.97245830 0.00000000 / 64 92 61 255 / 0.32606510 0.43174740
				-29.22989000 -1.47213100 -17.34735000 / 0.23307720 0.97245830 0.00000000 / 63 92 61 255 / 0.12875370 0.43174740
				-29.12765000 -1.85167600 -17.34149000 / -0.97261450 0.23242420 0.00000000 / 81 118 78 255 / 0.50877380 0.90536500
				-29.12765000 -1.85167600 -17.34149000 / -0.97261450 0.23242420 0.00000000 / 81 118 78 255 / 0.50877380 0.90536500
				-29.22989000 -1.47213100 -17.34149000 / -0.97261450 0.23242420 0.00000000 / 58 85 56 255 / 0.78536990 0.90536500
				-29.22989000 -1.47213100 -17.34735000 / -0.97261450 0.23242420 0.00000000 / 81 118 78 255 / 0.78536990 0.89775080
				-29.22989000 -1.47213100 -17.34735000 / -0.97261450 0.23242420 0.00000000 / 81 118 78 255 / 0.78536990 0.89775080
				-29.12765000 -1.85167600 -17.34735000 / -0.97261450 0.23242420 0.00000000 / 93 137 92 255 / 0.50877380 0.89775080
				-29.25598000 -1.68190100 -17.34051000 / 0.00000000 0.00000000 -1.00000000 / 17 24 15 255 / 0.00167850 0.00936890
				-29.25598000 -1.68190100 -17.34051000 / 0.00000000 0.00000000 -1.00000000 / 17 24 15 255 / 0.00167850 0.00936890
				-28.97131000 -1.41113000 -17.34052000 / 0.00000000 0.00000000 -1.00000000 / 10 15 10 255 / 0.00209040 0.49356080
				-28.77803000 -1.61453700 -17.34052000 / 0.00000000 0.00000000 -1.00000000 / 17 24 15 255 / 0.49826050 0.48867800
				-28.77803000 -1.61453700 -17.34052000 / 0.00000000 0.00000000 -1.00000000 / 17 24 15 255 / 0.49826050 0.48867800
				-29.06313000 -1.88553700 -17.34052000 / 0.00000000 0.00000000 -1.00000000 / 22 33 21 255 / 0.49786380 0.00450130
				-29.25598000 -1.68190100 -17.33124000 / 0.00000000 0.00000000 1.00000000 / 93 136 91 255 / 0.50196840 0.49810790
				-29.25598000 -1.68190100 -17.33124000 / 0.00000000 0.00000000 1.00000000 / 93 136 91 255 / 0.50196840 0.49810790
				-29.06313000 -1.88553700 -17.33124000 / 0.00000000 0.00000000 1.00000000 / 93 137 92 255 / 0.50238040 0.98228450
				-28.77803000 -1.61453600 -17.33124000 / 0.00000000 0.00000000 1.00000000 / 93 136 91 255 / 0.99855040 0.97741700
				-28.77803000 -1.61453600 -17.33124000 / 0.00000000 0.00000000 1.00000000 / 93 136 91 255 / 0.99855040 0.97741700
				-28.97131000 -1.41113000 -17.33124000 / 0.00000000 0.00000000 1.00000000 / 92 135 90 255 / 0.99815370 0.49322510
				-28.97131000 -1.41113000 -17.33124000 / 0.96583430 0.25916030 0.00000000 / 77 111 74 255 / 0.50877380 0.90536500
				-28.97131000 -1.41113000 -17.33124000 / 0.96583430 0.25916030 0.00000000 / 77 111 74 255 / 0.50877380 0.90536500
				-28.77803000 -1.61453600 -17.33124000 / 0.96583430 0.25916030 0.00000000 / 75 109 72 255 / 0.78536990 0.90536500
				-28.77803000 -1.61453700 -17.34052000 / 0.96583430 0.25916030 0.00000000 / 77 111 74 255 / 0.78536990 0.89775080
				-28.77803000 -1.61453700 -17.34052000 / 0.96583430 0.25916030 0.00000000 / 77 111 74 255 / 0.78536990 0.89775080
				-28.97131000 -1.41113000 -17.34052000 / 0.96583430 0.25916030 0.00000000 / 78 114 75 255 / 0.50877380 0.89775080
				-29.25598000 -1.68190100 -17.33124000 / -0.25978110 0.96566750 0.00000000 / 68 98 65 255 / 0.50877380 0.90536500
				-29.25598000 -1.68190100 -17.33124000 / -0.25978110 0.96566750 0.00000000 / 68 98 65 255 / 0.50877380 0.90536500
				-28.97131000 -1.41113000 -17.33124000 / -0.25978110 0.96566750 0.00000000 / 75 110 73 255 / 0.78536990 0.90536500
				-28.97131000 -1.41113000 -17.34052000 / -0.25978110 0.96566750 0.00000000 / 68 98 65 255 / 0.78536990 0.89775080
				-28.97131000 -1.41113000 -17.34052000 / -0.25978110 0.96566750 0.00000000 / 68 98 65 255 / 0.78536990 0.89775080
				-29.25598000 -1.68190100 -17.34051000 / -0.25978110 0.96566750 0.00000000 / 58 84 55 255 / 0.50877380 0.89775080
				-29.06313000 -1.88553700 -17.33124000 / -0.96624070 -0.25764110 0.00000000 / 71 103 68 255 / 0.12875370 0.43937680
				-29.06313000 -1.88553700 -17.33124000 / -0.96624070 -0.25764110 0.00000000 / 71 103 68 255 / 0.12875370 0.43937680
				-29.25598000 -1.68190100 -17.33124000 / -0.96624070 -0.25764110 0.00000000 / 68 100 66 255 / 0.32606510 0.43937680
				-29.25598000 -1.68190100 -17.34051000 / -0.96624070 -0.25764110 0.00000000 / 71 103 68 255 / 0.32606510 0.43174740
				-29.25598000 -1.68190100 -17.34051000 / -0.96624070 -0.25764110 0.00000000 / 71 103 68 255 / 0.32606510 0.43174740
				-29.06313000 -1.88553700 -17.34052000 / -0.96624070 -0.25764110 0.00000000 / 73 106 70 255 / 0.12875370 0.43174740
				-28.77803000 -1.61453600 -17.33124000 / 0.25939840 -0.96577040 0.00000000 / 71 103 68 255 / 0.50877380 0.90536500
				-28.77803000 -1.61453600 -17.33124000 / 0.25939840 -0.96577040 0.00000000 / 71 103 68 255 / 0.50877380 0.90536500
				-29.06313000 -1.88553700 -17.33124000 / 0.25939840 -0.96577040 0.00000000 / 74 108 72 255 / 0.78536990 0.90536500
				-29.06313000 -1.88553700 -17.34052000 / 0.25939840 -0.96577040 0.00000000 / 71 103 68 255 / 0.78536990 0.89775080
				-29.06313000 -1.88553700 -17.34052000 / 0.25939840 -0.96577040 0.00000000 / 71 103 68 255 / 0.78536990 0.89775080
				-28.77803000 -1.61453700 -17.34052000 / 0.25939840 -0.96577040 0.00000000 / 67 97 64 255 / 0.50877380 0.89775080
				-29.25338000 -0.69750960 -17.09100000 / 0.00000000 0.00000000 -1.00000000 / 17 24 15 255 / 0.00167850 0.00936890
				-29.25338000 -0.69750960 -17.09100000 / 0.00000000 0.00000000 -1.00000000 / 17 24 15 255 / 0.00167850 0.00936890
				-29.39696000 -1.06333900 -17.09100000 / 0.00000000 0.00000000 -1.00000000 / 10 15 10 255 / 0.00209040 0.49356080
				-29.65826000 -0.96078320 -17.09100000 / 0.00000000 0.00000000 -1.00000000 / 17 24 15 255 / 0.49826050 0.48867800
				-29.65826000 -0.96078320 -17.09100000 / 0.00000000 0.00000000 -1.00000000 / 17 24 15 255 / 0.49826050 0.48867800
				-29.51425000 -0.59472300 -17.09100000 / 0.00000000 0.00000000 -1.00000000 / 22 33 21 255 / 0.49786380 0.00450130
				-29.25338000 -0.69751130 -17.08124000 / 0.00000000 0.00000000 1.00000000 / 93 136 91 255 / 0.50196840 0.49810790
				-29.25338000 -0.69751130 -17.08124000 / 0.00000000 0.00000000 1.00000000 / 93 136 91 255 / 0.50196840 0.49810790
				-29.51425000 -0.59472300 -17.08124000 / 0.00000000 0.00000000 1.00000000 / 93 137 92 255 / 0.50238040 0.98228450
				-29.65826000 -0.96078680 -17.08124000 / 0.00000000 0.00000000 1.00000000 / 93 136 91 255 / 0.99855040 0.97741700
				-29.65826000 -0.96078680 -17.08124000 / 0.00000000 0.00000000 1.00000000 / 93 136 91 255 / 0.99855040 0.97741700
				-29.39696000 -1.06333900 -17.08124000 / 0.00000000 0.00000000 1.00000000 / 92 135 90 255 / 0.99815370 0.49322510
				-29.39696000 -1.06333900 -17.08124000 / -0.76541540 -0.64353640 0.00000000 / 77 111 74 255 / 0.50877380 0.90536500
				-29.39696000 -1.06333900 -17.08124000 / -0.76541540 -0.64353640 0.00000000 / 77 111 74 255 / 0.50877380 0.90536500
				-29.65826000 -0.96078680 -17.08124000 / -0.76541540 -0.64353640 0.00000000 / 75 109 72 255 / 0.78536990 0.90536500
				-29.65826000 -0.96078320 -17.09100000 / -0.76541840 -0.64353290 0.00000000 / 77 111 74 255 / 0.78536990 0.89775080
				-29.65826000 -0.96078320 -17.09100000 / -0.76541840 -0.64353290 0.00000000 / 77 111 74 255 / 0.78536990 0.89775080
				-29.39696000 -1.06333900 -17.09100000 / -0.76541540 -0.64353640 0.00000000 / 78 114 75 255 / 0.50877380 0.89775080
				-29.25338000 -0.69751130 -17.08124000 / 0.64353940 -0.76541300 0.00000000 / 68 98 65 255 / 0.50877380 0.90536500
				-29.25338000 -0.69751130 -17.08124000 / 0.64353940 -0.76541300 0.00000000 / 68 98 65 255 / 0.50877380 0.90536500
				-29.39696000 -1.06333900 -17.08124000 / 0.64354230 -0.76541050 0.00000000 / 75 110 73 255 / 0.78536990 0.90536500
				-29.39696000 -1.06333900 -17.09100000 / 0.64354230 -0.76541050 0.00000000 / 68 98 65 255 / 0.78536990 0.89775080
				-29.39696000 -1.06333900 -17.09100000 / 0.64354230 -0.76541050 0.00000000 / 68 98 65 255 / 0.78536990 0.89775080
				-29.25338000 -0.69750960 -17.09100000 / 0.64353940 -0.76541300 0.00000000 / 58 84 55 255 / 0.50877380 0.89775080
				-29.51425000 -0.59472300 -17.08124000 / 0.76618310 0.64262250 0.00000000 / 71 103 68 255 / 0.12875370 0.43937680
				-29.51425000 -0.59472300 -17.08124000 / 0.76618310 0.64262250 0.00000000 / 71 103 68 255 / 0.12875370 0.43937680
				-29.25338000 -0.69751130 -17.08124000 / 0.76618310 0.64262250 0.00000000 / 68 100 66 255 / 0.32606510 0.43937680
				-29.25338000 -0.69750960 -17.09100000 / 0.76618310 0.64262250 0.00000000 / 71 103 68 255 / 0.32606510 0.43174740
				-29.25338000 -0.69750960 -17.09100000 / 0.76618310 0.64262250 0.00000000 / 71 103 68 255 / 0.32606510 0.43174740
				-29.51425000 -0.59472300 -17.09100000 / 0.76618310 0.64262250 0.00000000 / 73 106 70 255 / 0.12875370 0.43174740
				-29.65826000 -0.96078680 -17.08124000 / -0.64296900 0.76589210 0.00000000 / 71 103 68 255 / 0.50877380 0.90536500
				-29.65826000 -0.96078680 -17.08124000 / -0.64296900 0.76589210 0.00000000 / 71 103 68 255 / 0.50877380 0.90536500
				-29.51425000 -0.59472300 -17.08124000 / -0.64296900 0.76589210 0.00000000 / 74 108 72 255 / 0.78536990 0.90536500
				-29.51425000 -0.59472300 -17.09100000 / -0.64296900 0.76589210 0.00000000 / 71 103 68 255 / 0.78536990 0.89775080
				-29.51425000 -0.59472300 -17.09100000 / -0.64296900 0.76589210 0.00000000 / 71 103 68 255 / 0.78536990 0.89775080
				-29.65826000 -0.96078320 -17.09100000 / -0.64296900 0.76589210 0.00000000 / 67 97 64 255 / 0.50877380 0.89775080
				-29.17733000 -1.30911100 -17.09393000 / 0.00000000 0.00000000 -1.00000000 / 64 93 61 255 / 0.49330140 0.00450130
				-29.17733000 -1.30911100 -17.09393000 / 0.00000000 0.00000000 -1.00000000 / 64 93 61 255 / 0.49330140 0.00450130
				-28.90719000 -1.59468600 -17.09393000 / 0.00000000 0.00000000 -1.00000000 / 62 90 59 255 / 0.00167850 0.00489810
				-29.11105000 -1.78710200 -17.09394000 / 0.00000000 0.00000000 -1.00000000 / 64 93 61 255 / 0.00663760 0.49356080
				-29.11105000 -1.78710200 -17.09394000 / 0.00000000 0.00000000 -1.00000000 / 64 93 61 255 / 0.00663760 0.49356080
				-29.38120000 -1.50153300 -17.09394000 / 0.00000000 0.00000000 -1.00000000 / 66 96 63 255 / 0.49826050 0.49316410
				-29.17732000 -1.30911200 -17.08319000 / 0.00000000 0.00000000 1.00000000 / 66 96 64 255 / 0.00167850 0.00936890
				-29.17732000 -1.30911200 -17.08319000 / 0.00000000 0.00000000 1.00000000 / 66 96 64 255 / 0.00167850 0.00936890
				-29.38119000 -1.50153500 -17.08319000 / 0.00000000 0.00000000 1.00000000 / 68 98 65 255 / 0.00209040 0.49356080
				-29.11105000 -1.78710200 -17.08319000 / 0.00000000 0.00000000 1.00000000 / 66 96 64 255 / 0.49826050 0.48867800
				-29.11105000 -1.78710200 -17.08319000 / 0.00000000 0.00000000 1.00000000 / 66 96 64 255 / 0.49826050 0.48867800
				-28.90719000 -1.59468600 -17.08319000 / 0.00000000 0.00000000 1.00000000 / 65 94 62 255 / 0.49786380 0.00450130
				-28.90719000 -1.59468600 -17.08319000 / 0.25596460 -0.96668620 0.00000000 / 65 94 62 255 / 0.50877380 0.90536500
				-28.90719000 -1.59468600 -17.08319000 / 0.25596460 -0.96668620 0.00000000 / 65 94 62 255 / 0.50877380 0.90536500
				-29.11105000 -1.78710200 -17.08319000 / 0.25596460 -0.96668620 0.00000000 / 60 86 57 255 / 0.78536990 0.90536500
				-29.11105000 -1.78710200 -17.09394000 / 0.25596460 -0.96668620 0.00000000 / 65 94 62 255 / 0.78536990 0.89775080
				-29.11105000 -1.78710200 -17.09394000 / 0.25596460 -0.96668620 0.00000000 / 65 94 62 255 / 0.78536990 0.89775080
				-28.90719000 -1.59468600 -17.09393000 / 0.25596460 -0.96668620 0.00000000 / 69 101 67 255 / 0.50877380 0.89775080
				-29.17732000 -1.30911200 -17.08319000 / 0.96641050 0.25700380 0.00000000 / 76 111 74 255 / 0.50877380 0.90536500
				-29.17732000 -1.30911200 -17.08319000 / 0.96641050 0.25700380 0.00000000 / 76 111 74 255 / 0.50877380 0.90536500
				-28.90719000 -1.59468600 -17.08319000 / 0.96641050 0.25700380 0.00000000 / 74 108 72 255 / 0.78536990 0.90536500
				-28.90719000 -1.59468600 -17.09393000 / 0.96641050 0.25700380 0.00000000 / 76 111 74 255 / 0.78536990 0.89775080
				-28.90719000 -1.59468600 -17.09393000 / 0.96641050 0.25700380 0.00000000 / 76 111 74 255 / 0.78536990 0.89775080
				-29.17733000 -1.30911100 -17.09393000 / 0.96641050 0.25700380 0.00000000 / 79 114 76 255 / 0.50877380 0.89775080
				-29.38119000 -1.50153500 -17.08319000 / -0.25596460 0.96668620 0.00000000 / 64 94 62 255 / 0.12875370 0.43937680
				-29.38119000 -1.50153500 -17.08319000 / -0.25596460 0.96668620 0.00000000 / 64 94 62 255 / 0.12875370 0.43937680
				-29.17732000 -1.30911200 -17.08319000 / -0.25596760 0.96668540 0.00000000 / 57 82 54 255 / 0.32606510 0.43937680
				-29.17733000 -1.30911100 -17.09393000 / -0.25596760 0.96668540 0.00000000 / 64 94 62 255 / 0.32606510 0.43174740
				-29.17733000 -1.30911100 -17.09393000 / -0.25596760 0.96668540 0.00000000 / 64 94 62 255 / 0.32606510 0.43174740
				-29.38120000 -1.50153300 -17.09394000 / -0.25596460 0.96668620 0.00000000 / 71 103 68 255 / 0.12875370 0.43174740
				-29.11105000 -1.78710200 -17.08319000 / -0.96641050 -0.25700380 0.00000000 / 80 117 77 255 / 0.50877380 0.90536500
				-29.11105000 -1.78710200 -17.08319000 / -0.96641050 -0.25700380 0.00000000 / 80 117 77 255 / 0.50877380 0.90536500
				-29.38119000 -1.50153500 -17.08319000 / -0.96641050 -0.25700380 0.00000000 / 77 113 75 255 / 0.78536990 0.90536500
				-29.38120000 -1.50153300 -17.09394000 / -0.96641050 -0.25700380 0.00000000 / 80 117 77 255 / 0.78536990 0.89775080
				-29.38120000 -1.50153300 -17.09394000 / -0.96641050 -0.25700380 0.00000000 / 80 117 77 255 / 0.78536990 0.89775080
				-29.11105000 -1.78710200 -17.09394000 / -0.96641050 -0.25700380 0.00000000 / 82 120 80 255 / 0.50877380 0.89775080
			}
		}
		Geometry
		{
			ShaderIndex 6
			Flags -
			VertexDeclaration N51263BB5
			Indices 48
			{
				0 2 3 4 5 1 6 8 9 10 11 7 12 14 15
				16 17 13 18 20 21 22 23 19 24 26 27 28 29 25
				30 32 33 34 35 31 36 38 39 40 41 37 42 44 45
				46 47 43
			}
			Vertices 48
			{
				-29.93246000 -0.70353900 -17.09100000 / 0.00000000 0.00000000 1.00000000 / 91 132 88 25 / 0.02062990 0.00000000 / 0.87872820 0.47732240 0.00000000 1.00000000
				-29.93246000 -0.70353900 -17.09100000 / 0.00000000 0.00000000 1.00000000 / 91 132 88 25 / 0.02062990 0.00000000 / 0.87872820 0.47732240 0.00000000 1.00000000
				-29.19108000 -2.06840000 -17.09100000 / 0.00000000 0.00000000 1.00000000 / 93 137 91 25 / 0.02062990 1.00000000 / 0.87872820 0.47732240 0.00000000 1.00000000
				-27.90903000 -1.37199700 -17.09100000 / 0.00000000 0.00000000 1.00000000 / 91 132 88 25 / 0.97937010 1.00000000 / 0.87872820 0.47732240 0.00000000 1.00000000
				-27.90903000 -1.37199700 -17.09100000 / 0.00000000 0.00000000 1.00000000 / 91 132 88 25 / 0.97937010 1.00000000 / 0.87872820 0.47732240 0.00000000 1.00000000
				-28.65042000 -0.00713610 -17.09100000 / 0.00000000 0.00000000 1.00000000 / 87 127 85 25 / 0.97937010 0.00000000 / 0.87872820 0.47732240 0.00000000 1.00000000
				-27.90903000 -1.37199700 -17.09100000 / 0.00000000 0.00000000 -1.00000000 / 91 132 88 25 / 0.97937010 1.00000000 / 0.87872820 0.47732240 0.00000000 -1.00000000
				-27.90903000 -1.37199700 -17.09100000 / 0.00000000 0.00000000 -1.00000000 / 91 132 88 25 / 0.97937010 1.00000000 / 0.87872820 0.47732240 0.00000000 -1.00000000
				-29.19108000 -2.06840000 -17.09100000 / 0.00000000 0.00000000 -1.00000000 / 93 137 91 25 / 0.02062990 1.00000000 / 0.87872820 0.47732240 0.00000000 -1.00000000
				-29.93246000 -0.70353900 -17.09100000 / 0.00000000 0.00000000 -1.00000000 / 91 132 88 25 / 0.02062990 0.00000000 / 0.87872820 0.47732240 0.00000000 -1.00000000
				-29.93246000 -0.70353900 -17.09100000 / 0.00000000 0.00000000 -1.00000000 / 91 132 88 25 / 0.02062990 0.00000000 / 0.87872820 0.47732240 0.00000000 -1.00000000
				-28.65042000 -0.00713610 -17.09100000 / 0.00000000 0.00000000 -1.00000000 / 87 127 85 25 / 0.97937010 0.00000000 / 0.87872820 0.47732240 0.00000000 -1.00000000
				-29.93247000 -0.70353820 -17.11151000 / 0.00000000 1.00000000 0.00000000 / 69 101 67 127 / 0.97937010 0.33332830 / -1.00000000 0.00000000 -0.00000300 1.00000000
				-29.93247000 -0.70353820 -17.11151000 / 0.00000000 1.00000000 0.00000000 / 69 101 67 127 / 0.97937010 0.33332830 / -1.00000000 0.00000000 -0.00000300 1.00000000
				-29.93246000 -0.70353900 -17.09100000 / 0.00000000 1.00000000 0.00000000 / 69 101 67 127 / 0.97937010 0.00000000 / -1.00000000 0.00000000 -0.00000300 1.00000000
				-28.65042000 -0.00713610 -17.09100000 / 0.00000000 1.00000000 0.00000000 / 69 101 67 127 / 0.02062990 0.00000000 / -1.00000000 0.00000000 -0.00000300 1.00000000
				-28.65042000 -0.00713610 -17.09100000 / 0.00000000 1.00000000 0.00000000 / 69 101 67 127 / 0.02062990 0.00000000 / -1.00000000 0.00000000 -0.00000300 1.00000000
				-28.65042000 -0.00713520 -17.11150000 / 0.00000000 1.00000000 0.00000000 / 70 102 68 127 / 0.02062990 0.33332830 / -1.00000000 0.00000000 -0.00000300 1.00000000
				-28.65042000 -0.00713610 -17.09100000 / 0.00000000 -1.00000000 0.00000000 / 69 101 67 127 / 0.02062990 0.00000000 / -1.00000000 0.00000000 -0.00000300 -1.00000000
				-28.65042000 -0.00713610 -17.09100000 / 0.00000000 -1.00000000 0.00000000 / 69 101 67 127 / 0.02062990 0.00000000 / -1.00000000 0.00000000 -0.00000300 -1.00000000
				-29.93246000 -0.70353900 -17.09100000 / 0.00000000 -1.00000000 0.00000000 / 69 101 67 127 / 0.97937010 0.00000000 / -1.00000000 0.00000000 -0.00000300 -1.00000000
				-29.93247000 -0.70353820 -17.11151000 / 0.00000000 -1.00000000 0.00000000 / 69 101 67 127 / 0.97937010 0.33332830 / -1.00000000 0.00000000 -0.00000300 -1.00000000
				-29.93247000 -0.70353820 -17.11151000 / 0.00000000 -1.00000000 0.00000000 / 69 101 67 127 / 0.97937010 0.33332830 / -1.00000000 0.00000000 -0.00000300 -1.00000000
				-28.65042000 -0.00713520 -17.11150000 / 0.00000000 -1.00000000 0.00000000 / 70 102 68 127 / 0.02062990 0.33332830 / -1.00000000 0.00000000 -0.00000300 -1.00000000
				-27.90903000 -1.37199700 -17.11151000 / 0.00000000 -1.00000000 0.00000000 / 66 97 64 127 / 0.97937010 0.33332830 / 1.00000000 0.00000000 0.00000150 1.00000000
				-27.90903000 -1.37199700 -17.11151000 / 0.00000000 -1.00000000 0.00000000 / 66 97 64 127 / 0.97937010 0.33332830 / 1.00000000 0.00000000 0.00000150 1.00000000
				-27.90903000 -1.37199700 -17.09100000 / 0.00000000 -1.00000000 0.00000000 / 66 96 64 127 / 0.97937010 0.00000000 / 1.00000000 0.00000000 0.00000150 1.00000000
				-29.19108000 -2.06840000 -17.09100000 / 0.00000000 -1.00000000 0.00000000 / 66 97 64 127 / 0.02062990 0.00000000 / 1.00000000 0.00000000 0.00000150 1.00000000
				-29.19108000 -2.06840000 -17.09100000 / 0.00000000 -1.00000000 0.00000000 / 66 97 64 127 / 0.02062990 0.00000000 / 1.00000000 0.00000000 0.00000150 1.00000000
				-29.19108000 -2.06840000 -17.11151000 / 0.00000000 -1.00000000 0.00000000 / 67 97 64 127 / 0.02062990 0.33332830 / 1.00000000 0.00000000 0.00000150 1.00000000
				-29.19108000 -2.06840000 -17.09100000 / 0.00000000 1.00000000 0.00000000 / 66 97 64 127 / 0.02062990 0.00000000 / 1.00000000 0.00000000 0.00000150 -1.00000000
				-29.19108000 -2.06840000 -17.09100000 / 0.00000000 1.00000000 0.00000000 / 66 97 64 127 / 0.02062990 0.00000000 / 1.00000000 0.00000000 0.00000150 -1.00000000
				-27.90903000 -1.37199700 -17.09100000 / 0.00000000 1.00000000 0.00000000 / 66 96 64 127 / 0.97937010 0.00000000 / 1.00000000 0.00000000 0.00000150 -1.00000000
				-27.90903000 -1.37199700 -17.11151000 / 0.00000000 1.00000000 0.00000000 / 66 97 64 127 / 0.97937010 0.33332830 / 1.00000000 0.00000000 0.00000150 -1.00000000
				-27.90903000 -1.37199700 -17.11151000 / 0.00000000 1.00000000 0.00000000 / 66 97 64 127 / 0.97937010 0.33332830 / 1.00000000 0.00000000 0.00000150 -1.00000000
				-29.19108000 -2.06840000 -17.11151000 / 0.00000000 1.00000000 0.00000000 / 67 97 64 127 / 0.02062990 0.33332830 / 1.00000000 0.00000000 0.00000150 -1.00000000
				-29.93247000 -0.70353820 -17.11151000 / 0.00000000 0.00000000 -1.00000000 / 60 87 57 25 / 0.02062990 0.33332830 / 1.00000000 0.00000000 0.00000000 1.00000000
				-29.93247000 -0.70353820 -17.11151000 / 0.00000000 0.00000000 -1.00000000 / 60 87 57 25 / 0.02062990 0.33332830 / 1.00000000 0.00000000 0.00000000 1.00000000
				-28.65042000 -0.00713520 -17.11150000 / 0.00000000 0.00000000 -1.00000000 / 58 84 55 25 / 0.97937010 0.33332830 / 1.00000000 0.00000000 0.00000000 1.00000000
				-27.90903000 -1.37199700 -17.11151000 / 0.00000000 0.00000000 -1.00000000 / 60 87 57 25 / 0.97937010 0.33332830 / 1.00000000 0.00000000 0.00000000 1.00000000
				-27.90903000 -1.37199700 -17.11151000 / 0.00000000 0.00000000 -1.00000000 / 60 87 57 25 / 0.97937010 0.33332830 / 1.00000000 0.00000000 0.00000000 1.00000000
				-29.19108000 -2.06840000 -17.11151000 / 0.00000000 0.00000000 -1.00000000 / 62 90 59 25 / 0.02062990 0.33332830 / 1.00000000 0.00000000 0.00000000 1.00000000
				-27.90903000 -1.37199700 -17.11151000 / 0.00000000 0.00000000 1.00000000 / 60 87 57 25 / 0.97937010 0.33332830 / 1.00000000 0.00000000 0.00000000 1.00000000
				-27.90903000 -1.37199700 -17.11151000 / 0.00000000 0.00000000 1.00000000 / 60 87 57 25 / 0.97937010 0.33332830 / 1.00000000 0.00000000 0.00000000 1.00000000
				-28.65042000 -0.00713520 -17.11150000 / 0.00000000 0.00000000 1.00000000 / 58 84 55 25 / 0.97937010 0.33332830 / 1.00000000 0.00000000 0.00000000 1.00000000
				-29.93247000 -0.70353820 -17.11151000 / 0.00000000 0.00000000 1.00000000 / 60 87 57 25 / 0.02062990 0.33332830 / 1.00000000 0.00000000 0.00000000 1.00000000
				-29.93247000 -0.70353820 -17.11151000 / 0.00000000 0.00000000 1.00000000 / 60 87 57 25 / 0.02062990 0.33332830 / 1.00000000 0.00000000 0.00000000 1.00000000
				-29.19108000 -2.06840000 -17.11151000 / 0.00000000 0.00000000 1.00000000 / 62 90 59 25 / 0.02062990 0.33332830 / 1.00000000 0.00000000 0.00000000 1.00000000
			}
		}
	}
}
