Version 165 32
{
	Locked False
	Skinned False
	BoneCount 0
	Mask 255
	Bounds
	{
		Aabb
		{
			Min -12.22929000 18.46802000 -16.36890000
			Max -11.43873000 18.90899000 -13.74927000
		}
		Aabb
		{
			Min -12.19612000 18.49687000 -16.33814000
			Max -11.47324000 18.88274000 -13.78003000
		}
		Aabb
		{
			Min -12.22929000 18.46802000 -16.36890000
			Max -11.43873000 18.90899000 -13.74927000
		}
	}
	Geometries
	{
		Geometry
		{
			ShaderIndex 0
			Flags -
			VertexDeclaration N209731BE
			Indices 60
			{
				0 3 15 27 39 51 53 54 56 11 22 33 44 55 57
				58 59 1 2 4 5 6 7 8 9 10 12 13 14 16
				17 18 19 20 21 23 24 25 26 28 29 30 31 32 34
				35 36 37 38 40 41 42 43 45 46 47 48 49 50 52
			}
			Vertices 60
			{
				-12.08000000 18.55276000 -13.90064000 / 0.45825950 -0.88867070 -0.01621310 / 24 135 0 255 / 0.33334350 -0.00006100
				-11.48023000 18.88119000 -14.93531000 / 0.45985030 -0.88784860 -0.01621210 / 27 144 0 255 / 0.49505610 0.60859680
				-12.08000000 18.55276000 -13.90064000 / 0.45825730 -0.88866640 -0.01649920 / 24 135 0 255 / 0.48031620 0.59313970
				-12.08519000 18.56601000 -14.77124000 / 0.45825950 -0.88867070 -0.01621310 / 30 141 0 255 / 0.33334350 0.49874880
				-11.57917000 18.81096000 -13.89869000 / 0.45825730 -0.88866640 -0.01649920 / 23 140 0 255 / 0.49246220 0.59310910
				-11.47324000 18.86337000 -13.78003000 / 0.45825730 -0.88866640 -0.01649920 / 22 129 0 255 / 0.49501040 0.59133910
				-12.19113000 18.51469000 -14.93824000 / 0.45824920 -0.88865040 -0.01754790 / 32 145 0 255 / 0.47779840 0.60864260
				-11.48022000 18.88118000 -14.93531000 / 0.45824920 -0.88865040 -0.01754790 / 27 144 0 255 / 0.49505610 0.60859680
				-11.58391000 18.82444000 -14.76929000 / 0.45824920 -0.88865040 -0.01754790 / 28 144 0 255 / 0.49250790 0.60612490
				-11.47324000 18.86337000 -13.78003000 / 0.45825670 -0.88866510 -0.01659450 / 22 129 0 255 / 0.49501040 0.59133910
				-12.18413000 18.49687000 -13.78296000 / 0.45825670 -0.88866510 -0.01659450 / 28 131 0 255 / 0.47775270 0.59138490
				-11.58895000 18.82568000 -16.17114000 / 0.45824210 -0.88882740 0.00000000 / 34 144 0 255 / 0.66590880 0.99967950
				-12.08000000 18.55276000 -13.90064000 / 0.45825670 -0.88866510 -0.01659450 / 24 135 0 255 / 0.48031620 0.59313970
				-11.58392000 18.82444000 -14.76929000 / 0.45824920 -0.88865040 -0.01754790 / 28 144 0 255 / 0.49250790 0.60612490
				-12.08519000 18.56601000 -14.77124000 / 0.45824920 -0.88865040 -0.01754790 / 30 141 0 255 / 0.48034670 0.60614010
				-11.58392000 18.82444000 -14.76929000 / 0.45825950 -0.88867070 -0.01621310 / 28 144 0 255 / 0.66642760 0.49874880
				-12.19113000 18.51469000 -14.93824000 / 0.45824920 -0.88865040 -0.01754790 / 32 145 0 255 / 0.47779840 0.60864260
				-12.08519000 18.56601000 -14.77124000 / 0.45856320 -0.88851400 -0.01621380 / 30 141 0 255 / 0.48034670 0.60614010
				-12.08000000 18.55276000 -13.90064000 / 0.45856320 -0.88851400 -0.01621380 / 24 135 0 255 / 0.48031620 0.59313970
				-12.18413000 18.49687000 -13.78296000 / 0.45856320 -0.88851400 -0.01621380 / 28 131 0 255 / 0.47775270 0.59138490
				-12.18413000 18.49687000 -13.78296000 / 0.45689140 -0.88936950 -0.01649810 / 28 131 0 255 / 0.47775270 0.59138490
				-12.19112000 18.51469000 -14.93824000 / 0.45689140 -0.88936950 -0.01649810 / 32 145 0 255 / 0.47779840 0.60864260
				-11.58374000 18.82837000 -15.30054000 / 0.45824210 -0.88882740 0.00000000 / 33 141 0 255 / 0.66590880 0.50062560
				-12.08519000 18.56601000 -14.77124000 / 0.45689140 -0.88936950 -0.01649810 / 30 141 0 255 / 0.48034670 0.60614010
				-11.48479000 18.87938000 -16.33814000 / 0.45824210 -0.88882740 0.00000000 / 29 145 0 255 / 0.49505610 0.60859680
				-11.47828000 18.88274000 -15.18286000 / 0.45824210 -0.88882740 0.00000000 / 33 138 0 255 / 0.49501040 0.59133910
				-11.58374000 18.82837000 -15.30054000 / 0.45824210 -0.88882740 0.00000000 / 33 141 0 255 / 0.49246220 0.59310910
				-11.58392000 18.82444000 -14.76929000 / 0.45825880 -0.88866920 -0.01630850 / 28 144 0 255 / 0.66642760 0.49874880
				-11.58374000 18.82837000 -15.30054000 / 0.45824210 -0.88882740 0.00000000 / 33 141 0 255 / 0.49246220 0.59310910
				-11.58895000 18.82568000 -16.17114000 / 0.45824210 -0.88882740 0.00000000 / 34 144 0 255 / 0.49250790 0.60612490
				-11.48479000 18.87938000 -16.33814000 / 0.45824210 -0.88882740 0.00000000 / 29 145 0 255 / 0.49505610 0.60859680
				-12.08501000 18.56994000 -15.29761000 / 0.45824210 -0.88882740 0.00000000 / 38 135 0 255 / 0.48031620 0.59313970
				-11.58374000 18.82837000 -15.30054000 / 0.45824210 -0.88882740 0.00000000 / 33 141 0 255 / 0.49246220 0.59310910
				-12.08501000 18.56994000 -15.29761000 / 0.45824210 -0.88882740 0.00000000 / 38 135 0 255 / 0.33448790 0.50062560
				-11.47828000 18.88274000 -15.18286000 / 0.45824210 -0.88882740 0.00000000 / 33 138 0 255 / 0.49501040 0.59133910
				-12.19611000 18.51266000 -16.33423000 / 0.45824210 -0.88882740 0.00000000 / 32 147 0 255 / 0.47779840 0.60864260
				-11.48479000 18.87938000 -16.33814000 / 0.45824210 -0.88882740 0.00000000 / 29 145 0 255 / 0.49505610 0.60859680
				-11.58895000 18.82568000 -16.17114000 / 0.45824210 -0.88882740 0.00000000 / 34 144 0 255 / 0.49250790 0.60612490
				-11.47828000 18.88274000 -15.18286000 / 0.45824210 -0.88882740 0.00000000 / 33 138 0 255 / 0.49501040 0.59133910
				-11.57916000 18.81096000 -13.89869000 / 0.45825880 -0.88866920 -0.01630850 / 23 140 0 255 / 0.66642760 -0.00006100
				-12.18917000 18.51624000 -15.17896000 / 0.45824210 -0.88882740 0.00000000 / 37 134 0 255 / 0.47775270 0.59138490
				-12.08501000 18.56994000 -15.29761000 / 0.45824210 -0.88882740 0.00000000 / 38 135 0 255 / 0.48031620 0.59313970
				-11.58895000 18.82568000 -16.17114000 / 0.45824210 -0.88882740 0.00000000 / 34 144 0 255 / 0.49250790 0.60612490
				-12.08979000 18.56748000 -16.16822000 / 0.45824210 -0.88882740 0.00000000 / 37 142 0 255 / 0.48034670 0.60614010
				-11.48023000 18.88119000 -14.93531000 / 0.45825730 -0.88866640 -0.01649920 / 27 144 0 255 / 0.49505610 0.60859680
				-12.19612000 18.51266000 -16.33423000 / 0.45824210 -0.88882740 0.00000000 / 32 147 0 255 / 0.47779840 0.60864260
				-12.08978000 18.56748000 -16.16822000 / 0.45824210 -0.88882740 0.00000000 / 37 142 0 255 / 0.48034670 0.60614010
				-12.08501000 18.56994000 -15.29761000 / 0.45824210 -0.88882740 0.00000000 / 38 135 0 255 / 0.48031620 0.59313970
				-12.18917000 18.51624000 -15.17896000 / 0.45824210 -0.88882740 0.00000000 / 37 134 0 255 / 0.47775270 0.59138490
				-12.18917000 18.51624000 -15.17896000 / 0.45824210 -0.88882740 0.00000000 / 37 134 0 255 / 0.47775270 0.59138490
				-12.19611000 18.51266000 -16.33423000 / 0.45824210 -0.88882740 0.00000000 / 32 147 0 255 / 0.47779840 0.60864260
				-12.08000000 18.55276000 -13.90064000 / 0.45825880 -0.88866920 -0.01630850 / 24 135 0 255 / 0.33334350 -0.00006100
				-12.08978000 18.56748000 -16.16822000 / 0.45824210 -0.88882740 0.00000000 / 37 142 0 255 / 0.48034670 0.60614010
				-12.08501000 18.56994000 -15.29761000 / 0.45824210 -0.88882740 0.00000000 / 38 135 0 255 / 0.33448790 0.50062560
				-12.08979000 18.56748000 -16.16822000 / 0.45824210 -0.88882740 0.00000000 / 37 142 0 255 / 0.33448790 0.99967950
				-11.47324000 18.86337000 -13.78003000 / 0.45825730 -0.88866640 -0.01649920 / 22 129 0 255 / 0.49501040 0.59133910
				-11.58895000 18.82568000 -16.17114000 / 0.45824210 -0.88882740 0.00000000 / 34 144 0 255 / 0.66590880 0.99967950
				-11.57917000 18.81096000 -13.89869000 / 0.45825730 -0.88866640 -0.01649920 / 23 140 0 255 / 0.49246220 0.59310910
				-11.57917000 18.81096000 -13.89869000 / 0.45985030 -0.88784860 -0.01621210 / 23 140 0 255 / 0.49246220 0.59310910
				-11.58392000 18.82444000 -14.76929000 / 0.45985030 -0.88784860 -0.01621210 / 28 144 0 255 / 0.49250790 0.60612490
			}
		}
		Geometry
		{
			ShaderIndex 1
			Flags -
			VertexDeclaration N209731BE
			Indices 144
			{
				66 67 68 69 70 71 72 73 74 75 76 77 78 79 80
				81 82 83 84 85 86 87 88 89 90 91 92 93 94 95
				96 97 98 99 100 101 102 103 104 105 106 107 108 109 110
				111 112 113 114 115 116 117 118 119 120 121 122 123 124 125
				126 127 128 129 130 131 132 133 134 135 136 137 138 139 140
				141 142 143 0 1 2 3 4 5 6 7 8 9 10 11
				12 13 14 15 16 17 18 19 20 21 22 23 24 25 26
				27 28 29 30 31 32 33 34 35 36 37 38 39 40 41
				42 43 44 45 46 47 48 49 50 51 52 53 54 55 56
				57 58 59 60 61 62 63 64 65
			}
			Vertices 144
			{
				-11.47090000 18.86841000 -15.18286000 / 0.45809130 -0.88890510 0.00000000 / 37 138 0 255 / 0.21145630 0.33525090
				-11.47741000 18.86506000 -16.33814000 / 0.45809130 -0.88890510 0.00000000 / 47 136 0 255 / 0.21145630 0.89266960
				-11.45049000 18.87893000 -16.36890000 / 0.45809130 -0.88890510 0.00000000 / 40 136 0 255 / 0.23017880 0.91140750
				-11.45049000 18.87893000 -16.36890000 / 0.45816670 -0.88886630 0.00000000 / 40 136 0 255 / 0.23017880 0.91140750
				-11.44356000 18.88251000 -15.15259000 / 0.45816670 -0.88886630 0.00000000 / 39 145 0 255 / 0.23017880 0.31652830
				-11.47090000 18.86842000 -15.18286000 / 0.45816670 -0.88886630 0.00000000 / 37 138 0 255 / 0.21145630 0.33525090
				-11.48479000 18.87938000 -16.33814000 / -0.88894640 -0.45796810 0.00629440 / 33 132 0 255 / 0.20545960 0.89266960
				-11.47741000 18.86506000 -16.33814000 / -0.88894640 -0.45796810 0.00629440 / 31 128 0 255 / 0.21145630 0.89266960
				-11.47090000 18.86842000 -15.18286000 / -0.88894640 -0.45796810 0.00629440 / 33 132 0 255 / 0.21145630 0.33525090
				-11.47090000 18.86842000 -15.18286000 / -0.88875100 -0.45834720 0.00629440 / 33 132 0 255 / 0.21145630 0.33525090
				-11.47828000 18.88274000 -15.18286000 / -0.88875100 -0.45834720 0.00629440 / 36 135 0 255 / 0.20545960 0.33525090
				-11.48479000 18.87938000 -16.33814000 / -0.88875100 -0.45834720 0.00629440 / 33 132 0 255 / 0.20545960 0.89266960
				-11.45049000 18.87893000 -16.36890000 / -0.00457750 -0.00228870 -0.99998690 / 12 59 0 255 / 0.23017880 0.13072200
				-12.21564000 18.48447000 -16.36451000 / -0.00457750 -0.00228870 -0.99998690 / 12 61 0 255 / 0.23017880 0.91139220
				-12.22929000 18.51094000 -16.36450000 / -0.00457750 -0.00228870 -0.99998690 / 12 59 0 255 / 0.24122620 0.91139220
				-12.22929000 18.51094000 -16.36450000 / -0.00457750 -0.00228870 -0.99998690 / 12 59 0 255 / 0.24122620 0.91139220
				-11.46414000 18.90540000 -16.36890000 / -0.00457750 -0.00228870 -0.99998690 / 12 58 0 255 / 0.24122620 0.13072200
				-11.45049000 18.87893000 -16.36890000 / -0.00457750 -0.00228870 -0.99998690 / 12 59 0 255 / 0.23017880 0.13072200
				-11.47741000 18.86506000 -16.33814000 / 0.45824210 -0.88882740 0.00000000 / 47 136 0 255 / 0.21145630 0.14944460
				-12.18873000 18.49834000 -16.33423000 / 0.45824210 -0.88882740 0.00000000 / 56 133 0 255 / 0.21145630 0.89266960
				-12.21564000 18.48447000 -16.36451000 / 0.45824210 -0.88882740 0.00000000 / 54 132 0 255 / 0.23017880 0.91139220
				-12.21564000 18.48447000 -16.36451000 / 0.45824210 -0.88882740 0.00000000 / 54 132 0 255 / 0.23017880 0.91139220
				-11.45049000 18.87893000 -16.36890000 / 0.45824210 -0.88882740 0.00000000 / 40 136 0 255 / 0.23017880 0.13072200
				-11.47740000 18.86506000 -16.33814000 / 0.45824210 -0.88882740 0.00000000 / 47 136 0 255 / 0.21145630 0.14944460
				-11.48479000 18.87938000 -16.33814000 / 0.00429140 0.00228870 0.99998820 / 8 177 0 255 / 0.20545960 0.14944460
				-12.19611000 18.51266000 -16.33423000 / 0.00429140 0.00228870 0.99998820 / 8 190 0 255 / 0.20545960 0.89266960
				-12.18873000 18.49834000 -16.33423000 / 0.00429140 0.00228870 0.99998820 / 8 177 0 255 / 0.21145630 0.89266960
				-12.18873000 18.49834000 -16.33423000 / 0.00429140 0.00228870 0.99998820 / 8 177 0 255 / 0.21145630 0.89266960
				-11.47740000 18.86505000 -16.33814000 / 0.00429140 0.00228870 0.99998820 / 8 163 0 255 / 0.21145630 0.14944460
				-11.48479000 18.87938000 -16.33814000 / 0.00429140 0.00228870 0.99998820 / 8 177 0 255 / 0.20545960 0.14944460
				-12.20870000 18.48805000 -15.14820000 / 0.00457750 0.00228870 0.99998690 / 5 227 0 255 / 0.23017880 0.13072200
				-11.44356000 18.88251000 -15.15259000 / 0.00457750 0.00228870 0.99998690 / 5 224 0 255 / 0.23017880 0.91140750
				-11.45720000 18.90899000 -15.15259000 / 0.00457750 0.00228870 0.99998690 / 5 227 0 255 / 0.24122620 0.91140750
				-11.45720000 18.90899000 -15.15259000 / 0.00457750 0.00228870 0.99998690 / 5 227 0 255 / 0.24122620 0.91140750
				-12.22235000 18.51453000 -15.14820000 / 0.00457750 0.00228870 0.99998690 / 5 231 0 255 / 0.24122620 0.13072200
				-12.20870000 18.48805000 -15.14820000 / 0.00457750 0.00228870 0.99998690 / 5 227 0 255 / 0.23017880 0.13072200
				-12.18179000 18.50192000 -15.17896000 / 0.45824210 -0.88882740 -0.00009540 / 46 145 0 255 / 0.21145630 0.14944460
				-11.47090000 18.86842000 -15.18286000 / 0.45824210 -0.88882740 -0.00009540 / 37 138 0 255 / 0.21145630 0.89266960
				-11.44356000 18.88251000 -15.15259000 / 0.45824210 -0.88882740 -0.00009540 / 39 145 0 255 / 0.23017880 0.91140750
				-11.44356000 18.88251000 -15.15259000 / 0.45824210 -0.88882740 0.00000000 / 39 145 0 255 / 0.23017880 0.91140750
				-12.20870000 18.48805000 -15.14820000 / 0.45824210 -0.88882740 0.00000000 / 53 139 0 255 / 0.23017880 0.13072200
				-12.18179000 18.50192000 -15.17896000 / 0.45824210 -0.88882740 0.00000000 / 46 145 0 255 / 0.21145630 0.14944460
				-12.18918000 18.51624000 -15.17896000 / -0.00429140 -0.00228870 -0.99998820 / 13 83 0 255 / 0.20545960 0.14944460
				-11.47829000 18.88274000 -15.18286000 / -0.00429140 -0.00228870 -0.99998820 / 12 84 0 255 / 0.20545960 0.89266960
				-11.47090000 18.86842000 -15.18286000 / -0.00429140 -0.00228870 -0.99998820 / 13 83 0 255 / 0.21145630 0.89266960
				-11.47090000 18.86842000 -15.18286000 / -0.00429140 -0.00228870 -0.99998820 / 13 83 0 255 / 0.21145630 0.89266960
				-12.18179000 18.50192000 -15.17896000 / -0.00429140 -0.00228870 -0.99998820 / 14 83 0 255 / 0.21145630 0.14944460
				-12.18917000 18.51624000 -15.17896000 / -0.00429140 -0.00228870 -0.99998820 / 13 83 0 255 / 0.20545960 0.14944460
				-12.20870000 18.48805000 -15.14820000 / 0.45816670 -0.88886630 0.00000000 / 53 139 0 255 / 0.23017880 0.91140750
				-12.21564000 18.48447000 -16.36451000 / 0.45816670 -0.88886630 0.00000000 / 54 132 0 255 / 0.23017880 0.31652830
				-12.18873000 18.49834000 -16.33423000 / 0.45816670 -0.88886630 0.00000000 / 56 133 0 255 / 0.21145630 0.33525090
				-12.18873000 18.49834000 -16.33423000 / 0.45816670 -0.88886630 0.00000000 / 56 133 0 255 / 0.21145630 0.33525090
				-12.18179000 18.50192000 -15.17896000 / 0.45816670 -0.88886630 0.00000000 / 46 145 0 255 / 0.21145630 0.89266960
				-12.20870000 18.48805000 -15.14820000 / 0.45816670 -0.88886630 0.00000000 / 53 139 0 255 / 0.23017880 0.91140750
				-12.18917000 18.51624000 -15.17896000 / 0.88874820 0.45834570 -0.00677120 / 59 113 0 255 / 0.20545960 0.89266960
				-12.18179000 18.50192000 -15.17896000 / 0.88874820 0.45834570 -0.00677120 / 56 112 0 255 / 0.21145630 0.89266960
				-12.18873000 18.49834000 -16.33423000 / 0.88874890 0.45834600 -0.00667590 / 59 113 0 255 / 0.21145630 0.33525090
				-12.18873000 18.49834000 -16.33423000 / 0.88874890 0.45834600 -0.00667590 / 59 113 0 255 / 0.21145630 0.33525090
				-12.19612000 18.51266000 -16.33423000 / 0.88874890 0.45834600 -0.00667590 / 63 114 0 255 / 0.20545960 0.33525090
				-12.18917000 18.51624000 -15.17896000 / 0.88874820 0.45834570 -0.00677120 / 59 113 0 255 / 0.20545960 0.89266960
				-11.45049000 18.87893000 -16.36890000 / 0.88884760 0.45815710 -0.00648520 / 70 153 0 255 / 0.23017880 0.91140750
				-11.46414000 18.90540000 -16.36890000 / 0.88884760 0.45815710 -0.00648520 / 68 155 0 255 / 0.24122620 0.91140750
				-11.45720000 18.90899000 -15.15259000 / 0.88884820 0.45815730 -0.00638980 / 70 153 0 255 / 0.24122620 0.31652830
				-11.45720000 18.90899000 -15.15259000 / 0.88884820 0.45815730 -0.00638980 / 70 153 0 255 / 0.24122620 0.31652830
				-11.44356000 18.88251000 -15.15259000 / 0.88884820 0.45815730 -0.00638980 / 71 151 0 255 / 0.23017880 0.31652830
				-11.45050000 18.87893000 -16.36890000 / 0.88884760 0.45815710 -0.00648520 / 70 153 0 255 / 0.23017880 0.91140750
				-12.20387000 18.46802000 -13.75269000 / -0.88886450 -0.45816580 -0.00200280 / 21 166 0 255 / 0.23017880 0.91140750
				-12.21752000 18.49450000 -13.75220000 / -0.88886450 -0.45816580 -0.00200280 / 17 165 0 255 / 0.24122620 0.91140750
				-12.22452000 18.51340000 -14.96851000 / -0.88886450 -0.45816580 -0.00200280 / 21 166 0 255 / 0.24122620 0.31652830
				-12.22452000 18.51340000 -14.96851000 / -0.88886450 -0.45816580 -0.00200280 / 21 166 0 255 / 0.24122620 0.31652830
				-12.21087000 18.48693000 -14.96900000 / -0.88886450 -0.45816580 -0.00200280 / 24 168 0 255 / 0.23017880 0.31652830
				-12.20387000 18.46802000 -13.75269000 / -0.88886450 -0.45816580 -0.00200280 / 21 166 0 255 / 0.23017880 0.91140750
				-11.46586000 18.84904000 -13.78052000 / 0.45795360 -0.88882300 -0.01649850 / 36 145 0 255 / 0.21145630 0.33525090
				-11.47285000 18.86687000 -14.93579000 / 0.45795360 -0.88882300 -0.01649850 / 26 142 0 255 / 0.21145630 0.89266960
				-11.44573000 18.88140000 -14.96607000 / 0.45795360 -0.88882300 -0.01649850 / 29 144 0 255 / 0.23017880 0.91140750
				-11.44573000 18.88140000 -14.96607000 / 0.45894000 -0.88831410 -0.01649970 / 29 144 0 255 / 0.23017880 0.91140750
				-11.43873000 18.86249000 -13.74976000 / 0.45894000 -0.88831410 -0.01649970 / 42 151 0 255 / 0.23017880 0.31652830
				-11.46586000 18.84904000 -13.78052000 / 0.45894000 -0.88831410 -0.01649970 / 36 145 0 255 / 0.21145630 0.33525090
				-11.48023000 18.88119000 -14.93531000 / -0.88898270 -0.45793770 -0.00171660 / 24 121 0 255 / 0.20545960 0.89266960
				-11.47285000 18.86687000 -14.93579000 / -0.88898270 -0.45793770 -0.00171660 / 22 125 0 255 / 0.21145630 0.89266960
				-11.46586000 18.84905000 -13.78052000 / -0.88898270 -0.45793770 -0.00171660 / 24 121 0 255 / 0.21145630 0.33525090
				-11.46586000 18.84905000 -13.78052000 / -0.88876720 -0.45835560 -0.00171670 / 24 121 0 255 / 0.21145630 0.33525090
				-11.47324000 18.86337000 -13.78003000 / -0.88876720 -0.45835560 -0.00171670 / 26 117 0 255 / 0.20545960 0.33525090
				-11.48023000 18.88119000 -14.93531000 / -0.88876720 -0.45835560 -0.00171670 / 24 121 0 255 / 0.20545960 0.89266960
				-11.44573000 18.88140000 -14.96607000 / -0.00448240 0.01621290 -0.99985860 / 10 66 0 255 / 0.23017880 0.13072200
				-12.21087000 18.48693000 -14.96900000 / -0.00448240 0.01621290 -0.99985860 / 9 65 0 255 / 0.23017880 0.91139220
				-12.22452000 18.51340000 -14.96851000 / -0.00448240 0.01621290 -0.99985860 / 10 66 0 255 / 0.24122620 0.91139220
				-12.22452000 18.51340000 -14.96851000 / -0.00448240 0.01621290 -0.99985860 / 10 66 0 255 / 0.24122620 0.91139220
				-11.45937000 18.90787000 -14.96558000 / -0.00448240 0.01621290 -0.99985860 / 11 67 0 255 / 0.24122620 0.13072200
				-11.44573000 18.88140000 -14.96607000 / -0.00448240 0.01621290 -0.99985860 / 10 66 0 255 / 0.23017880 0.13072200
				-11.47285000 18.86687000 -14.93579000 / 0.45826020 -0.88867200 -0.01611780 / 26 142 0 255 / 0.21145630 0.14944460
				-12.18373000 18.50037000 -14.93824000 / 0.45826020 -0.88867200 -0.01611780 / 35 143 0 255 / 0.21145630 0.89266960
				-12.21087000 18.48693000 -14.96900000 / 0.45826020 -0.88867200 -0.01611780 / 28 144 0 255 / 0.23017880 0.91139220
				-12.21087000 18.48693000 -14.96900000 / 0.45826020 -0.88867200 -0.01611780 / 28 144 0 255 / 0.23017880 0.91139220
				-11.44572000 18.88140000 -14.96607000 / 0.45826020 -0.88867200 -0.01611780 / 29 144 0 255 / 0.23017880 0.13072200
				-11.47284000 18.86687000 -14.93579000 / 0.45826020 -0.88867200 -0.01611780 / 26 142 0 255 / 0.21145630 0.14944460
				-11.48022000 18.88118000 -14.93531000 / -0.00324240 -0.00171660 0.99999330 / 9 191 0 255 / 0.20545960 0.14944460
				-12.19112000 18.51469000 -14.93824000 / -0.00324240 -0.00171660 0.99999330 / 9 193 0 255 / 0.20545960 0.89266960
				-12.18374000 18.50037000 -14.93824000 / -0.00324240 -0.00171660 0.99999330 / 9 191 0 255 / 0.21145630 0.89266960
				-12.18374000 18.50037000 -14.93824000 / 0.01106260 -0.02822860 0.99954030 / 9 191 0 255 / 0.21145630 0.89266960
				-11.47285000 18.86686000 -14.93579000 / 0.01106260 -0.02822860 0.99954030 / 9 189 0 255 / 0.21145630 0.14944460
				-11.48023000 18.88119000 -14.93531000 / 0.01106260 -0.02822860 0.99954030 / 9 191 0 255 / 0.20545960 0.14944460
				-12.20387000 18.46802000 -13.75269000 / 0.00448240 -0.01621290 0.99985860 / 10 242 0 255 / 0.23017880 0.13072200
				-11.43873000 18.86249000 -13.74976000 / 0.00448240 -0.01621290 0.99985860 / 11 243 0 255 / 0.23017880 0.91140750
				-11.45238000 18.88896000 -13.74927000 / 0.00448240 -0.01621290 0.99985860 / 10 242 0 255 / 0.24122620 0.91140750
				-11.45238000 18.88896000 -13.74927000 / 0.00448240 -0.01621290 0.99985860 / 10 242 0 255 / 0.24122620 0.91140750
				-12.21752000 18.49450000 -13.75220000 / 0.00448240 -0.01621290 0.99985860 / 9 242 0 255 / 0.24122620 0.13072200
				-12.20387000 18.46802000 -13.75269000 / 0.00448240 -0.01621290 0.99985860 / 10 242 0 255 / 0.23017880 0.13072200
				-12.17675000 18.48255000 -13.78296000 / 0.45826300 -0.88867740 -0.01573640 / 44 153 0 255 / 0.21145630 0.14944460
				-11.46586000 18.84904000 -13.78052000 / 0.45826300 -0.88867740 -0.01573640 / 36 145 0 255 / 0.21145630 0.89266960
				-11.43873000 18.86249000 -13.74976000 / 0.45826300 -0.88867740 -0.01573640 / 42 151 0 255 / 0.23017880 0.91140750
				-11.43873000 18.86249000 -13.74976000 / 0.45826090 -0.88867330 -0.01602240 / 42 151 0 255 / 0.23017880 0.91140750
				-12.20387000 18.46802000 -13.75269000 / 0.45826090 -0.88867330 -0.01602240 / 42 151 0 255 / 0.23017880 0.13072200
				-12.17675000 18.48255000 -13.78296000 / 0.45826090 -0.88867330 -0.01602240 / 44 153 0 255 / 0.21145630 0.14944460
				-12.18413000 18.49687000 -13.78296000 / -0.01068100 0.02880040 -0.99952810 / 12 73 0 255 / 0.20545960 0.14944460
				-11.47324000 18.86337000 -13.78003000 / -0.01068100 0.02880040 -0.99952810 / 12 71 0 255 / 0.20545960 0.89266960
				-11.46586000 18.84904000 -13.78052000 / -0.01068100 0.02880040 -0.99952810 / 12 73 0 255 / 0.21145630 0.89266960
				-11.46586000 18.84904000 -13.78052000 / 0.00276560 0.00133510 -0.99999530 / 12 73 0 255 / 0.21145630 0.89266960
				-12.17675000 18.48255000 -13.78296000 / 0.00276560 0.00133510 -0.99999530 / 12 74 0 255 / 0.21145630 0.14944460
				-12.18413000 18.49687000 -13.78296000 / 0.00276560 0.00133510 -0.99999530 / 12 73 0 255 / 0.20545960 0.14944460
				-12.20387000 18.46802000 -13.75269000 / 0.45871240 -0.88843350 -0.01640300 / 42 151 0 255 / 0.23017880 0.91140750
				-12.21087000 18.48693000 -14.96900000 / 0.45871240 -0.88843350 -0.01640300 / 28 144 0 255 / 0.23017880 0.31652830
				-12.18374000 18.50037000 -14.93824000 / 0.45871240 -0.88843350 -0.01640300 / 35 143 0 255 / 0.21145630 0.33525090
				-12.18374000 18.50037000 -14.93824000 / 0.45764990 -0.88897940 -0.01649790 / 35 143 0 255 / 0.21145630 0.33525090
				-12.17675000 18.48255000 -13.78296000 / 0.45764990 -0.88897940 -0.01649790 / 44 153 0 255 / 0.21145630 0.89266960
				-12.20387000 18.46802000 -13.75269000 / 0.45764990 -0.88897940 -0.01649790 / 42 151 0 255 / 0.23017880 0.91140750
				-12.18413000 18.49687000 -13.78296000 / 0.88886490 0.45816600 0.00171670 / 38 116 0 255 / 0.20545960 0.89266960
				-12.17675000 18.48255000 -13.78296000 / 0.88886490 0.45816600 0.00171670 / 40 126 0 255 / 0.21145630 0.89266960
				-12.18373000 18.50037000 -14.93824000 / 0.88886490 0.45816600 0.00171670 / 38 116 0 255 / 0.21145630 0.33525090
				-12.18374000 18.50037000 -14.93824000 / 0.88886490 0.45816600 0.00171670 / 38 116 0 255 / 0.21145630 0.33525090
				-12.19112000 18.51469000 -14.93824000 / 0.88886490 0.45816600 0.00171670 / 36 105 0 255 / 0.20545960 0.33525090
				-12.18413000 18.49687000 -13.78296000 / 0.88886490 0.45816600 0.00171670 / 38 116 0 255 / 0.20545960 0.89266960
				-11.44573000 18.88140000 -14.96607000 / 0.88888450 0.45812690 0.00200260 / 36 159 0 255 / 0.23017880 0.91140750
				-11.45937000 18.90787000 -14.96558000 / 0.88888450 0.45812690 0.00200260 / 35 157 0 255 / 0.24122620 0.91140750
				-11.45238000 18.88896000 -13.74927000 / 0.88888450 0.45812690 0.00200260 / 36 159 0 255 / 0.24122620 0.31652830
				-11.45238000 18.88896000 -13.74927000 / 0.88886450 0.45816580 0.00200280 / 36 159 0 255 / 0.24122620 0.31652830
				-11.43873000 18.86249000 -13.74976000 / 0.88886450 0.45816580 0.00200280 / 38 162 0 255 / 0.23017880 0.31652830
				-11.44573000 18.88140000 -14.96607000 / 0.88886450 0.45816580 0.00200280 / 36 159 0 255 / 0.23017880 0.91140750
				-12.20870000 18.48805000 -15.14820000 / -0.88875040 -0.45834690 0.00638980 / 25 154 0 255 / 0.23017880 0.91140750
				-12.22235000 18.51453000 -15.14820000 / -0.88875040 -0.45834690 0.00638980 / 23 157 0 255 / 0.24122620 0.91140750
				-12.22929000 18.51094000 -16.36450000 / -0.88874990 -0.45834660 0.00648510 / 25 154 0 255 / 0.24122620 0.31652830
				-12.22929000 18.51094000 -16.36450000 / -0.88884760 -0.45815710 0.00648520 / 25 154 0 255 / 0.24122620 0.31652830
				-12.21564000 18.48447000 -16.36451000 / -0.88884760 -0.45815710 0.00648520 / 28 152 0 255 / 0.23017880 0.31652830
				-12.20870000 18.48805000 -15.14820000 / -0.88884820 -0.45815730 0.00638980 / 25 154 0 255 / 0.23017880 0.91140750
			}
		}
	}
}
