Version 165 32
{
	Locked False
	Skinned False
	BoneCount 0
	Mask 255
	Bounds
	{
		Aabb
		{
			Min -14.06427000 15.87704000 -15.82562000
			Max -12.42254000 19.07408000 -13.18597000
		}
		Aabb
		{
			Min -14.03517000 15.91176000 -15.79437000
			Max -12.44836000 19.04089000 -13.21673000
		}
		Aabb
		{
			Min -14.06427000 15.87704000 -15.82562000
			Max -12.42254000 19.07408000 -13.18597000
		}
	}
	Geometries
	{
		Geometry
		{
			ShaderIndex 0
			Flags -
			VertexDeclaration N209731BE
			Indices 180
			{
				0 118 158 169 124 83 166 14 57 58 73 167 74 84 106
				107 146 75 121 27 68 69 76 133 77 147 91 105 131 81
				144 173 109 178 13 159 26 65 85 86 88 39 114 87 80
				1 52 90 82 45 125 103 78 12 89 136 56 67 23 93
				94 98 101 102 108 95 112 104 99 116 96 110 100 120 113
				111 126 117 127 115 122 123 119 128 129 134 138 139 141 130
				148 140 135 151 132 142 137 154 149 143 161 152 162 150 155
				156 153 160 163 168 18 30 54 164 92 42 171 145 165 66
				6 172 34 79 176 157 177 97 174 175 170 179 2 5 9
				10 15 3 19 11 7 22 4 16 8 28 20 17 32 24
				33 21 29 31 25 35 36 40 44 46 48 37 51 47 41
				59 38 49 43 62 53 50 70 60 71 55 63 64 61 72
			}
			Vertices 180
			{
				-13.96272000 18.93491000 -13.33734000 / -0.89316490 -0.44972940 0.00000000 / 18 144 0 255 / 0.00030520 0.00006100
				-14.01520000 19.03915000 -14.37494000 / -0.89316490 -0.44972940 0.00000000 / 27 147 0 255 / 0.47779840 0.60864260
				-13.05547000 17.13282000 -15.77484000 / -0.89316490 -0.44972940 0.00000000 / 29 145 0 255 / 0.49505610 0.60859680
				-13.05547000 17.13282000 -15.77484000 / -0.89316490 -0.44972940 0.00000000 / 29 145 0 255 / 0.49505610 0.60859680
				-13.05547000 17.13282000 -15.77484000 / -0.89316490 -0.44972940 0.00000000 / 29 145 0 255 / 0.49505610 0.60859680
				-13.05218000 17.12628000 -14.61956000 / -0.89316490 -0.44972940 0.00000000 / 33 138 0 255 / 0.49501040 0.59133910
				-12.48283000 15.91176000 -14.61614000 / -0.89304770 -0.44881270 -0.03213980 / 51 133 0 255 / 0.49501040 0.59133910
				-13.05218000 17.12628000 -14.61956000 / -0.89316490 -0.44972940 0.00000000 / 33 138 0 255 / 0.49501040 0.59133910
				-13.05218000 17.12628000 -14.61956000 / -0.89316490 -0.44972940 0.00000000 / 33 138 0 255 / 0.49501040 0.59133910
				-13.10553000 17.23226000 -14.73724000 / -0.89316490 -0.44972940 0.00000000 / 33 141 0 255 / 0.49246220 0.59310910
				-13.10553000 17.23226000 -14.73724000 / -0.89316490 -0.44972940 0.00000000 / 33 141 0 255 / 0.49246220 0.59310910
				-13.10553000 17.23226000 -14.73724000 / -0.89316490 -0.44972940 0.00000000 / 33 141 0 255 / 0.49246220 0.59310910
				-14.01520000 19.03915000 -14.37494000 / -0.89316490 -0.44972940 0.00000000 / 27 147 0 255 / 0.47779840 0.60864260
				-13.72561000 18.39008000 -14.75531000 / -0.89272120 -0.44955540 -0.03080320 / 45 146 0 255 / 0.33340450 0.50064090
				-13.36306000 17.73620000 -14.20794000 / -0.89300890 -0.44974690 -0.01621230 / 30 141 0 255 / 0.33334350 0.49874880
				-13.10817000 17.23749000 -15.60784000 / -0.89316490 -0.44972940 0.00000000 / 34 144 0 255 / 0.49250790 0.60612490
				-13.10817000 17.23749000 -15.60784000 / -0.89316490 -0.44972940 0.00000000 / 34 144 0 255 / 0.49250790 0.60612490
				-13.10817000 17.23749000 -15.60784000 / -0.89316490 -0.44972940 0.00000000 / 34 144 0 255 / 0.49250790 0.60612490
				-12.53247000 16.01906000 -14.73480000 / -0.89304770 -0.44881270 -0.03213980 / 51 141 0 255 / 0.49246220 0.59310910
				-13.35913000 17.73599000 -14.73431000 / -0.89316490 -0.44972940 0.00000000 / 38 135 0 255 / 0.48031620 0.59313970
				-13.35913000 17.73599000 -14.73431000 / -0.89316490 -0.44972940 0.00000000 / 38 135 0 255 / 0.48031620 0.59313970
				-13.35913000 17.73599000 -14.73431000 / -0.89316490 -0.44972940 0.00000000 / 38 135 0 255 / 0.48031620 0.59313970
				-13.41534000 17.84764000 -15.77093000 / -0.89316490 -0.44972940 0.00000000 / 32 147 0 255 / 0.47779840 0.60864260
				-14.01520000 19.03915000 -14.37494000 / -0.89316490 -0.44972940 0.00000000 / 27 147 0 255 / 0.47779840 0.60864260
				-13.41534000 17.84764000 -15.77093000 / -0.89316490 -0.44972940 0.00000000 / 32 147 0 255 / 0.47779840 0.60864260
				-13.41534000 17.84764000 -15.77093000 / -0.89316490 -0.44972940 0.00000000 / 32 147 0 255 / 0.47779840 0.60864260
				-13.65533000 18.32433000 -14.37201000 / -0.89316490 -0.44972940 0.00000000 / 23 145 0 255 / 0.49505610 0.60859680
				-12.76121000 16.53312000 -15.60687000 / -0.89272120 -0.44955540 -0.03080320 / 57 135 0 255 / 0.66746520 0.99949650
				-13.41183000 17.84066000 -14.61566000 / -0.89316490 -0.44972940 0.00000000 / 37 134 0 255 / 0.47775270 0.59138490
				-13.41183000 17.84066000 -14.61566000 / -0.89316490 -0.44972940 0.00000000 / 37 134 0 255 / 0.47775270 0.59138490
				-12.53247000 16.01906000 -14.73480000 / -0.89304770 -0.44881270 -0.03213980 / 51 141 0 255 / 0.49246220 0.59310910
				-13.41183000 17.84066000 -14.61566000 / -0.89316490 -0.44972940 0.00000000 / 37 134 0 255 / 0.47775270 0.59138490
				-13.36155000 17.74079000 -15.60491000 / -0.89316490 -0.44972940 0.00000000 / 37 142 0 255 / 0.48034670 0.60614010
				-13.36155000 17.74079000 -15.60491000 / -0.89316490 -0.44972940 0.00000000 / 37 142 0 255 / 0.48034670 0.60614010
				-12.78585000 16.52236000 -14.73675000 / -0.89218970 -0.45052960 -0.03194910 / 52 135 0 255 / 0.48031620 0.59313970
				-13.36155000 17.74079000 -15.60491000 / -0.89316490 -0.44972940 0.00000000 / 37 142 0 255 / 0.48034670 0.60614010
				-13.64281000 18.29728000 -15.79193000 / -0.89248330 -0.44996110 -0.03175860 / 43 148 0 255 / 0.49505610 0.60859680
				-13.64281000 18.29728000 -15.79193000 / -0.89248330 -0.44996110 -0.03175860 / 43 148 0 255 / 0.49505610 0.60859680
				-13.64281000 18.29728000 -15.79193000 / -0.89248330 -0.44996110 -0.03175860 / 43 148 0 255 / 0.49505610 0.60859680
				-13.65533000 18.32433000 -14.37201000 / -0.89316490 -0.44972940 0.00000000 / 23 145 0 255 / 0.49505610 0.60859680
				-13.67596000 18.28278000 -14.63714000 / -0.89315160 -0.44862630 -0.03185400 / 49 141 0 255 / 0.49501040 0.59133910
				-13.67596000 18.28278000 -14.63714000 / -0.89315160 -0.44862630 -0.03185400 / 49 141 0 255 / 0.49501040 0.59133910
				-12.53247000 16.01906000 -14.73480000 / -0.89304770 -0.44881270 -0.03213980 / 51 141 0 255 / 0.49246220 0.59310910
				-13.67596000 18.28278000 -14.63714000 / -0.89315160 -0.44862630 -0.03185400 / 49 141 0 255 / 0.49501040 0.59133910
				-13.72561000 18.39008000 -14.75531000 / -0.89304490 -0.44881140 -0.03223510 / 45 146 0 255 / 0.49246220 0.59310910
				-14.01608000 19.04089000 -13.21917000 / -0.89316490 -0.44972940 0.00000000 / 21 141 0 255 / 0.47775270 0.59138490
				-13.72561000 18.39008000 -14.75531000 / -0.89304490 -0.44881140 -0.03223510 / 45 146 0 255 / 0.49246220 0.59310910
				-13.72561000 18.39008000 -14.75531000 / -0.89304490 -0.44881140 -0.03223510 / 45 146 0 255 / 0.49246220 0.59310910
				-13.70074000 18.40041000 -15.62591000 / -0.89222260 -0.45049800 -0.03147000 / 38 152 0 255 / 0.49250790 0.60612490
				-13.70074000 18.40041000 -15.62591000 / -0.89222260 -0.45049800 -0.03147000 / 38 152 0 255 / 0.49250790 0.60612490
				-13.70074000 18.40041000 -15.62591000 / -0.89222260 -0.45049800 -0.03147000 / 38 152 0 255 / 0.49250790 0.60612490
				-13.97899000 18.89338000 -14.75726000 / -0.89330900 -0.44841880 -0.03032690 / 44 146 0 255 / 0.48031620 0.59313970
				-13.65533000 18.32433000 -14.37201000 / -0.89316490 -0.44972940 0.00000000 / 23 145 0 255 / 0.49505610 0.60859680
				-13.97899000 18.89338000 -14.75726000 / -0.89330900 -0.44841880 -0.03032690 / 44 146 0 255 / 0.48031620 0.59313970
				-12.50783000 16.02983000 -15.60491000 / -0.89222260 -0.45049800 -0.03147000 / 55 141 0 255 / 0.49250790 0.60612490
				-13.97899000 18.89338000 -14.75726000 / -0.89330900 -0.44841880 -0.03032690 / 44 146 0 255 / 0.48031620 0.59313970
				-14.01608000 19.04089000 -13.21917000 / -0.89316490 -0.44972940 0.00000000 / 21 141 0 255 / 0.47775270 0.59138490
				-13.10946000 17.23247000 -14.20599000 / -0.89300890 -0.44974690 -0.01621230 / 28 144 0 255 / 0.66642760 0.49874880
				-13.10946000 17.23247000 -14.20599000 / -0.89300890 -0.44974690 -0.01621230 / 28 144 0 255 / 0.66642760 0.49874880
				-14.00246000 19.01167000 -15.79437000 / -0.89306130 -0.44881960 -0.03166340 / 38 154 0 255 / 0.47779840 0.60864260
				-14.00246000 19.01167000 -15.79437000 / -0.89306130 -0.44881960 -0.03166340 / 38 154 0 255 / 0.47779840 0.60864260
				-14.00246000 19.01167000 -15.79437000 / -0.89306130 -0.44881960 -0.03166340 / 38 154 0 255 / 0.47779840 0.60864260
				-14.03517000 18.99738000 -14.63959000 / -0.89331160 -0.44842010 -0.03023160 / 44 146 0 255 / 0.47775270 0.59138490
				-14.03517000 18.99738000 -14.63959000 / -0.89331160 -0.44842010 -0.03023160 / 44 146 0 255 / 0.47775270 0.59138490
				-14.03517000 18.99738000 -14.63959000 / -0.89331160 -0.44842010 -0.03023160 / 44 146 0 255 / 0.47775270 0.59138490
				-13.65620000 18.32608000 -13.21673000 / -0.89316490 -0.44972940 0.00000000 / 17 141 0 255 / 0.49501040 0.59133910
				-12.50783000 16.02983000 -15.60491000 / -0.89222260 -0.45049800 -0.03147000 / 55 141 0 255 / 0.49250790 0.60612490
				-14.01608000 19.04089000 -13.21917000 / -0.89316490 -0.44972940 0.00000000 / 21 141 0 255 / 0.47775270 0.59138490
				-12.50783000 16.02983000 -15.60491000 / -0.89272120 -0.44955540 -0.03080320 / 55 141 0 255 / 0.99964900 0.99949650
				-12.50783000 16.02983000 -15.60491000 / -0.89272120 -0.44955540 -0.03080320 / 55 141 0 255 / 0.99964900 0.99949650
				-13.95434000 18.90414000 -15.62738000 / -0.89318170 -0.44859350 -0.03147020 / 39 155 0 255 / 0.48034670 0.60614010
				-13.95434000 18.90414000 -15.62738000 / -0.89318170 -0.44859350 -0.03147020 / 39 155 0 255 / 0.48034670 0.60614010
				-13.95434000 18.90414000 -15.62738000 / -0.89318170 -0.44859350 -0.03147020 / 39 155 0 255 / 0.48034670 0.60614010
				-13.12298000 17.22785000 -13.33538000 / -0.89300890 -0.44974690 -0.01621230 / 23 140 0 255 / 0.66642760 -0.00006100
				-12.75510000 16.53620000 -13.33636000 / -0.89316490 -0.44972940 0.00000000 / 34 138 0 255 / 0.66682430 0.00006100
				-12.75510000 16.53620000 -13.33636000 / -0.89316490 -0.44972940 0.00000000 / 34 138 0 255 / 0.66682430 0.00006100
				-12.53247000 16.01906000 -14.73480000 / -0.89272120 -0.44955540 -0.03080320 / 51 141 0 255 / 0.99964900 0.49977110
				-13.35913000 17.73599000 -14.73431000 / -0.89316490 -0.44972940 0.00000000 / 38 135 0 255 / 0.33448790 0.50062560
				-13.96206000 18.93360000 -14.20794000 / -0.89316490 -0.44972940 0.00000000 / 24 145 0 255 / 0.48034670 0.60614010
				-12.50783000 16.02983000 -15.60491000 / -0.89222260 -0.45049800 -0.03147000 / 55 141 0 255 / 0.49250790 0.60612490
				-13.65620000 18.32608000 -13.21673000 / -0.89316490 -0.44972940 0.00000000 / 17 141 0 255 / 0.49501040 0.59133910
				-13.35913000 17.73599000 -14.73431000 / -0.89316490 -0.44972940 0.00000000 / 38 135 0 255 / 0.33448790 0.50062560
				-13.65620000 18.32608000 -13.21673000 / -0.89316490 -0.44972940 0.00000000 / 17 141 0 255 / 0.49501040 0.59133910
				-13.96272000 18.93491000 -13.33734000 / -0.89316490 -0.44972940 0.00000000 / 18 144 0 255 / 0.00030520 0.00006100
				-12.75576000 16.53751000 -14.20696000 / -0.89316490 -0.44972940 0.00000000 / 36 135 0 255 / 0.66682430 0.49874880
				-13.70934000 18.43162000 -13.33538000 / -0.89316490 -0.44972940 0.00000000 / 19 144 0 255 / 0.49246220 0.59310910
				-13.70934000 18.43162000 -13.33538000 / -0.89316490 -0.44972940 0.00000000 / 19 144 0 255 / 0.49246220 0.59310910
				-13.70934000 18.43162000 -13.33538000 / -0.89316490 -0.44972940 0.00000000 / 19 144 0 255 / 0.49246220 0.59310910
				-13.70868000 18.43031000 -14.20599000 / -0.89316490 -0.44972940 0.00000000 / 24 147 0 255 / 0.49250790 0.60612490
				-13.96206000 18.93360000 -14.20794000 / -0.89316490 -0.44972940 0.00000000 / 24 145 0 255 / 0.48034670 0.60614010
				-13.70868000 18.43031000 -14.20599000 / -0.89316490 -0.44972940 0.00000000 / 24 147 0 255 / 0.49250790 0.60612490
				-13.10817000 17.23749000 -15.60784000 / -0.89316490 -0.44972940 0.00000000 / 34 144 0 255 / 0.66590880 0.99967950
				-12.78585000 16.52236000 -14.73675000 / -0.89218970 -0.45052960 -0.03194910 / 52 135 0 255 / 0.48031620 0.59313970
				-13.96206000 18.93360000 -14.20794000 / -0.89316490 -0.44972940 0.00000000 / 24 145 0 255 / 0.48034670 0.60614010
				-13.05371000 17.12824000 -14.37201000 / -0.89280420 -0.45012130 -0.01707030 / 27 144 0 255 / 0.49505610 0.60859680
				-13.05371000 17.12824000 -14.37201000 / -0.89280420 -0.45012130 -0.01707030 / 27 144 0 255 / 0.49505610 0.60859680
				-13.05371000 17.12824000 -14.37201000 / -0.89280420 -0.45012130 -0.01707030 / 27 144 0 255 / 0.49505610 0.60859680
				-12.78585000 16.52236000 -14.73675000 / -0.89218970 -0.45052960 -0.03194910 / 52 135 0 255 / 0.48031620 0.59313970
				-13.07159000 17.12143000 -13.21673000 / -0.89310070 -0.44955430 -0.01649830 / 22 129 0 255 / 0.49501040 0.59133910
				-13.07159000 17.12143000 -13.21673000 / -0.89310070 -0.44955430 -0.01649830 / 22 129 0 255 / 0.49501040 0.59133910
				-13.07159000 17.12143000 -13.21673000 / -0.89310070 -0.44955430 -0.01649830 / 22 129 0 255 / 0.49501040 0.59133910
				-13.12298000 17.22785000 -13.33538000 / -0.89300470 -0.44974480 -0.01649830 / 23 140 0 255 / 0.49246220 0.59310910
				-13.12298000 17.22785000 -13.33538000 / -0.89300470 -0.44974480 -0.01649830 / 23 140 0 255 / 0.49246220 0.59310910
				-13.70868000 18.43031000 -14.20599000 / -0.89316490 -0.44972940 0.00000000 / 24 147 0 255 / 0.49250790 0.60612490
				-13.12298000 17.22785000 -13.33538000 / -0.89300470 -0.44974480 -0.01649830 / 23 140 0 255 / 0.49246220 0.59310910
				-13.10817000 17.23749000 -15.60784000 / -0.89316490 -0.44972940 0.00000000 / 34 144 0 255 / 0.66590880 0.99967950
				-12.50216000 16.03378000 -14.20696000 / -0.89316490 -0.44972940 0.00000000 / 34 140 0 255 / 0.99943550 0.49874880
				-12.50216000 16.03378000 -14.20696000 / -0.89316490 -0.44972940 0.00000000 / 34 140 0 255 / 0.99943550 0.49874880
				-13.10946000 17.23247000 -14.20599000 / -0.89261510 -0.45050360 -0.01687960 / 28 144 0 255 / 0.49250790 0.60612490
				-13.70074000 18.40041000 -15.62591000 / -0.89272120 -0.44955540 -0.03080320 / 38 152 0 255 / 0.33340450 0.99932860
				-13.10946000 17.23247000 -14.20599000 / -0.89261510 -0.45050360 -0.01687960 / 28 144 0 255 / 0.49250790 0.60612490
				-13.10946000 17.23247000 -14.20599000 / -0.89261510 -0.45050360 -0.01687960 / 28 144 0 255 / 0.49250790 0.60612490
				-13.37637000 17.73114000 -13.33734000 / -0.89300610 -0.44974550 -0.01640290 / 24 135 0 255 / 0.48031620 0.59313970
				-13.37637000 17.73114000 -13.33734000 / -0.89300610 -0.44974550 -0.01640290 / 24 135 0 255 / 0.48031620 0.59313970
				-13.96272000 18.93491000 -13.33734000 / -0.89316490 -0.44972940 0.00000000 / 18 144 0 255 / 0.48031620 0.59313970
				-13.37637000 17.73114000 -13.33734000 / -0.89300610 -0.44974550 -0.01640290 / 24 135 0 255 / 0.48031620 0.59313970
				-13.41336000 17.84262000 -14.37494000 / -0.89328230 -0.44916830 -0.01716570 / 32 145 0 255 / 0.47779840 0.60864260
				-13.41336000 17.84262000 -14.37494000 / -0.89328230 -0.44916830 -0.01716570 / 32 145 0 255 / 0.47779840 0.60864260
				-13.96206000 18.93360000 -14.20794000 / -0.89316490 -0.44972940 0.00000000 / 24 145 0 255 / 0.00030520 0.49874880
				-13.41336000 17.84262000 -14.37494000 / -0.89328230 -0.44916830 -0.01716570 / 32 145 0 255 / 0.47779840 0.60864260
				-13.43125000 17.83581000 -13.21966000 / -0.89300610 -0.44974550 -0.01640290 / 28 131 0 255 / 0.47775270 0.59138490
				-12.78585000 16.52236000 -14.73675000 / -0.89272120 -0.44955540 -0.03080320 / 52 135 0 255 / 0.66746520 0.49977110
				-13.43125000 17.83581000 -13.21966000 / -0.89300610 -0.44974550 -0.01640290 / 28 131 0 255 / 0.47775270 0.59138490
				-13.43125000 17.83581000 -13.21966000 / -0.89300610 -0.44974550 -0.01640290 / 28 131 0 255 / 0.47775270 0.59138490
				-13.70934000 18.43162000 -13.33538000 / -0.89316490 -0.44972940 0.00000000 / 19 144 0 255 / 0.33340450 0.00006100
				-13.96272000 18.93491000 -13.33734000 / -0.89316490 -0.44972940 0.00000000 / 18 144 0 255 / 0.48031620 0.59313970
				-13.36306000 17.73620000 -14.20794000 / -0.89338090 -0.44897930 -0.01697500 / 30 141 0 255 / 0.48034670 0.60614010
				-13.36306000 17.73620000 -14.20794000 / -0.89338090 -0.44897930 -0.01697500 / 30 141 0 255 / 0.48034670 0.60614010
				-13.36306000 17.73620000 -14.20794000 / -0.89338090 -0.44897930 -0.01697500 / 30 141 0 255 / 0.48034670 0.60614010
				-12.44924000 15.92867000 -14.37347000 / -0.89320300 -0.44965330 0.00000000 / 31 140 0 255 / 0.49505610 0.60859680
				-12.44924000 15.92867000 -14.37347000 / -0.89320300 -0.44965330 0.00000000 / 31 140 0 255 / 0.49505610 0.60859680
				-13.10553000 17.23226000 -14.73724000 / -0.89316490 -0.44972940 0.00000000 / 33 141 0 255 / 0.66590880 0.50062560
				-12.44924000 15.92867000 -14.37347000 / -0.89320300 -0.44965330 0.00000000 / 31 140 0 255 / 0.49505610 0.60859680
				-12.78585000 16.52236000 -14.73675000 / -0.89272120 -0.44955540 -0.03080320 / 52 135 0 255 / 0.66746520 0.49977110
				-12.44836000 15.92693000 -13.21820000 / -0.89320300 -0.44965330 0.00000000 / 31 140 0 255 / 0.49501040 0.59133910
				-12.44836000 15.92693000 -13.21820000 / -0.89320300 -0.44965330 0.00000000 / 31 140 0 255 / 0.49501040 0.59133910
				-13.96272000 18.93491000 -13.33734000 / -0.89316490 -0.44972940 0.00000000 / 18 144 0 255 / 0.48031620 0.59313970
				-12.44836000 15.92693000 -13.21820000 / -0.89320300 -0.44965330 0.00000000 / 31 140 0 255 / 0.49501040 0.59133910
				-12.50172000 16.03291000 -13.33636000 / -0.89316490 -0.44972940 0.00000000 / 32 143 0 255 / 0.49246220 0.59310910
				-12.50172000 16.03291000 -13.33636000 / -0.89316490 -0.44972940 0.00000000 / 32 143 0 255 / 0.49246220 0.59310910
				-12.50172000 16.03291000 -13.33636000 / -0.89316490 -0.44972940 0.00000000 / 32 143 0 255 / 0.49246220 0.59310910
				-12.50216000 16.03378000 -14.20696000 / -0.89316490 -0.44972940 0.00000000 / 34 140 0 255 / 0.49250790 0.60612490
				-12.50216000 16.03378000 -14.20696000 / -0.89316490 -0.44972940 0.00000000 / 34 140 0 255 / 0.49250790 0.60612490
				-12.50216000 16.03378000 -14.20696000 / -0.89316490 -0.44972940 0.00000000 / 34 140 0 255 / 0.49250790 0.60612490
				-13.97899000 18.89338000 -14.75726000 / -0.89272120 -0.44955540 -0.03080320 / 44 146 0 255 / 0.00030520 0.50064090
				-12.80955000 16.64108000 -15.77386000 / -0.89296010 -0.44900740 -0.03185400 / 60 137 0 255 / 0.47779840 0.60864260
				-12.50172000 16.03291000 -13.33636000 / -0.89316490 -0.44972940 0.00000000 / 32 143 0 255 / 0.99943550 0.00006100
				-13.36155000 17.74079000 -15.60491000 / -0.89316490 -0.44972940 0.00000000 / 37 142 0 255 / 0.33448790 0.99967950
				-12.75510000 16.53620000 -13.33636000 / -0.89316490 -0.44972940 0.00000000 / 34 138 0 255 / 0.48031620 0.59313970
				-12.75510000 16.53620000 -13.33636000 / -0.89316490 -0.44972940 0.00000000 / 34 138 0 255 / 0.48031620 0.59313970
				-12.75510000 16.53620000 -13.33636000 / -0.89316490 -0.44972940 0.00000000 / 34 138 0 255 / 0.48031620 0.59313970
				-12.80890000 16.64305000 -14.37347000 / -0.89316490 -0.44972940 0.00000000 / 35 135 0 255 / 0.47779840 0.60864260
				-12.80890000 16.64305000 -14.37347000 / -0.89316490 -0.44972940 0.00000000 / 35 135 0 255 / 0.47779840 0.60864260
				-12.80890000 16.64305000 -14.37347000 / -0.89316490 -0.44972940 0.00000000 / 35 135 0 255 / 0.47779840 0.60864260
				-12.80823000 16.64175000 -13.21820000 / -0.89316490 -0.44972940 0.00000000 / 34 131 0 255 / 0.47775270 0.59138490
				-12.80823000 16.64175000 -13.21820000 / -0.89316490 -0.44972940 0.00000000 / 34 131 0 255 / 0.47775270 0.59138490
				-12.80823000 16.64175000 -13.21820000 / -0.89316490 -0.44972940 0.00000000 / 34 131 0 255 / 0.47775270 0.59138490
				-12.80955000 16.64108000 -15.77386000 / -0.89296010 -0.44900740 -0.03185400 / 60 137 0 255 / 0.47779840 0.60864260
				-13.70868000 18.43031000 -14.20599000 / -0.89316490 -0.44972940 0.00000000 / 24 147 0 255 / 0.33340450 0.49874880
				-13.97899000 18.89338000 -14.75726000 / -0.89272120 -0.44955540 -0.03080320 / 44 146 0 255 / 0.00030520 0.50064090
				-12.75576000 16.53751000 -14.20696000 / -0.89316490 -0.44972940 0.00000000 / 36 135 0 255 / 0.48034670 0.60614010
				-12.75576000 16.53751000 -14.20696000 / -0.89316490 -0.44972940 0.00000000 / 36 135 0 255 / 0.48034670 0.60614010
				-12.75576000 16.53751000 -14.20696000 / -0.89316490 -0.44972940 0.00000000 / 36 135 0 255 / 0.48034670 0.60614010
				-12.44968000 15.92626000 -15.77142000 / -0.89248600 -0.44996250 -0.03166330 / 55 141 0 255 / 0.49505610 0.60859680
				-12.44968000 15.92626000 -15.77142000 / -0.89248600 -0.44996250 -0.03166330 / 55 141 0 255 / 0.49505610 0.60859680
				-12.44968000 15.92626000 -15.77142000 / -0.89248600 -0.44996250 -0.03166330 / 55 141 0 255 / 0.49505610 0.60859680
				-13.37637000 17.73114000 -13.33734000 / -0.89300890 -0.44974690 -0.01621230 / 24 135 0 255 / 0.33334350 -0.00006100
				-13.37637000 17.73114000 -13.33734000 / -0.89300890 -0.44974690 -0.01621230 / 24 135 0 255 / 0.33334350 -0.00006100
				-12.48283000 15.91176000 -14.61614000 / -0.89304770 -0.44881270 -0.03213980 / 51 133 0 255 / 0.49501040 0.59133910
				-13.70868000 18.43031000 -14.20599000 / -0.89316490 -0.44972940 0.00000000 / 24 147 0 255 / 0.33340450 0.49874880
				-12.80955000 16.64108000 -15.77386000 / -0.89296010 -0.44900740 -0.03185400 / 60 137 0 255 / 0.47779840 0.60864260
				-12.48283000 15.91176000 -14.61614000 / -0.89304770 -0.44881270 -0.03213980 / 51 133 0 255 / 0.49501040 0.59133910
				-12.84270000 16.62658000 -14.61907000 / -0.89228580 -0.45033920 -0.03194910 / 57 126 0 255 / 0.47775270 0.59138490
				-13.95434000 18.90414000 -15.62738000 / -0.89272120 -0.44955540 -0.03080320 / 39 155 0 255 / 0.00030520 0.99932860
				-12.84270000 16.62658000 -14.61907000 / -0.89228580 -0.45033920 -0.03194910 / 57 126 0 255 / 0.47775270 0.59138490
				-12.84270000 16.62658000 -14.61907000 / -0.89228580 -0.45033920 -0.03194910 / 57 126 0 255 / 0.47775270 0.59138490
				-12.76121000 16.53312000 -15.60687000 / -0.89298480 -0.44897180 -0.03166070 / 57 135 0 255 / 0.48034670 0.60614010
				-12.76121000 16.53312000 -15.60687000 / -0.89298480 -0.44897180 -0.03166070 / 57 135 0 255 / 0.48034670 0.60614010
				-13.70074000 18.40041000 -15.62591000 / -0.89272120 -0.44955540 -0.03080320 / 38 152 0 255 / 0.33340450 0.99932860
				-12.76121000 16.53312000 -15.60687000 / -0.89298480 -0.44897180 -0.03166070 / 57 135 0 255 / 0.48034670 0.60614010
			}
		}
		Geometry
		{
			ShaderIndex 1
			Flags -
			VertexDeclaration N209731BE
			Indices 432
			{
				351 353 354 355 356 352 357 359 360 361 362 358 363 365 366
				367 368 364 369 371 372 373 374 370 375 377 378 379 380 376
				381 383 384 385 386 382 387 389 390 391 392 388 393 395 396
				397 398 394 399 401 402 403 404 400 405 407 408 409 410 406
				411 413 414 415 416 412 417 419 420 421 422 418 423 425 426
				427 428 424 429 431 0 1 2 430 3 5 6 7 8 4
				9 11 12 13 14 10 15 17 18 19 20 16 21 23 24
				25 26 22 27 29 30 31 32 28 33 35 36 37 38 34
				39 41 42 43 44 40 45 47 48 49 50 46 51 53 54
				55 56 52 57 59 60 61 62 58 63 65 66 67 68 64
				69 71 72 73 74 70 75 77 78 79 80 76 81 83 84
				85 86 82 87 89 90 91 92 88 93 95 96 97 98 94
				99 101 102 103 104 100 105 107 108 109 110 106 111 113 114
				115 116 112 117 119 120 121 122 118 123 125 126 127 128 124
				129 131 132 133 134 130 135 137 138 139 140 136 141 143 144
				145 146 142 147 149 150 151 152 148 153 155 156 157 158 154
				159 161 162 163 164 160 165 167 168 169 170 166 171 173 174
				175 176 172 177 179 180 181 182 178 183 185 186 187 188 184
				189 191 192 193 194 190 195 197 198 199 200 196 201 203 204
				205 206 202 207 209 210 211 212 208 213 215 216 217 218 214
				219 221 222 223 224 220 225 227 228 229 230 226 231 233 234
				235 236 232 237 239 240 241 242 238 243 245 246 247 248 244
				249 251 252 253 254 250 255 257 258 259 260 256 261 263 264
				265 266 262 267 269 270 271 272 268 273 275 276 277 278 274
				279 281 282 283 284 280 285 287 288 289 290 286 291 293 294
				295 296 292 297 299 300 301 302 298 303 305 306 307 308 304
				309 311 312 313 314 310 315 317 318 319 320 316 321 323 324
				325 326 322 327 329 330 331 332 328 333 335 336 337 338 334
				339 341 342 343 344 340 345 347 348 349 350 346
			}
			Vertices 432
			{
				-13.05383000 17.09374000 -14.40277000 / -0.89319650 -0.44936390 -0.01649830 / 29 144 0 255 / 0.23017880 0.91140750
				-13.05383000 17.09374000 -14.40277000 / -0.89319650 -0.44936390 -0.01649830 / 29 144 0 255 / 0.23017880 0.91140750
				-13.07281000 17.08692000 -13.18646000 / -0.89281280 -0.45012570 -0.01649820 / 42 151 0 255 / 0.23017880 0.31652830
				-13.05371000 17.12824000 -14.37201000 / -0.44965260 0.89320180 -0.00171660 / 24 121 0 255 / 0.20545960 0.89266960
				-13.05371000 17.12824000 -14.37201000 / -0.44965260 0.89320180 -0.00171660 / 24 121 0 255 / 0.20545960 0.89266960
				-13.06810000 17.12100000 -14.37249000 / -0.44965260 0.89320180 -0.00171660 / 22 125 0 255 / 0.21145630 0.89266960
				-13.08599000 17.11418000 -13.21722000 / -0.44965260 0.89320180 -0.00171660 / 24 121 0 255 / 0.21145630 0.33525090
				-13.08599000 17.11418000 -13.21722000 / -0.44965260 0.89320180 -0.00171660 / 24 121 0 255 / 0.21145630 0.33525090
				-13.07159000 17.12143000 -13.21673000 / -0.44965260 0.89320180 -0.00171660 / 26 117 0 255 / 0.20545960 0.33525090
				-13.05383000 17.09374000 -14.40277000 / 0.01621290 0.00438700 -0.99985890 / 10 66 0 255 / 0.23017880 0.13072200
				-13.05383000 17.09374000 -14.40277000 / 0.01621290 0.00438700 -0.99985890 / 10 66 0 255 / 0.23017880 0.13072200
				-13.44093000 17.86264000 -14.40570000 / 0.01621290 0.00438700 -0.99985890 / 9 65 0 255 / 0.23017880 0.91139220
				-13.41433000 17.87603000 -14.40521000 / 0.01621290 0.00438700 -0.99985890 / 10 66 0 255 / 0.24122620 0.91139220
				-13.41433000 17.87603000 -14.40521000 / 0.01621290 0.00438700 -0.99985890 / 10 66 0 255 / 0.24122620 0.91139220
				-13.02723000 17.10714000 -14.40228000 / 0.01621290 0.00438700 -0.99985890 / 11 67 0 255 / 0.24122620 0.13072200
				-13.06810000 17.12100000 -14.37249000 / -0.89301030 -0.44974760 -0.01611690 / 26 142 0 255 / 0.21145630 0.14944460
				-13.06810000 17.12100000 -14.37249000 / -0.89301030 -0.44974760 -0.01611690 / 26 142 0 255 / 0.21145630 0.14944460
				-13.42776000 17.83538000 -14.37494000 / -0.89301300 -0.44974900 -0.01592620 / 35 143 0 255 / 0.21145630 0.89266960
				-13.44093000 17.86264000 -14.40570000 / -0.89301300 -0.44974900 -0.01592620 / 28 144 0 255 / 0.23017880 0.91139220
				-13.44093000 17.86264000 -14.40570000 / -0.89301300 -0.44974900 -0.01592620 / 28 144 0 255 / 0.23017880 0.91139220
				-13.05383000 17.09374000 -14.40277000 / -0.89301030 -0.44974760 -0.01611690 / 29 144 0 255 / 0.23017880 0.13072200
				-13.05371000 17.12824000 -14.37201000 / -0.02803810 -0.01068120 0.99954980 / 9 191 0 255 / 0.20545960 0.14944460
				-13.05371000 17.12824000 -14.37201000 / -0.02803810 -0.01068120 0.99954980 / 9 191 0 255 / 0.20545960 0.14944460
				-13.41336000 17.84262000 -14.37494000 / -0.00162120 0.00324240 0.99999340 / 9 193 0 255 / 0.20545960 0.89266960
				-13.42776000 17.83538000 -14.37494000 / -0.00200270 0.00305170 0.99999340 / 9 191 0 255 / 0.21145630 0.89266960
				-13.42776000 17.83538000 -14.37494000 / -0.00200270 0.00305170 0.99999340 / 9 191 0 255 / 0.21145630 0.89266960
				-13.06810000 17.12100000 -14.37249000 / -0.02841920 -0.01087180 0.99953700 / 9 189 0 255 / 0.21145630 0.14944460
				-13.45991000 17.85582000 -13.18939000 / -0.01621290 -0.00438700 0.99985890 / 10 242 0 255 / 0.23017880 0.13072200
				-13.45991000 17.85582000 -13.18939000 / -0.01621290 -0.00438700 0.99985890 / 10 242 0 255 / 0.23017880 0.13072200
				-13.07281000 17.08692000 -13.18646000 / -0.01611760 -0.00438700 0.99986060 / 11 243 0 255 / 0.23017880 0.91140750
				-13.04621000 17.10032000 -13.18597000 / -0.01611760 -0.00438700 0.99986060 / 10 242 0 255 / 0.24122620 0.91140750
				-13.04621000 17.10032000 -13.18597000 / -0.01611760 -0.00438700 0.99986060 / 10 242 0 255 / 0.24122620 0.91140750
				-13.43330000 17.86921000 -13.18890000 / -0.01621290 -0.00438700 0.99985890 / 9 242 0 255 / 0.24122620 0.13072200
				-13.44564000 17.82856000 -13.21966000 / -0.89301170 -0.44974830 -0.01602160 / 44 153 0 255 / 0.21145630 0.14944460
				-13.44564000 17.82856000 -13.21966000 / -0.89301170 -0.44974830 -0.01602160 / 44 153 0 255 / 0.21145630 0.14944460
				-13.08599000 17.11418000 -13.21722000 / -0.89301300 -0.44974900 -0.01592620 / 36 145 0 255 / 0.21145630 0.89266960
				-13.07281000 17.08692000 -13.18646000 / -0.89301300 -0.44974900 -0.01592620 / 42 151 0 255 / 0.23017880 0.91140750
				-13.07281000 17.08692000 -13.18646000 / -0.89301300 -0.44974900 -0.01592620 / 42 151 0 255 / 0.23017880 0.91140750
				-13.45991000 17.85582000 -13.18939000 / -0.89301170 -0.44974830 -0.01602160 / 42 151 0 255 / 0.23017880 0.13072200
				-13.43125000 17.83581000 -13.21966000 / 0.00171660 -0.00247950 -0.99999540 / 12 73 0 255 / 0.20545960 0.14944460
				-13.43125000 17.83581000 -13.21966000 / 0.00171660 -0.00247950 -0.99999540 / 12 73 0 255 / 0.20545960 0.14944460
				-13.07159000 17.12143000 -13.21673000 / 0.02870530 0.01029960 -0.99953490 / 12 71 0 255 / 0.20545960 0.89266960
				-13.08599000 17.11418000 -13.21722000 / 0.02841950 0.01010890 -0.99954500 / 12 73 0 255 / 0.21145630 0.89266960
				-13.08599000 17.11418000 -13.21722000 / 0.02841950 0.01010890 -0.99954500 / 12 73 0 255 / 0.21145630 0.89266960
				-13.44564000 17.82856000 -13.21966000 / 0.00133510 -0.00267020 -0.99999560 / 12 74 0 255 / 0.21145630 0.14944460
				-13.45991000 17.85582000 -13.18939000 / -0.89319650 -0.44936390 -0.01649830 / 42 151 0 255 / 0.23017880 0.91140750
				-13.45991000 17.85582000 -13.18939000 / -0.89319650 -0.44936390 -0.01649830 / 42 151 0 255 / 0.23017880 0.91140750
				-13.44093000 17.86264000 -14.40570000 / -0.89281280 -0.45012570 -0.01649820 / 28 144 0 255 / 0.23017880 0.31652830
				-13.42776000 17.83538000 -14.37494000 / -0.89281280 -0.45012570 -0.01649820 / 35 143 0 255 / 0.21145630 0.33525090
				-13.42776000 17.83538000 -14.37494000 / -0.89281280 -0.45012570 -0.01649820 / 35 143 0 255 / 0.21145630 0.33525090
				-13.44564000 17.82856000 -13.21966000 / -0.89319650 -0.44936390 -0.01649830 / 44 153 0 255 / 0.21145630 0.89266960
				-13.43125000 17.83581000 -13.21966000 / 0.44965260 -0.89320180 0.00171660 / 38 116 0 255 / 0.20545960 0.89266960
				-13.43125000 17.83581000 -13.21966000 / 0.44965260 -0.89320180 0.00171660 / 38 116 0 255 / 0.20545960 0.89266960
				-13.44564000 17.82856000 -13.21966000 / 0.44965260 -0.89320180 0.00171660 / 40 126 0 255 / 0.21145630 0.89266960
				-13.42776000 17.83538000 -14.37494000 / 0.44965260 -0.89320180 0.00171660 / 38 116 0 255 / 0.21145630 0.33525090
				-13.42776000 17.83538000 -14.37494000 / 0.44965260 -0.89320180 0.00171660 / 38 116 0 255 / 0.21145630 0.33525090
				-13.41336000 17.84262000 -14.37494000 / 0.44965260 -0.89320180 0.00171660 / 36 105 0 255 / 0.20545960 0.33525090
				-13.05383000 17.09374000 -14.40277000 / 0.44965240 -0.89320140 0.00200270 / 36 159 0 255 / 0.23017880 0.91140750
				-13.05383000 17.09374000 -14.40277000 / 0.44965240 -0.89320140 0.00200270 / 36 159 0 255 / 0.23017880 0.91140750
				-13.02723000 17.10714000 -14.40228000 / 0.44965240 -0.89320140 0.00200270 / 35 157 0 255 / 0.24122620 0.91140750
				-13.04621000 17.10032000 -13.18597000 / 0.44965240 -0.89320140 0.00200270 / 36 159 0 255 / 0.24122620 0.31652830
				-13.04621000 17.10032000 -13.18597000 / 0.44965240 -0.89320140 0.00200270 / 36 159 0 255 / 0.24122620 0.31652830
				-13.07281000 17.08692000 -13.18646000 / 0.44965240 -0.89320140 0.00200270 / 38 162 0 255 / 0.23017880 0.31652830
				-12.83624000 16.66154000 -13.18792000 / -0.44965270 0.89320190 0.00162120 / 14 154 0 255 / 0.23017880 0.91140750
				-12.83624000 16.66154000 -13.18792000 / -0.44965270 0.89320190 0.00162120 / 14 154 0 255 / 0.23017880 0.91140750
				-12.80964000 16.67493000 -13.18792000 / -0.44965270 0.89320190 0.00162120 / 13 149 0 255 / 0.24122620 0.91140750
				-12.81052000 16.67668000 -14.40423000 / -0.44965270 0.89320190 0.00162120 / 14 154 0 255 / 0.24122620 0.31652830
				-12.81052000 16.67668000 -14.40423000 / -0.44965270 0.89320190 0.00162120 / 14 154 0 255 / 0.24122620 0.31652830
				-12.83712000 16.66328000 -14.40423000 / -0.44965270 0.89320190 0.00162120 / 15 158 0 255 / 0.23017880 0.31652830
				-12.46275000 15.91969000 -13.21820000 / -0.89320300 -0.44965330 0.00000000 / 46 139 0 255 / 0.21145630 0.33525090
				-12.46275000 15.91969000 -13.21820000 / -0.89320300 -0.44965330 0.00000000 / 46 139 0 255 / 0.21145630 0.33525090
				-12.46364000 15.92143000 -14.37347000 / -0.89320300 -0.44965330 0.00000000 / 41 145 0 255 / 0.21145630 0.89266960
				-12.45002000 15.89439000 -14.40374000 / -0.89320300 -0.44965330 0.00000000 / 44 145 0 255 / 0.23017880 0.91140750
				-12.45002000 15.89439000 -14.40374000 / -0.89320300 -0.44965330 0.00000000 / 44 145 0 255 / 0.23017880 0.91140750
				-12.44914000 15.89265000 -13.18743000 / -0.89320300 -0.44965330 0.00000000 / 45 147 0 255 / 0.23017880 0.31652830
				-12.44924000 15.92867000 -14.37347000 / -0.44965260 0.89320180 0.00171660 / 13 118 0 255 / 0.20545960 0.89266960
				-12.44924000 15.92867000 -14.37347000 / -0.44965260 0.89320180 0.00171660 / 13 118 0 255 / 0.20545960 0.89266960
				-12.46364000 15.92143000 -14.37347000 / -0.44965260 0.89320180 0.00171660 / 13 131 0 255 / 0.21145630 0.89266960
				-12.46275000 15.91969000 -13.21820000 / -0.44965260 0.89320180 0.00171660 / 13 118 0 255 / 0.21145630 0.33525090
				-12.46275000 15.91969000 -13.21820000 / -0.44965260 0.89320180 0.00171660 / 13 118 0 255 / 0.21145630 0.33525090
				-12.44836000 15.92693000 -13.21820000 / -0.44965260 0.89320180 0.00171660 / 14 105 0 255 / 0.20545960 0.33525090
				-12.45002000 15.89439000 -14.40374000 / 0.00028610 -0.00047680 -0.99999980 / 10 60 0 255 / 0.23017880 0.13072200
				-12.45002000 15.89439000 -14.40374000 / 0.00028610 -0.00047680 -0.99999980 / 10 60 0 255 / 0.23017880 0.13072200
				-12.83712000 16.66328000 -14.40423000 / 0.00028610 -0.00057220 -0.99999980 / 9 64 0 255 / 0.23017880 0.91139220
				-12.81052000 16.67668000 -14.40423000 / 0.00028610 -0.00057220 -0.99999980 / 10 60 0 255 / 0.24122620 0.91139220
				-12.81052000 16.67668000 -14.40423000 / 0.00028610 -0.00057220 -0.99999980 / 10 60 0 255 / 0.24122620 0.91139220
				-12.42342000 15.90778000 -14.40374000 / 0.00028610 -0.00047680 -0.99999980 / 11 56 0 255 / 0.24122620 0.13072200
				-12.46364000 15.92143000 -14.37347000 / -0.89320300 -0.44965330 0.00000000 / 41 145 0 255 / 0.21145630 0.14944460
				-12.46364000 15.92143000 -14.37347000 / -0.89320300 -0.44965330 0.00000000 / 41 145 0 255 / 0.21145630 0.14944460
				-12.82329000 16.63581000 -14.37347000 / -0.89316490 -0.44972940 0.00000000 / 40 139 0 255 / 0.21145630 0.89266960
				-12.83712000 16.66328000 -14.40423000 / -0.89316490 -0.44972940 0.00000000 / 39 145 0 255 / 0.23017880 0.91139220
				-12.83712000 16.66328000 -14.40423000 / -0.89316490 -0.44972940 0.00000000 / 39 145 0 255 / 0.23017880 0.91139220
				-12.45002000 15.89439000 -14.40374000 / -0.89320300 -0.44965330 0.00000000 / 44 145 0 255 / 0.23017880 0.13072200
				-12.44924000 15.92867000 -14.37347000 / 0.00000000 0.00000000 1.00000000 / 8 175 0 255 / 0.20545960 0.14944460
				-12.44924000 15.92867000 -14.37347000 / 0.00000000 0.00000000 1.00000000 / 8 175 0 255 / 0.20545960 0.14944460
				-12.80890000 16.64305000 -14.37347000 / 0.00000000 0.00000000 1.00000000 / 8 177 0 255 / 0.20545960 0.89266960
				-12.82329000 16.63581000 -14.37347000 / 0.00000000 0.00000000 1.00000000 / 8 175 0 255 / 0.21145630 0.89266960
				-12.82329000 16.63581000 -14.37347000 / 0.00000000 0.00000000 1.00000000 / 8 175 0 255 / 0.21145630 0.89266960
				-12.46364000 15.92143000 -14.37347000 / 0.00000000 0.00000000 1.00000000 / 7 174 0 255 / 0.21145630 0.14944460
				-12.83624000 16.66154000 -13.18792000 / -0.00028610 0.00057220 0.99999980 / 8 232 0 255 / 0.23017880 0.13072200
				-12.83624000 16.66154000 -13.18792000 / -0.00028610 0.00057220 0.99999980 / 8 232 0 255 / 0.23017880 0.13072200
				-12.44914000 15.89265000 -13.18743000 / -0.00028610 0.00047680 0.99999980 / 9 231 0 255 / 0.23017880 0.91140750
				-12.42254000 15.90604000 -13.18743000 / -0.00028610 0.00047680 0.99999980 / 8 232 0 255 / 0.24122620 0.91140750
				-12.42254000 15.90604000 -13.18743000 / -0.00028610 0.00047680 0.99999980 / 8 232 0 255 / 0.24122620 0.91140750
				-12.80964000 16.67493000 -13.18792000 / -0.00028610 0.00057220 0.99999980 / 8 234 0 255 / 0.24122620 0.13072200
				-12.82263000 16.63450000 -13.21820000 / -0.89316490 -0.44972940 0.00000000 / 43 145 0 255 / 0.21145630 0.14944460
				-12.82263000 16.63450000 -13.21820000 / -0.89316490 -0.44972940 0.00000000 / 43 145 0 255 / 0.21145630 0.14944460
				-12.46275000 15.91969000 -13.21820000 / -0.89320300 -0.44965330 0.00000000 / 46 139 0 255 / 0.21145630 0.89266960
				-12.44914000 15.89265000 -13.18743000 / -0.89320300 -0.44965330 0.00000000 / 45 147 0 255 / 0.23017880 0.91140750
				-12.44914000 15.89265000 -13.18743000 / -0.89320300 -0.44965330 0.00000000 / 45 147 0 255 / 0.23017880 0.91140750
				-12.83624000 16.66154000 -13.18792000 / -0.89316490 -0.44972940 0.00000000 / 41 142 0 255 / 0.23017880 0.13072200
				-12.80823000 16.64175000 -13.21820000 / 0.00000000 0.00000000 -1.00000000 / 17 75 0 255 / 0.20545960 0.14944460
				-12.80823000 16.64175000 -13.21820000 / 0.00000000 0.00000000 -1.00000000 / 17 75 0 255 / 0.20545960 0.14944460
				-12.44836000 15.92693000 -13.21820000 / 0.00000000 0.00000000 -1.00000000 / 14 76 0 255 / 0.20545960 0.89266960
				-12.46275000 15.91969000 -13.21820000 / 0.00000000 0.00000000 -1.00000000 / 17 75 0 255 / 0.21145630 0.89266960
				-12.46275000 15.91969000 -13.21820000 / 0.00000000 0.00000000 -1.00000000 / 17 75 0 255 / 0.21145630 0.89266960
				-12.82263000 16.63450000 -13.21820000 / 0.00000000 0.00000000 -1.00000000 / 19 74 0 255 / 0.21145630 0.14944460
				-12.83624000 16.66154000 -13.18792000 / -0.89316490 -0.44972940 0.00000000 / 41 142 0 255 / 0.23017880 0.91140750
				-12.83624000 16.66154000 -13.18792000 / -0.89316490 -0.44972940 0.00000000 / 41 142 0 255 / 0.23017880 0.91140750
				-12.83712000 16.66328000 -14.40423000 / -0.89316490 -0.44972940 0.00000000 / 39 145 0 255 / 0.23017880 0.31652830
				-12.82329000 16.63581000 -14.37347000 / -0.89316490 -0.44972940 0.00000000 / 40 139 0 255 / 0.21145630 0.33525090
				-12.82329000 16.63581000 -14.37347000 / -0.89316490 -0.44972940 0.00000000 / 40 139 0 255 / 0.21145630 0.33525090
				-12.82263000 16.63450000 -13.21820000 / -0.89316490 -0.44972940 0.00000000 / 43 145 0 255 / 0.21145630 0.89266960
				-12.80823000 16.64175000 -13.21820000 / 0.44965300 -0.89320250 -0.00123980 / 88 108 0 255 / 0.20545960 0.89266960
				-12.80823000 16.64175000 -13.21820000 / 0.44965300 -0.89320250 -0.00123980 / 88 108 0 255 / 0.20545960 0.89266960
				-12.82263000 16.63450000 -13.21820000 / 0.44965300 -0.89320250 -0.00123980 / 89 106 0 255 / 0.21145630 0.89266960
				-12.82329000 16.63581000 -14.37347000 / 0.44965300 -0.89320250 -0.00123980 / 88 108 0 255 / 0.21145630 0.33525090
				-12.82329000 16.63581000 -14.37347000 / 0.44965300 -0.89320250 -0.00123980 / 88 108 0 255 / 0.21145630 0.33525090
				-12.80890000 16.64305000 -14.37347000 / 0.44965300 -0.89320250 -0.00123980 / 87 110 0 255 / 0.20545960 0.33525090
				-12.45002000 15.89439000 -14.40374000 / 0.44965270 -0.89320190 -0.00162120 / 68 155 0 255 / 0.23017880 0.91140750
				-12.45002000 15.89439000 -14.40374000 / 0.44965270 -0.89320190 -0.00162120 / 68 155 0 255 / 0.23017880 0.91140750
				-12.42342000 15.90778000 -14.40374000 / 0.44965270 -0.89320190 -0.00162120 / 69 159 0 255 / 0.24122620 0.91140750
				-12.42254000 15.90604000 -13.18743000 / 0.44965270 -0.89320190 -0.00162120 / 68 155 0 255 / 0.24122620 0.31652830
				-12.42254000 15.90604000 -13.18743000 / 0.44965270 -0.89320190 -0.00162120 / 68 155 0 255 / 0.24122620 0.31652830
				-12.44914000 15.89265000 -13.18743000 / 0.44965270 -0.89320190 -0.00162120 / 68 151 0 255 / 0.23017880 0.31652830
				-12.87158000 16.64594000 -14.58929000 / -0.44965270 0.89320190 -0.00162120 / 11 162 0 255 / 0.23017880 0.91140750
				-12.87158000 16.64594000 -14.58929000 / -0.44965270 0.89320190 -0.00162120 / 11 162 0 255 / 0.23017880 0.91140750
				-12.84497000 16.65933000 -14.58831000 / -0.44965270 0.89320190 -0.00162120 / 10 171 0 255 / 0.24122620 0.91140750
				-12.81051000 16.67449000 -15.80413000 / -0.44965270 0.89320190 -0.00162120 / 11 162 0 255 / 0.24122620 0.31652830
				-12.81051000 16.67449000 -15.80413000 / -0.44965270 0.89320190 -0.00162120 / 11 162 0 255 / 0.24122620 0.31652830
				-12.83668000 16.66131000 -15.80511000 / -0.44965270 0.89320190 -0.00162120 / 12 153 0 255 / 0.23017880 0.31652830
				-12.49722000 15.90452000 -14.61712000 / -0.89319770 -0.44860150 -0.03089860 / 42 143 0 255 / 0.21145630 0.33525090
				-12.49722000 15.90452000 -14.61712000 / -0.89319770 -0.44860150 -0.03089860 / 42 143 0 255 / 0.21145630 0.33525090
				-12.46407000 15.91902000 -15.77191000 / -0.89948950 -0.43582140 -0.03128000 / 49 136 0 255 / 0.21145630 0.89266960
				-12.45002000 15.89220000 -15.80218000 / -0.89924780 -0.43631970 -0.03128150 / 46 137 0 255 / 0.23017880 0.91140750
				-12.45002000 15.89220000 -15.80218000 / -0.89924780 -0.43631970 -0.03128150 / 46 137 0 255 / 0.23017880 0.91140750
				-12.48448000 15.87704000 -14.58636000 / -0.89314010 -0.44871590 -0.03089990 / 38 146 0 255 / 0.23017880 0.31652830
				-12.44968000 15.92626000 -15.77142000 / -0.44965260 0.89320180 -0.00171660 / 15 124 0 255 / 0.20545960 0.89266960
				-12.44968000 15.92626000 -15.77142000 / -0.44965260 0.89320180 -0.00171660 / 15 124 0 255 / 0.20545960 0.89266960
				-12.46407000 15.91902000 -15.77191000 / -0.44965260 0.89320180 -0.00171660 / 16 131 0 255 / 0.21145630 0.89266960
				-12.49722000 15.90452000 -14.61712000 / -0.44957660 0.89324020 -0.00171670 / 15 124 0 255 / 0.21145630 0.33525090
				-12.49722000 15.90452000 -14.61712000 / -0.44957660 0.89324020 -0.00171670 / 15 124 0 255 / 0.21145630 0.33525090
				-12.48283000 15.91176000 -14.61614000 / -0.44957660 0.89324020 -0.00171670 / 15 117 0 255 / 0.20545960 0.33525090
				-12.45002000 15.89220000 -15.80218000 / 0.03080390 0.01173030 -0.99945660 / 12 55 0 255 / 0.23017880 0.13072200
				-12.45002000 15.89220000 -15.80218000 / 0.03080390 0.01173030 -0.99945660 / 12 55 0 255 / 0.23017880 0.13072200
				-12.83668000 16.66131000 -15.80511000 / 0.03128020 0.01182540 -0.99944060 / 11 54 0 255 / 0.23017880 0.91139220
				-12.81051000 16.67449000 -15.80413000 / 0.03128020 0.01182540 -0.99944060 / 12 55 0 255 / 0.24122620 0.91139220
				-12.81051000 16.67449000 -15.80413000 / 0.03128020 0.01182540 -0.99944060 / 12 55 0 255 / 0.24122620 0.91139220
				-12.42342000 15.90559000 -15.80120000 / 0.03080390 0.01173030 -0.99945660 / 13 55 0 255 / 0.24122620 0.13072200
				-12.46407000 15.91902000 -15.77191000 / -0.89328660 -0.44917050 -0.01687970 / 49 136 0 255 / 0.21145630 0.14944460
				-12.46407000 15.91902000 -15.77191000 / -0.89328660 -0.44917050 -0.01687970 / 49 136 0 255 / 0.21145630 0.14944460
				-12.82394000 16.63384000 -15.77435000 / -0.89269190 -0.44954060 -0.03185120 / 48 144 0 255 / 0.21145630 0.89266960
				-12.83668000 16.66131000 -15.80511000 / -0.89271340 -0.44955140 -0.03108900 / 49 138 0 255 / 0.23017880 0.91139220
				-12.83668000 16.66131000 -15.80511000 / -0.89271340 -0.44955140 -0.03108900 / 49 138 0 255 / 0.23017880 0.91139220
				-12.45002000 15.89220000 -15.80218000 / -0.89329090 -0.44917260 -0.01659360 / 46 137 0 255 / 0.23017880 0.13072200
				-12.44968000 15.92626000 -15.77142000 / -0.02841920 -0.01087180 0.99953700 / 35 179 0 255 / 0.20545960 0.14944460
				-12.44968000 15.92626000 -15.77142000 / -0.02841920 -0.01087180 0.99953700 / 35 179 0 255 / 0.20545960 0.14944460
				-12.80955000 16.64108000 -15.77386000 / -0.02841920 -0.01087180 0.99953700 / 36 174 0 255 / 0.20545960 0.89266960
				-12.82394000 16.63384000 -15.77435000 / -0.02841920 -0.01087180 0.99953700 / 35 179 0 255 / 0.21145630 0.89266960
				-12.82394000 16.63384000 -15.77435000 / -0.02841920 -0.01087180 0.99953700 / 35 179 0 255 / 0.21145630 0.89266960
				-12.46407000 15.91902000 -15.77191000 / -0.02841920 -0.01087180 0.99953700 / 34 184 0 255 / 0.21145630 0.14944460
				-12.87158000 16.64594000 -14.58929000 / -0.03080390 -0.01163490 0.99945770 / 9 220 0 255 / 0.23017880 0.13072200
				-12.87158000 16.64594000 -14.58929000 / -0.03080390 -0.01163490 0.99945770 / 9 220 0 255 / 0.23017880 0.13072200
				-12.48448000 15.87704000 -14.58636000 / -0.03080390 -0.01173030 0.99945660 / 9 225 0 255 / 0.23017880 0.91140750
				-12.45787000 15.89043000 -14.58538000 / -0.03080390 -0.01173030 0.99945660 / 9 220 0 255 / 0.24122620 0.91140750
				-12.45787000 15.89043000 -14.58538000 / -0.03080390 -0.01173030 0.99945660 / 9 220 0 255 / 0.24122620 0.91140750
				-12.84497000 16.65933000 -14.58831000 / -0.03080390 -0.01163490 0.99945770 / 9 216 0 255 / 0.24122620 0.13072200
				-12.85709000 16.61933000 -14.61956000 / -0.89266440 -0.44957480 -0.03213970 / 39 150 0 255 / 0.21145630 0.14944460
				-12.85709000 16.61933000 -14.61956000 / -0.89266440 -0.44957480 -0.03213970 / 39 150 0 255 / 0.21145630 0.14944460
				-12.49722000 15.90452000 -14.61712000 / -0.89269190 -0.44954060 -0.03185120 / 42 143 0 255 / 0.21145630 0.89266960
				-12.48448000 15.87704000 -14.58636000 / -0.89269190 -0.44954060 -0.03185120 / 38 146 0 255 / 0.23017880 0.91140750
				-12.48448000 15.87704000 -14.58636000 / -0.89269190 -0.44954060 -0.03185120 / 38 146 0 255 / 0.23017880 0.91140750
				-12.87158000 16.64594000 -14.58929000 / -0.89266440 -0.44957480 -0.03213970 / 44 148 0 255 / 0.23017880 0.13072200
				-12.84270000 16.62658000 -14.61907000 / 0.02880030 0.01106240 -0.99952400 / 12 69 0 255 / 0.20545960 0.14944460
				-12.84270000 16.62658000 -14.61907000 / 0.02880030 0.01106240 -0.99952400 / 12 69 0 255 / 0.20545960 0.14944460
				-12.48283000 15.91176000 -14.61614000 / 0.05569710 0.02393830 -0.99816080 / 12 71 0 255 / 0.20545960 0.89266960
				-12.49722000 15.90452000 -14.61712000 / 0.05531180 0.02374590 -0.99818680 / 12 69 0 255 / 0.21145630 0.89266960
				-12.49722000 15.90452000 -14.61712000 / 0.05531180 0.02374590 -0.99818680 / 12 69 0 255 / 0.21145630 0.89266960
				-12.85709000 16.61933000 -14.61956000 / 0.02841920 0.01087180 -0.99953700 / 12 67 0 255 / 0.21145630 0.14944460
				-12.87158000 16.64594000 -14.58929000 / -0.89232400 -0.45031030 -0.03127950 / 44 148 0 255 / 0.23017880 0.91140750
				-12.87158000 16.64594000 -14.58929000 / -0.89232400 -0.45031030 -0.03127950 / 44 148 0 255 / 0.23017880 0.91140750
				-12.83668000 16.66131000 -15.80511000 / -0.89299540 -0.44897730 -0.03127960 / 49 138 0 255 / 0.23017880 0.31652830
				-12.82394000 16.63384000 -15.77435000 / -0.89299540 -0.44897730 -0.03127960 / 48 144 0 255 / 0.21145630 0.33525090
				-12.82394000 16.63384000 -15.77435000 / -0.89299540 -0.44897730 -0.03127960 / 48 144 0 255 / 0.21145630 0.33525090
				-12.85709000 16.61933000 -14.61956000 / -0.89232400 -0.45031030 -0.03127950 / 39 150 0 255 / 0.21145630 0.89266960
				-12.84270000 16.62658000 -14.61907000 / 0.44965260 -0.89320180 0.00171660 / 61 128 0 255 / 0.20545960 0.89266960
				-12.84270000 16.62658000 -14.61907000 / 0.44965260 -0.89320180 0.00171660 / 61 128 0 255 / 0.20545960 0.89266960
				-12.85709000 16.61933000 -14.61956000 / 0.44965260 -0.89320180 0.00171660 / 66 120 0 255 / 0.21145630 0.89266960
				-12.82394000 16.63384000 -15.77435000 / 0.44965260 -0.89320180 0.00171660 / 61 128 0 255 / 0.21145630 0.33525090
				-12.82394000 16.63384000 -15.77435000 / 0.44965260 -0.89320180 0.00171660 / 61 128 0 255 / 0.21145630 0.33525090
				-12.80955000 16.64108000 -15.77386000 / 0.44965260 -0.89320180 0.00171660 / 56 135 0 255 / 0.20545960 0.33525090
				-12.45002000 15.89220000 -15.80218000 / 0.44965270 -0.89320190 0.00162120 / 95 146 0 255 / 0.23017880 0.91140750
				-12.45002000 15.89220000 -15.80218000 / 0.44965270 -0.89320190 0.00162120 / 95 146 0 255 / 0.23017880 0.91140750
				-12.42342000 15.90559000 -15.80120000 / 0.44965270 -0.89320190 0.00162120 / 85 146 0 255 / 0.24122620 0.91140750
				-12.45787000 15.89043000 -14.58538000 / 0.44965270 -0.89320190 0.00162120 / 95 146 0 255 / 0.24122620 0.31652830
				-12.45787000 15.89043000 -14.58538000 / 0.44965270 -0.89320190 0.00162120 / 95 146 0 255 / 0.24122620 0.31652830
				-12.48448000 15.87704000 -14.58636000 / 0.44965270 -0.89320190 0.00162120 / 104 147 0 255 / 0.23017880 0.31652830
				-13.43983000 17.86046000 -14.58490000 / -0.44964410 0.89318490 0.00638940 / 25 154 0 255 / 0.23017880 0.91140750
				-13.43983000 17.86046000 -14.58490000 / -0.44964410 0.89318490 0.00638940 / 25 154 0 255 / 0.23017880 0.91140750
				-13.41323000 17.87385000 -14.58490000 / -0.44964410 0.89318490 0.00638940 / 23 157 0 255 / 0.24122620 0.91140750
				-13.41675000 17.88083000 -15.80121000 / -0.44964410 0.89318490 0.00638940 / 25 154 0 255 / 0.24122620 0.31652830
				-13.41675000 17.88083000 -15.80121000 / -0.44964410 0.89318490 0.00638940 / 25 154 0 255 / 0.24122620 0.31652830
				-13.44335000 17.86743000 -15.80120000 / -0.44964410 0.89318490 0.00638940 / 28 152 0 255 / 0.23017880 0.31652830
				-13.06657000 17.11904000 -14.61956000 / -0.89316490 -0.44972940 0.00000000 / 37 138 0 255 / 0.21145630 0.33525090
				-13.06657000 17.11904000 -14.61956000 / -0.89316490 -0.44972940 0.00000000 / 37 138 0 255 / 0.21145630 0.33525090
				-13.06987000 17.12558000 -15.77484000 / -0.89316490 -0.44972940 0.00000000 / 47 136 0 255 / 0.21145630 0.89266960
				-13.05625000 17.09854000 -15.80560000 / -0.89316490 -0.44972940 0.00000000 / 40 136 0 255 / 0.23017880 0.91140750
				-13.05625000 17.09854000 -15.80560000 / -0.89316490 -0.44972940 0.00000000 / 40 136 0 255 / 0.23017880 0.91140750
				-13.05274000 17.09156000 -14.58929000 / -0.89316490 -0.44972940 0.00000000 / 39 145 0 255 / 0.23017880 0.31652830
				-13.05547000 17.13282000 -15.77484000 / -0.44964440 0.89318560 0.00629410 / 33 132 0 255 / 0.20545960 0.89266960
				-13.05547000 17.13282000 -15.77484000 / -0.44964440 0.89318560 0.00629410 / 33 132 0 255 / 0.20545960 0.89266960
				-13.06987000 17.12558000 -15.77484000 / -0.44964440 0.89318560 0.00629410 / 31 128 0 255 / 0.21145630 0.89266960
				-13.06657000 17.11904000 -14.61956000 / -0.44964440 0.89318560 0.00629410 / 33 132 0 255 / 0.21145630 0.33525090
				-13.06657000 17.11904000 -14.61956000 / -0.44964440 0.89318560 0.00629410 / 33 132 0 255 / 0.21145630 0.33525090
				-13.05218000 17.12628000 -14.61956000 / -0.44964440 0.89318560 0.00629410 / 36 135 0 255 / 0.20545960 0.33525090
				-13.05625000 17.09854000 -15.80560000 / -0.00228870 0.00457750 -0.99998690 / 12 59 0 255 / 0.23017880 0.13072200
				-13.05625000 17.09854000 -15.80560000 / -0.00228870 0.00457750 -0.99998690 / 12 59 0 255 / 0.23017880 0.13072200
				-13.44335000 17.86743000 -15.80120000 / -0.00228870 0.00457750 -0.99998690 / 12 61 0 255 / 0.23017880 0.91139220
				-13.41675000 17.88083000 -15.80121000 / -0.00228870 0.00457750 -0.99998690 / 12 59 0 255 / 0.24122620 0.91139220
				-13.41675000 17.88083000 -15.80121000 / -0.00228870 0.00457750 -0.99998690 / 12 59 0 255 / 0.24122620 0.91139220
				-13.02965000 17.11193000 -15.80560000 / -0.00228870 0.00457750 -0.99998690 / 12 58 0 255 / 0.24122620 0.13072200
				-13.06987000 17.12558000 -15.77484000 / -0.89316490 -0.44972940 0.00000000 / 47 136 0 255 / 0.21145630 0.14944460
				-13.06987000 17.12558000 -15.77484000 / -0.89316490 -0.44972940 0.00000000 / 47 136 0 255 / 0.21145630 0.14944460
				-13.42974000 17.84039000 -15.77093000 / -0.89316490 -0.44972940 0.00000000 / 56 133 0 255 / 0.21145630 0.89266960
				-13.44335000 17.86743000 -15.80120000 / -0.89316490 -0.44972940 0.00000000 / 54 132 0 255 / 0.23017880 0.91139220
				-13.44335000 17.86743000 -15.80120000 / -0.89316490 -0.44972940 0.00000000 / 54 132 0 255 / 0.23017880 0.91139220
				-13.05625000 17.09854000 -15.80560000 / -0.89316490 -0.44972940 0.00000000 / 40 136 0 255 / 0.23017880 0.13072200
				-13.05547000 17.13282000 -15.77484000 / 0.00219340 -0.00438670 0.99998800 / 8 177 0 255 / 0.20545960 0.14944460
				-13.05547000 17.13282000 -15.77484000 / 0.00219340 -0.00438670 0.99998800 / 8 177 0 255 / 0.20545960 0.14944460
				-13.41534000 17.84764000 -15.77093000 / 0.00219340 -0.00438670 0.99998800 / 8 190 0 255 / 0.20545960 0.89266960
				-13.42974000 17.84039000 -15.77093000 / 0.00219340 -0.00438670 0.99998800 / 8 177 0 255 / 0.21145630 0.89266960
				-13.42974000 17.84039000 -15.77093000 / 0.00219340 -0.00438670 0.99998800 / 8 177 0 255 / 0.21145630 0.89266960
				-13.06987000 17.12558000 -15.77484000 / 0.00219340 -0.00438670 0.99998800 / 8 163 0 255 / 0.21145630 0.14944460
				-13.43983000 17.86046000 -14.58490000 / 0.00228870 -0.00457750 0.99998690 / 5 227 0 255 / 0.23017880 0.13072200
				-13.43983000 17.86046000 -14.58490000 / 0.00228870 -0.00457750 0.99998690 / 5 227 0 255 / 0.23017880 0.13072200
				-13.05274000 17.09156000 -14.58929000 / 0.00228870 -0.00457750 0.99998690 / 5 224 0 255 / 0.23017880 0.91140750
				-13.02613000 17.10495000 -14.58929000 / 0.00228870 -0.00457750 0.99998690 / 5 227 0 255 / 0.24122620 0.91140750
				-13.02613000 17.10495000 -14.58929000 / 0.00228870 -0.00457750 0.99998690 / 5 227 0 255 / 0.24122620 0.91140750
				-13.41323000 17.87385000 -14.58490000 / 0.00228870 -0.00457750 0.99998690 / 5 231 0 255 / 0.24122620 0.13072200
				-13.42622000 17.83342000 -14.61566000 / -0.89316490 -0.44972940 0.00000000 / 46 145 0 255 / 0.21145630 0.14944460
				-13.42622000 17.83342000 -14.61566000 / -0.89316490 -0.44972940 0.00000000 / 46 145 0 255 / 0.21145630 0.14944460
				-13.06657000 17.11904000 -14.61956000 / -0.89316490 -0.44972940 0.00000000 / 37 138 0 255 / 0.21145630 0.89266960
				-13.05274000 17.09156000 -14.58929000 / -0.89316490 -0.44972940 0.00000000 / 39 145 0 255 / 0.23017880 0.91140750
				-13.05274000 17.09156000 -14.58929000 / -0.89316490 -0.44972940 0.00000000 / 39 145 0 255 / 0.23017880 0.91140750
				-13.43983000 17.86046000 -14.58490000 / -0.89316490 -0.44972940 0.00000000 / 53 139 0 255 / 0.23017880 0.13072200
				-13.41183000 17.84066000 -14.61566000 / -0.00219340 0.00438670 -0.99998800 / 13 83 0 255 / 0.20545960 0.14944460
				-13.41183000 17.84066000 -14.61566000 / -0.00219340 0.00438670 -0.99998800 / 13 83 0 255 / 0.20545960 0.14944460
				-13.05218000 17.12628000 -14.61956000 / -0.00219340 0.00438670 -0.99998800 / 12 84 0 255 / 0.20545960 0.89266960
				-13.06657000 17.11904000 -14.61956000 / -0.00219340 0.00438670 -0.99998800 / 13 83 0 255 / 0.21145630 0.89266960
				-13.06657000 17.11904000 -14.61956000 / -0.00219340 0.00438670 -0.99998800 / 13 83 0 255 / 0.21145630 0.89266960
				-13.42622000 17.83342000 -14.61566000 / -0.00219340 0.00438670 -0.99998800 / 14 83 0 255 / 0.21145630 0.14944460
				-13.43983000 17.86046000 -14.58490000 / -0.89316490 -0.44972940 0.00000000 / 53 139 0 255 / 0.23017880 0.91140750
				-13.43983000 17.86046000 -14.58490000 / -0.89316490 -0.44972940 0.00000000 / 53 139 0 255 / 0.23017880 0.91140750
				-13.44335000 17.86743000 -15.80120000 / -0.89316490 -0.44972940 0.00000000 / 54 132 0 255 / 0.23017880 0.31652830
				-13.42974000 17.84039000 -15.77093000 / -0.89316490 -0.44972940 0.00000000 / 56 133 0 255 / 0.21145630 0.33525090
				-13.42974000 17.84039000 -15.77093000 / -0.89316490 -0.44972940 0.00000000 / 56 133 0 255 / 0.21145630 0.33525090
				-13.42622000 17.83342000 -14.61566000 / -0.89316490 -0.44972940 0.00000000 / 46 145 0 255 / 0.21145630 0.89266960
				-13.41183000 17.84066000 -14.61566000 / 0.44964300 -0.89318270 -0.00677090 / 59 113 0 255 / 0.20545960 0.89266960
				-13.41183000 17.84066000 -14.61566000 / 0.44964300 -0.89318270 -0.00677090 / 59 113 0 255 / 0.20545960 0.89266960
				-13.42622000 17.83342000 -14.61566000 / 0.44964300 -0.89318270 -0.00677090 / 56 112 0 255 / 0.21145630 0.89266960
				-13.42974000 17.84039000 -15.77093000 / 0.44964300 -0.89318270 -0.00677090 / 59 113 0 255 / 0.21145630 0.33525090
				-13.42974000 17.84039000 -15.77093000 / 0.44964300 -0.89318270 -0.00677090 / 59 113 0 255 / 0.21145630 0.33525090
				-13.41534000 17.84764000 -15.77093000 / 0.44964300 -0.89318270 -0.00677090 / 63 114 0 255 / 0.20545960 0.33525090
				-13.05625000 17.09854000 -15.80560000 / 0.44964410 -0.89318490 -0.00638940 / 70 153 0 255 / 0.23017880 0.91140750
				-13.05625000 17.09854000 -15.80560000 / 0.44964410 -0.89318490 -0.00638940 / 70 153 0 255 / 0.23017880 0.91140750
				-13.02965000 17.11193000 -15.80560000 / 0.44964410 -0.89318490 -0.00638940 / 68 155 0 255 / 0.24122620 0.91140750
				-13.02613000 17.10495000 -14.58929000 / 0.44964410 -0.89318490 -0.00638940 / 70 153 0 255 / 0.24122620 0.31652830
				-13.02613000 17.10495000 -14.58929000 / 0.44964410 -0.89318490 -0.00638940 / 70 153 0 255 / 0.24122620 0.31652830
				-13.05274000 17.09156000 -14.58929000 / 0.44964410 -0.89318490 -0.00638940 / 71 151 0 255 / 0.23017880 0.31652830
				-14.06427000 19.01717000 -14.60980000 / -0.44965240 0.89320140 -0.00200270 / 10 147 0 255 / 0.23017880 0.91140750
				-14.06427000 19.01717000 -14.60980000 / -0.44965240 0.89320140 -0.00200270 / 10 147 0 255 / 0.23017880 0.91140750
				-14.03767000 19.03057000 -14.60882000 / -0.44965240 0.89320140 -0.00200270 / 10 146 0 255 / 0.24122620 0.91140750
				-14.00299000 19.04529000 -15.82464000 / -0.44957640 0.89323980 -0.00200280 / 10 147 0 255 / 0.24122620 0.31652830
				-14.00299000 19.04529000 -15.82464000 / -0.44957640 0.89323980 -0.00200280 / 10 147 0 255 / 0.24122620 0.31652830
				-14.02960000 19.03190000 -15.82562000 / -0.44957640 0.89323980 -0.00200280 / 9 148 0 255 / 0.23017880 0.31652830
				-13.69035000 18.27554000 -14.63763000 / -0.88586540 -0.46291210 -0.03089900 / 24 144 0 255 / 0.21145630 0.33525090
				-13.69035000 18.27554000 -14.63763000 / -0.88586540 -0.46291210 -0.03089900 / 24 144 0 255 / 0.21145630 0.33525090
				-13.65720000 18.29004000 -15.79242000 / -0.89232400 -0.45031030 -0.03127950 / 27 165 0 255 / 0.21145630 0.89266960
				-13.64250000 18.26300000 -15.82269000 / -0.89213170 -0.45069100 -0.03127940 / 24 154 0 255 / 0.23017880 0.91140750
				-13.64250000 18.26300000 -15.82269000 / -0.89213170 -0.45069100 -0.03127940 / 24 154 0 255 / 0.23017880 0.91140750
				-13.67718000 18.24828000 -14.60687000 / -0.88576670 -0.46310110 -0.03089880 / 26 134 0 255 / 0.23017880 0.31652830
				-13.64281000 18.29728000 -15.79193000 / -0.44957660 0.89324020 -0.00171670 / 15 115 0 255 / 0.20545960 0.89266960
				-13.64281000 18.29728000 -15.79193000 / -0.44957660 0.89324020 -0.00171670 / 15 115 0 255 / 0.20545960 0.89266960
				-13.65720000 18.29004000 -15.79242000 / -0.44957660 0.89324020 -0.00171670 / 16 127 0 255 / 0.21145630 0.89266960
				-13.69035000 18.27554000 -14.63763000 / -0.44957660 0.89324020 -0.00171670 / 15 115 0 255 / 0.21145630 0.33525090
				-13.69035000 18.27554000 -14.63763000 / -0.44957660 0.89324020 -0.00171670 / 15 115 0 255 / 0.21145630 0.33525090
				-13.67596000 18.28278000 -14.63714000 / -0.44957660 0.89324020 -0.00171670 / 14 101 0 255 / 0.20545960 0.33525090
				-13.64250000 18.26300000 -15.82269000 / 0.03080390 0.01163490 -0.99945770 / 11 72 0 255 / 0.23017880 0.13072200
				-13.64250000 18.26300000 -15.82269000 / 0.03080390 0.01163490 -0.99945770 / 11 72 0 255 / 0.23017880 0.13072200
				-14.02960000 19.03190000 -15.82562000 / 0.03080390 0.01163490 -0.99945770 / 10 72 0 255 / 0.23017880 0.91139220
				-14.00299000 19.04529000 -15.82464000 / 0.03080390 0.01163490 -0.99945770 / 11 72 0 255 / 0.24122620 0.91139220
				-14.00299000 19.04529000 -15.82464000 / 0.03080390 0.01163490 -0.99945770 / 11 72 0 255 / 0.24122620 0.91139220
				-13.61590000 18.27639000 -15.82171000 / 0.03080390 0.01163490 -0.99945770 / 12 72 0 255 / 0.24122620 0.13072200
				-13.65720000 18.29004000 -15.79242000 / -0.89266440 -0.44957480 -0.03213970 / 27 165 0 255 / 0.21145630 0.14944460
				-13.65720000 18.29004000 -15.79242000 / -0.89266440 -0.44957480 -0.03213970 / 27 165 0 255 / 0.21145630 0.14944460
				-14.01685000 19.00442000 -15.79486000 / -0.89269190 -0.44954060 -0.03185120 / 32 157 0 255 / 0.21145630 0.89266960
				-14.02960000 19.03190000 -15.82562000 / -0.89269190 -0.44954060 -0.03185120 / 30 162 0 255 / 0.23017880 0.91139220
				-14.02960000 19.03190000 -15.82562000 / -0.89269190 -0.44954060 -0.03185120 / 30 162 0 255 / 0.23017880 0.91139220
				-13.64250000 18.26300000 -15.82269000 / -0.89266440 -0.44957480 -0.03213970 / 24 154 0 255 / 0.23017880 0.13072200
				-13.64281000 18.29728000 -15.79193000 / -0.02841920 -0.01087180 0.99953700 / 28 170 0 255 / 0.20545960 0.14944460
				-13.64281000 18.29728000 -15.79193000 / -0.02841920 -0.01087180 0.99953700 / 28 170 0 255 / 0.20545960 0.14944460
				-14.00246000 19.01167000 -15.79437000 / -0.02841920 -0.01087180 0.99953700 / 31 163 0 255 / 0.20545960 0.89266960
				-14.01685000 19.00442000 -15.79486000 / -0.02841920 -0.01087180 0.99953700 / 28 170 0 255 / 0.21145630 0.89266960
				-14.01685000 19.00442000 -15.79486000 / -0.02841920 -0.01087180 0.99953700 / 28 170 0 255 / 0.21145630 0.89266960
				-13.65720000 18.29004000 -15.79242000 / -0.02841920 -0.01087180 0.99953700 / 26 177 0 255 / 0.21145630 0.14944460
				-14.06427000 19.01717000 -14.60980000 / -0.03080390 -0.01163490 0.99945770 / 7 227 0 255 / 0.23017880 0.13072200
				-14.06427000 19.01717000 -14.60980000 / -0.03080390 -0.01163490 0.99945770 / 7 227 0 255 / 0.23017880 0.13072200
				-13.67718000 18.24828000 -14.60687000 / -0.03128010 -0.01201610 0.99943840 / 7 226 0 255 / 0.23017880 0.91140750
				-13.65101000 18.26145000 -14.60589000 / -0.03128010 -0.01201610 0.99943840 / 7 227 0 255 / 0.24122620 0.91140750
				-13.65101000 18.26145000 -14.60589000 / -0.03128010 -0.01201610 0.99943840 / 7 227 0 255 / 0.24122620 0.91140750
				-14.03767000 19.03057000 -14.60882000 / -0.03080390 -0.01163490 0.99945770 / 6 228 0 255 / 0.24122620 0.13072200
				-14.04957000 18.99014000 -14.64007000 / -0.89269190 -0.44954060 -0.03185120 / 30 137 0 255 / 0.21145630 0.14944460
				-14.04957000 18.99014000 -14.64007000 / -0.89269190 -0.44954060 -0.03185120 / 30 137 0 255 / 0.21145630 0.14944460
				-13.69035000 18.27554000 -14.63763000 / -0.89330860 -0.44918150 -0.01535420 / 24 144 0 255 / 0.21145630 0.89266960
				-13.67718000 18.24828000 -14.60687000 / -0.89329790 -0.44917620 -0.01611690 / 26 134 0 255 / 0.23017880 0.91140750
				-13.67718000 18.24828000 -14.60687000 / -0.89329790 -0.44917620 -0.01611690 / 26 134 0 255 / 0.23017880 0.91140750
				-14.06427000 19.01717000 -14.60980000 / -0.89266440 -0.44957480 -0.03213970 / 32 143 0 255 / 0.23017880 0.13072200
				-14.03517000 18.99738000 -14.63959000 / 0.02841920 0.01087180 -0.99953700 / 12 87 0 255 / 0.20545960 0.14944460
				-14.03517000 18.99738000 -14.63959000 / 0.02841920 0.01087180 -0.99953700 / 12 87 0 255 / 0.20545960 0.14944460
				-13.67596000 18.28278000 -14.63714000 / 0.02841920 0.01087180 -0.99953700 / 12 84 0 255 / 0.20545960 0.89266960
				-13.69035000 18.27554000 -14.63763000 / 0.02841920 0.01087180 -0.99953700 / 12 87 0 255 / 0.21145630 0.89266960
				-13.69035000 18.27554000 -14.63763000 / 0.02841920 0.01087180 -0.99953700 / 12 87 0 255 / 0.21145630 0.89266960
				-14.04957000 18.99014000 -14.64007000 / 0.02841920 0.01087180 -0.99953700 / 12 90 0 255 / 0.21145630 0.14944460
				-14.06427000 19.01717000 -14.60980000 / -0.89224110 -0.45050740 -0.03080310 / 32 143 0 255 / 0.23017880 0.91140750
				-14.06427000 19.01717000 -14.60980000 / -0.89224110 -0.45050740 -0.03080310 / 32 143 0 255 / 0.23017880 0.91140750
				-14.02960000 19.03190000 -15.82562000 / -0.89310190 -0.44879200 -0.03089860 / 30 162 0 255 / 0.23017880 0.31652830
				-14.01685000 19.00442000 -15.79486000 / -0.89310190 -0.44879200 -0.03089860 / 32 157 0 255 / 0.21145630 0.33525090
				-14.01685000 19.00442000 -15.79486000 / -0.89310190 -0.44879200 -0.03089860 / 32 157 0 255 / 0.21145630 0.33525090
				-14.04957000 18.99014000 -14.64007000 / -0.89214500 -0.45069770 -0.03080310 / 30 137 0 255 / 0.21145630 0.89266960
				-14.03517000 18.99738000 -14.63959000 / 0.44965260 -0.89320180 0.00171660 / 43 125 0 255 / 0.20545960 0.89266960
				-14.03517000 18.99738000 -14.63959000 / 0.44965260 -0.89320180 0.00171660 / 43 125 0 255 / 0.20545960 0.89266960
				-14.04957000 18.99014000 -14.64007000 / 0.44965260 -0.89320180 0.00171660 / 49 130 0 255 / 0.21145630 0.89266960
				-14.01685000 19.00442000 -15.79486000 / 0.44965260 -0.89320180 0.00171660 / 43 125 0 255 / 0.21145630 0.33525090
				-14.01685000 19.00442000 -15.79486000 / 0.44965260 -0.89320180 0.00171660 / 43 125 0 255 / 0.21145630 0.33525090
				-14.00246000 19.01167000 -15.79437000 / 0.44965260 -0.89320180 0.00171660 / 38 121 0 255 / 0.20545960 0.33525090
				-13.64250000 18.26300000 -15.82269000 / 0.44965240 -0.89320140 0.00200270 / 32 156 0 255 / 0.23017880 0.91140750
				-13.64250000 18.26300000 -15.82269000 / 0.44965240 -0.89320140 0.00200270 / 32 156 0 255 / 0.23017880 0.91140750
				-13.61590000 18.27639000 -15.82171000 / 0.44965240 -0.89320140 0.00200270 / 29 145 0 255 / 0.24122620 0.91140750
				-13.65101000 18.26145000 -14.60589000 / 0.44965240 -0.89320140 0.00200270 / 32 156 0 255 / 0.24122620 0.31652830
				-13.65101000 18.26145000 -14.60589000 / 0.44965240 -0.89320140 0.00200270 / 32 156 0 255 / 0.24122620 0.31652830
				-13.67718000 18.24828000 -14.60687000 / 0.44965240 -0.89320140 0.00200270 / 35 166 0 255 / 0.23017880 0.31652830
				-14.04408000 19.06069000 -13.18890000 / -0.44965270 0.89320190 -0.00162120 / 17 157 0 255 / 0.23017880 0.91140750
				-14.04408000 19.06069000 -13.18890000 / -0.44965270 0.89320190 -0.00162120 / 17 157 0 255 / 0.23017880 0.91140750
				-14.01748000 19.07408000 -13.18890000 / -0.44965270 0.89320190 -0.00162120 / 22 157 0 255 / 0.24122620 0.91140750
				-14.01660000 19.07233000 -14.40521000 / -0.44965270 0.89320190 -0.00162120 / 17 157 0 255 / 0.24122620 0.31652830
				-14.01660000 19.07233000 -14.40521000 / -0.44965270 0.89320190 -0.00162120 / 17 157 0 255 / 0.24122620 0.31652830
				-14.04321000 19.05894000 -14.40521000 / -0.44965270 0.89320190 -0.00162120 / 13 157 0 255 / 0.23017880 0.31652830
				-13.67060000 18.31883000 -13.21673000 / -0.89316490 -0.44972940 0.00000000 / 27 154 0 255 / 0.21145630 0.33525090
				-13.67060000 18.31883000 -13.21673000 / -0.89316490 -0.44972940 0.00000000 / 27 154 0 255 / 0.21145630 0.33525090
				-13.66972000 18.31708000 -14.37201000 / -0.89316490 -0.44972940 0.00000000 / 26 149 0 255 / 0.21145630 0.89266960
				-13.65611000 18.29004000 -14.40277000 / -0.89316490 -0.44972940 0.00000000 / 23 149 0 255 / 0.23017880 0.91140750
				-13.65611000 18.29004000 -14.40277000 / -0.89316490 -0.44972940 0.00000000 / 23 149 0 255 / 0.23017880 0.91140750
				-13.65698000 18.29179000 -13.18646000 / -0.89316490 -0.44972940 0.00000000 / 37 160 0 255 / 0.23017880 0.31652830
				-13.65533000 18.32433000 -14.37201000 / -0.44965260 0.89320180 -0.00171660 / 13 138 0 255 / 0.20545960 0.89266960
				-13.65533000 18.32433000 -14.37201000 / -0.44965260 0.89320180 -0.00171660 / 13 138 0 255 / 0.20545960 0.89266960
				-13.66972000 18.31708000 -14.37201000 / -0.44965260 0.89320180 -0.00171660 / 15 136 0 255 / 0.21145630 0.89266960
				-13.67060000 18.31883000 -13.21673000 / -0.44972870 0.89316350 -0.00171650 / 13 138 0 255 / 0.21145630 0.33525090
				-13.67060000 18.31883000 -13.21673000 / -0.44972870 0.89316350 -0.00171650 / 13 138 0 255 / 0.21145630 0.33525090
				-13.65620000 18.32608000 -13.21673000 / -0.44972870 0.89316350 -0.00171650 / 12 140 0 255 / 0.20545960 0.33525090
				-13.65611000 18.29004000 -14.40277000 / 0.00123970 -0.00247950 -0.99999620 / 7 77 0 255 / 0.23017880 0.13072200
				-13.65611000 18.29004000 -14.40277000 / 0.00123970 -0.00247950 -0.99999620 / 7 77 0 255 / 0.23017880 0.13072200
				-14.04321000 19.05894000 -14.40521000 / 0.00123970 -0.00247950 -0.99999620 / 7 81 0 255 / 0.23017880 0.91139220
				-14.01660000 19.07233000 -14.40521000 / 0.00123970 -0.00247950 -0.99999620 / 7 77 0 255 / 0.24122620 0.91139220
				-14.01660000 19.07233000 -14.40521000 / 0.00123970 -0.00247950 -0.99999620 / 7 77 0 255 / 0.24122620 0.91139220
				-13.62950000 18.30344000 -14.40277000 / 0.00123970 -0.00247950 -0.99999620 / 8 72 0 255 / 0.24122620 0.13072200
				-13.66972000 18.31708000 -14.37201000 / -0.89316490 -0.44972940 0.00000000 / 26 149 0 255 / 0.21145630 0.14944460
				-13.66972000 18.31708000 -14.37201000 / -0.89316490 -0.44972940 0.00000000 / 26 149 0 255 / 0.21145630 0.14944460
				-14.02959000 19.03190000 -14.37494000 / -0.89316490 -0.44972940 0.00000000 / 45 155 0 255 / 0.21145630 0.89266960
				-14.04321000 19.05894000 -14.40521000 / -0.89316490 -0.44972940 0.00000000 / 35 153 0 255 / 0.23017880 0.91139220
				-14.04321000 19.05894000 -14.40521000 / -0.89316490 -0.44972940 0.00000000 / 35 153 0 255 / 0.23017880 0.91139220
				-13.65611000 18.29004000 -14.40277000 / -0.89316490 -0.44972940 0.00000000 / 23 149 0 255 / 0.23017880 0.13072200
				-13.65533000 18.32433000 -14.37201000 / -0.00162120 0.00324240 0.99999340 / 11 189 0 255 / 0.20545960 0.14944460
				-13.65533000 18.32433000 -14.37201000 / -0.00162120 0.00324240 0.99999340 / 11 189 0 255 / 0.20545960 0.14944460
				-14.01520000 19.03915000 -14.37494000 / -0.00162120 0.00324240 0.99999340 / 11 187 0 255 / 0.20545960 0.89266960
				-14.02959000 19.03190000 -14.37494000 / -0.00162120 0.00324240 0.99999340 / 11 189 0 255 / 0.21145630 0.89266960
				-14.02959000 19.03190000 -14.37494000 / -0.00162120 0.00324240 0.99999340 / 11 189 0 255 / 0.21145630 0.89266960
				-13.66972000 18.31708000 -14.37201000 / -0.00162120 0.00324240 0.99999340 / 11 190 0 255 / 0.21145630 0.14944460
				-14.04408000 19.06069000 -13.18890000 / -0.00123970 0.00247950 0.99999620 / 10 244 0 255 / 0.23017880 0.13072200
				-14.04408000 19.06069000 -13.18890000 / -0.00123970 0.00247950 0.99999620 / 10 244 0 255 / 0.23017880 0.13072200
				-13.65698000 18.29179000 -13.18646000 / -0.00123970 0.00247950 0.99999620 / 10 242 0 255 / 0.23017880 0.91140750
				-13.63038000 18.30518000 -13.18646000 / -0.00123970 0.00247950 0.99999620 / 10 244 0 255 / 0.24122620 0.91140750
				-13.63038000 18.30518000 -13.18646000 / -0.00123970 0.00247950 0.99999620 / 10 244 0 255 / 0.24122620 0.91140750
				-14.01748000 19.07408000 -13.18890000 / -0.00123970 0.00247950 0.99999620 / 9 246 0 255 / 0.24122620 0.13072200
				-14.03047000 19.03365000 -13.21917000 / -0.89316490 -0.44972940 0.00000000 / 47 158 0 255 / 0.21145630 0.14944460
				-14.03047000 19.03365000 -13.21917000 / -0.89316490 -0.44972940 0.00000000 / 47 158 0 255 / 0.21145630 0.14944460
				-13.67060000 18.31883000 -13.21673000 / -0.89316490 -0.44972940 0.00000000 / 27 154 0 255 / 0.21145630 0.89266960
				-13.65698000 18.29179000 -13.18646000 / -0.89316490 -0.44972940 0.00000000 / 37 160 0 255 / 0.23017880 0.91140750
				-13.65698000 18.29179000 -13.18646000 / -0.89316490 -0.44972940 0.00000000 / 37 160 0 255 / 0.23017880 0.91140750
				-14.04408000 19.06069000 -13.18890000 / -0.89316490 -0.44972940 0.00000000 / 50 157 0 255 / 0.23017880 0.13072200
				-14.01608000 19.04089000 -13.21917000 / 0.00133510 -0.00267020 -0.99999560 / 9 86 0 255 / 0.20545960 0.14944460
				-14.01608000 19.04089000 -13.21917000 / 0.00133510 -0.00267020 -0.99999560 / 9 86 0 255 / 0.20545960 0.14944460
				-13.65620000 18.32608000 -13.21673000 / 0.00133510 -0.00267020 -0.99999560 / 9 87 0 255 / 0.20545960 0.89266960
				-13.67060000 18.31883000 -13.21673000 / 0.00133510 -0.00267020 -0.99999560 / 9 86 0 255 / 0.21145630 0.89266960
				-13.67060000 18.31883000 -13.21673000 / 0.00133510 -0.00267020 -0.99999560 / 9 86 0 255 / 0.21145630 0.89266960
				-14.03047000 19.03365000 -13.21917000 / 0.00133510 -0.00267020 -0.99999560 / 9 85 0 255 / 0.21145630 0.14944460
				-14.04408000 19.06069000 -13.18890000 / -0.89316490 -0.44972940 0.00000000 / 50 157 0 255 / 0.23017880 0.91140750
				-14.04408000 19.06069000 -13.18890000 / -0.89316490 -0.44972940 0.00000000 / 50 157 0 255 / 0.23017880 0.91140750
				-14.04321000 19.05894000 -14.40521000 / -0.89316490 -0.44972940 0.00000000 / 35 153 0 255 / 0.23017880 0.31652830
				-14.02959000 19.03190000 -14.37494000 / -0.89316490 -0.44972940 0.00000000 / 45 155 0 255 / 0.21145630 0.33525090
				-14.02959000 19.03190000 -14.37494000 / -0.89316490 -0.44972940 0.00000000 / 45 155 0 255 / 0.21145630 0.33525090
				-14.03047000 19.03365000 -13.21917000 / -0.89316490 -0.44972940 0.00000000 / 47 158 0 255 / 0.21145630 0.89266960
				-14.01608000 19.04089000 -13.21917000 / 0.44972870 -0.89316350 0.00171650 / 67 126 0 255 / 0.20545960 0.89266960
				-14.01608000 19.04089000 -13.21917000 / 0.44972870 -0.89316350 0.00171650 / 67 126 0 255 / 0.20545960 0.89266960
				-14.03047000 19.03365000 -13.21917000 / 0.44972870 -0.89316350 0.00171650 / 55 116 0 255 / 0.21145630 0.89266960
				-14.02959000 19.03190000 -14.37494000 / 0.44965260 -0.89320180 0.00171660 / 67 126 0 255 / 0.21145630 0.33525090
				-14.02959000 19.03190000 -14.37494000 / 0.44965260 -0.89320180 0.00171660 / 67 126 0 255 / 0.21145630 0.33525090
				-14.01520000 19.03915000 -14.37494000 / 0.44965260 -0.89320180 0.00171660 / 80 136 0 255 / 0.20545960 0.33525090
				-13.65611000 18.29004000 -14.40277000 / 0.44965270 -0.89320190 0.00162120 / 79 153 0 255 / 0.23017880 0.91140750
				-13.65611000 18.29004000 -14.40277000 / 0.44965270 -0.89320190 0.00162120 / 79 153 0 255 / 0.23017880 0.91140750
				-13.62950000 18.30344000 -14.40277000 / 0.44965270 -0.89320190 0.00162120 / 88 139 0 255 / 0.24122620 0.91140750
				-13.63038000 18.30518000 -13.18646000 / 0.44965270 -0.89320190 0.00162120 / 79 153 0 255 / 0.24122620 0.31652830
				-13.63038000 18.30518000 -13.18646000 / 0.44965270 -0.89320190 0.00162120 / 79 153 0 255 / 0.24122620 0.31652830
				-13.65698000 18.29179000 -13.18646000 / 0.44965270 -0.89320190 0.00162120 / 69 165 0 255 / 0.23017880 0.31652830
				-13.45991000 17.85582000 -13.18939000 / -0.44965240 0.89320140 -0.00200270 / 21 166 0 255 / 0.23017880 0.91140750
				-13.45991000 17.85582000 -13.18939000 / -0.44965240 0.89320140 -0.00200270 / 21 166 0 255 / 0.23017880 0.91140750
				-13.43330000 17.86921000 -13.18890000 / -0.44965240 0.89320140 -0.00200270 / 17 165 0 255 / 0.24122620 0.91140750
				-13.41433000 17.87603000 -14.40521000 / -0.44965240 0.89320140 -0.00200270 / 21 166 0 255 / 0.24122620 0.31652830
				-13.41433000 17.87603000 -14.40521000 / -0.44965240 0.89320140 -0.00200270 / 21 166 0 255 / 0.24122620 0.31652830
				-13.44093000 17.86264000 -14.40570000 / -0.44965240 0.89320140 -0.00200270 / 24 168 0 255 / 0.23017880 0.31652830
				-13.08599000 17.11418000 -13.21722000 / -0.89281280 -0.45012570 -0.01649820 / 36 145 0 255 / 0.21145630 0.33525090
				-13.08599000 17.11418000 -13.21722000 / -0.89281280 -0.45012570 -0.01649820 / 36 145 0 255 / 0.21145630 0.33525090
				-13.06810000 17.12100000 -14.37249000 / -0.89319650 -0.44936390 -0.01649830 / 26 142 0 255 / 0.21145630 0.89266960
			}
		}
	}
}
