Version 165 32
{
	Locked False
	Skinned False
	BoneCount 0
	Mask 255
	Bounds
	{
		Aabb
		{
			Min -9.81963000 19.76721000 -16.40176000
			Max -9.00220100 20.17958000 -13.76259000
		}
		Aabb
		{
			Min -9.78641500 19.79451000 -16.37050000
			Max -9.03647500 20.15538000 -13.79287000
		}
		Aabb
		{
			Min -9.81963000 19.76721000 -16.40176000
			Max -9.00220100 20.17958000 -13.76259000
		}
	}
	Geometries
	{
		Geometry
		{
			ShaderIndex 0
			Flags -
			VertexDeclaration N209731BE
			Indices 60
			{
				0 3 15 27 39 51 53 54 56 11 22 33 44 55 57
				58 59 1 2 4 5 6 7 8 9 10 12 13 14 16
				17 18 19 20 21 23 24 25 26 28 29 30 31 32 34
				35 36 37 38 40 41 42 43 45 46 47 48 49 50 52
			}
			Vertices 60
			{
				-9.67864200 19.84415000 -13.91347000 / 0.41829600 -0.90831070 0.00000000 / 18 144 0 255 / 0.00030520 0.00006100
				-9.05772800 20.13009000 -14.94814000 / 0.41829600 -0.90831070 0.00000000 / 23 145 0 255 / 0.49505610 0.60859680
				-9.67864200 19.84415000 -13.91347000 / 0.41829600 -0.90831070 0.00000000 / 18 144 0 255 / 0.48031620 0.59313970
				-9.67730600 19.84475000 -14.78408000 / 0.41829600 -0.90831070 0.00000000 / 24 145 0 255 / 0.00030520 0.49874880
				-9.16683100 20.07985000 -13.91152000 / 0.41829600 -0.90831070 0.00000000 / 19 144 0 255 / 0.49246220 0.59310910
				-9.05950900 20.12928000 -13.79287000 / 0.41829600 -0.90831070 0.00000000 / 17 141 0 255 / 0.49501040 0.59133910
				-9.78463900 19.79532000 -14.95107000 / 0.41829600 -0.90831070 0.00000000 / 27 147 0 255 / 0.47779840 0.60864260
				-9.05772500 20.13009000 -14.94814000 / 0.41829600 -0.90831070 0.00000000 / 23 145 0 255 / 0.49505610 0.60859680
				-9.16549900 20.08046000 -14.78212000 / 0.41829600 -0.90831070 0.00000000 / 24 147 0 255 / 0.49250790 0.60612490
				-9.05950900 20.12928000 -13.79287000 / 0.41829600 -0.90831070 0.00000000 / 17 141 0 255 / 0.49501040 0.59133910
				-9.78641400 19.79451000 -13.79531000 / 0.41829600 -0.90831070 0.00000000 / 21 141 0 255 / 0.47775270 0.59138490
				-9.13958800 20.09512000 -16.20205000 / 0.44237900 -0.89658280 0.02097940 / 38 152 0 255 / 0.33340450 0.99932860
				-9.67864200 19.84415000 -13.91347000 / 0.41829600 -0.90831070 0.00000000 / 18 144 0 255 / 0.48031620 0.59313970
				-9.16549800 20.08046000 -14.78212000 / 0.41829600 -0.90831070 0.00000000 / 24 147 0 255 / 0.49250790 0.60612490
				-9.67730700 19.84475000 -14.78408000 / 0.41829600 -0.90831070 0.00000000 / 24 145 0 255 / 0.48034670 0.60614010
				-9.16549900 20.08046000 -14.78212000 / 0.41829600 -0.90831070 0.00000000 / 24 147 0 255 / 0.33340450 0.49874880
				-9.78463900 19.79532000 -14.95107000 / 0.41829600 -0.90831070 0.00000000 / 27 147 0 255 / 0.47779840 0.60864260
				-9.67730900 19.84475000 -14.78408000 / 0.41829600 -0.90831070 0.00000000 / 24 145 0 255 / 0.48034670 0.60614010
				-9.67864200 19.84415000 -13.91347000 / 0.41829600 -0.90831070 0.00000000 / 18 144 0 255 / 0.48031620 0.59313970
				-9.78641500 19.79451000 -13.79531000 / 0.41829600 -0.90831070 0.00000000 / 21 141 0 255 / 0.47775270 0.59138490
				-9.78641500 19.79451000 -13.79531000 / 0.41829600 -0.90831070 0.00000000 / 21 141 0 255 / 0.47775270 0.59138490
				-9.78463700 19.79532000 -14.95107000 / 0.41829600 -0.90831070 0.00000000 / 27 147 0 255 / 0.47779840 0.60864260
				-9.15178200 20.10950000 -15.33144000 / 0.44237900 -0.89658280 0.02097940 / 45 146 0 255 / 0.33340450 0.50064090
				-9.67730600 19.84475000 -14.78408000 / 0.41829600 -0.90831070 0.00000000 / 24 145 0 255 / 0.48034670 0.60614010
				-9.03647500 20.15302000 -16.36806000 / 0.38442270 -0.92314850 0.00400540 / 43 148 0 255 / 0.49505610 0.60859680
				-9.04282300 20.15538000 -15.21328000 / 0.38442270 -0.92314850 0.00400540 / 49 141 0 255 / 0.49501040 0.59133910
				-9.15178400 20.10949000 -15.33144000 / 0.38442270 -0.92314850 0.00400540 / 45 146 0 255 / 0.49246220 0.59310910
				-9.16549800 20.08046000 -14.78212000 / 0.41829600 -0.90831070 0.00000000 / 24 147 0 255 / 0.33340450 0.49874880
				-9.15178400 20.10949000 -15.33144000 / 0.51555600 -0.85658970 0.02136230 / 45 146 0 255 / 0.49246220 0.59310910
				-9.13958500 20.09511000 -16.20205000 / 0.51555600 -0.85658970 0.02136230 / 38 152 0 255 / 0.49250790 0.60612490
				-9.03647800 20.15302000 -16.36806000 / 0.51555600 -0.85658970 0.02136230 / 43 148 0 255 / 0.49505610 0.60859680
				-9.65632300 19.86050000 -15.33339000 / 0.44190170 -0.89505590 -0.05998190 / 44 146 0 255 / 0.48031620 0.59313970
				-9.15178300 20.10950000 -15.33144000 / 0.44190170 -0.89505590 -0.05998190 / 45 146 0 255 / 0.49246220 0.59310910
				-9.65632300 19.86050000 -15.33339000 / 0.44237900 -0.89658280 0.02097940 / 44 146 0 255 / 0.00030520 0.50064090
				-9.04282200 20.15538000 -15.21328000 / 0.44190170 -0.89505590 -0.05998190 / 49 141 0 255 / 0.49501040 0.59133910
				-9.75673000 19.80709000 -16.37050000 / 0.43258260 -0.90045080 -0.04539450 / 38 154 0 255 / 0.47779840 0.60864260
				-9.03647800 20.15302000 -16.36806000 / 0.43258260 -0.90045080 -0.04539450 / 43 148 0 255 / 0.49505610 0.60859680
				-9.13958800 20.09512000 -16.20205000 / 0.43258260 -0.90045080 -0.04539450 / 38 152 0 255 / 0.49250790 0.60612490
				-9.04282300 20.15538000 -15.21328000 / 0.43486340 -0.90043420 -0.01058550 / 49 141 0 255 / 0.49501040 0.59133910
				-9.16683300 20.07985000 -13.91152000 / 0.41829600 -0.90831070 0.00000000 / 19 144 0 255 / 0.33340450 0.00006100
				-9.76221900 19.80796000 -15.21572000 / 0.43486340 -0.90043420 -0.01058550 / 44 146 0 255 / 0.47775270 0.59138490
				-9.65632100 19.86049000 -15.33340000 / 0.43486340 -0.90043420 -0.01058550 / 44 146 0 255 / 0.48031620 0.59313970
				-9.13958500 20.09511000 -16.20205000 / 0.43216770 -0.90076260 -0.04310230 / 38 152 0 255 / 0.49250790 0.60612490
				-9.64759600 19.85144000 -16.20351000 / 0.43216770 -0.90076260 -0.04310230 / 39 155 0 255 / 0.48034670 0.60614010
				-9.05772800 20.13009000 -14.94814000 / 0.41829600 -0.90831070 0.00000000 / 23 145 0 255 / 0.49505610 0.60859680
				-9.75673000 19.80709000 -16.37050000 / 0.43216770 -0.90076260 -0.04310230 / 38 154 0 255 / 0.47779840 0.60864260
				-9.64759600 19.85144000 -16.20351000 / 0.45660540 -0.88956040 0.01392320 / 39 155 0 255 / 0.48034670 0.60614010
				-9.65632100 19.86049000 -15.33340000 / 0.45660600 -0.88956150 0.01382790 / 44 146 0 255 / 0.48031620 0.59313970
				-9.76221900 19.80796000 -15.21572000 / 0.45660600 -0.88956150 0.01382790 / 44 146 0 255 / 0.47775270 0.59138490
				-9.76221900 19.80796000 -15.21572000 / 0.37326320 -0.92772220 0.00247950 / 44 146 0 255 / 0.47775270 0.59138490
				-9.75673000 19.80709000 -16.37050000 / 0.37326320 -0.92772220 0.00247950 / 38 154 0 255 / 0.47779840 0.60864260
				-9.67864200 19.84415000 -13.91347000 / 0.41829600 -0.90831070 0.00000000 / 18 144 0 255 / 0.00030520 0.00006100
				-9.64760000 19.85144000 -16.20351000 / 0.37326320 -0.92772220 0.00247950 / 39 155 0 255 / 0.48034670 0.60614010
				-9.65632100 19.86049000 -15.33340000 / 0.43238640 -0.90158390 0.01373260 / 44 146 0 255 / 0.00030520 0.50064090
				-9.64759600 19.85144000 -16.20351000 / 0.43238640 -0.90158390 0.01373260 / 39 155 0 255 / 0.00030520 0.99932860
				-9.05950900 20.12928000 -13.79287000 / 0.41829600 -0.90831070 0.00000000 / 17 141 0 255 / 0.49501040 0.59133910
				-9.13958900 20.09511000 -16.20205000 / 0.43238640 -0.90158390 0.01373260 / 38 152 0 255 / 0.33340450 0.99932860
				-9.16683300 20.07985000 -13.91152000 / 0.41829600 -0.90831070 0.00000000 / 19 144 0 255 / 0.49246220 0.59310910
				-9.16683300 20.07985000 -13.91152000 / 0.41829600 -0.90831070 0.00000000 / 19 144 0 255 / 0.49246220 0.59310910
				-9.16549800 20.08046000 -14.78212000 / 0.41829600 -0.90831070 0.00000000 / 24 147 0 255 / 0.49250790 0.60612490
			}
		}
		Geometry
		{
			ShaderIndex 1
			Flags -
			VertexDeclaration N209731BE
			Indices 144
			{
				66 67 68 69 70 71 72 73 74 75 76 77 78 79 80
				81 82 83 84 85 86 87 88 89 90 91 92 93 94 95
				96 97 98 99 100 101 102 103 104 105 106 107 108 109 110
				111 112 113 114 115 116 117 118 119 120 121 122 123 124 125
				126 127 128 129 130 131 132 133 134 135 136 137 138 139 140
				141 142 143 0 1 2 3 4 5 6 7 8 9 10 11
				12 13 14 15 16 17 18 19 20 21 22 23 24 25 26
				27 28 29 30 31 32 33 34 35 36 37 38 39 40 41
				42 43 44 45 46 47 48 49 50 51 52 53 54 55 56
				57 58 59 60 61 62 63 64 65
			}
			Vertices 144
			{
				-9.03608100 20.14075000 -15.21377000 / 0.45071560 -0.89265730 0.00429160 / 24 144 0 255 / 0.21145630 0.33525090
				-9.02973400 20.13839000 -16.36855000 / 0.45071550 -0.89265700 0.00438700 / 27 165 0 255 / 0.21145630 0.89266960
				-9.00220200 20.15214000 -16.39883000 / 0.45071550 -0.89265700 0.00438700 / 24 154 0 255 / 0.23017880 0.91140750
				-9.00220200 20.15214000 -16.39883000 / 0.40123760 -0.91597010 0.00267050 / 24 154 0 255 / 0.23017880 0.91140750
				-9.00837700 20.15296000 -15.18300000 / 0.40123760 -0.91597010 0.00267050 / 26 134 0 255 / 0.23017880 0.31652830
				-9.03607900 20.14074000 -15.21377000 / 0.40123760 -0.91597010 0.00267050 / 24 144 0 255 / 0.21145630 0.33525090
				-9.03647500 20.15302000 -16.36806000 / -0.90830280 -0.41829230 -0.00419630 / 15 115 0 255 / 0.20545960 0.89266960
				-9.02973400 20.13839000 -16.36855000 / -0.90830280 -0.41829230 -0.00419630 / 16 127 0 255 / 0.21145630 0.89266960
				-9.03608100 20.14075000 -15.21377000 / -0.90830310 -0.41829250 -0.00410090 / 15 115 0 255 / 0.21145630 0.33525090
				-9.03608100 20.14075000 -15.21377000 / -0.90830310 -0.41829250 -0.00410090 / 15 115 0 255 / 0.21145630 0.33525090
				-9.04282300 20.15538000 -15.21328000 / -0.90830310 -0.41829250 -0.00410090 / 14 101 0 255 / 0.20545960 0.33525090
				-9.03647500 20.15302000 -16.36806000 / -0.90830280 -0.41829230 -0.00419630 / 15 115 0 255 / 0.20545960 0.89266960
				-9.00220200 20.15214000 -16.39883000 / -0.01106270 0.03089940 -0.99946130 / 11 72 0 255 / 0.23017880 0.13072200
				-9.77789300 19.78068000 -16.40176000 / -0.01106270 0.03089940 -0.99946130 / 10 72 0 255 / 0.23017880 0.91139220
				-9.79035500 19.80773000 -16.40078000 / -0.01106270 0.03089940 -0.99946130 / 11 72 0 255 / 0.24122620 0.91139220
				-9.79035400 19.80773000 -16.40078000 / -0.01106270 0.03089940 -0.99946130 / 11 72 0 255 / 0.24122620 0.91139220
				-9.01465900 20.17920000 -16.39785000 / -0.01106270 0.03089940 -0.99946130 / 12 72 0 255 / 0.24122620 0.13072200
				-9.00220200 20.15214000 -16.39883000 / -0.01106270 0.03089940 -0.99946130 / 11 72 0 255 / 0.23017880 0.13072200
				-9.02973400 20.13839000 -16.36855000 / 0.43260690 -0.90031060 -0.04787670 / 27 165 0 255 / 0.21145630 0.14944460
				-9.74998400 19.79245000 -16.37099000 / 0.43260690 -0.90031060 -0.04787670 / 32 157 0 255 / 0.21145630 0.89266960
				-9.77789300 19.78068000 -16.40176000 / 0.43260690 -0.90031060 -0.04787670 / 30 162 0 255 / 0.23017880 0.91139220
				-9.77789300 19.78068000 -16.40176000 / 0.43190280 -0.90176050 -0.01697480 / 30 162 0 255 / 0.23017880 0.91139220
				-9.00220200 20.15214000 -16.39883000 / 0.43190280 -0.90176050 -0.01697480 / 24 154 0 255 / 0.23017880 0.13072200
				-9.02973400 20.13839000 -16.36855000 / 0.43190280 -0.90176050 -0.01697480 / 27 165 0 255 / 0.21145630 0.14944460
				-9.03647800 20.15302000 -16.36806000 / 0.01039590 -0.02861270 0.99953650 / 28 170 0 255 / 0.20545960 0.14944460
				-9.75672900 19.80709000 -16.37050000 / 0.01039590 -0.02861270 0.99953650 / 31 163 0 255 / 0.20545960 0.89266960
				-9.74998400 19.79245000 -16.37099000 / 0.01039590 -0.02861270 0.99953650 / 28 170 0 255 / 0.21145630 0.89266960
				-9.74998400 19.79245000 -16.37099000 / 0.01030060 -0.02861270 0.99953750 / 28 170 0 255 / 0.21145630 0.89266960
				-9.02973400 20.13839000 -16.36855000 / 0.01030060 -0.02861270 0.99953750 / 26 177 0 255 / 0.21145630 0.14944460
				-9.03647500 20.15302000 -16.36806000 / 0.01030060 -0.02861270 0.99953750 / 28 170 0 255 / 0.20545960 0.14944460
				-9.78300800 19.77957000 -15.18594000 / 0.01134860 -0.03147090 0.99944010 / 7 227 0 255 / 0.23017880 0.13072200
				-9.00837000 20.15296000 -15.18300000 / 0.01134860 -0.03147090 0.99944010 / 7 226 0 255 / 0.23017880 0.91140750
				-9.02063100 20.17957000 -15.18203000 / 0.01134860 -0.03147090 0.99944010 / 7 227 0 255 / 0.24122620 0.91140750
				-9.02063200 20.17958000 -15.18203000 / 0.01115810 -0.03089930 0.99946020 / 7 227 0 255 / 0.24122620 0.91140750
				-9.79547200 19.80662000 -15.18496000 / 0.01115810 -0.03089930 0.99946020 / 6 228 0 255 / 0.24122620 0.13072200
				-9.78301000 19.77957000 -15.18594000 / 0.01115810 -0.03089930 0.99946020 / 7 227 0 255 / 0.23017880 0.13072200
				-9.75548200 19.79332000 -15.21621000 / 0.43470640 -0.89993190 -0.03395250 / 30 137 0 255 / 0.21145630 0.14944460
				-9.03608100 20.14075000 -15.21377000 / 0.43470640 -0.89993190 -0.03395250 / 24 144 0 255 / 0.21145630 0.89266960
				-9.00838200 20.15296000 -15.18300000 / 0.43470640 -0.89993190 -0.03395250 / 26 134 0 255 / 0.23017880 0.91140750
				-9.00837700 20.15296000 -15.18300000 / 0.43422770 -0.90069100 -0.01421040 / 26 134 0 255 / 0.23017880 0.91140750
				-9.78301100 19.77957000 -15.18594000 / 0.43422770 -0.90069100 -0.01421040 / 32 143 0 255 / 0.23017880 0.13072200
				-9.75548100 19.79332000 -15.21621000 / 0.43422770 -0.90069100 -0.01421040 / 30 137 0 255 / 0.21145630 0.14944460
				-9.76221900 19.80796000 -15.21572000 / -0.01039500 0.02841940 -0.99954210 / 12 87 0 255 / 0.20545960 0.14944460
				-9.04282300 20.15538000 -15.21328000 / -0.01039500 0.02841940 -0.99954210 / 12 84 0 255 / 0.20545960 0.89266960
				-9.03608100 20.14075000 -15.21377000 / -0.01039500 0.02841940 -0.99954210 / 12 87 0 255 / 0.21145630 0.89266960
				-9.03607900 20.14074000 -15.21377000 / -0.01039500 0.02841940 -0.99954210 / 12 87 0 255 / 0.21145630 0.89266960
				-9.75548100 19.79332000 -15.21621000 / -0.01039500 0.02841940 -0.99954210 / 12 90 0 255 / 0.21145630 0.14944460
				-9.76221900 19.80796000 -15.21572000 / -0.01039500 0.02841940 -0.99954210 / 12 87 0 255 / 0.20545960 0.14944460
				-9.78301100 19.77957000 -15.18593000 / 0.38805260 -0.92163690 0.00076290 / 32 143 0 255 / 0.23017880 0.91140750
				-9.77789300 19.78068000 -16.40175000 / 0.38805260 -0.92163690 0.00076290 / 30 162 0 255 / 0.23017880 0.31652830
				-9.74998400 19.79245000 -16.37099000 / 0.38805260 -0.92163690 0.00076290 / 32 157 0 255 / 0.21145630 0.33525090
				-9.74998400 19.79245000 -16.37099000 / 0.44934660 -0.89335290 0.00286090 / 32 157 0 255 / 0.21145630 0.33525090
				-9.75548200 19.79332000 -15.21621000 / 0.44934680 -0.89335320 0.00276550 / 30 137 0 255 / 0.21145630 0.89266960
				-9.78301100 19.77957000 -15.18594000 / 0.44934680 -0.89335320 0.00276550 / 32 143 0 255 / 0.23017880 0.91140750
				-9.76221900 19.80796000 -15.21572000 / 0.90839260 0.41809900 0.00400550 / 43 125 0 255 / 0.20545960 0.89266960
				-9.75548200 19.79332000 -15.21621000 / 0.90839260 0.41809900 0.00400550 / 49 130 0 255 / 0.21145630 0.89266960
				-9.74998700 19.79245000 -16.37099000 / 0.90839260 0.41809900 0.00400550 / 43 125 0 255 / 0.21145630 0.33525090
				-9.74998400 19.79245000 -16.37099000 / 0.90821430 0.41848620 0.00400560 / 43 125 0 255 / 0.21145630 0.33525090
				-9.75673000 19.80709000 -16.37050000 / 0.90821430 0.41848620 0.00400560 / 38 121 0 255 / 0.20545960 0.33525090
				-9.76221700 19.80796000 -15.21572000 / 0.90821430 0.41848620 0.00400560 / 43 125 0 255 / 0.20545960 0.89266960
				-9.00220200 20.15214000 -16.39883000 / 0.90839110 0.41809840 0.00438700 / 32 156 0 255 / 0.23017880 0.91140750
				-9.01465900 20.17920000 -16.39785000 / 0.90839110 0.41809840 0.00438700 / 29 145 0 255 / 0.24122620 0.91140750
				-9.02063300 20.17957000 -15.18203000 / 0.90839150 0.41809850 0.00429160 / 32 156 0 255 / 0.24122620 0.31652830
				-9.02063100 20.17957000 -15.18203000 / 0.90839150 0.41809850 0.00429160 / 32 156 0 255 / 0.24122620 0.31652830
				-9.00837400 20.15296000 -15.18300000 / 0.90839150 0.41809850 0.00429160 / 35 166 0 255 / 0.23017880 0.31652830
				-9.00220100 20.15214000 -16.39883000 / 0.90839110 0.41809840 0.00438700 / 32 156 0 255 / 0.23017880 0.91140750
				-9.80717400 19.76721000 -13.76504000 / -0.90830960 -0.41829550 -0.00162130 / 17 157 0 255 / 0.23017880 0.91140750
				-9.81963000 19.79426000 -13.76503000 / -0.90830960 -0.41829550 -0.00162130 / 22 157 0 255 / 0.24122620 0.91140750
				-9.81784900 19.79508000 -14.98134000 / -0.90830960 -0.41829550 -0.00162130 / 17 157 0 255 / 0.24122620 0.31652830
				-9.81784900 19.79508000 -14.98134000 / -0.90830960 -0.41829550 -0.00162130 / 17 157 0 255 / 0.24122620 0.31652830
				-9.80539200 19.76802000 -14.98134000 / -0.90830960 -0.41829550 -0.00162130 / 13 157 0 255 / 0.23017880 0.31652830
				-9.80717400 19.76721000 -13.76504000 / -0.90830960 -0.41829550 -0.00162130 / 17 157 0 255 / 0.23017880 0.91140750
				-9.05276700 20.11465000 -13.79287000 / 0.41821730 -0.90834710 0.00000000 / 27 154 0 255 / 0.21145630 0.33525090
				-9.05098700 20.11546000 -14.94814000 / 0.41821730 -0.90834710 0.00000000 / 26 149 0 255 / 0.21145630 0.89266960
				-9.02349200 20.12812000 -14.97890000 / 0.41821730 -0.90834710 0.00000000 / 23 149 0 255 / 0.23017880 0.91140750
				-9.02349200 20.12812000 -14.97890000 / 0.41829600 -0.90831070 0.00000000 / 23 149 0 255 / 0.23017880 0.91140750
				-9.02527000 20.12731000 -13.76259000 / 0.41829600 -0.90831070 0.00000000 / 37 160 0 255 / 0.23017880 0.31652830
				-9.05276700 20.11465000 -13.79287000 / 0.41829600 -0.90831070 0.00000000 / 27 154 0 255 / 0.21145630 0.33525090
				-9.05772500 20.13009000 -14.94814000 / -0.90822030 -0.41848900 -0.00171670 / 13 138 0 255 / 0.20545960 0.89266960
				-9.05098200 20.11546000 -14.94814000 / -0.90822030 -0.41848900 -0.00171670 / 15 136 0 255 / 0.21145630 0.89266960
				-9.05276300 20.11464000 -13.79287000 / -0.90822030 -0.41848900 -0.00171670 / 13 138 0 255 / 0.21145630 0.33525090
				-9.05276700 20.11465000 -13.79287000 / -0.90822030 -0.41848900 -0.00171670 / 13 138 0 255 / 0.21145630 0.33525090
				-9.05950900 20.12928000 -13.79287000 / -0.90822030 -0.41848900 -0.00171670 / 12 140 0 255 / 0.20545960 0.33525090
				-9.05772500 20.13009000 -14.94814000 / -0.90822030 -0.41848900 -0.00171670 / 13 138 0 255 / 0.20545960 0.89266960
				-9.02349200 20.12812000 -14.97890000 / 0.00257490 0.00114440 -0.99999610 / 7 77 0 255 / 0.23017880 0.13072200
				-9.80539600 19.76802000 -14.98134000 / 0.00257490 0.00114440 -0.99999610 / 7 81 0 255 / 0.23017880 0.91139220
				-9.81784900 19.79508000 -14.98134000 / 0.00257490 0.00114440 -0.99999610 / 7 77 0 255 / 0.24122620 0.91139220
				-9.81784500 19.79507000 -14.98134000 / 0.00257490 0.00133510 -0.99999590 / 7 77 0 255 / 0.24122620 0.91139220
				-9.03594400 20.15517000 -14.97890000 / 0.00257490 0.00133510 -0.99999590 / 8 72 0 255 / 0.24122620 0.13072200
				-9.02348800 20.12812000 -14.97890000 / 0.00257490 0.00133510 -0.99999590 / 7 77 0 255 / 0.23017880 0.13072200
				-9.05098700 20.11546000 -14.94814000 / 0.41829600 -0.90831070 0.00009540 / 26 149 0 255 / 0.21145630 0.14944460
				-9.77789800 19.78069000 -14.95107000 / 0.41829600 -0.90831070 0.00009540 / 45 155 0 255 / 0.21145630 0.89266960
				-9.80539600 19.76802000 -14.98134000 / 0.41829600 -0.90831070 0.00009540 / 35 153 0 255 / 0.23017880 0.91139220
				-9.80539200 19.76802000 -14.98134000 / 0.41829600 -0.90831070 0.00000000 / 35 153 0 255 / 0.23017880 0.91139220
				-9.02348900 20.12812000 -14.97890000 / 0.41829600 -0.90831070 0.00000000 / 23 149 0 255 / 0.23017880 0.13072200
				-9.05098200 20.11546000 -14.94814000 / 0.41829600 -0.90831070 0.00000000 / 26 149 0 255 / 0.21145630 0.14944460
				-9.05772800 20.13009000 -14.94814000 / -0.00333780 -0.00152580 0.99999330 / 11 189 0 255 / 0.20545960 0.14944460
				-9.78463900 19.79532000 -14.95107000 / -0.00333780 -0.00152580 0.99999330 / 11 187 0 255 / 0.20545960 0.89266960
				-9.77789800 19.78069000 -14.95107000 / -0.00333780 -0.00152580 0.99999330 / 11 189 0 255 / 0.21145630 0.89266960
				-9.77789800 19.78069000 -14.95107000 / -0.00333780 -0.00152580 0.99999330 / 11 189 0 255 / 0.21145630 0.89266960
				-9.05098700 20.11546000 -14.94814000 / -0.00333780 -0.00152580 0.99999330 / 11 190 0 255 / 0.21145630 0.14944460
				-9.05772800 20.13009000 -14.94814000 / -0.00333780 -0.00152580 0.99999330 / 11 189 0 255 / 0.20545960 0.14944460
				-9.80717400 19.76721000 -13.76504000 / -0.00257490 -0.00114440 0.99999610 / 10 244 0 255 / 0.23017880 0.13072200
				-9.02527000 20.12731000 -13.76259000 / -0.00257490 -0.00114440 0.99999610 / 10 242 0 255 / 0.23017880 0.91140750
				-9.03772900 20.15437000 -13.76259000 / -0.00257490 -0.00114440 0.99999610 / 10 244 0 255 / 0.24122620 0.91140750
				-9.03772900 20.15437000 -13.76259000 / -0.00257490 -0.00133510 0.99999590 / 10 244 0 255 / 0.24122620 0.91140750
				-9.81963000 19.79426000 -13.76503000 / -0.00257490 -0.00133510 0.99999590 / 9 246 0 255 / 0.24122620 0.13072200
				-9.80717400 19.76721000 -13.76504000 / -0.00257490 -0.00133510 0.99999590 / 10 244 0 255 / 0.23017880 0.13072200
				-9.77967400 19.77987000 -13.79531000 / 0.41829600 -0.90831070 -0.00019070 / 47 158 0 255 / 0.21145630 0.14944460
				-9.05276700 20.11465000 -13.79287000 / 0.41829600 -0.90831070 -0.00019070 / 27 154 0 255 / 0.21145630 0.89266960
				-9.02526600 20.12731000 -13.76259000 / 0.41829600 -0.90831070 -0.00019070 / 37 160 0 255 / 0.23017880 0.91140750
				-9.02527000 20.12731000 -13.76259000 / 0.41829600 -0.90831070 0.00000000 / 37 160 0 255 / 0.23017880 0.91140750
				-9.80716900 19.76721000 -13.76504000 / 0.41829600 -0.90831070 0.00000000 / 50 157 0 255 / 0.23017880 0.13072200
				-9.77967300 19.77987000 -13.79531000 / 0.41829600 -0.90831070 0.00000000 / 47 158 0 255 / 0.21145630 0.14944460
				-9.78641400 19.79451000 -13.79531000 / 0.00276560 0.00133510 -0.99999530 / 9 86 0 255 / 0.20545960 0.14944460
				-9.05950900 20.12928000 -13.79287000 / 0.00276560 0.00133510 -0.99999530 / 9 87 0 255 / 0.20545960 0.89266960
				-9.05276700 20.11465000 -13.79287000 / 0.00276560 0.00133510 -0.99999530 / 9 86 0 255 / 0.21145630 0.89266960
				-9.05276700 20.11465000 -13.79287000 / 0.00267020 0.00152580 -0.99999530 / 9 86 0 255 / 0.21145630 0.89266960
				-9.77967400 19.77987000 -13.79531000 / 0.00267020 0.00152580 -0.99999530 / 9 85 0 255 / 0.21145630 0.14944460
				-9.78641500 19.79451000 -13.79531000 / 0.00267020 0.00152580 -0.99999530 / 9 86 0 255 / 0.20545960 0.14944460
				-9.80717100 19.76721000 -13.76504000 / 0.41837470 -0.90827450 0.00000000 / 50 157 0 255 / 0.23017880 0.91140750
				-9.80539200 19.76802000 -14.98134000 / 0.41837470 -0.90827450 0.00000000 / 35 153 0 255 / 0.23017880 0.31652830
				-9.77789800 19.78069000 -14.95107000 / 0.41837470 -0.90827450 0.00000000 / 45 155 0 255 / 0.21145630 0.33525090
				-9.77789800 19.78069000 -14.95107000 / 0.41829600 -0.90831070 0.00000000 / 45 155 0 255 / 0.21145630 0.33525090
				-9.77967100 19.77987000 -13.79531000 / 0.41829600 -0.90831070 0.00000000 / 47 158 0 255 / 0.21145630 0.89266960
				-9.80717100 19.76721000 -13.76504000 / 0.41829600 -0.90831070 0.00000000 / 50 157 0 255 / 0.23017880 0.91140750
				-9.78641400 19.79451000 -13.79531000 / 0.90830950 0.41829540 0.00171670 / 67 126 0 255 / 0.20545960 0.89266960
				-9.77967100 19.77987000 -13.79531000 / 0.90830950 0.41829540 0.00171670 / 55 116 0 255 / 0.21145630 0.89266960
				-9.77789800 19.78069000 -14.95107000 / 0.90830950 0.41829540 0.00171670 / 67 126 0 255 / 0.21145630 0.33525090
				-9.77789800 19.78069000 -14.95107000 / 0.90830950 0.41829540 0.00171670 / 67 126 0 255 / 0.21145630 0.33525090
				-9.78463700 19.79532000 -14.95107000 / 0.90830950 0.41829540 0.00171670 / 80 136 0 255 / 0.20545960 0.33525090
				-9.78641500 19.79451000 -13.79531000 / 0.90830950 0.41829540 0.00171670 / 67 126 0 255 / 0.20545960 0.89266960
				-9.02349200 20.12812000 -14.97890000 / 0.90839870 0.41810180 0.00162130 / 79 153 0 255 / 0.23017880 0.91140750
				-9.03594700 20.15518000 -14.97890000 / 0.90839870 0.41810180 0.00162130 / 88 139 0 255 / 0.24122620 0.91140750
				-9.03772900 20.15437000 -13.76259000 / 0.90839870 0.41810180 0.00162130 / 79 153 0 255 / 0.24122620 0.31652830
				-9.03772900 20.15437000 -13.76259000 / 0.90830960 0.41829550 0.00162130 / 79 153 0 255 / 0.24122620 0.31652830
				-9.02527000 20.12731000 -13.76259000 / 0.90830960 0.41829550 0.00162130 / 69 165 0 255 / 0.23017880 0.31652830
				-9.02349200 20.12812000 -14.97890000 / 0.90830960 0.41829550 0.00162130 / 79 153 0 255 / 0.23017880 0.91140750
				-9.78301300 19.77957000 -15.18594000 / -0.90830280 -0.41829230 -0.00419630 / 10 147 0 255 / 0.23017880 0.91140750
				-9.79547300 19.80662000 -15.18496000 / -0.90830280 -0.41829230 -0.00419630 / 10 146 0 255 / 0.24122620 0.91140750
				-9.79035400 19.80774000 -16.40078000 / -0.90830280 -0.41829230 -0.00419630 / 10 147 0 255 / 0.24122620 0.31652830
				-9.79035500 19.80773000 -16.40078000 / -0.90830280 -0.41829230 -0.00419630 / 10 147 0 255 / 0.24122620 0.31652830
				-9.77789000 19.78068000 -16.40176000 / -0.90830280 -0.41829230 -0.00419630 / 9 148 0 255 / 0.23017880 0.31652830
				-9.78301300 19.77957000 -15.18594000 / -0.90830280 -0.41829230 -0.00419630 / 10 147 0 255 / 0.23017880 0.91140750
			}
		}
	}
}
