Version 165 32
{
	Locked False
	Skinned False
	BoneCount 0
	Mask 255
	Bounds
	{
		Aabb
		{
			Min -9.29035800 8.77841600 -17.57758000
			Max -8.49006300 9.70273900 -11.88275000
		}
	}
	Geometries
	{
		Geometry
		{
			ShaderIndex 8
			Flags -
			VertexDeclaration N209731BE
			Indices 24
			{
				0 18 1 4 5 17 6 8 2 3 9 7 12 14 15
				16 10 13 11 20 21 22 23 19
			}
			Vertices 24
			{
				-9.29035600 9.47470900 -11.88275000 / -0.45661090 0.88966650 0.00000000 / 42 141 11 255 / 0.60096740 0.00303650
				-8.84601400 9.70273400 -17.57758000 / -0.45661090 0.88966650 0.00000000 / 42 141 11 255 / 0.35260010 1.01461800
				-8.49006300 9.00644700 -11.88275000 / 0.89040550 0.45516820 0.00000000 / 42 141 11 255 / 1.50019800 0.00302120
				-8.49006300 9.00644700 -11.88275000 / 0.89040550 0.45516820 0.00000000 / 42 141 11 255 / 1.50019800 0.00302120
				-8.84601400 9.70273400 -17.57758000 / -0.45653540 0.88970520 0.00000000 / 42 141 11 255 / 0.35260010 1.01461800
				-9.29035800 9.47470700 -17.57758000 / -0.45653540 0.88970520 0.00000000 / 42 141 11 255 / 0.60096740 1.01461800
				-8.84601400 9.70273400 -17.57758000 / 0.89040550 0.45516820 0.00000000 / 42 141 11 255 / 1.88906900 1.01461800
				-8.84601400 9.70273400 -17.57758000 / 0.89040550 0.45516820 0.00000000 / 42 141 11 255 / 1.88906900 1.01461800
				-8.84601400 9.70273900 -11.88275000 / 0.89040550 0.45516820 0.00000000 / 42 141 11 255 / 1.88906900 0.00302120
				-8.49006300 9.00644300 -17.57758000 / 0.89040550 0.45516820 0.00000000 / 42 141 11 255 / 1.50019800 1.01461800
				-9.29035600 9.47470900 -11.88275000 / -0.89038570 -0.45520680 0.00000000 / 42 141 11 255 / -0.91453550 0.00302120
				-8.49006300 9.00644700 -11.88275000 / 0.45661090 -0.88966650 0.00000000 / 42 141 11 255 / 0.60702510 0.00302120
				-9.29035800 9.47470700 -17.57758000 / -0.89038570 -0.45520680 0.00000000 / 42 141 11 255 / -0.91455080 1.01461800
				-9.29035800 9.47470700 -17.57758000 / -0.89038570 -0.45520680 0.00000000 / 42 141 11 255 / -0.91455080 1.01461800
				-8.93439500 8.77841600 -17.57758000 / -0.89038570 -0.45520680 0.00000000 / 42 141 11 255 / -0.52568050 1.01461800
				-8.93439600 8.77841800 -11.88275000 / -0.89038570 -0.45520680 0.00000000 / 42 141 11 255 / -0.52566530 0.00303650
				-8.93439600 8.77841800 -11.88275000 / -0.89038570 -0.45520680 0.00000000 / 42 141 11 255 / -0.52566530 0.00303650
				-9.29035600 9.47470900 -11.88275000 / -0.45653540 0.88970520 0.00000000 / 42 141 11 255 / 0.60096740 0.00303650
				-8.84601400 9.70273900 -11.88275000 / -0.45661090 0.88966650 0.00000000 / 42 141 11 255 / 0.35260010 0.00302120
				-8.49006300 9.00644700 -11.88275000 / 0.45661090 -0.88966650 0.00000000 / 42 141 11 255 / 0.60702510 0.00302120
				-8.93439600 8.77841800 -11.88275000 / 0.45661090 -0.88966650 0.00000000 / 42 141 11 255 / 0.35867310 0.00303650
				-8.93439500 8.77841600 -17.57758000 / 0.45661090 -0.88966650 0.00000000 / 42 141 11 255 / 0.35867310 1.01461800
				-8.93439500 8.77841600 -17.57758000 / 0.45661090 -0.88966650 0.00000000 / 42 141 11 255 / 0.35867310 1.01461800
				-8.49006300 9.00644300 -17.57758000 / 0.45661090 -0.88966650 0.00000000 / 42 141 11 255 / 0.60702510 1.01461800
			}
		}
	}
}
