Version 165 32
{
	Locked False
	Skinned False
	BoneCount 0
	Mask 255
	Bounds
	{
		Aabb
		{
			Min -13.65249000 26.44761000 -17.61328000
			Max -9.39062300 28.61999000 -12.51563000
		}
		Aabb
		{
			Min -13.65249000 26.44761000 -17.61328000
			Max -9.39160000 28.61901000 -16.96680000
		}
		Aabb
		{
			Min -13.65249000 26.44761000 -16.96680000
			Max -9.39062300 28.61999000 -12.51563000
		}
	}
	Geometries
	{
		Geometry
		{
			ShaderIndex 4
			Flags -
			VertexDeclaration N51263BB5
			Indices 6
			{
				0 1 2 3 4 5
			}
			Vertices 6
			{
				-9.39355200 28.61755000 -17.61328000 / 0.45406710 -0.89096720 0.00057220 / 42 141 11 255 / 4.50672900 -0.07403560 / -0.89096740 -0.45406720 0.00000000 -1.00000000
				-9.39160100 28.61901000 -16.96680000 / 0.45406710 -0.89096720 0.00057220 / 42 141 11 255 / 4.50589000 -0.50500490 / -0.89096740 -0.45406720 0.00000000 -1.00000000
				-13.65200000 26.44762000 -17.61328000 / 0.45406710 -0.89096720 0.00057220 / 42 141 11 255 / 7.00071700 -0.07403560 / -0.89096740 -0.45406720 0.00000000 -1.00000000
				-13.65249000 26.44761000 -16.96680000 / 0.45406720 -0.89096740 0.00038150 / 42 141 11 255 / 7.00071700 -0.50500490 / -0.89096740 -0.45406720 0.00000000 -1.00000000
				-13.65200000 26.44762000 -17.61328000 / 0.45406720 -0.89096740 0.00038150 / 42 141 11 255 / 7.00071700 -0.07403560 / -0.89096740 -0.45406720 0.00000000 -1.00000000
				-9.39160000 28.61901000 -16.96680000 / 0.45406720 -0.89096740 0.00038150 / 42 141 11 255 / 4.50589000 -0.50500490 / -0.89096740 -0.45406720 0.00000000 -1.00000000
			}
		}
		Geometry
		{
			ShaderIndex 8
			Flags -
			VertexDeclaration N209731BE
			Indices 30
			{
				18 21 3 5 6 7 8 9 11 29 10 12 13 14 15
				16 17 19 20 22 23 24 25 26 27 28 0 1 2 4
			}
			Vertices 30
			{
				-12.92336000 26.81959000 -13.54346000 / 0.45444720 -0.89077370 0.00000000 / 42 141 11 255 / 1.30017100 0.23190310
				-12.92336000 26.81959000 -12.84619000 / 0.45391390 -0.89104440 -0.00143040 / 42 141 11 255 / 1.30017100 0.07353209
				-10.07375000 28.27125000 -12.84619000 / 0.45391390 -0.89104440 -0.00143040 / 42 141 11 255 / -0.29856870 0.07353209
				-13.65249000 26.44762000 -16.96680000 / 0.45406720 -0.89096750 0.00019070 / 42 141 11 255 / 1.57730100 1.00595100
				-13.65249000 26.44762000 -12.51563000 / 0.45391390 -0.89104440 -0.00143040 / 42 141 11 255 / 1.57713300 -0.00161740
				-13.65249000 26.44810000 -14.60742000 / 0.45406720 -0.89096750 0.00019070 / 42 141 11 255 / 1.57722500 0.47351070
				-13.65249000 26.44762000 -16.96680000 / 0.45406720 -0.89096750 0.00019070 / 42 141 11 255 / 1.57730100 1.00595100
				-9.39062500 28.61999000 -14.60742000 / 0.45406720 -0.89096750 0.00019070 / 42 141 11 255 / -0.57722460 0.47351070
				-9.39062500 28.61999000 -14.60742000 / 0.45406720 -0.89096740 -0.00047690 / 42 141 11 255 / -0.57722460 0.47351070
				-10.07375000 28.27125000 -13.54346000 / 0.45406720 -0.89096740 -0.00047690 / 42 141 11 255 / -0.29856870 0.23190310
				-13.65249000 26.44810000 -14.60742000 / 0.45391440 -0.89104540 0.00009540 / 42 141 11 255 / 1.57722500 0.47351070
				-13.65249000 26.44810000 -14.60742000 / 0.45406720 -0.89096740 -0.00047690 / 42 141 11 255 / 1.57722500 0.47351070
				-10.07375000 28.27125000 -13.54346000 / 0.45391440 -0.89104540 0.00009540 / 42 141 11 255 / -0.29856870 0.23190310
				-10.07375000 28.27126000 -13.54346000 / 0.45467420 -0.89065790 0.00000000 / 42 141 11 255 / -0.29856870 0.23190310
				-9.39062700 28.61999000 -14.60742000 / 0.45467420 -0.89065790 0.00000000 / 42 141 11 255 / -0.57722460 0.47351070
				-10.07375000 28.27126000 -12.84619000 / 0.45467420 -0.89065790 0.00000000 / 42 141 11 255 / -0.29856870 0.07353209
				-13.65249000 26.44810000 -14.60742000 / 0.45421860 -0.89089020 -0.00019070 / 42 141 11 255 / 1.57722500 0.47351070
				-12.92336000 26.81959000 -13.54346000 / 0.45421860 -0.89089020 -0.00019070 / 42 141 11 255 / 1.30017100 0.23190310
				-9.39159900 28.61901000 -16.96680000 / 0.45406720 -0.89096750 0.00019070 / 42 141 11 255 / -0.57730110 1.00595100
				-13.65249000 26.44762000 -12.51563000 / 0.45421860 -0.89089020 -0.00019070 / 42 141 11 255 / 1.57713300 -0.00161740
				-9.39306300 28.61803000 -12.51563000 / 0.45406720 -0.89096750 -0.00028610 / 42 141 11 255 / -0.57714840 -0.00161740
				-9.39062500 28.61999000 -14.60742000 / 0.45406720 -0.89096750 0.00019070 / 42 141 11 255 / -0.57722460 0.47351070
				-10.07375000 28.27125000 -12.84619000 / 0.45406720 -0.89096750 -0.00028610 / 42 141 11 255 / -0.29856870 0.07353209
				-9.39062300 28.61999000 -14.60742000 / 0.45406720 -0.89096750 -0.00028610 / 42 141 11 255 / -0.57722460 0.47351070
				-9.39306500 28.61803000 -12.51563000 / 0.45406720 -0.89096750 -0.00019070 / 42 141 11 255 / -0.57714840 -0.00161740
				-13.65249000 26.44762000 -12.51563000 / 0.45406720 -0.89096750 -0.00019070 / 42 141 11 255 / 1.57713300 -0.00161740
				-10.07375000 28.27126000 -12.84619000 / 0.45406720 -0.89096750 -0.00019070 / 42 141 11 255 / -0.29856870 0.07353209
				-12.92336000 26.81959000 -12.84619000 / 0.45444720 -0.89077370 0.00000000 / 42 141 11 255 / 1.30017100 0.07353209
				-13.65249000 26.44761000 -12.51563000 / 0.45444720 -0.89077370 0.00000000 / 42 141 11 255 / 1.57713300 -0.00161740
				-12.92336000 26.81959000 -13.54346000 / 0.45391440 -0.89104540 0.00009540 / 42 141 11 255 / 1.30017100 0.23190310
			}
		}
	}
}
