Version 165 32
{
	Locked False
	Skinned False
	BoneCount 0
	Mask 255
	Bounds
	{
		Aabb
		{
			Min -10.70492000 21.92870000 -17.57769000
			Max -9.69205700 23.27007000 -11.88285000
		}
	}
	Geometries
	{
		Geometry
		{
			ShaderIndex 8
			Flags -
			VertexDeclaration N209731BE
			Indices 24
			{
				0 18 1 4 5 17 6 8 2 3 9 7 12 14 15
				16 10 13 11 20 21 22 23 19
			}
			Vertices 24
			{
				-10.70492000 23.04205000 -11.88285000 / -0.45649670 0.88972510 0.00000000 / 42 141 11 255 / 0.60096740 0.00303650
				-10.26057000 23.27007000 -17.57769000 / -0.45649670 0.88972510 0.00000000 / 42 141 11 255 / 0.35260010 1.01461800
				-9.69206000 22.15673000 -11.88286000 / 0.89063820 0.45471280 0.00000000 / 42 141 11 255 / 1.50019800 0.00302120
				-9.69206000 22.15673000 -11.88286000 / 0.89063820 0.45471280 0.00000000 / 42 141 11 255 / 1.50019800 0.00302120
				-10.26057000 23.27007000 -17.57769000 / -0.45649670 0.88972510 0.00000000 / 42 141 11 255 / 0.35260010 1.01461800
				-10.70492000 23.04204000 -17.57769000 / -0.45649670 0.88972510 0.00000000 / 42 141 11 255 / 0.60096740 1.01461800
				-10.26057000 23.27007000 -17.57769000 / 0.89063820 0.45471280 0.00000000 / 42 141 11 255 / 1.88906900 1.01461800
				-10.26057000 23.27007000 -17.57769000 / 0.89063820 0.45471280 0.00000000 / 42 141 11 255 / 1.88906900 1.01461800
				-10.26057000 23.27007000 -11.88285000 / 0.89063820 0.45471280 0.00000000 / 42 141 11 255 / 1.88906900 0.00302120
				-9.69205700 22.15671000 -17.57767000 / 0.89063820 0.45471280 0.00000000 / 42 141 11 255 / 1.50019800 1.01461800
				-10.70492000 23.04205000 -11.88285000 / -0.89063820 -0.45471280 0.00000000 / 42 141 11 255 / -0.91453550 0.00302120
				-9.69206000 22.15673000 -11.88286000 / 0.45657220 -0.88968640 0.00000000 / 42 141 11 255 / 0.60702510 0.00302120
				-10.70492000 23.04204000 -17.57769000 / -0.89063820 -0.45471280 0.00000000 / 42 141 11 255 / -0.91455080 1.01461800
				-10.70492000 23.04204000 -17.57769000 / -0.89063820 -0.45471280 0.00000000 / 42 141 11 255 / -0.91455080 1.01461800
				-10.13639000 21.92870000 -17.57767000 / -0.89063820 -0.45471280 0.00000000 / 42 141 11 255 / -0.52568050 1.01461800
				-10.13640000 21.92870000 -11.88286000 / -0.89063820 -0.45471280 0.00000000 / 42 141 11 255 / -0.52566530 0.00303650
				-10.13640000 21.92870000 -11.88286000 / -0.89063820 -0.45471280 0.00000000 / 42 141 11 255 / -0.52566530 0.00303650
				-10.70492000 23.04205000 -11.88285000 / -0.45649670 0.88972510 0.00000000 / 42 141 11 255 / 0.60096740 0.00303650
				-10.26057000 23.27007000 -11.88285000 / -0.45649670 0.88972510 0.00000000 / 42 141 11 255 / 0.35260010 0.00302120
				-9.69206000 22.15673000 -11.88286000 / 0.45649670 -0.88972510 0.00000000 / 42 141 11 255 / 0.60702510 0.00302120
				-10.13640000 21.92870000 -11.88286000 / 0.45657220 -0.88968640 0.00000000 / 42 141 11 255 / 0.35867310 0.00303650
				-10.13639000 21.92870000 -17.57767000 / 0.45649670 -0.88972510 0.00000000 / 42 141 11 255 / 0.35867310 1.01461800
				-10.13639000 21.92870000 -17.57767000 / 0.45649670 -0.88972510 0.00000000 / 42 141 11 255 / 0.35867310 1.01461800
				-9.69205700 22.15671000 -17.57767000 / 0.45649670 -0.88972510 0.00000000 / 42 141 11 255 / 0.60702510 1.01461800
			}
		}
	}
}
