Version 165 32
{
	Locked False
	Skinned False
	BoneCount 0
	Mask 255
	Bounds
	{
		Aabb
		{
			Min -30.41260000 -5.30810500 -16.96680000
			Max -8.11425800 24.97656000 -12.51563000
		}
	}
	Geometries
	{
		Geometry
		{
			ShaderIndex 12
			Flags -
			VertexDeclaration N51263BB5
			Indices 60
			{
				0 54 1 25 3 15 16 38 43 19 48 7 30 24 50
				52 27 31 22 20 57 58 6 44 13 42 40 41 29 14
				17 33 45 46 23 18 4 32 39 51 34 5 47 53 35
				56 49 36 11 37 2 59 21 8 26 55 9 10 12 28
			}
			Vertices 60
			{
				-8.11425800 7.47998000 -12.51563000 / -0.89100640 -0.45399080 0.00000000 / 42 141 11 255 / -3.49548400 2.18328900 / 0.45399080 -0.89100640 0.00000060 1.00000000
				-8.87164900 8.96643000 -12.89379000 / -0.89102570 -0.45395290 0.00000000 / 42 141 11 255 / -3.86709800 2.27783500 / 0.45395290 -0.89102570 0.00000060 1.00000000
				-8.87164900 8.96643000 -12.89379000 / -0.89102570 -0.45395290 0.00000000 / 42 141 11 255 / -3.86709800 2.27783500 / 0.45395290 -0.89102570 0.00000130 1.00000000
				-12.18120000 15.46172000 -16.96680000 / -0.89102570 -0.45395290 0.00000000 / 42 141 11 255 / -5.49092600 3.29615800 / 0.45395290 -0.89102570 0.00000000 1.00000000
				-17.02930000 24.97656000 -12.51563000 / -0.89100600 -0.45399150 0.00000000 / 42 141 11 255 / -7.86964400 2.18328900 / 0.45399150 -0.89100600 0.00000000 1.00000000
				-17.02930000 24.97656000 -12.51563000 / -0.89100600 -0.45399150 0.00000000 / 42 141 11 255 / -7.86964400 2.18328900 / 0.45399150 -0.89100600 0.00000000 1.00000000
				-8.87164900 8.96643000 -13.43057000 / -0.89102570 -0.45395290 0.00000000 / 42 141 11 255 / -3.86709800 2.41204000 / 0.45395290 -0.89102570 0.00000000 1.00000000
				-12.69769000 4.85138600 -13.43057000 / -0.49752480 0.86744970 0.00000000 / 42 141 11 255 / 4.18477000 2.41204000 / -0.86744980 -0.49752480 0.00000020 1.00000000
				-8.87164900 8.96643000 -13.43057000 / -0.89102570 -0.45395290 0.00000000 / 42 141 11 255 / -3.86709800 2.41204000 / 0.45395290 -0.89102570 0.00000040 1.00000000
				-8.87164900 8.96643000 -13.43057000 / -0.89102570 -0.45395290 0.00000000 / 42 141 11 255 / -3.86709800 2.41204000 / 0.45395290 -0.89102570 0.00000000 1.00000000
				-8.87164900 8.96643000 -13.43057000 / -0.89102570 -0.45395290 0.00000000 / 42 141 11 255 / -3.86709800 2.41204000 / 0.45395290 -0.89102570 0.00000000 1.00000000
				-8.87164900 8.96643100 -12.51563000 / -0.89102570 -0.45395290 0.00000000 / 42 141 11 255 / -3.86709800 2.18328900 / 0.45395290 -0.89102570 0.00000130 1.00000000
				-8.87164900 8.96643000 -16.96680000 / -0.89102570 -0.45395290 0.00000000 / 42 141 11 255 / -3.86709800 3.29615800 / 0.45395290 -0.89102570 0.00000000 1.00000000
				-8.11425800 7.47998000 -12.51563000 / -0.49752480 0.86744970 0.00000000 / 42 141 11 255 / 3.03891000 2.18328900 / -0.86744980 -0.49752480 0.00000000 1.00000000
				-8.11425800 7.47998000 -12.51563000 / -0.49752480 0.86744970 0.00000000 / 42 141 11 255 / 3.03891000 2.18328900 / -0.86744980 -0.49752480 0.00000000 1.00000000
				-12.18120000 15.46172000 -14.54620000 / -0.89102570 -0.45395290 0.00000000 / 42 141 11 255 / -5.49092600 2.69096700 / 0.45395290 -0.89102570 0.00000000 1.00000000
				-30.41260000 -5.30810500 -16.96680000 / -0.49743250 0.86750270 0.00000000 / 42 141 11 255 / 8.61351000 3.29615800 / -0.86750270 -0.49743250 0.00000000 1.00000000
				-30.41260000 -5.30810500 -16.96680000 / -0.49743250 0.86750270 0.00000000 / 42 141 11 255 / 8.61351000 3.29615800 / -0.86750270 -0.49743240 0.00000020 1.00000000
				-30.41260000 -5.30810500 -16.96680000 / -0.49743250 0.86750270 0.00000000 / 42 141 11 255 / 8.61351000 3.29615800 / -0.86750270 -0.49743240 0.00000000 1.00000000
				-8.11425800 7.47998000 -12.51563000 / -0.49752480 0.86744970 0.00000000 / 42 141 11 255 / 3.03891000 2.18328900 / -0.86744980 -0.49752480 0.00000020 1.00000000
				-8.11425800 7.47998000 -12.51563000 / -0.89100640 -0.45399080 0.00000000 / 42 141 11 255 / -3.49548400 2.18328900 / 0.45399080 -0.89100640 0.00000070 1.00000000
				-9.94674600 11.07640000 -13.43057000 / -0.89102570 -0.45395290 0.00000000 / 42 141 11 255 / -4.39459300 2.41203900 / 0.45395290 -0.89102570 0.00000040 1.00000000
				-8.11425800 7.47998000 -13.43057000 / -0.89100640 -0.45399080 0.00000000 / 42 141 11 255 / -3.49548400 2.41204000 / 0.45399080 -0.89100640 0.00000070 1.00000000
				-8.11425800 7.47998000 -16.96680000 / -0.49752480 0.86744970 0.00000000 / 42 141 11 255 / 3.03892500 3.29615800 / -0.86744980 -0.49752480 0.00000000 1.00000000
				-17.02930000 24.97656000 -16.96680000 / -0.89100600 -0.45399150 0.00000000 / 42 141 11 255 / -7.86964400 3.29615800 / 0.45399150 -0.89100600 0.00000000 1.00000000
				-17.02930000 24.97656000 -16.96680000 / -0.89100600 -0.45399150 0.00000000 / 42 141 11 255 / -7.86964400 3.29615800 / 0.45399150 -0.89100610 0.00000000 1.00000000
				-8.11425800 7.47998000 -16.96680000 / -0.89100640 -0.45399080 0.00000000 / 42 141 11 255 / -3.49548400 3.29615800 / 0.45399080 -0.89100640 0.00000000 1.00000000
				-12.18120000 15.46172000 -13.43057000 / -0.89102570 -0.45395290 0.00000000 / 42 141 11 255 / -5.49092600 2.41203900 / 0.45395290 -0.89102570 0.00000000 1.00000000
				-8.11425800 7.47998000 -16.96680000 / -0.89100640 -0.45399080 0.00000000 / 42 141 11 255 / -3.49548400 3.29615800 / 0.45399080 -0.89100640 0.00000000 1.00000000
				-30.41260000 -5.30810500 -12.51563000 / -0.49743250 0.86750270 0.00000000 / 42 141 11 255 / 8.61351000 2.18328900 / -0.86750270 -0.49743240 0.00000000 1.00000000
				-17.02930000 24.97656000 -13.43057000 / -0.89100600 -0.45399150 0.00000000 / 42 141 11 255 / -7.86964400 2.41203900 / 0.45399150 -0.89100600 0.00000000 1.00000000
				-17.02930000 24.97656000 -13.43057000 / -0.89100600 -0.45399150 0.00000000 / 42 141 11 255 / -7.86964400 2.41203900 / 0.45399150 -0.89100600 0.00000000 1.00000000
				-17.02930000 24.97656000 -13.43057000 / -0.89100600 -0.45399150 0.00000000 / 42 141 11 255 / -7.86964400 2.41203900 / 0.45399150 -0.89100600 0.00000000 1.00000000
				-12.69769000 4.85138600 -13.43057000 / -0.49752480 0.86744970 0.00000000 / 42 141 11 255 / 4.18477000 2.41204000 / -0.86744980 -0.49752480 0.00000020 1.00000000
				-12.18120000 15.46172000 -12.51563000 / -0.89102570 -0.45395290 0.00000000 / 42 141 11 255 / -5.49092600 2.18328900 / 0.45395290 -0.89102570 0.00000000 1.00000000
				-9.94674700 11.07641000 -13.43057000 / -0.89102570 -0.45395290 0.00000000 / 42 141 11 255 / -4.39459300 2.41204000 / 0.45395290 -0.89102570 0.00000020 1.00000000
				-9.94674700 11.07641000 -13.43057000 / -0.89102570 -0.45395290 0.00000000 / 42 141 11 255 / -4.39459300 2.41204000 / 0.45395290 -0.89102570 -0.00000010 1.00000000
				-9.94674700 11.07641000 -13.43057000 / -0.89102570 -0.45395290 0.00000000 / 42 141 11 255 / -4.39459300 2.41204000 / 0.45395290 -0.89102570 0.00000130 1.00000000
				-30.41260000 -5.30810500 -13.43057000 / -0.49743250 0.86750270 0.00000000 / 42 141 11 255 / 8.61351000 2.41204000 / -0.86750270 -0.49743250 0.00000000 1.00000000
				-12.18120000 15.46172000 -13.43057000 / -0.89102570 -0.45395290 0.00000000 / 42 141 11 255 / -5.49092600 2.41203900 / 0.45395290 -0.89102570 0.00000000 1.00000000
				-30.41260000 -5.30810500 -13.43057000 / -0.49743250 0.86750270 0.00000000 / 42 141 11 255 / 8.61351000 2.41204000 / -0.86750270 -0.49743240 0.00000000 1.00000000
				-30.41260000 -5.30810500 -13.43057000 / -0.49743250 0.86750270 0.00000000 / 42 141 11 255 / 8.61351000 2.41204000 / -0.86750270 -0.49743240 0.00000000 1.00000000
				-12.69769000 4.85138700 -13.43057000 / -0.49752480 0.86744970 0.00000000 / 42 141 11 255 / 4.18477000 2.41203900 / -0.86744980 -0.49752480 0.00000000 1.00000000
				-12.69769000 4.85138700 -13.43057000 / -0.49752480 0.86744970 0.00000000 / 42 141 11 255 / 4.18477000 2.41203900 / -0.86744980 -0.49752480 0.00000000 1.00000000
				-8.11425800 7.47998000 -13.43057000 / -0.89100640 -0.45399080 0.00000000 / 42 141 11 255 / -3.49548400 2.41204000 / 0.45399080 -0.89100640 0.00000000 1.00000000
				-8.11425800 7.47998000 -13.43057000 / -0.49752480 0.86744970 0.00000000 / 42 141 11 255 / 3.03891300 2.41203900 / -0.86744980 -0.49752480 0.00000020 1.00000000
				-8.11425800 7.47998000 -13.43057000 / -0.49752480 0.86744970 0.00000000 / 42 141 11 255 / 3.03891300 2.41203900 / -0.86744980 -0.49752480 0.00000000 1.00000000
				-12.18120000 15.46172000 -12.51563000 / -0.89102570 -0.45395290 0.00000000 / 42 141 11 255 / -5.49092600 2.18328900 / 0.45395290 -0.89102570 0.00000020 1.00000000
				-8.11425800 7.47998000 -13.43057000 / -0.49752480 0.86744970 0.00000000 / 42 141 11 255 / 3.03891300 2.41203900 / -0.86744980 -0.49752480 0.00000020 1.00000000
				-12.18120000 15.46172000 -12.51563000 / -0.89102570 -0.45395290 0.00000000 / 42 141 11 255 / -5.49092600 2.18328900 / 0.45395290 -0.89102570 -0.00000010 1.00000000
				-12.18120000 15.46172000 -14.54620000 / -0.89102570 -0.45395290 0.00000000 / 42 141 11 255 / -5.49092600 2.69096700 / 0.45395290 -0.89102570 0.00000000 1.00000000
				-12.18120000 15.46172000 -13.43057000 / -0.89102570 -0.45395290 0.00000000 / 42 141 11 255 / -5.49092600 2.41203900 / 0.45395290 -0.89102570 0.00000000 1.00000000
				-12.18120000 15.46172000 -14.54620000 / -0.89102570 -0.45395290 0.00000000 / 42 141 11 255 / -5.49092600 2.69096700 / 0.45395290 -0.89102570 0.00000000 1.00000000
				-12.18120000 15.46172000 -13.43057000 / -0.89102570 -0.45395290 0.00000000 / 42 141 11 255 / -5.49092600 2.41203900 / 0.45395290 -0.89102570 0.00000020 1.00000000
				-8.87164900 8.96643100 -12.51563000 / -0.89102570 -0.45395290 0.00000000 / 42 141 11 255 / -3.86709800 2.18328900 / 0.45395290 -0.89102570 0.00000060 1.00000000
				-8.11425800 7.47998000 -13.43057000 / -0.89100640 -0.45399080 0.00000000 / 42 141 11 255 / -3.49548400 2.41204000 / 0.45399080 -0.89100640 0.00000000 1.00000000
				-8.87164900 8.96643100 -12.51563000 / -0.89102570 -0.45395290 0.00000000 / 42 141 11 255 / -3.86709800 2.18328900 / 0.45395290 -0.89102570 -0.00000010 1.00000000
				-8.87164900 8.96643000 -12.89379000 / -0.89102570 -0.45395290 0.00000000 / 42 141 11 255 / -3.86709800 2.27783400 / 0.45395290 -0.89102570 0.00000070 1.00000000
				-8.87164900 8.96643000 -12.89379000 / -0.89102570 -0.45395290 0.00000000 / 42 141 11 255 / -3.86709800 2.27783400 / 0.45395290 -0.89102570 0.00000000 1.00000000
				-8.87164900 8.96643000 -12.89379000 / -0.89102570 -0.45395290 0.00000000 / 42 141 11 255 / -3.86709800 2.27783400 / 0.45395290 -0.89102570 0.00000040 1.00000000
			}
		}
	}
}
