Version 165 32
{
	Locked False
	Skinned False
	BoneCount 0
	Mask 255
	Bounds
	{
		Aabb
		{
			Min 2.02998000 16.89358000 -17.57764000
			Max 10.35580000 33.23375000 -12.37992000
		}
		Aabb
		{
			Min 2.02998000 16.89359000 -16.96680000
			Max 10.35580000 33.23375000 -12.37992000
		}
		Aabb
		{
			Min 2.03484200 16.89358000 -17.57764000
			Max 10.35580000 33.22421000 -16.96680000
		}
	}
	Geometries
	{
		Geometry
		{
			ShaderIndex 0
			Flags -
			VertexDeclaration N51263BB5
			Indices 21
			{
				0 11 14 6 3 15 16 13 7 10 20 17 18 8 12
				1 9 4 5 19 2
			}
			Vertices 21
			{
				10.35580000 16.89359000 -12.37992000 / -0.89102570 -0.45395290 0.00000000 / 42 141 11 255 / -3.49548400 2.18328900 / 0.45395290 -0.89102570 0.00000000 1.00000000
				2.07811400 33.13929000 -16.63887000 / -0.89102570 -0.45395290 0.00000000 / 42 141 11 255 / -7.55692300 3.21659600 / 0.45395290 -0.89102570 -0.00000290 1.00000000
				2.07811400 33.13929000 -16.63887000 / -0.89102570 -0.45395290 0.00000000 / 42 141 11 255 / -7.55692300 3.21659600 / 0.45395290 -0.89102570 0.00000000 1.00000000
				2.03451800 33.22485000 -16.66130000 / -0.89102570 -0.45395290 0.00000000 / 42 141 11 255 / -7.57831300 3.22203800 / 0.45395290 -0.89102570 -0.00000480 1.00000000
				2.03484100 33.22421000 -16.96680000 / -0.89102570 -0.45395290 0.00000000 / 42 141 11 255 / -7.57815600 3.29615800 / 0.45395290 -0.89102570 -0.00000290 1.00000000
				2.03484100 33.22421000 -16.96680000 / -0.89102570 -0.45395290 0.00000000 / 42 141 11 255 / -7.57815600 3.29615800 / 0.45395290 -0.89102570 0.00000000 1.00000000
				2.02998000 33.23375000 -12.37992000 / -0.89102570 -0.45395290 0.00000000 / 42 141 11 255 / -7.58053900 2.18328900 / 0.45395290 -0.89102570 -0.00000480 1.00000000
				2.02998000 33.23375000 -12.37992000 / -0.89102570 -0.45395290 0.00000000 / 42 141 11 255 / -7.58053900 2.18328900 / 0.45395290 -0.89102570 0.00000000 1.00000000
				10.35580000 16.89359000 -16.96680000 / -0.89102570 -0.45395290 0.00000000 / 42 141 11 255 / -3.49548400 3.29615800 / 0.45395290 -0.89102570 0.00000000 1.00000000
				2.03451800 33.22485000 -16.66130000 / -0.89102570 -0.45395290 0.00000000 / 42 141 11 255 / -7.57831300 3.22203800 / 0.45395290 -0.89102570 -0.00000290 1.00000000
				10.35580000 16.89359000 -12.37992000 / -0.89102570 -0.45395290 0.00000000 / 42 141 11 255 / -3.49548400 2.18328900 / 0.45395290 -0.89102570 0.00000030 1.00000000
				2.07360100 33.14813000 -12.37992000 / -0.89102570 -0.45395290 0.00000000 / 42 141 11 255 / -7.55913600 2.18328900 / 0.45395290 -0.89102570 0.00000000 1.00000000
				10.35580000 16.89359000 -12.37992000 / -0.89102570 -0.45395290 0.00000000 / 42 141 11 255 / -3.49548400 2.18328900 / 0.45395290 -0.89102570 0.00000000 1.00000000
				2.07360100 33.14813000 -12.37992000 / -0.89102570 -0.45395290 0.00000000 / 42 141 11 255 / -7.55913600 2.18328900 / 0.45395290 -0.89102570 0.00000000 1.00000000
				2.07811400 33.13929000 -16.63887000 / -0.89102570 -0.45395290 0.00000000 / 42 141 11 255 / -7.55692300 3.21659600 / 0.45395290 -0.89102570 0.00000000 1.00000000
				2.07811400 33.13929000 -16.63887000 / -0.89102570 -0.45395290 0.00000000 / 42 141 11 255 / -7.55692300 3.21659600 / 0.45395290 -0.89102570 -0.00000480 1.00000000
				2.07811400 33.13929000 -16.63887000 / -0.89102570 -0.45395290 0.00000000 / 42 141 11 255 / -7.55692300 3.21659600 / 0.45395290 -0.89102570 0.00000000 1.00000000
				2.07846100 33.13860000 -16.96680000 / -0.89102570 -0.45395290 0.00000000 / 42 141 11 255 / -7.55675300 3.29615800 / 0.45395290 -0.89102570 0.00000030 1.00000000
				2.07846100 33.13860000 -16.96680000 / -0.89102570 -0.45395290 0.00000000 / 42 141 11 255 / -7.55675300 3.29615800 / 0.45395290 -0.89102570 0.00000000 1.00000000
				2.07846100 33.13860000 -16.96680000 / -0.89102570 -0.45395290 0.00000000 / 42 141 11 255 / -7.55675300 3.29615800 / 0.45395290 -0.89102570 0.00000000 1.00000000
				2.07811400 33.13929000 -16.63887000 / -0.89102570 -0.45395290 0.00000000 / 42 141 11 255 / -7.55692300 3.21659600 / 0.45395290 -0.89102570 0.00000030 1.00000000
			}
		}
		Geometry
		{
			ShaderIndex 4
			Flags -
			VertexDeclaration N51263BB5
			Indices 21
			{
				17 7 10 19 3 0 1 18 20 15 13 8 9 6 16
				4 14 11 12 2 5
			}
			Vertices 21
			{
				2.07910800 33.13733000 -17.57764000 / -0.89102570 -0.45395290 0.00000000 / 42 141 11 255 / -6.90855600 -0.09788510 / 0.45395290 -0.89102570 0.00000000 1.00000000
				2.07910800 33.13733000 -17.57764000 / -0.89102570 -0.45395290 0.00000000 / 42 141 11 255 / -6.90855600 -0.09788510 / 0.45395290 -0.89102570 0.00000000 1.00000000
				2.07910800 33.13733000 -17.57764000 / -0.89102570 -0.45395290 0.00000000 / 42 141 11 255 / -6.90855600 -0.09788510 / 0.45395290 -0.89102570 0.00000000 1.00000000
				2.07906200 33.13743000 -17.53391000 / -0.89102570 -0.45395290 0.00000000 / 42 141 11 255 / -6.90861700 -0.12703450 / 0.45395290 -0.89102570 0.00000000 1.00000000
				2.07906200 33.13743000 -17.53391000 / -0.89102570 -0.45395290 0.00000000 / 42 141 11 255 / -6.90861700 -0.12703450 / 0.45395290 -0.89102570 0.00000390 1.00000000
				2.07906200 33.13743000 -17.53391000 / -0.89102570 -0.45395290 0.00000000 / 42 141 11 255 / -6.90861700 -0.12703450 / 0.45395290 -0.89102570 0.00000000 1.00000000
				2.07846200 33.13860000 -16.96680000 / -0.89102570 -0.45395290 0.00000000 / 42 141 11 255 / -6.90941200 -0.50500490 / 0.45395290 -0.89102570 0.00000000 1.00000000
				2.07846200 33.13860000 -16.96680000 / -0.89102570 -0.45395290 0.00000000 / 42 141 11 255 / -6.90941200 -0.50500490 / 0.45395290 -0.89102570 0.00000000 1.00000000
				2.07906200 33.13743000 -17.53391000 / -0.89102570 -0.45395290 0.00000000 / 42 141 11 255 / -6.90861700 -0.12703450 / 0.45395290 -0.89102570 0.00000370 1.00000000
				2.07906200 33.13743000 -17.53391000 / -0.89102570 -0.45395290 0.00000000 / 42 141 11 255 / -6.90861700 -0.12703450 / 0.45395290 -0.89102570 0.00000000 1.00000000
				2.07906200 33.13743000 -17.53391000 / -0.89102570 -0.45395290 0.00000000 / 42 141 11 255 / -6.90861700 -0.12703450 / 0.45395290 -0.89102570 0.00000000 1.00000000
				2.03548800 33.22294000 -17.57764000 / -0.89102570 -0.45395290 0.00000000 / 42 141 11 255 / -6.96612800 -0.09788510 / 0.45395290 -0.89102570 0.00000390 1.00000000
				2.03548800 33.22294000 -17.57764000 / -0.89102570 -0.45395290 0.00000000 / 42 141 11 255 / -6.96612800 -0.09788510 / 0.45395290 -0.89102570 0.00000000 1.00000000
				2.03544500 33.22303000 -17.53689000 / -0.89102570 -0.45395290 0.00000000 / 42 141 11 255 / -6.96618400 -0.12504270 / 0.45395290 -0.89102570 0.00000370 1.00000000
				2.03544500 33.22303000 -17.53689000 / -0.89102570 -0.45395290 0.00000000 / 42 141 11 255 / -6.96618400 -0.12504270 / 0.45395290 -0.89102570 0.00000390 1.00000000
				2.03484200 33.22421000 -16.96680000 / -0.89102570 -0.45395290 0.00000000 / 42 141 11 255 / -6.96698300 -0.50500490 / 0.45395290 -0.89102570 0.00000370 1.00000000
				2.03484200 33.22421000 -16.96680000 / -0.89102570 -0.45395290 0.00000000 / 42 141 11 255 / -6.96698300 -0.50500490 / 0.45395290 -0.89102570 0.00000000 1.00000000
				10.35580000 16.89359000 -16.96680000 / -0.89102570 -0.45395290 0.00000000 / 42 141 11 255 / 4.01533500 -0.50500490 / 0.45395290 -0.89102570 0.00000000 1.00000000
				10.35579000 16.89358000 -17.57764000 / -0.89102570 -0.45395290 0.00000000 / 42 141 11 255 / 4.01533500 -0.09788510 / 0.45395290 -0.89102570 0.00000000 1.00000000
				10.35580000 16.89359000 -16.96680000 / -0.89102570 -0.45395290 0.00000000 / 42 141 11 255 / 4.01533500 -0.50500490 / 0.45395290 -0.89102570 0.00000000 1.00000000
				10.35580000 16.89359000 -16.96680000 / -0.89102570 -0.45395290 0.00000000 / 42 141 11 255 / 4.01533500 -0.50500490 / 0.45395290 -0.89102570 0.00000000 1.00000000
			}
		}
	}
}
