Version 165 32
{
	Locked False
	Skinned False
	BoneCount 0
	Mask 255
	Bounds
	{
		Aabb
		{
			Min -8.11175600 7.50663100 -17.57765000
			Max 13.92850000 20.12178000 -12.51564000
		}
		Aabb
		{
			Min -8.11175600 7.50663200 -16.96681000
			Max 13.92850000 20.12178000 -12.51564000
		}
		Aabb
		{
			Min -8.11175600 7.50663100 -17.57765000
			Max 13.92850000 20.12178000 -16.96681000
		}
	}
	Geometries
	{
		Geometry
		{
			ShaderIndex 0
			Flags -
			VertexDeclaration N51263BB5
			Indices 6
			{
				0 1 2 3 4 5
			}
			Vertices 6
			{
				-8.11175400 7.50663300 -16.96681000 / -0.49752480 0.86744970 0.00000000 / 42 141 11 255 / 8.61351000 3.29615800 / -0.86744980 -0.49752480 0.00000000 1.00000000
				-8.11175600 7.50663300 -12.51564000 / -0.49752480 0.86744970 0.00000000 / 42 141 11 255 / 8.61351000 2.18328900 / -0.86744980 -0.49752480 0.00000000 1.00000000
				13.92850000 20.12178000 -12.51564000 / -0.49752480 0.86744970 0.00000000 / 42 141 11 255 / 3.03891000 2.18328900 / -0.86744980 -0.49752480 0.00000000 1.00000000
				13.92850000 20.12178000 -12.51564000 / -0.49752480 0.86744970 0.00000000 / 42 141 11 255 / 3.03891000 2.18328900 / -0.86744980 -0.49752480 0.00000000 1.00000000
				13.92850000 20.12178000 -16.96681000 / -0.49752480 0.86744970 0.00000000 / 42 141 11 255 / 3.03892500 3.29615800 / -0.86744980 -0.49752480 0.00000000 1.00000000
				-8.11175100 7.50663200 -16.96681000 / -0.49752480 0.86744970 0.00000000 / 42 141 11 255 / 8.61351000 3.29615800 / -0.86744980 -0.49752480 0.00000000 1.00000000
			}
		}
		Geometry
		{
			ShaderIndex 4
			Flags -
			VertexDeclaration N51263BB5
			Indices 6
			{
				0 1 2 3 4 5
			}
			Vertices 6
			{
				-8.11175600 7.50663200 -17.57765000 / -0.49752480 0.86744970 0.00000000 / 42 141 11 255 / 20.25795000 -0.09785460 / -0.86744980 -0.49752480 0.00000000 1.00000000
				-8.11175400 7.50663200 -16.96681000 / -0.49752480 0.86744970 0.00000000 / 42 141 11 255 / 20.25793000 -0.50500490 / -0.86744980 -0.49752480 0.00000000 1.00000000
				13.92850000 20.12178000 -16.96681000 / -0.49752480 0.86744970 0.00000000 / 42 141 11 255 / 5.19697600 -0.50500490 / -0.86744980 -0.49752480 0.00000000 1.00000000
				13.92850000 20.12178000 -16.96681000 / -0.49752480 0.86744970 0.00000000 / 42 141 11 255 / 5.19697600 -0.50500490 / -0.86744980 -0.49752480 0.00000100 1.00000000
				13.92850000 20.12178000 -17.57765000 / -0.49752480 0.86744970 0.00000000 / 42 141 11 255 / 5.19697600 -0.09786990 / -0.86744980 -0.49752480 0.00000100 1.00000000
				-8.11175200 7.50663100 -17.57765000 / -0.49752480 0.86744970 0.00000000 / 42 141 11 255 / 20.25795000 -0.09785460 / -0.86744980 -0.49752480 0.00000100 1.00000000
			}
		}
	}
}
