Version 165 32
{
	Locked False
	Skinned False
	BoneCount 0
	Mask 255
	Bounds
	{
		Aabb
		{
			Min -4.14857900 30.60457000 -14.61516000
			Max 0.18099490 33.29640000 -14.10961000
		}
	}
	Geometries
	{
		Geometry
		{
			ShaderIndex 8
			Flags -
			VertexDeclaration N209731BE
			Indices 48
			{
				42 3 27 46 45 11 38 13 1 2 47 39 9 41 31
				33 15 10 21 44 35 36 23 19 24 0 26 28 37 25
				6 40 29 30 5 8 7 4 12 14 22 20 32 16 17
				18 43 34
			}
			Vertices 48
			{
				-4.14857900 31.28681000 -14.60905000 / -0.45410330 0.89094470 0.00276570 / 42 141 11 255 / 0.35260010 0.87328930
				-4.09451100 31.19102000 -14.60919000 / -0.00157350 0.00057220 -0.99999860 / 42 141 11 255 / 1.83442100 0.87245850
				-4.09451100 31.19102000 -14.60919000 / -0.00157350 0.00057220 -0.99999860 / 42 141 11 255 / 1.83442100 0.87245850
				-0.20374540 33.29577000 -14.11473000 / -0.45381080 0.89109370 0.00276560 / 42 141 11 255 / 0.60096740 0.08703250
				-4.14675300 31.28618000 -14.10961000 / 0.00157350 -0.00057220 0.99999860 / 42 141 11 255 / -0.91454860 0.87315300
				-3.76383600 30.60519000 -14.61004000 / -0.00157350 0.00057220 -0.99999860 / 42 141 11 255 / 1.50019800 0.86737970
				-4.09451100 31.19102000 -14.60919000 / -0.00157350 0.00057220 -0.99999860 / 42 141 11 255 / 1.83442100 0.87245850
				-0.20374540 33.29577000 -14.11473000 / 0.00158690 -0.00038150 0.99999870 / 42 141 11 255 / -0.91453680 0.08701850
				-4.09451100 31.19102000 -14.60919000 / -0.00157350 0.00057220 -0.99999860 / 42 141 11 255 / 1.83442100 0.87245850
				-3.76201100 30.60457000 -14.11061000 / 0.00159740 -0.00057220 0.99999860 / 42 141 11 255 / -0.52567830 0.86724510
				-3.76201100 30.60457000 -14.11061000 / 0.00159740 -0.00057220 0.99999860 / 42 141 11 255 / -0.52567830 0.86724510
				-4.14675300 31.28618000 -14.10961000 / -0.45410330 0.89094470 0.00276570 / 42 141 11 255 / 0.60096740 0.87315520
				-4.09263300 31.19030000 -14.10975000 / 0.00157350 -0.00057220 0.99999860 / 42 141 11 255 / -0.85984810 0.87232370
				0.14924270 32.66780000 -14.61508000 / -0.00158250 0.00038150 -0.99999870 / 42 141 11 255 / 1.53044400 0.08170309
				-4.09263300 31.19030000 -14.10975000 / 0.00157350 -0.00057220 0.99999860 / 42 141 11 255 / -0.85984810 0.87232370
				-4.09263300 31.19030000 -14.10975000 / 0.00157350 -0.00057220 0.99999860 / 42 141 11 255 / -0.85984810 0.87232370
				-3.76201100 30.60457000 -14.11062000 / 0.45410330 -0.89094470 -0.00276570 / 42 141 11 255 / 0.35867310 0.86724510
				-3.76227700 30.60466000 -14.18336000 / 0.45410330 -0.89094470 -0.00276570 / 42 141 11 255 / 0.39484950 0.86726270
				-3.76227700 30.60466000 -14.18336000 / 0.45410330 -0.89094470 -0.00276570 / 42 141 11 255 / 0.39484950 0.86726270
				-3.76383600 30.60519000 -14.61004000 / 0.45410330 -0.89094470 -0.00276570 / 42 141 11 255 / 0.60702510 0.86737970
				-0.20374540 33.29577000 -14.11473000 / 0.00158690 -0.00038150 0.99999870 / 42 141 11 255 / -0.91453680 0.08701850
				-3.76383600 30.60519000 -14.61004000 / 0.45410330 -0.89094470 -0.00276570 / 42 141 11 255 / 0.60702510 0.86737970
				0.15112180 32.66708000 -14.11565000 / 0.00158690 -0.00038150 0.99999870 / 42 141 11 255 / -0.55586010 0.08158010
				-3.76227700 30.60466000 -14.18336000 / 0.45410330 -0.89094470 -0.00276570 / 42 141 11 255 / 0.39484950 0.86726270
				-0.20557420 33.29640000 -14.61417000 / -0.45381080 0.89109370 0.00276560 / 42 141 11 255 / 0.35260010 0.08715540
				-0.20557420 33.29640000 -14.61417000 / -0.45381080 0.89109370 0.00276560 / 42 141 11 255 / 0.35260010 0.08715540
				-4.14832300 31.28672000 -14.53926000 / -0.45410330 0.89094470 0.00276570 / 42 141 11 255 / 0.38730380 0.87327240
				-0.20389720 33.29583000 -14.15621000 / -0.45381080 0.89109370 0.00276560 / 42 141 11 255 / 0.58034150 0.08704390
				-4.14832300 31.28672000 -14.53926000 / -0.45410330 0.89094470 0.00276570 / 42 141 11 255 / 0.38730380 0.87327240
				0.17916790 32.61478000 -14.61516000 / -0.00158400 0.00038150 -0.99999870 / 42 141 11 255 / 1.50019800 0.08124350
				0.17916790 32.61478000 -14.61516000 / -0.00158100 0.00038150 -0.99999870 / 42 141 11 255 / 1.50019800 0.08124350
				0.15112190 32.66708000 -14.11565000 / 0.00159290 -0.00076290 0.99999840 / 42 141 11 255 / -0.55586000 0.08158010
				0.18099490 32.61415000 -14.11573000 / 0.45381080 -0.89109370 -0.00276560 / 42 141 11 255 / 0.35867310 0.08112130
				0.15112190 32.66708000 -14.11565000 / 0.00158840 -0.00038150 0.99999870 / 42 141 11 255 / -0.55586000 0.08158010
				0.18099490 32.61415000 -14.11573000 / 0.45381080 -0.89109370 -0.00276560 / 42 141 11 255 / 0.35867310 0.08112130
				0.17930900 32.61473000 -14.57654000 / 0.45381080 -0.89109370 -0.00276560 / 42 141 11 255 / 0.58782370 0.08123289
				0.17930900 32.61473000 -14.57654000 / 0.45381080 -0.89109370 -0.00276560 / 42 141 11 255 / 0.58782370 0.08123289
				-0.20389730 33.29583000 -14.15621000 / -0.45381080 0.89109370 0.00276560 / 42 141 11 255 / 0.58034150 0.08704390
				-0.20557420 33.29640000 -14.61417000 / -0.00158250 0.00038150 -0.99999870 / 42 141 11 255 / 1.88906900 0.08715540
				-0.20557420 33.29640000 -14.61417000 / -0.00158250 0.00038150 -0.99999870 / 42 141 11 255 / 1.88906900 0.08715540
				0.14924280 32.66780000 -14.61508000 / -0.00158400 0.00038150 -0.99999870 / 42 141 11 255 / 1.53044400 0.08170309
				0.18099480 32.61415000 -14.11573000 / 0.00159290 -0.00076290 0.99999840 / 42 141 11 255 / -0.52566650 0.08112130
				-4.14675300 31.28618000 -14.10961000 / -0.45410330 0.89094470 0.00276570 / 42 141 11 255 / 0.60096740 0.87315520
				0.17930910 32.61473000 -14.57654000 / 0.45381080 -0.89109370 -0.00276560 / 42 141 11 255 / 0.58782370 0.08123289
				0.17916800 32.61478000 -14.61516000 / 0.45381080 -0.89109370 -0.00276560 / 42 141 11 255 / 0.60702510 0.08124350
				-4.14832300 31.28672000 -14.53926000 / -0.45410330 0.89094470 0.00276570 / 42 141 11 255 / 0.38730380 0.87327240
				-0.20389720 33.29583000 -14.15621000 / -0.45381080 0.89109370 0.00276560 / 42 141 11 255 / 0.58034150 0.08704390
				-4.14857900 31.28681000 -14.60905000 / -0.00157350 0.00057220 -0.99999860 / 42 141 11 255 / 1.88906900 0.87328930
			}
		}
	}
}
