Version 165 32
{
	Locked False
	Skinned False
	BoneCount 0
	Mask 255
	Bounds
	{
		Aabb
		{
			Min -32.53129000 12.50619000 -17.57374000
			Max -26.65986000 19.02541000 -17.57373000
		}
		Aabb
		{
			Min -32.53129000 12.50619000 -17.57374000
			Max -26.65986000 19.02541000 -17.57373000
		}
		Aabb
		{
			Min -32.45118000 12.73513000 -17.57374000
			Max -26.87649000 18.97158000 -17.57373000
		}
	}
	Geometries
	{
		Geometry
		{
			ShaderIndex 15
			Flags -
			VertexDeclaration N209731BE
			Indices 30
			{
				19 11 6 7 1 20 27 12 8 9 22 28 13 23 14
				16 29 0 24 21 2 5 10 26 17 25 3 15 4 18
			}
			Vertices 30
			{
				-26.65986000 14.32866000 -17.57373000 / 0.00000000 0.00000000 1.00000000 / 255 255 255 255 / -0.98937480 -0.69597180
				-30.23666000 12.66687000 -17.57373000 / 0.00000000 0.00000000 1.00000000 / 255 255 255 255 / 3.50290500 -1.38267800
				-30.23666000 12.66687000 -17.57373000 / 0.00000000 0.00000000 1.00000000 / 255 255 255 255 / 3.50290500 -1.38267800
				-26.87649000 14.44408000 -17.57373000 / 0.00000000 0.00000000 1.00000000 / 255 255 255 255 / -0.70411030 -0.69077910
				-26.75266000 14.50988000 -17.57373000 / 0.00000000 0.00000000 1.00000000 / 255 255 255 255 / -0.85810180 -0.66538990
				-30.23666000 12.66687000 -17.57373000 / 0.00000000 0.00000000 1.00000000 / 255 255 255 255 / 3.50290500 -1.38267800
				-30.10837000 12.73513000 -17.57373000 / 0.00000000 0.00000000 1.00000000 / 255 255 255 255 / 3.34338000 -1.35635500
				-30.10837000 12.73513000 -17.57373000 / 0.00000000 0.00000000 1.00000000 / 255 255 255 255 / 3.34338000 -1.35635500
				-30.10837000 12.73513000 -17.57373000 / 0.00000000 0.00000000 1.00000000 / 255 255 255 255 / 3.34338000 -1.35635500
				-30.10837000 12.73513000 -17.57373000 / 0.00000000 0.00000000 1.00000000 / 255 255 255 255 / 3.34338000 -1.35635500
				-30.10837000 12.73513000 -17.57373000 / 0.00000000 0.00000000 1.00000000 / 255 255 255 255 / 3.34338000 -1.35635500
				-30.02047000 12.57447000 -17.57373000 / 0.00000000 0.00000000 1.00000000 / 255 255 255 255 / 3.21980400 -1.38295800
				-26.87649000 14.44408000 -17.57373000 / 0.00000000 0.00000000 1.00000000 / 255 255 255 255 / -0.70411030 -0.69077910
				-26.65986000 14.32866000 -17.57373000 / 0.00000000 0.00000000 1.00000000 / 255 255 255 255 / -0.98937480 -0.69597180
				-26.87649000 14.44408000 -17.57373000 / 0.00000000 0.00000000 1.00000000 / 255 255 255 255 / -0.70411030 -0.69077910
				-26.87649000 14.44408000 -17.57373000 / 0.00000000 0.00000000 1.00000000 / 255 255 255 255 / -0.70411030 -0.69077910
				-26.87649000 14.44408000 -17.57373000 / 0.00000000 0.00000000 1.00000000 / 255 255 255 255 / -0.70411030 -0.69077910
				-29.04734000 19.02541000 -17.57374000 / 0.00000000 0.00000000 1.00000000 / 255 255 255 255 / 3.31400100 0.29973230
				-29.04734000 19.02541000 -17.57374000 / 0.00000000 0.00000000 1.00000000 / 255 255 255 255 / 3.31400100 0.29973230
				-30.15443000 12.50619000 -17.57373000 / 0.00000000 0.00000000 1.00000000 / 255 255 255 255 / 3.38659600 -1.40980000
				-30.15443000 12.50619000 -17.57373000 / 0.00000000 0.00000000 1.00000000 / 255 255 255 255 / 3.38659600 -1.40980000
				-32.53129000 17.20816000 -17.57374000 / 0.00000000 0.00000000 1.00000000 / 255 255 255 255 / 7.68996800 -0.41409500
				-30.02047000 12.57447000 -17.57373000 / 0.00000000 0.00000000 1.00000000 / 255 255 255 255 / 3.21980400 -1.38295800
				-26.75266000 14.50988000 -17.57373000 / 0.00000000 0.00000000 1.00000000 / 255 255 255 255 / -0.85810180 -0.66538990
				-32.45118000 17.24863000 -17.57374000 / 0.00000000 0.00000000 1.00000000 / 255 255 255 255 / 7.59018000 -0.39812110
				-29.15331000 18.97158000 -17.57374000 / 0.00000000 0.00000000 1.00000000 / 255 255 255 255 / 3.44595300 0.27853690
				-32.45118000 17.24863000 -17.57374000 / 0.00000000 0.00000000 1.00000000 / 255 255 255 255 / 7.59018000 -0.39812110
				-26.78300000 14.26556000 -17.57373000 / 0.00000000 0.00000000 1.00000000 / 255 255 255 255 / -0.83607990 -0.72071780
				-26.78300000 14.26556000 -17.57373000 / 0.00000000 0.00000000 1.00000000 / 255 255 255 255 / -0.83607990 -0.72071780
				-26.78300000 14.26556000 -17.57373000 / 0.00000000 0.00000000 1.00000000 / 255 255 255 255 / -0.83607990 -0.72071780
			}
		}
		Geometry
		{
			ShaderIndex 16
			Flags -
			VertexDeclaration N51263BB5
			Indices 6
			{
				1 0 3 4 5 2
			}
			Vertices 6
			{
				-32.45118000 17.24863000 -17.57374000 / 0.00000000 0.00000000 1.00000000 / 255 255 255 255 / 4.12402000 -4.00000000 / -0.45093280 0.89255790 0.00000000 1.00000000
				-29.15331000 18.97158000 -17.57374000 / 0.00000000 0.00000000 1.00000000 / 255 255 255 255 / 4.12765900 0.00000000 / -0.45093280 0.89255790 0.00000000 1.00000000
				-29.15331000 18.97158000 -17.57374000 / 0.00000000 0.00000000 1.00000000 / 255 255 255 255 / 4.12765900 0.00000000 / -0.45286520 0.89157900 0.00000000 1.00000000
				-30.10837000 12.73513000 -17.57373000 / 0.00000000 0.00000000 1.00000000 / 255 255 255 255 / -0.12765960 -3.93999600 / -0.45093280 0.89255790 0.00000000 1.00000000
				-30.10837000 12.73513000 -17.57373000 / 0.00000000 0.00000000 1.00000000 / 255 255 255 255 / -0.12765960 -3.93999600 / -0.45286520 0.89157900 0.00000000 1.00000000
				-26.87649000 14.44408000 -17.57373000 / 0.00000000 0.00000000 1.00000000 / 255 255 255 255 / -0.11196160 -0.02184300 / -0.45286520 0.89157900 0.00000000 1.00000000
			}
		}
	}
}
