Version 165 32
{
	Locked False
	Skinned False
	BoneCount 0
	Mask 255
	Bounds
	{
		Aabb
		{
			Min -36.66649000 2.56465400 -17.57372000
			Max -29.95108000 8.39821400 -17.57371000
		}
		Aabb
		{
			Min -36.66649000 2.56465400 -17.57372000
			Max -29.95108000 8.39821400 -17.57371000
		}
		Aabb
		{
			Min -36.61458000 2.64549100 -17.57372000
			Max -30.17915000 8.18370100 -17.57371000
		}
	}
	Geometries
	{
		Geometry
		{
			ShaderIndex 15
			Flags -
			VertexDeclaration N209731BE
			Indices 30
			{
				19 11 6 7 1 20 27 12 8 9 22 28 13 23 14
				16 29 0 24 21 2 5 10 26 17 25 3 15 4 18
			}
			Vertices 30
			{
				-31.74683000 8.39821400 -17.57372000 / 0.00000000 0.00000000 1.00000000 / 255 255 255 255 / -0.98937480 -0.69597180
				-30.11322000 4.78303500 -17.57372000 / 0.00000000 0.00000000 1.00000000 / 255 255 255 255 / 3.50290500 -1.38267800
				-30.11322000 4.78303500 -17.57372000 / 0.00000000 -0.00004770 1.00000000 / 255 255 255 255 / 3.50290500 -1.38267800
				-31.86615000 8.18370100 -17.57372000 / 0.00000000 0.00000000 1.00000000 / 255 255 255 255 / -0.70411030 -0.69077910
				-31.92970000 8.30869100 -17.57372000 / 0.00000000 0.00000000 1.00000000 / 255 255 255 255 / -0.85810180 -0.66538990
				-30.11322000 4.78303500 -17.57372000 / 0.00000000 0.00000000 1.00000000 / 255 255 255 255 / 3.50290500 -1.38267800
				-30.17915000 4.91253300 -17.57372000 / 0.00000000 0.00000000 1.00000000 / 255 255 255 255 / 3.34338000 -1.35635500
				-30.17915000 4.91253300 -17.57372000 / 0.00000000 0.00000000 1.00000000 / 255 255 255 255 / 3.34338000 -1.35635500
				-30.17915000 4.91253300 -17.57372000 / 0.00000000 0.00000000 1.00000000 / 255 255 255 255 / 3.34338000 -1.35635500
				-30.17915000 4.91253300 -17.57372000 / 0.00000000 0.00000000 1.00000000 / 255 255 255 255 / 3.34338000 -1.35635500
				-30.17915000 4.91253300 -17.57372000 / 0.00000000 0.00000000 1.00000000 / 255 255 255 255 / 3.34338000 -1.35635500
				-30.01693000 4.99750600 -17.57372000 / 0.00000000 0.00000000 1.00000000 / 255 255 255 255 / 3.21980400 -1.38295800
				-31.86615000 8.18370100 -17.57372000 / 0.00000000 0.00000000 1.00000000 / 255 255 255 255 / -0.70411030 -0.69077910
				-31.74683000 8.39821400 -17.57372000 / 0.00000000 0.00000000 1.00000000 / 255 255 255 255 / -0.98937480 -0.69597180
				-31.86615000 8.18370100 -17.57372000 / 0.00000000 0.00000000 1.00000000 / 255 255 255 255 / -0.70411030 -0.69077910
				-31.86615000 8.18370100 -17.57372000 / 0.00000000 0.00000000 1.00000000 / 255 255 255 255 / -0.70411030 -0.69077910
				-31.86615000 8.18370100 -17.57372000 / 0.00000000 0.00000000 1.00000000 / 255 255 255 255 / -0.70411030 -0.69077910
				-36.66649000 6.04268500 -17.57371000 / 0.00000000 -0.00004770 1.00000000 / 255 255 255 255 / 3.31400100 0.29973230
				-36.66649000 6.04268500 -17.57371000 / 0.00000000 0.00000000 1.00000000 / 255 255 255 255 / 3.31400100 0.29973230
				-29.95108000 4.86234300 -17.57372000 / 0.00000000 0.00000000 1.00000000 / 255 255 255 255 / 3.38659600 -1.40980000
				-29.95108000 4.86234300 -17.57372000 / 0.00000000 0.00000000 1.00000000 / 255 255 255 255 / 3.38659600 -1.40980000
				-34.76680000 2.56465400 -17.57372000 / 0.00000000 -0.00004770 1.00000000 / 255 255 255 255 / 7.68996800 -0.41409500
				-30.01693000 4.99750600 -17.57372000 / 0.00000000 0.00000000 1.00000000 / 255 255 255 255 / 3.21980400 -1.38295800
				-31.92970000 8.30869100 -17.57372000 / 0.00000000 0.00000000 1.00000000 / 255 255 255 255 / -0.85810180 -0.66538990
				-34.80581000 2.64549100 -17.57371000 / 0.00000000 -0.00004770 1.00000000 / 255 255 255 255 / 7.59018000 -0.39812110
				-36.61458000 5.93575500 -17.57372000 / 0.00000000 -0.00004770 1.00000000 / 255 255 255 255 / 3.44595300 0.27853690
				-34.80581000 2.64549100 -17.57371000 / 0.00000000 0.00000000 1.00000000 / 255 255 255 255 / 7.59018000 -0.39812110
				-31.68597000 8.27394600 -17.57372000 / 0.00000000 0.00000000 1.00000000 / 255 255 255 255 / -0.83607990 -0.72071780
				-31.68597000 8.27394600 -17.57372000 / 0.00000000 0.00000000 1.00000000 / 255 255 255 255 / -0.83607990 -0.72071780
				-31.68597000 8.27394600 -17.57372000 / 0.00000000 0.00000000 1.00000000 / 255 255 255 255 / -0.83607990 -0.72071780
			}
		}
		Geometry
		{
			ShaderIndex 16
			Flags -
			VertexDeclaration N51263BB5
			Indices 6
			{
				1 0 3 4 5 2
			}
			Vertices 6
			{
				-34.80581000 2.64549100 -17.57371000 / 0.00000000 0.00000000 1.00000000 / 255 255 255 255 / 4.12402000 -4.00000000 / -0.90274040 -0.43018590 0.00000000 1.00000000
				-36.61458000 5.93575500 -17.57372000 / 0.00000000 0.00000000 1.00000000 / 255 255 255 255 / 4.12765900 0.00000000 / -0.90274040 -0.43018590 0.00000000 1.00000000
				-36.61458000 5.93575500 -17.57372000 / 0.00000000 0.00000000 1.00000000 / 255 255 255 255 / 4.12765900 0.00000000 / -0.90215680 -0.43140820 0.00000000 1.00000000
				-30.17915000 4.91253300 -17.57372000 / 0.00000000 0.00000000 1.00000000 / 255 255 255 255 / -0.12765960 -3.93999600 / -0.90274040 -0.43018590 0.00000000 1.00000000
				-30.17915000 4.91253300 -17.57372000 / 0.00000000 0.00000000 1.00000000 / 255 255 255 255 / -0.12765960 -3.93999600 / -0.90215680 -0.43140820 0.00000000 1.00000000
				-31.86615000 8.18370100 -17.57372000 / 0.00000000 0.00000000 1.00000000 / 255 255 255 255 / -0.11196160 -0.02184300 / -0.90215680 -0.43140820 0.00000000 1.00000000
			}
		}
	}
}
