Version 165 32
{
	Locked False
	Skinned False
	BoneCount 0
	Mask 255
	Bounds
	{
		Aabb
		{
			Min -38.29395000 -5.30810500 -12.51563000
			Max -8.11425800 24.97656000 -11.86719000
		}
		Aabb
		{
			Min -35.05420000 -2.37158200 -12.44482000
			Max -11.13086000 23.02588000 -11.86719000
		}
		Aabb
		{
			Min -38.29395000 -5.30810500 -12.51563000
			Max -8.11425800 24.97656000 -11.88281000
		}
		Aabb
		{
			Min -37.97022000 -4.89648400 -12.51563000
			Max -8.60351600 24.47363000 -11.88281000
		}
	}
	Geometries
	{
		Geometry
		{
			ShaderIndex 0
			Flags -
			VertexDeclaration N51263BB5
			Indices 66
			{
				0 25 50 52 2 5 8 10 12 16 17 9 19 48 39
				60 18 23 24 29 30 32 35 26 36 54 51 6 40 38
				41 13 58 55 14 43 31 46 20 61 21 45 37 27 64
				53 49 28 56 42 7 33 34 47 57 62 11 22 44 59
				3 63 65 1 4 15
			}
			Vertices 66
			{
				-34.23242000 15.88574000 -11.86719000 / 0.89104370 0.45391350 0.00190720 / 42 141 11 255 / 6.59693900 2.02128600 / -0.45391440 0.89104530 0.00000020 1.00000000
				-25.96387000 -2.37109400 -12.44482000 / -0.89093690 -0.45412320 -0.00190740 / 42 141 11 255 / -1.03271500 2.16568000 / 0.45412390 -0.89093850 0.00000030 1.00000000
				-34.23145000 15.88623000 -12.44385000 / 0.89104370 0.45391350 0.00190720 / 42 141 11 255 / 6.59704600 2.16537500 / -0.45391440 0.89104530 0.00000020 1.00000000
				-30.83057000 7.17822300 -11.86865000 / -0.89096630 -0.45406670 -0.00162130 / 42 141 11 255 / -3.42009000 2.02160600 / 0.45406720 -0.89096740 0.00000010 1.00000000
				-25.96484000 -2.37158200 -11.86865000 / -0.89093690 -0.45412320 -0.00190740 / 42 141 11 255 / -1.03259300 2.02160600 / 0.45412390 -0.89093850 0.00000030 1.00000000
				-34.23242000 15.88574000 -11.86719000 / 0.89104370 0.45391350 0.00190720 / 42 141 11 255 / 6.59693900 2.02128600 / -0.45391440 0.89104530 0.00000020 1.00000000
				-11.28711000 5.49658200 -12.44385000 / 0.89100470 0.45399000 0.00190730 / 42 141 11 255 / 3.99961900 2.16537500 / -0.45399080 0.89100640 0.00000000 1.00000000
				-35.05322000 15.46729000 -12.44482000 / 0.00076290 0.00047680 -0.99999960 / 42 141 11 255 / 9.77360600 -5.49237100 / -0.99999960 0.00048970 -0.00076270 1.00000000
				-28.40918000 18.85254000 -11.86719000 / 0.89100440 0.45399070 0.00190750 / 42 141 11 255 / 7.33866900 2.02128600 / -0.45399150 0.89100600 0.00000000 1.00000000
				-28.40918000 18.85254000 -11.86719000 / 0.89100440 0.45399070 0.00190750 / 42 141 11 255 / 7.33866900 2.02128600 / -0.45399150 0.89100600 0.00000000 1.00000000
				-19.32031000 1.01416000 -11.86719000 / 0.89093200 0.45413260 0.00190740 / 42 141 11 255 / 2.87899800 2.02128600 / -0.45413350 0.89093370 -0.00000030 1.00000000
				-35.05322000 15.46729000 -12.44482000 / -0.89104370 -0.45391350 -0.00190720 / 42 141 11 255 / -5.49237100 2.16568000 / 0.45391440 -0.89104530 -0.00000020 1.00000000
				-19.31934000 1.01464800 -12.44385000 / 0.89093200 0.45413260 0.00190740 / 42 141 11 255 / 2.87912000 2.16537500 / -0.45413350 0.89093370 -0.00000030 1.00000000
				-21.04053000 22.60693000 -12.44482000 / -0.89100440 -0.45399070 -0.00190750 / 42 141 11 255 / -7.27728300 2.16568000 / 0.45399150 -0.89100600 0.00000000 1.00000000
				-11.95264000 4.76806700 -11.86865000 / -0.89100470 -0.45399000 -0.00190730 / 42 141 11 255 / -2.81750500 2.02160600 / 0.45399080 -0.89100640 0.00000000 1.00000000
				-30.83057000 7.17822300 -11.86865000 / -0.89096580 -0.45406640 -0.00190740 / 42 141 11 255 / -3.42009000 2.02160600 / 0.45406720 -0.89096740 0.00000020 1.00000000
				-19.31934000 1.01464800 -12.44385000 / 0.89093200 0.45413260 0.00190740 / 42 141 11 255 / 2.87912000 2.16537500 / -0.45413350 0.89093370 -0.00000030 1.00000000
				-28.40820000 18.85303000 -12.44385000 / 0.89100440 0.45399070 0.00190750 / 42 141 11 255 / 7.33877600 2.16537500 / -0.45399150 0.89100600 0.00000000 1.00000000
				-20.14209000 0.59521480 -11.86865000 / -0.89093450 -0.45412790 -0.00190740 / 42 141 11 255 / -1.77432200 2.02160600 / 0.45412870 -0.89093610 0.00000030 1.00000000
				-29.23096000 18.43408000 -11.86865000 / -0.89100440 -0.45399070 -0.00190750 / 42 141 11 255 / -6.23397800 2.02160600 / 0.45399150 -0.89100610 0.00000000 1.00000000
				-21.04053000 22.60693000 -12.44482000 / 0.00095370 0.00057220 -0.99999950 / 42 141 11 255 / 6.27052300 -7.27728300 / -0.99999950 -0.00006650 -0.00095370 1.00000000
				-20.21875000 23.02588000 -12.44385000 / 0.00095370 0.00057220 -0.99999950 / 42 141 11 255 / 6.06506400 -7.38195800 / -0.99999950 -0.00024450 -0.00095380 1.00000000
				-35.05322000 15.46729000 -12.44482000 / -0.89104420 -0.45391380 -0.00162110 / 42 141 11 255 / -5.49237100 2.16568000 / 0.45391440 -0.89104530 -0.00000020 1.00000000
				-29.23096000 18.43408000 -11.86865000 / -0.89100440 -0.45399070 -0.00190750 / 42 141 11 255 / -6.23397800 2.02160600 / 0.45399150 -0.89100610 0.00000000 1.00000000
				-19.31934000 1.01464800 -12.44385000 / 0.00095370 0.00047680 -0.99999950 / 42 141 11 255 / 5.84013400 -1.87912000 / -0.99999950 -0.00023120 -0.00095380 1.00000000
				-25.14307000 -1.95312500 -11.86719000 / 0.89093200 0.45413260 0.00190740 / 42 141 11 255 / 2.13728300 2.02128600 / -0.45413350 0.89093360 -0.00000030 1.00000000
				-19.31934000 1.01464800 -12.44385000 / 0.00095370 0.00047680 -0.99999950 / 42 141 11 255 / 5.84013400 -1.87912000 / -0.99999950 0.00023220 -0.00095350 1.00000000
				-25.96387000 -2.37109400 -12.44482000 / 0.00076290 0.00040530 -0.99999960 / 42 141 11 255 / 7.50129700 -1.03271500 / -0.99999970 -0.00020640 -0.00076300 1.00000000
				-30.82031000 7.16015600 -12.44482000 / 0.00114440 0.00057220 -0.99999920 / 42 141 11 255 / 8.71539300 -3.41552700 / -0.99999900 0.00080770 -0.00114390 1.00000000
				-20.14111000 0.59570310 -12.44482000 / 0.00095370 0.00047680 -0.99999950 / 42 141 11 255 / 6.04557800 -1.77444500 / -0.99999950 -0.00023120 -0.00095380 1.00000000
				-29.22998000 18.43457000 -12.44482000 / 0.00095370 0.00057220 -0.99999950 / 42 141 11 255 / 8.31788700 -6.23410000 / -0.99999950 -0.00023120 -0.00095380 1.00000000
				-11.28711000 5.49658200 -12.44385000 / 0.00095370 0.00047680 -0.99999950 / 42 141 11 255 / 3.83215300 -2.99961900 / -0.99999950 -0.00006650 -0.00095370 1.00000000
				-29.22998000 18.43457000 -12.44482000 / 0.00095370 0.00057220 -0.99999950 / 42 141 11 255 / 8.31788700 -6.23410000 / -0.99999950 0.00023220 -0.00095350 1.00000000
				-25.14209000 -1.95263700 -12.44385000 / 0.00095370 0.00047680 -0.99999950 / 42 141 11 255 / 7.29583800 -1.13739000 / -0.99999950 -0.00022640 -0.00095380 1.00000000
				-35.05322000 15.46729000 -12.44482000 / 0.00076290 0.00047680 -0.99999960 / 42 141 11 255 / 9.77360600 -5.49237100 / -0.99999970 -0.00022650 -0.00076300 1.00000000
				-28.40820000 18.85303000 -12.44385000 / 0.00095370 0.00057220 -0.99999950 / 42 141 11 255 / 8.11244200 -6.33877600 / -0.99999950 0.00023220 -0.00095350 1.00000000
				-20.21973000 23.02539000 -11.86719000 / 0.89100290 0.45398990 0.00267050 / 42 141 11 255 / 8.38185100 2.02128600 / -0.45399150 0.89100600 0.00000000 1.00000000
				-25.49072000 -2.12988300 -12.44434000 / 0.00076290 0.00040530 -0.99999960 / 42 141 11 255 / 7.38301100 -1.09298700 / -0.99999970 -0.00020640 -0.00076300 1.00000000
				-20.21973000 23.02539000 -11.86719000 / 0.89100440 0.45399070 0.00190750 / 42 141 11 255 / 8.38185100 2.02128600 / -0.45399150 0.89100600 0.00000000 1.00000000
				-20.14111000 0.59570310 -12.44482000 / -0.89093450 -0.45412790 -0.00190740 / 42 141 11 255 / -1.77444500 2.16568000 / 0.45412870 -0.89093610 0.00000030 1.00000000
				-20.21875000 23.02588000 -12.44385000 / 0.89100440 0.45399070 0.00190750 / 42 141 11 255 / 8.38195800 2.16537500 / -0.45399150 0.89100600 0.00000000 1.00000000
				-21.04150000 22.60645000 -11.86865000 / -0.89100440 -0.45399070 -0.00190750 / 42 141 11 255 / -7.27716000 2.02160600 / 0.45399150 -0.89100600 0.00000000 1.00000000
				-30.82031000 7.16015600 -12.44482000 / 0.00095370 0.00047680 -0.99999950 / 42 141 11 255 / 8.71539300 -3.41552700 / -0.99999940 0.00048980 -0.00095340 1.00000000
				-21.04150000 22.60645000 -11.86865000 / -0.89100440 -0.45399070 -0.00190750 / 42 141 11 255 / -7.27716000 2.02160600 / 0.45399150 -0.89100600 0.00000000 1.00000000
				-30.82031000 7.16015600 -12.44482000 / -0.89096630 -0.45406670 -0.00162130 / 42 141 11 255 / -3.41552700 2.16568000 / 0.45406730 -0.89096740 0.00000000 1.00000000
				-11.28711000 5.49658200 -12.44385000 / 0.00095370 0.00047680 -0.99999950 / 42 141 11 255 / 3.83215300 -2.99961900 / -0.99999950 -0.00024450 -0.00095380 1.00000000
				-11.95166000 4.76855500 -12.44482000 / 0.00095370 0.00047680 -0.99999950 / 42 141 11 255 / 3.99821500 -2.81762700 / -0.99999950 -0.00006650 -0.00095370 1.00000000
				-34.23145000 15.88623000 -12.44385000 / 0.00076290 0.00047680 -0.99999960 / 42 141 11 255 / 9.56814600 -5.59704600 / -0.99999970 -0.00022650 -0.00076300 1.00000000
				-29.22998000 18.43457000 -12.44482000 / -0.89100440 -0.45399070 -0.00190750 / 42 141 11 255 / -6.23410000 2.16568000 / 0.45399150 -0.89100610 0.00000000 1.00000000
				-25.49072000 -2.12988300 -12.44434000 / 0.00114440 0.00059600 -0.99999920 / 42 141 11 255 / 7.38301100 -1.09298700 / -0.99999900 0.00080770 -0.00114390 1.00000000
				-25.14209000 -1.95263700 -12.44385000 / 0.89093200 0.45413260 0.00190740 / 42 141 11 255 / 2.13739000 2.16537500 / -0.45413350 0.89093360 -0.00000030 1.00000000
				-11.28711000 5.49658200 -12.44385000 / 0.89102240 0.45395130 0.00267030 / 42 141 11 255 / 3.99961900 2.16537500 / -0.45395300 0.89102570 0.00000000 1.00000000
				-25.14209000 -1.95263700 -12.44385000 / 0.89093200 0.45413260 0.00190740 / 42 141 11 255 / 2.13739000 2.16537500 / -0.45413350 0.89093370 -0.00000030 1.00000000
				-25.14209000 -1.95263700 -12.44385000 / 0.00114440 0.00058410 -0.99999920 / 42 141 11 255 / 7.29583800 -1.13739000 / -0.99999900 0.00080770 -0.00114390 1.00000000
				-11.13086000 5.18652300 -11.86719000 / 0.89102240 0.45395130 0.00267030 / 42 141 11 255 / 3.92218000 2.02128600 / -0.45395300 0.89102570 0.00000000 1.00000000
				-11.95166000 4.76855500 -12.44482000 / -0.89100470 -0.45399000 -0.00190730 / 42 141 11 255 / -2.81762700 2.16568000 / 0.45399080 -0.89100640 0.00000000 1.00000000
				-25.14209000 -1.95263700 -12.44385000 / 0.00095370 0.00047680 -0.99999950 / 42 141 11 255 / 7.29583800 -1.13739000 / -0.99999940 0.00048980 -0.00095340 1.00000000
				-30.83057000 7.17822300 -11.86865000 / -0.89096580 -0.45406640 -0.00190740 / 42 141 11 255 / -3.42009000 2.02160600 / 0.45406720 -0.89096740 0.00000000 1.00000000
				-11.95166000 4.76855500 -12.44482000 / -0.89100470 -0.45399000 -0.00190730 / 42 141 11 255 / -2.81762700 2.16568000 / 0.45399080 -0.89100640 0.00000000 1.00000000
				-30.83057000 7.17822300 -11.86865000 / -0.89096630 -0.45406670 -0.00162130 / 42 141 11 255 / -3.42009000 2.02160600 / 0.45406730 -0.89096740 0.00000000 1.00000000
				-20.14111000 0.59570310 -12.44482000 / -0.89093450 -0.45412790 -0.00190740 / 42 141 11 255 / -1.77444500 2.16568000 / 0.45412870 -0.89093610 0.00000030 1.00000000
				-21.04053000 22.60693000 -12.44482000 / 0.00095370 0.00057220 -0.99999950 / 42 141 11 255 / 6.27052300 -7.27728300 / -0.99999950 -0.00024450 -0.00095380 1.00000000
				-35.05420000 15.46680000 -11.86865000 / -0.89104370 -0.45391350 -0.00190720 / 42 141 11 255 / -5.49224900 2.02160600 / 0.45391440 -0.89104530 -0.00000020 1.00000000
				-30.82031000 7.16015600 -12.44482000 / -0.89096630 -0.45406670 -0.00162130 / 42 141 11 255 / -3.41552700 2.16568000 / 0.45406720 -0.89096740 0.00000010 1.00000000
				-30.82031000 7.16015600 -12.44482000 / 0.00076290 0.00042910 -0.99999960 / 42 141 11 255 / 8.71539300 -3.41552700 / -0.99999970 -0.00020640 -0.00076300 1.00000000
				-25.96387000 -2.37109400 -12.44482000 / -0.89093740 -0.45412340 -0.00162130 / 42 141 11 255 / -1.03271500 2.16568000 / 0.45412390 -0.89093850 0.00000020 1.00000000
			}
		}
		Geometry
		{
			ShaderIndex 1
			Flags -
			VertexDeclaration N209731BE
			Indices 246
			{
				139 140 142 143 141 145 146 148 144 149 147 151 152 154 150
				155 153 157 158 160 156 161 159 163 164 166 162 167 165 169
				170 173 168 175 174 171 172 179 176 177 180 181 182 185 178
				187 186 183 184 191 188 189 192 194 193 197 195 196 198 190
				199 201 204 205 210 200 218 206 202 203 215 219 226 220 216
				217 224 227 228 225 232 221 229 235 236 241 222 207 223 242
				243 244 208 211 209 245 0 1 212 213 2 3 4 6 214
				7 5 9 10 12 8 13 11 15 16 19 14 21 20 17
				18 26 22 29 23 27 28 35 30 24 31 38 39 41 25
				42 32 36 37 48 43 51 40 33 34 44 52 54 53 45
				46 57 55 58 47 49 50 63 59 66 56 60 69 61 64
				62 70 67 65 75 71 78 68 72 80 73 76 74 81 79
				77 84 82 87 83 85 86 91 88 89 92 93 94 97 90
				98 95 101 96 99 104 102 105 100 106 103 107 109 108 111
				112 114 110 115 113 117 118 120 116 121 119 123 124 126 122
				127 125 130 131 133 128 239 129 134 135 132 237 136 233 240
				238 230 137 234 138 231
			}
			Vertices 246
			{
				-35.24268000 4.48974600 -12.51563000 / 0.00000000 0.00000000 -1.00000000 / 42 141 11 255 / -2.95620700 6.03630100
				-32.15674000 -1.64599600 -12.51563000 / 0.00000000 0.00000000 -1.00000000 / 42 141 11 255 / -5.00145000 5.00772100
				-32.15674000 -1.64599600 -12.51563000 / 0.00000000 0.00000000 -1.00000000 / 42 141 11 255 / -5.00145000 5.00772100
				-30.47070000 -4.89648400 -12.51563000 / 0.00000000 0.00000000 -1.00000000 / 42 141 11 255 / -6.08491500 4.44570900
				-30.47070000 -4.89648400 -12.51563000 / 0.00000000 0.00000000 -1.00000000 / 42 141 11 255 / -6.08491500 4.44570900
				-30.47070000 -4.89648400 -12.51563000 / 0.00000000 0.00000000 -1.00000000 / 42 141 11 255 / -6.08491500 4.44570900
				-30.41260000 -5.30810500 -12.51563000 / 0.00000000 0.00000000 -1.00000000 / 42 141 11 255 / -6.22210700 4.42634600
				-30.41260000 -5.30810500 -12.51563000 / 0.00000000 0.00000000 -1.00000000 / 42 141 11 255 / -6.22210700 4.42634600
				-30.41260000 -5.30810500 -12.51563000 / 0.00000000 0.00000000 -1.00000000 / 42 141 11 255 / -6.22210700 4.42634600
				-8.60351600 7.67187500 -12.51563000 / 0.00000000 0.00000000 -1.00000000 / 42 141 11 255 / -1.89550800 -2.84341400
				-8.60351600 7.67187500 -12.51563000 / 0.00000000 0.00000000 -1.00000000 / 42 141 11 255 / -1.89550800 -2.84341400
				-8.60351600 7.67187500 -12.51563000 / 0.00000000 0.00000000 -1.00000000 / 42 141 11 255 / -1.89550800 -2.84341400
				-8.11425800 7.47998000 -12.51563000 / 0.00000000 0.00000000 -1.00000000 / 42 141 11 255 / -1.95948800 -3.00647000
				-8.11425800 7.47998000 -12.51563000 / 0.00000000 0.00000000 -1.00000000 / 42 141 11 255 / -1.95948800 -3.00647000
				-8.11425800 7.47998000 -12.51563000 / 0.00000000 0.00000000 -1.00000000 / 42 141 11 255 / -1.95948800 -3.00647000
				-17.19824000 24.47363000 -12.51563000 / 0.00000000 0.00000000 -1.00000000 / 42 141 11 255 / 3.70517000 0.02156070
				-17.19824000 24.47363000 -12.51563000 / 0.00000000 0.00000000 -1.00000000 / 42 141 11 255 / 3.70517000 0.02156070
				-17.19824000 24.47363000 -12.51563000 / 0.00000000 0.00000000 -1.00000000 / 42 141 11 255 / 3.70517000 0.02156070
				-17.19824000 24.47363000 -12.51563000 / 0.00000000 0.00000000 -1.00000000 / 42 141 11 255 / 3.70517000 0.02156070
				-17.02930000 24.97656000 -12.51563000 / 0.00000000 0.00000000 -1.00000000 / 42 141 11 255 / 3.87275700 -0.03479000
				-17.02930000 24.97656000 -12.51563000 / 0.00000000 0.00000000 -1.00000000 / 42 141 11 255 / 3.87275700 -0.03479000
				-17.82471000 24.57080000 -12.51563000 / 0.00000000 0.00000000 -1.00000000 / 42 141 11 255 / 3.73745700 0.23025510
				-17.82471000 24.57080000 -12.51563000 / 0.00000000 0.00000000 -1.00000000 / 42 141 11 255 / 3.73745700 0.23025510
				-17.82471000 24.57080000 -12.51563000 / 0.00000000 0.00000000 -1.00000000 / 42 141 11 255 / 3.73745700 0.23025510
				-17.82471000 24.57080000 -12.51563000 / 0.00000000 0.00000000 -1.00000000 / 42 141 11 255 / 3.73745700 0.23025510
				-17.82471000 24.57080000 -12.51563000 / 0.00000000 0.00000000 -1.00000000 / 42 141 11 255 / 3.73745700 0.23025510
				-17.65332000 24.23096000 -12.51563000 / 0.00000000 0.00000000 -1.00000000 / 42 141 11 255 / 3.62425200 0.17326360
				-17.65332000 24.23096000 -12.51563000 / 0.00000000 0.00000000 -1.00000000 / 42 141 11 255 / 3.62425200 0.17326360
				-17.65332000 24.23096000 -12.51563000 / 0.00000000 0.00000000 -1.00000000 / 42 141 11 255 / 3.62425200 0.17326360
				-31.82324000 17.34668000 -12.51563000 / 0.00000000 0.00000000 -1.00000000 / 42 141 11 255 / 1.32948300 4.89657600
				-31.82324000 17.34668000 -12.51563000 / 0.00000000 0.00000000 -1.00000000 / 42 141 11 255 / 1.32948300 4.89657600
				-31.82324000 17.34668000 -12.51563000 / 0.00000000 0.00000000 -1.00000000 / 42 141 11 255 / 1.32948300 4.89657600
				-31.82324000 17.34668000 -12.51563000 / 0.00000000 0.00000000 -1.00000000 / 42 141 11 255 / 1.32948300 4.89657600
				-31.82324000 17.34668000 -12.51563000 / 0.00000000 0.00000000 -1.00000000 / 42 141 11 255 / 1.32948300 4.89657600
				-31.82324000 17.34668000 -12.51563000 / 0.00000000 0.00000000 -1.00000000 / 42 141 11 255 / 1.32948300 4.89657600
				-31.67578000 17.05518000 -12.51563000 / 0.00000000 0.00000000 -1.00000000 / 42 141 11 255 / 1.23226900 4.84736600
				-31.67578000 17.05518000 -12.51563000 / 0.00000000 0.00000000 -1.00000000 / 42 141 11 255 / 1.23226900 4.84736600
				-31.67578000 17.05518000 -12.51563000 / 0.00000000 0.00000000 -1.00000000 / 42 141 11 255 / 1.23226900 4.84736600
				-31.97510000 17.63672000 -12.51563000 / 0.00000000 0.00000000 -1.00000000 / 42 141 11 255 / 1.42613200 4.94709800
				-31.97510000 17.63672000 -12.51563000 / 0.00000000 0.00000000 -1.00000000 / 42 141 11 255 / 1.42613200 4.94709800
				-31.97510000 17.63672000 -12.51563000 / 0.00000000 0.00000000 -1.00000000 / 42 141 11 255 / 1.42613200 4.94709800
				-17.93359000 24.78272000 -12.51563000 / 0.00000000 0.00000000 -1.00000000 / 42 141 11 255 / 3.80807500 0.26663210
				-32.83789000 16.82471000 -12.51563000 / 0.00000000 0.00000000 -1.00000000 / 42 141 11 255 / 1.15542600 5.23469500
				-32.83789000 16.82471000 -12.51563000 / 0.00000000 0.00000000 -1.00000000 / 42 141 11 255 / 1.15542600 5.23469500
				-32.83789000 16.82471000 -12.51563000 / 0.00000000 0.00000000 -1.00000000 / 42 141 11 255 / 1.15542600 5.23469500
				-32.83789000 16.82471000 -12.51563000 / 0.00000000 0.00000000 -1.00000000 / 42 141 11 255 / 1.15542600 5.23469500
				-32.83789000 16.82471000 -12.51563000 / 0.00000000 0.00000000 -1.00000000 / 42 141 11 255 / 1.15542600 5.23469500
				-32.83789000 16.82471000 -12.51563000 / 0.00000000 0.00000000 -1.00000000 / 42 141 11 255 / 1.15542600 5.23469500
				-32.69190000 16.53369000 -12.51563000 / 0.00000000 0.00000000 -1.00000000 / 42 141 11 255 / 1.05842600 5.18600500
				-32.69190000 16.53369000 -12.51563000 / 0.00000000 0.00000000 -1.00000000 / 42 141 11 255 / 1.05842600 5.18600500
				-32.69190000 16.53369000 -12.51563000 / 0.00000000 0.00000000 -1.00000000 / 42 141 11 255 / 1.05842600 5.18600500
				-32.98975000 17.11328000 -12.51563000 / 0.00000000 0.00000000 -1.00000000 / 42 141 11 255 / 1.25166300 5.28543100
				-32.98975000 17.11328000 -12.51563000 / 0.00000000 0.00000000 -1.00000000 / 42 141 11 255 / 1.25166300 5.28543100
				-32.98975000 17.11328000 -12.51563000 / 0.00000000 0.00000000 -1.00000000 / 42 141 11 255 / 1.25166300 5.28543100
				-33.99072000 16.59180000 -12.51563000 / 0.00000000 0.00000000 -1.00000000 / 42 141 11 255 / 1.07782000 5.61904900
				-33.99072000 16.59180000 -12.51563000 / 0.00000000 0.00000000 -1.00000000 / 42 141 11 255 / 1.07782000 5.61904900
				-33.99072000 16.59180000 -12.51563000 / 0.00000000 0.00000000 -1.00000000 / 42 141 11 255 / 1.07782000 5.61904900
				-33.84668000 16.29932000 -12.51563000 / 0.00000000 0.00000000 -1.00000000 / 42 141 11 255 / 0.98033140 5.57098400
				-33.84668000 16.29932000 -12.51563000 / 0.00000000 0.00000000 -1.00000000 / 42 141 11 255 / 0.98033140 5.57098400
				-33.84668000 16.29932000 -12.51563000 / 0.00000000 0.00000000 -1.00000000 / 42 141 11 255 / 0.98033140 5.57098400
				-33.84668000 16.29932000 -12.51563000 / 0.00000000 0.00000000 -1.00000000 / 42 141 11 255 / 0.98033140 5.57098400
				-33.84668000 16.29932000 -12.51563000 / 0.00000000 0.00000000 -1.00000000 / 42 141 11 255 / 0.98033140 5.57098400
				-33.84668000 16.29932000 -12.51563000 / 0.00000000 0.00000000 -1.00000000 / 42 141 11 255 / 0.98033140 5.57098400
				-33.69043000 16.02002000 -12.51563000 / 0.00000000 0.00000000 -1.00000000 / 42 141 11 255 / 0.88716120 5.51889000
				-33.69043000 16.02002000 -12.51563000 / 0.00000000 0.00000000 -1.00000000 / 42 141 11 255 / 0.88716120 5.51889000
				-33.69043000 16.02002000 -12.51563000 / 0.00000000 0.00000000 -1.00000000 / 42 141 11 255 / 0.88716120 5.51889000
				-34.96777000 16.04932000 -12.51563000 / 0.00000000 0.00000000 -1.00000000 / 42 141 11 255 / 0.89695740 5.94465700
				-34.96777000 16.04932000 -12.51563000 / 0.00000000 0.00000000 -1.00000000 / 42 141 11 255 / 0.89695740 5.94465700
				-34.96777000 16.04932000 -12.51563000 / 0.00000000 0.00000000 -1.00000000 / 42 141 11 255 / 0.89695740 5.94465700
				-34.82129000 15.76172000 -12.51563000 / 0.00000000 0.00000000 -1.00000000 / 42 141 11 255 / 0.80119320 5.89588900
				-34.82129000 15.76172000 -12.51563000 / 0.00000000 0.00000000 -1.00000000 / 42 141 11 255 / 0.80119320 5.89588900
				-34.82129000 15.76172000 -12.51563000 / 0.00000000 0.00000000 -1.00000000 / 42 141 11 255 / 0.80119320 5.89588900
				-34.82129000 15.76172000 -12.51563000 / 0.00000000 0.00000000 -1.00000000 / 42 141 11 255 / 0.80119320 5.89588900
				-34.82129000 15.76172000 -12.51563000 / 0.00000000 0.00000000 -1.00000000 / 42 141 11 255 / 0.80119320 5.89588900
				-34.82129000 15.76172000 -12.51563000 / 0.00000000 0.00000000 -1.00000000 / 42 141 11 255 / 0.80119320 5.89588900
				-34.66651000 15.49463000 -12.51563000 / 0.00000000 0.00000000 -1.00000000 / 42 141 11 255 / 0.71209720 5.84423800
				-34.66651000 15.49463000 -12.51563000 / 0.00000000 0.00000000 -1.00000000 / 42 141 11 255 / 0.71209720 5.84423800
				-34.66651000 15.49463000 -12.51563000 / 0.00000000 0.00000000 -1.00000000 / 42 141 11 255 / 0.71209720 5.84423800
				-35.91162000 15.45703000 -12.51563000 / 0.00000000 0.00000000 -1.00000000 / 42 141 11 255 / 0.69953920 6.25929300
				-35.91162000 15.45703000 -12.51563000 / 0.00000000 0.00000000 -1.00000000 / 42 141 11 255 / 0.69953920 6.25929300
				-35.77100000 15.17285000 -12.51563000 / 0.00000000 0.00000000 -1.00000000 / 42 141 11 255 / 0.60481260 6.21238700
				-35.77100000 15.17285000 -12.51563000 / 0.00000000 0.00000000 -1.00000000 / 42 141 11 255 / 0.60481260 6.21238700
				-35.77100000 15.17285000 -12.51563000 / 0.00000000 0.00000000 -1.00000000 / 42 141 11 255 / 0.60481260 6.21238700
				-35.77100000 15.17285000 -12.51563000 / 0.00000000 0.00000000 -1.00000000 / 42 141 11 255 / 0.60481260 6.21238700
				-35.61816000 14.92627000 -12.51563000 / 0.00000000 0.00000000 -1.00000000 / 42 141 11 255 / 0.52268980 6.16143800
				-35.61816000 14.92627000 -12.51563000 / 0.00000000 0.00000000 -1.00000000 / 42 141 11 255 / 0.52268980 6.16143800
				-35.61816000 14.92627000 -12.51563000 / 0.00000000 0.00000000 -1.00000000 / 42 141 11 255 / 0.52268980 6.16143800
				-36.57324000 14.56104000 -12.51563000 / 0.00000000 0.00000000 -1.00000000 / 42 141 11 255 / 0.40089420 6.47981200
				-36.57324000 14.56104000 -12.51563000 / 0.00000000 0.00000000 -1.00000000 / 42 141 11 255 / 0.40089420 6.47981200
				-36.57324000 14.56104000 -12.51563000 / 0.00000000 0.00000000 -1.00000000 / 42 141 11 255 / 0.40089420 6.47981200
				-36.57324000 14.56104000 -12.51563000 / 0.00000000 0.00000000 -1.00000000 / 42 141 11 255 / 0.40089420 6.47981200
				-36.40234000 14.36230000 -12.51563000 / 0.00000000 0.00000000 -1.00000000 / 42 141 11 255 / 0.33468630 6.42289800
				-36.40234000 14.36230000 -12.51563000 / 0.00000000 0.00000000 -1.00000000 / 42 141 11 255 / 0.33468630 6.42289800
				-36.96680000 13.81836000 -12.51563000 / 0.00000000 0.00000000 -1.00000000 / 42 141 11 255 / 0.15327450 6.61099200
				-36.96680000 13.81836000 -12.51563000 / 0.00000000 0.00000000 -1.00000000 / 42 141 11 255 / 0.15327450 6.61099200
				-36.96680000 13.81836000 -12.51563000 / 0.00000000 0.00000000 -1.00000000 / 42 141 11 255 / 0.15327450 6.61099200
				-37.39209000 14.14062000 -12.51563000 / 0.00000000 0.00000000 -1.00000000 / 42 141 11 255 / 0.26074220 6.75283800
				-37.18213000 13.98047000 -12.51563000 / 0.00000000 0.00000000 -1.00000000 / 42 141 11 255 / 0.20745850 6.68280000
				-37.18213000 13.98047000 -12.51563000 / 0.00000000 0.00000000 -1.00000000 / 42 141 11 255 / 0.20745850 6.68280000
				-37.18213000 13.98047000 -12.51563000 / 0.00000000 0.00000000 -1.00000000 / 42 141 11 255 / 0.20745850 6.68280000
				-37.18213000 13.98047000 -12.51563000 / 0.00000000 0.00000000 -1.00000000 / 42 141 11 255 / 0.20745850 6.68280000
				-37.39941000 13.23877000 -12.51563000 / 0.00000000 0.00000000 -1.00000000 / 42 141 11 255 / -0.03982540 6.75529500
				-37.39941000 13.23877000 -12.51563000 / 0.00000000 0.00000000 -1.00000000 / 42 141 11 255 / -0.03982540 6.75529500
				-37.39941000 13.23877000 -12.51563000 / 0.00000000 0.00000000 -1.00000000 / 42 141 11 255 / -0.03982540 6.75529500
				-37.65137000 13.34180000 -12.51563000 / 0.00000000 0.00000000 -1.00000000 / 42 141 11 255 / -0.00546270 6.83926400
				-37.65137000 13.34180000 -12.51563000 / 0.00000000 0.00000000 -1.00000000 / 42 141 11 255 / -0.00546270 6.83926400
				-37.65137000 13.34180000 -12.51563000 / 0.00000000 0.00000000 -1.00000000 / 42 141 11 255 / -0.00546270 6.83926400
				-37.79980000 12.39990000 -12.51563000 / 0.00000000 0.00000000 -1.00000000 / 42 141 11 255 / -0.31954960 6.88873300
				-37.97022000 11.59473000 -12.51563000 / 0.00000000 0.00000000 -1.00000000 / 42 141 11 255 / -0.58789070 6.94551100
				-38.29395000 11.61621000 -12.51563000 / 0.00000000 0.00000000 -1.00000000 / 42 141 11 255 / -0.58070380 7.05343600
				-38.29395000 11.61621000 -12.51563000 / 0.00000000 0.00000000 -1.00000000 / 42 141 11 255 / -0.58070380 7.05343600
				-37.95703000 10.78613000 -12.51563000 / 0.00000000 0.00000000 -1.00000000 / 42 141 11 255 / -0.85742180 6.94108600
				-37.95703000 10.78613000 -12.51563000 / 0.00000000 0.00000000 -1.00000000 / 42 141 11 255 / -0.85742180 6.94108600
				-37.95703000 10.78613000 -12.51563000 / 0.00000000 0.00000000 -1.00000000 / 42 141 11 255 / -0.85742180 6.94108600
				-38.29346000 10.74170000 -12.51563000 / 0.00000000 0.00000000 -1.00000000 / 42 141 11 255 / -0.87217720 7.05322300
				-38.29346000 10.74170000 -12.51563000 / 0.00000000 0.00000000 -1.00000000 / 42 141 11 255 / -0.87217720 7.05322300
				-38.29346000 10.74170000 -12.51563000 / 0.00000000 0.00000000 -1.00000000 / 42 141 11 255 / -0.87217720 7.05322300
				-37.80176000 9.96630900 -12.51563000 / 0.00000000 0.00000000 -1.00000000 / 42 141 11 255 / -1.13064600 6.88934300
				-37.80176000 9.96630900 -12.51563000 / 0.00000000 0.00000000 -1.00000000 / 42 141 11 255 / -1.13064600 6.88934300
				-37.80176000 9.96630900 -12.51563000 / 0.00000000 0.00000000 -1.00000000 / 42 141 11 255 / -1.13064600 6.88934300
				-38.16504000 9.83251900 -12.51563000 / 0.00000000 0.00000000 -1.00000000 / 42 141 11 255 / -1.17524700 7.01037600
				-38.16504000 9.83251900 -12.51563000 / 0.00000000 0.00000000 -1.00000000 / 42 141 11 255 / -1.17524700 7.01037600
				-38.16504000 9.83251900 -12.51563000 / 0.00000000 0.00000000 -1.00000000 / 42 141 11 255 / -1.17524700 7.01037600
				-37.45508000 8.92822300 -12.51563000 / 0.00000000 0.00000000 -1.00000000 / 42 141 11 255 / -1.47666900 6.77386500
				-37.45508000 8.92822300 -12.51563000 / 0.00000000 0.00000000 -1.00000000 / 42 141 11 255 / -1.47666900 6.77386500
				-37.45508000 8.92822300 -12.51563000 / 0.00000000 0.00000000 -1.00000000 / 42 141 11 255 / -1.47666900 6.77386500
				-37.86182000 8.73730500 -12.51563000 / 0.00000000 0.00000000 -1.00000000 / 42 141 11 255 / -1.54026800 6.90937800
				-37.86182000 8.73730500 -12.51563000 / 0.00000000 0.00000000 -1.00000000 / 42 141 11 255 / -1.54026800 6.90937800
				-37.86182000 8.73730500 -12.51563000 / 0.00000000 0.00000000 -1.00000000 / 42 141 11 255 / -1.54026800 6.90937800
				-37.86182000 8.73730500 -12.51563000 / 0.00000000 0.00000000 -1.00000000 / 42 141 11 255 / -1.54026800 6.90937800
				-36.97363000 7.83300800 -12.51563000 / 0.00000000 0.00000000 -1.00000000 / 42 141 11 255 / -1.84173600 6.61326600
				-36.97363000 7.83300800 -12.51563000 / 0.00000000 0.00000000 -1.00000000 / 42 141 11 255 / -1.84173600 6.61326600
				-36.97363000 7.83300800 -12.51563000 / 0.00000000 0.00000000 -1.00000000 / 42 141 11 255 / -1.84173600 6.61326600
				-37.40234000 7.61084000 -12.51563000 / 0.00000000 0.00000000 -1.00000000 / 42 141 11 255 / -1.91584800 6.75625600
				-37.40234000 7.61084000 -12.51563000 / 0.00000000 0.00000000 -1.00000000 / 42 141 11 255 / -1.91584800 6.75625600
				-37.40234000 7.61084000 -12.51563000 / 0.00000000 0.00000000 -1.00000000 / 42 141 11 255 / -1.91584800 6.75625600
				-37.40234000 7.61084000 -12.51563000 / 0.00000000 0.00000000 -1.00000000 / 42 141 11 255 / -1.91584800 6.75625600
				-37.40234000 7.61084000 -12.51563000 / 0.00000000 0.00000000 -1.00000000 / 42 141 11 255 / -1.91584800 6.75625600
				-37.40234000 7.61084000 -12.51563000 / 0.00000000 0.00000000 -1.00000000 / 42 141 11 255 / -1.91584800 6.75625600
				-37.79980000 12.39990000 -11.88281000 / 0.00000000 0.00000000 -1.00000000 / 42 141 11 255 / -0.31954960 6.88873300
				-37.39941000 13.23877000 -11.88281000 / 0.00000000 0.00000000 -1.00000000 / 42 141 11 255 / -0.03982540 6.75529500
				-37.39941000 13.23877000 -11.88281000 / 0.00000000 0.00000000 -1.00000000 / 42 141 11 255 / -0.03982540 6.75529500
				-37.97022000 11.59473000 -11.88281000 / 0.00000000 0.00000000 -1.00000000 / 42 141 11 255 / -0.58789070 6.94551100
				-37.97022000 11.59473000 -11.88281000 / 0.00000000 0.00000000 -1.00000000 / 42 141 11 255 / -0.58789070 6.94551100
				-37.97022000 11.59473000 -11.88281000 / 0.00000000 0.00000000 -1.00000000 / 42 141 11 255 / -0.58789070 6.94551100
				-36.96680000 13.81836000 -11.88281000 / 0.00000000 0.00000000 -1.00000000 / 42 141 11 255 / 0.15327450 6.61099200
				-36.96680000 13.81836000 -11.88281000 / 0.00000000 0.00000000 -1.00000000 / 42 141 11 255 / 0.15327450 6.61099200
				-36.96680000 13.81836000 -11.88281000 / 0.00000000 0.00000000 -1.00000000 / 42 141 11 255 / 0.15327450 6.61099200
				-37.95703000 10.78613000 -11.88281000 / 0.00000000 0.00000000 -1.00000000 / 42 141 11 255 / -0.85742180 6.94108600
				-37.95703000 10.78613000 -11.88281000 / 0.00000000 0.00000000 -1.00000000 / 42 141 11 255 / -0.85742180 6.94108600
				-37.95703000 10.78613000 -11.88281000 / 0.00000000 0.00000000 -1.00000000 / 42 141 11 255 / -0.85742180 6.94108600
				-36.40234000 14.36230000 -11.88281000 / 0.00000000 0.00000000 -1.00000000 / 42 141 11 255 / 0.33468630 6.42289800
				-36.40234000 14.36230000 -11.88281000 / 0.00000000 0.00000000 -1.00000000 / 42 141 11 255 / 0.33468630 6.42289800
				-36.40234000 14.36230000 -11.88281000 / 0.00000000 0.00000000 -1.00000000 / 42 141 11 255 / 0.33468630 6.42289800
				-37.80176000 9.96630900 -11.88281000 / 0.00000000 0.00000000 -1.00000000 / 42 141 11 255 / -1.13064600 6.88934300
				-37.80176000 9.96630900 -11.88281000 / 0.00000000 0.00000000 -1.00000000 / 42 141 11 255 / -1.13064600 6.88934300
				-37.80176000 9.96630900 -11.88281000 / 0.00000000 0.00000000 -1.00000000 / 42 141 11 255 / -1.13064600 6.88934300
				-35.61816000 14.92627000 -11.88281000 / 0.00000000 0.00000000 -1.00000000 / 42 141 11 255 / 0.52268980 6.16145400
				-35.61816000 14.92627000 -11.88281000 / 0.00000000 0.00000000 -1.00000000 / 42 141 11 255 / 0.52268980 6.16145400
				-35.61816000 14.92627000 -11.88281000 / 0.00000000 0.00000000 -1.00000000 / 42 141 11 255 / 0.52268980 6.16145400
				-37.45508000 8.92822300 -11.88281000 / 0.00000000 0.00000000 -1.00000000 / 42 141 11 255 / -1.47665400 6.77386500
				-37.45508000 8.92822300 -11.88281000 / 0.00000000 0.00000000 -1.00000000 / 42 141 11 255 / -1.47665400 6.77386500
				-37.45508000 8.92822300 -11.88281000 / 0.00000000 0.00000000 -1.00000000 / 42 141 11 255 / -1.47665400 6.77386500
				-34.66651000 15.49463000 -11.88281000 / 0.00000000 0.00000000 -1.00000000 / 42 141 11 255 / 0.71209720 5.84423800
				-34.66651000 15.49463000 -11.88281000 / 0.00000000 0.00000000 -1.00000000 / 42 141 11 255 / 0.71209720 5.84423800
				-34.66651000 15.49463000 -11.88281000 / 0.00000000 0.00000000 -1.00000000 / 42 141 11 255 / 0.71209720 5.84423800
				-36.97363000 7.83300800 -11.88281000 / 0.00000000 0.00000000 -1.00000000 / 42 141 11 255 / -1.84173600 6.61326600
				-36.97363000 7.83300800 -11.88281000 / 0.00000000 0.00000000 -1.00000000 / 42 141 11 255 / -1.84173600 6.61326600
				-36.97363000 7.83300800 -11.88281000 / 0.00000000 0.00000000 -1.00000000 / 42 141 11 255 / -1.84173600 6.61326600
				-33.69043000 16.02002000 -11.88281000 / 0.00000000 0.00000000 -1.00000000 / 42 141 11 255 / 0.88716120 5.51890600
				-33.69043000 16.02002000 -11.88281000 / 0.00000000 0.00000000 -1.00000000 / 42 141 11 255 / 0.88716120 5.51890600
				-33.69043000 16.02002000 -11.88281000 / 0.00000000 0.00000000 -1.00000000 / 42 141 11 255 / 0.88716120 5.51890600
				-33.69043000 16.02002000 -11.88281000 / 0.00000000 0.00000000 -1.00000000 / 42 141 11 255 / 0.88716120 5.51890600
				-36.42334000 6.71777300 -11.88281000 / 0.00000000 0.00000000 -1.00000000 / 42 141 11 255 / -2.21344000 6.42991700
				-36.42334000 6.71777300 -11.88281000 / 0.00000000 0.00000000 -1.00000000 / 42 141 11 255 / -2.21344000 6.42991700
				-35.83008000 5.57128900 -11.88281000 / 0.00000000 0.00000000 -1.00000000 / 42 141 11 255 / -2.59571800 6.23214700
				-35.83008000 5.57128900 -11.88281000 / 0.00000000 0.00000000 -1.00000000 / 42 141 11 255 / -2.59571800 6.23214700
				-35.83008000 5.57128900 -11.88281000 / 0.00000000 0.00000000 -1.00000000 / 42 141 11 255 / -2.59571800 6.23214700
				-35.83008000 5.57128900 -11.88281000 / 0.00000000 0.00000000 -1.00000000 / 42 141 11 255 / -2.59571800 6.23214700
				-32.69190000 16.53369000 -11.88281000 / 0.00000000 0.00000000 -1.00000000 / 42 141 11 255 / 1.05842600 5.18600500
				-32.69190000 16.53369000 -11.88281000 / 0.00000000 0.00000000 -1.00000000 / 42 141 11 255 / 1.05842600 5.18600500
				-31.67578000 17.05518000 -11.88281000 / 0.00000000 0.00000000 -1.00000000 / 42 141 11 255 / 1.23226900 4.84738200
				-31.67578000 17.05518000 -11.88281000 / 0.00000000 0.00000000 -1.00000000 / 42 141 11 255 / 1.23226900 4.84738200
				-31.67578000 17.05518000 -11.88281000 / 0.00000000 0.00000000 -1.00000000 / 42 141 11 255 / 1.23226900 4.84738200
				-31.67578000 17.05518000 -11.88281000 / 0.00000000 0.00000000 -1.00000000 / 42 141 11 255 / 1.23226900 4.84738200
				-35.24268000 4.48974600 -11.88281000 / 0.00000000 0.00000000 -1.00000000 / 42 141 11 255 / -2.95620700 6.03630100
				-35.24268000 4.48974600 -11.88281000 / 0.00000000 0.00000000 -1.00000000 / 42 141 11 255 / -2.95620700 6.03630100
				-32.15674000 -1.64599600 -11.88281000 / 0.00000000 0.00000000 -1.00000000 / 42 141 11 255 / -5.00145000 5.00772100
				-32.15674000 -1.64599600 -11.88281000 / 0.00000000 0.00000000 -1.00000000 / 42 141 11 255 / -5.00145000 5.00772100
				-32.15674000 -1.64599600 -11.88281000 / 0.00000000 0.00000000 -1.00000000 / 42 141 11 255 / -5.00145000 5.00772100
				-32.15674000 -1.64599600 -11.88281000 / 0.00000000 0.00000000 -1.00000000 / 42 141 11 255 / -5.00145000 5.00772100
				-17.65332000 24.23096000 -11.88281000 / 0.00000000 0.00000000 -1.00000000 / 42 141 11 255 / 3.62425200 0.17326360
				-17.65332000 24.23096000 -11.88281000 / 0.00000000 0.00000000 -1.00000000 / 42 141 11 255 / 3.62425200 0.17326360
				-17.65332000 24.23096000 -11.88281000 / 0.00000000 0.00000000 -1.00000000 / 42 141 11 255 / 3.62425200 0.17326360
				-8.60351600 7.67187500 -11.88281000 / 0.00000000 0.00000000 -1.00000000 / 42 141 11 255 / -1.89550800 -2.84341400
				-8.60351600 7.67187500 -11.88281000 / 0.00000000 0.00000000 -1.00000000 / 42 141 11 255 / -1.89550800 -2.84341400
				-8.60351600 7.67187500 -11.88281000 / 0.00000000 0.00000000 -1.00000000 / 42 141 11 255 / -1.89550800 -2.84341400
				-17.19824000 24.47363000 -11.88281000 / 0.00000000 0.00000000 -1.00000000 / 42 141 11 255 / 3.70517000 0.02156070
				-30.47070000 -4.89648400 -11.88281000 / 0.00000000 0.00000000 -1.00000000 / 42 141 11 255 / -6.08491500 4.44570900
				-32.57178000 -1.85742200 -12.51563000 / 0.00000000 0.00000000 -1.00000000 / 42 141 11 255 / -5.07197600 5.14607200
				-32.57178000 -1.85742200 -12.51563000 / 0.00000000 0.00000000 -1.00000000 / 42 141 11 255 / -5.07197600 5.14607200
				-35.87354000 4.16455100 -12.51563000 / 0.00000000 0.00000000 -1.00000000 / 42 141 11 255 / -3.06454500 6.24667300
				-35.87354000 4.16455100 -12.51563000 / 0.00000000 0.00000000 -1.00000000 / 42 141 11 255 / -3.06454500 6.24667300
				-35.87354000 4.16455100 -12.51563000 / 0.00000000 0.00000000 -1.00000000 / 42 141 11 255 / -3.06454500 6.24667300
				-35.68848000 4.26025400 -12.51563000 / 0.00000000 0.00000000 -1.00000000 / 42 141 11 255 / -3.03276100 6.18493600
				-35.68848000 4.26025400 -12.51563000 / 0.00000000 0.00000000 -1.00000000 / 42 141 11 255 / -3.03276100 6.18493600
				-35.68848000 4.26025400 -12.51563000 / 0.00000000 0.00000000 -1.00000000 / 42 141 11 255 / -3.03276100 6.18493600
				-35.68848000 4.26025400 -12.51563000 / 0.00000000 0.00000000 -1.00000000 / 42 141 11 255 / -3.03276100 6.18493600
				-35.68848000 4.26025400 -12.51563000 / 0.00000000 0.00000000 -1.00000000 / 42 141 11 255 / -3.03276100 6.18493600
				-35.68848000 4.26025400 -12.51563000 / 0.00000000 0.00000000 -1.00000000 / 42 141 11 255 / -3.03276100 6.18493600
				-32.35938000 -1.74853500 -12.51563000 / 0.00000000 0.00000000 -1.00000000 / 42 141 11 255 / -5.03567500 5.07524100
				-32.35938000 -1.74853500 -12.51563000 / 0.00000000 0.00000000 -1.00000000 / 42 141 11 255 / -5.03567500 5.07524100
				-32.35938000 -1.74853500 -12.51563000 / 0.00000000 0.00000000 -1.00000000 / 42 141 11 255 / -5.03567500 5.07524100
				-32.35938000 -1.74853500 -12.51563000 / 0.00000000 0.00000000 -1.00000000 / 42 141 11 255 / -5.03567500 5.07524100
				-32.35938000 -1.74853500 -12.51563000 / 0.00000000 0.00000000 -1.00000000 / 42 141 11 255 / -5.03567500 5.07524100
				-36.44922000 5.25146500 -12.51563000 / 0.00000000 0.00000000 -1.00000000 / 42 141 11 255 / -2.70233200 6.43852200
				-36.44922000 5.25146500 -12.51563000 / 0.00000000 0.00000000 -1.00000000 / 42 141 11 255 / -2.70233200 6.43852200
				-36.44922000 5.25146500 -12.51563000 / 0.00000000 0.00000000 -1.00000000 / 42 141 11 255 / -2.70233200 6.43852200
				-36.27002000 5.34375000 -12.51563000 / 0.00000000 0.00000000 -1.00000000 / 42 141 11 255 / -2.67146300 6.37876900
				-36.27002000 5.34375000 -12.51563000 / 0.00000000 0.00000000 -1.00000000 / 42 141 11 255 / -2.67146300 6.37876900
				-36.27002000 5.34375000 -12.51563000 / 0.00000000 0.00000000 -1.00000000 / 42 141 11 255 / -2.67146300 6.37876900
				-36.27002000 5.34375000 -12.51563000 / 0.00000000 0.00000000 -1.00000000 / 42 141 11 255 / -2.67146300 6.37876900
				-36.27002000 5.34375000 -12.51563000 / 0.00000000 0.00000000 -1.00000000 / 42 141 11 255 / -2.67146300 6.37876900
				-36.27002000 5.34375000 -12.51563000 / 0.00000000 0.00000000 -1.00000000 / 42 141 11 255 / -2.67146300 6.37876900
				-37.03223000 6.39550800 -12.51563000 / 0.00000000 0.00000000 -1.00000000 / 42 141 11 255 / -2.32086200 6.63290400
				-37.03223000 6.39550800 -12.51563000 / 0.00000000 0.00000000 -1.00000000 / 42 141 11 255 / -2.32086200 6.63290400
				-36.85742000 6.48828100 -12.51563000 / 0.00000000 0.00000000 -1.00000000 / 42 141 11 255 / -2.29002400 6.57461600
				-36.85742000 6.48828100 -12.51563000 / 0.00000000 0.00000000 -1.00000000 / 42 141 11 255 / -2.29002400 6.57461600
				-36.85742000 6.48828100 -12.51563000 / 0.00000000 0.00000000 -1.00000000 / 42 141 11 255 / -2.29002400 6.57461600
				-36.85742000 6.48828100 -12.51563000 / 0.00000000 0.00000000 -1.00000000 / 42 141 11 255 / -2.29002400 6.57461600
				-36.85742000 6.48828100 -12.51563000 / 0.00000000 0.00000000 -1.00000000 / 42 141 11 255 / -2.29002400 6.57461600
				-36.85742000 6.48828100 -12.51563000 / 0.00000000 0.00000000 -1.00000000 / 42 141 11 255 / -2.29002400 6.57461600
				-37.57129000 7.52343700 -12.51563000 / 0.00000000 0.00000000 -1.00000000 / 42 141 11 255 / -1.94497700 6.81245400
				-37.57129000 7.52343700 -12.51563000 / 0.00000000 0.00000000 -1.00000000 / 42 141 11 255 / -1.94497700 6.81245400
				-37.57129000 7.52343700 -12.51563000 / 0.00000000 0.00000000 -1.00000000 / 42 141 11 255 / -1.94497700 6.81245400
				-36.42334000 6.71777300 -12.51563000 / 0.00000000 0.00000000 -1.00000000 / 42 141 11 255 / -2.21344000 6.42991700
				-36.42334000 6.71777300 -12.51563000 / 0.00000000 0.00000000 -1.00000000 / 42 141 11 255 / -2.21344000 6.42991700
				-36.42334000 6.71777300 -12.51563000 / 0.00000000 0.00000000 -1.00000000 / 42 141 11 255 / -2.21344000 6.42991700
				-36.42334000 6.71777300 -12.51563000 / 0.00000000 0.00000000 -1.00000000 / 42 141 11 255 / -2.21344000 6.42991700
				-38.03906000 8.65429700 -12.51563000 / 0.00000000 0.00000000 -1.00000000 / 42 141 11 255 / -1.56799300 6.96846000
				-38.03906000 8.65429700 -12.51563000 / 0.00000000 0.00000000 -1.00000000 / 42 141 11 255 / -1.56799300 6.96846000
				-35.83008000 5.57128900 -12.51563000 / 0.00000000 0.00000000 -1.00000000 / 42 141 11 255 / -2.59571800 6.23214700
				-35.83008000 5.57128900 -12.51563000 / 0.00000000 0.00000000 -1.00000000 / 42 141 11 255 / -2.59571800 6.23214700
				-35.83008000 5.57128900 -12.51563000 / 0.00000000 0.00000000 -1.00000000 / 42 141 11 255 / -2.59571800 6.23214700
				-35.24268000 4.48974600 -12.51563000 / 0.00000000 0.00000000 -1.00000000 / 42 141 11 255 / -2.95620700 6.03630100
				-35.24268000 4.48974600 -12.51563000 / 0.00000000 0.00000000 -1.00000000 / 42 141 11 255 / -2.95620700 6.03630100
			}
		}
		Geometry
		{
			ShaderIndex 2
			Flags -
			VertexDeclaration N209731BE
			Indices 132
			{
				0 2 3 4 5 1 6 8 9 10 11 7 12 14 15
				16 18 13 19 17 21 22 25 20 27 26 23 24 30 28
				33 29 31 32 36 34 39 35 37 38 42 40 45 41 43
				44 48 46 51 47 49 50 54 52 57 53 55 56 60 58
				63 59 61 62 66 64 69 65 67 68 72 70 75 71 73
				74 78 76 81 77 79 80 83 82 84 86 87 88 90 85
				91 89 93 94 97 92 99 98 95 96 102 100 105 101 103
				104 108 106 111 107 109 110 115 112 113 116 117 118 121 114
				123 122 119 120 126 124 129 125 127 128 131 130
			}
			Vertices 132
			{
				-17.19824000 24.47363000 -12.51563000 / -0.89026980 -0.45543360 0.00000000 / 42 141 11 255 / -7.13504000 1.00363200
				-17.19824000 24.47363000 -12.51563000 / -0.89026980 -0.45543360 0.00000000 / 42 141 11 255 / -7.13504000 1.00363200
				-8.60351600 7.67187500 -12.51563000 / -0.89026930 -0.45543450 0.00000000 / 42 141 11 255 / 1.33969100 1.00363200
				-8.60351600 7.67187500 -11.88281000 / -0.89026930 -0.45543450 0.00000000 / 42 141 11 255 / 1.33969100 0.68739320
				-8.60351600 7.67187500 -11.88281000 / -0.89026930 -0.45543450 0.00000000 / 42 141 11 255 / 1.33969100 0.68739320
				-17.19824000 24.47363000 -11.88281000 / -0.89026980 -0.45543360 0.00000000 / 42 141 11 255 / -7.13504000 0.68739320
				-30.47070000 -4.89648400 -11.88281000 / -0.49839670 0.86694900 0.00000000 / 42 141 11 255 / 5.00802600 0.68739320
				-30.47070000 -4.89648400 -11.88281000 / -0.49839670 0.86694900 0.00000000 / 42 141 11 255 / 5.00802600 0.68739320
				-8.60351600 7.67187500 -11.88281000 / -0.49830450 0.86700210 0.00000000 / 42 141 11 255 / -6.06768800 0.68739320
				-8.60351600 7.67187500 -12.51563000 / -0.49830450 0.86700210 0.00000000 / 42 141 11 255 / -6.06768800 1.00363200
				-8.60351600 7.67187500 -12.51563000 / -0.49830450 0.86700210 0.00000000 / 42 141 11 255 / -6.06768800 1.00363200
				-30.47070000 -4.89648400 -12.51563000 / -0.49839670 0.86694900 0.00000000 / 42 141 11 255 / 5.00802600 1.00363200
				-30.47070000 -4.89648400 -11.88281000 / 0.88769100 0.46043960 0.00000000 / 42 141 11 255 / -7.11682100 0.68739320
				-30.47070000 -4.89648400 -11.88281000 / 0.88769100 0.46043960 0.00000000 / 42 141 11 255 / -7.11682100 0.68739320
				-30.47070000 -4.89648400 -12.51563000 / 0.88769100 0.46043960 0.00000000 / 42 141 11 255 / -7.11682100 1.00363200
				-32.15674000 -1.64599600 -12.51563000 / 0.88768600 0.46044900 0.00000000 / 42 141 11 255 / -5.50808700 1.00363200
				-32.15674000 -1.64599600 -12.51563000 / 0.88768600 0.46044900 0.00000000 / 42 141 11 255 / -5.50808700 1.00363200
				-32.15674000 -1.64599600 -12.51563000 / 0.89339490 0.44927230 0.00000000 / 42 141 11 255 / -5.50808700 1.00363200
				-32.15674000 -1.64599600 -11.88281000 / 0.88768600 0.46044900 0.00000000 / 42 141 11 255 / -5.50808700 0.68739320
				-32.15674000 -1.64599600 -11.88281000 / 0.89339490 0.44927230 0.00000000 / 42 141 11 255 / -5.50808700 0.68739320
				-32.15674000 -1.64599600 -11.88281000 / 0.89339490 0.44927230 0.00000000 / 42 141 11 255 / -5.50808700 0.68739320
				-35.24268000 4.48974600 -12.51563000 / 0.89337570 0.44931040 0.00000000 / 42 141 11 255 / -2.47488400 1.00363200
				-35.24268000 4.48974600 -12.51563000 / 0.89337570 0.44931040 0.00000000 / 42 141 11 255 / -2.47488400 1.00363200
				-35.24268000 4.48974600 -12.51563000 / 0.87887230 0.47705720 0.00000000 / 42 141 11 255 / -2.47488400 1.00363200
				-35.24268000 4.48974600 -12.51563000 / 0.87887230 0.47705720 0.00000000 / 42 141 11 255 / -2.47488400 1.00363200
				-35.24268000 4.48974600 -11.88281000 / 0.89337570 0.44931040 0.00000000 / 42 141 11 255 / -2.47488400 0.68739320
				-35.24268000 4.48974600 -11.88281000 / 0.87887230 0.47705720 0.00000000 / 42 141 11 255 / -2.47488400 0.68739320
				-35.83008000 5.57128900 -11.88281000 / 0.87887230 0.47705720 0.00000000 / 42 141 11 255 / -1.92910800 0.68739320
				-35.83008000 5.57128900 -11.88281000 / 0.87887230 0.47705720 0.00000000 / 42 141 11 255 / -1.92910800 0.68739320
				-35.83008000 5.57128900 -11.88281000 / 0.88810290 0.45964480 0.00000000 / 42 141 11 255 / -1.92910800 0.68739320
				-35.83008000 5.57128900 -12.51563000 / 0.87887230 0.47705720 0.00000000 / 42 141 11 255 / -1.92910800 1.00363200
				-35.83008000 5.57128900 -12.51563000 / 0.88810290 0.45964480 0.00000000 / 42 141 11 255 / -1.92910800 1.00363200
				-35.83008000 5.57128900 -12.51563000 / 0.88810290 0.45964480 0.00000000 / 42 141 11 255 / -1.92910800 1.00363200
				-36.42334000 6.71777300 -11.88281000 / 0.88810290 0.45964480 0.00000000 / 42 141 11 255 / -1.35060100 0.68739320
				-36.42334000 6.71777300 -11.88281000 / 0.88810290 0.45964480 0.00000000 / 42 141 11 255 / -1.35060100 0.68739320
				-36.42334000 6.71777300 -11.88281000 / 0.89679860 0.44243910 0.00000000 / 42 141 11 255 / -1.35060100 0.68739320
				-36.42334000 6.71777300 -12.51563000 / 0.88810290 0.45964480 0.00000000 / 42 141 11 255 / -1.35060100 1.00363200
				-36.42334000 6.71777300 -12.51563000 / 0.89679860 0.44243910 0.00000000 / 42 141 11 255 / -1.35060100 1.00363200
				-36.42334000 6.71777300 -12.51563000 / 0.89679860 0.44243910 0.00000000 / 42 141 11 255 / -1.35060100 1.00363200
				-36.97363000 7.83300800 -11.88281000 / 0.89679860 0.44243910 0.00000000 / 42 141 11 255 / -0.78831480 0.68739320
				-36.97363000 7.83300800 -11.88281000 / 0.89679860 0.44243910 0.00000000 / 42 141 11 255 / -0.78831480 0.68739320
				-36.97363000 7.83300800 -11.88281000 / 0.91549070 0.40233910 0.00000000 / 42 141 11 255 / -0.78831480 0.68739320
				-36.97363000 7.83300800 -12.51563000 / 0.89679860 0.44243910 0.00000000 / 42 141 11 255 / -0.78831480 1.00363200
				-36.97363000 7.83300800 -12.51563000 / 0.91549070 0.40233910 0.00000000 / 42 141 11 255 / -0.78831480 1.00363200
				-36.97363000 7.83300800 -12.51563000 / 0.91549070 0.40233910 0.00000000 / 42 141 11 255 / -0.78831480 1.00363200
				-37.45508000 8.92822300 -11.88281000 / 0.91545560 0.40241900 0.00000000 / 42 141 11 255 / -0.23658750 0.68739320
				-37.45508000 8.92822300 -11.88281000 / 0.91545560 0.40241900 0.00000000 / 42 141 11 255 / -0.23658750 0.68739320
				-37.45508000 8.92822300 -11.88281000 / 0.94847320 0.31685720 0.00000000 / 42 141 11 255 / -0.23658750 0.68739320
				-37.45508000 8.92822300 -12.51563000 / 0.91545560 0.40241900 0.00000000 / 42 141 11 255 / -0.23658750 1.00363200
				-37.45508000 8.92822300 -12.51563000 / 0.94847320 0.31685720 0.00000000 / 42 141 11 255 / -0.23658750 1.00363200
				-37.45508000 8.92822300 -12.51563000 / 0.94847320 0.31685720 0.00000000 / 42 141 11 255 / -0.23658750 1.00363200
				-37.80176000 9.96630900 -11.88281000 / 0.94847320 0.31685720 0.00000000 / 42 141 11 255 / 0.28538510 0.68739320
				-37.80176000 9.96630900 -11.88281000 / 0.94847320 0.31685720 0.00000000 / 42 141 11 255 / 0.28538510 0.68739320
				-37.80176000 9.96630900 -11.88281000 / 0.98254250 0.18603850 0.00000000 / 42 141 11 255 / 0.28538510 0.68739320
				-37.80176000 9.96630900 -12.51563000 / 0.94847320 0.31685720 0.00000000 / 42 141 11 255 / 0.28538510 1.00363200
				-37.80176000 9.96630900 -12.51563000 / 0.98254250 0.18603850 0.00000000 / 42 141 11 255 / 0.28538510 1.00363200
				-37.80176000 9.96630900 -12.51563000 / 0.98254250 0.18603850 0.00000000 / 42 141 11 255 / 0.28538510 1.00363200
				-37.95703000 10.78613000 -11.88281000 / 0.98254250 0.18603850 0.00000000 / 42 141 11 255 / 0.69650270 0.68739320
				-37.95703000 10.78613000 -11.88281000 / 0.98254250 0.18603850 0.00000000 / 42 141 11 255 / 0.69650270 0.68739320
				-37.95703000 10.78613000 -11.88281000 / 0.99986700 0.01630840 0.00000000 / 42 141 11 255 / 0.69650270 0.68739320
				-37.95703000 10.78613000 -12.51563000 / 0.98254250 0.18603850 0.00000000 / 42 141 11 255 / 0.69650270 1.00363200
				-37.95703000 10.78613000 -12.51563000 / 0.99986700 0.01630840 0.00000000 / 42 141 11 255 / 0.69650270 1.00363200
				-37.95703000 10.78613000 -12.51563000 / 0.99986700 0.01630840 0.00000000 / 42 141 11 255 / 0.69650270 1.00363200
				-37.97022000 11.59473000 -11.88281000 / 0.99986700 0.01630840 0.00000000 / 42 141 11 255 / 1.10086100 0.68739320
				-37.97022000 11.59473000 -11.88281000 / 0.99986700 0.01630840 0.00000000 / 42 141 11 255 / 1.10086100 0.68739320
				-37.97022000 11.59473000 -11.88281000 / 0.97833790 -0.20701480 0.00000000 / 42 141 11 255 / 1.10086100 0.68739320
				-37.97022000 11.59473000 -12.51563000 / 0.99986700 0.01630840 0.00000000 / 42 141 11 255 / 1.10086100 1.00363200
				-37.97022000 11.59473000 -12.51563000 / 0.97833790 -0.20701480 0.00000000 / 42 141 11 255 / 1.10086100 1.00363200
				-37.97022000 11.59473000 -12.51563000 / 0.97833790 -0.20701480 0.00000000 / 42 141 11 255 / 1.10086100 1.00363200
				-37.79980000 12.39990000 -11.88281000 / 0.97833790 -0.20701480 0.00000000 / 42 141 11 255 / 1.50183100 0.68739320
				-37.79980000 12.39990000 -11.88281000 / 0.97833790 -0.20701480 0.00000000 / 42 141 11 255 / 1.50183100 0.68739320
				-37.79980000 12.39990000 -11.88281000 / 0.90247760 -0.43073660 0.00000000 / 42 141 11 255 / 1.50183100 0.68739320
				-37.79980000 12.39990000 -12.51563000 / 0.97833790 -0.20701480 0.00000000 / 42 141 11 255 / 1.50181600 1.00363200
				-37.79980000 12.39990000 -12.51563000 / 0.90247760 -0.43073660 0.00000000 / 42 141 11 255 / 1.50181600 1.00363200
				-37.79980000 12.39990000 -12.51563000 / 0.90247760 -0.43073660 0.00000000 / 42 141 11 255 / 1.50181600 1.00363200
				-37.39941000 13.23877000 -11.88281000 / 0.90247760 -0.43073660 0.00000000 / 42 141 11 255 / 1.91784700 0.68739320
				-37.39941000 13.23877000 -11.88281000 / 0.90247760 -0.43073660 0.00000000 / 42 141 11 255 / 1.91784700 0.68739320
				-37.39941000 13.23877000 -11.88281000 / 0.80141670 -0.59810640 0.00000000 / 42 141 11 255 / 1.91784700 0.68739320
				-37.39941000 13.23877000 -12.51563000 / 0.90247760 -0.43073660 0.00000000 / 42 141 11 255 / 1.91784700 1.00363200
				-37.39941000 13.23877000 -12.51563000 / 0.80141670 -0.59810640 0.00000000 / 42 141 11 255 / 1.91784700 1.00363200
				-37.39941000 13.23877000 -12.51563000 / 0.80141670 -0.59810640 0.00000000 / 42 141 11 255 / 1.91784700 1.00363200
				-36.96680000 13.81836000 -11.88281000 / 0.80141670 -0.59810640 0.00000000 / 42 141 11 255 / 2.20367400 0.68739320
				-36.96680000 13.81836000 -11.88281000 / 0.80141670 -0.59810640 0.00000000 / 42 141 11 255 / 2.20367400 0.68739320
				-36.96680000 13.81836000 -12.51563000 / 0.80141670 -0.59810640 0.00000000 / 42 141 11 255 / 2.20367400 1.00363200
				-17.19824000 24.47363000 -12.51563000 / 0.47055860 -0.88236880 0.00000000 / 42 141 11 255 / 2.88156100 1.00363200
				-17.19824000 24.47363000 -12.51563000 / 0.47055860 -0.88236880 0.00000000 / 42 141 11 255 / 2.88156100 1.00363200
				-17.19824000 24.47363000 -11.88281000 / 0.47055860 -0.88236880 0.00000000 / 42 141 11 255 / 2.88156100 0.68739320
				-17.65332000 24.23096000 -11.88281000 / 0.47055860 -0.88236880 0.00000000 / 42 141 11 255 / 2.65007000 0.68739320
				-17.65332000 24.23096000 -11.88281000 / 0.47055860 -0.88236880 0.00000000 / 42 141 11 255 / 2.65007000 0.68739320
				-17.65332000 24.23096000 -11.88281000 / 0.45551090 -0.89023020 0.00000000 / 42 141 11 255 / 2.65007000 0.68739320
				-17.65332000 24.23096000 -12.51563000 / 0.47055860 -0.88236880 0.00000000 / 42 141 11 255 / 2.65007000 1.00363200
				-17.65332000 24.23096000 -12.51563000 / 0.45551090 -0.89023020 0.00000000 / 42 141 11 255 / 2.65007000 1.00363200
				-17.65332000 24.23096000 -12.51563000 / 0.45551090 -0.89023020 0.00000000 / 42 141 11 255 / 2.65007000 1.00363200
				-31.67578000 17.05518000 -11.88281000 / 0.45551090 -0.89023020 0.00000000 / 42 141 11 255 / -4.42265300 0.68739320
				-31.67578000 17.05518000 -11.88281000 / 0.45551090 -0.89023020 0.00000000 / 42 141 11 255 / -4.42265300 0.68739320
				-31.67578000 17.05518000 -11.88281000 / 0.45664960 -0.88964660 0.00000000 / 42 141 11 255 / -4.42265300 0.68739320
				-31.67578000 17.05518000 -11.88281000 / 0.45664960 -0.88964660 0.00000000 / 42 141 11 255 / -4.42265300 0.68739320
				-31.67578000 17.05518000 -12.51563000 / 0.45551090 -0.89023020 0.00000000 / 42 141 11 255 / -4.42263800 1.00363200
				-31.67578000 17.05518000 -12.51563000 / 0.45664960 -0.88964660 0.00000000 / 42 141 11 255 / -4.42263800 1.00363200
				-32.69190000 16.53369000 -12.51563000 / 0.45664960 -0.88964660 0.00000000 / 42 141 11 255 / -4.93507400 1.00363200
				-32.69190000 16.53369000 -12.51563000 / 0.45664960 -0.88964660 0.00000000 / 42 141 11 255 / -4.93507400 1.00363200
				-32.69190000 16.53369000 -12.51563000 / 0.45740840 -0.88925680 0.00000000 / 42 141 11 255 / -4.93507400 1.00363200
				-32.69190000 16.53369000 -11.88281000 / 0.45664960 -0.88964660 0.00000000 / 42 141 11 255 / -4.93507400 0.68739320
				-32.69190000 16.53369000 -11.88281000 / 0.45740840 -0.88925680 0.00000000 / 42 141 11 255 / -4.93507400 0.68739320
				-32.69190000 16.53369000 -11.88281000 / 0.45740840 -0.88925680 0.00000000 / 42 141 11 255 / -4.93507400 0.68739320
				-33.69043000 16.02002000 -12.51563000 / 0.45740840 -0.88925680 0.00000000 / 42 141 11 255 / -5.43881200 1.00363200
				-33.69043000 16.02002000 -12.51563000 / 0.45740840 -0.88925680 0.00000000 / 42 141 11 255 / -5.43881200 1.00363200
				-33.69043000 16.02002000 -12.51563000 / 0.47379270 -0.88063650 0.00000000 / 42 141 11 255 / -5.43881200 1.00363200
				-33.69043000 16.02002000 -11.88281000 / 0.45740840 -0.88925680 0.00000000 / 42 141 11 255 / -5.43881200 0.68739320
				-33.69043000 16.02002000 -11.88281000 / 0.47379270 -0.88063650 0.00000000 / 42 141 11 255 / -5.43881200 0.68739320
				-33.69043000 16.02002000 -11.88281000 / 0.47379270 -0.88063650 0.00000000 / 42 141 11 255 / -5.43881200 0.68739320
				-34.66651000 15.49463000 -12.51563000 / 0.47379270 -0.88063650 0.00000000 / 42 141 11 255 / -5.93132000 1.00363200
				-34.66651000 15.49463000 -12.51563000 / 0.47379270 -0.88063650 0.00000000 / 42 141 11 255 / -5.93132000 1.00363200
				-34.66651000 15.49463000 -12.51563000 / 0.51268550 -0.85857650 0.00000000 / 42 141 11 255 / -5.93132000 1.00363200
				-34.66651000 15.49463000 -12.51563000 / 0.51268550 -0.85857650 0.00000000 / 42 141 11 255 / -5.93132000 1.00363200
				-34.66651000 15.49463000 -11.88281000 / 0.47379270 -0.88063650 0.00000000 / 42 141 11 255 / -5.93132000 0.68739320
				-34.66651000 15.49463000 -11.88281000 / 0.51268550 -0.85857650 0.00000000 / 42 141 11 255 / -5.93132000 0.68739320
				-35.61816000 14.92627000 -11.88281000 / 0.51268550 -0.85857650 0.00000000 / 42 141 11 255 / -6.41203300 0.68739320
				-35.61816000 14.92627000 -11.88281000 / 0.51268550 -0.85857650 0.00000000 / 42 141 11 255 / -6.41203300 0.68739320
				-35.61816000 14.92627000 -11.88281000 / 0.58401330 -0.81174410 0.00000000 / 42 141 11 255 / -6.41203300 0.68739320
				-35.61816000 14.92627000 -11.88281000 / 0.58401330 -0.81174410 0.00000000 / 42 141 11 255 / -6.41203300 0.68739320
				-35.61816000 14.92627000 -12.51563000 / 0.51268550 -0.85857650 0.00000000 / 42 141 11 255 / -6.41203300 1.00363200
				-35.61816000 14.92627000 -12.51563000 / 0.58401330 -0.81174410 0.00000000 / 42 141 11 255 / -6.41203300 1.00363200
				-36.40234000 14.36230000 -12.51563000 / 0.58401330 -0.81174410 0.00000000 / 42 141 11 255 / -6.80906700 1.00363200
				-36.40234000 14.36230000 -12.51563000 / 0.58401330 -0.81174410 0.00000000 / 42 141 11 255 / -6.80906700 1.00363200
				-36.40234000 14.36230000 -12.51563000 / 0.69387260 -0.72009780 0.00000000 / 42 141 11 255 / -6.80906700 1.00363200
				-36.40234000 14.36230000 -11.88281000 / 0.58401330 -0.81174410 0.00000000 / 42 141 11 255 / -6.80906700 0.68739320
				-36.40234000 14.36230000 -11.88281000 / 0.69387260 -0.72009780 0.00000000 / 42 141 11 255 / -6.80906700 0.68739320
				-36.40234000 14.36230000 -11.88281000 / 0.69387260 -0.72009780 0.00000000 / 42 141 11 255 / -6.80906700 0.68739320
				-36.96680000 13.81836000 -12.51563000 / 0.69387260 -0.72009780 0.00000000 / 42 141 11 255 / -7.09591800 1.00363200
				-36.96680000 13.81836000 -12.51563000 / 0.69387260 -0.72009780 0.00000000 / 42 141 11 255 / -7.09591800 1.00363200
				-36.96680000 13.81836000 -11.88281000 / 0.69387260 -0.72009780 0.00000000 / 42 141 11 255 / -7.09591800 0.68739320
			}
		}
	}
}
