Version 165 32
{
	Locked False
	Skinned False
	BoneCount 0
	Mask 255
	Bounds
	{
		Aabb
		{
			Min -38.09132000 8.70122900 -17.57374000
			Max -30.61660000 14.62716000 -17.57374000
		}
		Aabb
		{
			Min -38.09132000 8.70122900 -17.57374000
			Max -30.61660000 14.62716000 -17.57374000
		}
		Aabb
		{
			Min -38.05746000 8.90414800 -17.57374000
			Max -30.85578000 14.53873000 -17.57374000
		}
	}
	Geometries
	{
		Geometry
		{
			ShaderIndex 15
			Flags -
			VertexDeclaration N209731BE
			Indices 33
			{
				13 21 32 1 28 3 26 7 2 4 22 12 0 20 24
				6 27 8 23 14 29 31 5 25 10 30 17 18 19 11
				15 9 16
			}
			Vertices 33
			{
				-30.61660000 12.39452000 -17.57374000 / 0.00000000 0.00000000 1.00000000 / 255 255 255 255 / -0.98937480 -0.69597180
				-32.17995000 8.90414800 -17.57374000 / 0.00000000 0.00000000 1.00000000 / 255 255 255 255 / 3.34338000 -1.35635500
				-32.17995000 8.90414800 -17.57374000 / 0.00000000 0.00000000 1.00000000 / 255 255 255 255 / 3.34338000 -1.35635500
				-32.06437000 8.70122900 -17.57374000 / 0.00000000 0.00000000 1.00000000 / 255 255 255 255 / 3.38659600 -1.40980000
				-32.17995000 8.90414800 -17.57374000 / 0.00000000 0.00000000 1.00000000 / 255 255 255 255 / 3.34338000 -1.35635500
				-32.17995000 8.90414800 -17.57374000 / 0.00000000 0.00000000 1.00000000 / 255 255 255 255 / 3.34338000 -1.35635500
				-30.85578000 12.33933000 -17.57374000 / 0.00000000 0.00000000 1.00000000 / 255 255 255 255 / -0.70411030 -0.69077910
				-30.85578000 12.33933000 -17.57374000 / 0.00000000 0.00000000 1.00000000 / 255 255 255 255 / -0.70411030 -0.69077910
				-30.61660000 12.39452000 -17.57374000 / 0.00000000 0.00000000 1.00000000 / 255 255 255 255 / -0.98937480 -0.69597180
				-30.85578000 12.33933000 -17.57374000 / 0.00000000 0.00000000 1.00000000 / 255 255 255 255 / -0.70411030 -0.69077910
				-30.85578000 12.33933000 -17.57374000 / 0.00000000 0.00000000 1.00000000 / 255 255 255 255 / -0.70411030 -0.69077910
				-30.85578000 12.33933000 -17.57374000 / 0.00000000 0.00000000 1.00000000 / 255 255 255 255 / -0.70411030 -0.69077910
				-30.66805000 12.26606000 -17.57374000 / 0.00000000 0.00000000 1.00000000 / 255 255 255 255 / -0.83607990 -0.72071780
				-32.06437000 8.70122900 -17.57374000 / 0.00000000 0.00000000 1.00000000 / 255 255 255 255 / 3.38659600 -1.40980000
				-38.09132000 11.06200000 -17.57374000 / 0.00000000 0.00000000 1.00000000 / 255 255 255 255 / 7.68996800 -0.41409500
				-36.32895000 14.53873000 -17.57374000 / 0.00000000 0.00000000 1.00000000 / 255 255 255 255 / 3.09326600 0.19616090
				-36.23615000 14.61753000 -17.57374000 / 0.00000000 0.00000000 1.00000000 / 255 255 255 255 / 2.93733300 0.20687910
				-36.22481000 14.62716000 -17.57374000 / 0.00000000 0.00000000 1.00000000 / 255 255 255 255 / 2.91827200 0.20818920
				-36.22481000 14.62716000 -17.57374000 / 0.00000000 0.00000000 1.00000000 / 255 255 255 255 / 2.91827200 0.20818920
				-36.23615000 14.61753000 -17.57374000 / 0.00000000 0.00000000 1.00000000 / 255 255 255 255 / 2.93733300 0.20687910
				-30.80559000 12.47026000 -17.57374000 / 0.00000000 0.00000000 1.00000000 / 255 255 255 255 / -0.85810180 -0.66538990
				-32.00817000 8.84068600 -17.57374000 / 0.00000000 0.00000000 1.00000000 / 255 255 255 255 / 3.21980400 -1.38295800
				-32.00817000 8.84068600 -17.57374000 / 0.00000000 0.00000000 1.00000000 / 255 255 255 255 / 3.21980400 -1.38295800
				-38.05746000 11.14512000 -17.57374000 / 0.00000000 0.00000000 1.00000000 / 255 255 255 255 / 7.59018000 -0.39812110
				-30.85578000 12.33933000 -17.57374000 / 0.00000000 0.00000000 1.00000000 / 255 255 255 255 / -0.70411030 -0.69077910
				-38.05746000 11.14512000 -17.57374000 / 0.00000000 0.00000000 1.00000000 / 255 255 255 255 / 7.59018000 -0.39812110
				-30.66805000 12.26606000 -17.57374000 / 0.00000000 0.00000000 1.00000000 / 255 255 255 255 / -0.83607990 -0.72071780
				-30.66805000 12.26606000 -17.57374000 / 0.00000000 0.00000000 1.00000000 / 255 255 255 255 / -0.83607990 -0.72071780
				-32.23189000 8.76842900 -17.57374000 / 0.00000000 0.00000000 1.00000000 / 255 255 255 255 / 3.50290500 -1.38267800
				-32.23189000 8.76842900 -17.57374000 / 0.00000000 0.00000000 1.00000000 / 255 255 255 255 / 3.50290500 -1.38267800
				-30.80559000 12.47026000 -17.57374000 / 0.00000000 0.00000000 1.00000000 / 255 255 255 255 / -0.85810180 -0.66538990
				-32.23189000 8.76842900 -17.57374000 / 0.00000000 0.00000000 1.00000000 / 255 255 255 255 / 3.50290500 -1.38267800
				-32.17995000 8.90414800 -17.57374000 / 0.00000000 0.00000000 1.00000000 / 255 255 255 255 / 3.34338000 -1.35635500
			}
		}
		Geometry
		{
			ShaderIndex 16
			Flags -
			VertexDeclaration N51263BB5
			Indices 12
			{
				3 5 9 10 11 4 1 8 6 7 0 2
			}
			Vertices 12
			{
				-38.05746000 11.14512000 -17.57374000 / 0.00000000 0.00000000 1.00000000 / 255 255 255 255 / 4.12402000 -4.00000000 / -0.93112360 0.36470380 0.00000000 1.00000000
				-32.17995000 8.90414800 -17.57374000 / 0.00000000 0.00000000 1.00000000 / 255 255 255 255 / -0.12765960 -3.93999600 / -0.93112360 0.36470390 0.00000000 1.00000000
				-32.17995000 8.90414800 -17.57374000 / 0.00000000 0.00000000 1.00000000 / 255 255 255 255 / -0.12765960 -3.93999600 / -0.93112360 0.36470390 0.00000000 1.00000000
				-32.17995000 8.90414800 -17.57374000 / 0.00000000 0.00000000 1.00000000 / 255 255 255 255 / -0.12765960 -3.93999600 / -0.92906500 0.36991640 0.00000000 1.00000000
				-32.17995000 8.90414800 -17.57374000 / 0.00000000 0.00000000 1.00000000 / 255 255 255 255 / -0.12765960 -3.93999600 / -0.92906500 0.36991640 0.00000000 1.00000000
				-30.85578000 12.33933000 -17.57374000 / 0.00000000 0.00000000 1.00000000 / 255 255 255 255 / -0.11196160 -0.02184300 / -0.92906520 0.36991610 0.00000000 1.00000000
				-37.14019000 13.84983000 -17.57374000 / 0.00000000 0.00000000 1.00000000 / 255 255 255 255 / 4.12675600 -0.99300190 / -0.93112360 0.36470390 0.00000000 1.00000000
				-37.14019000 13.84983000 -17.57374000 / 0.00000000 0.00000000 1.00000000 / 255 255 255 255 / 4.12675600 -0.99300190 / -0.93112360 0.36470390 0.00000000 1.00000000
				-36.53486000 14.36387000 -17.57374000 / 0.00000000 0.00000000 1.00000000 / 255 255 255 255 / 3.85134700 -0.25583650 / -0.93112350 0.36470400 0.00000000 1.00000000
				-36.32895000 14.53873000 -17.57374000 / 0.00000000 0.00000000 1.00000000 / 255 255 255 255 / 3.76736000 -0.00185630 / -0.92906500 0.36991640 0.00000000 1.00000000
				-36.32895000 14.53873000 -17.57374000 / 0.00000000 0.00000000 1.00000000 / 255 255 255 255 / 3.76736000 -0.00185630 / -0.92906500 0.36991640 0.00000000 1.00000000
				-36.53486000 14.36387000 -17.57374000 / 0.00000000 0.00000000 1.00000000 / 255 255 255 255 / 3.85134700 -0.25583640 / -0.92906490 0.36991670 0.00000000 1.00000000
			}
		}
	}
}
