Version 165 32
{
	Locked False
	Skinned False
	BoneCount 0
	Mask 255
	Bounds
	{
		Aabb
		{
			Min -11.96597000 9.41349000 -13.98369000
			Max -8.81910900 15.11245000 -13.14577000
		}
	}
	Geometries
	{
		Geometry
		{
			ShaderIndex 8
			Flags -
			VertexDeclaration N209731BE
			Indices 24
			{
				0 18 1 4 5 17 6 8 2 3 9 7 12 14 15
				16 10 13 11 20 21 22 23 19
			}
			Vertices 24
			{
				-9.14900800 9.41349000 -13.20172000 / 0.00047680 -0.00963240 0.99995350 / 42 141 11 255 / 0.60096740 0.00303650
				-11.63362000 15.10531000 -13.14577000 / 0.00047680 -0.00963240 0.99995350 / 42 141 11 255 / 0.35260010 1.01461800
				-8.82158100 9.58871100 -13.98224000 / 0.89102490 0.45395260 0.00133520 / 42 141 11 255 / 1.50019800 0.00302120
				-8.82158100 9.58871100 -13.98224000 / 0.89102490 0.45395260 0.00133520 / 42 141 11 255 / 1.50019800 0.00302120
				-11.63362000 15.10531000 -13.14577000 / 0.00047680 -0.00963240 0.99995350 / 42 141 11 255 / 0.35260010 1.01461800
				-11.96352000 14.93723000 -13.14721000 / 0.00047680 -0.00963240 0.99995350 / 42 141 11 255 / 0.60096740 1.01461800
				-11.63362000 15.10531000 -13.14577000 / 0.89102490 0.45395260 0.00133520 / 42 141 11 255 / 1.88906900 1.01461800
				-11.63362000 15.10531000 -13.14577000 / 0.89102490 0.45395260 0.00133520 / 42 141 11 255 / 1.88906900 1.01461800
				-8.81910900 9.58157000 -13.20027000 / 0.89102490 0.45395260 0.00133520 / 42 141 11 255 / 1.88906900 0.00302120
				-11.63608000 15.11245000 -13.92773000 / 0.89102490 0.45395260 0.00133520 / 42 141 11 255 / 1.50019800 1.01461800
				-9.14900800 9.41349000 -13.20172000 / -0.89102490 -0.45395260 -0.00133520 / 42 141 11 255 / -0.91453550 0.00302120
				-8.82158100 9.58871100 -13.98224000 / -0.00047680 0.00963240 -0.99995350 / 42 141 11 255 / 0.60702510 0.00302120
				-11.96352000 14.93723000 -13.14721000 / -0.89102490 -0.45395260 -0.00133520 / 42 141 11 255 / -0.91455080 1.01461800
				-11.96352000 14.93723000 -13.14721000 / -0.89102490 -0.45395260 -0.00133520 / 42 141 11 255 / -0.91455080 1.01461800
				-11.96597000 14.94437000 -13.92918000 / -0.89102490 -0.45395260 -0.00133520 / 42 141 11 255 / -0.52568050 1.01461800
				-9.15147000 9.42063600 -13.98369000 / -0.89102490 -0.45395260 -0.00133520 / 42 141 11 255 / -0.52566530 0.00303650
				-9.15147000 9.42063600 -13.98369000 / -0.89102490 -0.45395260 -0.00133520 / 42 141 11 255 / -0.52566530 0.00303650
				-9.14900800 9.41349000 -13.20172000 / 0.00047680 -0.00963240 0.99995350 / 42 141 11 255 / 0.60096740 0.00303650
				-8.81910900 9.58157000 -13.20027000 / 0.00047680 -0.00963240 0.99995350 / 42 141 11 255 / 0.35260010 0.00302120
				-8.82158100 9.58871100 -13.98224000 / -0.00047680 0.00963240 -0.99995350 / 42 141 11 255 / 0.60702510 0.00302120
				-9.15147000 9.42063600 -13.98369000 / -0.00047680 0.00963240 -0.99995350 / 42 141 11 255 / 0.35867310 0.00303650
				-11.96597000 14.94437000 -13.92918000 / -0.00047680 0.00963240 -0.99995350 / 42 141 11 255 / 0.35867310 1.01461800
				-11.96597000 14.94437000 -13.92918000 / -0.00047680 0.00963240 -0.99995350 / 42 141 11 255 / 0.35867310 1.01461800
				-11.63608000 15.11245000 -13.92773000 / -0.00047680 0.00963240 -0.99995350 / 42 141 11 255 / 0.60702510 1.01461800
			}
		}
	}
}
