Version 165 32
{
	Locked False
	Skinned False
	BoneCount 0
	Mask 255
	Bounds
	{
		Aabb
		{
			Min -16.97846000 24.75356000 -18.04150000
			Max 2.14801200 33.62027000 -12.51563000
		}
		Aabb
		{
			Min -4.06781100 30.78775000 -14.60742000
			Max 0.04888920 33.28921000 -14.60742000
		}
		Aabb
		{
			Min -12.91059000 26.79751000 -13.54346000
			Max -0.72454830 33.03579000 -12.84619000
		}
		Aabb
		{
			Min -16.97846000 24.75356000 -18.04150000
			Max 2.14801100 33.62027000 -12.51563000
		}
		Aabb
		{
			Min -16.97846000 24.75356000 -16.96680000
			Max 2.14801200 33.28970000 -12.51563000
		}
		Aabb
		{
			Min -9.45648800 28.56459000 -17.28369000
			Max -9.41546600 28.60757000 -14.37158000
		}
		Aabb
		{
			Min -12.85590000 26.79751000 -13.50977000
			Max -0.73089550 32.97525000 -12.88037000
		}
		Aabb
		{
			Min -13.70356000 26.47329000 -17.46924000
			Max 0.36139010 33.10611000 -17.13573000
		}
	}
	Geometries
	{
		Geometry
		{
			ShaderIndex 1
			Flags -
			VertexDeclaration N209731BE
			Indices 6
			{
				2 0 3 5 4 1
			}
			Vertices 6
			{
				-0.22845550 33.28921000 -14.60742000 / 0.00000000 0.00000000 1.00000000 / 42 141 11 255 / 6.78190600 -5.56901500
				-0.22845550 33.28921000 -14.60742000 / 0.00000000 0.00000000 1.00000000 / 42 141 11 255 / 6.78190600 -5.56901500
				0.04888920 32.74477000 -14.60742000 / 0.00000040 0.00000000 1.00000000 / 42 141 11 255 / 6.60044900 -5.66145300
				-3.78997800 30.78775000 -14.60742000 / 0.00000000 0.00000000 1.00000000 / 42 141 11 255 / 5.94802900 -4.38177500
				-3.78997800 30.78775000 -14.60742000 / 0.00000000 0.00000000 1.00000000 / 42 141 11 255 / 5.94802900 -4.38177500
				-4.06781100 31.33217000 -14.60742000 / 0.00000000 0.00000000 1.00000000 / 42 141 11 255 / 6.12962300 -4.28924600
			}
		}
		Geometry
		{
			ShaderIndex 3
			Flags -
			VertexDeclaration N209731BE
			Indices 174
			{
				127 125 128 130 129 126 135 132 137 139 138 134 143 140 146
				148 147 142 153 149 154 156 155 151 161 159 162 166 164 160
				72 42 131 55 84 57 150 98 165 167 110 168 170 123 65
				78 136 141 133 88 145 157 100 171 172 111 173 1 122 2
				7 3 9 10 4 12 13 5 14 15 6 16 23 17 24
				25 18 26 27 19 28 29 21 30 37 31 38 39 34 40
				41 35 43 46 36 47 50 48 51 52 49 54 61 56 63
				62 64 69 75 67 59 80 70 68 60 82 76 81 144 73
				158 79 83 85 74 53 32 169 58 45 71 89 11 86 8
				44 152 87 20 77 22 66 92 163 93 33 90 91 0 94
				99 95 102 101 103 106 112 104 96 115 107 105 97 117 113
				116 120 108 121 114 118 119 109 124
			}
			Vertices 174
			{
				-5.34711100 30.68034000 -13.50977000 / 0.45269820 -0.89166380 0.00000000 / 42 141 11 255 / -0.14648440 1.37695300
				-2.40717000 32.12124000 -12.88037000 / 0.00002380 0.00000000 1.00000000 / 42 141 11 255 / -2.47361800 0.56835940
				-3.51898500 31.55484000 -12.88037000 / 0.00002380 0.00000000 1.00000000 / 42 141 11 255 / -5.05273400 0.56835940
				-5.34710900 30.68033000 -13.50977000 / 0.00000000 0.00000000 -1.00000000 / 42 141 11 255 / 3.98632800 0.61914060
				-5.34711200 30.68033000 -13.50977000 / 0.00000000 0.00000000 -1.00000000 / 42 141 11 255 / 3.98632800 0.61914060
				-5.34711100 30.68033000 -13.50977000 / 0.00000000 0.00000000 -1.00000000 / 42 141 11 255 / 3.98632800 0.61914060
				-5.34711300 30.68033000 -13.50977000 / 0.00000000 0.00000000 -1.00000000 / 42 141 11 255 / 3.98632800 0.61914060
				-8.13519400 29.25991000 -13.50977000 / 0.00000000 0.00000000 -1.00000000 / 42 141 11 255 / 10.45508000 0.61914060
				-8.13519300 29.25991000 -12.88037000 / 0.45292680 -0.89154770 0.00000000 / 42 141 11 255 / 1.14648400 0.86328130
				-8.11078200 29.21499000 -13.50977000 / 0.00000000 0.00000000 -1.00000000 / 42 141 11 255 / 10.45508000 0.56835940
				-8.11078000 29.21499000 -13.50977000 / 0.00000000 0.00000000 -1.00000000 / 42 141 11 255 / 10.45508000 0.56835940
				-8.16595700 29.24429000 -12.84619000 / 0.45292680 -0.89154770 0.00000000 / 42 141 11 255 / 1.16015600 0.84375000
				-6.99896600 29.78189000 -13.50977000 / 0.00000000 0.00000000 -1.00000000 / 42 141 11 255 / 7.87518300 0.56835940
				-6.99896600 29.78188000 -13.50977000 / 0.00000000 0.00000000 -1.00000000 / 42 141 11 255 / 7.87518300 0.56835940
				-6.43451300 30.06900000 -13.50977000 / 0.00000000 0.00000000 -1.00000000 / 42 141 11 255 / 6.56622300 0.56835940
				-6.43451200 30.06900000 -13.50977000 / 0.00000000 0.00000000 -1.00000000 / 42 141 11 255 / 6.56622300 0.56835940
				-5.32269500 30.63589000 -13.50977000 / 0.00000000 0.00000000 -1.00000000 / 42 141 11 255 / 3.98632800 0.56835940
				-8.13519300 29.25992000 -12.88037000 / 0.00000000 0.00000000 1.00000000 / 42 141 11 255 / -5.05273400 0.61914060
				-8.13519300 29.25991000 -12.88037000 / 0.00000000 0.00000000 1.00000000 / 42 141 11 255 / -5.05273400 0.61914060
				-8.13519400 29.25992000 -12.88037000 / 0.00000000 0.00000000 1.00000000 / 42 141 11 255 / -5.05273400 0.61914060
				-8.13519600 29.25992000 -12.88037000 / 0.45391410 -0.89104480 0.00104900 / 42 141 11 255 / 1.14648400 0.86328130
				-8.13519200 29.25991000 -12.88037000 / 0.00000000 0.00000000 1.00000000 / 42 141 11 255 / -5.05273400 0.61914060
				-8.16595900 29.24429000 -12.84619000 / 0.45391410 -0.89104480 0.00104900 / 42 141 11 255 / 1.16015600 0.84375000
				-5.34711100 30.68033000 -12.88037000 / 0.00000000 0.00000000 1.00000000 / 42 141 11 255 / 1.41406200 0.61914060
				-5.32269500 30.63589000 -12.88037000 / 0.00000000 0.00000000 1.00000000 / 42 141 11 255 / 1.41406200 0.56835940
				-5.32269400 30.63588000 -12.88037000 / 0.00004770 0.00000000 1.00000000 / 42 141 11 255 / 1.41406200 0.56835940
				-6.43451000 30.06900000 -12.88037000 / 0.00004770 0.00000000 1.00000000 / 42 141 11 255 / -1.16505400 0.56835940
				-6.43451200 30.06900000 -12.88037000 / 0.00000000 0.00000000 1.00000000 / 42 141 11 255 / -1.16505400 0.56835940
				-6.99896500 29.78189000 -12.88037000 / 0.00000000 0.00000000 1.00000000 / 42 141 11 255 / -2.47361800 0.56835940
				-6.99896500 29.78188000 -12.88037000 / 0.00000000 0.00000000 1.00000000 / 42 141 11 255 / -2.47361800 0.56835940
				-8.11078000 29.21499000 -12.88037000 / 0.00000000 0.00000000 1.00000000 / 42 141 11 255 / -5.05273400 0.56835940
				-10.09174000 28.26284000 -13.50977000 / 0.00000000 0.00000000 -1.00000000 / 42 141 11 255 / 3.98632800 0.61914060
				-8.13519600 29.25992000 -13.50977000 / 0.45307840 -0.89147070 0.00000000 / 42 141 11 255 / 1.14648400 1.37695300
				-8.16595500 29.24429000 -12.84619000 / 0.45391390 -0.89104450 -0.00133500 / 42 141 11 255 / 1.16015600 0.84375000
				-10.09174000 28.26284000 -13.50977000 / 0.00000000 0.00000000 -1.00000000 / 42 141 11 255 / 3.98632800 0.61914060
				-10.09174000 28.26284000 -13.50977000 / 0.00000000 0.00000000 -1.00000000 / 42 141 11 255 / 3.98632800 0.61914060
				-10.09174000 28.26284000 -13.50977000 / 0.00000000 0.00000000 -1.00000000 / 42 141 11 255 / 3.98632800 0.61914060
				-12.88031000 26.84195000 -13.50977000 / 0.00000000 0.00000000 -1.00000000 / 42 141 11 255 / 10.45508000 0.61914060
				-12.85590000 26.79751000 -13.50977000 / 0.00000000 0.00000000 -1.00000000 / 42 141 11 255 / 10.45508000 0.56835940
				-12.85590000 26.79751000 -13.50977000 / 0.00000000 0.00000000 -1.00000000 / 42 141 11 255 / 10.45508000 0.56835940
				-11.74359000 27.36392000 -13.50977000 / 0.00000000 0.00000000 -1.00000000 / 42 141 11 255 / 7.87518300 0.56835940
				-11.74359000 27.36392000 -13.50977000 / 0.00000000 0.00000000 -1.00000000 / 42 141 11 255 / 7.87518300 0.56835940
				-12.88031000 26.84195000 -13.50977000 / -0.87649970 -0.48140250 0.00000000 / 42 141 11 255 / -7.62500000 0.61914060
				-11.17963000 27.65152000 -13.50977000 / 0.00000000 0.00000000 -1.00000000 / 42 141 11 255 / 6.56622300 0.56835940
				-5.31634800 30.69595000 -13.54346000 / 0.45383820 -0.89108300 0.00143050 / 42 141 11 255 / -0.16015630 1.39648400
				-8.13519600 29.25992000 -13.50977000 / 0.45391410 -0.89104480 -0.00104900 / 42 141 11 255 / 1.14648400 1.37695300
				-11.17963000 27.65152000 -13.50977000 / 0.00000000 0.00000000 -1.00000000 / 42 141 11 255 / 6.56622300 0.56835940
				-10.06732000 28.21792000 -13.50977000 / 0.00000000 0.00000000 -1.00000000 / 42 141 11 255 / 3.98632800 0.56835940
				-12.88031000 26.84195000 -12.88037000 / 0.00000000 0.00000000 1.00000000 / 42 141 11 255 / -5.05273400 0.61914060
				-12.88031000 26.84195000 -12.88037000 / 0.00000000 0.00000000 1.00000000 / 42 141 11 255 / -5.05273400 0.61914060
				-10.09174000 28.26284000 -12.88037000 / 0.00000000 0.00000000 1.00000000 / 42 141 11 255 / 1.41406200 0.61914060
				-10.06732000 28.21792000 -12.88037000 / 0.00000000 0.00000000 1.00000000 / 42 141 11 255 / 1.41406200 0.56835940
				-10.06732000 28.21792000 -12.88037000 / 0.00000000 0.00000000 1.00000000 / 42 141 11 255 / 1.41406200 0.56835940
				-0.72455120 33.03579000 -12.84619000 / 0.45301210 -0.89150440 0.00000000 / 42 141 11 255 / -0.16015630 0.84375000
				-11.17963000 27.65152000 -12.88037000 / 0.00000000 0.00000000 1.00000000 / 42 141 11 255 / -1.16505400 0.56835940
				-12.85590000 26.79751000 -13.50977000 / -0.87649970 -0.48140250 0.00000000 / 42 141 11 255 / -7.62500000 0.56835940
				-3.54339900 31.59927000 -12.88037000 / 0.45300270 -0.89150920 0.00000000 / 42 141 11 255 / 1.14648400 0.86328130
				-12.88031000 26.84195000 -13.50977000 / -0.87649970 -0.48140250 0.00000000 / 42 141 11 255 / -7.62500000 0.61914060
				-8.16595700 29.24429000 -13.54346000 / 0.45307840 -0.89147070 0.00000000 / 42 141 11 255 / 1.16015600 1.39648400
				-3.54339700 31.59927000 -12.88037000 / 0.45300270 -0.89150920 0.00000000 / 42 141 11 255 / 1.14648400 0.86328130
				-3.54339700 31.59926000 -12.88037000 / 0.45412360 -0.89093760 0.00133520 / 42 141 11 255 / 1.14648400 0.86328130
				-3.54339900 31.59927000 -13.50977000 / 0.45300270 -0.89150920 0.00000000 / 42 141 11 255 / 1.14648400 1.37695300
				-3.54339700 31.59927000 -13.50977000 / 0.45412360 -0.89093760 -0.00133520 / 42 141 11 255 / 1.14648400 1.37695300
				-3.57415900 31.58364000 -13.54346000 / 0.45300270 -0.89150920 0.00000000 / 42 141 11 255 / 1.16015600 1.39648400
				-3.57415700 31.58364000 -13.54346000 / 0.45412360 -0.89093760 -0.00133520 / 42 141 11 255 / 1.16015600 1.39648400
				-1.84271300 32.40884000 -13.50977000 / 0.00000000 0.00000000 -1.00000000 / 42 141 11 255 / 6.56622300 0.56835940
				-5.31634800 30.69595000 -13.54346000 / 0.45269820 -0.89166380 0.00000000 / 42 141 11 255 / -0.16015630 1.39648400
				-3.57415900 31.58364000 -13.54346000 / 0.45300270 -0.89150920 0.00000000 / 42 141 11 255 / 1.16015600 1.39648400
				-3.57415800 31.58363000 -13.54346000 / 0.45412340 -0.89093740 0.00162130 / 42 141 11 255 / 1.16015600 1.39648400
				-0.75530770 33.02017000 -13.50977000 / 0.45381460 -0.89109520 -0.00133510 / 42 141 11 255 / -0.14648440 1.37695300
				-0.75531210 33.02017000 -13.50977000 / 0.45380960 -0.89109720 0.00162120 / 42 141 11 255 / -0.14648440 1.37695300
				-8.16595800 29.24429000 -13.54346000 / 0.45391410 -0.89104480 -0.00104900 / 42 141 11 255 / 1.16015600 1.39648400
				-12.88031000 26.84195000 -12.88037000 / -0.87649970 -0.48140250 0.00000000 / 42 141 11 255 / -5.05273400 0.61914060
				-0.75531150 33.02018000 -13.50977000 / 0.45298840 -0.89151640 0.00000000 / 42 141 11 255 / -0.14648440 1.37695300
				-0.75531010 33.02017000 -13.50977000 / 0.45301210 -0.89150440 0.00000000 / 42 141 11 255 / -0.14648440 1.37695300
				-3.57416000 31.58364000 -12.84619000 / 0.45300270 -0.89150920 0.00000000 / 42 141 11 255 / 1.16015600 0.84375000
				-3.57416000 31.58364000 -12.84619000 / 0.45412360 -0.89093760 0.00133520 / 42 141 11 255 / 1.16015600 0.84375000
				-5.34711300 30.68033000 -12.88037000 / 0.45383840 -0.89108340 0.00104900 / 42 141 11 255 / -0.14648440 0.86328130
				-1.84271400 32.40884000 -13.50977000 / 0.00000000 0.00000000 -1.00000000 / 42 141 11 255 / 6.56622300 0.56835940
				-3.57416000 31.58364000 -12.84619000 / 0.45412370 -0.89093790 -0.00114440 / 42 141 11 255 / 1.16015600 0.84375000
				-0.72454830 33.03578000 -13.54346000 / 0.45380960 -0.89109720 0.00162120 / 42 141 11 255 / -0.16015630 1.39648400
				-0.72455120 33.03579000 -13.54346000 / 0.45298840 -0.89151640 0.00000000 / 42 141 11 255 / -0.16015630 1.39648400
				-0.75531150 33.02017000 -12.88037000 / 0.45381460 -0.89109520 0.00133510 / 42 141 11 255 / -0.14648440 0.86328130
				-0.75530960 33.02017000 -12.88037000 / 0.45380990 -0.89109780 -0.00114440 / 42 141 11 255 / -0.14648440 0.86328130
				-12.85590000 26.79751000 -12.88037000 / -0.87649970 -0.48140250 0.00000000 / 42 141 11 255 / -5.05273400 0.56835940
				-0.75530960 33.02017000 -12.88037000 / 0.45301210 -0.89150440 0.00000000 / 42 141 11 255 / -0.14648440 0.86328130
				-8.16595700 29.24429000 -13.54346000 / 0.45292680 -0.89154770 0.00000000 / 42 141 11 255 / 1.16015600 1.39648400
				-8.16595800 29.24429000 -13.54346000 / 0.45391390 -0.89104440 0.00143040 / 42 141 11 255 / 1.16015600 1.39648400
				-3.54339900 31.59926000 -12.88037000 / 0.00000000 0.00000000 1.00000000 / 42 141 11 255 / -5.05273400 0.61914060
				-5.34711200 30.68033000 -13.50977000 / 0.45383840 -0.89108340 -0.00104900 / 42 141 11 255 / -0.14648440 1.37695300
				-5.34710900 30.68033000 -12.88037000 / 0.45383820 -0.89108310 -0.00133510 / 42 141 11 255 / -0.14648440 0.86328130
				-5.34710900 30.68033000 -12.88037000 / 0.45269820 -0.89166380 0.00000000 / 42 141 11 255 / -0.14648440 0.86328130
				-5.31634800 30.69595000 -12.84619000 / 0.45269820 -0.89166380 0.00000000 / 42 141 11 255 / -0.16015630 0.84375000
				-5.31634700 30.69595000 -12.84619000 / 0.45383820 -0.89108310 -0.00133510 / 42 141 11 255 / -0.16015630 0.84375000
				-5.31634700 30.69595000 -12.84619000 / 0.45269820 -0.89166380 0.00000000 / 42 141 11 255 / -0.16015630 0.84375000
				-12.88031000 26.84195000 -12.88037000 / 0.45869640 -0.88859310 0.00000000 / 42 141 11 255 / 1.14648400 0.86328130
				-12.88031000 26.84195000 -12.88037000 / 0.45869640 -0.88859310 0.00000000 / 42 141 11 255 / 1.14648400 0.86328130
				-12.88031000 26.84195000 -12.88037000 / 0.45398570 -0.89099470 -0.00505490 / 42 141 11 255 / 1.14648400 0.86328130
				-0.75531010 33.02017000 -13.50977000 / -0.00001190 0.00000000 -1.00000000 / 42 141 11 255 / 3.98632800 0.61914060
				-12.88031000 26.84195000 -13.50977000 / 0.45869640 -0.88859310 0.00000000 / 42 141 11 255 / 1.14648400 1.37695300
				-3.54339900 31.59927000 -12.88037000 / 0.00002380 0.00000000 1.00000000 / 42 141 11 255 / -5.05273400 0.61914060
				-12.88031000 26.84195000 -13.50977000 / 0.45398530 -0.89099380 0.00524560 / 42 141 11 255 / 1.14648400 1.37695300
				-12.91059000 26.82632000 -13.54346000 / 0.45869640 -0.88859310 0.00000000 / 42 141 11 255 / 1.16015600 1.39648400
				-12.91059000 26.82632000 -13.54346000 / 0.45398530 -0.89099380 0.00524560 / 42 141 11 255 / 1.16015600 1.39648400
				-12.91059000 26.82632000 -13.54346000 / 0.45869640 -0.88859310 0.00000000 / 42 141 11 255 / 1.16015600 1.39648400
				-12.91059000 26.82632000 -13.54346000 / 0.45413650 -0.89091620 -0.00534050 / 42 141 11 255 / 1.16015600 1.39648400
				-10.09174000 28.26284000 -13.50977000 / 0.45398530 -0.89099380 0.00524560 / 42 141 11 255 / -0.14648440 1.37695300
				-10.09174000 28.26284000 -13.50977000 / 0.45413650 -0.89091620 -0.00534050 / 42 141 11 255 / -0.14648440 1.37695300
				-10.09174000 28.26284000 -13.50977000 / 0.45892470 -0.88847510 0.00000000 / 42 141 11 255 / -0.14648440 1.37695300
				-10.09174000 28.26284000 -13.50977000 / 0.45869640 -0.88859310 0.00000000 / 42 141 11 255 / -0.14648440 1.37695300
				-0.75530770 33.02017000 -13.50977000 / 0.00000000 0.00000000 -1.00000000 / 42 141 11 255 / 3.98632800 0.61914060
				-3.54339700 31.59927000 -12.88037000 / 0.00002380 0.00000000 1.00000000 / 42 141 11 255 / -5.05273400 0.61914060
				-12.91059000 26.82632000 -12.84619000 / 0.45869640 -0.88859310 0.00000000 / 42 141 11 255 / 1.16015600 0.84375000
				-12.91059000 26.82632000 -12.84619000 / 0.45398570 -0.89099470 -0.00505490 / 42 141 11 255 / 1.16015600 0.84375000
				-12.91059000 26.82632000 -12.84619000 / 0.45413670 -0.89091660 0.00524520 / 42 141 11 255 / 1.16015600 0.84375000
				-10.06147000 28.27847000 -13.54346000 / 0.45413650 -0.89091620 -0.00534050 / 42 141 11 255 / -0.16015630 1.39648400
				-10.06147000 28.27847000 -13.54346000 / 0.45892470 -0.88847510 0.00000000 / 42 141 11 255 / -0.16015630 1.39648400
				-10.09174000 28.26284000 -12.88037000 / 0.45398570 -0.89099470 -0.00505490 / 42 141 11 255 / -0.14648440 0.86328130
				-10.09174000 28.26284000 -12.88037000 / 0.45413670 -0.89091660 0.00524520 / 42 141 11 255 / -0.14648440 0.86328130
				-10.09174000 28.26284000 -12.88037000 / 0.45869640 -0.88859310 0.00000000 / 42 141 11 255 / -0.14648440 0.86328130
				-10.06147000 28.27847000 -12.84619000 / 0.45892470 -0.88847510 0.00000000 / 42 141 11 255 / -0.16015630 0.84375000
				-10.06147000 28.27847000 -12.84619000 / 0.45413670 -0.89091660 0.00524520 / 42 141 11 255 / -0.16015630 0.84375000
				-3.54339900 31.59926000 -12.88037000 / 0.00002380 0.00000000 1.00000000 / 42 141 11 255 / -5.05273400 0.61914060
				-0.75531010 33.02017000 -13.50977000 / 0.00000000 0.00000000 -1.00000000 / 42 141 11 255 / 3.98632800 0.61914060
				-10.06147000 28.27847000 -12.84619000 / 0.45869640 -0.88859310 0.00000000 / 42 141 11 255 / -0.16015630 0.84375000
				-0.75531150 33.02017000 -12.88037000 / 0.87857760 0.47759970 0.00000000 / 42 141 11 255 / 1.41406200 0.61914060
				-0.75530720 33.02016000 -12.88037000 / 0.87857760 0.47759970 0.00000000 / 42 141 11 255 / 1.41406200 0.61914060
				-0.75531210 33.02017000 -13.50977000 / 0.87857760 0.47759970 0.00000000 / 42 141 11 255 / 3.98632800 0.61914060
				-0.73089840 32.97525000 -13.50977000 / 0.87857760 0.47759970 0.00000000 / 42 141 11 255 / 3.98632800 0.56835940
				-0.73089600 32.97525000 -13.50977000 / 0.87857760 0.47759970 0.00000000 / 42 141 11 255 / 3.98632800 0.56835940
				-0.73089600 32.97525000 -12.88037000 / 0.87857760 0.47759970 0.00000000 / 42 141 11 255 / 1.41406200 0.56835940
				-12.85590000 26.79751000 -12.88037000 / -0.87649970 -0.48140250 0.00000000 / 42 141 11 255 / -5.05273400 0.56835940
				-3.54339900 31.59927000 -13.50977000 / -0.87639140 -0.48159930 0.00000000 / 42 141 11 255 / -7.62500000 0.61914060
				-0.75531010 33.02017000 -12.88037000 / -0.00000600 0.00000000 1.00000000 / 42 141 11 255 / 1.41406200 0.61914060
				-3.54339700 31.59927000 -13.50977000 / -0.87638600 -0.48160930 0.00000000 / 42 141 11 255 / -7.62500000 0.61914060
				-3.54339700 31.59926000 -12.88037000 / -0.87639140 -0.48159930 0.00000000 / 42 141 11 255 / -5.05273400 0.61914060
				-0.75531010 33.02016000 -13.50977000 / 0.00000000 0.00000000 -1.00000000 / 42 141 11 255 / 3.98632800 0.61914060
				-3.51898400 31.55484000 -12.88037000 / -0.87639140 -0.48159930 0.00000000 / 42 141 11 255 / -5.05273400 0.56835940
				-3.51898100 31.55484000 -12.88037000 / -0.87638600 -0.48160930 0.00000000 / 42 141 11 255 / -5.05273400 0.56835940
				-3.51898200 31.55484000 -13.50977000 / -0.87638600 -0.48160930 0.00000000 / 42 141 11 255 / -7.62500000 0.56835940
				-5.34711100 30.68033000 -12.88037000 / 0.87638600 0.48160930 0.00000000 / 42 141 11 255 / 1.41406200 0.61914060
				-0.73089600 32.97525000 -13.50977000 / 0.00000000 0.00000000 -1.00000000 / 42 141 11 255 / 3.98632800 0.56835940
				-5.34710900 30.68033000 -12.88037000 / 0.87648860 0.48142260 0.00000000 / 42 141 11 255 / 1.41406200 0.61914060
				-5.34711300 30.68033000 -13.50977000 / 0.87638600 0.48160930 0.00000000 / 42 141 11 255 / 3.98632800 0.61914060
				-0.72455120 33.03579000 -12.84619000 / 0.45298840 -0.89151640 0.00000000 / 42 141 11 255 / -0.16015630 0.84375000
				-0.73089550 32.97525000 -12.88037000 / -0.00000600 0.00000000 1.00000000 / 42 141 11 255 / 1.41406200 0.56835940
				-5.32269400 30.63589000 -13.50977000 / 0.87638600 0.48160930 0.00000000 / 42 141 11 255 / 3.98632800 0.56835940
				-5.32269300 30.63589000 -13.50977000 / 0.87648860 0.48142260 0.00000000 / 42 141 11 255 / 3.98632800 0.56835940
				-5.32269400 30.63589000 -12.88037000 / 0.87648860 0.48142260 0.00000000 / 42 141 11 255 / 1.41406200 0.56835940
				-8.13519700 29.25992000 -13.50977000 / -0.87868900 -0.47739490 0.00000000 / 42 141 11 255 / -7.62500000 0.61914060
				-3.54339700 31.59927000 -13.50977000 / 0.00000000 0.00000000 -1.00000000 / 42 141 11 255 / 10.45508000 0.61914060
				-8.13519400 29.25991000 -13.50977000 / -0.87866710 -0.47743490 0.00000000 / 42 141 11 255 / -7.62500000 0.61914060
				-5.34711200 30.68033000 -13.50977000 / 0.45383820 -0.89108300 0.00143050 / 42 141 11 255 / -0.14648440 1.37695300
				-8.13519400 29.25992000 -12.88037000 / -0.87868900 -0.47739490 0.00000000 / 42 141 11 255 / -5.05273400 0.61914060
				-8.11078000 29.21499000 -12.88037000 / -0.87868900 -0.47739490 0.00000000 / 42 141 11 255 / -5.05273400 0.56835940
				-8.11078000 29.21499000 -12.88037000 / -0.87866710 -0.47743490 0.00000000 / 42 141 11 255 / -5.05273400 0.56835940
				-8.11078000 29.21499000 -13.50977000 / -0.87866710 -0.47743490 0.00000000 / 42 141 11 255 / -7.62500000 0.56835940
				-0.73089550 32.97525000 -12.88037000 / 0.00002980 0.00000000 1.00000000 / 42 141 11 255 / 1.41406200 0.56835940
				-0.72455310 33.03579000 -12.84619000 / 0.45380990 -0.89109780 -0.00114440 / 42 141 11 255 / -0.16015630 0.84375000
				-10.09174000 28.26284000 -12.88037000 / 0.87856540 0.47762220 0.00000000 / 42 141 11 255 / 1.41406200 0.61914060
				-10.09174000 28.26284000 -12.88037000 / 0.87856540 0.47762220 0.00000000 / 42 141 11 255 / 1.41406200 0.61914060
				-10.09174000 28.26284000 -13.50977000 / 0.87856540 0.47762220 0.00000000 / 42 141 11 255 / 3.98632800 0.61914060
				-10.06732000 28.21792000 -13.50977000 / 0.87856540 0.47762220 0.00000000 / 42 141 11 255 / 3.98632800 0.56835940
				-5.34711100 30.68033000 -13.50977000 / 0.45269820 -0.89166380 0.00000000 / 42 141 11 255 / -0.14648440 1.37695300
				-10.06732000 28.21792000 -13.50977000 / 0.87856540 0.47762220 0.00000000 / 42 141 11 255 / 3.98632800 0.56835940
				-3.51898400 31.55484000 -13.50977000 / 0.00000000 0.00000000 -1.00000000 / 42 141 11 255 / 10.45508000 0.56835940
				-10.06732000 28.21792000 -12.88037000 / 0.87856540 0.47762220 0.00000000 / 42 141 11 255 / 1.41406200 0.56835940
				-3.51898100 31.55484000 -13.50977000 / 0.00000000 0.00000000 -1.00000000 / 42 141 11 255 / 10.45508000 0.56835940
				-2.40716500 32.12124000 -13.50977000 / 0.00000000 0.00000000 -1.00000000 / 42 141 11 255 / 7.87518300 0.56835940
				-8.13519600 29.25992000 -12.88037000 / 0.45307840 -0.89147070 0.00000000 / 42 141 11 255 / 1.14648400 0.86328130
				-2.40716900 32.12124000 -13.50977000 / 0.00000000 0.00000000 -1.00000000 / 42 141 11 255 / 7.87518300 0.56835940
				-1.84271400 32.40884000 -12.88037000 / 0.00002380 0.00000000 1.00000000 / 42 141 11 255 / -1.16505400 0.56835940
				-1.84271500 32.40884000 -12.88037000 / 0.00001190 0.00000000 1.00000000 / 42 141 11 255 / -1.16505400 0.56835940
				-2.40717000 32.12124000 -12.88037000 / 0.00002380 0.00000000 1.00000000 / 42 141 11 255 / -2.47361800 0.56835940
			}
		}
		Geometry
		{
			ShaderIndex 4
			Flags -
			VertexDeclaration N51263BB5
			Indices 138
			{
				2 0 3 5 4 1 8 6 9 11 10 7 14 12 15
				17 16 13 20 18 21 23 22 19 26 24 27 25 30 28
				33 29 31 32 36 34 40 35 37 41 38 42 44 43 39
				47 45 48 46 51 49 56 50 52 58 57 53 59 54 60
				62 61 55 65 63 66 69 67 64 68 70 72 71 75 73
				77 74 76 80 78 81 84 82 79 87 83 85 86 90 88
				92 89 91 97 93 98 100 99 94 101 95 102 104 103 96
				107 105 108 112 109 106 114 110 113 111 115 117 121 118 116
				122 123 119 125 120 124 128 126 129 133 130 127 134 135 131
				137 132 136
			}
			Vertices 138
			{
				-4.82122900 30.94839000 -16.96680000 / 0.45406710 -0.89096720 0.00057220 / 42 141 11 255 / 4.50589000 -0.50500490 / -0.89096740 -0.45406720 0.00000000 -1.00000000
				-4.82122700 30.94838000 -16.96680000 / 0.45406720 -0.89096740 0.00038150 / 42 141 11 255 / 4.50589000 -0.50500490 / -0.89096740 -0.45406720 0.00000000 -1.00000000
				-4.82318000 30.94693000 -17.61328000 / 0.45406710 -0.89096720 0.00057220 / 42 141 11 255 / 4.50672900 -0.07403560 / -0.89096740 -0.45406720 0.00000000 -1.00000000
				-8.65912100 28.99233000 -17.61328000 / 0.45406710 -0.89096720 0.00057220 / 42 141 11 255 / 7.00071700 -0.07403560 / -0.89096740 -0.45406720 0.00000000 -1.00000000
				-8.65911900 28.99233000 -17.61328000 / 0.45406720 -0.89096740 0.00038150 / 42 141 11 255 / 7.00071700 -0.07403560 / -0.89096740 -0.45406720 0.00000000 -1.00000000
				-8.65960700 28.99233000 -16.96680000 / 0.45406720 -0.89096740 0.00038150 / 42 141 11 255 / 7.00071700 -0.50500490 / -0.89096740 -0.45406720 0.00000000 -1.00000000
				-14.34027000 26.09780000 -16.96680000 / 0.45399150 -0.89100600 0.00000000 / 42 141 11 255 / 9.00000000 -0.50585940 / -0.89100600 -0.45399150 0.00000060 -1.00000000
				-14.34027000 26.09780000 -16.96680000 / 0.45399150 -0.89100600 0.00000000 / 42 141 11 255 / 9.00000000 -0.50585940 / -0.89100600 -0.45399150 0.00000060 -1.00000000
				-14.34027000 26.09781000 -18.04150000 / 0.45399150 -0.89100600 0.00000000 / 42 141 11 255 / 9.00000000 0.21093750 / -0.89100600 -0.45399150 0.00000060 -1.00000000
				-16.97846000 24.75357000 -18.04149000 / 0.45399150 -0.89100600 0.00000000 / 42 141 11 255 / 11.00000000 0.21093750 / -0.89100600 -0.45399150 0.00000060 -1.00000000
				-16.97846000 24.75357000 -18.04149000 / 0.45399150 -0.89100600 0.00000000 / 42 141 11 255 / 11.00000000 0.21093750 / -0.89100600 -0.45399150 0.00000060 -1.00000000
				-16.97845000 24.75356000 -16.96679000 / 0.45399150 -0.89100600 0.00000000 / 42 141 11 255 / 11.00000000 -0.50585940 / -0.89100600 -0.45399150 0.00000060 -1.00000000
				0.95660590 32.56704000 -16.96680000 / -0.89122160 -0.45356810 0.00000000 / 42 141 11 255 / 12.72539000 -0.50498960 / -0.45356810 0.89122160 0.00000000 -1.00000000
				0.95660400 32.56704000 -16.96680000 / -0.89122160 -0.45356810 0.00000000 / 42 141 11 255 / 12.72539000 -0.50498960 / -0.45356810 0.89122160 -0.00005050 -1.00000000
				0.95660400 32.56704000 -18.04150000 / -0.89122160 -0.45356810 0.00000000 / 42 141 11 255 / 12.72539000 0.21153260 / -0.45356810 0.89122160 0.00000000 -1.00000000
				0.75103860 32.97085000 -18.04150000 / -0.89122160 -0.45356810 0.00000000 / 42 141 11 255 / 13.00192000 0.21153260 / -0.45356810 0.89122160 0.00000000 -1.00000000
				0.75103660 32.97085000 -18.04150000 / -0.89122160 -0.45356810 0.00000000 / 42 141 11 255 / 13.00192000 0.21153260 / -0.45356810 0.89122160 -0.00005050 -1.00000000
				0.75103760 32.97085000 -16.96680000 / -0.89122160 -0.45356810 0.00000000 / 42 141 11 255 / 13.00194000 -0.50500490 / -0.45356810 0.89122160 -0.00005050 -1.00000000
				0.95659920 32.56704000 -18.04150000 / 0.45380080 -0.89110310 0.00000000 / 42 141 11 255 / -0.99974060 0.21153260 / -0.89110310 -0.45380080 0.00000000 -1.00000000
				0.95660210 32.56704000 -18.04150000 / 0.45380080 -0.89110310 0.00000000 / 42 141 11 255 / -0.99974060 0.21153260 / -0.89110310 -0.45380080 0.00000000 -1.00000000
				0.95659920 32.56704000 -16.96680000 / 0.45380080 -0.89110310 0.00000000 / 42 141 11 255 / -0.99974060 -0.50500490 / -0.89110310 -0.45380080 0.00000000 -1.00000000
				2.14800800 33.17398000 -16.96680000 / 0.45381970 -0.89109360 0.00000000 / 42 141 11 255 / -1.89643900 -0.50500490 / -0.89109350 -0.45381970 0.00000000 -1.00000000
				2.14801100 33.17398000 -16.96680000 / 0.45381970 -0.89109360 0.00000000 / 42 141 11 255 / -1.89643900 -0.50500490 / -0.89109350 -0.45381970 0.00000000 -1.00000000
				2.14801000 33.17398000 -18.04150000 / 0.45381970 -0.89109360 0.00000000 / 42 141 11 255 / -1.89643900 0.21153260 / -0.89109350 -0.45381970 0.00000000 -1.00000000
				-4.06683800 31.33267000 -17.20508000 / 0.45410500 -0.89094810 0.00057220 / 42 141 11 255 / -0.00151060 1.66163600 / -0.89094810 -0.45410500 0.00000000 -1.00000000
				-4.06683700 31.33267000 -17.20508000 / 0.45444720 -0.89077370 0.00000000 / 42 141 11 255 / -0.00151060 1.66163600 / -0.89077280 -0.45444680 -0.00135980 -1.00000000
				-4.06634700 31.33267000 -17.61328000 / 0.45410500 -0.89094810 0.00057220 / 42 141 11 255 / -0.00151060 1.93379200 / -0.89094810 -0.45410500 0.00000000 -1.00000000
				-4.82318100 30.94693000 -17.61328000 / 0.45410500 -0.89094810 0.00057220 / 42 141 11 255 / 0.50068660 1.93379200 / -0.89094810 -0.45410500 0.00000000 -1.00000000
				-4.82317900 30.94692000 -17.61328000 / 0.45444720 -0.89077370 0.00000000 / 42 141 11 255 / 0.50068660 1.93379200 / -0.89077280 -0.45444680 -0.00135980 -1.00000000
				-4.82318000 30.94693000 -17.61328000 / 0.45383860 -0.89108380 0.00057220 / 42 141 11 255 / 0.50068660 1.93379200 / -0.89108380 -0.45383800 0.00089300 -1.00000000
				-4.06683400 31.33267000 -16.96680000 / 0.45444720 -0.89077370 0.00000000 / 42 141 11 255 / -0.00151060 1.50231900 / -0.89077280 -0.45444680 -0.00135980 -1.00000000
				-4.06683500 31.33267000 -16.96680000 / 0.45383860 -0.89108380 0.00057220 / 42 141 11 255 / -0.00151060 1.50231900 / -0.89108380 -0.45383800 0.00089300 -1.00000000
				-4.06683400 31.33267000 -16.96680000 / 0.45383860 -0.89108390 0.00000000 / 42 141 11 255 / -0.00151060 1.50231900 / -0.89108340 -0.45383840 0.00100560 -1.00000000
				-4.82122800 30.94839000 -16.96680000 / 0.45383860 -0.89108380 0.00057220 / 42 141 11 255 / 0.50068660 1.50282300 / -0.89108380 -0.45383800 0.00089300 -1.00000000
				-4.82122800 30.94839000 -16.96680000 / 0.45383860 -0.89108390 0.00000000 / 42 141 11 255 / 0.50068660 1.50282300 / -0.89108340 -0.45383840 0.00100560 -1.00000000
				-4.82122800 30.94839000 -16.96680000 / 0.45342060 -0.89129660 0.00019070 / 42 141 11 255 / 0.50068660 1.50282300 / -0.89129640 -0.45342070 -0.00051870 -1.00000000
				-4.06781000 31.33217000 -14.60741000 / 0.45383860 -0.89108390 0.00000000 / 42 141 11 255 / -0.00151060 0.10556030 / -0.89108340 -0.45383840 0.00100560 -1.00000000
				-4.06780900 31.33217000 -14.60742000 / 0.45342060 -0.89129660 0.00019070 / 42 141 11 255 / -0.00151060 0.10556030 / -0.89129640 -0.45342070 -0.00051870 -1.00000000
				-4.06780900 31.33217000 -14.60742000 / 0.45342060 -0.89129660 -0.00028610 / 42 141 11 255 / -0.00151060 0.10556030 / -0.89129660 -0.45342050 -0.00051870 -1.00000000
				-4.06781000 31.33218000 -14.60742000 / 0.45410500 -0.89094810 0.00000000 / 42 141 11 255 / -0.00151060 0.10556030 / -0.89094810 -0.45410500 0.00000000 -1.00000000
				-4.82025200 30.94936000 -14.60742000 / 0.45342060 -0.89129660 0.00019070 / 42 141 11 255 / 0.50068660 0.10530090 / -0.89129640 -0.45342070 -0.00051870 -1.00000000
				-4.82025300 30.94936000 -14.60742000 / 0.45342060 -0.89129660 -0.00028610 / 42 141 11 255 / 0.50068660 0.10530090 / -0.89129660 -0.45342050 -0.00051870 -1.00000000
				-4.82269200 30.94740000 -12.51563000 / 0.45342060 -0.89129660 -0.00028610 / 42 141 11 255 / 0.50068660 -1.13374300 / -0.89129660 -0.45342050 -0.00051870 -1.00000000
				-4.82269300 30.94741000 -12.51563000 / 0.45410500 -0.89094810 0.00000000 / 42 141 11 255 / 0.50068660 -1.13374300 / -0.89094810 -0.45410500 0.00000000 -1.00000000
				-4.06585700 31.33316000 -12.51563000 / 0.45410500 -0.89094810 0.00000000 / 42 141 11 255 / -0.00151060 -1.13374300 / -0.89094810 -0.45410500 0.00000000 -1.00000000
				-14.34027000 26.09780000 -12.51563000 / 0.45406720 -0.89096750 -0.00009540 / 42 141 11 255 / 2.49417100 -1.13319400 / -0.89096740 -0.45406720 0.00000000 -1.00000000
				-14.34027000 26.09780000 -12.51563000 / 0.45429430 -0.89085170 0.00000000 / 42 141 11 255 / 2.49417100 -1.13319400 / -0.89085160 -0.45429420 -0.00051180 -1.00000000
				-13.58148000 26.48452000 -12.51563000 / 0.45406720 -0.89096750 -0.00009540 / 42 141 11 255 / 2.00541700 -1.13319400 / -0.89096740 -0.45406720 0.00000000 -1.00000000
				-13.58197000 26.48452000 -14.37109000 / 0.45406720 -0.89096750 -0.00009540 / 42 141 11 255 / 2.00543200 -0.03388980 / -0.89096740 -0.45406720 0.00000000 -1.00000000
				-13.58197000 26.48452000 -14.37109000 / 0.45429430 -0.89085170 0.00000000 / 42 141 11 255 / 2.00543200 -0.03388980 / -0.89085160 -0.45429420 -0.00051180 -1.00000000
				-13.58197000 26.48452000 -14.37109000 / 0.45429430 -0.89085170 0.00000000 / 42 141 11 255 / 2.00543200 -0.03388980 / -0.89068050 -0.45420700 -0.01960390 -1.00000000
				-14.34027000 26.09780000 -16.96680000 / 0.45429430 -0.89085170 0.00000000 / 42 141 11 255 / 2.49417100 1.50337200 / -0.89085160 -0.45429420 -0.00051180 -1.00000000
				-14.34027000 26.09780000 -16.96680000 / 0.45429430 -0.89085170 0.00000000 / 42 141 11 255 / 2.49417100 1.50337200 / -0.89068050 -0.45420700 -0.01960390 -1.00000000
				-14.34027000 26.09780000 -16.96680000 / 0.45429430 -0.89085170 0.00000000 / 42 141 11 255 / 2.49417100 1.50337200 / -0.89065860 -0.45419580 -0.02081860 -1.00000000
				-14.34027000 26.09780000 -16.96680000 / 0.45444720 -0.89077370 0.00038150 / 42 141 11 255 / 2.49417100 1.50337200 / -0.89041560 -0.45425230 0.02854700 -1.00000000
				-14.34027000 26.09780000 -16.96680000 / 0.45406720 -0.89096750 0.00000000 / 42 141 11 255 / 2.49417100 1.50337200 / -0.89096740 -0.45406720 0.00000000 -1.00000000
				-13.58197000 26.48452000 -15.00439000 / 0.45429430 -0.89085170 0.00000000 / 42 141 11 255 / 2.00459300 0.34359740 / -0.89068050 -0.45420700 -0.01960390 -1.00000000
				-13.58197000 26.48452000 -15.00439000 / 0.45429430 -0.89085170 0.00000000 / 42 141 11 255 / 2.00459300 0.34359740 / -0.89065860 -0.45419580 -0.02081860 -1.00000000
				-13.58197000 26.48452000 -17.28320000 / 0.45429430 -0.89085170 0.00000000 / 42 141 11 255 / 2.00161700 1.70263700 / -0.89065860 -0.45419580 -0.02081860 -1.00000000
				-13.58197000 26.48452000 -17.28320000 / 0.45444720 -0.89077370 0.00038150 / 42 141 11 255 / 2.00161700 1.70263700 / -0.89041560 -0.45425230 0.02854700 -1.00000000
				-13.58051000 26.48501000 -18.04150000 / 0.45444720 -0.89077370 0.00038150 / 42 141 11 255 / 2.00222800 2.21992500 / -0.89041560 -0.45425230 0.02854700 -1.00000000
				-13.58051000 26.48501000 -18.04150000 / 0.45406720 -0.89096750 0.00000000 / 42 141 11 255 / 2.00222800 2.21992500 / -0.89096740 -0.45406720 0.00000000 -1.00000000
				-14.34027000 26.09780000 -18.04150000 / 0.45406720 -0.89096750 0.00000000 / 42 141 11 255 / 2.49417100 2.21992500 / -0.89096740 -0.45406720 0.00000000 -1.00000000
				-3.78997600 30.78775000 -17.61327000 / -0.89189950 -0.45223210 -0.00114440 / 42 141 11 255 / -0.50151060 2.00227400 / -0.45223240 0.89190010 -0.00000610 -1.00000000
				-3.78997900 30.78775000 -17.61327000 / -0.89151410 -0.45299300 0.00000000 / 42 141 11 255 / -0.50151060 2.00227400 / -0.45295150 0.89143260 0.01353210 -1.00000000
				-4.06634500 31.33267000 -17.61328000 / -0.89189460 -0.45224170 -0.00114440 / 42 141 11 255 / -0.00151060 2.00227400 / -0.45224200 0.89189520 -0.00000610 -1.00000000
				-4.06683400 31.33267000 -17.20508000 / -0.89189460 -0.45224170 -0.00114440 / 42 141 11 255 / -0.00151060 1.66163600 / -0.45224200 0.89189520 -0.00000610 -1.00000000
				-4.06683900 31.33267000 -17.20508000 / -0.89151900 -0.45298340 0.00000000 / 42 141 11 255 / -0.00151060 1.66163600 / -0.45294190 0.89143740 0.01353210 -1.00000000
				-4.06683700 31.33267000 -17.20508000 / -0.89151900 -0.45298340 0.00000000 / 42 141 11 255 / -0.00151060 1.66163600 / -0.45261740 0.89079870 0.04019020 -1.00000000
				-3.78997900 30.78775000 -17.15381000 / -0.89151410 -0.45299300 0.00000000 / 42 141 11 255 / -0.50151060 1.61091600 / -0.45295150 0.89143260 0.01353210 -1.00000000
				-3.78997800 30.78774000 -17.15381000 / -0.89151410 -0.45299300 0.00000000 / 42 141 11 255 / -0.50151060 1.61091600 / -0.45262700 0.89079370 0.04019020 -1.00000000
				-3.78997700 30.78774000 -17.15381000 / -0.89151410 -0.45299300 0.00000000 / 42 141 11 255 / -0.50151060 1.61091600 / -0.45298650 0.89150130 0.00535480 -1.00000000
				-4.06683300 31.33266000 -16.96680000 / -0.89151900 -0.45298340 0.00000000 / 42 141 11 255 / -0.00151060 1.50231900 / -0.45261740 0.89079870 0.04019020 -1.00000000
				-4.06683400 31.33267000 -16.96680000 / -0.89151900 -0.45298340 0.00000000 / 42 141 11 255 / -0.00151060 1.50231900 / -0.45297690 0.89150620 0.00535480 -1.00000000
				-4.06683300 31.33267000 -16.96680000 / -0.89073510 -0.45452280 -0.00038150 / 42 141 11 255 / -0.00151060 1.50231900 / -0.45452240 0.89073500 -0.00075910 -1.00000000
				-3.78997700 30.78774000 -14.60742000 / -0.89151410 -0.45299300 0.00000000 / 42 141 11 255 / -0.50152590 0.10583500 / -0.45298650 0.89150130 0.00535480 -1.00000000
				-3.78997800 30.78775000 -14.60742000 / -0.89073500 -0.45452280 -0.00047680 / 42 141 11 255 / -0.50152590 0.10583500 / -0.45452240 0.89073500 -0.00075910 -1.00000000
				-4.06780900 31.33217000 -14.60742000 / -0.89073500 -0.45452280 -0.00047680 / 42 141 11 255 / -0.00151060 0.10556030 / -0.45452240 0.89073500 -0.00075910 -1.00000000
				0.41998100 33.62027000 -18.04150000 / 0.45448740 -0.89075310 0.00000000 / 42 141 11 255 / -0.50038150 2.20243800 / -0.89075320 -0.45448740 0.00000000 -1.00000000
				0.41998100 33.62027000 -18.04150000 / 0.45448740 -0.89075310 0.00000000 / 42 141 11 255 / -0.50038150 2.20243800 / -0.89075310 -0.45448740 0.00000000 -1.00000000
				-0.22845600 33.28970000 -18.04150000 / 0.45448500 -0.89075440 0.00000000 / 42 141 11 255 / -0.00021360 2.20243800 / -0.89075440 -0.45448500 0.00000000 -1.00000000
				-0.22845840 33.28970000 -17.20557000 / 0.45448500 -0.89075440 0.00000000 / 42 141 11 255 / -0.00021360 1.63487200 / -0.89075440 -0.45448500 0.00000000 -1.00000000
				-0.22845740 33.28970000 -17.20557000 / 0.45448500 -0.89075440 0.00000000 / 42 141 11 255 / -0.00021360 1.63487200 / -0.89075440 -0.45448500 0.00000000 -1.00000000
				-0.22845410 33.28970000 -17.20557000 / 0.45448500 -0.89075430 -0.00019070 / 42 141 11 255 / -0.00021360 1.63487200 / -0.89075440 -0.45448500 0.00000000 -1.00000000
				0.41997910 33.62027000 -17.20557000 / 0.45448740 -0.89075310 0.00000000 / 42 141 11 255 / -0.50038150 1.63487200 / -0.89075310 -0.45448740 0.00000000 -1.00000000
				0.41998480 33.62027000 -17.20557000 / 0.45448500 -0.89075430 -0.00019070 / 42 141 11 255 / -0.50038150 1.63487200 / -0.89075440 -0.45448500 0.00000000 -1.00000000
				0.41998290 33.62027000 -17.20557000 / 0.45380550 -0.89110080 -0.00019070 / 42 141 11 255 / -0.50038150 1.63487200 / -0.89101670 -0.45375980 -0.01383380 -1.00000000
				-0.22845120 33.28920000 -14.60742000 / 0.45448500 -0.89075430 -0.00019070 / 42 141 11 255 / -0.00021360 0.09526059 / -0.89075440 -0.45448500 0.00000000 -1.00000000
				-0.22845310 33.28920000 -14.60742000 / 0.45380550 -0.89110080 -0.00019070 / 42 141 11 255 / -0.00021360 0.09526059 / -0.89101670 -0.45375980 -0.01383380 -1.00000000
				-0.22845690 33.28921000 -14.60742000 / 0.45448740 -0.89075310 -0.00028610 / 42 141 11 255 / -0.00021360 0.09526059 / -0.89075310 -0.45448730 -0.00028640 -1.00000000
				0.42047410 33.61928000 -12.51563000 / 0.45380550 -0.89110080 -0.00019070 / 42 141 11 255 / -0.50041200 -1.13356000 / -0.89101670 -0.45375980 -0.01383380 -1.00000000
				0.42047120 33.61928000 -12.51563000 / 0.45448740 -0.89075310 -0.00028610 / 42 141 11 255 / -0.50041200 -1.13356000 / -0.89075310 -0.45448730 -0.00028640 -1.00000000
				-0.22601270 33.28970000 -12.51563000 / 0.45448740 -0.89075310 -0.00028610 / 42 141 11 255 / -0.00021360 -1.13368200 / -0.89075310 -0.45448730 -0.00028640 -1.00000000
				0.04888820 32.74477000 -17.15381000 / 0.89102770 0.45394900 0.00000000 / 42 141 11 255 / 0.49980160 1.60318000 / 0.45394900 -0.89102770 0.00000000 -1.00000000
				0.04889010 32.74477000 -17.15381000 / 0.89122190 0.45356740 0.00000000 / 42 141 11 255 / 0.49980160 1.60318000 / 0.45356570 -0.89121840 -0.00280930 -1.00000000
				0.04888920 32.74478000 -17.15381000 / 0.89122190 0.45356760 0.00000000 / 42 141 11 255 / 0.49980160 1.60318000 / 0.45355190 -0.89119110 0.00831890 -1.00000000
				0.04888820 32.74477000 -17.15381000 / 0.89122190 0.45356740 0.00000000 / 42 141 11 255 / 0.49980160 1.60318000 / 0.45356740 -0.89122190 0.00000940 -1.00000000
				0.04888820 32.74477000 -14.60742000 / 0.89102770 0.45394900 0.00000000 / 42 141 11 255 / 0.49978640 0.09526059 / 0.45394900 -0.89102770 0.00000000 -1.00000000
				-0.22845500 33.28920000 -14.60742000 / 0.89102780 0.45394870 0.00000000 / 42 141 11 255 / -0.00021360 0.09526059 / 0.45394870 -0.89102780 0.00000000 -1.00000000
				-0.22845310 33.28920000 -14.60742000 / 0.89122190 0.45356740 0.00009540 / 42 141 11 255 / -0.00021360 0.09526059 / 0.45356590 -0.89121830 -0.00280930 -1.00000000
				-0.22845410 33.28970000 -17.20557000 / 0.89122190 0.45356740 0.00000000 / 42 141 11 255 / -0.00021360 1.63487200 / 0.45356570 -0.89121840 -0.00280930 -1.00000000
				-0.22845690 33.28970000 -17.20557000 / 0.89122190 0.45356740 0.00000000 / 42 141 11 255 / -0.00021360 1.63487200 / 0.45355180 -0.89119110 0.00831890 -1.00000000
				-0.22845310 33.28970000 -18.04150000 / 0.89122190 0.45356740 0.00000000 / 42 141 11 255 / -0.00021360 2.20243800 / 0.45355180 -0.89119110 0.00831890 -1.00000000
				-0.22845600 33.28969000 -18.04150000 / 0.89122190 0.45356740 0.00000000 / 42 141 11 255 / -0.00021360 2.20243800 / 0.45356740 -0.89122190 0.00000940 -1.00000000
				0.04888820 32.74477000 -18.04149000 / 0.89122190 0.45356740 0.00000000 / 42 141 11 255 / 0.49980160 2.20243800 / 0.45356740 -0.89122190 0.00000940 -1.00000000
				-9.41741900 28.60609000 -12.51563000 / 0.45414290 -0.89092890 -0.00019070 / 42 141 11 255 / 3.50454700 -1.13319400 / -0.89092890 -0.45414290 0.00000000 -1.00000000
				-9.41741900 28.60609000 -12.51563000 / 0.45406720 -0.89096750 -0.00019070 / 42 141 11 255 / 3.50454700 -1.13319400 / -0.89096620 -0.45406690 0.00154110 -1.00000000
				-8.65960600 28.99233000 -12.51563000 / 0.45414290 -0.89092890 -0.00019070 / 42 141 11 255 / 3.00453200 -1.13319400 / -0.89092890 -0.45414290 0.00000000 -1.00000000
				-8.65960700 28.99281000 -14.60742000 / 0.45414290 -0.89092890 -0.00019070 / 42 141 11 255 / 3.00453200 0.10583500 / -0.89092890 -0.45414290 0.00000000 -1.00000000
				-8.65960700 28.99282000 -14.60742000 / 0.45406720 -0.89096750 -0.00019070 / 42 141 11 255 / 3.00453200 0.10583500 / -0.89096620 -0.45406690 0.00154110 -1.00000000
				-8.65960700 28.99281000 -14.60742000 / 0.45414290 -0.89092890 0.00000000 / 42 141 11 255 / 3.00453200 0.10583500 / -0.89092810 -0.45414250 0.00128910 -1.00000000
				-8.65961000 28.99282000 -14.60742000 / 0.45406720 -0.89096750 0.00019070 / 42 141 11 255 / 3.00453200 0.10583500 / -0.89096700 -0.45406670 0.00114850 -1.00000000
				-9.41546600 28.60757000 -14.37158000 / 0.45406720 -0.89096750 -0.00019070 / 42 141 11 255 / 3.50454700 -0.03317260 / -0.89096620 -0.45406690 0.00154110 -1.00000000
				-9.41546900 28.60757000 -14.37158000 / 0.45414290 -0.89092890 0.00000000 / 42 141 11 255 / 3.50454700 -0.03317260 / -0.89092810 -0.45414250 0.00128910 -1.00000000
				-9.41546700 28.60757000 -15.00439000 / 0.45414290 -0.89092890 0.00000000 / 42 141 11 255 / 3.50454700 0.34155270 / -0.89092810 -0.45414250 0.00128910 -1.00000000
				-9.41547100 28.60757000 -15.00439000 / 0.45406720 -0.89096750 0.00019070 / 42 141 11 255 / 3.50454700 0.34155270 / -0.89096700 -0.45406670 0.00114850 -1.00000000
				-9.41546900 28.60757000 -15.00439000 / 0.45368720 -0.89116100 0.00000000 / 42 141 11 255 / 3.50454700 0.34155270 / -0.89101140 -0.45361110 -0.01831450 -1.00000000
				-8.65961000 28.99233000 -16.96680000 / 0.45406720 -0.89096750 0.00019070 / 42 141 11 255 / 3.00453200 1.50338800 / -0.89096700 -0.45406670 0.00114850 -1.00000000
				-8.65960700 28.99233000 -16.96680000 / 0.45368720 -0.89116100 0.00000000 / 42 141 11 255 / 3.00453200 1.50338800 / -0.89101140 -0.45361110 -0.01831450 -1.00000000
				-8.65960700 28.99233000 -16.96680000 / 0.45300180 -0.89150760 0.00190740 / 42 141 11 255 / 3.00453200 1.50338800 / -0.88673800 -0.45079720 -0.10236040 -1.00000000
				-8.65960700 28.99233000 -16.96680000 / 0.45406720 -0.89096740 0.00038150 / 42 141 11 255 / 3.00453200 1.50338800 / -0.89096740 -0.45406720 0.00000000 -1.00000000
				-9.41645000 28.60708000 -17.28369000 / 0.45368720 -0.89116100 0.00000000 / 42 141 11 255 / 3.50454700 1.68038900 / -0.89101140 -0.45361110 -0.01831450 -1.00000000
				-9.41644600 28.60708000 -17.28369000 / 0.45300180 -0.89150760 0.00190740 / 42 141 11 255 / 3.50454700 1.68038900 / -0.88673800 -0.45079720 -0.10236040 -1.00000000
				-9.41888700 28.60512000 -17.61328000 / 0.45300180 -0.89150760 0.00190740 / 42 141 11 255 / 3.50454700 1.93434100 / -0.88673800 -0.45079720 -0.10236040 -1.00000000
				-9.41888800 28.60512000 -17.61328000 / 0.45406720 -0.89096740 0.00038150 / 42 141 11 255 / 3.50454700 1.93434100 / -0.89096740 -0.45406720 0.00000000 -1.00000000
				-8.65911900 28.99233000 -17.61328000 / 0.45406720 -0.89096740 0.00038150 / 42 141 11 255 / 3.00453200 1.93434100 / -0.89096740 -0.45406720 0.00000000 -1.00000000
				0.75103660 32.97085000 -18.04150000 / -0.89083330 -0.45433050 0.00000000 / 42 141 11 255 / -1.00038100 2.20239300 / -0.45433050 0.89083320 0.00009100 -1.00000000
				0.75103860 32.97085000 -18.04150000 / -0.89083330 -0.45433050 0.00000000 / 42 141 11 255 / -1.00038100 2.20239300 / -0.45397250 0.89013150 -0.03968450 -1.00000000
				0.41998290 33.62027000 -18.04150000 / -0.89083330 -0.45433050 0.00000000 / 42 141 11 255 / -0.50038150 2.20243800 / -0.45433050 0.89083320 0.00009100 -1.00000000
				0.41998100 33.62027000 -17.20557000 / -0.89083330 -0.45433050 0.00000000 / 42 141 11 255 / -0.50038150 1.63487200 / -0.45433050 0.89083320 0.00009100 -1.00000000
				0.41998200 33.62027000 -17.20557000 / -0.89083330 -0.45433050 0.00000000 / 42 141 11 255 / -0.50038150 1.63487200 / -0.45397250 0.89013150 -0.03968450 -1.00000000
				0.41998290 33.62027000 -17.20557000 / -0.89083300 -0.45433040 -0.00019070 / 42 141 11 255 / -0.50038150 1.63487200 / -0.45431470 0.89080560 -0.00797140 -1.00000000
				0.41998100 33.62027000 -17.20557000 / -0.89122160 -0.45356810 0.00000000 / 42 141 11 255 / -0.50038150 1.63487200 / -0.45356810 0.89122160 -0.00024770 -1.00000000
				0.75104140 32.97085000 -16.96680000 / -0.89083330 -0.45433050 0.00000000 / 42 141 11 255 / -1.00038100 1.49719200 / -0.45397250 0.89013150 -0.03968450 -1.00000000
				0.75103950 32.97085000 -16.96680000 / -0.89083300 -0.45433040 -0.00019070 / 42 141 11 255 / -1.00038100 1.49719200 / -0.45431470 0.89080560 -0.00797140 -1.00000000
				0.75055120 32.97084000 -12.51563000 / -0.89083330 -0.45433050 -0.00009540 / 42 141 11 255 / -1.00025900 -1.13345300 / -0.45431530 0.89080520 -0.00797130 -1.00000000
				0.75055030 32.97084000 -12.51563000 / -0.89122160 -0.45356810 0.00000000 / 42 141 11 255 / -1.00025900 -1.13345300 / -0.45356810 0.89122160 -0.00024770 -1.00000000
				0.42047410 33.61929000 -12.51563000 / -0.89122160 -0.45356810 0.00000000 / 42 141 11 255 / -0.50041200 -1.13356000 / -0.45356810 0.89122160 -0.00024770 -1.00000000
			}
		}
		Geometry
		{
			ShaderIndex 8
			Flags -
			VertexDeclaration N209731BE
			Indices 78
			{
				76 57 60 77 71 69 2 0 3 5 4 1 8 6 9
				11 10 7 17 12 18 20 19 13 14 24 21 27 22 25
				26 15 30 23 28 34 38 31 16 39 35 32 40 36 29
				41 33 37 44 45 42 47 43 46 52 48 54 53 58 49
				63 55 50 66 51 59 56 64 68 67 61 73 74 70 65
				72 75 62
			}
			Vertices 78
			{
				0.75104050 32.97084000 -16.96680000 / -0.89083300 -0.45433040 -0.00019070 / 42 141 11 255 / 0.40763850 1.00666800
				0.75103760 32.97085000 -16.96680000 / -0.89122160 -0.45356810 0.00000000 / 42 141 11 255 / 0.40763850 1.00666800
				0.75055220 32.97084000 -12.51563000 / -0.89083330 -0.45433050 -0.00009540 / 42 141 11 255 / 0.40765380 0.00062560
				0.95660500 32.56703000 -12.51563000 / -0.89083330 -0.45433050 -0.00009540 / 42 141 11 255 / 0.14999390 0.00062560
				0.95660310 32.56703000 -12.51563000 / -0.89122160 -0.45356810 0.00000000 / 42 141 11 255 / 0.14999390 0.00062560
				0.95660400 32.56703000 -16.96680000 / -0.89122160 -0.45356810 0.00000000 / 42 141 11 255 / 0.14997860 1.00669900
				2.14800800 33.17398000 -16.96680000 / 0.45381970 -0.89109360 0.00000000 / 42 141 11 255 / -4.70611600 1.00666800
				2.14801200 33.17398000 -16.96680000 / 0.45381970 -0.89109360 0.00000000 / 42 141 11 255 / -4.70611600 1.00666800
				0.95660110 32.56704000 -16.96680000 / 0.45380080 -0.89110310 0.00000000 / 42 141 11 255 / -4.03768900 1.00666800
				0.95660020 32.56704000 -12.51563000 / 0.45380080 -0.89110310 0.00000000 / 42 141 11 255 / -4.03767400 0.00062560
				0.95660590 32.56704000 -12.51563000 / 0.45380080 -0.89110310 0.00000000 / 42 141 11 255 / -4.03767400 0.00062560
				2.14801100 33.17398000 -12.51563000 / 0.45381970 -0.89109360 0.00000000 / 42 141 11 255 / -4.70611600 0.00062560
				-4.82025400 30.94937000 -14.60741000 / 0.45406720 -0.89096750 0.00019070 / 42 141 11 255 / -0.57722460 0.47351070
				-4.82025400 30.94937000 -14.60742000 / 0.45406720 -0.89096750 0.00019070 / 42 141 11 255 / -0.57722460 0.47351070
				-4.82025400 30.94937000 -14.60742000 / 0.45406720 -0.89096740 -0.00047690 / 42 141 11 255 / -0.57722460 0.47351070
				-4.82025500 30.94937000 -14.60742000 / 0.45490270 -0.89054120 0.00000000 / 42 141 11 255 / -0.57722460 0.47351070
				-4.82025100 30.94937000 -14.60742000 / 0.45406720 -0.89096750 -0.00028610 / 42 141 11 255 / -0.57722460 0.47351070
				-4.82122800 30.94839000 -16.96680000 / 0.45406720 -0.89096750 0.00019070 / 42 141 11 255 / -0.57730110 1.00595100
				-8.65960700 28.99233000 -16.96680000 / 0.45406720 -0.89096750 0.00019070 / 42 141 11 255 / 1.57730100 1.00595100
				-8.65960800 28.99233000 -16.96680000 / 0.45406720 -0.89096750 0.00019070 / 42 141 11 255 / 1.57730100 1.00595100
				-8.65961100 28.99282000 -14.60742000 / 0.45406720 -0.89096750 0.00019070 / 42 141 11 255 / 1.57722500 0.47351070
				-8.65960900 28.99282000 -14.60742000 / 0.45406720 -0.89096740 -0.00047690 / 42 141 11 255 / 1.57722500 0.47351070
				-8.65960700 28.99281000 -14.60742000 / 0.45391440 -0.89104540 0.00000000 / 42 141 11 255 / 1.57722500 0.47351070
				-8.65960500 28.99281000 -14.60742000 / 0.45421860 -0.89089020 -0.00019070 / 42 141 11 255 / 1.57722500 0.47351070
				-5.31634800 30.69595000 -13.54346000 / 0.45406720 -0.89096740 -0.00047690 / 42 141 11 255 / -0.29856870 0.23190310
				-5.31634400 30.69595000 -13.54346000 / 0.45383860 -0.89108390 0.00000000 / 42 141 11 255 / -0.29856870 0.23190310
				-5.31634900 30.69595000 -13.54346000 / 0.45490270 -0.89054120 0.00000000 / 42 141 11 255 / -0.29856870 0.23190310
				-8.16595700 29.24428000 -13.54346000 / 0.45391440 -0.89104540 0.00000000 / 42 141 11 255 / 1.30017100 0.23190310
				-8.16595500 29.24428000 -13.54346000 / 0.45421860 -0.89089020 -0.00019070 / 42 141 11 255 / 1.30017100 0.23190310
				-8.16595700 29.24429000 -13.54346000 / 0.45459850 -0.89069650 0.00000000 / 42 141 11 255 / 1.30017100 0.23190310
				-5.31634900 30.69595000 -12.84619000 / 0.45490270 -0.89054120 0.00000000 / 42 141 11 255 / -0.29856870 0.07353209
				-5.31634700 30.69595000 -12.84619000 / 0.45406720 -0.89096750 -0.00028610 / 42 141 11 255 / -0.29856870 0.07353209
				-5.31634900 30.69595000 -12.84619000 / 0.45406720 -0.89096750 -0.00019070 / 42 141 11 255 / -0.29856870 0.07353209
				-5.31634800 30.69595000 -12.84619000 / 0.45383820 -0.89108310 -0.00133510 / 42 141 11 255 / -0.29856870 0.07353209
				-8.65960400 28.99233000 -12.51563000 / 0.45421860 -0.89089020 -0.00019070 / 42 141 11 255 / 1.57713300 -0.00161740
				-8.65960600 28.99234000 -12.51563000 / 0.45406720 -0.89096750 -0.00019070 / 42 141 11 255 / 1.57713300 -0.00161740
				-8.65960700 28.99233000 -12.51563000 / 0.45459850 -0.89069650 0.00000000 / 42 141 11 255 / 1.57713300 -0.00161740
				-8.65960600 28.99233000 -12.51563000 / 0.45391390 -0.89104450 -0.00133500 / 42 141 11 255 / 1.57713300 -0.00161740
				-4.82269200 30.94741000 -12.51563000 / 0.45406720 -0.89096750 -0.00028610 / 42 141 11 255 / -0.57714840 -0.00161740
				-4.82269500 30.94741000 -12.51563000 / 0.45406720 -0.89096750 -0.00019070 / 42 141 11 255 / -0.57714840 -0.00161740
				-8.16595700 29.24429000 -12.84619000 / 0.45459850 -0.89069650 0.00000000 / 42 141 11 255 / 1.30017100 0.07353209
				-8.16595700 29.24429000 -12.84619000 / 0.45391390 -0.89104450 -0.00133500 / 42 141 11 255 / 1.30017100 0.07353209
				-13.58148000 26.48452000 -12.51563000 / 0.45414290 -0.89092880 0.00038150 / 42 141 11 255 / 1.66790800 0.00273130
				-13.58148000 26.48452000 -12.51563000 / 0.45399110 -0.89100520 -0.00143060 / 42 141 11 255 / 1.66790800 0.00273130
				-12.91059000 26.82632000 -12.84619000 / 0.45414290 -0.89092880 0.00038150 / 42 141 11 255 / 1.30023200 0.07569889
				-10.06147000 28.27847000 -12.84619000 / 0.45414290 -0.89092880 0.00038150 / 42 141 11 255 / -0.29850770 0.07569889
				-10.06147000 28.27847000 -12.84619000 / 0.45399110 -0.89100520 -0.00143060 / 42 141 11 255 / -0.29850770 0.07569889
				-9.41742000 28.60610000 -12.51563000 / 0.45399110 -0.89100520 -0.00143060 / 42 141 11 255 / -0.65283200 0.00265500
				-4.06585600 31.33315000 -12.51563000 / 0.45383860 -0.89108390 0.00000000 / 42 141 11 255 / 1.57719400 0.00054930
				-4.06585400 31.33315000 -12.51563000 / 0.45406720 -0.89096750 0.00019070 / 42 141 11 255 / 1.57719400 0.00054930
				-4.06585400 31.33315000 -12.51563000 / 0.45383860 -0.89108390 0.00000000 / 42 141 11 255 / 1.57719400 0.00054930
				-4.06585700 31.33315000 -12.51563000 / 0.45406720 -0.89096750 -0.00028610 / 42 141 11 255 / 1.57719400 0.00054930
				-3.57416000 31.58364000 -12.84619000 / 0.45381970 -0.89109360 0.00000000 / 42 141 11 255 / 1.30023200 0.07569889
				-3.57415700 31.58364000 -12.84619000 / 0.45412400 -0.89093850 0.00019070 / 42 141 11 255 / 1.30023200 0.07569889
				-3.57415900 31.58364000 -13.54346000 / 0.45381970 -0.89109360 0.00000000 / 42 141 11 255 / 1.30023200 0.23406980
				-3.57415600 31.58364000 -13.54346000 / 0.45381970 -0.89109360 0.00000000 / 42 141 11 255 / 1.30023200 0.23406980
				-3.57416000 31.58364000 -13.54346000 / 0.45412400 -0.89093850 -0.00009540 / 42 141 11 255 / 1.30023200 0.23406980
				-16.97846000 24.75356000 -16.96679000 / 0.45399150 -0.89100600 0.00000000 / 42 141 11 255 / 5.72596700 1.00666800
				-0.72454740 33.03579000 -12.84619000 / 0.45381030 -0.89109840 0.00019070 / 42 141 11 255 / -0.29850770 0.07569889
				-0.72455120 33.03579000 -12.84619000 / 0.45381020 -0.89109830 -0.00028610 / 42 141 11 255 / -0.29850770 0.07569889
				-14.34027000 26.09780000 -12.51563000 / 0.45399150 -0.89100600 0.00000000 / 42 141 11 255 / 4.24551400 0.00062560
				-0.72455120 33.03579000 -12.84619000 / 0.45381020 -0.89109830 -0.00028610 / 42 141 11 255 / -0.29850770 0.07569889
				-0.72455120 33.03579000 -12.84619000 / 0.45523050 -0.89037360 0.00000000 / 42 141 11 255 / -0.29850770 0.07569889
				-4.06780600 31.33217000 -14.60742000 / 0.45383860 -0.89108390 0.00000000 / 42 141 11 255 / 1.57719400 0.47567750
				-4.06781100 31.33217000 -14.60742000 / 0.45406720 -0.89096750 -0.00009540 / 42 141 11 255 / 1.57719400 0.47567750
				-4.06780400 31.33217000 -14.60742000 / 0.45414290 -0.89092880 -0.00047680 / 42 141 11 255 / 1.57719400 0.47567750
				-0.22601270 33.28970000 -12.51563000 / 0.45380790 -0.89109950 -0.00028610 / 42 141 11 255 / -0.57710270 0.00054930
				-0.22601270 33.28970000 -12.51563000 / 0.45380790 -0.89109950 -0.00028610 / 42 141 11 255 / -0.57710270 0.00054930
				-0.72455260 33.03579000 -13.54346000 / 0.45381030 -0.89109840 -0.00009540 / 42 141 11 255 / -0.29850770 0.23406980
				-16.97846000 24.75356000 -16.96679000 / 0.45399150 -0.89100600 0.00000000 / 42 141 11 255 / 5.72596700 1.00666800
				-0.72454690 33.03579000 -13.54346000 / 0.45382440 -0.89109100 -0.00047680 / 42 141 11 255 / -0.29850770 0.23406980
				-14.34027000 26.09780000 -12.51563000 / 0.45399150 -0.89100600 0.00000000 / 42 141 11 255 / 4.24551400 0.00062560
				-0.72455120 33.03579000 -13.54346000 / 0.45523050 -0.89037360 0.00000000 / 42 141 11 255 / -0.29850770 0.23406980
				-0.22845500 33.28920000 -14.60742000 / 0.45380790 -0.89109950 -0.00028610 / 42 141 11 255 / -0.57708740 0.47567750
				-0.22845120 33.28920000 -14.60742000 / 0.45382550 -0.89109040 -0.00047680 / 42 141 11 255 / -0.57708740 0.47567750
				-0.22845500 33.28920000 -14.60742000 / 0.45522930 -0.89037420 0.00000000 / 42 141 11 255 / -0.57708740 0.47567750
				-16.97846000 24.75356000 -12.51563000 / 0.45399150 -0.89100600 0.00000000 / 42 141 11 255 / 5.72596700 0.00062560
				-14.34027000 26.09780000 -16.96680000 / 0.45399150 -0.89100600 0.00000000 / 42 141 11 255 / 4.24549900 1.00666800
			}
		}
		Geometry
		{
			ShaderIndex 9
			Flags -
			VertexDeclaration N51263BB5
			Indices 24
			{
				2 0 3 5 4 1 8 6 9 11 10 7 12 13 15
				17 16 14 20 18 21 23 22 19
			}
			Vertices 24
			{
				-9.45648800 28.58706000 -14.40332000 / 0.89448440 0.44709910 0.00000000 / 42 141 11 255 / 0.50617980 0.34306340 / -0.44709910 0.89448440 0.00003800 -1.00000000
				-9.45648800 28.58706000 -14.40332000 / 0.89448440 0.44709910 0.00000000 / 42 141 11 255 / 0.50617980 0.34306340 / -0.44709910 0.89448440 0.00003800 -1.00000000
				-9.45648600 28.58706000 -14.98437000 / 0.89448440 0.44709910 0.00000000 / 42 141 11 255 / 0.50617980 0.25617980 / -0.44709910 0.89448440 0.00003800 -1.00000000
				-9.44525600 28.56459000 -14.98437000 / 0.89448440 0.44709910 0.00000000 / 42 141 11 255 / 0.50213620 0.25617980 / -0.44709910 0.89448440 0.00003800 -1.00000000
				-9.44525500 28.56460000 -14.98437000 / 0.89448440 0.44709910 0.00000000 / 42 141 11 255 / 0.50213620 0.25617980 / -0.44709910 0.89448440 0.00003800 -1.00000000
				-9.44525800 28.56460000 -14.40332000 / 0.89448440 0.44709910 0.00000000 / 42 141 11 255 / 0.50213620 0.34306340 / -0.44709910 0.89448440 0.00003800 -1.00000000
				-9.45648400 28.58705000 -15.02490000 / 0.89440810 0.44725170 0.00000000 / 42 141 11 255 / 0.50617980 0.67994690 / -0.44725170 0.89440810 0.00000000 -1.00000000
				-9.45648600 28.58706000 -15.02490000 / 0.89440810 0.44725170 0.00000000 / 42 141 11 255 / 0.50617980 0.67994690 / -0.44725170 0.89440810 0.00003800 -1.00000000
				-9.45648700 28.58706000 -17.23730000 / 0.89440810 0.44725170 0.00000000 / 42 141 11 255 / 0.50617980 0.34906010 / -0.44725170 0.89440810 0.00000000 -1.00000000
				-9.44525600 28.56460000 -17.23730000 / 0.89440810 0.44725170 0.00000000 / 42 141 11 255 / 0.50213620 0.34906010 / -0.44725170 0.89440810 0.00000000 -1.00000000
				-9.44525600 28.56460000 -17.23730000 / 0.89440810 0.44725170 0.00000000 / 42 141 11 255 / 0.50213620 0.34906010 / -0.44725170 0.89440810 0.00003800 -1.00000000
				-9.44525400 28.56460000 -15.02490000 / 0.89440810 0.44725170 0.00000000 / 42 141 11 255 / 0.50213620 0.67994690 / -0.44725170 0.89440810 0.00003800 -1.00000000
				-9.45648700 28.58706000 -17.23730000 / 0.44721360 -0.89442720 0.00000000 / 42 141 11 255 / 0.50617980 0.67994690 / -0.89442060 -0.44721030 0.00384050 -1.00000000
				-9.41644800 28.60708000 -17.28369000 / 0.44721360 -0.89442720 0.00000000 / 42 141 11 255 / 0.50213620 0.68685910 / -0.89442060 -0.44721030 0.00384050 -1.00000000
				-9.41644600 28.60708000 -17.28369000 / 0.44736620 -0.89435090 0.00000000 / 42 141 11 255 / 0.50213620 0.68685910 / -0.89429610 -0.44733880 -0.01106680 -1.00000000
				-9.45648400 28.58706000 -15.02490000 / 0.44721360 -0.89442720 0.00000000 / 42 141 11 255 / 0.50617980 0.34906010 / -0.89442060 -0.44721030 0.00384050 -1.00000000
				-9.45648400 28.58705000 -15.02490000 / 0.44736620 -0.89435090 0.00000000 / 42 141 11 255 / 0.50617980 0.34906010 / -0.89429610 -0.44733880 -0.01106680 -1.00000000
				-9.41546600 28.60757000 -15.00439000 / 0.44736620 -0.89435090 0.00000000 / 42 141 11 255 / 0.50213620 0.34606930 / -0.89429610 -0.44733880 -0.01106680 -1.00000000
				-9.41546900 28.60757000 -15.00439000 / 0.44728990 -0.89438920 0.00000000 / 42 141 11 255 / 0.50213620 0.34606930 / -0.89438750 -0.44728920 -0.00180810 -1.00000000
				-9.41546700 28.60757000 -15.00439000 / 0.44713730 -0.89446540 0.00000000 / 42 141 11 255 / 0.50213620 0.34606930 / -0.89445790 -0.44713370 0.00405380 -1.00000000
				-9.45648700 28.58706000 -14.98437000 / 0.44728990 -0.89438920 0.00000000 / 42 141 11 255 / 0.50617980 0.34306340 / -0.89438750 -0.44728920 -0.00180810 -1.00000000
				-9.45648800 28.58706000 -14.40332000 / 0.44728990 -0.89438920 0.00000000 / 42 141 11 255 / 0.50617980 0.25617980 / -0.89438750 -0.44728920 -0.00180810 -1.00000000
				-9.45648600 28.58707000 -14.40332000 / 0.44713730 -0.89446540 0.00000000 / 42 141 11 255 / 0.50617980 0.25617980 / -0.89445790 -0.44713370 0.00405380 -1.00000000
				-9.41546700 28.60757000 -14.37158000 / 0.44713730 -0.89446540 0.00000000 / 42 141 11 255 / 0.50213620 0.25140380 / -0.89445790 -0.44713370 0.00405380 -1.00000000
			}
		}
		Geometry
		{
			ShaderIndex 10
			Flags -
			VertexDeclaration N51263BB5
			Indices 54
			{
				2 0 3 5 4 1 8 6 9 11 10 7 14 12 15
				17 16 13 20 18 21 23 22 19 26 24 27 29 28 25
				32 30 33 35 34 31 38 36 39 41 40 37 44 42 45
				47 46 43 50 48 51 53 52 49
			}
			Vertices 54
			{
				-1.84271400 32.40884000 -12.88037000 / 0.45380080 -0.89110310 0.00000000 / 42 141 11 255 / 0.24984740 0.75062560 / -0.89110310 -0.45380080 0.00000000 -1.00000000
				-1.84271600 32.40884000 -12.88037000 / 0.45380080 -0.89110310 0.00000000 / 42 141 11 255 / 0.24984740 0.75062560 / -0.89110310 -0.45380080 0.00000000 -1.00000000
				-1.84271400 32.40884000 -13.50977000 / 0.45380080 -0.89110310 0.00000000 / 42 141 11 255 / 0.24984740 0.91801460 / -0.89110310 -0.45380080 0.00000000 -1.00000000
				-2.40716900 32.12124000 -13.50977000 / 0.45381970 -0.89109360 0.00000000 / 42 141 11 255 / 0.49899290 0.91801460 / -0.89109360 -0.45381970 0.00000000 -1.00000000
				-2.40717000 32.12124000 -13.50977000 / 0.45381970 -0.89109360 0.00000000 / 42 141 11 255 / 0.49899290 0.91801460 / -0.89109360 -0.45381970 0.00000000 -1.00000000
				-2.40716900 32.12124000 -12.88037000 / 0.45381970 -0.89109360 0.00000000 / 42 141 11 255 / 0.49899290 0.75062560 / -0.89109360 -0.45381970 0.00000000 -1.00000000
				-6.43450900 30.06899000 -12.88037000 / 0.45338280 -0.89131590 0.00000000 / 42 141 11 255 / 0.24984740 0.75062560 / -0.89131590 -0.45338280 0.00000000 -1.00000000
				-6.43451000 30.06900000 -12.88037000 / 0.45338280 -0.89131590 0.00000000 / 42 141 11 255 / 0.24984740 0.75062560 / -0.89131590 -0.45338280 0.00000000 -1.00000000
				-6.43451000 30.06900000 -13.50977000 / 0.45338280 -0.89131590 0.00000000 / 42 141 11 255 / 0.24984740 0.91801460 / -0.89131590 -0.45338280 0.00000000 -1.00000000
				-6.99896500 29.78189000 -13.50977000 / 0.45338280 -0.89131590 0.00000000 / 42 141 11 255 / 0.49899290 0.91801460 / -0.89131590 -0.45338280 0.00000000 -1.00000000
				-6.99896600 29.78189000 -13.50977000 / 0.45338280 -0.89131590 0.00000000 / 42 141 11 255 / 0.49899290 0.91801460 / -0.89131590 -0.45338280 0.00000000 -1.00000000
				-6.99896500 29.78188000 -12.88037000 / 0.45338280 -0.89131590 0.00000000 / 42 141 11 255 / 0.49899290 0.75062560 / -0.89131590 -0.45338280 0.00000000 -1.00000000
				-11.17963000 27.65151000 -12.88037000 / 0.45429430 -0.89085170 0.00000000 / 42 141 11 255 / 0.24984740 0.75062560 / -0.89085170 -0.45429430 0.00000000 -1.00000000
				-11.17963000 27.65152000 -12.88037000 / 0.45429430 -0.89085170 0.00000000 / 42 141 11 255 / 0.24984740 0.75062560 / -0.89085170 -0.45429430 0.00000000 -1.00000000
				-11.17963000 27.65152000 -13.50977000 / 0.45429430 -0.89085170 0.00000000 / 42 141 11 255 / 0.24984740 0.91801460 / -0.89085170 -0.45429430 0.00000000 -1.00000000
				-11.74359000 27.36392000 -13.50977000 / 0.45429430 -0.89085170 0.00000000 / 42 141 11 255 / 0.49899290 0.91801460 / -0.89085170 -0.45429430 0.00000000 -1.00000000
				-11.74359000 27.36392000 -13.50977000 / 0.45429430 -0.89085170 0.00000000 / 42 141 11 255 / 0.49899290 0.91801460 / -0.89085170 -0.45429430 0.00000000 -1.00000000
				-11.74359000 27.36392000 -12.88037000 / 0.45429430 -0.89085170 0.00000000 / 42 141 11 255 / 0.49899290 0.75062560 / -0.89085170 -0.45429430 0.00000000 -1.00000000
				-0.73089600 32.97525000 -12.88037000 / 0.45380080 -0.89110310 0.00000000 / 42 141 11 255 / 0.00152590 0.75062560 / -0.89110310 -0.45380080 0.00000000 -1.00000000
				-0.73089550 32.97525000 -12.88037000 / 0.45380080 -0.89110310 0.00000000 / 42 141 11 255 / 0.00152590 0.75062560 / -0.89110320 -0.45380070 0.00000000 -1.00000000
				-0.73089890 32.97525000 -13.50977000 / 0.45380080 -0.89110310 0.00000000 / 42 141 11 255 / 0.00152590 0.91801460 / -0.89110310 -0.45380080 0.00000000 -1.00000000
				-1.84271400 32.40884000 -13.50977000 / 0.45380080 -0.89110310 0.00000000 / 42 141 11 255 / 0.49899290 0.91801460 / -0.89110310 -0.45380080 0.00000000 -1.00000000
				-1.84271600 32.40884000 -13.50977000 / 0.45380080 -0.89110310 0.00000000 / 42 141 11 255 / 0.49899290 0.91801460 / -0.89110320 -0.45380070 0.00000000 -1.00000000
				-1.84271400 32.40884000 -12.88037000 / 0.45380080 -0.89110310 0.00000000 / 42 141 11 255 / 0.49899290 0.75062560 / -0.89110320 -0.45380070 0.00000000 -1.00000000
				-3.51898400 31.55484000 -13.50977000 / 0.45381970 -0.89109360 0.00000000 / 42 141 11 255 / 0.49899290 0.91801460 / -0.89109360 -0.45381970 0.00000000 -1.00000000
				-3.51898400 31.55484000 -13.50977000 / 0.45381970 -0.89109360 0.00000000 / 42 141 11 255 / 0.49899290 0.91801460 / -0.89109360 -0.45381970 0.00000000 -1.00000000
				-3.51898400 31.55484000 -12.88037000 / 0.45381970 -0.89109360 0.00000000 / 42 141 11 255 / 0.49899290 0.75062560 / -0.89109360 -0.45381970 0.00000000 -1.00000000
				-2.40716700 32.12124000 -12.88037000 / 0.45381970 -0.89109360 0.00000000 / 42 141 11 255 / 0.00152590 0.75062560 / -0.89109360 -0.45381970 0.00000000 -1.00000000
				-2.40716900 32.12124000 -12.88037000 / 0.45381970 -0.89109360 0.00000000 / 42 141 11 255 / 0.00152590 0.75062560 / -0.89109360 -0.45381970 0.00000000 -1.00000000
				-2.40716900 32.12124000 -13.50977000 / 0.45381970 -0.89109360 0.00000000 / 42 141 11 255 / 0.00152590 0.91801460 / -0.89109360 -0.45381970 0.00000000 -1.00000000
				-5.32269400 30.63588000 -12.88037000 / 0.45421860 -0.89089020 0.00000000 / 42 141 11 255 / 0.00152590 0.75062560 / -0.89089020 -0.45421860 0.00000000 -1.00000000
				-5.32269500 30.63589000 -12.88037000 / 0.45421860 -0.89089020 0.00000000 / 42 141 11 255 / 0.00152590 0.75062560 / -0.89089020 -0.45421870 0.00000000 -1.00000000
				-5.32269500 30.63588000 -13.50977000 / 0.45421860 -0.89089020 0.00000000 / 42 141 11 255 / 0.00152590 0.91801460 / -0.89089020 -0.45421860 0.00000000 -1.00000000
				-6.43451100 30.06900000 -13.50977000 / 0.45421860 -0.89089020 0.00000000 / 42 141 11 255 / 0.49899290 0.91801460 / -0.89089020 -0.45421860 0.00000000 -1.00000000
				-6.43451200 30.06900000 -13.50977000 / 0.45421860 -0.89089020 0.00000000 / 42 141 11 255 / 0.49899290 0.91801460 / -0.89089020 -0.45421870 0.00000000 -1.00000000
				-6.43451000 30.06900000 -12.88037000 / 0.45421860 -0.89089020 0.00000000 / 42 141 11 255 / 0.49899290 0.75062560 / -0.89089020 -0.45421870 0.00000000 -1.00000000
				-8.11078200 29.21499000 -13.50977000 / 0.45421860 -0.89089020 0.00000000 / 42 141 11 255 / 0.49899290 0.91801460 / -0.89089020 -0.45421860 0.00000000 -1.00000000
				-8.11078000 29.21499000 -13.50977000 / 0.45421860 -0.89089020 0.00000000 / 42 141 11 255 / 0.49899290 0.91801460 / -0.89089020 -0.45421860 0.00000000 -1.00000000
				-8.11078200 29.21499000 -12.88037000 / 0.45421860 -0.89089020 0.00000000 / 42 141 11 255 / 0.49899290 0.75062560 / -0.89089020 -0.45421860 0.00000000 -1.00000000
				-6.99896500 29.78189000 -12.88037000 / 0.45421860 -0.89089020 0.00000000 / 42 141 11 255 / 0.00152590 0.75062560 / -0.89089020 -0.45421860 0.00000000 -1.00000000
				-6.99896500 29.78189000 -12.88037000 / 0.45421860 -0.89089020 0.00000000 / 42 141 11 255 / 0.00152590 0.75062560 / -0.89089020 -0.45421860 0.00000000 -1.00000000
				-6.99896500 29.78189000 -13.50977000 / 0.45421860 -0.89089020 0.00000000 / 42 141 11 255 / 0.00152590 0.91801460 / -0.89089020 -0.45421860 0.00000000 -1.00000000
				-10.06732000 28.21792000 -12.88037000 / 0.45376290 -0.89112250 0.00000000 / 42 141 11 255 / 0.00152590 0.75062560 / -0.89112250 -0.45376290 0.00000000 -1.00000000
				-10.06732000 28.21792000 -12.88037000 / 0.45376290 -0.89112250 0.00000000 / 42 141 11 255 / 0.00152590 0.75062560 / -0.89112250 -0.45376290 0.00000000 -1.00000000
				-10.06732000 28.21792000 -13.50977000 / 0.45376290 -0.89112250 0.00000000 / 42 141 11 255 / 0.00152590 0.91801460 / -0.89112250 -0.45376290 0.00000000 -1.00000000
				-11.17963000 27.65152000 -13.50977000 / 0.45376290 -0.89112250 0.00000000 / 42 141 11 255 / 0.49899290 0.91801460 / -0.89112250 -0.45376290 0.00000000 -1.00000000
				-11.17963000 27.65152000 -13.50977000 / 0.45376290 -0.89112250 0.00000000 / 42 141 11 255 / 0.49899290 0.91801460 / -0.89112250 -0.45376290 0.00000000 -1.00000000
				-11.17963000 27.65152000 -12.88037000 / 0.45376290 -0.89112250 0.00000000 / 42 141 11 255 / 0.49899290 0.75062560 / -0.89112250 -0.45376290 0.00000000 -1.00000000
				-12.85590000 26.79751000 -13.50977000 / 0.45376290 -0.89112250 0.00000000 / 42 141 11 255 / 0.49899290 0.91801460 / -0.89112250 -0.45376290 0.00000080 -1.00000000
				-12.85590000 26.79751000 -13.50977000 / 0.45376290 -0.89112250 0.00000000 / 42 141 11 255 / 0.49899290 0.91801460 / -0.89112250 -0.45376290 0.00000080 -1.00000000
				-12.85590000 26.79751000 -12.88037000 / 0.45376290 -0.89112250 0.00000000 / 42 141 11 255 / 0.49899290 0.75062560 / -0.89112250 -0.45376290 0.00000080 -1.00000000
				-11.74359000 27.36392000 -12.88037000 / 0.45376290 -0.89112250 0.00000000 / 42 141 11 255 / 0.00152590 0.75062560 / -0.89112250 -0.45376290 0.00000080 -1.00000000
				-11.74359000 27.36392000 -12.88037000 / 0.45376290 -0.89112250 0.00000000 / 42 141 11 255 / 0.00152590 0.75062560 / -0.89112250 -0.45376290 0.00000080 -1.00000000
				-11.74359000 27.36392000 -13.50977000 / 0.45376290 -0.89112250 0.00000000 / 42 141 11 255 / 0.00152590 0.91801460 / -0.89112250 -0.45376290 0.00000080 -1.00000000
			}
		}
		Geometry
		{
			ShaderIndex 11
			Flags -
			VertexDeclaration N51263BB5
			Indices 42
			{
				2 0 3 5 4 1 8 6 9 12 10 7 11 13 15
				17 16 14 21 18 22 24 23 19 20 27 25 29 26 28
				33 30 34 36 35 31 32 39 37 41 38 40
			}
			Vertices 42
			{
				0.36138920 32.89908000 -17.13573000 / 0.00426440 -0.00801040 -0.99995890 / 42 141 11 255 / 4.47488400 0.50383000 / 0.89113540 0.45373750 0.00016560 1.00000000
				0.36139010 32.89908000 -17.13574000 / 0.00519410 -0.01029880 -0.99993350 / 42 141 11 255 / 4.47488400 0.50383000 / 0.89152800 0.45296560 -0.00003430 1.00000000
				0.26470950 33.08902000 -17.13769000 / 0.00426440 -0.00801040 -0.99995890 / 42 141 11 255 / 4.47050500 0.55484010 / 0.89113540 0.45373750 0.00016560 1.00000000
				-3.90228200 30.96597000 -17.13817000 / 0.00426740 -0.00820110 -0.99995730 / 42 141 11 255 / 1.51956200 0.55455020 / 0.89113580 0.45373680 0.00008170 1.00000000
				-3.90228200 30.96597000 -17.13818000 / 0.00519710 -0.01010810 -0.99993540 / 42 141 11 255 / 1.51956200 0.55455020 / 0.89152760 0.45296650 0.00005470 1.00000000
				-3.80560100 30.77603000 -17.13574000 / 0.00519710 -0.01010810 -0.99993540 / 42 141 11 255 / 1.52198800 0.50254820 / 0.89152760 0.45296650 0.00005470 1.00000000
				-13.70356000 26.67886000 -17.46924000 / 0.89063820 0.45471280 0.00000000 / 42 141 11 255 / 1.57589700 0.60299680 / 0.45471260 -0.89063790 0.00077590 -1.00000000
				-13.70356000 26.67886000 -17.46924000 / 0.89063820 0.45471280 0.00000000 / 42 141 11 255 / 1.57589700 0.60299680 / 0.45471120 -0.89063510 0.00259510 -1.00000000
				-13.59858000 26.47329000 -17.46875000 / 0.89063820 0.45471280 0.00000000 / 42 141 11 255 / 1.68905600 0.60292050 / 0.45471260 -0.89063790 0.00077590 -1.00000000
				-13.59858000 26.47329000 -17.30518000 / 0.89063820 0.45471280 0.00000000 / 42 141 11 255 / 1.68792700 0.56277470 / 0.45471260 -0.89063790 0.00077590 -1.00000000
				-13.59858000 26.47329000 -17.30518000 / 0.89063820 0.45471280 0.00000000 / 42 141 11 255 / 1.68792700 0.56277470 / 0.45471120 -0.89063510 0.00259510 -1.00000000
				-13.59858000 26.47329000 -17.30518000 / 0.76933830 0.39043890 -0.50564420 / 42 141 11 255 / 1.68792700 0.56277470 / 0.45421020 -0.89088890 0.00317140 -1.00000000
				-13.70356000 26.67886000 -17.30615000 / 0.89063820 0.45471280 0.00000000 / 42 141 11 255 / 1.57486000 0.56286620 / 0.45471120 -0.89063510 0.00259510 -1.00000000
				-13.70356000 26.67886000 -17.30615000 / 0.76933830 0.39043890 -0.50564420 / 42 141 11 255 / 1.57486000 0.56286620 / 0.45421020 -0.89088890 0.00317140 -1.00000000
				-13.70356000 26.67885000 -17.30615000 / 0.75189670 0.37632980 -0.54131980 / 42 141 11 255 / 1.57486000 0.56286620 / 0.45526200 -0.89025590 0.01344890 -1.00000000
				-13.58686000 26.47866000 -17.28320000 / 0.76933830 0.39043890 -0.50564420 / 42 141 11 255 / 1.68788100 0.55455020 / 0.45421020 -0.89088890 0.00317140 -1.00000000
				-13.58686000 26.47866000 -17.28320000 / 0.75189670 0.37632980 -0.54131980 / 42 141 11 255 / 1.68788100 0.55455020 / 0.45526200 -0.89025590 0.01344890 -1.00000000
				-13.68695000 26.67447000 -17.28613000 / 0.75189670 0.37632980 -0.54131980 / 42 141 11 255 / 1.58076500 0.55453490 / 0.45526200 -0.89025590 0.01344890 -1.00000000
				-9.40179700 28.61148000 -17.30566000 / -0.89102570 -0.45395290 0.00000000 / 42 141 11 255 / 1.68792700 0.56277470 / 0.45395250 -0.89102490 -0.00134530 1.00000000
				-9.40179800 28.61148000 -17.30566000 / -0.89102570 -0.45395290 0.00000000 / 42 141 11 255 / 1.68792700 0.56277470 / 0.45395230 -0.89102450 -0.00161270 1.00000000
				-9.40179800 28.61148000 -17.30566000 / -0.73817090 -0.37614290 -0.56001800 / 42 141 11 255 / 1.68792700 0.56277470 / 0.45463550 -0.89067700 -0.00103020 1.00000000
				-9.40179900 28.61148000 -17.46924000 / -0.89102570 -0.45395290 0.00000000 / 42 141 11 255 / 1.68905600 0.60292050 / 0.45395250 -0.89102490 -0.00134530 1.00000000
				-9.50677900 28.81753000 -17.46924000 / -0.89102570 -0.45395290 0.00000000 / 42 141 11 255 / 1.57589700 0.60299680 / 0.45395250 -0.89102490 -0.00134530 1.00000000
				-9.50678200 28.81753000 -17.46924000 / -0.89102570 -0.45395290 0.00000000 / 42 141 11 255 / 1.57589700 0.60299680 / 0.45395230 -0.89102450 -0.00161270 1.00000000
				-9.50678000 28.81753000 -17.30566000 / -0.89102570 -0.45395290 0.00000000 / 42 141 11 255 / 1.57486000 0.56286620 / 0.45395230 -0.89102450 -0.00161270 1.00000000
				-9.50677900 28.81753000 -17.30566000 / -0.73817090 -0.37614290 -0.56001800 / 42 141 11 255 / 1.57486000 0.56286620 / 0.45463550 -0.89067700 -0.00103020 1.00000000
				-9.50677500 28.81753000 -17.30566000 / -0.71436620 -0.36943730 -0.59430380 / 42 141 11 255 / 1.57486000 0.56286620 / 0.45335870 -0.89128170 0.00910070 1.00000000
				-9.41498000 28.60463000 -17.28369000 / -0.73817090 -0.37614290 -0.56001800 / 42 141 11 255 / 1.68788100 0.55455020 / 0.45463550 -0.89067700 -0.00103020 1.00000000
				-9.41498000 28.60463000 -17.28369000 / -0.71436620 -0.36943730 -0.59430380 / 42 141 11 255 / 1.68788100 0.55455020 / 0.45335870 -0.89128170 0.00910070 1.00000000
				-9.51459000 28.80044000 -17.28564000 / -0.71436620 -0.36943730 -0.59430380 / 42 141 11 255 / 1.58076500 0.55453490 / 0.45335870 -0.89128170 0.00910070 1.00000000
				0.27203180 33.10611000 -17.15770000 / 0.45381500 -0.89109590 0.00000000 / 42 141 11 255 / 4.48742700 0.56181340 / 0.89109570 0.45381490 -0.00065640 1.00000000
				0.27203560 33.10611000 -17.15770000 / 0.45381260 -0.89109710 0.00000000 / 42 141 11 255 / 4.48742700 0.56181340 / 0.89109690 0.45381240 -0.00080540 1.00000000
				0.27203370 33.10611000 -17.15770000 / 0.39050600 -0.76563350 -0.51118530 / 42 141 11 255 / 4.48742700 0.56181340 / 0.89070760 0.45457660 -0.00041560 1.00000000
				0.27203090 33.10611000 -17.32128000 / 0.45381260 -0.89109710 0.00000000 / 42 141 11 255 / 4.49179100 0.60223390 / 0.89109690 0.45381250 -0.00065640 1.00000000
				-3.91888800 30.97036000 -17.32128000 / 0.45412400 -0.89093850 0.00000000 / 42 141 11 255 / 1.50720200 0.60299680 / 0.89093830 0.45412390 -0.00065640 1.00000000
				-3.91888600 30.97035000 -17.32128000 / 0.45412400 -0.89093850 0.00000000 / 42 141 11 255 / 1.50720200 0.60299680 / 0.89093820 0.45412390 -0.00080540 1.00000000
				-3.91888500 30.97035000 -17.15819000 / 0.45412400 -0.89093850 0.00000000 / 42 141 11 255 / 1.50483700 0.56286620 / 0.89093820 0.45412390 -0.00080540 1.00000000
				-3.91888400 30.97036000 -17.15819000 / 0.39051610 -0.76562990 -0.51118290 / 42 141 11 255 / 1.50483700 0.56286620 / 0.89070340 0.45458470 -0.00041010 1.00000000
				-3.91888500 30.97036000 -17.15819000 / 0.39410420 -0.77342660 -0.49648070 / 42 141 11 255 / 1.50483700 0.56286620 / 0.89105990 0.45388550 0.00024850 1.00000000
				0.26470950 33.08902000 -17.13769000 / 0.39050600 -0.76563350 -0.51118530 / 42 141 11 255 / 4.47050500 0.55484010 / 0.89070760 0.45457660 -0.00041560 1.00000000
				0.26470950 33.08902000 -17.13769000 / 0.39380700 -0.77358950 -0.49646290 / 42 141 11 255 / 4.47050500 0.55484010 / 0.89119340 0.45362340 0.00008030 1.00000000
				-3.90228400 30.96597000 -17.13817000 / 0.39410420 -0.77342660 -0.49648070 / 42 141 11 255 / 1.51956200 0.55455020 / 0.89105990 0.45388550 0.00024850 1.00000000
			}
		}
	}
}
