Version 165 32
{
	Locked False
	Skinned False
	BoneCount 0
	Mask 255
	Bounds
	{
		Aabb
		{
			Min -17.38259000 7.27714300 -12.51579000
			Max 11.05156000 35.41991000 -11.86703000
		}
		Aabb
		{
			Min -14.35965000 9.30713300 -12.44499000
			Max 10.19411000 34.96075000 -11.86703000
		}
		Aabb
		{
			Min -17.38259000 7.27714300 -12.51579000
			Max 11.05156000 35.41991000 -11.88138000
		}
		Aabb
		{
			Min -16.89387000 7.86775200 -12.51578000
			Max 10.75957000 35.07158000 -11.88143000
		}
	}
	Geometries
	{
		Geometry
		{
			ShaderIndex 0
			Flags -
			VertexDeclaration N51263BB5
			Indices 66
			{
				0 25 50 52 2 5 8 10 12 16 17 9 19 48 39
				60 18 23 24 29 30 32 35 26 36 54 51 6 40 38
				41 13 58 55 14 43 31 46 20 61 21 45 37 27 64
				53 49 28 56 42 7 33 34 47 57 62 11 22 44 59
				3 63 65 1 4 15
			}
			Vertices 66
			{
				9.37118000 16.74430000 -11.86703000 / -0.89227910 -0.45148020 0.00190740 / 42 141 11 255 / 6.59693900 2.02128600 / 0.45148110 -0.89228070 0.00001640 1.00000000
				1.03874100 34.96027000 -12.44344000 / 0.89218760 0.45166090 -0.00190740 / 42 141 11 255 / -1.03271500 2.16568000 / -0.45166160 0.89218930 0.00010510 1.00000000
				9.37020900 16.74381000 -12.44369000 / -0.89227910 -0.45148020 0.00190740 / 42 141 11 255 / 6.59704600 2.16537500 / 0.45148110 -0.89228070 0.00001640 1.00000000
				5.99345600 25.46122000 -11.86865000 / 0.89227960 0.45148050 -0.00162130 / 42 141 11 255 / -3.42009000 2.02160600 / -0.45148090 0.89228080 0.00010860 1.00000000
				1.03970900 34.96075000 -11.86727000 / 0.89218760 0.45166090 -0.00190740 / 42 141 11 255 / -1.03259300 2.02160600 / -0.45166160 0.89218930 0.00010510 1.00000000
				9.37118000 16.74430000 -11.86703000 / -0.89227910 -0.45148020 0.00190740 / 42 141 11 255 / 6.59693900 2.02128600 / 0.45148110 -0.89228070 0.00001640 1.00000000
				-14.20425000 26.86111000 -12.44401000 / -0.89227910 -0.45148020 0.00190740 / 42 141 11 255 / 3.99961900 2.16537500 / 0.45148110 -0.89228070 0.00001640 1.00000000
				10.19314000 17.16047000 -12.44466000 / -0.00095370 -0.00057220 -0.99999950 / 42 141 11 255 / 9.77360600 -5.49237100 / 0.99999420 -0.00326350 -0.00095180 1.00000000
				2.88076100 13.45779000 -11.86703000 / -0.89228390 -0.45147060 0.00190740 / 42 141 11 255 / 7.33866900 2.02128600 / 0.45147150 -0.89228550 0.00001640 1.00000000
				2.88076100 13.45779000 -11.86703000 / -0.89228390 -0.45147060 0.00190740 / 42 141 11 255 / 7.33866900 2.02128600 / 0.45147150 -0.89228550 0.00001630 1.00000000
				-6.15867100 31.32127000 -11.86736000 / -0.89227910 -0.45148020 0.00190740 / 42 141 11 255 / 2.87899800 2.02128600 / 0.45148110 -0.89228070 0.00001640 1.00000000
				10.19314000 17.16047000 -12.44466000 / 0.89227910 0.45148020 -0.00190740 / 42 141 11 255 / -5.49237100 2.16568000 / -0.45148110 0.89228070 -0.00001650 1.00000000
				-6.15964600 31.32078000 -12.44402000 / -0.89227910 -0.45148020 0.00190740 / 42 141 11 255 / 2.87912000 2.16537500 / 0.45148110 -0.89228070 0.00001640 1.00000000
				-4.49825400 9.72380500 -12.44466000 / 0.89227910 0.45148020 -0.00190740 / 42 141 11 255 / -7.27728300 2.16568000 / -0.45148110 0.89228070 -0.00001640 1.00000000
				-13.53671000 27.58778000 -11.86882000 / 0.89227910 0.45148020 -0.00190740 / 42 141 11 255 / -2.81750500 2.02160600 / -0.45148110 0.89228070 -0.00001640 1.00000000
				5.99345600 25.46122000 -11.86865000 / 0.89227910 0.45148020 -0.00190740 / 42 141 11 255 / -3.42009000 2.02160600 / -0.45148090 0.89228080 0.00010470 1.00000000
				-6.15964600 31.32078000 -12.44402000 / -0.89227910 -0.45148020 0.00190740 / 42 141 11 255 / 2.87912000 2.16537500 / 0.45148100 -0.89228070 0.00001630 1.00000000
				2.87978400 13.45729000 -12.44370000 / -0.89228390 -0.45147060 0.00190740 / 42 141 11 255 / 7.33877600 2.16537500 / 0.45147150 -0.89228550 0.00001630 1.00000000
				-5.33573600 31.73794000 -11.86882000 / 0.89227910 0.45148020 -0.00190740 / 42 141 11 255 / -1.77432200 2.02160600 / -0.45148110 0.89228070 -0.00001630 1.00000000
				3.70369800 13.87397000 -11.86850000 / 0.89228390 0.45147060 -0.00190740 / 42 141 11 255 / -6.23397800 2.02160600 / -0.45147150 0.89228550 -0.00001640 1.00000000
				-4.49825400 9.72380500 -12.44466000 / -0.00095370 -0.00047680 -0.99999950 / 42 141 11 255 / 6.27052300 -7.27728300 / 0.99999590 -0.00270920 -0.00095240 1.00000000
				-5.32118900 9.30713300 -12.44369000 / -0.00095370 -0.00047680 -0.99999950 / 42 141 11 255 / 6.06506400 -7.38195800 / 0.99999640 -0.00252680 -0.00095240 1.00000000
				10.19314000 17.16047000 -12.44466000 / 0.89227960 0.45148050 -0.00162130 / 42 141 11 255 / -5.49237100 2.16568000 / -0.45148100 0.89228070 -0.00001630 1.00000000
				3.70369800 13.87397000 -11.86850000 / 0.89228390 0.45147060 -0.00190740 / 42 141 11 255 / -6.23397800 2.02160600 / -0.45147150 0.89228550 -0.00001640 1.00000000
				-6.15964600 31.32078000 -12.44402000 / -0.00095370 -0.00057220 -0.99999950 / 42 141 11 255 / 5.84013400 -1.87912000 / 0.99999630 -0.00253790 -0.00095220 1.00000000
				0.33126350 34.60828000 -11.86736000 / -0.89218830 -0.45165970 0.00190730 / 42 141 11 255 / 2.13728300 2.02128600 / 0.45166050 -0.89218990 0.00001600 1.00000000
				-6.15964600 31.32078000 -12.44402000 / -0.00095370 -0.00057220 -0.99999950 / 42 141 11 255 / 5.84013400 -1.87912000 / 0.99999510 -0.00300170 -0.00095190 1.00000000
				1.03874100 34.96027000 -12.44344000 / -0.00079870 -0.00038150 -0.99999960 / 42 141 11 255 / 7.50129700 -1.03271500 / 0.99148530 -0.13021640 -0.00074220 1.00000000
				5.98324900 25.47930000 -12.44482000 / -0.00109670 -0.00057220 -0.99999920 / 42 141 11 255 / 8.71539300 -3.41552700 / 0.99999300 -0.00358340 -0.00109460 1.00000000
				-5.33671700 31.73745000 -12.44499000 / -0.00095370 -0.00057220 -0.99999950 / 42 141 11 255 / 6.04557800 -1.77444500 / 0.99999630 -0.00253790 -0.00095220 1.00000000
				3.70272100 13.87347000 -12.44466000 / -0.00092980 -0.00047680 -0.99999950 / 42 141 11 255 / 8.31788700 -6.23410000 / 0.99999640 -0.00253790 -0.00092860 1.00000000
				-14.20425000 26.86111000 -12.44401000 / -0.00095370 -0.00057220 -0.99999950 / 42 141 11 255 / 3.83215300 -2.99961900 / 0.99999590 -0.00270920 -0.00095210 1.00000000
				3.70272100 13.87347000 -12.44466000 / -0.00092980 -0.00047680 -0.99999950 / 42 141 11 255 / 8.31788700 -6.23410000 / 0.99999510 -0.00300170 -0.00092840 1.00000000
				0.33028460 34.60779000 -12.44402000 / -0.00093280 -0.00038150 -0.99999950 / 42 141 11 255 / 7.29583800 -1.13739000 / 0.99999640 -0.00254020 -0.00093180 1.00000000
				10.19314000 17.16047000 -12.44466000 / -0.00095370 -0.00057220 -0.99999950 / 42 141 11 255 / 9.77360600 -5.49237100 / 0.99999630 -0.00254020 -0.00095220 1.00000000
				2.87978400 13.45729000 -12.44370000 / -0.00092980 -0.00047680 -0.99999950 / 42 141 11 255 / 8.11244200 -6.33877600 / 0.99999510 -0.00300170 -0.00092840 1.00000000
				-5.32021600 9.30762800 -11.86703000 / -0.89227750 -0.45147950 0.00267030 / 42 141 11 255 / 8.38185100 2.02128600 / 0.45148110 -0.89228070 0.00001640 1.00000000
				0.67940140 34.78407000 -12.44451000 / -0.00079870 -0.00038150 -0.99999960 / 42 141 11 255 / 7.38301100 -1.09298700 / 0.99148530 -0.13021640 -0.00074220 1.00000000
				-5.32021600 9.30762800 -11.86703000 / -0.89224060 -0.45155620 0.00190730 / 42 141 11 255 / 8.38185100 2.02128600 / 0.45155700 -0.89224230 0.00001620 1.00000000
				-5.33671700 31.73745000 -12.44499000 / 0.89227910 0.45148020 -0.00190740 / 42 141 11 255 / -1.77444500 2.16568000 / -0.45148110 0.89228070 -0.00001630 1.00000000
				-5.32118900 9.30713300 -12.44369000 / -0.89224060 -0.45155620 0.00190730 / 42 141 11 255 / 8.38195800 2.16537500 / 0.45155700 -0.89224230 0.00001620 1.00000000
				-4.49729000 9.72429200 -11.86850000 / 0.89227910 0.45148020 -0.00190740 / 42 141 11 255 / -7.27716000 2.02160600 / -0.45148110 0.89228070 -0.00001640 1.00000000
				5.98324900 25.47930000 -12.44482000 / -0.00090600 -0.00057220 -0.99999950 / 42 141 11 255 / 8.71539300 -3.41552700 / 0.99999430 -0.00326350 -0.00090410 1.00000000
				-4.49729000 9.72429200 -11.86850000 / 0.89227910 0.45148020 -0.00190740 / 42 141 11 255 / -7.27716000 2.02160600 / -0.45148110 0.89228070 -0.00001640 1.00000000
				5.98324900 25.47930000 -12.44482000 / 0.89227960 0.45148050 -0.00162130 / 42 141 11 255 / -3.41552700 2.16568000 / -0.45148100 0.89228070 -0.00001630 1.00000000
				-14.20425000 26.86111000 -12.44401000 / -0.00095370 -0.00057220 -0.99999950 / 42 141 11 255 / 3.83215300 -2.99961900 / 0.99999640 -0.00252680 -0.00095220 1.00000000
				-13.53769000 27.58728000 -12.44499000 / -0.00095370 -0.00057220 -0.99999950 / 42 141 11 255 / 3.99821500 -2.81762700 / 0.99999590 -0.00270920 -0.00095210 1.00000000
				9.37020900 16.74381000 -12.44369000 / -0.00095370 -0.00057220 -0.99999950 / 42 141 11 255 / 9.56814600 -5.59704600 / 0.99999630 -0.00254020 -0.00095220 1.00000000
				3.70272100 13.87347000 -12.44466000 / 0.89228390 0.45147060 -0.00190740 / 42 141 11 255 / -6.23410000 2.16568000 / -0.45147150 0.89228550 -0.00001640 1.00000000
				0.67940140 34.78407000 -12.44451000 / -0.00110270 -0.00076290 -0.99999910 / 42 141 11 255 / 7.38301100 -1.09298700 / 0.99999300 -0.00358340 -0.00109990 1.00000000
				0.33028460 34.60779000 -12.44402000 / -0.89218830 -0.45165970 0.00190730 / 42 141 11 255 / 2.13739000 2.16537500 / 0.45166050 -0.89218990 0.00001600 1.00000000
				-14.20425000 26.86111000 -12.44401000 / -0.89227750 -0.45147950 0.00267030 / 42 141 11 255 / 3.99961900 2.16537500 / 0.45148110 -0.89228070 0.00001640 1.00000000
				0.33028460 34.60779000 -12.44402000 / -0.89218830 -0.45165970 0.00190730 / 42 141 11 255 / 2.13739000 2.16537500 / 0.45166050 -0.89218990 0.00001600 1.00000000
				0.33028460 34.60779000 -12.44402000 / -0.00110270 -0.00076290 -0.99999910 / 42 141 11 255 / 7.29583800 -1.13739000 / 0.99999300 -0.00358340 -0.00109990 1.00000000
				-14.35965000 27.17160000 -11.86736000 / -0.89227750 -0.45147950 0.00267030 / 42 141 11 255 / 3.92218000 2.02128600 / 0.45148110 -0.89228070 0.00001640 1.00000000
				-13.53769000 27.58728000 -12.44499000 / 0.89227910 0.45148020 -0.00190740 / 42 141 11 255 / -2.81762700 2.16568000 / -0.45148110 0.89228070 -0.00001640 1.00000000
				0.33028460 34.60779000 -12.44402000 / -0.00092980 -0.00038150 -0.99999950 / 42 141 11 255 / 7.29583800 -1.13739000 / 0.99999420 -0.00326350 -0.00092860 1.00000000
				5.99345600 25.46122000 -11.86865000 / 0.89227910 0.45148020 -0.00190740 / 42 141 11 255 / -3.42009000 2.02160600 / -0.45148110 0.89228070 -0.00001650 1.00000000
				-13.53769000 27.58728000 -12.44499000 / 0.89227910 0.45148020 -0.00190740 / 42 141 11 255 / -2.81762700 2.16568000 / -0.45148110 0.89228070 -0.00001640 1.00000000
				5.99345600 25.46122000 -11.86865000 / 0.89227960 0.45148050 -0.00162130 / 42 141 11 255 / -3.42009000 2.02160600 / -0.45148100 0.89228070 -0.00001630 1.00000000
				-5.33671700 31.73745000 -12.44499000 / 0.89227910 0.45148020 -0.00190740 / 42 141 11 255 / -1.77444500 2.16568000 / -0.45148110 0.89228070 -0.00001630 1.00000000
				-4.49825400 9.72380500 -12.44466000 / -0.00095370 -0.00047680 -0.99999950 / 42 141 11 255 / 6.27052300 -7.27728300 / 0.99999640 -0.00252680 -0.00095240 1.00000000
				10.19411000 17.16097000 -11.86850000 / 0.89227910 0.45148020 -0.00190740 / 42 141 11 255 / -5.49224900 2.02160600 / -0.45148110 0.89228070 -0.00001650 1.00000000
				5.98324900 25.47930000 -12.44482000 / 0.89227960 0.45148050 -0.00162130 / 42 141 11 255 / -3.41552700 2.16568000 / -0.45148090 0.89228080 0.00010860 1.00000000
				5.98324900 25.47930000 -12.44482000 / -0.00081060 -0.00038150 -0.99999960 / 42 141 11 255 / 8.71539300 -3.41552700 / 0.99148530 -0.13021640 -0.00075400 1.00000000
				1.03874100 34.96027000 -12.44344000 / 0.89218810 0.45166110 -0.00162120 / 42 141 11 255 / -1.03271500 2.16568000 / -0.45166160 0.89218930 0.00010890 1.00000000
			}
		}
		Geometry
		{
			ShaderIndex 1
			Flags -
			VertexDeclaration N209731BE
			Indices 159
			{
				151 58 59 155 63 64 157 0 67 68 69 158 4 73 74
				6 8 77 78 79 7 10 15 13 14 83 84 17 20 87
				88 89 18 21 19 23 24 27 22 29 28 25 26 34 30
				37 31 35 36 43 38 32 39 46 47 49 33 50 40 44
				45 110 51 113 48 41 42 52 114 116 115 53 54 119 117
				120 55 111 112 125 121 128 118 122 131 123 126 124 132 129
				127 138 133 142 92 94 145 97 99 137 100 104 141 105 108
				56 150 57 153 62 60 61 152 154 65 156 66 2 72 70
				71 1 3 75 5 76 11 82 80 81 9 12 85 16 86
				134 93 90 91 130 135 139 98 95 96 136 140 143 103 101
				102 146 144 147 109 106 107 149 148
			}
			Vertices 159
			{
				7.82887100 16.10063000 -11.88266000 / 0.00000000 0.00000000 -1.00000000 / 42 141 11 255 / 1.05842600 5.18600500
				7.82887100 16.10063000 -11.88266000 / 0.00000000 0.00000000 -1.00000000 / 42 141 11 255 / 1.05842600 5.18600500
				6.81130800 15.58195000 -11.88266000 / 0.00000000 0.00000000 -1.00000000 / 42 141 11 255 / 1.23226900 4.84738200
				6.81130800 15.58195000 -11.88266000 / 0.00000000 0.00000000 -1.00000000 / 42 141 11 255 / 1.23226900 4.84738200
				6.81130800 15.58195000 -11.88266000 / 0.00000000 0.00000000 -1.00000000 / 42 141 11 255 / 1.23226900 4.84738200
				6.81130800 15.58195000 -11.88266000 / 0.00000000 0.00000000 -1.00000000 / 42 141 11 255 / 1.23226900 4.84738200
				6.81130800 15.58195000 -11.88266000 / 0.00000000 0.00000000 -1.00000000 / 42 141 11 255 / 1.23226900 4.84738200
				6.81130800 15.58195000 -11.88266000 / 0.00000000 0.00000000 -1.00000000 / 42 141 11 255 / 1.23226900 4.84738200
				-7.88995300 8.10916900 -11.88266000 / 0.00000000 0.00000000 -1.00000000 / 42 141 11 255 / 3.62425200 0.17326360
				-7.88995300 8.10916900 -11.88266000 / 0.00000000 0.00000000 -1.00000000 / 42 141 11 255 / 3.62425200 0.17326360
				-7.88995300 8.10916900 -11.88266000 / 0.00000000 0.00000000 -1.00000000 / 42 141 11 255 / 3.62425200 0.17326360
				-16.89387000 24.69325000 -11.88296000 / 0.00000000 0.00000000 -1.00000000 / 42 141 11 255 / -1.89550800 -2.84341400
				-16.89387000 24.69325000 -11.88296000 / 0.00000000 0.00000000 -1.00000000 / 42 141 11 255 / -1.89550800 -2.84341400
				-16.89387000 24.69325000 -11.88296000 / 0.00000000 0.00000000 -1.00000000 / 42 141 11 255 / -1.89550800 -2.84341400
				-16.89387000 24.69325000 -11.88296000 / 0.00000000 0.00000000 -1.00000000 / 42 141 11 255 / -1.89550800 -2.84341400
				-8.34570400 7.86775700 -11.88266000 / 0.00000000 0.00000000 -1.00000000 / 42 141 11 255 / 3.70517000 0.02156070
				-16.89387000 24.69325000 -12.51578000 / 0.00000000 0.00000000 -1.00000000 / 42 141 11 255 / -1.89550800 -2.84341400
				-16.89387000 24.69325000 -12.51578000 / 0.00000000 0.00000000 -1.00000000 / 42 141 11 255 / -1.89550800 -2.84341400
				-16.89387000 24.69325000 -12.51578000 / 0.00000000 0.00000000 -1.00000000 / 42 141 11 255 / -1.89550800 -2.84341400
				-16.89387000 24.69325000 -12.51578000 / 0.00000000 0.00000000 -1.00000000 / 42 141 11 255 / -1.89550800 -2.84341400
				-17.38259000 24.88650000 -12.51579000 / 0.00000000 0.00000000 -1.00000000 / 42 141 11 255 / -1.95948800 -3.00647000
				-17.38259000 24.88650000 -12.51579000 / 0.00000000 0.00000000 -1.00000000 / 42 141 11 255 / -1.95948800 -3.00647000
				-17.38259000 24.88650000 -12.51579000 / 0.00000000 0.00000000 -1.00000000 / 42 141 11 255 / -1.95948800 -3.00647000
				-8.34569700 7.86775200 -12.51548000 / 0.00000000 0.00000000 -1.00000000 / 42 141 11 255 / 3.70517000 0.02156070
				-8.34569700 7.86775200 -12.51548000 / 0.00000000 0.00000000 -1.00000000 / 42 141 11 255 / 3.70517000 0.02156070
				-8.34569700 7.86775200 -12.51548000 / 0.00000000 0.00000000 -1.00000000 / 42 141 11 255 / 3.70517000 0.02156070
				-8.34569700 7.86775200 -12.51548000 / 0.00000000 0.00000000 -1.00000000 / 42 141 11 255 / 3.70517000 0.02156070
				-8.51603200 7.27714300 -12.51547000 / 0.00000000 0.00000000 -1.00000000 / 42 141 11 255 / 3.87275700 -0.03479000
				-8.51603200 7.27714300 -12.51547000 / 0.00000000 0.00000000 -1.00000000 / 42 141 11 255 / 3.87275700 -0.03479000
				-7.71950300 7.68069800 -12.51547000 / 0.00000000 0.00000000 -1.00000000 / 42 141 11 255 / 3.73745700 0.23025510
				-7.71950300 7.68069800 -12.51547000 / 0.00000000 0.00000000 -1.00000000 / 42 141 11 255 / 3.73745700 0.23025510
				-7.71950300 7.68069800 -12.51547000 / 0.00000000 0.00000000 -1.00000000 / 42 141 11 255 / 3.73745700 0.23025510
				-7.71950300 7.68069800 -12.51547000 / 0.00000000 0.00000000 -1.00000000 / 42 141 11 255 / 3.73745700 0.23025510
				-7.71950300 7.68069800 -12.51547000 / 0.00000000 0.00000000 -1.00000000 / 42 141 11 255 / 3.73745700 0.23025510
				-7.88994900 8.10915900 -12.51548000 / 0.00000000 0.00000000 -1.00000000 / 42 141 11 255 / 3.62425200 0.17326360
				-7.88994900 8.10915900 -12.51548000 / 0.00000000 0.00000000 -1.00000000 / 42 141 11 255 / 3.62425200 0.17326360
				-7.88994900 8.10915900 -12.51548000 / 0.00000000 0.00000000 -1.00000000 / 42 141 11 255 / 3.62425200 0.17326360
				6.95796700 15.29004000 -12.51547000 / 0.00000000 0.00000000 -1.00000000 / 42 141 11 255 / 1.32948300 4.89657600
				6.95796700 15.29004000 -12.51547000 / 0.00000000 0.00000000 -1.00000000 / 42 141 11 255 / 1.32948300 4.89657600
				6.95796700 15.29004000 -12.51547000 / 0.00000000 0.00000000 -1.00000000 / 42 141 11 255 / 1.32948300 4.89657600
				6.95796700 15.29004000 -12.51547000 / 0.00000000 0.00000000 -1.00000000 / 42 141 11 255 / 1.32948300 4.89657600
				6.95796700 15.29004000 -12.51547000 / 0.00000000 0.00000000 -1.00000000 / 42 141 11 255 / 1.32948300 4.89657600
				6.95796700 15.29004000 -12.51547000 / 0.00000000 0.00000000 -1.00000000 / 42 141 11 255 / 1.32948300 4.89657600
				6.81131100 15.58194000 -12.51548000 / 0.00000000 0.00000000 -1.00000000 / 42 141 11 255 / 1.23226900 4.84736600
				6.81131100 15.58194000 -12.51548000 / 0.00000000 0.00000000 -1.00000000 / 42 141 11 255 / 1.23226900 4.84736600
				6.81131100 15.58194000 -12.51548000 / 0.00000000 0.00000000 -1.00000000 / 42 141 11 255 / 1.23226900 4.84736600
				7.10902000 14.99958000 -12.51547000 / 0.00000000 0.00000000 -1.00000000 / 42 141 11 255 / 1.42613200 4.94709800
				7.10902000 14.99958000 -12.51547000 / 0.00000000 0.00000000 -1.00000000 / 42 141 11 255 / 1.42613200 4.94709800
				7.10902000 14.99958000 -12.51547000 / 0.00000000 0.00000000 -1.00000000 / 42 141 11 255 / 1.42613200 4.94709800
				-7.61121300 7.55662500 -12.51547000 / 0.00000000 0.00000000 -1.00000000 / 42 141 11 255 / 3.80807500 0.26663210
				7.97405900 15.80919000 -12.51547000 / 0.00000000 0.00000000 -1.00000000 / 42 141 11 255 / 1.15542600 5.23469500
				7.97405900 15.80919000 -12.51547000 / 0.00000000 0.00000000 -1.00000000 / 42 141 11 255 / 1.15542600 5.23469500
				7.97405900 15.80919000 -12.51547000 / 0.00000000 0.00000000 -1.00000000 / 42 141 11 255 / 1.15542600 5.23469500
				7.97405900 15.80919000 -12.51547000 / 0.00000000 0.00000000 -1.00000000 / 42 141 11 255 / 1.15542600 5.23469500
				7.97405900 15.80919000 -12.51547000 / 0.00000000 0.00000000 -1.00000000 / 42 141 11 255 / 1.15542600 5.23469500
				7.97405900 15.80919000 -12.51547000 / 0.00000000 0.00000000 -1.00000000 / 42 141 11 255 / 1.15542600 5.23469500
				10.42838000 17.50338000 -11.88266000 / 0.00000000 0.00000000 -1.00000000 / 42 141 11 255 / 0.58849850 6.05123900
				10.17614000 17.99831000 -11.88267000 / 0.00000000 0.00000000 -1.00000000 / 42 141 11 255 / 0.42373290 5.96671500
				10.10914000 18.12975000 -11.88267000 / 0.00000000 0.00000000 -1.00000000 / 42 141 11 255 / 0.37997880 5.94424800
				10.17614000 17.99831000 -11.88267000 / 0.00000000 0.00000000 -1.00000000 / 42 141 11 255 / 0.42373290 5.96671500
				10.10914000 18.12975000 -11.88267000 / 0.00000000 0.00000000 -1.00000000 / 42 141 11 255 / 0.37997880 5.94424800
				10.10914000 18.12975000 -11.88267000 / 0.00000000 0.00000000 -1.00000000 / 42 141 11 255 / 0.37997880 5.94424800
				9.73739900 18.85915000 -11.88268000 / 0.00000000 0.00000000 -1.00000000 / 42 141 11 255 / 0.13714930 5.81968000
				9.58478600 19.15859000 -11.88269000 / 0.00000000 0.00000000 -1.00000000 / 42 141 11 255 / 0.03748790 5.76855500
				9.73739900 18.85915000 -11.88268000 / 0.00000000 0.00000000 -1.00000000 / 42 141 11 255 / 0.13714930 5.81968000
				9.58478600 19.15859000 -11.88269000 / 0.00000000 0.00000000 -1.00000000 / 42 141 11 255 / 0.03748800 5.76855500
				9.42347500 19.47510000 -11.88269000 / 0.00000000 0.00000000 -1.00000000 / 42 141 11 255 / -0.06789850 5.71448800
				9.02892400 20.24925000 -11.88271000 / 0.00000000 0.00000000 -1.00000000 / 42 141 11 255 / -0.32555290 5.58222300
				9.02892400 20.24925000 -11.88271000 / 0.00000000 0.00000000 -1.00000000 / 42 141 11 255 / -0.32555290 5.58222300
				9.42347500 19.47510000 -11.88269000 / 0.00000000 0.00000000 -1.00000000 / 42 141 11 255 / -0.06789850 5.71448800
				9.02892400 20.24925000 -11.88271000 / 0.00000000 0.00000000 -1.00000000 / 42 141 11 255 / -0.32555280 5.58222300
				9.02892400 20.24925000 -11.88271000 / 0.00000000 0.00000000 -1.00000000 / 42 141 11 255 / -0.32555280 5.58222300
				8.72903500 20.83766000 -11.88272000 / 0.00000000 0.00000000 -1.00000000 / 42 141 11 255 / -0.52140560 5.48177000
				8.46664900 21.35248000 -11.88273000 / 0.00000000 0.00000000 -1.00000000 / 42 141 11 255 / -0.69276010 5.39381100
				8.72903500 20.83766000 -11.88272000 / 0.00000000 0.00000000 -1.00000000 / 42 141 11 255 / -0.52140580 5.48176900
				8.46664900 21.35248000 -11.88273000 / 0.00000000 0.00000000 -1.00000000 / 42 141 11 255 / -0.69276010 5.39381100
				7.05463900 24.12298000 -11.88278000 / 0.00000000 0.00000000 -1.00000000 / 42 141 11 255 / -1.61495000 4.92061600
				4.47195800 29.19045000 -11.88287000 / 0.00000000 0.00000000 -1.00000000 / 42 141 11 255 / -3.30170100 4.05506000
				4.47195800 29.19045000 -11.88287000 / 0.00000000 0.00000000 -1.00000000 / 42 141 11 255 / -3.30170100 4.05506000
				7.05463900 24.12298000 -11.88278000 / 0.00000000 0.00000000 -1.00000000 / 42 141 11 255 / -1.61495000 4.92061600
				4.47195800 29.19045000 -11.88287000 / 0.00000000 0.00000000 -1.00000000 / 42 141 11 255 / -3.30170100 4.05506000
				4.47195800 29.19045000 -11.88287000 / 0.00000000 0.00000000 -1.00000000 / 42 141 11 255 / -3.30170100 4.05506000
				2.67379000 32.43028000 -11.88138000 / 0.00000000 0.00000000 -1.00000000 / 42 141 11 255 / -4.40133900 3.49077100
				1.33204900 35.06291000 -11.88143000 / 0.00001190 0.00000000 -1.00000000 / 42 141 11 255 / -5.27761700 3.04109600
				2.67379400 32.43029000 -11.88138000 / 0.00000000 0.00000000 -1.00000000 / 42 141 11 255 / -4.40133900 3.49077100
				1.34718800 35.07158000 -12.51425000 / 0.00001190 0.00000000 -1.00000000 / 42 141 11 255 / -5.28051300 3.04613500
				1.20623900 35.34813000 -12.51425000 / 0.00001190 0.00000000 -1.00000000 / 42 141 11 255 / -5.37256200 2.99889900
				1.16965000 35.41991000 -12.51426000 / 0.00001190 0.00000000 -1.00000000 / 42 141 11 255 / -5.39645700 2.98664300
				1.16965000 35.41991000 -12.51426000 / 0.00001190 0.00000000 -1.00000000 / 42 141 11 255 / -5.39645700 2.98664300
				1.20623800 35.34813000 -12.51425000 / 0.00001190 0.00000000 -1.00000000 / 42 141 11 255 / -5.37256200 2.99889800
				10.72309000 16.96350000 -12.51547000 / 0.00000000 0.00000000 -1.00000000 / 42 141 11 255 / 0.76812480 6.14998400
				10.72309000 16.96350000 -12.51547000 / 0.00000000 0.00000000 -1.00000000 / 42 141 11 255 / 0.76812480 6.14998400
				10.72309000 16.96350000 -12.51547000 / 0.00000000 0.00000000 -1.00000000 / 42 141 11 255 / 0.76812480 6.14998400
				10.67214000 17.06346000 -12.51547000 / 0.00000000 0.00000000 -1.00000000 / 42 141 11 255 / 0.73488630 6.13292900
				10.67214000 17.06346000 -12.51547000 / 0.00000000 0.00000000 -1.00000000 / 42 141 11 255 / 0.73488630 6.13292900
				10.57835000 17.24748000 -12.51547000 / 0.00000000 0.00000000 -1.00000000 / 42 141 11 255 / 0.67363080 6.10147600
				10.57835000 17.24748000 -12.51547000 / 0.00000000 0.00000000 -1.00000000 / 42 141 11 255 / 0.67363080 6.10147600
				10.57835000 17.24748000 -12.51547000 / 0.00000000 0.00000000 -1.00000000 / 42 141 11 255 / 0.67363080 6.10147600
				10.52978000 17.34279000 -12.51547000 / 0.00000000 0.00000000 -1.00000000 / 42 141 11 255 / 0.64188390 6.08517600
				10.52978000 17.34279000 -12.51547000 / 0.00000000 0.00000000 -1.00000000 / 42 141 11 255 / 0.64188390 6.08517600
				10.57835000 17.24748000 -12.51547000 / 0.00000000 0.00000000 -1.00000000 / 42 141 11 255 / 0.67363080 6.10147600
				10.57835000 17.24748000 -12.51547000 / 0.00000000 0.00000000 -1.00000000 / 42 141 11 255 / 0.67363080 6.10147600
				10.57835000 17.24748000 -12.51547000 / 0.00000000 0.00000000 -1.00000000 / 42 141 11 255 / 0.67363080 6.10147600
				10.67214000 17.06346000 -12.51547000 / 0.00000000 0.00000000 -1.00000000 / 42 141 11 255 / 0.73488630 6.13292900
				10.67214000 17.06346000 -12.51547000 / 0.00000000 0.00000000 -1.00000000 / 42 141 11 255 / 0.73488630 6.13292900
				10.44339000 17.51228000 -12.51548000 / 0.00000000 0.00000000 -1.00000000 / 42 141 11 255 / 0.58551540 6.05622400
				10.44339000 17.51228000 -12.51548000 / 0.00000000 0.00000000 -1.00000000 / 42 141 11 255 / 0.58551540 6.05622400
				10.44339000 17.51228000 -12.51548000 / 0.00000000 0.00000000 -1.00000000 / 42 141 11 255 / 0.58551540 6.05622400
				10.52978000 17.34279000 -12.51547000 / 0.00000000 0.00000000 -1.00000000 / 42 141 11 255 / 0.64188390 6.08517600
				10.52978000 17.34279000 -12.51547000 / 0.00000000 0.00000000 -1.00000000 / 42 141 11 255 / 0.64188390 6.08517600
				7.82887400 16.10061000 -12.51548000 / 0.00000000 0.00000000 -1.00000000 / 42 141 11 255 / 1.05842600 5.18600500
				7.82887400 16.10061000 -12.51548000 / 0.00000000 0.00000000 -1.00000000 / 42 141 11 255 / 1.05842600 5.18600500
				7.82887400 16.10061000 -12.51548000 / 0.00000000 0.00000000 -1.00000000 / 42 141 11 255 / 1.05842600 5.18600500
				8.12511700 15.52021000 -12.51547000 / 0.00000000 0.00000000 -1.00000000 / 42 141 11 255 / 1.25166300 5.28543100
				8.12511700 15.52021000 -12.51547000 / 0.00000000 0.00000000 -1.00000000 / 42 141 11 255 / 1.25166300 5.28543100
				8.12511700 15.52021000 -12.51547000 / 0.00000000 0.00000000 -1.00000000 / 42 141 11 255 / 1.25166300 5.28543100
				9.12752400 16.03891000 -12.51547000 / 0.00000000 0.00000000 -1.00000000 / 42 141 11 255 / 1.07782000 5.61904900
				9.12752400 16.03891000 -12.51547000 / 0.00000000 0.00000000 -1.00000000 / 42 141 11 255 / 1.07782000 5.61904900
				9.12752400 16.03891000 -12.51547000 / 0.00000000 0.00000000 -1.00000000 / 42 141 11 255 / 1.07782000 5.61904900
				8.98429600 16.33178000 -12.51547000 / 0.00000000 0.00000000 -1.00000000 / 42 141 11 255 / 0.98033140 5.57098400
				8.98429600 16.33178000 -12.51547000 / 0.00000000 0.00000000 -1.00000000 / 42 141 11 255 / 0.98033140 5.57098400
				8.98429600 16.33178000 -12.51547000 / 0.00000000 0.00000000 -1.00000000 / 42 141 11 255 / 0.98033140 5.57098400
				8.98429600 16.33178000 -12.51547000 / 0.00000000 0.00000000 -1.00000000 / 42 141 11 255 / 0.98033140 5.57098400
				8.98429600 16.33178000 -12.51547000 / 0.00000000 0.00000000 -1.00000000 / 42 141 11 255 / 0.98033140 5.57098400
				8.98429600 16.33178000 -12.51547000 / 0.00000000 0.00000000 -1.00000000 / 42 141 11 255 / 0.98033140 5.57098400
				8.82882100 16.61152000 -12.51548000 / 0.00000000 0.00000000 -1.00000000 / 42 141 11 255 / 0.88716120 5.51889000
				8.82882100 16.61152000 -12.51548000 / 0.00000000 0.00000000 -1.00000000 / 42 141 11 255 / 0.88716120 5.51889000
				8.82882100 16.61152000 -12.51548000 / 0.00000000 0.00000000 -1.00000000 / 42 141 11 255 / 0.88716120 5.51889000
				10.10608000 16.57868000 -12.51547000 / 0.00000000 0.00000000 -1.00000000 / 42 141 11 255 / 0.89695740 5.94465700
				10.10608000 16.57868000 -12.51547000 / 0.00000000 0.00000000 -1.00000000 / 42 141 11 255 / 0.89695740 5.94465700
				10.10608000 16.57868000 -12.51547000 / 0.00000000 0.00000000 -1.00000000 / 42 141 11 255 / 0.89695740 5.94465700
				9.96039700 16.86668000 -12.51547000 / 0.00000000 0.00000000 -1.00000000 / 42 141 11 255 / 0.80119320 5.89588900
				9.96039700 16.86668000 -12.51547000 / 0.00000000 0.00000000 -1.00000000 / 42 141 11 255 / 0.80119320 5.89588900
				9.96039700 16.86668000 -12.51547000 / 0.00000000 0.00000000 -1.00000000 / 42 141 11 255 / 0.80119320 5.89588900
				9.96039700 16.86668000 -12.51547000 / 0.00000000 0.00000000 -1.00000000 / 42 141 11 255 / 0.80119320 5.89588900
				9.96039700 16.86668000 -12.51547000 / 0.00000000 0.00000000 -1.00000000 / 42 141 11 255 / 0.80119320 5.89588900
				9.96039700 16.86668000 -12.51547000 / 0.00000000 0.00000000 -1.00000000 / 42 141 11 255 / 0.80119320 5.89588900
				9.96039700 16.86668000 -12.51547000 / 0.00000000 0.00000000 -1.00000000 / 42 141 11 255 / 0.80119320 5.89588900
				9.80635500 17.13421000 -12.51548000 / 0.00000000 0.00000000 -1.00000000 / 42 141 11 255 / 0.71209720 5.84423800
				9.80635500 17.13421000 -12.51548000 / 0.00000000 0.00000000 -1.00000000 / 42 141 11 255 / 0.71209720 5.84423800
				9.80635500 17.13421000 -12.51548000 / 0.00000000 0.00000000 -1.00000000 / 42 141 11 255 / 0.71209720 5.84423800
				9.80635500 17.13421000 -12.51548000 / 0.00000000 0.00000000 -1.00000000 / 42 141 11 255 / 0.71209720 5.84423800
				11.05156000 17.16836000 -12.51547000 / 0.00000000 0.00000000 -1.00000000 / 42 141 11 255 / 0.69953920 6.25929300
				11.05156000 17.16836000 -12.51547000 / 0.00000000 0.00000000 -1.00000000 / 42 141 11 255 / 0.69953920 6.25929300
				11.05156000 17.16836000 -12.51547000 / 0.00000000 0.00000000 -1.00000000 / 42 141 11 255 / 0.69953920 6.25929300
				10.91173000 17.45292000 -12.51547000 / 0.00000000 0.00000000 -1.00000000 / 42 141 11 255 / 0.60481260 6.21238700
				10.91173000 17.45292000 -12.51547000 / 0.00000000 0.00000000 -1.00000000 / 42 141 11 255 / 0.60481260 6.21238700
				10.91173000 17.45292000 -12.51547000 / 0.00000000 0.00000000 -1.00000000 / 42 141 11 255 / 0.60481260 6.21238700
				10.91173000 17.45292000 -12.51547000 / 0.00000000 0.00000000 -1.00000000 / 42 141 11 255 / 0.60481260 6.21238700
				10.75957000 17.69993000 -12.51548000 / 0.00000000 0.00000000 -1.00000000 / 42 141 11 255 / 0.52268980 6.16143800
				9.80635400 17.13421000 -11.88266000 / 0.00000000 0.00000000 -1.00000000 / 42 141 11 255 / 0.71209720 5.84423800
				9.80635400 17.13421000 -11.88266000 / 0.00000000 0.00000000 -1.00000000 / 42 141 11 255 / 0.71209720 5.84423800
				9.80635400 17.13421000 -11.88266000 / 0.00000000 0.00000000 -1.00000000 / 42 141 11 255 / 0.71209720 5.84423800
				8.82881500 16.61153000 -11.88266000 / 0.00000000 0.00000000 -1.00000000 / 42 141 11 255 / 0.88716120 5.51890600
				8.82881500 16.61153000 -11.88266000 / 0.00000000 0.00000000 -1.00000000 / 42 141 11 255 / 0.88716120 5.51890600
				8.82881500 16.61153000 -11.88266000 / 0.00000000 0.00000000 -1.00000000 / 42 141 11 255 / 0.88716120 5.51890600
				8.82881500 16.61153000 -11.88266000 / 0.00000000 0.00000000 -1.00000000 / 42 141 11 255 / 0.88716120 5.51890600
				8.82881500 16.61153000 -11.88266000 / 0.00000000 0.00000000 -1.00000000 / 42 141 11 255 / 0.88716120 5.51890600
				8.82881500 16.61153000 -11.88266000 / 0.00000000 0.00000000 -1.00000000 / 42 141 11 255 / 0.88716120 5.51890600
			}
		}
		Geometry
		{
			ShaderIndex 2
			Flags -
			VertexDeclaration N209731BE
			Indices 63
			{
				0 2 3 4 5 1 9 51 52 10 12 13 14 16 11
				17 15 19 20 23 18 25 24 21 22 28 26 31 27 29
				30 34 32 37 33 35 36 42 38 39 43 53 54 56 40
				45 47 58 59 61 46 7 50 48 49 6 8 55 44 57
				60 41 62
			}
			Vertices 63
			{
				-8.34569700 7.86775200 -12.51548000 / 0.89152840 0.45296470 0.00000000 / 42 141 11 255 / -7.13504000 1.00363200
				-8.34569700 7.86775200 -12.51548000 / 0.89152840 0.45296470 0.00000000 / 42 141 11 255 / -7.13504000 1.00363200
				-16.89387000 24.69325000 -12.51578000 / 0.89150920 0.45300270 0.00000000 / 42 141 11 255 / 1.33969100 1.00363200
				-16.89387000 24.69325000 -11.88296000 / 0.89150920 0.45300270 0.00000000 / 42 141 11 255 / 1.33969100 0.68739320
				-16.89387000 24.69325000 -11.88296000 / 0.89150920 0.45300270 0.00000000 / 42 141 11 255 / 1.33969100 0.68739320
				-8.34570400 7.86775700 -11.88266000 / 0.89152840 0.45296470 0.00000000 / 42 141 11 255 / -7.13504000 0.68739320
				-16.89387000 24.69325000 -11.88296000 / 0.49441250 -0.86922750 0.00000000 / 42 141 11 255 / -6.06768800 0.68739320
				-16.89387000 24.69325000 -12.51578000 / 0.49441250 -0.86922750 0.00000000 / 42 141 11 255 / -6.06768800 1.00363200
				-16.89387000 24.69325000 -12.51578000 / 0.49441250 -0.86922750 0.00000000 / 42 141 11 255 / -6.06768800 1.00363200
				-16.89387000 24.69325000 -12.51578000 / 0.49441250 -0.86922750 -0.00009540 / 42 141 11 255 / -6.06768800 1.00363200
				-8.34569700 7.86775200 -12.51548000 / -0.46807180 0.88369050 0.00000000 / 42 141 11 255 / 2.88156100 1.00363200
				-8.34569700 7.86775200 -12.51548000 / -0.46807180 0.88369050 0.00000000 / 42 141 11 255 / 2.88156100 1.00363200
				-8.34570400 7.86775700 -11.88266000 / -0.46807180 0.88369050 0.00000000 / 42 141 11 255 / 2.88156100 0.68739320
				-7.88995300 8.10916900 -11.88266000 / -0.46807180 0.88369050 0.00000000 / 42 141 11 255 / 2.65007000 0.68739320
				-7.88995300 8.10916900 -11.88266000 / -0.46807180 0.88369050 0.00000000 / 42 141 11 255 / 2.65007000 0.68739320
				-7.88995300 8.10916900 -11.88266000 / -0.45315490 0.89143190 0.00000000 / 42 141 11 255 / 2.65007000 0.68739320
				-7.88994900 8.10915900 -12.51548000 / -0.46807180 0.88369050 0.00000000 / 42 141 11 255 / 2.65007000 1.00363200
				-7.88994900 8.10915900 -12.51548000 / -0.45315490 0.89143190 0.00000000 / 42 141 11 255 / 2.65007000 1.00363200
				-7.88994900 8.10915900 -12.51548000 / -0.45315490 0.89143190 0.00000000 / 42 141 11 255 / 2.65007000 1.00363200
				6.81130800 15.58195000 -11.88266000 / -0.45315490 0.89143190 0.00000000 / 42 141 11 255 / -4.42265300 0.68739320
				6.81130800 15.58195000 -11.88266000 / -0.45315490 0.89143190 0.00000000 / 42 141 11 255 / -4.42265300 0.68739320
				6.81130800 15.58195000 -11.88266000 / -0.45414290 0.89092890 0.00000000 / 42 141 11 255 / -4.42265300 0.68739320
				6.81130800 15.58195000 -11.88266000 / -0.45414290 0.89092890 0.00000000 / 42 141 11 255 / -4.42265300 0.68739320
				6.81131100 15.58194000 -12.51548000 / -0.45315490 0.89143190 0.00000000 / 42 141 11 255 / -4.42263800 1.00363200
				6.81131100 15.58194000 -12.51548000 / -0.45414290 0.89092890 0.00000000 / 42 141 11 255 / -4.42263800 1.00363200
				7.82887400 16.10061000 -12.51548000 / -0.45414290 0.89092890 0.00000000 / 42 141 11 255 / -4.93507400 1.00363200
				7.82887400 16.10061000 -12.51548000 / -0.45414290 0.89092890 0.00000000 / 42 141 11 255 / -4.93507400 1.00363200
				7.82887400 16.10061000 -12.51548000 / -0.45497830 0.89050260 0.00000000 / 42 141 11 255 / -4.93507400 1.00363200
				7.82887100 16.10063000 -11.88266000 / -0.45414290 0.89092890 0.00000000 / 42 141 11 255 / -4.93507400 0.68739320
				7.82887100 16.10063000 -11.88266000 / -0.45497830 0.89050260 0.00000000 / 42 141 11 255 / -4.93507400 0.68739320
				7.82887100 16.10063000 -11.88266000 / -0.45497830 0.89050260 0.00000000 / 42 141 11 255 / -4.93507400 0.68739320
				8.82882100 16.61152000 -12.51548000 / -0.45497830 0.89050260 0.00000000 / 42 141 11 255 / -5.43881200 1.00363200
				8.82882100 16.61152000 -12.51548000 / -0.45497830 0.89050260 0.00000000 / 42 141 11 255 / -5.43881200 1.00363200
				8.82882100 16.61152000 -12.51548000 / -0.47153850 0.88184560 0.00000000 / 42 141 11 255 / -5.43881200 1.00363200
				8.82881500 16.61153000 -11.88266000 / -0.45497830 0.89050260 0.00000000 / 42 141 11 255 / -5.43881200 0.68739320
				8.82881500 16.61153000 -11.88266000 / -0.47153850 0.88184560 0.00000000 / 42 141 11 255 / -5.43881200 0.68739320
				8.82881500 16.61153000 -11.88266000 / -0.47153850 0.88184560 0.00000000 / 42 141 11 255 / -5.43881200 0.68739320
				9.80635500 17.13421000 -12.51548000 / -0.47153850 0.88184560 0.00000000 / 42 141 11 255 / -5.93132000 1.00363200
				9.80635500 17.13421000 -12.51548000 / -0.47153850 0.88184560 0.00000000 / 42 141 11 255 / -5.93132000 1.00363200
				9.80635500 17.13421000 -12.51548000 / -0.51036690 0.85995690 0.00000000 / 42 141 11 255 / -5.93132000 1.00363200
				9.80635500 17.13421000 -12.51548000 / -0.51036690 0.85995690 0.00000000 / 42 141 11 255 / -5.93132000 1.00363200
				9.80635500 17.13421000 -12.51548000 / -0.51036690 0.85995690 0.00000000 / 42 141 11 255 / -5.93132000 1.00363200
				9.80635400 17.13421000 -11.88266000 / -0.47153850 0.88184560 0.00000000 / 42 141 11 255 / -5.93132000 0.68739320
				9.80635400 17.13421000 -11.88266000 / -0.51036690 0.85995690 0.00000000 / 42 141 11 255 / -5.93132000 0.68739320
				10.75957000 17.69994000 -11.88266000 / -0.51036690 0.85995690 0.00000000 / 42 141 11 255 / -6.41203300 0.68739320
				10.75957000 17.69994000 -11.88266000 / -0.51036690 0.85995690 0.00000000 / 42 141 11 255 / -6.41203300 0.68739320
				10.75957000 17.69994000 -11.88266000 / -0.51036690 0.85995690 0.00000000 / 42 141 11 255 / -6.41203300 0.68739320
				10.75957000 17.69993000 -12.51548000 / -0.51036690 0.85995690 0.00000000 / 42 141 11 255 / -6.41203300 1.00363200
				1.33204900 35.06291000 -11.88143000 / 0.49418630 -0.86935590 0.00000000 / 42 141 11 255 / 2.87373800 0.68739320
				1.33204900 35.06291000 -11.88143000 / 0.49418630 -0.86935590 0.00000000 / 42 141 11 255 / 2.87373800 0.68739320
				1.33496500 35.06458000 -12.00329000 / 0.49418630 -0.86935590 0.00000000 / 42 141 11 255 / 2.87521300 0.74829020
				1.34718800 35.07158000 -12.51425000 / 0.49418630 -0.86935590 -0.00009540 / 42 141 11 255 / 2.88139400 1.00363200
				1.33496500 35.06458000 -12.00329000 / 0.49418630 -0.86935590 -0.00009540 / 42 141 11 255 / 2.87521300 0.74829020
				10.42838000 17.50338000 -11.88266000 / -0.51036690 0.85995690 0.00000000 / 42 141 11 255 / -6.24501200 0.68739320
				10.42838000 17.50338000 -11.88266000 / -0.51036690 0.85995690 0.00000000 / 42 141 11 255 / -6.24501200 0.68739320
				10.42838000 17.50338000 -11.88266000 / -0.51036690 0.85995690 0.00000000 / 42 141 11 255 / -6.24501200 0.68739320
				10.43352000 17.50643000 -12.09912000 / -0.51036690 0.85995690 0.00000000 / 42 141 11 255 / -6.24760200 0.79556530
				10.43352000 17.50643000 -12.09912000 / -0.51036690 0.85995690 0.00000000 / 42 141 11 255 / -6.24760200 0.79556530
				10.44339000 17.51228000 -12.51548000 / -0.51036690 0.85995690 0.00000000 / 42 141 11 255 / -6.25258200 1.00363200
				10.44339000 17.51228000 -12.51548000 / -0.51036690 0.85995690 0.00000000 / 42 141 11 255 / -6.25258200 1.00363200
				10.44339000 17.51228000 -12.51548000 / -0.51036690 0.85995690 0.00000000 / 42 141 11 255 / -6.25258200 1.00363200
				10.43352000 17.50643000 -12.09912000 / -0.51036690 0.85995690 0.00000000 / 42 141 11 255 / -6.24760200 0.79556530
				10.43352000 17.50643000 -12.09912000 / -0.51036690 0.85995690 0.00000000 / 42 141 11 255 / -6.24760200 0.79556530
			}
		}
	}
}
