Version 165 32
{
	Locked False
	Skinned False
	BoneCount 0
	Mask 255
	Bounds
	{
		Aabb
		{
			Min -38.33105000 -5.30810500 -17.57764000
			Max -8.11425800 24.97656000 -12.51563000
		}
		Aabb
		{
			Min -32.57178000 -5.30810500 -16.96680000
			Max -17.02930000 24.97656000 -12.51563000
		}
		Aabb
		{
			Min -38.33105000 -1.85742200 -16.96680000
			Max -17.82471000 24.78223000 -16.96680000
		}
		Aabb
		{
			Min -38.10107000 -5.30810500 -17.57764000
			Max -8.11425800 24.97656000 -16.96680000
		}
	}
	Geometries
	{
		Geometry
		{
			ShaderIndex 0
			Flags -
			VertexDeclaration N51263BB5
			Indices 90
			{
				0 89 77 72 42 57 33 45 40 41 5 7 79 15 51
				20 24 11 22 44 34 52 54 66 88 2 53 56 18 8
				9 10 58 64 68 16 17 19 65 69 27 83 84 67 70
				86 71 13 28 74 3 76 25 46 48 85 78 81 31 35
				82 36 63 39 80 75 87 38 55 1 23 4 6 62 12
				14 59 21 49 47 43 26 61 60 73 50 29 32 30 37
			}
			Vertices 90
			{
				-17.82471000 24.57080000 -12.51563000 / 0.45437150 -0.89081230 0.00000000 / 42 141 11 255 / -4.46644600 2.18328900 / 0.89081230 0.45437150 0.00000530 1.00000000
				-32.57178000 -1.85742200 -13.43057000 / -0.45700000 0.88946670 0.00000000 / 42 141 11 255 / 9.15330500 2.41204000 / -0.88946670 -0.45700000 0.00001950 1.00000000
				-32.52822000 -1.83504000 -13.43057000 / -0.45700000 0.88946670 0.00000000 / 42 141 11 255 / 9.14241800 2.41203900 / -0.88946670 -0.45700000 0.00001950 1.00000000
				-17.82471000 24.57080000 -12.51563000 / 0.45437150 -0.89081230 0.00000000 / 42 141 11 255 / -4.46644600 2.18328900 / 0.89081230 0.45437150 0.00000000 1.00000000
				-32.52822000 -1.83504000 -13.43057000 / -0.45700000 0.88946670 0.00000000 / 42 141 11 255 / 9.14241800 2.41203900 / -0.88946670 -0.45700000 0.00001950 1.00000000
				-32.35986000 -1.74853500 -16.96680000 / 0.87737100 0.47981230 0.00000000 / 42 141 11 255 / 2.18838500 3.29615800 / -0.47981230 0.87737120 -0.00000020 1.00000000
				-17.82471000 24.57080000 -13.43057000 / -0.88906160 -0.45778760 0.00000000 / 42 141 11 255 / -7.76817300 2.41204000 / 0.45778760 -0.88906160 0.00001950 1.00000000
				-32.35948000 -1.74853500 -13.43057000 / 0.87737100 0.47981230 -0.00009540 / 42 141 11 255 / 2.18833700 2.41204000 / -0.47981230 0.87737120 -0.00000020 1.00000000
				-17.82471000 24.57080000 -13.43057000 / -0.88906160 -0.45778760 0.00000000 / 42 141 11 255 / -7.76817300 2.41204000 / 0.45778760 -0.88906160 0.00000000 1.00000000
				-17.82471000 24.57080000 -13.43057000 / -0.88906160 -0.45778760 0.00000000 / 42 141 11 255 / -7.76817300 2.41204000 / 0.45778760 -0.88906160 0.00001950 1.00000000
				-17.84709000 24.61426000 -13.43057000 / -0.88906160 -0.45778760 0.00000000 / 42 141 11 255 / -7.77904400 2.41203900 / 0.45778760 -0.88906160 0.00001950 1.00000000
				-32.35948000 -1.74853500 -13.43057000 / -0.45623630 0.88985860 0.00009540 / 42 141 11 255 / 9.10020800 2.41203900 / -0.88985870 -0.45623630 0.00000000 1.00000000
				-17.84709000 24.61426000 -13.43057000 / -0.88906160 -0.45778760 0.00000000 / 42 141 11 255 / -7.77904400 2.41203900 / 0.45778760 -0.88906160 0.00001950 1.00000000
				-17.02930000 24.97656000 -13.43057000 / 0.45437150 -0.89081230 0.00000000 / 42 141 11 255 / -4.26767000 2.41204000 / 0.89081230 0.45437150 0.00000140 1.00000000
				-17.93359000 24.78262000 -13.43057000 / -0.88945160 -0.45702900 0.00009540 / 42 141 11 255 / -7.82112000 2.41203900 / 0.45702900 -0.88945160 0.00000500 1.00000000
				-30.41260000 -5.30810400 -13.43057000 / 0.87734090 0.47986740 0.00000000 / 42 141 11 255 / 1.29850800 2.41203900 / -0.47986740 0.87734090 0.00000120 1.00000000
				-17.93359000 24.78262000 -13.43057000 / -0.88945160 -0.45702900 0.00009540 / 42 141 11 255 / -7.82112000 2.41203900 / 0.45702900 -0.88945180 0.00000000 1.00000000
				-17.93359000 24.78262000 -13.43057000 / -0.88945160 -0.45702900 0.00009540 / 42 141 11 255 / -7.82112000 2.41203900 / 0.45702900 -0.88945160 0.00000500 1.00000000
				-17.82471000 24.57080000 -16.96680000 / -0.88906160 -0.45778760 0.00000000 / 42 141 11 255 / -7.76817300 3.29615800 / 0.45778760 -0.88906160 0.00000000 1.00000000
				-17.84709000 24.61426000 -13.43057000 / -0.88945160 -0.45702900 0.00009540 / 42 141 11 255 / -7.77904400 2.41204000 / 0.45702900 -0.88945160 0.00000500 1.00000000
				-32.57178000 -1.85742200 -12.51563000 / -0.45623630 0.88985860 0.00009540 / 42 141 11 255 / 9.15330500 2.18328900 / -0.88985870 -0.45623630 0.00000000 1.00000000
				-17.84709000 24.61426000 -13.43057000 / -0.88945160 -0.45702900 0.00009540 / 42 141 11 255 / -7.77904400 2.41204000 / 0.45702900 -0.88945160 0.00000500 1.00000000
				-32.35948000 -1.74853500 -13.43057000 / -0.45623630 0.88985860 0.00009540 / 42 141 11 255 / 9.10020800 2.41203900 / -0.88985870 -0.45623630 0.00000500 1.00000000
				-32.57178000 -1.85742200 -12.51563000 / -0.45700000 0.88946670 0.00000000 / 42 141 11 255 / 9.15330500 2.18328900 / -0.88946670 -0.45700000 0.00001950 1.00000000
				-32.35938000 -1.74853500 -12.51563000 / -0.45623630 0.88985860 0.00009540 / 42 141 11 255 / 9.10017400 2.18328900 / -0.88985870 -0.45623630 0.00000000 1.00000000
				-31.82220000 -2.73074200 -12.51563000 / 0.87736110 0.47983070 -0.00009540 / 42 141 11 255 / 1.94279300 2.18328900 / -0.47983070 0.87736110 -0.00000090 1.00000000
				-31.82220000 -2.73074200 -12.51563000 / 0.87736110 0.47983070 -0.00009540 / 42 141 11 255 / 1.94279300 2.18328900 / -0.47983070 0.87736110 0.00000030 1.00000000
				-17.66121000 24.65420000 -13.43057000 / 0.45437150 -0.89081230 0.00000000 / 42 141 11 255 / -4.42558800 2.41204000 / 0.89081230 0.45437150 0.00000440 1.00000000
				-17.02930000 24.97656000 -13.43057000 / 0.45437150 -0.89081230 0.00000000 / 42 141 11 255 / -4.26767000 2.41204000 / 0.89081230 0.45437150 0.00000000 1.00000000
				-31.82220000 -2.73074200 -12.51563000 / 0.87736110 0.47983070 -0.00009540 / 42 141 11 255 / 1.94279300 2.18328900 / -0.47983070 0.87736110 0.00000000 1.00000000
				-32.35986000 -1.74853500 -16.96680000 / 0.87737100 0.47981230 0.00000000 / 42 141 11 255 / 2.18838500 3.29615800 / -0.47981230 0.87737100 0.00000090 1.00000000
				-31.82247000 -2.73088000 -16.96680000 / 0.87736110 0.47983070 0.00000000 / 42 141 11 255 / 1.94280300 3.29615800 / -0.47983070 0.87736110 -0.00000030 1.00000000
				-31.82247000 -2.73088000 -16.96680000 / 0.87736110 0.47983070 0.00000000 / 42 141 11 255 / 1.94280300 3.29615800 / -0.47983070 0.87736110 0.00000090 1.00000000
				-32.35948000 -1.74853500 -13.43057000 / 0.87737100 0.47981230 -0.00009540 / 42 141 11 255 / 2.18833700 2.41204000 / -0.47981240 0.87737100 0.00000080 1.00000000
				-32.57178000 -1.85742200 -12.51563000 / -0.45623630 0.88985860 0.00009540 / 42 141 11 255 / 9.15330500 2.18328900 / -0.88985870 -0.45623630 0.00000500 1.00000000
				-31.82247000 -2.73088000 -15.73840000 / 0.87736110 0.47983070 0.00000000 / 42 141 11 255 / 1.94280300 2.98903600 / -0.47983070 0.87736110 -0.00000030 1.00000000
				-31.82247000 -2.73088000 -15.73840000 / 0.87736110 0.47983070 0.00000000 / 42 141 11 255 / 1.94280300 2.98903600 / -0.47983070 0.87736110 0.00000050 1.00000000
				-31.82247000 -2.73088000 -15.73840000 / 0.87736110 0.47983070 0.00000000 / 42 141 11 255 / 1.94280300 2.98903600 / -0.47983070 0.87736110 0.00000090 1.00000000
				-32.35986000 -1.74853500 -16.96680000 / -0.45623630 0.88985860 0.00000000 / 42 141 11 255 / 9.10034200 3.29615800 / -0.88985870 -0.45623630 0.00000500 1.00000000
				-30.41260000 -5.30810400 -13.43057000 / 0.87734090 0.47986740 0.00000000 / 42 141 11 255 / 1.29850800 2.41203900 / -0.47986740 0.87734090 0.00000110 1.00000000
				-31.82247000 -2.73088000 -15.73840000 / 0.87736110 0.47983070 -0.00009540 / 42 141 11 255 / 1.94280300 2.98903600 / -0.47983070 0.87736110 0.00000090 1.00000000
				-31.82247000 -2.73088000 -15.73840000 / 0.87736110 0.47983070 -0.00009540 / 42 141 11 255 / 1.94280300 2.98903600 / -0.47983070 0.87736110 -0.00000020 1.00000000
				-17.02930000 24.97656000 -13.43057000 / 0.45437150 -0.89081230 0.00000000 / 42 141 11 255 / -4.26767000 2.41204000 / 0.89081230 0.45437150 0.00000110 1.00000000
				-31.82247000 -2.73088000 -15.73840000 / 0.87736110 0.47983070 -0.00009540 / 42 141 11 255 / 1.94280300 2.98903600 / -0.47983070 0.87736110 0.00000000 1.00000000
				-32.52822000 -1.83504000 -13.43057000 / -0.45623630 0.88985860 0.00009540 / 42 141 11 255 / 9.14241900 2.41204000 / -0.88985870 -0.45623630 0.00000500 1.00000000
				-31.82228000 -2.73078100 -13.43057000 / 0.87736110 0.47983070 -0.00009540 / 42 141 11 255 / 1.94279600 2.41204000 / -0.47983070 0.87736110 0.00000090 1.00000000
				-31.82228000 -2.73078100 -13.43057000 / 0.87736110 0.47983070 -0.00009540 / 42 141 11 255 / 1.94279600 2.41204000 / -0.47983070 0.87736110 -0.00000090 1.00000000
				-30.81286000 -4.57643500 -13.43057000 / 0.87736110 0.47983070 -0.00009540 / 42 141 11 255 / 1.48142200 2.41203900 / -0.47983070 0.87736110 0.00000000 1.00000000
				-31.82228000 -2.73078100 -13.43057000 / 0.87736110 0.47983070 -0.00009540 / 42 141 11 255 / 1.94279600 2.41204000 / -0.47983070 0.87736110 0.00000090 1.00000000
				-31.82228000 -2.73078100 -13.43057000 / 0.87736110 0.47983070 -0.00009540 / 42 141 11 255 / 1.94279600 2.41204000 / -0.47983070 0.87736110 0.00000000 1.00000000
				-31.82228000 -2.73078100 -13.43057000 / 0.87736110 0.47983070 -0.00009540 / 42 141 11 255 / 1.94279600 2.41204000 / -0.47983070 0.87736110 0.00000000 1.00000000
				-30.81286000 -4.57643500 -13.43057000 / 0.87734090 0.47986740 0.00000000 / 42 141 11 255 / 1.48142200 2.41204000 / -0.47986740 0.87734090 0.00000120 1.00000000
				-32.35986000 -1.74853500 -16.96680000 / -0.45700000 0.88946670 0.00000000 / 42 141 11 255 / 9.10034200 3.29615800 / -0.88946670 -0.45699990 0.00000000 1.00000000
				-32.35986000 -1.74853500 -16.96680000 / -0.45700000 0.88946670 0.00000000 / 42 141 11 255 / 9.10034200 3.29615800 / -0.88946670 -0.45700000 0.00001950 1.00000000
				-32.57178000 -1.85742200 -16.96680000 / -0.45700000 0.88946670 0.00000000 / 42 141 11 255 / 9.15330500 3.29615800 / -0.88946670 -0.45699990 0.00000000 1.00000000
				-32.52822000 -1.83504000 -13.43057000 / -0.45623630 0.88985860 0.00009540 / 42 141 11 255 / 9.14241900 2.41204000 / -0.88985870 -0.45623630 0.00000500 1.00000000
				-17.93359000 24.78223000 -16.96680000 / -0.88906160 -0.45778760 0.00000000 / 42 141 11 255 / -7.82106000 3.29615800 / 0.45778760 -0.88906160 0.00000000 1.00000000
				-17.66121000 24.65420000 -13.43057000 / 0.45437150 -0.89081230 0.00000000 / 42 141 11 255 / -4.42558700 2.41203900 / 0.89081230 0.45437150 0.00000110 1.00000000
				-17.93359000 24.78223000 -16.96680000 / -0.88906160 -0.45778760 0.00000000 / 42 141 11 255 / -7.82106000 3.29615800 / 0.45778760 -0.88906160 0.00001950 1.00000000
				-17.93359000 24.78223000 -16.96680000 / -0.88945160 -0.45702900 0.00000000 / 42 141 11 255 / -7.82106000 3.29615800 / 0.45702900 -0.88945160 0.00000500 1.00000000
				-30.81286000 -4.57643500 -13.43057000 / 0.87736110 0.47983070 -0.00009540 / 42 141 11 255 / 1.48142200 2.41203900 / -0.47983070 0.87736110 0.00000030 1.00000000
				-30.41260000 -5.30810500 -12.51563000 / 0.87736110 0.47983070 -0.00009540 / 42 141 11 255 / 1.29850800 2.18328900 / -0.47983070 0.87736110 0.00000030 1.00000000
				-17.82471000 24.57080000 -12.51563000 / -0.88906160 -0.45778760 0.00000000 / 42 141 11 255 / -7.76817300 2.18328900 / 0.45778760 -0.88906160 0.00001950 1.00000000
				-30.81286000 -4.57643500 -13.43057000 / 0.87734090 0.47986740 0.00000000 / 42 141 11 255 / 1.48142200 2.41204000 / -0.47986740 0.87734090 0.00000050 1.00000000
				-17.82471000 24.57080000 -12.51563000 / -0.88945160 -0.45702900 0.00009540 / 42 141 11 255 / -7.76817300 2.18328900 / 0.45702900 -0.88945180 0.00000000 1.00000000
				-17.82471000 24.57080000 -12.51563000 / -0.88945160 -0.45702900 0.00009540 / 42 141 11 255 / -7.76817300 2.18328900 / 0.45702900 -0.88945160 0.00000500 1.00000000
				-32.57178000 -1.85742200 -13.43057000 / -0.45700000 0.88946670 0.00000000 / 42 141 11 255 / 9.15330500 2.41204000 / -0.88946670 -0.45699990 0.00000000 1.00000000
				-17.82471000 24.57080000 -16.96680000 / 0.45437150 -0.89081230 0.00000000 / 42 141 11 255 / -4.46646100 3.29615800 / 0.89081230 0.45437150 0.00000000 1.00000000
				-17.93359000 24.78272000 -12.51563000 / -0.88945160 -0.45702900 0.00009540 / 42 141 11 255 / -7.82113600 2.18328900 / 0.45702900 -0.88945180 0.00000000 1.00000000
				-17.02930000 24.97656000 -16.96680000 / 0.45437150 -0.89081230 0.00000000 / 42 141 11 255 / -4.26767000 3.29615800 / 0.89081230 0.45437150 0.00000440 1.00000000
				-17.02930000 24.97656000 -16.96680000 / 0.45437150 -0.89081230 0.00000000 / 42 141 11 255 / -4.26767000 3.29615800 / 0.89081230 0.45437150 0.00000000 1.00000000
				-17.66121000 24.65420000 -13.43057000 / 0.45437150 -0.89081230 0.00000000 / 42 141 11 255 / -4.42558700 2.41203900 / 0.89081230 0.45437150 0.00000140 1.00000000
				-17.02930000 24.97656000 -16.96680000 / 0.45437150 -0.89081230 0.00000000 / 42 141 11 255 / -4.26767000 3.29615800 / 0.89081230 0.45437150 0.00000110 1.00000000
				-30.81286000 -4.57643500 -13.43057000 / 0.87736110 0.47983070 -0.00009540 / 42 141 11 255 / 1.48142200 2.41203900 / -0.47983070 0.87736110 0.00000000 1.00000000
				-17.02930000 24.97656000 -12.51563000 / 0.45437150 -0.89081230 0.00000000 / 42 141 11 255 / -4.26767000 2.18328900 / 0.89081230 0.45437150 0.00000000 1.00000000
				-30.81286000 -4.57643500 -13.43057000 / 0.87734090 0.47986740 0.00000000 / 42 141 11 255 / 1.48142200 2.41204000 / -0.47986740 0.87734090 0.00000110 1.00000000
				-32.35938000 -1.74853500 -12.51563000 / 0.87737100 0.47981230 -0.00009540 / 42 141 11 255 / 2.18832400 2.18328900 / -0.47981230 0.87737100 -0.00000090 1.00000000
				-17.66121000 24.65420000 -13.43057000 / 0.45437150 -0.89081230 0.00000000 / 42 141 11 255 / -4.42558800 2.41204000 / 0.89081230 0.45437150 0.00000530 1.00000000
				-32.35938000 -1.74853500 -12.51563000 / 0.87737100 0.47981230 -0.00009540 / 42 141 11 255 / 2.18832400 2.18328900 / -0.47981240 0.87737100 0.00000080 1.00000000
				-30.41260000 -5.30810500 -12.51563000 / 0.87734090 0.47986740 0.00000000 / 42 141 11 255 / 1.29850800 2.18328900 / -0.47986740 0.87734090 0.00000120 1.00000000
				-30.41260000 -5.30810500 -16.96680000 / 0.87734090 0.47986740 0.00000000 / 42 141 11 255 / 1.29850800 3.29615800 / -0.47986740 0.87734090 0.00000110 1.00000000
				-30.41260000 -5.30810500 -16.96680000 / 0.87734090 0.47986740 0.00000000 / 42 141 11 255 / 1.29850800 3.29615800 / -0.47986740 0.87734090 -0.00000030 1.00000000
				-30.41260000 -5.30810500 -16.96680000 / 0.87734090 0.47986740 0.00000000 / 42 141 11 255 / 1.29850800 3.29615800 / -0.47986740 0.87734090 0.00000050 1.00000000
				-17.82471000 24.57080000 -13.43057000 / 0.45437150 -0.89081230 0.00000000 / 42 141 11 255 / -4.46644900 2.41203900 / 0.89081230 0.45437150 0.00000440 1.00000000
				-17.82471000 24.57080000 -13.43057000 / 0.45437150 -0.89081230 0.00000000 / 42 141 11 255 / -4.46644900 2.41203900 / 0.89081230 0.45437150 0.00000000 1.00000000
				-32.35948000 -1.74853500 -13.43057000 / 0.87737100 0.47981230 -0.00009540 / 42 141 11 255 / 2.18833700 2.41204000 / -0.47981240 0.87737100 0.00000080 1.00000000
				-17.82471000 24.57080000 -12.51563000 / 0.45437150 -0.89081230 0.00000000 / 42 141 11 255 / -4.46644600 2.18328900 / 0.89081230 0.45437150 0.00000140 1.00000000
				-32.35948000 -1.74853500 -13.43057000 / -0.45623630 0.88985860 0.00009540 / 42 141 11 255 / 9.10020800 2.41203900 / -0.88985870 -0.45623630 0.00000500 1.00000000
				-32.57178000 -1.85742200 -13.43057000 / -0.45700000 0.88946670 0.00000000 / 42 141 11 255 / 9.15330500 2.41204000 / -0.88946670 -0.45700000 0.00001950 1.00000000
				-17.82471000 24.57080000 -13.43057000 / 0.45437150 -0.89081230 0.00000000 / 42 141 11 255 / -4.46644900 2.41203900 / 0.89081230 0.45437150 0.00000530 1.00000000
			}
		}
		Geometry
		{
			ShaderIndex 3
			Flags -
			VertexDeclaration N209731BE
			Indices 78
			{
				12 14 15 16 17 13 18 20 21 22 23 19 24 26 27
				28 29 25 30 32 33 34 35 31 36 38 39 40 42 37
				43 41 45 46 49 44 51 50 47 48 55 52 53 56 57
				58 60 54 61 59 63 64 66 62 67 65 69 70 72 68
				73 71 77 0 1 74 9 11 3 4 6 10 76 8 2
				5 75 7
			}
			Vertices 78
			{
				-35.52855000 3.56231000 -16.96680000 / 0.00000000 0.00000000 1.00000000 / 42 141 11 255 / 0.34776570 0.62695310
				-35.40363000 3.62597900 -16.96680000 / 0.00000000 0.00000000 1.00000000 / 42 141 11 255 / 0.34640790 0.65451030
				-35.40363000 3.62597900 -16.96680000 / 0.00000000 0.00000000 1.00000000 / 42 141 11 255 / 0.34640790 0.65451030
				-35.31609000 3.67059900 -16.96680000 / 0.00000000 0.00000000 1.00000000 / 42 141 11 255 / 0.34633650 0.67382810
				-35.31609000 3.67059900 -16.96680000 / 0.00000000 0.00000000 1.00000000 / 42 141 11 255 / 0.34633650 0.67382810
				-35.31609000 3.67059900 -16.96680000 / 0.00000000 0.00000000 1.00000000 / 42 141 11 255 / 0.34633650 0.67382810
				-35.40363000 3.62597900 -16.96680000 / 0.00000000 0.00000000 1.00000000 / 42 141 11 255 / 0.34640790 0.65451030
				-35.40363000 3.62597900 -16.96680000 / 0.00000000 0.00000000 1.00000000 / 42 141 11 255 / 0.34640790 0.65451030
				-34.61768000 1.89160200 -16.96680000 / 0.00000000 0.00000000 1.00000000 / 42 141 11 255 / -0.20703130 0.62695310
				-34.61768000 1.89160200 -16.96680000 / 0.00000000 0.00000000 1.00000000 / 42 141 11 255 / -0.20703130 0.62695310
				-34.61768000 1.89160200 -16.96680000 / 0.00000000 0.00000000 1.00000000 / 42 141 11 255 / -0.20703130 0.62695310
				-34.50195000 2.17724600 -16.96680000 / 0.00000000 0.00000000 1.00000000 / 42 141 11 255 / -0.14843750 0.67382810
				-17.82471000 24.57080000 -16.96680000 / 0.00000000 0.00000000 1.00000000 / 42 141 11 255 / 8.76171900 0.67382810
				-17.82471000 24.57080000 -16.96680000 / 0.00000000 0.00000000 1.00000000 / 42 141 11 255 / 8.76171900 0.67382810
				-17.93359000 24.78223000 -16.96680000 / 0.00000000 0.00000000 1.00000000 / 42 141 11 255 / 8.75976600 0.62695310
				-23.76416000 21.81152000 -16.96680000 / 0.00000000 0.00000000 1.00000000 / 42 141 11 255 / 6.85351600 0.62695310
				-23.76416000 21.81152000 -16.96680000 / 0.00000000 0.00000000 1.00000000 / 42 141 11 255 / 6.85351600 0.62695310
				-23.65478000 21.59961000 -16.96680000 / 0.00000000 0.00000000 1.00000000 / 42 141 11 255 / 6.85351600 0.67382810
				-34.50195000 2.17724600 -16.96680000 / 0.00000000 0.00000000 1.00000000 / 42 141 11 255 / 0.00000000 0.67382810
				-34.50195000 2.17724600 -16.96680000 / 0.00000000 0.00000000 1.00000000 / 42 141 11 255 / 0.00000000 0.67382810
				-34.61768000 1.89160200 -16.96680000 / 0.00000000 0.00000000 1.00000000 / 42 141 11 255 / 0.06835940 0.62695310
				-34.03272000 2.21582000 -16.96680000 / 0.00000000 0.00000000 1.00000000 / 42 141 11 255 / -0.12500000 0.62695310
				-34.03272000 2.21582000 -16.96680000 / 0.00000000 0.00000000 1.00000000 / 42 141 11 255 / -0.12500000 0.62695310
				-34.12256000 2.38183600 -16.96680000 / 0.00000000 0.00000000 1.00000000 / 42 141 11 255 / -0.12304690 0.67382810
				-33.07812000 -0.43603510 -16.96680000 / 0.00000000 0.00000000 1.00000000 / 42 141 11 255 / 8.54882800 0.62695310
				-33.07812000 -0.43603510 -16.96680000 / 0.00000000 0.00000000 1.00000000 / 42 141 11 255 / 8.54882800 0.62695310
				-32.69971000 -0.23046880 -16.96680000 / 0.00000000 0.00000000 1.00000000 / 42 141 11 255 / 8.42187500 0.62695310
				-32.79199000 -0.06152340 -16.96680000 / 0.00000000 0.00000000 1.00000000 / 42 141 11 255 / 8.42382800 0.67382810
				-32.79199000 -0.06152340 -16.96680000 / 0.00000000 0.00000000 1.00000000 / 42 141 11 255 / 8.42382800 0.67382810
				-33.37744000 -0.38574220 -16.96680000 / 0.00000000 0.00000000 1.00000000 / 42 141 11 255 / 8.61914000 0.67382810
				-32.57178000 -1.85742200 -16.96680000 / 0.00000000 0.00000000 1.00000000 / 42 141 11 255 / 9.04296800 0.67382810
				-32.57178000 -1.85742200 -16.96680000 / 0.00000000 0.00000000 1.00000000 / 42 141 11 255 / 9.04296800 0.67382810
				-32.35986000 -1.74853500 -16.96680000 / 0.00000000 0.00000000 1.00000000 / 42 141 11 255 / 9.04296800 0.62695310
				-33.07812000 -0.43603510 -16.96680000 / 0.00000000 0.00000000 1.00000000 / 42 141 11 255 / 8.60742200 0.62695310
				-33.07812000 -0.43603510 -16.96680000 / 0.00000000 0.00000000 1.00000000 / 42 141 11 255 / 8.60742200 0.62695310
				-33.37744000 -0.38574220 -16.96680000 / 0.00000000 0.00000000 1.00000000 / 42 141 11 255 / 8.55468800 0.67382810
				-26.04102000 20.38379000 -16.96680000 / 0.00000000 0.00000000 1.00000000 / 42 141 11 255 / 6.99218800 0.67382810
				-26.04102000 20.38379000 -16.96680000 / 0.00000000 0.00000000 1.00000000 / 42 141 11 255 / 6.99218800 0.67382810
				-26.14990000 20.59570000 -16.96680000 / 0.00000000 0.00000000 1.00000000 / 42 141 11 255 / 6.99218800 0.62695310
				-31.97705000 17.62695000 -16.96680000 / 0.00000000 0.00000000 1.00000000 / 42 141 11 255 / 5.08593700 0.62695310
				-31.97705000 17.62695000 -16.96680000 / 0.00000000 0.00000000 1.00000000 / 42 141 11 255 / 5.08593700 0.62695310
				-31.97705000 17.62695000 -16.96680000 / 0.00000000 0.00000000 1.00000000 / 42 141 11 255 / 5.08593700 0.62695310
				-31.86767000 17.41504000 -16.96680000 / 0.00000000 0.00000000 1.00000000 / 42 141 11 255 / 5.08593700 0.67382810
				-31.86767000 17.41504000 -16.96680000 / 0.00000000 0.00000000 1.00000000 / 42 141 11 255 / 5.08593700 0.67382810
				-31.86767000 17.41504000 -16.96680000 / 0.00000000 0.00000000 1.00000000 / 42 141 11 255 / 5.08593700 0.67382810
				-34.89062000 16.14209000 -16.96680000 / 0.00000000 0.00000000 1.00000000 / 42 141 11 255 / 4.13281200 0.62695310
				-34.89062000 16.14209000 -16.96680000 / 0.00000000 0.00000000 1.00000000 / 42 141 11 255 / 4.13281200 0.62695310
				-34.89062000 16.14209000 -16.96680000 / 0.00000000 0.00000000 1.00000000 / 42 141 11 255 / 4.13281200 0.62695310
				-34.89062000 16.14209000 -16.96680000 / 0.00000000 0.00000000 1.00000000 / 42 141 11 255 / 4.13281200 0.62695310
				-34.75586000 15.94824000 -16.96680000 / 0.00000000 0.00000000 1.00000000 / 42 141 11 255 / 4.14257800 0.67382810
				-34.75586000 15.94824000 -16.96680000 / 0.00000000 0.00000000 1.00000000 / 42 141 11 255 / 4.14257800 0.67382810
				-37.12695000 13.82959000 -16.96680000 / 0.00000000 0.00000000 1.00000000 / 42 141 11 255 / 3.31835900 0.67382810
				-37.12695000 13.82959000 -16.96680000 / 0.00000000 0.00000000 1.00000000 / 42 141 11 255 / 3.31835900 0.67382810
				-37.12695000 13.82959000 -16.96680000 / 0.00000000 0.00000000 1.00000000 / 42 141 11 255 / 3.31835900 0.67382810
				-37.12695000 13.82959000 -16.96680000 / 0.00000000 0.00000000 1.00000000 / 42 141 11 255 / 3.31835900 0.67382810
				-37.32080000 13.95459000 -16.96680000 / 0.00000000 0.00000000 1.00000000 / 42 141 11 255 / 3.34570300 0.62695310
				-37.32080000 13.95459000 -16.96680000 / 0.00000000 0.00000000 1.00000000 / 42 141 11 255 / 3.34570300 0.62695310
				-38.33105000 10.84473000 -16.96680000 / 0.00000000 0.00000000 1.00000000 / 42 141 11 255 / 2.40820300 0.62695310
				-38.33105000 10.84473000 -16.96680000 / 0.00000000 0.00000000 1.00000000 / 42 141 11 255 / 2.40820300 0.62695310
				-38.33105000 10.84473000 -16.96680000 / 0.00000000 0.00000000 1.00000000 / 42 141 11 255 / 2.40820300 0.62695310
				-38.10107000 10.83350000 -16.96680000 / 0.00000000 0.00000000 1.00000000 / 42 141 11 255 / 2.41406200 0.67382810
				-38.10107000 10.83350000 -16.96680000 / 0.00000000 0.00000000 1.00000000 / 42 141 11 255 / 2.41406200 0.67382810
				-38.10107000 10.83350000 -16.96680000 / 0.00000000 0.00000000 1.00000000 / 42 141 11 255 / 2.41406200 0.67382810
				-37.65137000 7.64599600 -16.96680000 / 0.00000000 0.00000000 1.00000000 / 42 141 11 255 / 1.68945300 0.62695310
				-37.65137000 7.64599600 -16.96680000 / 0.00000000 0.00000000 1.00000000 / 42 141 11 255 / 1.68945300 0.62695310
				-37.65137000 7.64599600 -16.96680000 / 0.00000000 0.00000000 1.00000000 / 42 141 11 255 / 1.68945300 0.62695310
				-37.42871000 7.72607400 -16.96680000 / 0.00000000 0.00000000 1.00000000 / 42 141 11 255 / 1.67968700 0.67382810
				-37.42871000 7.72607400 -16.96680000 / 0.00000000 0.00000000 1.00000000 / 42 141 11 255 / 1.67968700 0.67382810
				-37.42871000 7.72607400 -16.96680000 / 0.00000000 0.00000000 1.00000000 / 42 141 11 255 / 1.67968700 0.67382810
				-36.16650000 4.73242200 -16.96680000 / 0.00000000 0.00000000 1.00000000 / 42 141 11 255 / 0.73632810 0.62695310
				-36.16650000 4.73242200 -16.96680000 / 0.00000000 0.00000000 1.00000000 / 42 141 11 255 / 0.73632810 0.62695310
				-36.16650000 4.73242200 -16.96680000 / 0.00000000 0.00000000 1.00000000 / 42 141 11 255 / 0.73632810 0.62695310
				-35.95459000 4.84179700 -16.96680000 / 0.00000000 0.00000000 1.00000000 / 42 141 11 255 / 0.73437500 0.67382810
				-35.95459000 4.84179700 -16.96680000 / 0.00000000 0.00000000 1.00000000 / 42 141 11 255 / 0.73437500 0.67382810
				-35.95459000 4.84179700 -16.96680000 / 0.00000000 0.00000000 1.00000000 / 42 141 11 255 / 0.73437500 0.67382810
				-35.95459000 4.84179700 -16.96680000 / 0.00000000 0.00000000 1.00000000 / 42 141 11 255 / 0.73437500 0.67382810
				-35.52855000 3.56231000 -16.96680000 / 0.00000000 0.00000000 1.00000000 / 42 141 11 255 / 0.34776570 0.62695310
				-35.52855000 3.56231000 -16.96680000 / 0.00000000 0.00000000 1.00000000 / 42 141 11 255 / 0.34776570 0.62695310
			}
		}
		Geometry
		{
			ShaderIndex 4
			Flags -
			VertexDeclaration N51263BB5
			Indices 144
			{
				82 114 115 88 131 143 90 92 93 94 95 91 96 98 99
				100 101 97 102 104 105 106 107 103 108 110 111 112 113 109
				0 2 3 4 5 1 6 8 9 10 11 7 12 14 15
				16 18 13 19 17 21 22 23 20 24 27 28 29 30 25
				33 26 31 32 35 34 36 39 40 41 42 37 45 38 43
				44 49 46 47 50 51 52 53 48 54 59 60 61 62 55
				56 63 119 120 122 57 65 67 124 125 127 66 68 132 135
				76 137 140 71 78 79 80 81 72 83 118 116 117 89 84
				121 64 123 126 58 128 74 136 133 134 73 75 69 141 138
				139 77 70 85 87 129 130 142 86
			}
			Vertices 144
			{
				-30.41260000 -5.30810500 -17.57764000 / -0.49743250 0.86750270 0.00000000 / 42 141 11 255 / 20.25795000 -0.09785460 / -0.86750270 -0.49743250 0.00000000 1.00000000
				-30.41260000 -5.30810500 -17.57764000 / -0.49743250 0.86750270 0.00000000 / 42 141 11 255 / 20.25795000 -0.09785460 / -0.86750270 -0.49743240 0.00000090 1.00000000
				-30.41260000 -5.30810500 -16.96680000 / -0.49743250 0.86750270 0.00000000 / 42 141 11 255 / 20.25793000 -0.50500490 / -0.86750270 -0.49743250 0.00000000 1.00000000
				-8.11425800 7.47998000 -16.96680000 / -0.49752480 0.86744970 0.00000000 / 42 141 11 255 / 5.19697600 -0.50500490 / -0.86744980 -0.49752480 0.00000000 1.00000000
				-8.11425800 7.47998000 -16.96680000 / -0.49752480 0.86744970 0.00000000 / 42 141 11 255 / 5.19697600 -0.50500490 / -0.86744980 -0.49752480 0.00000090 1.00000000
				-8.11425800 7.47998000 -17.57764000 / -0.49752480 0.86744970 0.00000000 / 42 141 11 255 / 5.19697600 -0.09786990 / -0.86744980 -0.49752480 0.00000090 1.00000000
				-23.76318000 21.81201000 -17.57764000 / -0.89073510 -0.45452280 0.00000000 / 42 141 11 255 / -4.68756100 -0.09786990 / 0.45452280 -0.89073510 0.00000000 1.00000000
				-23.76318000 21.81201000 -17.57764000 / -0.88859180 -0.45869570 -0.00171650 / 42 141 11 255 / -4.68756100 -0.09786990 / 0.45869640 -0.88859310 0.00000000 1.00000000
				-23.65478000 21.59961000 -17.57764000 / -0.89073510 -0.45452280 0.00000000 / 42 141 11 255 / -4.54473900 -0.09786990 / 0.45452280 -0.89073510 0.00000000 1.00000000
				-23.65478000 21.59961000 -16.96680000 / -0.89073510 -0.45452280 0.00000000 / 42 141 11 255 / -4.54473900 -0.50498960 / 0.45452280 -0.89073510 0.00000000 1.00000000
				-23.65478000 21.59961000 -16.96680000 / -0.88859180 -0.45869570 -0.00171650 / 42 141 11 255 / -4.54473900 -0.50498960 / 0.45869640 -0.88859310 0.00000000 1.00000000
				-23.76416000 21.81152000 -16.96680000 / -0.88859180 -0.45869570 -0.00171650 / 42 141 11 255 / -4.68724100 -0.50498960 / 0.45869640 -0.88859310 0.00000000 1.00000000
				-17.02930000 24.97656000 -17.57764000 / 0.45437150 -0.89081230 0.00000000 / 42 141 11 255 / -9.98451300 -0.09786990 / 0.89081230 0.45437150 -0.00002570 1.00000000
				-17.02930000 24.97656000 -17.57764000 / 0.45437150 -0.89081230 0.00000000 / 42 141 11 255 / -9.98451300 -0.09786990 / 0.89081230 0.45437150 0.00000000 1.00000000
				-17.02930000 24.97656000 -16.96680000 / 0.45437150 -0.89081230 0.00000000 / 42 141 11 255 / -9.98451300 -0.50500490 / 0.89081230 0.45437150 -0.00002570 1.00000000
				-17.82471000 24.57080000 -16.96680000 / 0.45437150 -0.89081230 0.00000000 / 42 141 11 255 / -10.51942000 -0.50498960 / 0.89081230 0.45437150 -0.00002570 1.00000000
				-17.82471000 24.57080000 -16.96680000 / 0.45437150 -0.89081230 0.00000000 / 42 141 11 255 / -10.51942000 -0.50498960 / 0.89081230 0.45437150 0.00000000 1.00000000
				-17.82471000 24.57080000 -16.96680000 / 0.45414290 -0.89092890 0.00000000 / 42 141 11 255 / -10.51942000 -0.50498960 / 0.89092890 0.45414290 0.00000000 1.00000000
				-17.82471000 24.57080000 -17.57764000 / 0.45437150 -0.89081230 0.00000000 / 42 141 11 255 / -10.51941000 -0.09786990 / 0.89081230 0.45437150 0.00000000 1.00000000
				-17.82471000 24.57080000 -17.57764000 / 0.45414290 -0.89092890 0.00000000 / 42 141 11 255 / -10.51941000 -0.09786990 / 0.89092890 0.45414290 0.00000000 1.00000000
				-17.82471000 24.57080000 -17.57764000 / 0.45414290 -0.89092890 0.00000000 / 42 141 11 255 / -10.51941000 -0.09786990 / 0.89092890 0.45414290 0.00000000 1.00000000
				-23.65478000 21.59961000 -16.96680000 / 0.45414290 -0.89092890 0.00000000 / 42 141 11 255 / -14.44037000 -0.50498960 / 0.89092890 0.45414290 0.00000000 1.00000000
				-23.65478000 21.59961000 -16.96680000 / 0.45414290 -0.89092890 0.00000000 / 42 141 11 255 / -14.44037000 -0.50498960 / 0.89092890 0.45414290 0.00000000 1.00000000
				-23.65478000 21.59961000 -17.57764000 / 0.45414290 -0.89092890 0.00000000 / 42 141 11 255 / -14.44037000 -0.09786990 / 0.89092890 0.45414290 0.00000000 1.00000000
				-38.10107000 10.83350000 -16.96680000 / 0.97737060 0.21153470 0.00000000 / 42 141 11 255 / -1.46350100 -0.50498960 / -0.21153430 0.97736880 -0.00187950 1.00000000
				-38.10107000 10.83350000 -16.96680000 / 0.97737060 0.21153470 0.00000000 / 42 141 11 255 / -1.46350100 -0.50498960 / -0.21153440 0.97736880 0.00184340 1.00000000
				-38.10107000 10.83350000 -16.96680000 / 0.95100330 -0.30918090 0.00000000 / 42 141 11 255 / -1.46350100 -0.50498960 / 0.30918090 0.95100330 0.00000000 1.00000000
				-37.42871000 7.72607400 -16.96680000 / 0.97738030 0.21148920 0.00000000 / 42 141 11 255 / -3.59426900 -0.50108340 / -0.21148880 0.97737860 -0.00187950 1.00000000
				-37.42871000 7.72607400 -17.57764000 / 0.97738030 0.21148920 0.00000000 / 42 141 11 255 / -3.59426900 -0.10177610 / -0.21148880 0.97737860 -0.00187950 1.00000000
				-37.42871000 7.72607400 -17.57764000 / 0.97738030 0.21148920 0.00000000 / 42 141 11 255 / -3.59426900 -0.10177610 / -0.21148880 0.97737870 0.00184340 1.00000000
				-38.10107000 10.83350000 -17.57764000 / 0.97737060 0.21153470 0.00000000 / 42 141 11 255 / -1.65126000 -0.09786990 / -0.21153440 0.97736880 0.00184340 1.00000000
				-38.10107000 10.83350000 -17.57764000 / 0.95100330 -0.30918090 0.00000000 / 42 141 11 255 / -1.65126000 -0.09786990 / 0.30918090 0.95100330 0.00000000 1.00000000
				-38.10107000 10.83350000 -17.57764000 / 0.95100330 -0.30918090 0.00000000 / 42 141 11 255 / -1.65126000 -0.09786990 / 0.30918090 0.95100330 0.00000000 1.00000000
				-37.12695000 13.82959000 -16.96680000 / 0.95100330 -0.30918090 0.00000000 / 42 141 11 255 / 0.52247620 -0.50498960 / 0.30918090 0.95100330 0.00000000 1.00000000
				-37.12695000 13.82959000 -16.96680000 / 0.95100330 -0.30918090 0.00000000 / 42 141 11 255 / 0.52247620 -0.50498960 / 0.30918090 0.95100330 0.00000000 1.00000000
				-37.12695000 13.82959000 -17.57764000 / 0.95100330 -0.30918090 0.00000000 / 42 141 11 255 / 0.52247620 -0.09786990 / 0.30918090 0.95100330 0.00000000 1.00000000
				-31.86767000 17.41504000 -17.57764000 / 0.45399150 -0.89100600 0.00000000 / 42 141 11 255 / -19.96344000 -0.09786990 / 0.89100600 0.45399150 0.00000000 1.00000000
				-31.86767000 17.41504000 -17.57764000 / 0.45399150 -0.89100600 0.00000000 / 42 141 11 255 / -19.96344000 -0.09786990 / 0.89100600 0.45399150 0.00000000 1.00000000
				-31.86767000 17.41504000 -17.57764000 / 0.45277400 -0.89162530 0.00000000 / 42 141 11 255 / -19.96344000 -0.09786990 / 0.89162530 0.45277400 0.00000000 1.00000000
				-26.04102000 20.38379000 -17.57764000 / 0.45399150 -0.89100600 0.00000000 / 42 141 11 255 / -16.04482000 -0.09786990 / 0.89100600 0.45399150 0.00000000 1.00000000
				-26.04102000 20.38379000 -16.96680000 / 0.45399150 -0.89100600 0.00000000 / 42 141 11 255 / -16.04482000 -0.50498960 / 0.89100600 0.45399150 0.00000000 1.00000000
				-26.04102000 20.38379000 -16.96680000 / 0.45399150 -0.89100600 0.00000000 / 42 141 11 255 / -16.04482000 -0.50498960 / 0.89100600 0.45399150 0.00000000 1.00000000
				-31.86767000 17.41504000 -16.96680000 / 0.45399150 -0.89100600 0.00000000 / 42 141 11 255 / -19.96343000 -0.50498960 / 0.89100600 0.45399150 0.00000000 1.00000000
				-31.86767000 17.41504000 -16.96680000 / 0.45277400 -0.89162530 0.00000000 / 42 141 11 255 / -19.96343000 -0.50498960 / 0.89162530 0.45277400 0.00000000 1.00000000
				-31.86767000 17.41504000 -16.96680000 / 0.45277400 -0.89162530 0.00000000 / 42 141 11 255 / -19.96343000 -0.50498960 / 0.89162530 0.45277400 0.00000000 1.00000000
				-34.75586000 15.94824000 -17.57764000 / 0.45281250 -0.89160570 0.00000000 / 42 141 11 255 / -21.90565000 -0.09786990 / 0.89160570 0.45281250 0.00000000 1.00000000
				-34.75586000 15.94824000 -17.57764000 / 0.45281250 -0.89160570 0.00000000 / 42 141 11 255 / -21.90565000 -0.09786990 / 0.89160570 0.45281250 0.00000000 1.00000000
				-34.75586000 15.94824000 -17.57764000 / 0.66642110 -0.74557550 0.00000000 / 42 141 11 255 / -21.90565000 -0.09786990 / 0.74470510 0.66564320 -0.04830610 1.00000000
				-34.75586000 15.94824000 -17.57764000 / 0.66642110 -0.74557550 0.00000000 / 42 141 11 255 / -21.90565000 -0.09786990 / 0.74557550 0.66642110 0.00000000 1.00000000
				-34.75586000 15.94824000 -16.96680000 / 0.45281250 -0.89160570 0.00000000 / 42 141 11 255 / -21.90565000 -0.50498960 / 0.89160570 0.45281250 0.00000000 1.00000000
				-34.75586000 15.94824000 -16.96680000 / 0.66642110 -0.74557550 0.00000000 / 42 141 11 255 / -21.90565000 -0.50498960 / 0.74470510 0.66564320 -0.04830610 1.00000000
				-37.12695000 13.82959000 -16.96680000 / 0.66642110 -0.74557550 0.00000000 / 42 141 11 255 / -23.31348000 -0.40249630 / 0.74470510 0.66564320 -0.04830610 1.00000000
				-37.12695000 13.82959000 -16.96680000 / 0.66642110 -0.74557550 0.00000000 / 42 141 11 255 / -23.31348000 -0.40249630 / 0.74557550 0.66642110 0.00000000 1.00000000
				-37.12695000 13.82959000 -17.57764000 / 0.66642110 -0.74557550 0.00000000 / 42 141 11 255 / -23.51077000 -0.09786990 / 0.74557550 0.66642110 0.00000000 1.00000000
				-35.95459000 4.84179700 -17.57764000 / 0.89038570 0.45520680 0.00000000 / 42 141 11 255 / -3.99958800 -0.10177610 / -0.45520680 0.89038570 0.00000000 1.00000000
				-35.95459000 4.84179700 -17.57764000 / 0.89038570 0.45520680 0.00000000 / 42 141 11 255 / -3.99958800 -0.10177610 / -0.45520680 0.89038570 0.00000000 1.00000000
				-35.95459000 4.84179700 -17.57764000 / 0.87811780 0.47844450 0.00000000 / 42 141 11 255 / -3.99958800 -0.10177610 / -0.47844450 0.87811780 0.00000000 1.00000000
				-35.95459000 4.84179700 -17.57764000 / 0.87811780 0.47844450 0.00000000 / 42 141 11 255 / -3.99958800 -0.10177610 / -0.47844450 0.87811780 0.00000000 1.00000000
				-35.95459000 4.84179700 -17.57764000 / 0.87811780 0.47844450 0.00000000 / 42 141 11 255 / -3.99958800 -0.10177610 / -0.47844450 0.87811780 0.00000000 1.00000000
				-37.42871000 7.72607400 -17.57764000 / 0.89038570 0.45520680 0.00000000 / 42 141 11 255 / -1.49823000 -0.10177610 / -0.45520680 0.89038570 0.00000000 1.00000000
				-37.42871000 7.72607400 -16.96680000 / 0.89038570 0.45520680 0.00000000 / 42 141 11 255 / -1.49823000 -0.50108340 / -0.45520680 0.89038570 0.00000000 1.00000000
				-37.42871000 7.72607400 -16.96680000 / 0.89038570 0.45520680 0.00000000 / 42 141 11 255 / -1.49823000 -0.50108340 / -0.45520680 0.89038570 0.00000000 1.00000000
				-35.95459000 4.84179700 -16.96680000 / 0.89038570 0.45520680 0.00000000 / 42 141 11 255 / -3.99958800 -0.50108340 / -0.45520680 0.89038570 0.00000000 1.00000000
				-35.95459000 4.84179700 -16.96680000 / 0.87811780 0.47844450 0.00000000 / 42 141 11 255 / -3.99958800 -0.50108340 / -0.47844450 0.87811780 0.00000000 1.00000000
				-34.50195000 2.17724600 -16.96680000 / 0.87812780 0.47842610 0.00000000 / 42 141 11 255 / -6.49488800 -0.50108340 / -0.47842610 0.87812780 0.00000000 1.00000000
				-34.50195000 2.17724600 -16.96680000 / 0.87812780 0.47842610 0.00000000 / 42 141 11 255 / -6.49488800 -0.50108340 / -0.47842620 0.87812780 0.00000000 1.00000000
				-34.50195000 2.17724600 -16.96680000 / 0.87812780 0.47842610 0.00000000 / 42 141 11 255 / -6.49488800 -0.50108340 / -0.47842610 0.87812780 0.00000000 1.00000000
				-34.50195000 2.17724600 -17.57764000 / 0.87812780 0.47842610 0.00000000 / 42 141 11 255 / -6.49488800 -0.10177610 / -0.47842620 0.87812780 0.00000000 1.00000000
				-32.35986000 -1.74853500 -16.96680000 / 0.87737100 0.47981230 0.00000000 / 42 141 11 255 / -9.91691600 -0.50498960 / -0.47981230 0.87737100 0.00000560 1.00000000
				-32.35986000 -1.74853500 -16.96680000 / 0.87737100 0.47981230 0.00000000 / 42 141 11 255 / -9.91691600 -0.50498960 / -0.47981240 0.87737100 -0.00000010 1.00000000
				-32.35986000 -1.74853500 -16.96680000 / 0.87737100 0.47981230 0.00000000 / 42 141 11 255 / -9.91691600 -0.50498960 / -0.47981230 0.87737100 0.00000000 1.00000000
				-32.35986000 -1.74853500 -16.96680000 / 0.87736610 0.47982150 0.00000000 / 42 141 11 255 / -9.91691600 -0.50498960 / -0.47982150 0.87736610 0.00000000 1.00000000
				-32.35986000 -1.74853500 -16.96680000 / 0.87736610 0.47982150 0.00000000 / 42 141 11 255 / -9.91691600 -0.50498960 / -0.47982150 0.87736610 0.00000000 1.00000000
				-30.41260000 -5.30810500 -16.96680000 / 0.87734090 0.47986740 0.00000000 / 42 141 11 255 / -12.31224000 -0.50500490 / -0.47986740 0.87734090 0.00000570 1.00000000
				-30.41260000 -5.30810500 -17.57764000 / 0.87734090 0.47986740 0.00000000 / 42 141 11 255 / -12.31224000 -0.09785460 / -0.47986740 0.87734090 0.00000570 1.00000000
				-30.41260000 -5.30810500 -17.57764000 / 0.87734090 0.47986740 0.00000000 / 42 141 11 255 / -12.31224000 -0.09785460 / -0.47986740 0.87734090 0.00000570 1.00000000
				-30.41260000 -5.30810500 -17.57764000 / 0.87734090 0.47986740 0.00000000 / 42 141 11 255 / -12.31224000 -0.09785460 / -0.47986740 0.87734090 0.00000000 1.00000000
				-32.35986000 -1.74853500 -17.57764000 / 0.87737100 0.47981230 0.00000000 / 42 141 11 255 / -9.91691600 -0.09785460 / -0.47981230 0.87737100 0.00000000 1.00000000
				-32.35986000 -1.74853500 -17.57764000 / 0.87736610 0.47982150 0.00000000 / 42 141 11 255 / -9.91691600 -0.09785460 / -0.47982150 0.87736610 0.00000000 1.00000000
				-33.07812000 -0.43603510 -17.57764000 / 0.87736610 0.47982150 0.00000000 / 42 141 11 255 / -9.03372200 -0.09785460 / -0.47982150 0.87736610 0.00000000 1.00000000
				-33.07812000 -0.43603510 -17.57764000 / 0.87736610 0.47982150 0.00000000 / 42 141 11 255 / -9.03372200 -0.09785460 / -0.47982150 0.87736610 0.00000000 1.00000000
				-33.07812000 -0.43603510 -16.96680000 / 0.87736610 0.47982150 0.00000000 / 42 141 11 255 / -9.03372200 -0.50498960 / -0.47982150 0.87736610 0.00000000 1.00000000
				-17.02930000 24.97656000 -17.57764000 / -0.89100600 -0.45399150 0.00000000 / 42 141 11 255 / -7.75108300 -0.09788510 / 0.45399150 -0.89100600 0.00000000 1.00000000
				-17.02930000 24.97656000 -17.57764000 / -0.89100600 -0.45399150 0.00000000 / 42 141 11 255 / -7.75108300 -0.09788510 / 0.45399150 -0.89100600 0.00000000 1.00000000
				-17.02930000 24.97656000 -17.57764000 / -0.89100600 -0.45399150 0.00000000 / 42 141 11 255 / -7.75108300 -0.09788510 / 0.45399150 -0.89100600 0.00000000 1.00000000
				-8.11425800 7.47998000 -17.57764000 / -0.89100640 -0.45399080 0.00000000 / 42 141 11 255 / 4.01533500 -0.09788510 / 0.45399080 -0.89100640 0.00000020 1.00000000
				-8.11425800 7.47998000 -17.57764000 / -0.89100640 -0.45399080 0.00000000 / 42 141 11 255 / 4.01533500 -0.09788510 / 0.45399080 -0.89100640 0.00000000 1.00000000
				-8.11425800 7.47998000 -16.96680000 / -0.89100640 -0.45399080 0.00000000 / 42 141 11 255 / 4.01533500 -0.50500490 / 0.45399080 -0.89100640 0.00000020 1.00000000
				-8.11425800 7.47998000 -16.96680000 / -0.89100640 -0.45399080 0.00000000 / 42 141 11 255 / 4.01533500 -0.50500490 / 0.45399080 -0.89100640 0.00000000 1.00000000
				-17.02930000 24.97656000 -16.96680000 / -0.89100600 -0.45399150 0.00000000 / 42 141 11 255 / -7.75108300 -0.50500490 / 0.45399150 -0.89100600 0.00000000 1.00000000
				-34.03272000 2.21582000 -16.96680000 / 0.87965450 0.47561330 0.00000000 / 42 141 11 255 / -7.25489800 -0.50498960 / -0.47561330 0.87965450 0.00000000 1.00000000
				-34.03272000 2.21582000 -16.96680000 / 0.87965450 0.47561330 0.00000000 / 42 141 11 255 / -7.25489800 -0.50498960 / -0.47561330 0.87965450 0.00012080 1.00000000
				-34.03272000 2.21582000 -17.57764000 / 0.87965450 0.47561330 0.00000000 / 42 141 11 255 / -7.25489800 -0.09785460 / -0.47561330 0.87965450 0.00000000 1.00000000
				-34.12256000 2.38183600 -17.57764000 / 0.87965450 0.47561330 0.00000000 / 42 141 11 255 / -7.14324900 -0.09785460 / -0.47561330 0.87965450 0.00000000 1.00000000
				-34.12256000 2.38183600 -17.57764000 / 0.87965450 0.47561330 0.00000000 / 42 141 11 255 / -7.14324900 -0.09785460 / -0.47561330 0.87965450 0.00012080 1.00000000
				-34.12256000 2.38183600 -16.96680000 / 0.87965450 0.47561330 0.00000000 / 42 141 11 255 / -7.14323400 -0.50497440 / -0.47561330 0.87965450 0.00012080 1.00000000
				-32.69971000 -0.23046880 -16.96680000 / 0.87774850 0.47912170 0.00000000 / 42 141 11 255 / -8.90100100 -0.50498960 / -0.47912170 0.87774850 0.00000000 1.00000000
				-32.69971000 -0.23046880 -16.96680000 / 0.87774850 0.47912170 0.00000000 / 42 141 11 255 / -8.90100100 -0.50498960 / -0.47912170 0.87774850 0.00000000 1.00000000
				-32.69971000 -0.23046880 -17.57764000 / 0.87774850 0.47912170 0.00000000 / 42 141 11 255 / -8.90101600 -0.09785460 / -0.47912170 0.87774850 0.00000000 1.00000000
				-32.79199000 -0.06152340 -17.57764000 / 0.87774850 0.47912170 0.00000000 / 42 141 11 255 / -8.78743000 -0.09785460 / -0.47912170 0.87774850 0.00000000 1.00000000
				-32.79199000 -0.06152340 -17.57764000 / 0.87774850 0.47912170 0.00000000 / 42 141 11 255 / -8.78743000 -0.09785460 / -0.47912170 0.87774850 0.00000000 1.00000000
				-32.79199000 -0.06152340 -16.96680000 / 0.87774850 0.47912170 0.00000000 / 42 141 11 255 / -8.78743000 -0.50498960 / -0.47912170 0.87774850 0.00000000 1.00000000
				-34.12256000 2.38183600 -16.96680000 / -0.47455330 0.88022670 0.00000000 / 42 141 11 255 / 22.64137000 -0.50498960 / -0.88022670 -0.47455330 0.00000000 1.00000000
				-34.12256000 2.38183600 -16.96680000 / -0.47455330 0.88022670 0.00000000 / 42 141 11 255 / 22.64137000 -0.50498960 / -0.88022670 -0.47455330 0.00000000 1.00000000
				-34.12256000 2.38183600 -17.57764000 / -0.47455330 0.88022670 0.00000000 / 42 141 11 255 / 22.64137000 -0.09785460 / -0.88022670 -0.47455330 0.00000000 1.00000000
				-34.50195000 2.17724600 -17.57764000 / -0.47455330 0.88022670 0.00000000 / 42 141 11 255 / 22.89658000 -0.09785460 / -0.88022670 -0.47455330 0.00000000 1.00000000
				-34.50195000 2.17724600 -17.57764000 / -0.47455330 0.88022670 0.00000000 / 42 141 11 255 / 22.89658000 -0.09785460 / -0.88022670 -0.47455330 0.00000000 1.00000000
				-34.50195000 2.17724600 -16.96680000 / -0.47455330 0.88022670 0.00000000 / 42 141 11 255 / 22.89658000 -0.50498960 / -0.88022670 -0.47455330 0.00000000 1.00000000
				-32.69971000 -0.23046880 -17.57764000 / 0.47721880 -0.87878450 0.00000000 / 42 141 11 255 / -20.72321000 -0.09785460 / 0.87870690 0.47717670 -0.01328910 1.00000000
				-32.69971000 -0.23046880 -17.57764000 / 0.47721880 -0.87878450 0.00000000 / 42 141 11 255 / -20.72321000 -0.09785460 / 0.87878450 0.47721890 0.00000000 1.00000000
				-32.69971000 -0.23046880 -16.96680000 / 0.47721880 -0.87878450 0.00000000 / 42 141 11 255 / -20.72321000 -0.50498960 / 0.87870690 0.47717670 -0.01328910 1.00000000
				-33.07812000 -0.43603510 -16.96680000 / 0.47721880 -0.87878450 0.00000000 / 42 141 11 255 / -20.98732000 -0.50117490 / 0.87870690 0.47717670 -0.01328910 1.00000000
				-33.07812000 -0.43603510 -16.96680000 / 0.47721880 -0.87878450 0.00000000 / 42 141 11 255 / -20.98732000 -0.50117490 / 0.87878450 0.47721890 0.00000000 1.00000000
				-33.07812000 -0.43603510 -17.57764000 / 0.47721880 -0.87878450 0.00000000 / 42 141 11 255 / -20.97804000 -0.09785460 / 0.87878450 0.47721890 0.00000000 1.00000000
				-12.18120000 15.46172000 -17.57764000 / -0.89102570 -0.45395290 0.00000000 / 42 141 11 255 / -1.35237200 -0.09788510 / 0.45395290 -0.89102570 0.00000000 1.00000000
				-12.18120000 15.46172000 -17.24546000 / -0.89102570 -0.45395290 0.00000000 / 42 141 11 255 / -1.35237200 -0.31928140 / 0.45395290 -0.89102570 0.00000000 1.00000000
				-12.18120000 15.46172000 -16.96680000 / -0.89102570 -0.45395290 0.00000000 / 42 141 11 255 / -1.35237200 -0.50500490 / 0.45395290 -0.89102570 0.00000000 1.00000000
				-12.18120000 15.46172000 -16.96680000 / -0.89102570 -0.45395290 0.00000000 / 42 141 11 255 / -1.35237200 -0.50500490 / 0.45395290 -0.89102570 0.00000000 1.00000000
				-12.18120000 15.46172000 -17.24546000 / -0.89102570 -0.45395290 0.00000000 / 42 141 11 255 / -1.35237200 -0.31928140 / 0.45395290 -0.89102570 0.00000000 1.00000000
				-35.31609000 3.67059900 -16.96680000 / 0.87812780 0.47842610 0.00000000 / 42 141 11 255 / -5.09639300 -0.50108340 / -0.47842610 0.87812780 0.00000000 1.00000000
				-35.31609000 3.67059900 -16.96680000 / 0.87812780 0.47842610 0.00000000 / 42 141 11 255 / -5.09639300 -0.50108340 / -0.47842610 0.87812780 0.00000000 1.00000000
				-35.31609000 3.67059900 -16.96680000 / 0.87812780 0.47842610 0.00000000 / 42 141 11 255 / -5.09639300 -0.50108340 / -0.47842610 0.87812780 0.00000000 1.00000000
				-35.31609000 3.67059900 -17.30915000 / 0.87812780 0.47842610 0.00000000 / 42 141 11 255 / -5.09639300 -0.27729090 / -0.47842610 0.87812780 0.00000000 1.00000000
				-35.31609000 3.67059900 -17.30915000 / 0.87812780 0.47842610 0.00000000 / 42 141 11 255 / -5.09639300 -0.27729090 / -0.47842610 0.87812780 0.00000000 1.00000000
				-35.31609000 3.67059900 -17.57764000 / 0.87812780 0.47842610 0.00000000 / 42 141 11 255 / -5.09639300 -0.10177610 / -0.47842620 0.87812780 0.00000000 1.00000000
				-35.31609000 3.67059900 -17.57764000 / 0.87812780 0.47842610 0.00000000 / 42 141 11 255 / -5.09639300 -0.10177610 / -0.47842610 0.87812780 0.00000000 1.00000000
				-35.31609000 3.67059900 -17.57764000 / 0.87812780 0.47842610 0.00000000 / 42 141 11 255 / -5.09639300 -0.10177610 / -0.47842610 0.87812780 0.00000000 1.00000000
				-35.31609000 3.67059900 -17.30915000 / 0.87812780 0.47842610 0.00000000 / 42 141 11 255 / -5.09639300 -0.27729090 / -0.47842610 0.87812780 0.00000000 1.00000000
				-35.31609000 3.67059900 -17.30915000 / 0.87812780 0.47842610 0.00000000 / 42 141 11 255 / -5.09639300 -0.27729090 / -0.47842610 0.87812780 0.00000000 1.00000000
				-8.87164900 8.96643100 -17.01870000 / -0.89102570 -0.45395290 0.00000000 / 42 141 11 255 / 3.01570000 -0.47041740 / 0.45395290 -0.89102570 0.00000020 1.00000000
				-8.87164900 8.96643100 -17.01870000 / -0.89102570 -0.45395290 0.00000000 / 42 141 11 255 / 3.01570000 -0.47041740 / 0.45395290 -0.89102570 0.00000000 1.00000000
				-8.87164900 8.96643100 -16.96680000 / -0.89102570 -0.45395290 0.00000000 / 42 141 11 255 / 3.01570000 -0.50500490 / 0.45395290 -0.89102570 0.00000000 1.00000000
				-31.82247000 -2.73088000 -16.96680000 / 0.87736110 0.47983070 0.00000000 / 42 141 11 255 / -10.57796000 -0.50499380 / -0.47983070 0.87736110 0.00000560 1.00000000
				-31.82247000 -2.73088000 -16.96680000 / 0.87736110 0.47983070 0.00000000 / 42 141 11 255 / -10.57796000 -0.50499380 / -0.47983070 0.87736110 0.00000570 1.00000000
				-31.82247000 -2.73088000 -16.96680000 / 0.87736110 0.47983070 0.00000000 / 42 141 11 255 / -10.57796000 -0.50499380 / -0.47983070 0.87736110 0.00000570 1.00000000
				-31.82247000 -2.73088000 -17.13538000 / 0.87736110 0.47983070 0.00000000 / 42 141 11 255 / -10.57796000 -0.39263130 / -0.47983070 0.87736110 0.00000560 1.00000000
				-31.82247000 -2.73088000 -17.13538000 / 0.87736110 0.47983070 0.00000000 / 42 141 11 255 / -10.57796000 -0.39263130 / -0.47983070 0.87736110 0.00000570 1.00000000
				-31.82247000 -2.73088000 -17.57764000 / 0.87736110 0.47983070 0.00000000 / 42 141 11 255 / -10.57796000 -0.09785460 / -0.47983070 0.87736110 0.00000000 1.00000000
				-31.82247000 -2.73088000 -17.57764000 / 0.87736110 0.47983070 0.00000000 / 42 141 11 255 / -10.57796000 -0.09785460 / -0.47983070 0.87736110 -0.00000010 1.00000000
				-31.82247000 -2.73088000 -17.57764000 / 0.87736110 0.47983070 0.00000000 / 42 141 11 255 / -10.57796000 -0.09785460 / -0.47983070 0.87736110 0.00000000 1.00000000
				-31.82247000 -2.73088000 -17.13538000 / 0.87736110 0.47983070 0.00000000 / 42 141 11 255 / -10.57796000 -0.39263130 / -0.47983070 0.87736110 0.00000000 1.00000000
				-31.82247000 -2.73088000 -17.13538000 / 0.87736110 0.47983070 0.00000000 / 42 141 11 255 / -10.57796000 -0.39263130 / -0.47983070 0.87736110 -0.00000010 1.00000000
				-8.87164900 8.96643000 -17.57764000 / -0.89102570 -0.45395290 0.00000000 / 42 141 11 255 / 3.01570000 -0.09788510 / 0.45395290 -0.89102570 0.00000000 1.00000000
				-8.87164900 8.96643000 -17.01870000 / -0.89102570 -0.45395290 0.00000000 / 42 141 11 255 / 3.01570000 -0.47041740 / 0.45395290 -0.89102570 0.00000000 1.00000000
			}
		}
	}
}
