Version 165 32
{
	Locked False
	Skinned False
	BoneCount 0
	Mask 255
	Bounds
	{
		Aabb
		{
			Min -4.50854000 30.40467000 -17.57772000
			Max -3.70824200 31.32899000 -11.88289000
		}
	}
	Geometries
	{
		Geometry
		{
			ShaderIndex 8
			Flags -
			VertexDeclaration N209731BE
			Indices 24
			{
				0 18 1 4 5 17 6 8 2 3 9 7 12 14 15
				16 10 13 11 20 21 22 23 19
			}
			Vertices 24
			{
				-4.50853800 31.10096000 -11.88289000 / -0.45645900 0.88974450 0.00000000 / 42 141 11 255 / 0.60096740 0.00303650
				-4.06419500 31.32899000 -17.57772000 / -0.45645900 0.88974450 0.00000000 / 42 141 11 255 / 0.35260010 1.01461800
				-3.70824300 30.63270000 -11.88289000 / 0.89044420 0.45509260 0.00000000 / 42 141 11 255 / 1.50019800 0.00302120
				-3.70824300 30.63270000 -11.88289000 / 0.89044420 0.45509260 0.00000000 / 42 141 11 255 / 1.50019800 0.00302120
				-4.06419500 31.32899000 -17.57772000 / -0.45645900 0.88974450 0.00000000 / 42 141 11 255 / 0.35260010 1.01461800
				-4.50854000 31.10096000 -17.57772000 / -0.45645900 0.88974450 0.00000000 / 42 141 11 255 / 0.60096740 1.01461800
				-4.06419500 31.32899000 -17.57772000 / 0.89044420 0.45509260 0.00000000 / 42 141 11 255 / 1.88906900 1.01461800
				-4.06419500 31.32899000 -17.57772000 / 0.89044420 0.45509260 0.00000000 / 42 141 11 255 / 1.88906900 1.01461800
				-4.06419500 31.32899000 -11.88289000 / 0.89044420 0.45509260 0.00000000 / 42 141 11 255 / 1.88906900 0.00302120
				-3.70824200 30.63269000 -17.57771000 / 0.89044420 0.45509260 0.00000000 / 42 141 11 255 / 1.50019800 1.01461800
				-4.50853800 31.10096000 -11.88289000 / -0.89034700 -0.45528240 0.00000000 / 42 141 11 255 / -0.91453550 0.00302120
				-3.70824300 30.63270000 -11.88289000 / 0.45642120 -0.88976390 0.00000000 / 42 141 11 255 / 0.60702510 0.00302120
				-4.50854000 31.10096000 -17.57772000 / -0.89034700 -0.45528240 0.00000000 / 42 141 11 255 / -0.91455080 1.01461800
				-4.50854000 31.10096000 -17.57772000 / -0.89034700 -0.45528240 0.00000000 / 42 141 11 255 / -0.91455080 1.01461800
				-4.15257700 30.40467000 -17.57771000 / -0.89034700 -0.45528240 0.00000000 / 42 141 11 255 / -0.52568050 1.01461800
				-4.15257900 30.40467000 -11.88289000 / -0.89034700 -0.45528240 0.00000000 / 42 141 11 255 / -0.52566530 0.00303650
				-4.15257900 30.40467000 -11.88289000 / -0.89034700 -0.45528240 0.00000000 / 42 141 11 255 / -0.52566530 0.00303650
				-4.50853800 31.10096000 -11.88289000 / -0.45645900 0.88974450 0.00000000 / 42 141 11 255 / 0.60096740 0.00303650
				-4.06419500 31.32899000 -11.88289000 / -0.45645900 0.88974450 0.00000000 / 42 141 11 255 / 0.35260010 0.00302120
				-3.70824300 30.63270000 -11.88289000 / 0.45642120 -0.88976390 0.00000000 / 42 141 11 255 / 0.60702510 0.00302120
				-4.15257900 30.40467000 -11.88289000 / 0.45645900 -0.88974450 0.00000000 / 42 141 11 255 / 0.35867310 0.00303650
				-4.15257700 30.40467000 -17.57771000 / 0.45645900 -0.88974450 0.00000000 / 42 141 11 255 / 0.35867310 1.01461800
				-4.15257700 30.40467000 -17.57771000 / 0.45645900 -0.88974450 0.00000000 / 42 141 11 255 / 0.35867310 1.01461800
				-3.70824200 30.63269000 -17.57771000 / 0.45642120 -0.88976390 0.00000000 / 42 141 11 255 / 0.60702510 1.01461800
			}
		}
	}
}
