Version 165 32
{
	Locked False
	Skinned False
	BoneCount 0
	Mask 255
	Bounds
	{
		Aabb
		{
			Min -16.98539000 6.61312500 -17.59879000
			Max 10.54984000 33.42880000 -17.15228000
		}
	}
	Geometries
	{
		Geometry
		{
			ShaderIndex 7
			Flags -
			VertexDeclaration N51263BB5
			Indices 426
			{
				344 11 65 111 16 68 69 217 222 150 165 297 298 303 151
				163 304 307 152 309 313 137 30 80 81 225 138 164 153 166
				251 219 186 201 3 264 143 141 272 273 131 162 142 168 239
				240 275 146 187 74 261 188 262 252 171 193 253 205 256 232
				233 176 220 33 118 414 416 177 35 265 173 45 56 67 266
				204 214 244 93 180 206 195 134 156 196 221 189 200 223 197
				224 282 389 210 127 216 301 38 85 175 144 29 47 215 190
				172 254 241 242 170 174 198 245 300 259 199 334 345 356 260
				255 202 274 41 87 315 316 91 42 276 43 92 159 341 346
				243 54 97 207 354 358 365 117 101 102 269 366 185 371 404
				226 203 257 258 129 227 229 115 373 374 376 230 231 424 372
				271 228 299 66 130 235 238 31 124 132 135 250 268 194 133
				136 140 332 333 388 139 147 286 283 284 267 148 290 149 293
				295 72 17 18 302 296 305 75 20 21 308 306 310 77 25
				26 314 312 112 324 320 321 154 123 327 155 329 157 338 335
				336 0 158 342 94 48 49 347 343 191 351 348 349 169 192
				355 98 55 57 359 357 382 104 60 61 415 393 377 263 1
				23 419 390 391 78 34 89 421 394 395 145 100 167 425 399
				400 211 178 4 402 278 289 234 5 311 7 406 407 364 322
				367 106 109 369 9 409 410 375 370 183 361 381 383 368 184
				317 83 119 120 412 318 387 319 413 420 179 392 422 125 208
				209 396 423 2 126 401 212 181 403 405 6 213 8 182 408
				10 128 411 287 64 13 14 285 288 291 294 70 71 15 292
				325 86 36 37 323 326 39 328 330 331 88 40 339 90 44
				46 337 340 352 96 52 53 350 353 110 384 362 363 103 113
				73 218 19 397 116 22 24 76 398 236 247 27 28 79 237
				82 277 32 160 279 50 51 95 161 280 246 58 59 99 281
				248 270 62 63 105 249 385 114 107 108 360 386 378 12 417
				379 418 121 84 380 122
			}
			Vertices 426
			{
				-8.15125100 29.50165000 -17.15228000 / 0.00000000 0.00000000 1.00000000 / 42 141 11 255 / 0.06968690 2.73393300 / 0.45393060 -0.89103700 0.00000000 1.00000000
				0.23793410 21.77413000 -17.15228000 / 0.00000000 0.00000000 1.00000000 / 42 141 11 255 / 8.22621500 0.15849830 / 0.45220570 -0.89191370 0.00000000 1.00000000
				8.61470400 16.37103000 -17.15228000 / 0.00000000 0.00000000 1.00000000 / 42 141 11 255 / 14.79910000 -3.51361300 / 0.45352820 -0.89124190 0.00000000 1.00000000
				-14.37456000 23.88841000 -17.15228000 / 0.00000000 0.00000000 1.00000000 / 42 141 11 255 / 1.72925700 8.90687900 / 0.45400050 -0.89100140 0.00000000 1.00000000
				7.44887500 18.71826000 -17.15228000 / 0.00000000 0.00000000 1.00000000 / 42 141 11 255 / 12.80021000 -3.52945900 / 0.45222320 -0.89190480 0.00000000 1.00000000
				7.44887500 18.71826000 -17.15228000 / 0.00000000 0.00000000 1.00000000 / 42 141 11 255 / 12.80021000 -3.52945900 / 0.45222310 -0.89190490 0.00000000 1.00000000
				7.44887500 18.71826000 -17.15228000 / 0.00000000 0.00000000 1.00000000 / 42 141 11 255 / 12.80021000 -3.52945900 / 0.45222310 -0.89190480 0.00000000 1.00000000
				5.07085400 23.50606000 -17.15228000 / 0.00000000 0.00000000 1.00000000 / 42 141 11 255 / 8.72292600 -3.56174900 / 0.45310600 -0.89145670 0.00000000 1.00000000
				5.07085400 23.50606000 -17.15228000 / 0.00000000 0.00000000 1.00000000 / 42 141 11 255 / 8.72292600 -3.56174900 / 0.45310600 -0.89145670 0.00000000 1.00000000
				8.80164600 15.99465000 -17.15228000 / 0.00000000 0.00000000 1.00000000 / 42 141 11 255 / 15.11960000 -3.51045200 / 0.45402670 -0.89098810 0.00000000 1.00000000
				8.80164600 15.99465000 -17.15228000 / 0.00000000 0.00000000 1.00000000 / 42 141 11 255 / 15.11960000 -3.51045200 / 0.45402680 -0.89098800 0.00000000 1.00000000
				-14.86532000 24.85283000 -17.15228000 / 0.00000000 0.00000000 1.00000000 / 42 141 10 255 / 0.90396200 8.90644500 / 0.45399050 -0.89100650 0.00000000 1.00000000
				0.23793410 21.77413000 -17.15228000 / 0.00000000 0.00000000 1.00000000 / 42 141 11 255 / 8.22621500 0.15849830 / 0.45220570 -0.89191370 0.00000000 1.00000000
				-14.86532000 24.85283000 -17.15228000 / 0.00000000 0.00000000 1.00000000 / 42 141 10 255 / 0.90396200 8.90644500 / 0.45398470 -0.89100950 0.00000000 1.00000000
				-14.86532000 24.85283000 -17.15228000 / 0.00000000 0.00000000 1.00000000 / 42 141 10 255 / 0.90396200 8.90644500 / 0.45398800 -0.89100780 0.00000000 1.00000000
				-15.31567000 24.62915000 -17.15228000 / 0.00000000 0.00000000 1.00000000 / 41 141 10 255 / 0.90002910 9.28992600 / 0.45398920 -0.89100720 0.00000000 1.00000000
				-15.31567000 24.62915000 -17.15228000 / 0.00000000 0.00000000 1.00000000 / 41 141 10 255 / 0.90002910 9.28992600 / 0.45399170 -0.89100590 0.00000000 1.00000000
				-16.41925000 24.08102000 -17.15228000 / 0.00000000 0.00000000 1.00000000 / 42 141 11 255 / 0.89039210 10.22966000 / 0.45398570 -0.89100900 0.00000000 1.00000000
				-16.41925000 24.08102000 -17.15228000 / 0.00000000 0.00000000 1.00000000 / 42 141 11 255 / 0.89039210 10.22966000 / 0.45398810 -0.89100770 0.00000000 1.00000000
				-16.41925000 24.08102000 -17.15228000 / 0.00000000 0.00000000 1.00000000 / 42 141 11 255 / 0.89039210 10.22966000 / 0.45398740 -0.89100810 0.00000000 1.00000000
				-14.16787000 25.19924000 -17.15228000 / 0.00000000 0.00000000 1.00000000 / 42 141 11 255 / 0.91004660 8.31253100 / 0.45261830 -0.89170440 0.00000000 1.00000000
				-14.16787000 25.19924000 -17.15228000 / 0.00000000 0.00000000 1.00000000 / 42 141 11 255 / 0.91004660 8.31253100 / 0.45262630 -0.89170040 0.00000000 1.00000000
				-14.16787000 25.19924000 -17.15228000 / 0.00000000 0.00000000 1.00000000 / 42 141 11 255 / 0.91004660 8.31253100 / 0.45259660 -0.89171530 0.00000000 1.00000000
				0.32593270 21.59695000 -17.15228000 / 0.00000000 0.00000000 1.00000000 / 42 141 11 255 / 8.37709600 0.15969090 / 0.45220880 -0.89191210 0.00000000 1.00000000
				-14.16787000 25.19924000 -17.15228000 / 0.00000000 0.00000000 1.00000000 / 42 141 11 255 / 0.91004660 8.31253100 / 0.45261810 -0.89170450 0.00000000 1.00000000
				-6.48256200 29.01640000 -17.15228000 / 0.00000000 0.00000000 1.00000000 / 42 141 11 255 / 0.97714580 1.76829600 / 0.45404230 -0.89098010 0.00000000 1.00000000
				-6.48256200 29.01640000 -17.15228000 / 0.00000000 0.00000000 1.00000000 / 42 141 11 255 / 0.97714580 1.76829600 / 0.45404590 -0.89097830 0.00000000 1.00000000
				-6.48256200 29.01640000 -17.15228000 / 0.00000000 0.00000000 1.00000000 / 42 141 11 255 / 0.97714580 1.76829600 / 0.45404550 -0.89097850 0.00000000 1.00000000
				-6.48256200 29.01640000 -17.15228000 / 0.00000000 0.00000000 1.00000000 / 42 141 11 255 / 0.97714580 1.76829600 / 0.45404180 -0.89098050 0.00000000 1.00000000
				-14.37456000 23.88841000 -17.15228000 / 0.00000000 0.00000000 1.00000000 / 42 141 11 255 / 1.72925700 8.90687900 / 0.45259350 -0.89171700 0.00000000 1.00000000
				2.22070600 33.33916000 -17.15228000 / 0.00000000 0.00000000 1.00000000 / 42 141 11 255 / 1.05323100 -4.98012600 / 0.45398700 -0.89100840 0.00000000 1.00000000
				-7.52241200 10.42301000 -17.15228000 / -0.48465480 0.87470560 0.00000000 / 42 141 11 255 / 13.25266000 8.97070600 / 1.00000000 0.00000000 0.00000000 1.00000000
				2.17648700 33.31720000 -17.15228000 / 0.00000000 0.00000000 1.00000000 / 42 141 11 255 / 1.05285200 -4.94247900 / 0.45398690 -0.89100840 0.00000000 1.00000000
				1.47314400 32.96787000 -17.15228000 / 0.00000000 0.00000000 1.00000000 / 42 141 11 255 / 1.04684900 -4.34367200 / 0.45220570 -0.89191370 0.00000000 1.00000000
				0.32593270 21.59695000 -17.15228000 / 0.00000000 0.00000000 1.00000000 / 42 141 11 255 / 8.37709600 0.15969090 / 0.45220600 -0.89191350 0.00000000 1.00000000
				1.47314400 32.96787000 -17.15228000 / 0.00000000 0.00000000 1.00000000 / 42 141 11 255 / 1.04684900 -4.34367200 / 0.45220560 -0.89191380 0.00000000 1.00000000
				-14.45829000 25.05500000 -17.15228000 / 0.00000000 0.00000000 1.00000000 / 42 141 11 255 / 0.90751670 8.55984800 / 0.45398860 -0.89100750 0.00000000 1.00000000
				-14.45829000 25.05500000 -17.15228000 / 0.00000000 0.00000000 1.00000000 / 42 141 11 255 / 0.90751670 8.55984800 / 0.45398930 -0.89100710 0.00000000 1.00000000
				-14.45829000 25.05500000 -17.15228000 / 0.00000000 0.00000000 1.00000000 / 42 141 11 255 / 0.90751670 8.55984800 / 0.45398810 -0.89100780 0.00000000 1.00000000
				-14.17875000 25.19384000 -17.15228000 / 0.00000000 0.00000000 1.00000000 / 42 141 10 255 / 0.90995030 8.32181700 / 0.45399820 -0.89100260 0.00000000 1.00000000
				-14.17875000 25.19384000 -17.15228000 / 0.00000000 0.00000000 1.00000000 / 42 141 10 255 / 0.90995030 8.32181700 / 0.45399770 -0.89100280 0.00000000 1.00000000
				-14.17875000 25.19384000 -17.15228000 / 0.00000000 0.00000000 1.00000000 / 42 141 10 255 / 0.90995030 8.32181700 / 0.45399590 -0.89100370 0.00000000 1.00000000
				-14.17875000 25.19384000 -17.15228000 / 0.00000000 0.00000000 1.00000000 / 42 141 10 255 / 0.90995030 8.32181700 / 0.45400070 -0.89100130 0.00000000 1.00000000
				-8.89086500 27.82024000 -17.15228000 / 0.00000000 0.00000000 1.00000000 / 42 141 11 255 / 0.95619400 3.81873200 / 0.45393060 -0.89103700 0.00000000 1.00000000
				-8.89086500 27.82024000 -17.15228000 / 0.00000000 0.00000000 1.00000000 / 42 141 11 255 / 0.95619400 3.81873200 / 0.45393010 -0.89103730 0.00000000 1.00000000
				0.32593270 21.59695000 -17.15228000 / 0.00000000 0.00000000 1.00000000 / 42 141 11 255 / 8.37709600 0.15969090 / 0.45220790 -0.89191260 0.00000000 1.00000000
				-8.89086500 27.82024000 -17.15228000 / 0.00000000 0.00000000 1.00000000 / 42 141 11 255 / 0.95619400 3.81873200 / 0.45392990 -0.89103740 0.00000000 1.00000000
				-14.37456000 23.88841000 -17.15228000 / 0.00000000 0.00000000 1.00000000 / 42 141 11 255 / 1.72925700 8.90687900 / 0.45259800 -0.89171460 0.00000000 1.00000000
				-13.70728000 25.42801000 -17.15228000 / 0.00000000 0.00000000 1.00000000 / 42 141 11 255 / 0.91407550 7.92029700 / 0.45393070 -0.89103700 0.00000000 1.00000000
				-13.70728000 25.42801000 -17.15228000 / 0.00000000 0.00000000 1.00000000 / 42 141 11 255 / 0.91407550 7.92029700 / 0.45393150 -0.89103670 0.00000000 1.00000000
				-13.70728000 25.42801000 -17.15228000 / 0.00000000 0.00000000 1.00000000 / 42 141 11 255 / 0.91407550 7.92029700 / 0.45393090 -0.89103690 0.00000000 1.00000000
				-13.70728000 25.42801000 -17.15228000 / 0.00000000 0.00000000 1.00000000 / 42 141 11 255 / 0.91407550 7.92029700 / 0.45393040 -0.89103720 0.00000000 1.00000000
				-6.74572900 28.88569000 -17.15228000 / 0.00000000 0.00000000 1.00000000 / 42 141 11 255 / 0.97484340 1.99237700 / 0.45416830 -0.89091590 0.00000000 1.00000000
				-6.74572900 28.88569000 -17.15228000 / 0.00000000 0.00000000 1.00000000 / 42 141 11 255 / 0.97484340 1.99237700 / 0.45416770 -0.89091620 0.00000000 1.00000000
				-6.74572900 28.88569000 -17.15228000 / 0.00000000 0.00000000 1.00000000 / 42 141 11 255 / 0.97484340 1.99237700 / 0.45416720 -0.89091650 0.00000000 1.00000000
				-8.74265900 27.89385000 -17.15228000 / 0.00000000 0.00000000 1.00000000 / 42 141 11 255 / 0.95748290 3.69255000 / 0.45417190 -0.89091410 0.00000000 1.00000000
				0.32593270 21.59695000 -17.15228000 / 0.00000000 0.00000000 1.00000000 / 42 141 11 255 / 8.37709600 0.15969090 / 0.45220950 -0.89191170 0.00000000 1.00000000
				-8.74265900 27.89385000 -17.15228000 / 0.00000000 0.00000000 1.00000000 / 42 141 11 255 / 0.95748290 3.69255000 / 0.45416820 -0.89091590 0.00000000 1.00000000
				-8.74265900 27.89385000 -17.15228000 / 0.00000000 0.00000000 1.00000000 / 42 141 11 255 / 0.95748290 3.69255000 / 0.45416560 -0.89091730 0.00000000 1.00000000
				-8.74265900 27.89385000 -17.15228000 / 0.00000000 0.00000000 1.00000000 / 42 141 11 255 / 0.95748290 3.69255000 / 0.45417200 -0.89091400 0.00000000 1.00000000
				-6.28834800 29.11286000 -17.15228000 / 0.00000000 0.00000000 1.00000000 / 42 141 11 255 / 0.97884600 1.60963900 / 0.49759160 -0.86741140 0.00000000 1.00000000
				-6.28834800 29.11286000 -17.15228000 / 0.00000000 0.00000000 1.00000000 / 42 141 11 255 / 0.97884600 1.60963900 / 0.49759250 -0.86741100 0.00000000 1.00000000
				-6.28834800 29.11286000 -17.15228000 / 0.00000000 0.00000000 1.00000000 / 42 141 11 255 / 0.97884600 1.60963900 / 0.49759050 -0.86741210 0.00000000 1.00000000
				-6.28834800 29.11286000 -17.15228000 / 0.00000000 0.00000000 1.00000000 / 42 141 11 255 / 0.97884600 1.60963900 / 0.49759320 -0.86741050 0.00000000 1.00000000
				-15.31567000 24.62915000 -17.15228000 / 0.00000000 0.00000000 1.00000000 / 42 141 11 255 / 0.90002910 9.28992600 / 0.45398470 -0.89100950 0.00000000 1.00000000
				-15.31567000 24.62915000 -17.15228000 / 0.00000000 0.00000000 1.00000000 / 42 141 11 255 / 0.90002910 9.28992600 / 0.45399050 -0.89100650 0.00000000 1.00000000
				-7.52241100 10.42301000 -17.56469000 / -0.48465480 0.87470560 0.00000000 / 42 141 11 255 / 13.25266000 8.97070600 / 1.00000000 0.00000000 0.00000000 1.00000000
				0.23793390 21.77413000 -17.15228000 / 0.00000000 0.00000000 1.00000000 / 42 141 11 255 / 8.22621600 0.15849850 / 0.45220950 -0.89191170 0.00000000 1.00000000
				-16.41925000 24.08102000 -17.15228000 / 0.00000000 0.00000000 1.00000000 / 42 141 10 255 / 0.89039210 10.22966000 / 0.45399170 -0.89100590 0.00000000 1.00000000
				-16.41925000 24.08102000 -17.15228000 / 0.00000000 0.00000000 1.00000000 / 42 141 10 255 / 0.89039210 10.22966000 / 0.45398790 -0.89100780 0.00000000 1.00000000
				-16.41925000 24.08102000 -17.15228000 / 0.00000000 0.00000000 1.00000000 / 42 141 10 255 / 0.89039210 10.22966000 / 0.45399100 -0.89100630 0.00000000 1.00000000
				-16.41925000 24.08102000 -17.15228000 / 0.00000000 0.00000000 1.00000000 / 42 141 10 255 / 0.89039210 10.22966000 / 0.45398920 -0.89100720 0.00000000 1.00000000
				-16.51373000 24.03409000 -17.15228000 / 0.00000000 0.00000000 1.00000000 / 41 141 10 255 / 0.88956840 10.31011000 / 0.45398570 -0.89100900 0.00000000 1.00000000
				-16.51373000 24.03409000 -17.15228000 / 0.00000000 0.00000000 1.00000000 / 41 141 10 255 / 0.88956840 10.31011000 / 0.45398740 -0.89100810 0.00000000 1.00000000
				-11.11029000 15.26041000 -17.15228000 / 0.00000000 0.00000000 1.00000000 / 42 141 11 255 / 8.72280600 9.70339900 / 0.45390950 -0.89104780 0.00000000 1.00000000
				-14.17875000 25.19384000 -17.15228000 / 0.00000000 0.00000000 1.00000000 / 41 141 10 255 / 0.90995010 8.32181700 / 0.45261830 -0.89170440 0.00000000 1.00000000
				-14.17875000 25.19384000 -17.15228000 / 0.00000000 0.00000000 1.00000000 / 41 141 10 255 / 0.90995010 8.32181700 / 0.45261810 -0.89170450 0.00000000 1.00000000
				-6.74572900 28.88569000 -17.15228000 / 0.00000000 0.00000000 1.00000000 / 42 141 11 255 / 0.97484350 1.99237700 / 0.45404230 -0.89098010 0.00000000 1.00000000
				0.23793390 21.77413000 -17.15228000 / 0.00000000 0.00000000 1.00000000 / 42 141 11 255 / 8.22621600 0.15849850 / 0.45220600 -0.89191350 0.00000000 1.00000000
				-6.74572900 28.88569000 -17.15228000 / 0.00000000 0.00000000 1.00000000 / 42 141 11 255 / 0.97484350 1.99237700 / 0.45404180 -0.89098050 0.00000000 1.00000000
				2.17648800 33.31720000 -17.15228000 / 0.00000000 0.00000000 1.00000000 / 42 141 11 255 / 1.05285200 -4.94248000 / 0.45398700 -0.89100840 0.00000000 1.00000000
				2.17648800 33.31720000 -17.15228000 / 0.00000000 0.00000000 1.00000000 / 42 141 11 255 / 1.05285200 -4.94248000 / 0.45398700 -0.89100840 0.00000000 1.00000000
				1.47314400 32.96787000 -17.15228000 / 0.00000000 0.00000000 1.00000000 / 41 141 11 255 / 1.04684900 -4.34367200 / 0.45398690 -0.89100840 0.00000000 1.00000000
				-0.48674810 31.99442000 -17.15228000 / 0.00000000 0.00000000 1.00000000 / 42 141 11 255 / 1.02965200 -2.74526700 / 0.46245680 -0.88664190 0.00000000 1.00000000
				-0.48674810 31.99442000 -17.15228000 / 0.00000000 0.00000000 1.00000000 / 42 141 11 255 / 1.02965200 -2.74526700 / 0.45220440 -0.89191430 0.00000000 1.00000000
				-14.86532000 24.85283000 -17.15228000 / 0.00000000 0.00000000 1.00000000 / 42 141 11 255 / 0.90396270 8.90644600 / 0.45398810 -0.89100780 0.00000000 1.00000000
				-14.86532000 24.85283000 -17.15228000 / 0.00000000 0.00000000 1.00000000 / 42 141 11 255 / 0.90396270 8.90644600 / 0.45398860 -0.89100750 0.00000000 1.00000000
				-14.45829000 25.05500000 -17.15228000 / 0.00000000 0.00000000 1.00000000 / 42 141 11 255 / 0.90751670 8.55984800 / 0.45399590 -0.89100370 0.00000000 1.00000000
				-14.45829000 25.05500000 -17.15228000 / 0.00000000 0.00000000 1.00000000 / 42 141 11 255 / 0.90751670 8.55984800 / 0.45399770 -0.89100280 0.00000000 1.00000000
				3.68197000 14.84005000 -17.15228000 / 0.00000000 0.00000000 1.00000000 / 42 141 11 255 / 14.13126000 0.20724960 / 0.45222280 -0.89190500 0.00000000 1.00000000
				-13.70728000 25.42801000 -17.15228000 / 0.00000000 0.00000000 1.00000000 / 42 141 11 255 / 0.91407550 7.92029700 / 0.45393010 -0.89103730 0.00000000 1.00000000
				-14.37456000 23.88841000 -17.15228000 / 0.00000000 0.00000000 1.00000000 / 42 141 11 255 / 1.72925700 8.90687900 / 0.45400070 -0.89100130 0.00000000 1.00000000
				-13.70728000 25.42801000 -17.15228000 / 0.00000000 0.00000000 1.00000000 / 42 141 11 255 / 0.91407550 7.92029700 / 0.45393060 -0.89103700 0.00000000 1.00000000
				6.46932600 25.00087000 -17.15228000 / 0.00000000 0.00000000 1.00000000 / 42 141 11 255 / 8.19129800 -4.98018400 / 0.45398710 -0.89100840 0.00000000 1.00000000
				-14.16787000 25.19924000 -17.15228000 / 0.00000000 0.00000000 1.00000000 / 42 141 11 255 / 0.91004770 8.31253300 / 0.45393070 -0.89103700 0.00000000 1.00000000
				-14.16787000 25.19924000 -17.15228000 / 0.00000000 0.00000000 1.00000000 / 42 141 11 255 / 0.91004770 8.31253300 / 0.45393040 -0.89103720 0.00000000 1.00000000
				-8.74265900 27.89385000 -17.15228000 / 0.00000000 0.00000000 1.00000000 / 41 141 11 255 / 0.95748280 3.69255000 / 0.45416830 -0.89091590 0.00000000 1.00000000
				-8.74265900 27.89385000 -17.15228000 / 0.00000000 0.00000000 1.00000000 / 41 141 11 255 / 0.95748280 3.69255000 / 0.45416720 -0.89091650 0.00000000 1.00000000
				-8.89086600 27.82024000 -17.15228000 / 0.00000000 0.00000000 1.00000000 / 42 141 11 255 / 0.95619420 3.81873300 / 0.45417190 -0.89091410 0.00000000 1.00000000
				-8.89086600 27.82024000 -17.15228000 / 0.00000000 0.00000000 1.00000000 / 42 141 11 255 / 0.95619420 3.81873300 / 0.45417200 -0.89091400 0.00000000 1.00000000
				3.68197000 14.84005000 -17.15228000 / 0.00000000 0.00000000 1.00000000 / 42 141 11 255 / 14.13126000 0.20724960 / 0.45222230 -0.89190520 0.00000000 1.00000000
				-6.28834800 29.11286000 -17.15228000 / 0.00000000 0.00000000 1.00000000 / 42 141 11 255 / 0.97884630 1.60964000 / 0.56633510 -0.82417510 0.00000000 1.00000000
				-6.28834800 29.11286000 -17.15228000 / 0.00000000 0.00000000 1.00000000 / 42 141 11 255 / 0.97884630 1.60964000 / 0.57428110 -0.81865820 0.00000000 1.00000000
				-6.28834800 29.11286000 -17.15228000 / 0.00000000 0.00000000 1.00000000 / 42 141 11 255 / 0.97884630 1.60964000 / 0.58619230 -0.81017210 0.00000000 1.00000000
				-6.48256100 29.01640000 -17.15228000 / 0.00000000 0.00000000 1.00000000 / 42 141 11 255 / 0.97714540 1.76829500 / 0.49759160 -0.86741140 0.00000000 1.00000000
				-6.48256100 29.01640000 -17.15228000 / 0.00000000 0.00000000 1.00000000 / 42 141 11 255 / 0.97714540 1.76829500 / 0.49759320 -0.86741050 0.00000000 1.00000000
				-0.48674820 31.99442000 -17.15228000 / 0.00000000 0.00000000 1.00000000 / 42 141 11 255 / 1.02965200 -2.74526700 / 0.56444300 -0.82547210 0.00000000 1.00000000
				-0.48674820 31.99442000 -17.15228000 / 0.00000000 0.00000000 1.00000000 / 42 141 11 255 / 1.02965200 -2.74526700 / 0.57336010 -0.81930350 0.00000000 1.00000000
				-0.48674820 31.99442000 -17.15228000 / 0.00000000 0.00000000 1.00000000 / 42 141 11 255 / 1.02965200 -2.74526700 / 0.54845300 -0.83618140 0.00000000 1.00000000
				-4.11564600 30.50950000 -17.15228000 / 0.00000000 0.00000000 1.00000000 / 42 141 11 255 / 0.99908590 -0.12517710 / 0.56444300 -0.82547210 0.00000000 1.00000000
				-4.11564600 30.50950000 -17.15228000 / 0.00000000 0.00000000 1.00000000 / 42 141 11 255 / 0.99908590 -0.12517710 / 0.57614070 -0.81735050 0.00000000 1.00000000
				-14.65704000 24.44354000 -17.15228000 / 0.00000000 0.00000000 1.00000000 / 42 141 11 255 / 1.25421900 8.90662700 / 0.45399170 -0.89100590 0.00000000 1.00000000
				-15.36244000 25.82974000 -17.15228000 / 0.00000000 0.00000000 1.00000000 / 42 141 11 255 / 0.06796160 8.90601300 / 0.45398830 -0.89100770 0.00000000 1.00000000
				-4.11564600 30.50950000 -17.15228000 / 0.00000000 0.00000000 1.00000000 / 42 141 11 255 / 0.99908590 -0.12517710 / 0.58619230 -0.81017210 0.00000000 1.00000000
				-4.11564600 30.50950000 -17.15228000 / 0.00000000 0.00000000 1.00000000 / 42 141 11 255 / 0.99908590 -0.12517710 / 0.57336010 -0.81930350 0.00000000 1.00000000
				-6.04530100 7.52028900 -17.15228000 / 0.00000000 0.00000000 1.00000000 / 42 141 11 255 / 15.73667000 8.97203900 / 0.45402610 -0.89098840 0.00000000 1.00000000
				-14.35896000 23.85776000 -17.15228000 / 0.00000000 0.00000000 1.00000000 / 42 141 11 255 / 1.75549400 8.90685300 / 0.45259660 -0.89171530 0.00000000 1.00000000
				-4.11564600 30.50950000 -17.15228000 / 0.00000000 0.00000000 1.00000000 / 42 141 11 255 / 0.99908590 -0.12517710 / 0.56633510 -0.82417510 0.00000000 1.00000000
				0.58936490 32.52890000 -17.15228000 / 0.00000000 0.00000000 1.00000000 / 42 141 11 255 / 1.03909400 -3.62290000 / 0.45220570 -0.89191370 0.00000000 1.00000000
				0.58936490 32.52890000 -17.15228000 / 0.00000000 0.00000000 1.00000000 / 42 141 11 255 / 1.03909400 -3.62290000 / 0.46245680 -0.88664190 0.00000000 1.00000000
				0.58936490 32.52890000 -17.15228000 / 0.00000000 0.00000000 1.00000000 / 42 141 11 255 / 1.03909400 -3.62290000 / 0.46244800 -0.88664640 0.00000000 1.00000000
				0.58936490 32.52890000 -17.15228000 / 0.00000000 0.00000000 1.00000000 / 42 141 11 255 / 1.03909400 -3.62290000 / 0.45220570 -0.89191370 0.00000000 1.00000000
				0.58936490 32.52890000 -17.15228000 / 0.00000000 0.00000000 1.00000000 / 42 141 11 255 / 1.03909400 -3.62290000 / 0.45220440 -0.89191430 0.00000000 1.00000000
				-15.36244000 25.82974000 -17.15228000 / 0.00000000 0.00000000 1.00000000 / 42 141 11 255 / 0.06796160 8.90601300 / 0.45398890 -0.89100740 0.00000000 1.00000000
				-7.52241100 10.42301000 -17.56469000 / -0.48465480 0.87470560 0.00000000 / 42 141 11 255 / 13.25266000 8.97070600 / 1.00000000 0.00000000 0.00000000 1.00000000
				10.54984000 16.99248000 -17.15228000 / 0.00000000 0.00000000 1.00000000 / 42 141 11 255 / 15.04694000 -4.98024000 / 0.45222280 -0.89190500 0.00000000 1.00000000
				10.54984000 16.99248000 -17.15228000 / 0.00000000 0.00000000 1.00000000 / 42 141 11 255 / 15.04694000 -4.98024000 / 0.45352820 -0.89124190 0.00000000 1.00000000
				10.54984000 16.99248000 -17.15228000 / 0.00000000 0.00000000 1.00000000 / 42 141 11 255 / 15.04694000 -4.98024000 / 0.45398700 -0.89100840 0.00000000 1.00000000
				10.54984000 16.99248000 -17.15228000 / 0.00000000 0.00000000 1.00000000 / 42 141 11 255 / 15.04694000 -4.98024000 / 0.45402680 -0.89098800 0.00000000 1.00000000
				-7.85731600 11.08114000 -17.15228000 / 0.00000000 0.00000000 1.00000000 / 42 141 11 255 / 12.68946000 8.97040300 / 0.45357460 -0.89121830 0.00000000 1.00000000
				-9.12413000 9.53553400 -17.56469000 / -0.48465480 0.87470560 0.00000000 / 42 141 11 255 / 13.30104000 10.30846000 / 1.00000000 0.00000000 0.00000000 1.00000000
				-14.35896000 23.85776000 -17.15228000 / 0.00000000 0.00000000 1.00000000 / 42 141 11 255 / 1.75549400 8.90685300 / 0.45393090 -0.89103690 0.00000000 1.00000000
				-11.83680000 14.85786000 -17.59879000 / 0.48465480 -0.87470560 0.00000000 / 42 141 11 255 / 8.74478500 10.30904000 / 1.00000000 0.00000000 0.00000000 1.00000000
				-11.83680000 14.85786000 -17.59879000 / 0.48465480 -0.87470560 0.00000000 / 42 141 11 255 / 8.74478500 10.30904000 / 1.00000000 0.00000000 0.00000000 1.00000000
				3.68197000 14.84005000 -17.15228000 / 0.00000000 0.00000000 1.00000000 / 42 141 11 255 / 14.13126000 0.20724960 / 0.45222230 -0.89190520 0.00000000 1.00000000
				-11.11029000 15.26040000 -17.59879000 / 0.48465480 -0.87470560 0.00000000 / 42 141 11 255 / 8.72280600 9.70339900 / 1.00000000 0.00000000 0.00000000 1.00000000
				-11.11029000 15.26040000 -17.59879000 / 0.48465480 -0.87470560 0.00000000 / 42 141 11 255 / 8.72280600 9.70339900 / 1.00000000 0.00000000 0.00000000 1.00000000
				6.46932600 25.00087000 -17.15228000 / 0.00000000 0.00000000 1.00000000 / 42 141 11 255 / 8.19129800 -4.98018400 / 0.45398700 -0.89100840 0.00000000 1.00000000
				6.46932600 25.00087000 -17.15228000 / 0.00000000 0.00000000 1.00000000 / 42 141 11 255 / 8.19129800 -4.98018400 / 0.45398700 -0.89100840 0.00000000 1.00000000
				-11.11029000 15.26040000 -17.59879000 / 0.48465480 -0.87470560 0.00000000 / 42 141 11 255 / 8.72280600 9.70339900 / 1.00000000 0.00000000 0.00000000 1.00000000
				-10.23173000 15.74719000 -17.59879000 / 0.48465480 -0.87470560 0.00000000 / 42 141 11 255 / 8.69624800 8.97022900 / 1.00000000 0.00000000 0.00000000 1.00000000
				-13.31606000 17.76019000 -17.15229000 / 0.00000000 0.00000000 1.00000000 / 42 141 11 255 / 6.26026500 10.30921000 / 0.45393110 -0.89103670 0.00000000 1.00000000
				-13.31606000 17.76019000 -17.15229000 / 0.00000000 0.00000000 1.00000000 / 42 141 11 255 / 6.26026500 10.30921000 / 0.45416430 -0.89091800 0.00000000 1.00000000
				-14.81000000 20.69133000 -17.15228000 / 0.00000000 0.00000000 1.00000000 / 42 141 11 255 / 3.75108300 10.30968000 / 0.45393110 -0.89103670 0.00000000 1.00000000
				-14.35896000 23.85776000 -17.15228000 / 0.00000000 0.00000000 1.00000000 / 42 141 11 255 / 1.75549400 8.90685300 / 0.45259350 -0.89171700 0.00000000 1.00000000
				2.98436800 16.24457000 -17.15228000 / 0.00000000 0.00000000 1.00000000 / 42 141 11 255 / 12.93517000 0.19777700 / 0.45222230 -0.89190520 0.00000000 1.00000000
				-13.31606000 17.76019000 -17.15229000 / 0.00000000 0.00000000 1.00000000 / 42 141 11 255 / 6.26026500 10.30921000 / 0.45416550 -0.89091740 0.00000000 1.00000000
				-16.86609000 25.06609000 -17.15228000 / 0.00000000 0.00000000 1.00000000 / 42 141 11 255 / 0.06625370 10.19223000 / 0.45398810 -0.89100780 0.00000000 1.00000000
				-16.86609000 25.06609000 -17.15228000 / 0.00000000 0.00000000 1.00000000 / 42 141 11 255 / 0.06625370 10.19223000 / 0.45398710 -0.89100840 0.00000000 1.00000000
				-16.86609000 25.06609000 -17.15228000 / 0.00000000 0.00000000 1.00000000 / 42 141 11 255 / 0.06625370 10.19223000 / 0.45398800 -0.89100780 0.00000000 1.00000000
				-16.86609000 25.06609000 -17.15228000 / 0.00000000 0.00000000 1.00000000 / 42 141 11 255 / 0.06625370 10.19223000 / 0.45398660 -0.89100850 0.00000000 1.00000000
				-16.86609000 25.06609000 -17.15228000 / 0.00000000 0.00000000 1.00000000 / 42 141 11 255 / 0.06625370 10.19223000 / 0.45398670 -0.89100840 0.00000000 1.00000000
				-5.76500800 30.71747000 -17.15228000 / 0.00000000 0.00000000 1.00000000 / 42 141 11 255 / 0.06962580 0.69169620 / 0.45404680 -0.89097790 0.00000000 1.00000000
				-16.86609000 25.06609000 -17.15228000 / 0.00000000 0.00000000 1.00000000 / 42 141 11 255 / 0.06625370 10.19223000 / 0.45399710 -0.89100310 0.00000000 1.00000000
				-13.97790000 26.53290000 -17.15228000 / 0.00000000 0.00000000 1.00000000 / 42 141 11 255 / 0.06953430 7.72168000 / 0.45398890 -0.89100740 0.00000000 1.00000000
				-13.97790000 26.53290000 -17.15228000 / 0.00000000 0.00000000 1.00000000 / 42 141 11 255 / 0.06953430 7.72168000 / 0.45399890 -0.89100220 0.00000000 1.00000000
				2.98436800 16.24457000 -17.15228000 / 0.00000000 0.00000000 1.00000000 / 42 141 11 255 / 12.93517000 0.19777700 / 0.45222230 -0.89190520 0.00000000 1.00000000
				-13.97790000 26.53290000 -17.15228000 / 0.00000000 0.00000000 1.00000000 / 42 141 11 255 / 0.06953430 7.72168000 / 0.45392960 -0.89103760 0.00000000 1.00000000
				-13.97790000 26.53290000 -17.15228000 / 0.00000000 0.00000000 1.00000000 / 42 141 11 255 / 0.06953430 7.72168000 / 0.45393060 -0.89103700 0.00000000 1.00000000
				-13.97790000 26.53290000 -17.15228000 / 0.00000000 0.00000000 1.00000000 / 42 141 11 255 / 0.06953430 7.72168000 / 0.45392940 -0.89103760 0.00000000 1.00000000
				-14.35896000 23.85776000 -17.15228000 / 0.00000000 0.00000000 1.00000000 / 42 141 11 255 / 1.75549400 8.90685300 / 0.45393090 -0.89103690 0.00000000 1.00000000
				-14.35896000 23.85776000 -17.15228000 / 0.00000000 0.00000000 1.00000000 / 42 141 11 255 / 1.75549400 8.90685300 / 0.45393040 -0.89103720 0.00000000 1.00000000
				-14.81000000 20.69133000 -17.15228000 / 0.00000000 0.00000000 1.00000000 / 42 141 11 255 / 3.75108300 10.30968000 / 0.45393090 -0.89103690 0.00000000 1.00000000
				-13.97790000 26.53290000 -17.15228000 / 0.00000000 0.00000000 1.00000000 / 42 141 11 255 / 0.06953430 7.72168000 / 0.45262570 -0.89170060 0.00000000 1.00000000
				-16.89643000 24.78496000 -17.15228000 / 0.00000000 0.00000000 1.00000000 / 42 141 11 255 / 0.24679580 10.31019000 / 0.45399710 -0.89100310 0.00000000 1.00000000
				-16.89643000 24.78496000 -17.15228000 / 0.00000000 0.00000000 1.00000000 / 42 141 11 255 / 0.24679580 10.31019000 / 0.45398660 -0.89100850 0.00000000 1.00000000
				-16.98539000 24.95950000 -17.15228000 / 0.00000000 0.00000000 1.00000000 / 42 141 11 255 / 0.09737720 10.31021000 / 0.45399710 -0.89100310 0.00000000 1.00000000
				3.70473400 14.79422000 -17.15228000 / 0.00000000 0.00000000 1.00000000 / 42 141 11 255 / 14.17026000 0.20761560 / 0.45350580 -0.89125330 0.00000000 1.00000000
				-13.01670000 17.17284000 -17.15228000 / 0.00000000 0.00000000 1.00000000 / 42 141 11 255 / 6.76302600 10.30925000 / 0.45416430 -0.89091800 0.00000000 1.00000000
				-5.76500800 30.71747000 -17.15228000 / 0.00000000 0.00000000 1.00000000 / 42 141 11 255 / 0.06962580 0.69169620 / 0.45416700 -0.89091660 0.00000000 1.00000000
				-13.01670000 17.17284000 -17.15228000 / 0.00000000 0.00000000 1.00000000 / 42 141 11 255 / 6.76302600 10.30925000 / 0.45404550 -0.89097850 0.00000000 1.00000000
				-12.17505000 15.52150000 -17.15228000 / 0.00000000 0.00000000 1.00000000 / 42 141 11 255 / 8.17667400 10.30916000 / 0.45391420 -0.89104540 0.00000000 1.00000000
				-12.17505000 15.52150000 -17.15228000 / 0.00000000 0.00000000 1.00000000 / 42 141 11 255 / 8.17667400 10.30916000 / 0.45404550 -0.89097850 0.00000000 1.00000000
				-10.23173000 15.74720000 -17.15228000 / 0.00000000 0.00000000 1.00000000 / 42 141 11 255 / 8.69624800 8.97022900 / 0.45220790 -0.89191260 0.00000000 1.00000000
				-12.17505000 15.52150000 -17.15228000 / 0.00000000 0.00000000 1.00000000 / 42 141 11 255 / 8.17667400 10.30916000 / 0.45404550 -0.89097850 0.00000000 1.00000000
				-14.81000000 20.69133000 -17.15228000 / 0.00000000 0.00000000 1.00000000 / 42 141 11 255 / 3.75108300 10.30968000 / 0.45259350 -0.89171700 0.00000000 1.00000000
				-7.63463900 6.61312500 -17.15228000 / 0.00000000 0.00000000 1.00000000 / 42 141 11 255 / 15.80272000 10.30827000 / 0.45402620 -0.89098830 0.00000000 1.00000000
				6.11217100 24.80297000 -17.15228000 / 0.00000000 0.00000000 1.00000000 / 42 141 11 255 / 8.20218200 -4.66901600 / 0.45220560 -0.89191380 0.00000000 1.00000000
				3.70473400 14.79422000 -17.15228000 / 0.00000000 0.00000000 1.00000000 / 42 141 11 255 / 14.17026000 0.20761560 / 0.45357590 -0.89121760 0.00000000 1.00000000
				6.11217100 24.80297000 -17.15228000 / 0.00000000 0.00000000 1.00000000 / 42 141 11 255 / 8.20218200 -4.66901600 / 0.45220390 -0.89191450 0.00000000 1.00000000
				6.11217100 24.80297000 -17.15228000 / 0.00000000 0.00000000 1.00000000 / 42 141 11 255 / 8.20218200 -4.66901600 / 0.45398710 -0.89100840 0.00000000 1.00000000
				6.11217100 24.80297000 -17.15228000 / 0.00000000 0.00000000 1.00000000 / 42 141 11 255 / 8.20218200 -4.66901600 / 0.45222320 -0.89190480 0.00000000 1.00000000
				6.11217100 24.80297000 -17.15228000 / 0.00000000 0.00000000 1.00000000 / 42 141 11 255 / 8.20218200 -4.66901600 / 0.45310600 -0.89145670 0.00000000 1.00000000
				-5.76500800 30.71747000 -17.15228000 / 0.00000000 0.00000000 1.00000000 / 42 141 11 255 / 0.06962580 0.69169620 / 0.59051730 -0.80702500 0.00000000 1.00000000
				-5.76500800 30.71747000 -17.15228000 / 0.00000000 0.00000000 1.00000000 / 42 141 11 255 / 0.06962580 0.69169620 / 0.64613760 -0.76322100 0.00000000 1.00000000
				-5.76500800 30.71747000 -17.15228000 / 0.00000000 0.00000000 1.00000000 / 42 141 11 255 / 0.06962580 0.69169620 / 0.49759370 -0.86741020 0.00000000 1.00000000
				-14.84408000 20.75819000 -17.15228000 / 0.00000000 0.00000000 1.00000000 / 42 141 11 255 / 3.69384100 10.30978000 / 0.45400090 -0.89100120 0.00000000 1.00000000
				-11.83681000 14.85786000 -17.15228000 / 0.00000000 0.00000000 1.00000000 / 42 141 11 255 / 8.74478500 10.30904000 / 0.45390950 -0.89104780 0.00000000 1.00000000
				-11.83681000 14.85786000 -17.15228000 / 0.00000000 0.00000000 1.00000000 / 42 141 11 255 / 8.74478500 10.30904000 / 0.49848430 -0.86689870 0.00000000 1.00000000
				3.70473400 14.79422000 -17.15228000 / 0.00000000 0.00000000 1.00000000 / 42 141 11 255 / 14.17026000 0.20761560 / 0.45358460 -0.89121320 0.00000000 1.00000000
				-14.81000000 20.69133000 -17.15228000 / 0.00000000 0.00000000 1.00000000 / 42 141 11 255 / 3.75108300 10.30968000 / 0.45259800 -0.89171460 0.00000000 1.00000000
				-8.15125100 29.50165000 -17.15228000 / 0.00000000 0.00000000 1.00000000 / 42 141 11 255 / 0.06968690 2.73393300 / 0.45416640 -0.89091690 0.00000000 1.00000000
				-8.15125100 29.50165000 -17.15228000 / 0.00000000 0.00000000 1.00000000 / 42 141 11 255 / 0.06968690 2.73393300 / 0.45416700 -0.89091660 0.00000000 1.00000000
				-11.83681000 14.85786000 -17.15228000 / 0.00000000 0.00000000 1.00000000 / 42 141 11 255 / 8.74478500 10.30904000 / 0.45391420 -0.89104540 0.00000000 1.00000000
				-11.83681000 14.85786000 -17.15228000 / 0.48465480 -0.87470560 0.00000000 / 42 141 11 255 / 8.74478500 10.30904000 / 1.00000000 0.00000000 0.00000000 1.00000000
				-3.75993200 12.50771000 -17.15228000 / 0.00000000 0.00000000 1.00000000 / 42 141 11 255 / 13.13905000 5.82831900 / 0.45222230 -0.89190520 0.00000000 1.00000000
				-3.75993200 12.50771000 -17.15228000 / 0.00000000 0.00000000 1.00000000 / 42 141 11 255 / 13.13905000 5.82831900 / 0.45358460 -0.89121320 0.00000000 1.00000000
				-3.75993200 12.50771000 -17.15228000 / 0.00000000 0.00000000 1.00000000 / 42 141 11 255 / 13.13905000 5.82831900 / 0.45357360 -0.89121880 0.00000000 1.00000000
				-3.75993200 12.50771000 -17.15228000 / 0.00000000 0.00000000 1.00000000 / 42 141 11 255 / 13.13905000 5.82831900 / 0.45222300 -0.89190490 0.00000000 1.00000000
				-3.75993200 12.50771000 -17.15228000 / 0.00000000 0.00000000 1.00000000 / 42 141 11 255 / 13.13905000 5.82831900 / 0.45310600 -0.89145670 0.00000000 1.00000000
				3.70473400 14.79422000 -17.15228000 / 0.00000000 0.00000000 1.00000000 / 42 141 11 255 / 14.17026000 0.20761560 / 0.45357360 -0.89121880 0.00000000 1.00000000
				-14.84408000 20.75819000 -17.15228000 / 0.00000000 0.00000000 1.00000000 / 42 141 11 255 / 3.69384100 10.30978000 / 0.45400050 -0.89100140 0.00000000 1.00000000
				-3.75993200 12.50771000 -17.15228000 / 0.00000000 0.00000000 1.00000000 / 42 141 11 255 / 13.13905000 5.82831900 / 0.45356750 -0.89122190 0.00000000 1.00000000
				-3.75993200 12.50771000 -17.15228000 / 0.00000000 0.00000000 1.00000000 / 42 141 11 255 / 13.13905000 5.82831900 / 0.45358430 -0.89121340 0.00000000 1.00000000
				9.06161100 19.61184000 -17.15228000 / 0.00000000 0.00000000 1.00000000 / 42 141 11 255 / 12.75146000 -4.87586700 / 0.45398710 -0.89100840 0.00000000 1.00000000
				-6.04530100 7.52028900 -17.15228000 / 0.00000000 0.00000000 1.00000000 / 42 141 11 255 / 15.73667000 8.97203900 / 0.45402610 -0.89098830 0.00000000 1.00000000
				9.06161100 19.61184000 -17.15228000 / 0.00000000 0.00000000 1.00000000 / 42 141 11 255 / 12.75146000 -4.87586700 / 0.45398710 -0.89100840 0.00000000 1.00000000
				-8.15125100 29.50165000 -17.15228000 / 0.00000000 0.00000000 1.00000000 / 42 141 11 255 / 0.06968690 2.73393300 / 0.45416650 -0.89091680 0.00000000 1.00000000
				9.06161100 19.61184000 -17.15228000 / 0.00000000 0.00000000 1.00000000 / 42 141 11 255 / 12.75146000 -4.87586700 / 0.45222280 -0.89190500 0.00000000 1.00000000
				9.06161100 19.61184000 -17.15228000 / 0.00000000 0.00000000 1.00000000 / 42 141 11 255 / 12.75146000 -4.87586700 / 0.45222280 -0.89190500 0.00000000 1.00000000
				9.06161100 19.61184000 -17.15228000 / 0.00000000 0.00000000 1.00000000 / 42 141 11 255 / 12.75146000 -4.87586700 / 0.45398700 -0.89100840 0.00000000 1.00000000
				3.68197100 14.84005000 -17.15228000 / 0.00000000 0.00000000 1.00000000 / 42 141 11 255 / 14.13126000 0.20724940 / 0.45357590 -0.89121760 0.00000000 1.00000000
				9.06161100 19.61184000 -17.15228000 / 0.00000000 0.00000000 1.00000000 / 42 141 11 255 / 12.75146000 -4.87586700 / 0.45222320 -0.89190480 0.00000000 1.00000000
				9.06161100 19.61184000 -17.15228000 / 0.00000000 0.00000000 1.00000000 / 42 141 11 255 / 12.75146000 -4.87586700 / 0.45222310 -0.89190480 0.00000000 1.00000000
				9.18138800 19.67820000 -17.15228000 / 0.00000000 0.00000000 1.00000000 / 42 141 11 255 / 12.74781000 -4.98022100 / 0.45398710 -0.89100840 0.00000000 1.00000000
				-14.84408000 20.75819000 -17.15228000 / 0.00000000 0.00000000 1.00000000 / 42 141 11 255 / 3.69384100 10.30978000 / 0.45259800 -0.89171460 0.00000000 1.00000000
				9.18138800 19.67820000 -17.15228000 / 0.00000000 0.00000000 1.00000000 / 42 141 11 255 / 12.74781000 -4.98022100 / 0.45398700 -0.89100840 0.00000000 1.00000000
				-15.46132000 21.96923000 -17.15228000 / 0.00000000 0.00000000 1.00000000 / 42 141 11 255 / 2.65717300 10.30989000 / 0.45398790 -0.89100780 0.00000000 1.00000000
				-15.46132000 21.96923000 -17.15228000 / 0.00000000 0.00000000 1.00000000 / 42 141 11 255 / 2.65717300 10.30989000 / 0.45398740 -0.89100810 0.00000000 1.00000000
				-15.46132000 21.96923000 -17.15228000 / 0.00000000 0.00000000 1.00000000 / 42 141 11 255 / 2.65717300 10.30989000 / 0.45400090 -0.89100120 0.00000000 1.00000000
				-6.04530100 7.52028900 -17.15228000 / 0.00000000 0.00000000 1.00000000 / 42 141 11 255 / 15.73667000 8.97203900 / 0.45402620 -0.89098830 0.00000000 1.00000000
				-4.23527400 12.24434000 -17.15228000 / 0.00000000 0.00000000 1.00000000 / 42 141 11 255 / 13.15335000 6.22528600 / 0.45358460 -0.89121320 0.00000000 1.00000000
				-14.65704000 24.44354000 -17.15228000 / 0.00000000 0.00000000 1.00000000 / 42 141 11 255 / 1.25421900 8.90662700 / 0.45398790 -0.89100780 0.00000000 1.00000000
				3.68197100 14.84005000 -17.15228000 / 0.00000000 0.00000000 1.00000000 / 42 141 11 255 / 14.13126000 0.20724940 / 0.45357360 -0.89121880 0.00000000 1.00000000
				-4.23527400 12.24434000 -17.15228000 / 0.00000000 0.00000000 1.00000000 / 42 141 11 255 / 13.15335000 6.22528600 / 0.45402710 -0.89098790 0.00000000 1.00000000
				6.11217100 24.80297000 -17.15228000 / 0.00000000 0.00000000 1.00000000 / 42 141 11 255 / 8.20218200 -4.66901600 / 0.45398700 -0.89100840 0.00000000 1.00000000
				-4.23527400 12.24434000 -17.15228000 / 0.00000000 0.00000000 1.00000000 / 42 141 11 255 / 13.15335000 6.22528600 / 0.45358430 -0.89121340 0.00000000 1.00000000
				-4.23527400 12.24434000 -17.15228000 / 0.00000000 0.00000000 1.00000000 / 42 141 11 255 / 13.15335000 6.22528600 / 0.45357460 -0.89121830 0.00000000 1.00000000
				-11.11029000 15.26041000 -17.15228000 / 0.00000000 0.00000000 1.00000000 / 42 141 11 255 / 8.72280600 9.70339900 / 0.45220800 -0.89191250 0.00000000 1.00000000
				-4.23527400 12.24434000 -17.15228000 / 0.00000000 0.00000000 1.00000000 / 42 141 11 255 / 13.15335000 6.22528600 / 0.45402610 -0.89098840 0.00000000 1.00000000
				-4.23527400 12.24434000 -17.15228000 / 0.00000000 0.00000000 1.00000000 / 42 141 11 255 / 13.15335000 6.22528600 / 0.45402590 -0.89098860 0.00000000 1.00000000
				-4.23527400 12.24434000 -17.15228000 / 0.00000000 0.00000000 1.00000000 / 42 141 11 255 / 13.15335000 6.22528600 / 0.45402610 -0.89098840 0.00000000 1.00000000
				-9.12413000 9.53553700 -17.15228000 / 0.00000000 0.00000000 1.00000000 / 42 141 11 255 / 13.30104000 10.30846000 / 0.45402610 -0.89098830 0.00000000 1.00000000
				-9.12413000 9.53553700 -17.15228000 / 0.00000000 0.00000000 1.00000000 / 42 141 11 255 / 13.30104000 10.30846000 / 0.45402620 -0.89098830 0.00000000 1.00000000
				2.98436700 16.24457000 -17.15228000 / 0.00000000 0.00000000 1.00000000 / 42 141 11 255 / 12.93517000 0.19777750 / 0.45222310 -0.89190490 0.00000000 1.00000000
				-9.12413000 9.53553700 -17.15228000 / -0.48465480 0.87470560 0.00000000 / 42 141 11 255 / 13.30104000 10.30846000 / 1.00000000 0.00000000 0.00000000 1.00000000
				-11.96080000 19.14505000 -17.15228000 / 0.00000000 0.00000000 1.00000000 / 42 141 11 255 / 5.78841500 8.90885600 / 0.45404550 -0.89097850 0.00000000 1.00000000
				-11.96080000 19.14505000 -17.15228000 / 0.00000000 0.00000000 1.00000000 / 42 141 11 255 / 5.78841500 8.90885600 / 0.45404180 -0.89098050 0.00000000 1.00000000
				-9.12413000 9.53553700 -17.15228000 / -0.48465480 0.87470560 0.00000000 / 42 141 11 255 / 13.30104000 10.30846000 / 1.00000000 0.00000000 0.00000000 1.00000000
				-11.96080000 19.14505000 -17.15228000 / 0.00000000 0.00000000 1.00000000 / 42 141 11 255 / 5.78841500 8.90885600 / 0.45416430 -0.89091800 0.00000000 1.00000000
				-11.96080000 19.14505000 -17.15228000 / 0.00000000 0.00000000 1.00000000 / 42 141 11 255 / 5.78841500 8.90885600 / 0.45416550 -0.89091740 0.00000000 1.00000000
				-11.96080000 19.14505000 -17.15228000 / 0.00000000 0.00000000 1.00000000 / 42 141 11 255 / 5.78841500 8.90885600 / 0.45404550 -0.89097850 0.00000000 1.00000000
				-11.96080000 19.14505000 -17.15228000 / 0.00000000 0.00000000 1.00000000 / 42 141 11 255 / 5.78841500 8.90885600 / 0.45404550 -0.89097850 0.00000000 1.00000000
				-11.96080000 19.14505000 -17.15228000 / 0.00000000 0.00000000 1.00000000 / 42 141 11 255 / 5.78841500 8.90885600 / 0.45416720 -0.89091650 0.00000000 1.00000000
				6.46932600 25.00087000 -17.15228000 / 0.00000000 0.00000000 1.00000000 / 42 141 11 255 / 8.19129800 -4.98018400 / 0.45398710 -0.89100840 0.00000000 1.00000000
				2.98436700 16.24457000 -17.15228000 / 0.00000000 0.00000000 1.00000000 / 42 141 11 255 / 12.93517000 0.19777750 / 0.45222300 -0.89190490 0.00000000 1.00000000
				-11.96080000 19.14505000 -17.15228000 / 0.00000000 0.00000000 1.00000000 / 42 141 11 255 / 5.78841500 8.90885600 / 0.45416560 -0.89091730 0.00000000 1.00000000
				-11.24221000 17.73293000 -17.15228000 / 0.00000000 0.00000000 1.00000000 / 42 141 11 255 / 6.99687800 8.90955900 / 0.45404550 -0.89097850 0.00000000 1.00000000
				-11.24221000 17.73293000 -17.15228000 / 0.00000000 0.00000000 1.00000000 / 42 141 11 255 / 6.99687800 8.90955900 / 0.49759050 -0.86741210 0.00000000 1.00000000
				-11.24221000 17.73293000 -17.15228000 / 0.00000000 0.00000000 1.00000000 / 42 141 11 255 / 6.99687800 8.90955900 / 0.49759320 -0.86741050 0.00000000 1.00000000
				-11.11029000 15.26041000 -17.15228000 / 0.48465480 -0.87470560 0.00000000 / 42 141 11 255 / 8.72280600 9.70339900 / 1.00000000 0.00000000 0.00000000 1.00000000
				-14.65704000 24.44354000 -17.15228000 / 0.00000000 0.00000000 1.00000000 / 42 141 11 255 / 1.25421900 8.90662700 / 0.45400090 -0.89100120 0.00000000 1.00000000
				-11.24221000 17.73293000 -17.15228000 / 0.00000000 0.00000000 1.00000000 / 42 141 11 255 / 6.99687800 8.90955900 / 0.49848430 -0.86689870 0.00000000 1.00000000
				-11.24221000 17.73293000 -17.15228000 / 0.00000000 0.00000000 1.00000000 / 42 141 11 255 / 6.99687800 8.90955900 / 0.45391420 -0.89104540 0.00000000 1.00000000
				-11.24221000 17.73293000 -17.15228000 / 0.00000000 0.00000000 1.00000000 / 42 141 11 255 / 6.99687800 8.90955900 / 0.45404550 -0.89097850 0.00000000 1.00000000
				-7.91982300 11.20398000 -17.15228000 / 0.00000000 0.00000000 1.00000000 / 42 141 11 255 / 12.58442000 8.97039800 / 0.45356750 -0.89122190 0.00000000 1.00000000
				-7.52241200 10.42301000 -17.15228000 / 0.00000000 0.00000000 1.00000000 / 42 141 11 255 / 13.25266000 8.97070600 / 0.45402610 -0.89098830 0.00000000 1.00000000
				-7.91982300 11.20398000 -17.15228000 / 0.00000000 0.00000000 1.00000000 / 42 141 11 255 / 12.58442000 8.97039800 / 0.45358430 -0.89121340 0.00000000 1.00000000
				-7.91982300 11.20398000 -17.15228000 / 0.00000000 0.00000000 1.00000000 / 42 141 11 255 / 12.58442000 8.97039800 / 0.45357460 -0.89121830 0.00000000 1.00000000
				-10.23173000 15.74720000 -17.15228000 / 0.00000000 0.00000000 1.00000000 / 42 141 11 255 / 8.69624800 8.97022900 / 0.45310600 -0.89145670 0.00000000 1.00000000
				-10.23173000 15.74720000 -17.15228000 / 0.00000000 0.00000000 1.00000000 / 42 141 11 255 / 8.69624800 8.97022900 / 0.45310620 -0.89145650 0.00000000 1.00000000
				-10.48513000 16.24515000 -17.15228000 / 0.00000000 0.00000000 1.00000000 / 42 141 11 255 / 8.27008800 8.97083400 / 0.45390950 -0.89104780 0.00000000 1.00000000
				-10.48513000 16.24515000 -17.15228000 / 0.00000000 0.00000000 1.00000000 / 42 141 11 255 / 8.27008800 8.97083400 / 0.49848430 -0.86689870 0.00000000 1.00000000
				-10.48513000 16.24515000 -17.15228000 / 0.00000000 0.00000000 1.00000000 / 42 141 11 255 / 8.27008800 8.97083400 / 0.45220570 -0.89191370 0.00000000 1.00000000
				-14.65704000 24.44354000 -17.15228000 / 0.00000000 0.00000000 1.00000000 / 42 141 11 255 / 1.25421900 8.90662700 / 0.45400050 -0.89100140 0.00000000 1.00000000
				-10.48513000 16.24515000 -17.15228000 / 0.00000000 0.00000000 1.00000000 / 42 141 11 255 / 8.27008800 8.97083400 / 0.45220790 -0.89191260 0.00000000 1.00000000
				-10.48513000 16.24515000 -17.15228000 / 0.00000000 0.00000000 1.00000000 / 42 141 11 255 / 8.27008800 8.97083400 / 0.45220950 -0.89191170 0.00000000 1.00000000
				-15.36244000 25.82974000 -17.15228000 / 0.00000000 0.00000000 1.00000000 / 42 141 11 255 / 0.06796160 8.90601300 / 0.45398710 -0.89100840 0.00000000 1.00000000
				-11.11029000 15.26041000 -17.15228000 / 0.48465480 -0.87470560 0.00000000 / 42 141 11 255 / 8.72280600 9.70339900 / 1.00000000 0.00000000 0.00000000 1.00000000
				-10.48513000 16.24515000 -17.15228000 / 0.00000000 0.00000000 1.00000000 / 42 141 11 255 / 8.27008800 8.97083400 / 0.57428110 -0.81865820 0.00000000 1.00000000
				-10.48513000 16.24515000 -17.15228000 / 0.00000000 0.00000000 1.00000000 / 42 141 11 255 / 8.27008800 8.97083400 / 0.49759050 -0.86741210 0.00000000 1.00000000
				-10.48513000 16.24515000 -17.15228000 / 0.00000000 0.00000000 1.00000000 / 42 141 11 255 / 8.27008800 8.97083400 / 0.45220800 -0.89191250 0.00000000 1.00000000
				-12.36098000 19.93145000 -17.15229000 / 0.00000000 0.00000000 1.00000000 / 42 141 11 255 / 5.11549100 8.90837400 / 0.45393110 -0.89103670 0.00000000 1.00000000
				-12.36098000 19.93145000 -17.15229000 / 0.00000000 0.00000000 1.00000000 / 42 141 11 255 / 5.11549100 8.90837400 / 0.45393090 -0.89103690 0.00000000 1.00000000
				-10.23173000 15.74720000 -17.15228000 / 0.00000000 0.00000000 1.00000000 / 42 141 11 255 / 8.69624800 8.97022900 / 0.45356750 -0.89122190 0.00000000 1.00000000
				-12.36098000 19.93145000 -17.15229000 / 0.00000000 0.00000000 1.00000000 / 42 141 11 255 / 5.11549100 8.90837400 / 0.45416550 -0.89091740 0.00000000 1.00000000
				-12.36098000 19.93145000 -17.15229000 / 0.00000000 0.00000000 1.00000000 / 42 141 11 255 / 5.11549100 8.90837400 / 0.45393060 -0.89103700 0.00000000 1.00000000
				6.11217100 24.80297000 -17.15228000 / 0.00000000 0.00000000 1.00000000 / 42 141 11 255 / 8.20218200 -4.66901600 / 0.45398690 -0.89100840 0.00000000 1.00000000
				1.55352100 19.12538000 -17.15228000 / 0.00000000 0.00000000 1.00000000 / 42 141 11 255 / 10.48188000 0.17834830 / 0.45222320 -0.89190480 0.00000000 1.00000000
				-12.36098000 19.93145000 -17.15229000 / 0.00000000 0.00000000 1.00000000 / 42 141 11 255 / 5.11549100 8.90837400 / 0.45393090 -0.89103690 0.00000000 1.00000000
				-12.36098000 19.93145000 -17.15229000 / 0.00000000 0.00000000 1.00000000 / 42 141 11 255 / 5.11549100 8.90837400 / 0.45416560 -0.89091730 0.00000000 1.00000000
				-12.36098000 19.93145000 -17.15229000 / 0.00000000 0.00000000 1.00000000 / 42 141 11 255 / 5.11549100 8.90837400 / 0.45417200 -0.89091400 0.00000000 1.00000000
				-7.85731600 11.08114000 -17.15228000 / 0.00000000 0.00000000 1.00000000 / 42 141 11 255 / 12.68946000 8.97040300 / 0.45402710 -0.89098790 0.00000000 1.00000000
				-15.08999000 25.29434000 -17.15228000 / 0.00000000 0.00000000 1.00000000 / 42 141 11 255 / 0.52613550 8.90625000 / 0.45398810 -0.89100780 0.00000000 1.00000000
				-15.08999000 25.29434000 -17.15228000 / 0.00000000 0.00000000 1.00000000 / 42 141 11 255 / 0.52613550 8.90625000 / 0.45398710 -0.89100840 0.00000000 1.00000000
				-15.08999000 25.29434000 -17.15228000 / 0.00000000 0.00000000 1.00000000 / 42 141 11 255 / 0.52613550 8.90625000 / 0.45398800 -0.89100780 0.00000000 1.00000000
				-16.01128000 24.82519000 -17.15228000 / 0.00000000 0.00000000 1.00000000 / 42 141 11 255 / 0.52594670 9.69475500 / 0.45398810 -0.89100780 0.00000000 1.00000000
				-16.01128000 24.82519000 -17.15228000 / 0.00000000 0.00000000 1.00000000 / 42 141 11 255 / 0.52594670 9.69475500 / 0.45398470 -0.89100950 0.00000000 1.00000000
				-16.01128000 24.82519000 -17.15228000 / 0.00000000 0.00000000 1.00000000 / 42 141 11 255 / 0.52594670 9.69475500 / 0.45398800 -0.89100780 0.00000000 1.00000000
				1.55352100 19.12538000 -17.15228000 / 0.00000000 0.00000000 1.00000000 / 42 141 11 255 / 10.48188000 0.17834830 / 0.45222310 -0.89190490 0.00000000 1.00000000
				-16.01128000 24.82519000 -17.15228000 / 0.00000000 0.00000000 1.00000000 / 42 141 11 255 / 0.52594670 9.69475500 / 0.45398800 -0.89100780 0.00000000 1.00000000
				-16.01128000 24.82519000 -17.15228000 / 0.00000000 0.00000000 1.00000000 / 42 141 11 255 / 0.52594670 9.69475500 / 0.45399100 -0.89100630 0.00000000 1.00000000
				-16.01128000 24.82519000 -17.15228000 / 0.00000000 0.00000000 1.00000000 / 42 141 11 255 / 0.52594670 9.69475500 / 0.45398920 -0.89100720 0.00000000 1.00000000
				-16.61692000 24.51678000 -17.15228000 / 0.00000000 0.00000000 1.00000000 / 42 141 10 255 / 0.52582270 10.21310000 / 0.45398800 -0.89100780 0.00000000 1.00000000
				-16.61692000 24.51678000 -17.15228000 / 0.00000000 0.00000000 1.00000000 / 42 141 10 255 / 0.52582270 10.21310000 / 0.45399100 -0.89100630 0.00000000 1.00000000
				-16.73032000 24.45903000 -17.15228000 / 0.00000000 0.00000000 1.00000000 / 42 141 10 255 / 0.52580240 10.31016000 / 0.45398570 -0.89100900 0.00000000 1.00000000
				-16.73032000 24.45903000 -17.15228000 / 0.00000000 0.00000000 1.00000000 / 42 141 10 255 / 0.52580240 10.31016000 / 0.45398810 -0.89100770 0.00000000 1.00000000
				-16.73032000 24.45903000 -17.15228000 / 0.00000000 0.00000000 1.00000000 / 42 141 10 255 / 0.52580240 10.31016000 / 0.45398660 -0.89100850 0.00000000 1.00000000
				-16.73032000 24.45903000 -17.15228000 / 0.00000000 0.00000000 1.00000000 / 42 141 10 255 / 0.52580240 10.31016000 / 0.45398670 -0.89100840 0.00000000 1.00000000
				-10.23173000 15.74720000 -17.15228000 / 0.00000000 0.00000000 1.00000000 / 42 141 11 255 / 8.69624800 8.97022900 / 0.45220800 -0.89191250 0.00000000 1.00000000
				1.55352100 19.12538000 -17.15228000 / 0.00000000 0.00000000 1.00000000 / 42 141 11 255 / 10.48188000 0.17834830 / 0.45222300 -0.89190490 0.00000000 1.00000000
				-14.65704000 24.44354000 -17.15228000 / 0.00000000 0.00000000 1.00000000 / 42 141 11 255 / 1.25421900 8.90662700 / 0.45398810 -0.89100780 0.00000000 1.00000000
				-16.61692000 24.51678000 -17.15228000 / 0.00000000 0.00000000 1.00000000 / 42 141 11 255 / 0.52582280 10.21310000 / 0.45398810 -0.89100770 0.00000000 1.00000000
				-16.61692000 24.51678000 -17.15228000 / 0.00000000 0.00000000 1.00000000 / 42 141 11 255 / 0.52582280 10.21310000 / 0.45398670 -0.89100840 0.00000000 1.00000000
				-14.08707000 25.80506000 -17.15228000 / 0.00000000 0.00000000 1.00000000 / 41 141 10 255 / 0.52633520 8.04787900 / 0.45262570 -0.89170060 0.00000000 1.00000000
				-14.08707000 25.80506000 -17.15228000 / 0.00000000 0.00000000 1.00000000 / 41 141 10 255 / 0.52633520 8.04787900 / 0.45261830 -0.89170440 0.00000000 1.00000000
				-14.08707000 25.80506000 -17.15228000 / 0.00000000 0.00000000 1.00000000 / 41 141 10 255 / 0.52633520 8.04787900 / 0.45262630 -0.89170040 0.00000000 1.00000000
				-14.08115000 25.80808000 -17.15228000 / 0.00000000 0.00000000 1.00000000 / 42 141 11 255 / 0.52633740 8.04279700 / 0.45262570 -0.89170060 0.00000000 1.00000000
				-14.08115000 25.80808000 -17.15228000 / 0.00000000 0.00000000 1.00000000 / 42 141 11 255 / 0.52633740 8.04279700 / 0.45262630 -0.89170040 0.00000000 1.00000000
				-6.26152100 29.79009000 -17.15228000 / 0.00000000 0.00000000 1.00000000 / 42 141 11 255 / 0.52791430 1.35019800 / 0.45404680 -0.89097790 0.00000000 1.00000000
				-6.26152100 29.79009000 -17.15228000 / 0.00000000 0.00000000 1.00000000 / 42 141 11 255 / 0.52791430 1.35019800 / 0.45404230 -0.89098010 0.00000000 1.00000000
				1.55352100 19.12538000 -17.15228000 / 0.00000000 0.00000000 1.00000000 / 42 141 11 255 / 10.48188000 0.17834830 / 0.45310600 -0.89145670 0.00000000 1.00000000
				-6.26152100 29.79009000 -17.15228000 / 0.00000000 0.00000000 1.00000000 / 42 141 11 255 / 0.52791430 1.35019800 / 0.45404590 -0.89097830 0.00000000 1.00000000
				-6.12738900 29.85839000 -17.15228000 / 0.00000000 0.00000000 1.00000000 / 42 141 11 255 / 0.52794410 1.23540400 / 0.45404680 -0.89097790 0.00000000 1.00000000
				-6.12738900 29.85839000 -17.15228000 / 0.00000000 0.00000000 1.00000000 / 42 141 11 255 / 0.52794410 1.23540400 / 0.45404590 -0.89097830 0.00000000 1.00000000
				-14.65704000 24.44354000 -17.15228000 / 0.00000000 0.00000000 1.00000000 / 42 141 11 255 / 1.25421900 8.90662700 / 0.45399590 -0.89100370 0.00000000 1.00000000
				-14.65704000 24.44354000 -17.15228000 / 0.00000000 0.00000000 1.00000000 / 42 141 11 255 / 1.25421900 8.90662700 / 0.45400070 -0.89100130 0.00000000 1.00000000
				0.06565150 33.33132000 -17.15228000 / 0.00000070 0.00000000 1.00000000 / 42 141 11 255 / 0.52938880 -3.55476600 / 0.46245680 -0.88664190 -0.00000030 1.00000000
				0.06565150 33.33132000 -17.15228000 / 0.00000070 0.00000000 1.00000000 / 42 141 11 255 / 0.52938880 -3.55476600 / 0.46244800 -0.88664640 -0.00000030 1.00000000
				0.06565150 33.33132000 -17.15228000 / 0.00000070 0.00000000 1.00000000 / 42 141 11 255 / 0.52938880 -3.55476600 / 0.45216690 -0.89193340 -0.00000030 1.00000000
				-14.23976000 25.72731000 -17.15228000 / 0.00000000 0.00000000 1.00000000 / 42 141 11 255 / 0.52630870 8.17855600 / 0.45398830 -0.89100770 0.00000000 1.00000000
				-14.23976000 25.72731000 -17.15228000 / 0.00000000 0.00000000 1.00000000 / 42 141 11 255 / 0.52630870 8.17855600 / 0.45398890 -0.89100740 0.00000000 1.00000000
				1.55352100 19.12538000 -17.15228000 / 0.00000000 0.00000000 1.00000000 / 42 141 11 255 / 10.48188000 0.17834830 / 0.45310610 -0.89145660 0.00000000 1.00000000
				-14.23976000 25.72731000 -17.15228000 / 0.00000000 0.00000000 1.00000000 / 42 141 11 255 / 0.52630870 8.17855600 / 0.45398930 -0.89100710 0.00000000 1.00000000
				-15.08999000 25.29434000 -17.15228000 / 0.00000000 0.00000000 1.00000000 / 42 141 11 255 / 0.52613540 8.90625000 / 0.45398830 -0.89100770 0.00000000 1.00000000
				-15.08999000 25.29434000 -17.15228000 / 0.00000000 0.00000000 1.00000000 / 42 141 11 255 / 0.52613540 8.90625000 / 0.45398860 -0.89100750 0.00000000 1.00000000
				-15.08999000 25.29434000 -17.15228000 / 0.00000000 0.00000000 1.00000000 / 42 141 11 255 / 0.52613540 8.90625000 / 0.45398930 -0.89100710 0.00000000 1.00000000
				-14.08707000 25.80506000 -17.15228000 / 0.00000000 0.00000000 1.00000000 / 42 141 10 255 / 0.52633520 8.04787900 / 0.45399890 -0.89100220 0.00000000 1.00000000
				-14.08707000 25.80506000 -17.15228000 / 0.00000000 0.00000000 1.00000000 / 42 141 10 255 / 0.52633520 8.04787900 / 0.45399820 -0.89100260 0.00000000 1.00000000
				-14.23976000 25.72731000 -17.15228000 / 0.00000000 0.00000000 1.00000000 / 42 141 11 255 / 0.52630870 8.17855600 / 0.45399890 -0.89100220 0.00000000 1.00000000
				-14.23976000 25.72731000 -17.15228000 / 0.00000000 0.00000000 1.00000000 / 42 141 11 255 / 0.52630870 8.17855600 / 0.45399820 -0.89100260 0.00000000 1.00000000
				-14.23976000 25.72731000 -17.15228000 / 0.00000000 0.00000000 1.00000000 / 42 141 11 255 / 0.52630870 8.17855600 / 0.45399770 -0.89100280 0.00000000 1.00000000
				-10.23173000 15.74720000 -17.15228000 / 0.48465480 -0.87470560 0.00000000 / 42 141 11 255 / 8.69624800 8.97022900 / 1.00000000 0.00000000 0.00000000 1.00000000
				-10.23173000 15.74720000 -17.15228000 / 0.48465480 -0.87470560 0.00000000 / 42 141 11 255 / 8.69624800 8.97022900 / 1.00000000 0.00000000 0.00000000 1.00000000
				1.55352100 19.12538000 -17.15228000 / 0.00000000 0.00000000 1.00000000 / 42 141 11 255 / 10.48188000 0.17834830 / 0.45310600 -0.89145670 0.00000000 1.00000000
				-8.53323800 28.63326000 -17.15228000 / 0.00000000 0.00000000 1.00000000 / 42 141 11 255 / 0.52753900 3.29419700 / 0.45392960 -0.89103760 0.00000000 1.00000000
				-8.53323800 28.63326000 -17.15228000 / 0.00000000 0.00000000 1.00000000 / 42 141 11 255 / 0.52753900 3.29419700 / 0.45393060 -0.89103700 0.00000000 1.00000000
				-8.53323800 28.63326000 -17.15228000 / 0.00000000 0.00000000 1.00000000 / 42 141 11 255 / 0.52753900 3.29419700 / 0.45392990 -0.89103740 0.00000000 1.00000000
				-13.83150000 25.93520000 -17.15228000 / 0.00000000 0.00000000 1.00000000 / 42 141 11 255 / 0.52639210 7.82912300 / 0.45392960 -0.89103760 0.00000000 1.00000000
				-13.83150000 25.93520000 -17.15228000 / 0.00000000 0.00000000 1.00000000 / 42 141 11 255 / 0.52639210 7.82912300 / 0.45393010 -0.89103730 0.00000000 1.00000000
				-13.83150000 25.93520000 -17.15228000 / 0.00000000 0.00000000 1.00000000 / 42 141 11 255 / 0.52639210 7.82912300 / 0.45392990 -0.89103740 0.00000000 1.00000000
				-14.08115000 25.80808000 -17.15228000 / 0.00000000 0.00000000 1.00000000 / 42 141 11 255 / 0.52633750 8.04279700 / 0.45392940 -0.89103760 0.00000000 1.00000000
				-14.08115000 25.80808000 -17.15228000 / 0.00000000 0.00000000 1.00000000 / 42 141 11 255 / 0.52633750 8.04279700 / 0.45393070 -0.89103700 0.00000000 1.00000000
				-14.08115000 25.80808000 -17.15228000 / 0.00000000 0.00000000 1.00000000 / 42 141 11 255 / 0.52633750 8.04279700 / 0.45393150 -0.89103670 0.00000000 1.00000000
				-14.65704000 24.44354000 -17.15228000 / 0.00000000 0.00000000 1.00000000 / 42 141 11 255 / 1.25421900 8.90662700 / 0.45399050 -0.89100650 0.00000000 1.00000000
				1.55352100 19.12538000 -17.15228000 / 0.00000000 0.00000000 1.00000000 / 42 141 11 255 / 10.48188000 0.17834830 / 0.45310620 -0.89145650 0.00000000 1.00000000
				-13.83150000 25.93520000 -17.15228000 / 0.00000000 0.00000000 1.00000000 / 42 141 11 255 / 0.52639210 7.82912300 / 0.45392940 -0.89103760 0.00000000 1.00000000
				-13.83150000 25.93520000 -17.15228000 / 0.00000000 0.00000000 1.00000000 / 42 141 11 255 / 0.52639210 7.82912300 / 0.45393150 -0.89103670 0.00000000 1.00000000
				-6.26152100 29.79009000 -17.15228000 / 0.00000000 0.00000000 1.00000000 / 42 141 11 255 / 0.52791420 1.35019700 / 0.45416640 -0.89091690 0.00000000 1.00000000
				-6.26152100 29.79009000 -17.15228000 / 0.00000000 0.00000000 1.00000000 / 42 141 11 255 / 0.52791420 1.35019700 / 0.45416700 -0.89091660 0.00000000 1.00000000
				-6.26152100 29.79009000 -17.15228000 / 0.00000000 0.00000000 1.00000000 / 42 141 11 255 / 0.52791420 1.35019700 / 0.45416770 -0.89091620 0.00000000 1.00000000
				-8.45625900 28.67245000 -17.15228000 / 0.00000000 0.00000000 1.00000000 / 41 141 11 255 / 0.52755170 3.22832200 / 0.45416640 -0.89091690 0.00000000 1.00000000
				-8.45625900 28.67245000 -17.15228000 / 0.00000000 0.00000000 1.00000000 / 41 141 11 255 / 0.52755170 3.22832200 / 0.45416830 -0.89091590 0.00000000 1.00000000
				-8.45625900 28.67245000 -17.15228000 / 0.00000000 0.00000000 1.00000000 / 41 141 11 255 / 0.52755170 3.22832200 / 0.45416770 -0.89091620 0.00000000 1.00000000
				-8.53323800 28.63326000 -17.15228000 / 0.00000000 0.00000000 1.00000000 / 42 141 11 255 / 0.52753910 3.29419700 / 0.45416650 -0.89091680 0.00000000 1.00000000
				-8.53323800 28.63326000 -17.15228000 / 0.00000000 0.00000000 1.00000000 / 42 141 11 255 / 0.52753910 3.29419700 / 0.45417190 -0.89091410 0.00000000 1.00000000
				0.32593300 21.59695000 -17.15228000 / 0.00000000 0.00000000 1.00000000 / 41 141 11 255 / 8.37709600 0.15969060 / 0.45310620 -0.89145650 0.00000000 1.00000000
				-8.53323800 28.63326000 -17.15228000 / 0.00000000 0.00000000 1.00000000 / 42 141 11 255 / 0.52753910 3.29419700 / 0.45416820 -0.89091590 0.00000000 1.00000000
				-8.45625900 28.67245000 -17.15228000 / 0.00000000 0.00000000 1.00000000 / 42 141 11 255 / 0.52755180 3.22832300 / 0.45416650 -0.89091680 0.00000000 1.00000000
				-8.45625900 28.67245000 -17.15228000 / 0.00000000 0.00000000 1.00000000 / 42 141 11 255 / 0.52755180 3.22832300 / 0.45416820 -0.89091590 0.00000000 1.00000000
				0.06565150 33.33132000 -17.15228000 / 0.00000070 0.00000000 1.00000000 / 42 141 11 255 / 0.52938870 -3.55476700 / 0.54845300 -0.83618140 -0.00000040 1.00000000
				-6.02882500 29.90859000 -17.15228000 / 0.00000000 0.00000000 1.00000000 / 42 141 11 255 / 0.52796570 1.15443300 / 0.59051730 -0.80702500 0.00000000 1.00000000
				-6.02882500 29.90859000 -17.15228000 / 0.00000000 0.00000000 1.00000000 / 42 141 11 255 / 0.52796570 1.15443300 / 0.57614070 -0.81735050 0.00000000 1.00000000
				-6.02882500 29.90859000 -17.15228000 / 0.00000000 0.00000000 1.00000000 / 42 141 11 255 / 0.52796570 1.15443300 / 0.58619230 -0.81017210 0.00000000 1.00000000
				0.32593300 21.59695000 -17.15228000 / 0.00000000 0.00000000 1.00000000 / 41 141 11 255 / 8.37709600 0.15969060 / 0.45310610 -0.89145660 0.00000000 1.00000000
				-2.92819900 28.14869000 -17.15228000 / 0.00000000 0.00000000 1.00000000 / 42 141 11 255 / 2.79765500 0.11562470 / 0.56633510 -0.82417510 0.00000000 1.00000000
				-2.92819900 28.14869000 -17.15228000 / 0.00000000 0.00000000 1.00000000 / 42 141 11 255 / 2.79765500 0.11562470 / 0.57428110 -0.81865820 0.00000000 1.00000000
				-2.92819900 28.14869000 -17.15228000 / 0.00000000 0.00000000 1.00000000 / 42 141 11 255 / 2.79765500 0.11562470 / 0.56444300 -0.82547210 0.00000000 1.00000000
				-4.51937500 31.35229000 -17.15228000 / 0.00000000 0.00000000 1.00000000 / 42 141 11 255 / 0.06956830 -0.24962570 / 0.64613760 -0.76322100 0.00000000 1.00000000
				4.36599700 13.46286000 -17.15228000 / 0.00000000 0.00000000 1.00000000 / 42 141 11 255 / 15.30395000 0.21879530 / 0.45402670 -0.89098810 0.00000000 1.00000000
				4.36599700 13.46286000 -17.15228000 / 0.00000000 0.00000000 1.00000000 / 42 141 11 255 / 15.30395000 0.21879530 / 0.45402590 -0.89098860 0.00000000 1.00000000
				-6.12738900 29.85839000 -17.15228000 / 0.00000000 0.00000000 1.00000000 / 42 141 11 255 / 0.52794390 1.23540300 / 0.49759370 -0.86741020 0.00000000 1.00000000
				-6.04530100 7.52028900 -17.15228000 / 0.00000000 0.00000000 1.00000000 / 42 141 11 255 / 15.73667000 8.97203900 / 0.45402610 -0.89098840 0.00000000 1.00000000
				4.36599700 13.46286000 -17.15228000 / 0.00000000 0.00000000 1.00000000 / 42 141 11 255 / 15.30395000 0.21879530 / 0.45402610 -0.89098840 0.00000000 1.00000000
				4.36599700 13.46286000 -17.15228000 / 0.00000000 0.00000000 1.00000000 / 42 141 11 255 / 15.30395000 0.21879530 / 0.45402590 -0.89098860 0.00000000 1.00000000
				3.70473400 14.79422000 -17.15228000 / 0.00000000 0.00000000 1.00000000 / 42 141 11 255 / 14.17026000 0.20761560 / 0.45402590 -0.89098860 0.00000000 1.00000000
				3.70473400 14.79422000 -17.15228000 / 0.00000000 0.00000000 1.00000000 / 42 141 11 255 / 14.17026000 0.20761560 / 0.45402590 -0.89098860 0.00000000 1.00000000
				-2.92819900 28.14869000 -17.15228000 / 0.00000000 0.00000000 1.00000000 / 42 141 11 255 / 2.79765500 0.11562510 / 0.45220570 -0.89191370 0.00000000 1.00000000
				-2.92819900 28.14869000 -17.15228000 / 0.00000000 0.00000000 1.00000000 / 42 141 11 255 / 2.79765500 0.11562510 / 0.45220570 -0.89191370 0.00000000 1.00000000
				-2.92819900 28.14869000 -17.15228000 / 0.00000000 0.00000000 1.00000000 / 42 141 11 255 / 2.79765500 0.11562510 / 0.45220570 -0.89191370 0.00000000 1.00000000
				-2.92819900 28.14869000 -17.15228000 / 0.00000000 0.00000000 1.00000000 / 42 141 11 255 / 2.79765500 0.11562510 / 0.45220440 -0.89191430 0.00000000 1.00000000
				-4.39019400 31.06227000 -17.15228000 / 0.00000000 0.00000000 1.00000000 / 42 141 11 255 / 0.52837140 -0.18819870 / 0.59051730 -0.80702500 0.00000000 1.00000000
				-6.12738900 29.85839000 -17.15228000 / 0.00000000 0.00000000 1.00000000 / 42 141 11 255 / 0.52794390 1.23540300 / 0.49759160 -0.86741140 0.00000000 1.00000000
				-4.39019400 31.06227000 -17.15228000 / 0.00000000 0.00000000 1.00000000 / 42 141 11 255 / 0.52837140 -0.18819870 / 0.64613760 -0.76322100 0.00000000 1.00000000
				-4.39019400 31.06227000 -17.15228000 / 0.00000000 0.00000000 1.00000000 / 42 141 11 255 / 0.52837140 -0.18819870 / 0.57614070 -0.81735050 0.00000000 1.00000000
				-4.39019400 31.06227000 -17.15228000 / 0.00000000 0.00000000 1.00000000 / 42 141 11 255 / 0.52837140 -0.18819870 / 0.57336010 -0.81930350 0.00000000 1.00000000
				-4.39019400 31.06227000 -17.15228000 / 0.00000000 0.00000000 1.00000000 / 42 141 11 255 / 0.52837140 -0.18819870 / 0.54845300 -0.83618140 0.00000000 1.00000000
				0.12753280 33.42880000 -17.15228000 / 0.00000000 0.00000000 1.00000000 / 42 141 11 255 / 0.48457680 -3.62727900 / 0.45216690 -0.89193340 0.00000000 1.00000000
				-11.11029000 15.26041000 -17.15228000 / 0.48465480 -0.87470560 0.00000000 / 42 141 11 255 / 8.72280600 9.70339900 / 1.00000000 0.00000000 0.00000000 1.00000000
				-7.52241200 10.42301000 -17.15228000 / 0.00000000 0.00000000 1.00000000 / 42 141 11 255 / 13.25266000 8.97070600 / 0.45402710 -0.89098790 0.00000000 1.00000000
				4.77033900 24.11110000 -17.15228000 / 0.00000000 0.00000000 1.00000000 / 42 141 11 255 / 8.20767200 -3.56628400 / 0.45220880 -0.89191210 0.00000000 1.00000000
				4.77033900 24.11110000 -17.15228000 / 0.00000000 0.00000000 1.00000000 / 42 141 11 255 / 8.20767200 -3.56628400 / 0.45220600 -0.89191350 0.00000000 1.00000000
				4.77033900 24.11110000 -17.15228000 / 0.00000000 0.00000000 1.00000000 / 42 141 11 255 / 8.20767200 -3.56628400 / 0.45220390 -0.89191450 0.00000000 1.00000000
				-6.12738900 29.85839000 -17.15228000 / 0.00000000 0.00000000 1.00000000 / 42 141 11 255 / 0.52794390 1.23540300 / 0.49759250 -0.86741100 0.00000000 1.00000000
				7.44887500 18.71825000 -17.15228000 / 0.00000000 0.00000000 1.00000000 / 42 141 11 255 / 12.80021000 -3.52945900 / 0.45222280 -0.89190500 0.00000000 1.00000000
				7.44887500 18.71825000 -17.15228000 / 0.00000000 0.00000000 1.00000000 / 42 141 11 255 / 12.80021000 -3.52945900 / 0.45222230 -0.89190520 0.00000000 1.00000000
				7.44887500 18.71825000 -17.15228000 / 0.00000000 0.00000000 1.00000000 / 42 141 11 255 / 12.80021000 -3.52945900 / 0.45222280 -0.89190500 0.00000000 1.00000000
				-14.37456000 23.88841000 -17.15228000 / 0.00000000 0.00000000 1.00000000 / 42 141 11 255 / 1.72925700 8.90687900 / 0.45259660 -0.89171530 0.00000000 1.00000000
				-14.37456000 23.88841000 -17.15228000 / 0.00000000 0.00000000 1.00000000 / 42 141 11 255 / 1.72925700 8.90687900 / 0.45261810 -0.89170450 0.00000000 1.00000000
				8.60826900 16.38398000 -17.15228000 / 0.00000000 0.00000000 1.00000000 / 42 141 11 255 / 14.78807000 -3.51371700 / 0.45350580 -0.89125330 0.00000000 1.00000000
				8.60826900 16.38398000 -17.15228000 / 0.00000000 0.00000000 1.00000000 / 42 141 11 255 / 14.78807000 -3.51371700 / 0.45357590 -0.89121760 0.00000000 1.00000000
				8.60826900 16.38398000 -17.15228000 / 0.00000000 0.00000000 1.00000000 / 42 141 11 255 / 14.78807000 -3.51371700 / 0.45352820 -0.89124190 0.00000000 1.00000000
				5.07085400 23.50606000 -17.15228000 / 0.00000000 0.00000000 1.00000000 / 42 141 11 255 / 8.72292700 -3.56174900 / 0.45222320 -0.89190480 0.00000000 1.00000000
				5.07085400 23.50606000 -17.15228000 / 0.00000000 0.00000000 1.00000000 / 42 141 11 255 / 8.72292700 -3.56174900 / 0.45222320 -0.89190480 0.00000000 1.00000000
				-6.02882500 29.90859000 -17.15228000 / 0.00000000 0.00000000 1.00000000 / 42 141 11 255 / 0.52796550 1.15443300 / 0.49759370 -0.86741020 0.00000000 1.00000000
				5.07085400 23.50606000 -17.15228000 / 0.00000000 0.00000000 1.00000000 / 42 141 11 255 / 8.72292700 -3.56174900 / 0.45222310 -0.89190480 0.00000000 1.00000000
				4.79044100 24.07064000 -17.15228000 / 0.00000000 0.00000000 1.00000000 / 42 141 11 255 / 8.24213700 -3.56601100 / 0.45310600 -0.89145670 0.00000000 1.00000000
				4.79044100 24.07064000 -17.15228000 / 0.00000000 0.00000000 1.00000000 / 42 141 11 255 / 8.24213700 -3.56601100 / 0.45310610 -0.89145660 0.00000000 1.00000000
				4.79044100 24.07064000 -17.15228000 / 0.00000000 0.00000000 1.00000000 / 42 141 11 255 / 8.24213700 -3.56601100 / 0.45310600 -0.89145670 0.00000000 1.00000000
				8.61470400 16.37103000 -17.15228000 / 0.00000000 0.00000000 1.00000000 / 42 141 11 255 / 14.79910000 -3.51361300 / 0.45402670 -0.89098810 0.00000000 1.00000000
				8.61470400 16.37103000 -17.15228000 / 0.00000000 0.00000000 1.00000000 / 42 141 11 255 / 14.79910000 -3.51361300 / 0.45402590 -0.89098860 0.00000000 1.00000000
				8.61470400 16.37103000 -17.15228000 / 0.00000000 0.00000000 1.00000000 / 42 141 11 255 / 14.79910000 -3.51361300 / 0.45402680 -0.89098800 0.00000000 1.00000000
				0.15368060 33.37615000 -17.15228000 / 0.00000000 0.00000000 1.00000000 / 42 141 11 255 / 0.52941050 -3.62692500 / 0.46244800 -0.88664640 0.00000000 1.00000000
				0.15368060 33.37615000 -17.15228000 / 0.00000000 0.00000000 1.00000000 / 42 141 11 255 / 0.52941050 -3.62692500 / 0.45216690 -0.89193340 0.00000000 1.00000000
				4.77033900 24.11110000 -17.15228000 / 0.00000000 0.00000000 1.00000000 / 42 141 11 255 / 8.20767200 -3.56628400 / 0.45220570 -0.89191370 0.00000000 1.00000000
				-6.02882500 29.90859000 -17.15228000 / 0.00000000 0.00000000 1.00000000 / 42 141 11 255 / 0.52796550 1.15443300 / 0.49759250 -0.86741100 0.00000000 1.00000000
				4.77033900 24.11110000 -17.15228000 / 0.00000000 0.00000000 1.00000000 / 42 141 11 255 / 8.20767200 -3.56628400 / 0.45220560 -0.89191380 0.00000000 1.00000000
				4.77033900 24.11110000 -17.15228000 / 0.00000000 0.00000000 1.00000000 / 42 141 11 255 / 8.20767200 -3.56628400 / 0.45220570 -0.89191370 0.00000000 1.00000000
				4.77033900 24.11110000 -17.15228000 / 0.00000000 0.00000000 1.00000000 / 42 141 11 255 / 8.20767200 -3.56628400 / 0.45220570 -0.89191370 0.00000000 1.00000000
				4.79044100 24.07063000 -17.15228000 / 0.00000000 0.00000000 1.00000000 / 42 141 11 255 / 8.24213700 -3.56601100 / 0.45220880 -0.89191210 0.00000000 1.00000000
				4.79044100 24.07063000 -17.15228000 / 0.00000000 0.00000000 1.00000000 / 42 141 11 255 / 8.24213700 -3.56601100 / 0.45220390 -0.89191450 0.00000000 1.00000000
				8.60826900 16.38398000 -17.15228000 / 0.00000000 0.00000000 1.00000000 / 42 141 11 255 / 14.78807000 -3.51371700 / 0.45222280 -0.89190500 0.00000000 1.00000000
				8.60826900 16.38398000 -17.15228000 / 0.00000000 0.00000000 1.00000000 / 42 141 11 255 / 14.78807000 -3.51371700 / 0.45222280 -0.89190500 0.00000000 1.00000000
				8.60826900 16.38398000 -17.15228000 / 0.00000000 0.00000000 1.00000000 / 42 141 11 255 / 14.78807000 -3.51371700 / 0.45222280 -0.89190500 0.00000000 1.00000000
				-7.52241200 10.42301000 -17.15228000 / 0.00000000 0.00000000 1.00000000 / 42 141 11 255 / 13.25266000 8.97070600 / 0.45402610 -0.89098840 0.00000000 1.00000000
				8.61470400 16.37103000 -17.15228000 / 0.00000000 0.00000000 1.00000000 / 42 141 11 255 / 14.79910000 -3.51361300 / 0.45350580 -0.89125330 0.00000000 1.00000000
			}
		}
	}
}
