Version 165 32
{
	Locked False
	Skinned False
	BoneCount 0
	Mask 255
	Bounds
	{
		Aabb
		{
			Min -12.28034000 26.44363000 -17.57772000
			Max -11.48004000 27.36795000 -11.88289000
		}
	}
	Geometries
	{
		Geometry
		{
			ShaderIndex 8
			Flags -
			VertexDeclaration N209731BE
			Indices 24
			{
				0 18 1 4 5 17 6 8 2 3 9 7 12 14 15
				16 10 13 11 20 21 22 23 19
			}
			Vertices 24
			{
				-12.28034000 27.13993000 -11.88289000 / -0.45649670 0.88972510 0.00000000 / 42 141 11 255 / 0.60096740 0.00303650
				-11.83600000 27.36795000 -17.57772000 / -0.45649670 0.88972510 0.00000000 / 42 141 11 255 / 0.35260010 1.01461800
				-11.48004000 26.67166000 -11.88289000 / 0.89044420 0.45509260 0.00000000 / 42 141 11 255 / 1.50019800 0.00302120
				-11.48004000 26.67166000 -11.88289000 / 0.89044420 0.45509260 0.00000000 / 42 141 11 255 / 1.50019800 0.00302120
				-11.83600000 27.36795000 -17.57772000 / -0.45649670 0.88972510 0.00000000 / 42 141 11 255 / 0.35260010 1.01461800
				-12.28034000 27.13992000 -17.57772000 / -0.45649670 0.88972510 0.00000000 / 42 141 11 255 / 0.60096740 1.01461800
				-11.83600000 27.36795000 -17.57772000 / 0.89044420 0.45509260 0.00000000 / 42 141 11 255 / 1.88906900 1.01461800
				-11.83600000 27.36795000 -17.57772000 / 0.89044420 0.45509260 0.00000000 / 42 141 11 255 / 1.88906900 1.01461800
				-11.83600000 27.36795000 -11.88289000 / 0.89044420 0.45509260 0.00000000 / 42 141 11 255 / 1.88906900 0.00302120
				-11.48004000 26.67165000 -17.57771000 / 0.89044420 0.45509260 0.00000000 / 42 141 11 255 / 1.50019800 1.01461800
				-12.28034000 27.13993000 -11.88289000 / -0.89034700 -0.45528240 0.00000000 / 42 141 11 255 / -0.91453550 0.00302120
				-11.48004000 26.67166000 -11.88289000 / 0.45657220 -0.88968640 0.00000000 / 42 141 11 255 / 0.60702510 0.00302120
				-12.28034000 27.13992000 -17.57772000 / -0.89034700 -0.45528240 0.00000000 / 42 141 11 255 / -0.91455080 1.01461800
				-12.28034000 27.13992000 -17.57772000 / -0.89034700 -0.45528240 0.00000000 / 42 141 11 255 / -0.91455080 1.01461800
				-11.92438000 26.44363000 -17.57771000 / -0.89034700 -0.45528240 0.00000000 / 42 141 11 255 / -0.52568050 1.01461800
				-11.92438000 26.44363000 -11.88289000 / -0.89034700 -0.45528240 0.00000000 / 42 141 11 255 / -0.52566530 0.00303650
				-11.92438000 26.44363000 -11.88289000 / -0.89034700 -0.45528240 0.00000000 / 42 141 11 255 / -0.52566530 0.00303650
				-12.28034000 27.13993000 -11.88289000 / -0.45649670 0.88972510 0.00000000 / 42 141 11 255 / 0.60096740 0.00303650
				-11.83600000 27.36795000 -11.88289000 / -0.45649670 0.88972510 0.00000000 / 42 141 11 255 / 0.35260010 0.00302120
				-11.48004000 26.67166000 -11.88289000 / 0.45649670 -0.88972510 0.00000000 / 42 141 11 255 / 0.60702510 0.00302120
				-11.92438000 26.44363000 -11.88289000 / 0.45657220 -0.88968640 0.00000000 / 42 141 11 255 / 0.35867310 0.00303650
				-11.92438000 26.44363000 -17.57771000 / 0.45657220 -0.88968640 0.00000000 / 42 141 11 255 / 0.35867310 1.01461800
				-11.92438000 26.44363000 -17.57771000 / 0.45649670 -0.88972510 0.00000000 / 42 141 11 255 / 0.35867310 1.01461800
				-11.48004000 26.67165000 -17.57771000 / 0.45649670 -0.88972510 0.00000000 / 42 141 11 255 / 0.60702510 1.01461800
			}
		}
	}
}
