Version 165 32
{
	Locked False
	Skinned False
	BoneCount 0
	Mask 255
	Bounds
	{
		Aabb
		{
			Min -12.34504000 14.77188000 -17.57764000
			Max -11.54474000 15.69620000 -11.88281000
		}
	}
	Geometries
	{
		Geometry
		{
			ShaderIndex 8
			Flags -
			VertexDeclaration N209731BE
			Indices 24
			{
				0 18 1 4 5 17 6 8 2 3 9 7 12 14 15
				16 10 13 11 20 21 22 23 19
			}
			Vertices 24
			{
				-12.34504000 15.46817000 -11.88281000 / -0.45653540 0.88970520 0.00000000 / 42 141 11 255 / 0.60096740 0.00303650
				-11.90069000 15.69620000 -17.57764000 / -0.45653540 0.88970520 0.00000000 / 42 141 11 255 / 0.35260010 1.01461800
				-11.54474000 14.99991000 -11.88281000 / 0.89040550 0.45516820 0.00000000 / 42 141 11 255 / 1.50019800 0.00302120
				-11.54474000 14.99991000 -11.88281000 / 0.89040550 0.45516820 0.00000000 / 42 141 11 255 / 1.50019800 0.00302120
				-11.90069000 15.69620000 -17.57764000 / -0.45653540 0.88970520 0.00000000 / 42 141 11 255 / 0.35260010 1.01461800
				-12.34504000 15.46817000 -17.57764000 / -0.45653540 0.88970520 0.00000000 / 42 141 11 255 / 0.60096740 1.01461800
				-11.90069000 15.69620000 -17.57764000 / 0.89040550 0.45516820 0.00000000 / 42 141 11 255 / 1.88906900 1.01461800
				-11.90069000 15.69620000 -17.57764000 / 0.89040550 0.45516820 0.00000000 / 42 141 11 255 / 1.88906900 1.01461800
				-11.90069000 15.69620000 -11.88281000 / 0.89040550 0.45516820 0.00000000 / 42 141 11 255 / 1.88906900 0.00302120
				-11.54474000 14.99991000 -17.57763000 / 0.89040550 0.45516820 0.00000000 / 42 141 11 255 / 1.50019800 1.01461800
				-12.34504000 15.46817000 -11.88281000 / -0.89038570 -0.45520680 0.00000000 / 42 141 11 255 / -0.91453550 0.00302120
				-11.54474000 14.99991000 -11.88281000 / 0.45661090 -0.88966650 0.00000000 / 42 141 11 255 / 0.60702510 0.00302120
				-12.34504000 15.46817000 -17.57764000 / -0.89038570 -0.45520680 0.00000000 / 42 141 11 255 / -0.91455080 1.01461800
				-12.34504000 15.46817000 -17.57764000 / -0.89038570 -0.45520680 0.00000000 / 42 141 11 255 / -0.91455080 1.01461800
				-11.98907000 14.77188000 -17.57763000 / -0.89038570 -0.45520680 0.00000000 / 42 141 11 255 / -0.52568050 1.01461800
				-11.98908000 14.77188000 -11.88281000 / -0.89038570 -0.45520680 0.00000000 / 42 141 11 255 / -0.52566530 0.00303650
				-11.98908000 14.77188000 -11.88281000 / -0.89038570 -0.45520680 0.00000000 / 42 141 11 255 / -0.52566530 0.00303650
				-12.34504000 15.46817000 -11.88281000 / -0.45653540 0.88970520 0.00000000 / 42 141 11 255 / 0.60096740 0.00303650
				-11.90069000 15.69620000 -11.88281000 / -0.45653540 0.88970520 0.00000000 / 42 141 11 255 / 0.35260010 0.00302120
				-11.54474000 14.99991000 -11.88281000 / 0.45661090 -0.88966650 0.00000000 / 42 141 11 255 / 0.60702510 0.00302120
				-11.98908000 14.77188000 -11.88281000 / 0.45661090 -0.88966650 0.00000000 / 42 141 11 255 / 0.35867310 0.00303650
				-11.98907000 14.77188000 -17.57763000 / 0.45661090 -0.88966650 0.00000000 / 42 141 11 255 / 0.35867310 1.01461800
				-11.98907000 14.77188000 -17.57763000 / 0.45661090 -0.88966650 0.00000000 / 42 141 11 255 / 0.35867310 1.01461800
				-11.54474000 14.99991000 -17.57763000 / 0.45661090 -0.88966650 0.00000000 / 42 141 11 255 / 0.60702510 1.01461800
			}
		}
	}
}
