Version 165 32
{
	Locked False
	Skinned False
	BoneCount 0
	Mask 255
	Bounds
	{
		Aabb
		{
			Min -32.92120000 -5.35500300 -17.56650000
			Max -25.89429000 1.69026400 -17.56649000
		}
	}
	Geometries
	{
		Geometry
		{
			ShaderIndex 14
			Flags -
			VertexDeclaration N51263BB5
			Indices 96
			{
				31 0 35 66 36 3 37 77 42 19 43 88 45 20 49
				26 50 21 52 28 23 30 24 29 57 32 67 38 60 34
				61 40 68 46 69 41 70 47 74 53 76 48 78 54 82
				25 83 56 85 58 90 62 91 59 92 64 15 71 27 65
				39 72 87 79 11 73 22 80 1 84 2 81 5 86 6
				93 7 89 8 94 9 51 10 95 12 63 13 33 14 75
				16 44 17 4 18 55
			}
			Vertices 96
			{
				-30.44635000 -5.35500300 -17.56649000 / 0.00000000 0.00000000 1.00000000 / 255 255 255 255 / 4.34621200 -0.65540190 / 0.47903250 -0.87779720 0.00000000 1.00000000
				-27.67527000 0.46992470 -17.56650000 / 0.00000000 0.00000000 1.00000000 / 255 255 255 255 / 1.65251900 -4.36198600 / 0.47903360 -0.87779650 0.00000000 1.00000000
				-27.67527000 0.46992470 -17.56650000 / 0.00000000 0.00000000 1.00000000 / 255 255 255 255 / 1.65251900 -4.36198600 / 0.47903340 -0.87779660 0.00000000 1.00000000
				-30.44635000 -5.35500300 -17.56649000 / 0.00000000 0.00000000 1.00000000 / 255 255 255 255 / 4.34621200 -0.65540190 / 0.47903240 -0.87779720 0.00000000 1.00000000
				-27.67527000 0.46992470 -17.56650000 / 0.00000000 0.00000000 1.00000000 / 255 255 255 255 / 1.65251900 -4.36198600 / 0.47903190 -0.87779750 0.00000000 1.00000000
				-32.92120000 -0.70900110 -17.56649000 / 0.00000000 0.00000600 1.00000000 / 255 255 255 255 / 0.60076420 -0.69313410 / 0.47903050 -0.87779830 0.00000520 1.00000000
				-32.49230000 -0.47590070 -17.56650000 / 0.00000000 0.00000300 1.00000000 / 255 255 255 255 / 0.60136620 -1.03957800 / 0.47903050 -0.87779830 0.00000260 1.00000000
				-32.49230000 -0.47590070 -17.56650000 / 0.00000000 0.00000300 1.00000000 / 255 255 255 255 / 0.60136620 -1.03957800 / 0.47903350 -0.87779660 0.00000260 1.00000000
				-32.49230000 -0.47590070 -17.56650000 / 0.00000000 0.00000300 1.00000000 / 255 255 255 255 / 0.60136620 -1.03957800 / 0.47903350 -0.87779660 0.00000260 1.00000000
				-31.15170000 0.21176030 -17.56649000 / 0.00000000 -0.00000150 1.00000000 / 255 255 255 255 / 0.62880470 -2.10851000 / 0.47903350 -0.87779660 -0.00000130 1.00000000
				-31.15170000 0.21176030 -17.56649000 / 0.00000000 -0.00000150 1.00000000 / 255 255 255 255 / 0.62880470 -2.10851000 / 0.47903360 -0.87779660 -0.00000130 1.00000000
				-30.03426000 -0.80876540 -17.56649000 / 0.00000000 0.00000000 1.00000000 / 255 255 255 255 / 1.64710900 -2.45769400 / 0.47903360 -0.87779650 0.00000000 1.00000000
				-31.15170000 0.21176030 -17.56649000 / 0.00000000 -0.00000150 1.00000000 / 255 255 255 255 / 0.62880470 -2.10851000 / 0.47903360 -0.87779650 -0.00000130 1.00000000
				-30.72280000 0.44485710 -17.56649000 / 0.00000000 0.00000000 1.00000000 / 255 255 255 255 / 0.62940780 -2.45494900 / 0.47903360 -0.87779650 0.00000000 1.00000000
				-30.72280000 0.44485710 -17.56649000 / 0.00000000 0.00000000 1.00000000 / 255 255 255 255 / 0.62940780 -2.45494900 / 0.47903270 -0.87779710 0.00000000 1.00000000
				-30.46317000 -1.04186600 -17.56649000 / 0.00000000 0.00000000 1.00000000 / 255 255 255 255 / 1.64650800 -2.11125300 / 0.47903320 -0.87779680 0.00000000 1.00000000
				-30.72280000 0.44485710 -17.56649000 / 0.00000000 0.00000000 1.00000000 / 255 255 255 255 / 0.62940780 -2.45494900 / 0.47903270 -0.87779710 0.00000000 1.00000000
				-28.29776000 1.69026400 -17.56649000 / 0.00000000 0.00000000 1.00000000 / 255 255 255 255 / 0.67812030 -4.38907100 / 0.47903270 -0.87779710 0.00000000 1.00000000
				-28.29776000 1.69026400 -17.56649000 / 0.00000000 0.00000000 1.00000000 / 255 255 255 255 / 0.67812030 -4.38907100 / 0.47903190 -0.87779750 0.00000000 1.00000000
				-28.67684000 -4.43424600 -17.56649000 / 0.00000000 0.00000000 1.00000000 / 255 255 255 255 / 4.37425900 -2.07078100 / 0.47903250 -0.87779720 0.00000000 1.00000000
				-28.67684000 -4.43424600 -17.56649000 / 0.00000000 0.00000000 1.00000000 / 255 255 255 255 / 4.37425900 -2.07078100 / 0.47903250 -0.87779710 0.00000000 1.00000000
				-28.67684000 -4.43424600 -17.56649000 / 0.00000000 0.00000000 1.00000000 / 255 255 255 255 / 4.37425900 -2.07078100 / 0.47903390 -0.87779640 0.00000000 1.00000000
				-30.03426000 -0.80876540 -17.56649000 / 0.00000000 0.00000000 1.00000000 / 255 255 255 255 / 1.64710900 -2.45769400 / 0.47903360 -0.87779650 0.00000000 1.00000000
				-26.31549000 -2.14503500 -17.56650000 / 0.00000000 0.00000000 1.00000000 / 255 255 255 255 / 3.74930600 -4.32008700 / 0.47903390 -0.87779640 0.00000000 1.00000000
				-26.31549000 -2.14503500 -17.56650000 / 0.00000000 0.00000000 1.00000000 / 255 255 255 255 / 3.74930600 -4.32008700 / 0.47903180 -0.87779750 0.00000000 1.00000000
				-26.31549000 -2.14503500 -17.56650000 / 0.00000000 0.00000000 1.00000000 / 255 255 255 255 / 3.74930600 -4.32008700 / 0.47903460 -0.87779600 0.00000000 1.00000000
				-28.24794000 -4.20114900 -17.56649000 / 0.00000000 0.00000000 1.00000000 / 255 255 255 255 / 4.37486000 -2.41721800 / 0.47903390 -0.87779640 0.00000000 1.00000000
				-30.46317000 -1.04186600 -17.56649000 / 0.00000000 0.00000000 1.00000000 / 255 255 255 255 / 1.64650800 -2.11125300 / 0.47903280 -0.87779700 0.00000000 1.00000000
				-28.24794000 -4.20114900 -17.56649000 / 0.00000000 0.00000000 1.00000000 / 255 255 255 255 / 4.37486000 -2.41721800 / 0.47903390 -0.87779640 0.00000000 1.00000000
				-28.24794000 -4.20114900 -17.56649000 / 0.00000000 0.00000000 1.00000000 / 255 255 255 255 / 4.37486000 -2.41721800 / 0.47903180 -0.87779750 0.00000000 1.00000000
				-25.89429000 -2.92515900 -17.56650000 / 0.00000000 0.00000000 1.00000000 / 255 255 255 255 / 4.38013500 -4.31726100 / 0.47903180 -0.87779750 0.00000000 1.00000000
				-30.86755000 -4.57486300 -17.56650000 / 0.00000000 0.00000000 1.00000000 / 255 255 255 255 / 3.71537100 -0.65822960 / 0.47903250 -0.87779720 0.00000000 1.00000000
				-30.86755000 -4.57486300 -17.56650000 / 0.00000000 0.00000000 1.00000000 / 255 255 255 255 / 3.71537100 -0.65822960 / 0.47903280 -0.87779700 0.00000000 1.00000000
				-30.03426000 -0.80876540 -17.56649000 / 0.00000000 0.00000000 1.00000000 / 255 255 255 255 / 1.64710900 -2.45769400 / 0.47903270 -0.87779710 0.00000000 1.00000000
				-30.86755000 -4.57486300 -17.56650000 / 0.00000000 0.00000000 1.00000000 / 255 255 255 255 / 3.71537100 -0.65822960 / 0.47903460 -0.87779600 0.00000000 1.00000000
				-30.43864000 -4.34176600 -17.56650000 / 0.00000000 0.00000000 1.00000000 / 255 255 255 255 / 3.71597500 -1.00467100 / 0.47903250 -0.87779720 0.00000000 1.00000000
				-30.43864000 -4.34176600 -17.56650000 / 0.00000000 0.00000000 1.00000000 / 255 255 255 255 / 3.71597500 -1.00467100 / 0.47903240 -0.87779720 0.00000000 1.00000000
				-30.43864000 -4.34176600 -17.56650000 / 0.00000000 0.00000000 1.00000000 / 255 255 255 255 / 3.71597500 -1.00467100 / 0.47903240 -0.87779720 0.00000000 1.00000000
				-30.43864000 -4.34176600 -17.56650000 / 0.00000000 0.00000000 1.00000000 / 255 255 255 255 / 3.71597500 -1.00467100 / 0.47903460 -0.87779600 0.00000000 1.00000000
				-30.46317000 -1.04186600 -17.56649000 / 0.00000000 0.00000000 1.00000000 / 255 255 255 255 / 1.64650800 -2.11125300 / 0.47903270 -0.87779710 0.00000000 1.00000000
				-30.43864000 -4.34176600 -17.56650000 / 0.00000000 0.00000000 1.00000000 / 255 255 255 255 / 3.71597500 -1.00467100 / 0.47903460 -0.87779600 0.00000000 1.00000000
				-30.43864000 -4.34176600 -17.56650000 / 0.00000000 0.00000000 1.00000000 / 255 255 255 255 / 3.71597500 -1.00467100 / 0.47903310 -0.87779690 0.00000000 1.00000000
				-29.09804000 -3.65411000 -17.56650000 / 0.00000000 0.00000000 1.00000000 / 255 255 255 255 / 3.74341900 -2.07360500 / 0.47903240 -0.87779720 0.00000000 1.00000000
				-29.09804000 -3.65411000 -17.56650000 / 0.00000000 0.00000000 1.00000000 / 255 255 255 255 / 3.74341900 -2.07360500 / 0.47903250 -0.87779720 0.00000000 1.00000000
				-30.03426000 -0.80876540 -17.56649000 / 0.00000000 0.00000000 1.00000000 / 255 255 255 255 / 1.64710900 -2.45769400 / 0.47903270 -0.87779710 0.00000000 1.00000000
				-29.09804000 -3.65411000 -17.56650000 / 0.00000000 0.00000000 1.00000000 / 255 255 255 255 / 3.74341900 -2.07360500 / 0.47903250 -0.87779710 0.00000000 1.00000000
				-29.09804000 -3.65411000 -17.56650000 / 0.00000000 0.00000000 1.00000000 / 255 255 255 255 / 3.74341900 -2.07360500 / 0.47903310 -0.87779690 0.00000000 1.00000000
				-29.09804000 -3.65411000 -17.56650000 / 0.00000000 0.00000000 1.00000000 / 255 255 255 255 / 3.74341900 -2.07360500 / 0.47903310 -0.87779680 0.00000000 1.00000000
				-29.09804000 -3.65411000 -17.56650000 / 0.00000000 0.00000000 1.00000000 / 255 255 255 255 / 3.74341900 -2.07360500 / 0.47903090 -0.87779800 0.00000000 1.00000000
				-28.66914000 -3.42100500 -17.56650000 / 0.00000000 0.00000000 1.00000000 / 255 255 255 255 / 3.74401400 -2.42004400 / 0.47903250 -0.87779710 0.00000000 1.00000000
				-28.66914000 -3.42100500 -17.56650000 / 0.00000000 0.00000000 1.00000000 / 255 255 255 255 / 3.74401400 -2.42004400 / 0.47903390 -0.87779640 0.00000000 1.00000000
				-30.46317000 -1.04186600 -17.56649000 / 0.00000000 0.00000000 1.00000000 / 255 255 255 255 / 1.64650800 -2.11125300 / 0.47903360 -0.87779660 0.00000000 1.00000000
				-28.66914000 -3.42100500 -17.56650000 / 0.00000000 0.00000000 1.00000000 / 255 255 255 255 / 3.74401400 -2.42004400 / 0.47903390 -0.87779640 0.00000000 1.00000000
				-28.66914000 -3.42100500 -17.56650000 / 0.00000000 0.00000000 1.00000000 / 255 255 255 255 / 3.74401400 -2.42004400 / 0.47903090 -0.87779800 0.00000000 1.00000000
				-28.66914000 -3.42100500 -17.56650000 / 0.00000000 0.00000000 1.00000000 / 255 255 255 255 / 3.74401400 -2.42004400 / 0.47903080 -0.87779810 0.00000000 1.00000000
				-30.03426000 -0.80876540 -17.56649000 / 0.00000000 0.00000000 1.00000000 / 255 255 255 255 / 1.64710900 -2.45769400 / 0.47903190 -0.87779750 0.00000000 1.00000000
				-28.66914000 -3.42100500 -17.56650000 / 0.00000000 0.00000000 1.00000000 / 255 255 255 255 / 3.74401400 -2.42004400 / 0.47903460 -0.87779600 0.00000000 1.00000000
				-31.24705000 -3.87658700 -17.56650000 / 0.00000000 0.00000000 1.00000000 / 255 255 255 255 / 3.14987300 -0.65920230 / 0.47903280 -0.87779700 0.00000000 1.00000000
				-31.24705000 -3.87658700 -17.56650000 / 0.00000000 0.00000000 1.00000000 / 255 255 255 255 / 3.14987300 -0.65920230 / 0.47903460 -0.87779610 0.00000000 1.00000000
				-31.24705000 -3.87658700 -17.56650000 / 0.00000000 0.00000000 1.00000000 / 255 255 255 255 / 3.14987300 -0.65920230 / 0.47903310 -0.87779680 0.00000000 1.00000000
				-30.81815000 -3.64348600 -17.56650000 / 0.00000000 0.00000000 1.00000000 / 255 255 255 255 / 3.15047400 -1.00564400 / 0.47903460 -0.87779600 0.00000000 1.00000000
				-30.81815000 -3.64348600 -17.56650000 / 0.00000000 0.00000000 1.00000000 / 255 255 255 255 / 3.15047400 -1.00564400 / 0.47903460 -0.87779600 0.00000000 1.00000000
				-30.81815000 -3.64348600 -17.56650000 / 0.00000000 0.00000000 1.00000000 / 255 255 255 255 / 3.15047400 -1.00564400 / 0.47903310 -0.87779680 0.00000000 1.00000000
				-30.46317000 -1.04186600 -17.56649000 / 0.00000000 0.00000000 1.00000000 / 255 255 255 255 / 1.64650800 -2.11125300 / 0.47903360 -0.87779650 0.00000000 1.00000000
				-30.81815000 -3.64348600 -17.56650000 / 0.00000000 0.00000000 1.00000000 / 255 255 255 255 / 3.15047400 -1.00564400 / 0.47903320 -0.87779680 0.00000000 1.00000000
				-30.81815000 -3.64348600 -17.56650000 / 0.00000000 0.00000000 1.00000000 / 255 255 255 255 / 3.15047400 -1.00564400 / 0.47903280 -0.87779700 0.00000000 1.00000000
				-30.01744000 -5.12190600 -17.56650000 / 0.00000000 0.00000000 1.00000000 / 255 255 255 255 / 4.34681700 -1.00184600 / 0.47903240 -0.87779720 0.00000000 1.00000000
				-30.81815000 -3.64348600 -17.56650000 / 0.00000000 0.00000000 1.00000000 / 255 255 255 255 / 3.15047400 -1.00564400 / 0.47903280 -0.87779700 0.00000000 1.00000000
				-29.47755000 -2.95583700 -17.56650000 / 0.00000000 0.00000000 1.00000000 / 255 255 255 255 / 3.17792200 -2.07457400 / 0.47903460 -0.87779600 0.00000000 1.00000000
				-29.47755000 -2.95583700 -17.56650000 / 0.00000000 0.00000000 1.00000000 / 255 255 255 255 / 3.17792200 -2.07457400 / 0.47903310 -0.87779690 0.00000000 1.00000000
				-29.47755000 -2.95583700 -17.56650000 / 0.00000000 0.00000000 1.00000000 / 255 255 255 255 / 3.17792200 -2.07457400 / 0.47903310 -0.87779680 0.00000000 1.00000000
				-29.47755000 -2.95583700 -17.56650000 / 0.00000000 0.00000000 1.00000000 / 255 255 255 255 / 3.17792200 -2.07457400 / 0.47903280 -0.87779700 0.00000000 1.00000000
				-29.47755000 -2.95583700 -17.56650000 / 0.00000000 0.00000000 1.00000000 / 255 255 255 255 / 3.17792200 -2.07457400 / 0.47903270 -0.87779710 0.00000000 1.00000000
				-29.47755000 -2.95583700 -17.56650000 / 0.00000000 0.00000000 1.00000000 / 255 255 255 255 / 3.17792200 -2.07457400 / 0.47903360 -0.87779650 0.00000000 1.00000000
				-29.04864000 -2.72272500 -17.56650000 / 0.00000000 0.00000000 1.00000000 / 255 255 255 255 / 3.17851600 -2.42101900 / 0.47903310 -0.87779680 0.00000000 1.00000000
				-30.46317000 -1.04186600 -17.56649000 / 0.00000000 0.00000000 1.00000000 / 255 255 255 255 / 1.64650800 -2.11125300 / 0.47903270 -0.87779710 0.00000000 1.00000000
				-29.04864000 -2.72272500 -17.56650000 / 0.00000000 0.00000000 1.00000000 / 255 255 255 255 / 3.17851600 -2.42101900 / 0.47903090 -0.87779800 0.00000000 1.00000000
				-30.01744000 -5.12190600 -17.56650000 / 0.00000000 0.00000000 1.00000000 / 255 255 255 255 / 4.34681700 -1.00184600 / 0.47903240 -0.87779720 0.00000000 1.00000000
				-29.04864000 -2.72272500 -17.56650000 / 0.00000000 0.00000000 1.00000000 / 255 255 255 255 / 3.17851600 -2.42101900 / 0.47903080 -0.87779810 0.00000000 1.00000000
				-29.04864000 -2.72272500 -17.56650000 / 0.00000000 0.00000000 1.00000000 / 255 255 255 255 / 3.17851600 -2.42101900 / 0.47903360 -0.87779650 0.00000000 1.00000000
				-29.04864000 -2.72272500 -17.56650000 / 0.00000000 0.00000000 1.00000000 / 255 255 255 255 / 3.17851600 -2.42101900 / 0.47903360 -0.87779650 0.00000000 1.00000000
				-29.04864000 -2.72272500 -17.56650000 / 0.00000000 0.00000000 1.00000000 / 255 255 255 255 / 3.17851600 -2.42101900 / 0.47903340 -0.87779660 0.00000000 1.00000000
				-26.69499000 -1.44675800 -17.56650000 / 0.00000000 0.00000000 1.00000000 / 255 255 255 255 / 3.18380900 -4.32106200 / 0.47903080 -0.87779810 0.00000000 1.00000000
				-26.69499000 -1.44675800 -17.56650000 / 0.00000000 0.00000000 1.00000000 / 255 255 255 255 / 3.18380900 -4.32106200 / 0.47903460 -0.87779600 0.00000000 1.00000000
				-26.69499000 -1.44675800 -17.56650000 / 0.00000000 0.00000000 1.00000000 / 255 255 255 255 / 3.18380900 -4.32106200 / 0.47903340 -0.87779660 0.00000000 1.00000000
				-32.23266000 -1.96263100 -17.56649000 / 0.00000000 0.00001190 1.00000000 / 255 255 255 255 / 1.61847000 -0.69588070 / 0.47903460 -0.87779610 0.00001050 1.00000000
				-32.23266000 -1.96263100 -17.56649000 / 0.00000000 0.00001190 1.00000000 / 255 255 255 255 / 1.61847000 -0.69588070 / 0.47903050 -0.87779830 0.00001050 1.00000000
				-30.03426000 -0.80876540 -17.56649000 / 0.00000000 0.00000000 1.00000000 / 255 255 255 255 / 1.64710900 -2.45769400 / 0.47903270 -0.87779710 0.00000000 1.00000000
				-30.01744000 -5.12190600 -17.56650000 / 0.00000000 0.00000000 1.00000000 / 255 255 255 255 / 4.34681700 -1.00184600 / 0.47903250 -0.87779720 0.00000000 1.00000000
				-32.23266000 -1.96263100 -17.56649000 / 0.00000000 0.00001190 1.00000000 / 255 255 255 255 / 1.61847000 -0.69588070 / 0.47903350 -0.87779660 0.00001050 1.00000000
				-31.80376000 -1.72953800 -17.56650000 / 0.00000000 0.00000000 1.00000000 / 255 255 255 255 / 1.61907600 -1.04231900 / 0.47903460 -0.87779610 0.00000000 1.00000000
				-31.80376000 -1.72953800 -17.56650000 / 0.00000000 0.00000000 1.00000000 / 255 255 255 255 / 1.61907600 -1.04231900 / 0.47903310 -0.87779680 0.00000000 1.00000000
				-31.80376000 -1.72953800 -17.56650000 / 0.00000000 0.00000000 1.00000000 / 255 255 255 255 / 1.61907600 -1.04231900 / 0.47903320 -0.87779680 0.00000000 1.00000000
				-31.80376000 -1.72953800 -17.56650000 / 0.00000000 0.00000000 1.00000000 / 255 255 255 255 / 1.61907600 -1.04231900 / 0.47903350 -0.87779660 0.00000000 1.00000000
				-31.80376000 -1.72953800 -17.56650000 / 0.00000000 0.00000000 1.00000000 / 255 255 255 255 / 1.61907600 -1.04231900 / 0.47903350 -0.87779660 0.00000000 1.00000000
				-31.80376000 -1.72953800 -17.56650000 / 0.00000000 0.00000000 1.00000000 / 255 255 255 255 / 1.61907600 -1.04231900 / 0.47903360 -0.87779660 0.00000000 1.00000000
			}
		}
	}
}
