Version 165 32
{
	Locked False
	Skinned False
	BoneCount 0
	Mask 255
	Bounds
	{
		Aabb
		{
			Min -0.24355310 32.57840000 -17.57772000
			Max 0.55674410 33.50272000 -11.88289000
		}
	}
	Geometries
	{
		Geometry
		{
			ShaderIndex 8
			Flags -
			VertexDeclaration N209731BE
			Indices 24
			{
				0 18 1 4 5 17 6 8 2 3 9 7 12 14 15
				16 10 13 11 20 21 22 23 19
			}
			Vertices 24
			{
				-0.24355270 33.27469000 -11.88289000 / -0.45674050 0.88959990 0.00000000 / 42 141 11 255 / 0.60096740 0.00303650
				0.20079090 33.50272000 -17.57772000 / -0.45674050 0.88959990 0.00000000 / 42 141 11 255 / 0.35260010 1.01461800
				0.55674240 32.80643000 -11.88289000 / 0.89044420 0.45509260 0.00000000 / 42 141 11 255 / 1.50019800 0.00302120
				0.55674240 32.80643000 -11.88289000 / 0.89044420 0.45509260 0.00000000 / 42 141 11 255 / 1.50019800 0.00302120
				0.20079090 33.50272000 -17.57772000 / -0.45674050 0.88959990 0.00000000 / 42 141 11 255 / 0.35260010 1.01461800
				-0.24355310 33.27469000 -17.57772000 / -0.45674160 0.88959930 0.00000000 / 42 141 11 255 / 0.60096740 1.01461800
				0.20079090 33.50272000 -17.57772000 / 0.89044380 0.45509320 0.00000000 / 42 141 11 255 / 1.88906900 1.01461800
				0.20079090 33.50272000 -17.57772000 / 0.89044380 0.45509320 0.00000000 / 42 141 11 255 / 1.88906900 1.01461800
				0.20079140 33.50272000 -11.88289000 / 0.89044380 0.45509320 0.00000000 / 42 141 11 255 / 1.88906900 0.00302120
				0.55674410 32.80642000 -17.57771000 / 0.89044420 0.45509260 0.00000000 / 42 141 11 255 / 1.50019800 1.01461800
				-0.24355270 33.27469000 -11.88289000 / -0.89044380 -0.45509320 0.00000000 / 42 141 11 255 / -0.91453550 0.00302120
				0.55674240 32.80643000 -11.88289000 / 0.45674400 -0.88959820 0.00000000 / 42 141 11 255 / 0.60702510 0.00302120
				-0.24355310 33.27469000 -17.57772000 / -0.89044350 -0.45509380 0.00000000 / 42 141 11 255 / -0.91455080 1.01461800
				-0.24355310 33.27469000 -17.57772000 / -0.89044350 -0.45509380 0.00000000 / 42 141 11 255 / -0.91455080 1.01461800
				0.11240960 32.57840000 -17.57771000 / -0.89044370 -0.45509350 0.00000000 / 42 141 11 255 / -0.52568050 1.01461800
				0.11240680 32.57840000 -11.88289000 / -0.89044370 -0.45509350 0.00000000 / 42 141 11 255 / -0.52566530 0.00303650
				0.11240680 32.57840000 -11.88289000 / -0.89044370 -0.45509350 0.00000000 / 42 141 11 255 / -0.52566530 0.00303650
				-0.24355270 33.27469000 -11.88289000 / -0.45674050 0.88959990 0.00000000 / 42 141 11 255 / 0.60096740 0.00303650
				0.20079140 33.50272000 -11.88289000 / -0.45674050 0.88959990 0.00000000 / 42 141 11 255 / 0.35260010 0.00302120
				0.55674240 32.80643000 -11.88289000 / 0.45673930 -0.88960060 0.00000000 / 42 141 11 255 / 0.60702510 0.00302120
				0.11240680 32.57840000 -11.88289000 / 0.45674160 -0.88959930 0.00000000 / 42 141 11 255 / 0.35867310 0.00303650
				0.11240960 32.57840000 -17.57771000 / 0.45674160 -0.88959930 0.00000000 / 42 141 11 255 / 0.35867310 1.01461800
				0.11240960 32.57840000 -17.57771000 / 0.45674050 -0.88959990 0.00000000 / 42 141 11 255 / 0.35867310 1.01461800
				0.55674410 32.80642000 -17.57771000 / 0.45673930 -0.88960060 0.00000000 / 42 141 11 255 / 0.60702510 1.01461800
			}
		}
	}
}
