Version 165 32
{
	Locked False
	Skinned False
	BoneCount 0
	Mask 255
	Bounds
	{
		Aabb
		{
			Min -38.10107000 -5.30810500 -17.57764000
			Max -8.11425800 24.97656000 -17.57764000
		}
	}
	Geometries
	{
		Geometry
		{
			ShaderIndex 6
			Flags -
			VertexDeclaration N51263BB5
			Indices 51
			{
				0 25 30 26 20 27 49 32 29 36 35 13 28 37 38
				31 40 33 7 41 3 15 43 34 39 11 46 22 42 50
				1 2 44 8 4 47 6 9 14 48 16 10 23 12 17
				18 45 24 5 19 21
			}
			Vertices 51
			{
				-37.42871000 7.72607400 -17.57764000 / 0.00000000 0.00000000 1.00000000 / 42 141 11 255 / 4.72834800 14.85564000 / 0.45401810 -0.89099250 0.00000000 1.00000000
				-32.79199000 -0.06152340 -17.57764000 / 0.00000000 0.00000000 1.00000000 / 42 141 11 255 / 11.62584000 14.40094000 / 0.45391560 -0.89104470 0.00000000 1.00000000
				-17.82471000 24.57080000 -17.57764000 / 0.00000000 0.00000000 1.00000000 / 42 141 11 255 / 0.06932070 -4.29922500 / 0.45391560 -0.89104470 0.00000000 1.00000000
				-34.03272000 2.21582000 -17.57764000 / 0.00000000 0.00000000 1.00000000 / 42 141 11 255 / 9.64859000 14.45543000 / 0.45260210 -0.89171260 0.00000000 1.00000000
				-17.82471000 24.57080000 -17.57764000 / 0.00000000 0.00000000 1.00000000 / 42 141 11 255 / 0.06932070 -4.29922500 / 0.45399450 -0.89100440 0.00000000 1.00000000
				-32.35986000 -1.74853500 -17.57764000 / 0.00000000 0.00000000 1.00000000 / 42 141 11 255 / 12.92175000 14.69157000 / 0.45398290 -0.89101030 0.00000000 1.00000000
				-17.82471000 24.57080000 -17.57764000 / 0.00000000 0.00000000 1.00000000 / 42 141 11 255 / 0.06932070 -4.29922500 / 0.45398690 -0.89100840 0.00000000 1.00000000
				-31.86767000 17.41504000 -17.57764000 / 0.00000000 0.00000000 1.00000000 / 42 141 11 255 / 0.06953430 7.72168000 / 0.45260210 -0.89171260 0.00000000 1.00000000
				-8.11425800 7.47998000 -17.57764000 / 0.00000000 0.00000000 1.00000000 / 42 141 11 255 / 15.04694000 -4.98024000 / 0.45399450 -0.89100440 0.00000000 1.00000000
				-8.11425800 7.47998000 -17.57764000 / 0.00000000 0.00000000 1.00000000 / 42 141 11 255 / 15.04694000 -4.98024000 / 0.45398690 -0.89100840 0.00000000 1.00000000
				-8.11425800 7.47998000 -17.57764000 / 0.00000000 0.00000000 1.00000000 / 42 141 11 255 / 15.04694000 -4.98024000 / 0.45362810 -0.89119110 0.00000000 1.00000000
				-23.65478000 21.59961000 -17.57764000 / 0.00000000 0.00000000 1.00000000 / 42 141 11 255 / 0.06962580 0.69169620 / 0.45416540 -0.89091740 0.00000000 1.00000000
				-8.11425800 7.47998000 -17.57764000 / 0.00000000 0.00000000 1.00000000 / 42 141 11 255 / 15.04694000 -4.98024000 / 0.45402870 -0.89098710 0.00000000 1.00000000
				-35.95459000 4.84179700 -17.57764000 / 0.00000000 0.00000000 1.00000000 / 42 141 11 255 / 7.19867000 14.85239000 / 0.45398670 -0.89100840 0.00000000 1.00000000
				-17.02930000 24.97656000 -17.57764000 / 0.00000000 0.00000000 1.00000000 / 42 141 11 255 / 0.06884770 -4.98011800 / 0.45398690 -0.89100840 0.00000000 1.00000000
				-34.03272000 2.21582000 -17.57764000 / 0.00000000 0.00000000 1.00000000 / 42 141 11 255 / 9.64859000 14.45543000 / 0.45393060 -0.89103700 0.00000000 1.00000000
				-32.69971000 -0.23046880 -17.57764000 / 0.00000000 0.00000000 1.00000000 / 42 141 11 255 / 11.77249000 14.39667000 / 0.45362810 -0.89119110 0.00000000 1.00000000
				-32.69971000 -0.23046880 -17.57764000 / 0.00000000 0.00000000 1.00000000 / 42 141 11 255 / 11.77249000 14.39667000 / 0.45402870 -0.89098710 0.00000000 1.00000000
				-32.69971000 -0.23046880 -17.57764000 / 0.00000000 0.00000000 1.00000000 / 42 141 11 255 / 11.77249000 14.39667000 / 0.45399910 -0.89100210 0.00000000 1.00000000
				-32.69971000 -0.23046880 -17.57764000 / 0.00000000 0.00000000 1.00000000 / 42 141 11 255 / 11.77249000 14.39667000 / 0.45398290 -0.89101030 0.00000000 1.00000000
				-37.42871000 7.72607400 -17.57764000 / 0.00000000 0.00000000 1.00000000 / 42 141 11 255 / 4.72834800 14.85564000 / 0.45392350 -0.89104060 0.00000000 1.00000000
				-33.07812000 -0.43603510 -17.57764000 / 0.00000000 0.00000000 1.00000000 / 42 141 11 255 / 11.78116000 14.72525000 / 0.45398290 -0.89101030 0.00000000 1.00000000
				-23.65478000 21.59961000 -17.57764000 / 0.00000000 0.00000000 1.00000000 / 42 141 11 255 / 0.06962580 0.69169620 / 0.45404430 -0.89097910 0.00000000 1.00000000
				-30.41260000 -5.30810500 -17.57764000 / 0.00000000 0.00000000 1.00000000 / 42 141 11 255 / 16.01492000 14.60077000 / 0.45402870 -0.89098710 0.00000000 1.00000000
				-30.41260000 -5.30810500 -17.57764000 / 0.00000000 0.00000000 1.00000000 / 42 141 11 255 / 16.01492000 14.60077000 / 0.45399910 -0.89100210 0.00000000 1.00000000
				-37.12695000 13.82959000 -17.57764000 / 0.00000000 0.00000000 1.00000000 / 42 141 11 255 / 0.68482970 12.53705000 / 0.45401810 -0.89099250 0.00000000 1.00000000
				-37.12695000 13.82959000 -17.57764000 / 0.00000000 0.00000000 1.00000000 / 42 141 11 255 / 0.68482970 12.53705000 / 0.45392350 -0.89104060 0.00000000 1.00000000
				-35.95459000 4.84179700 -17.57764000 / 0.00000000 0.00000000 1.00000000 / 42 141 11 255 / 7.19867000 14.85239000 / 0.45392350 -0.89104060 0.00000000 1.00000000
				-35.95459000 4.84179700 -17.57764000 / 0.00000000 0.00000000 1.00000000 / 42 141 11 255 / 7.19867000 14.85239000 / 0.45398120 -0.89101120 0.00000000 1.00000000
				-37.12695000 13.82959000 -17.57764000 / 0.00000000 0.00000000 1.00000000 / 42 141 11 255 / 0.68482970 12.53705000 / 0.45399710 -0.89100310 0.00000000 1.00000000
				-38.10107000 10.83350000 -17.57764000 / 0.00000000 0.00000000 1.00000000 / 42 141 11 255 / 2.38380400 14.23651000 / 0.45401810 -0.89099250 0.00000000 1.00000000
				-35.95459000 4.84179700 -17.57764000 / 0.00000000 0.00000000 1.00000000 / 42 141 11 255 / 7.19867000 14.85239000 / 0.45400350 -0.89099990 0.00000000 1.00000000
				-34.75586000 15.94824000 -17.57764000 / 0.00000000 0.00000000 1.00000000 / 42 141 11 255 / 0.06625370 10.19223000 / 0.45399710 -0.89100310 0.00000000 1.00000000
				-31.86767000 17.41504000 -17.57764000 / 0.00000000 0.00000000 1.00000000 / 42 141 11 255 / 0.06953430 7.72168000 / 0.45400350 -0.89099990 0.00000000 1.00000000
				-31.86767000 17.41504000 -17.57764000 / 0.00000000 0.00000000 1.00000000 / 42 141 11 255 / 0.06953430 7.72168000 / 0.45393060 -0.89103700 0.00000000 1.00000000
				-34.75586000 15.94824000 -17.57764000 / 0.00000000 0.00000000 1.00000000 / 42 141 11 255 / 0.06625370 10.19223000 / 0.45398670 -0.89100840 0.00000000 1.00000000
				-31.86767000 17.41504000 -17.57764000 / 0.00000000 0.00000000 1.00000000 / 42 141 11 255 / 0.06953430 7.72168000 / 0.45398670 -0.89100840 0.00000000 1.00000000
				-34.50195000 2.17724600 -17.57764000 / 0.00000000 0.00000000 1.00000000 / 42 141 11 255 / 9.51236000 14.78783000 / 0.45398120 -0.89101120 0.00000000 1.00000000
				-34.12256000 2.38183600 -17.57764000 / 0.00000000 0.00000000 1.00000000 / 42 141 11 255 / 9.50462300 14.45923000 / 0.45398120 -0.89101120 0.00000000 1.00000000
				-34.03272000 2.21582000 -17.57764000 / 0.00000000 0.00000000 1.00000000 / 42 141 11 255 / 9.64859000 14.45543000 / 0.45416540 -0.89091740 0.00000000 1.00000000
				-34.12256000 2.38183600 -17.57764000 / 0.00000000 0.00000000 1.00000000 / 42 141 11 255 / 9.50462300 14.45923000 / 0.45400350 -0.89099990 0.00000000 1.00000000
				-34.12256000 2.38183600 -17.57764000 / 0.00000000 0.00000000 1.00000000 / 42 141 11 255 / 9.50462300 14.45923000 / 0.45260210 -0.89171260 0.00000000 1.00000000
				-34.03272000 2.21582000 -17.57764000 / 0.00000000 0.00000000 1.00000000 / 42 141 11 255 / 9.64859000 14.45543000 / 0.45404430 -0.89097910 0.00000000 1.00000000
				-26.04102000 20.38379000 -17.57764000 / 0.00000000 0.00000000 1.00000000 / 42 141 11 255 / 0.06968690 2.73393300 / 0.45393060 -0.89103700 0.00000000 1.00000000
				-23.65478000 21.59961000 -17.57764000 / 0.00000000 0.00000000 1.00000000 / 42 141 11 255 / 0.06962580 0.69169620 / 0.45391560 -0.89104470 0.00000000 1.00000000
				-32.35986000 -1.74853500 -17.57764000 / 0.00000000 0.00000000 1.00000000 / 42 141 11 255 / 12.92175000 14.69157000 / 0.45399910 -0.89100210 0.00000000 1.00000000
				-26.04102000 20.38379000 -17.57764000 / 0.00000000 0.00000000 1.00000000 / 42 141 11 255 / 0.06968690 2.73393300 / 0.45416540 -0.89091740 0.00000000 1.00000000
				-32.79199000 -0.06152340 -17.57764000 / 0.00000000 0.00000000 1.00000000 / 42 141 11 255 / 11.62584000 14.40094000 / 0.45399450 -0.89100440 0.00000000 1.00000000
				-32.79199000 -0.06152340 -17.57764000 / 0.00000000 0.00000000 1.00000000 / 42 141 11 255 / 11.62584000 14.40094000 / 0.45362810 -0.89119110 0.00000000 1.00000000
				-35.95459000 4.84179700 -17.57764000 / 0.00000000 0.00000000 1.00000000 / 42 141 11 255 / 7.19867000 14.85239000 / 0.45399710 -0.89100310 0.00000000 1.00000000
				-32.79199000 -0.06152340 -17.57764000 / 0.00000000 0.00000000 1.00000000 / 42 141 11 255 / 11.62584000 14.40094000 / 0.45404430 -0.89097910 0.00000000 1.00000000
			}
		}
	}
}
