Version 165 32
{
	Locked False
	Skinned False
	BoneCount 0
	Mask 255
	Bounds
	{
		Aabb
		{
			Min -13.36403000 17.92069000 -17.17334000
			Max -8.71006600 27.38908000 -11.82669000
		}
	}
	Geometries
	{
		Geometry
		{
			ShaderIndex 0
			Flags -
			VertexDeclaration N51263BB5
			Indices 138
			{
				112 71 73 54 67 122 105 118 130 128 59 94 6 100 12
				23 47 7 2 78 77 131 3 97 45 132 109 10 69 49
				51 92 11 101 99 107 93 14 24 108 30 25 13 102 26
				39 104 15 16 33 127 35 95 65 85 40 36 74 81 124
				113 75 125 90 114 126 89 1 63 64 129 91 134 50 4
				57 70 17 18 9 58 110 27 19 21 106 111 28 31 123
				136 96 29 22 98 37 41 52 38 103 61 42 43 0 115
				56 5 46 66 34 121 133 48 68 72 117 83 82 79 60
				62 116 84 88 44 76 135 32 8 20 55 137 86 53 119
				120 80 87
			}
			Vertices 138
			{
				-8.90571000 20.25148000 -17.17333000 / -0.89102570 -0.45395290 0.00000000 / 42 141 11 255 / -5.49092600 3.29615800 / 0.45395290 -0.89102570 0.00000430 1.00000000
				-8.98907100 20.41510000 -11.82673000 / -0.89102570 -0.45395290 0.00000000 / 42 141 11 255 / -5.54622300 2.41204000 / 0.45395290 -0.89102570 0.00000000 1.00000000
				-9.53446700 21.96915000 -14.08005000 / 0.89102570 0.45395290 0.00000000 / 42 141 11 255 / -6.03778300 2.62684300 / 0.44180060 -0.86717290 0.22983350 -1.00000000
				-9.53446700 21.96915000 -14.08005000 / 0.89102570 0.45395290 0.00000000 / 42 141 11 255 / -6.03778300 2.62684300 / 0.44846690 -0.88025760 -0.15499670 -1.00000000
				-9.53446700 21.96915000 -14.08005000 / 0.89102570 0.45395290 0.00000000 / 42 141 11 255 / -6.03778300 2.62684300 / 0.44846690 -0.88025770 -0.15499640 -1.00000000
				-8.71013200 20.35116000 -14.75274000 / 0.89102570 0.45395290 0.00000000 / 42 141 11 255 / -5.49092600 2.69096700 / 0.44846630 -0.88025650 -0.15500480 -1.00000000
				-8.71013200 20.35116000 -14.75274000 / 0.86384360 0.50373390 0.00514990 / 42 141 11 255 / -5.49092600 2.69096700 / 0.50373900 -0.86385580 0.00034410 -1.00000000
				-8.71013200 20.35116000 -14.75274000 / 0.89102570 0.45395290 0.00000000 / 42 141 11 255 / -5.49092600 2.69096700 / 0.45395290 -0.89102570 -0.00000200 -1.00000000
				-9.40546200 21.71593000 -11.82673000 / 0.89102570 0.45395290 0.00000000 / 42 141 11 255 / -5.95219700 2.41203900 / 0.45395300 -0.89102570 -0.00000290 -1.00000000
				-8.71013200 20.35116000 -14.75274000 / 0.88931130 0.45719660 -0.00982300 / 42 141 11 255 / -5.49092600 2.69096700 / 0.45721860 -0.88935430 -0.00000550 -1.00000000
				-8.71006600 20.36555000 -14.08005000 / 0.87437310 0.48525420 0.00019070 / 42 141 11 255 / -5.49092600 2.62684300 / 0.48525430 -0.87437310 -0.00000830 -1.00000000
				-8.71006600 20.36555000 -14.08005000 / 0.87289920 0.48790040 0.00000000 / 42 141 11 255 / -5.49092600 2.62684300 / 0.48790040 -0.87289920 0.00026570 -1.00000000
				-8.80976300 20.54671000 -17.17333000 / 0.86384360 0.50373390 0.00514990 / 42 141 11 255 / -5.55702100 3.29615800 / 0.50373900 -0.86385580 0.00034410 -1.00000000
				-13.30528000 17.92069000 -17.17333000 / 0.47191440 -0.88164440 0.00000000 / 42 141 11 255 / -5.49092600 3.29615800 / -0.88164440 -0.47191440 -0.00001350 -1.00000000
				-8.71006600 20.36555000 -14.08005000 / -0.44553440 0.89526480 0.00000000 / 42 141 11 255 / -7.86964400 2.78466500 / -0.87089770 -0.43340800 -0.23172130 1.00000000
				-8.71006600 20.36555000 -14.08005000 / 0.47017820 -0.88256170 -0.00419630 / 42 141 11 255 / -7.86964400 2.78466500 / -0.85901830 -0.45653410 -0.23165520 -1.00000000
				-8.71006600 20.36555000 -14.08005000 / 0.47047530 -0.88239150 -0.00619920 / 42 141 11 255 / -7.86964400 2.78466500 / -0.85910110 -0.45643050 -0.23155240 -1.00000000
				-8.71006600 20.36555000 -14.08005000 / 0.87437310 0.48525420 0.00019070 / 42 141 11 255 / -5.49092600 2.62684300 / 0.48525430 -0.87437310 -0.00000840 -1.00000000
				-8.71006600 20.36555000 -14.08005000 / 0.88931130 0.45719660 -0.00982300 / 42 141 11 255 / -5.49092600 2.62684300 / 0.45721860 -0.88935430 -0.00000550 -1.00000000
				-8.71006600 20.36555000 -14.08005000 / -0.44554190 0.89508910 -0.01754700 / 42 141 11 255 / -7.86964400 2.78466500 / -0.86907240 -0.43713160 -0.23157950 1.00000000
				-9.40546200 21.71593000 -11.82673000 / 0.89102570 0.45395290 0.00000000 / 42 141 11 255 / -5.95219700 2.41203900 / 0.45395090 -0.89102180 0.00299250 -1.00000000
				-8.71006600 20.36555000 -14.08005000 / -0.44812490 0.89396110 0.00419610 / 42 141 11 255 / -7.86964400 2.78466500 / -0.87008100 -0.43506690 -0.23168040 1.00000000
				-8.71006600 20.36555000 -14.08005000 / 0.47040510 -0.88245060 0.00000000 / 42 141 11 255 / -7.86964400 2.78466500 / -0.85843800 -0.45760470 -0.23169430 -1.00000000
				-8.80976300 20.54671000 -17.17333000 / 0.89102570 0.45395290 0.00000000 / 42 141 11 255 / -5.55702100 3.29615800 / 0.45395290 -0.89102570 -0.00000200 -1.00000000
				-12.29687000 18.58021000 -14.08005000 / -0.44553440 0.89526480 0.00000000 / 42 141 11 255 / -6.03777200 2.62684400 / -0.87089770 -0.43340800 -0.23172130 1.00000000
				-12.29687000 18.58021000 -14.08005000 / -0.45444720 0.89077370 0.00000000 / 42 141 11 255 / -6.03777200 2.62684400 / -0.89077370 -0.45444720 -0.00001670 1.00000000
				-13.30530000 17.92070000 -14.75274000 / 0.47191440 -0.88164440 0.00000000 / 42 141 11 255 / -5.49092600 2.69096700 / -0.88164440 -0.47191440 -0.00001350 -1.00000000
				-12.29687000 18.58021000 -14.08005000 / -0.44554190 0.89508910 -0.01754700 / 42 141 11 255 / -6.03777200 2.62684400 / -0.86907240 -0.43713160 -0.23157950 1.00000000
				-12.29687000 18.58021000 -14.08005000 / -0.45444720 0.89077370 0.00000000 / 42 141 11 255 / -6.03777200 2.62684400 / -0.89077370 -0.45444720 -0.00001670 1.00000000
				-12.29687000 18.58021000 -14.08005000 / -0.44766770 0.89419100 0.00400550 / 42 141 11 255 / -6.03777200 2.62684400 / -0.89419820 -0.44767130 -0.00000810 1.00000000
				-13.36400000 18.03588000 -14.08005000 / -0.45444720 0.89077370 0.00000000 / 42 141 11 255 / -5.49092600 2.62684200 / -0.89077370 -0.45444720 -0.00001670 1.00000000
				-13.36400000 18.03588000 -14.08005000 / -0.45444720 0.89077370 0.00000000 / 42 141 11 255 / -5.49092600 2.62684200 / -0.89077370 -0.45444720 -0.00001670 1.00000000
				-12.29583000 27.38908000 -11.82671000 / 0.89102570 0.45395290 0.00000000 / 42 141 11 255 / -7.86964400 2.41203900 / 0.45395300 -0.89102570 -0.00000290 -1.00000000
				-12.24611000 18.48061000 -14.08005000 / 0.47047530 -0.88239150 -0.00619920 / 42 141 11 255 / -6.03777100 2.62684400 / -0.85910110 -0.45643050 -0.23155240 -1.00000000
				-9.41251800 21.72979000 -14.07925000 / 0.89102570 0.45395290 0.00000000 / 42 141 11 255 / -5.95674900 2.62684300 / 0.45395280 -0.89102550 -0.00059690 -1.00000000
				-12.24611000 18.48061000 -14.08005000 / 0.46965200 -0.88285050 0.00143040 / 42 141 11 255 / -6.03777100 2.62684400 / -0.88285140 -0.46965250 -0.00000780 -1.00000000
				-12.24611000 18.48061000 -14.08005000 / 0.46731800 -0.88408930 0.00000000 / 42 141 11 255 / -6.03777100 2.62684400 / -0.88408930 -0.46731800 -0.00001460 -1.00000000
				-12.24611000 18.48061000 -14.08005000 / 0.47040510 -0.88245060 0.00000000 / 42 141 11 255 / -6.03777100 2.62684400 / -0.85843800 -0.45760470 -0.23169430 -1.00000000
				-12.24611000 18.48061000 -14.08005000 / 0.46731800 -0.88408930 0.00000000 / 42 141 11 255 / -6.03777100 2.62684400 / -0.88408930 -0.46731800 -0.00001460 -1.00000000
				-13.30530000 17.92070000 -14.75274000 / 0.47017820 -0.88256170 -0.00419630 / 42 141 11 255 / -5.49092600 2.69096700 / -0.85901830 -0.45653410 -0.23165520 -1.00000000
				-13.30531000 17.92071000 -14.08005000 / 0.46731800 -0.88408930 0.00000000 / 42 141 11 255 / -5.49092600 2.62684300 / -0.88408930 -0.46731800 -0.00001460 -1.00000000
				-13.30531000 17.92071000 -14.08005000 / 0.46731800 -0.88408930 0.00000000 / 42 141 11 255 / -5.49092600 2.62684300 / -0.88408930 -0.46731800 -0.00001460 -1.00000000
				-9.00534200 20.44703000 -17.17333000 / -0.89102570 -0.45395290 0.00000000 / 42 141 11 255 / -5.55702100 3.29615800 / 0.45395290 -0.89102570 0.00000220 1.00000000
				-9.00534200 20.44703000 -17.17333000 / -0.89102570 -0.45395290 0.00000000 / 42 141 11 255 / -5.55702100 3.29615800 / 0.45395290 -0.89102570 0.00000430 1.00000000
				-12.29582000 27.38906000 -17.17331000 / 0.89102570 0.45395290 0.00000000 / 42 141 11 255 / -7.86964400 3.29615800 / 0.45395290 -0.89102570 -0.00000270 -1.00000000
				-12.29582000 27.38906000 -17.17331000 / 0.89102570 0.45395290 0.00000000 / 42 141 11 255 / -7.86964400 3.29615800 / 0.44846690 -0.88025760 -0.15499680 -1.00000000
				-8.80258600 20.53263000 -14.81515000 / 0.89102570 0.45395290 0.00000000 / 42 141 11 255 / -5.55226100 2.70657200 / 0.44846630 -0.88025650 -0.15500480 -1.00000000
				-8.80258600 20.53263000 -14.81515000 / 0.89102570 0.45395290 0.00000000 / 42 141 11 255 / -5.55225900 2.70657200 / 0.45395290 -0.89102570 -0.00000200 -1.00000000
				-8.79349400 20.51478000 -11.82673000 / 0.89102570 0.45395290 0.00000000 / 42 141 11 255 / -5.54622300 2.41203900 / 0.45395290 -0.89102570 -0.00000280 -1.00000000
				-8.79349400 20.51478000 -11.82673000 / 0.87437310 0.48525420 0.00019070 / 42 141 11 255 / -5.54622300 2.41203900 / 0.48525430 -0.87437310 -0.00000830 -1.00000000
				-12.29583000 27.38908000 -11.82671000 / 0.89102570 0.45395290 0.00000000 / 42 141 11 255 / -7.86964400 2.41203900 / 0.44846690 -0.88025770 -0.15499640 -1.00000000
				-8.79349400 20.51478000 -11.82673000 / 0.87289920 0.48790040 0.00000000 / 42 141 11 255 / -5.54622300 2.41203900 / 0.48790040 -0.87289920 0.00026570 -1.00000000
				-13.30530000 17.92070000 -14.75274000 / 0.46731800 -0.88408930 0.00000000 / 42 141 11 255 / -5.49092600 2.69096700 / -0.88408930 -0.46731800 -0.00001460 -1.00000000
				-12.49141000 27.28940000 -11.82671000 / -0.89102570 -0.45395290 0.00000000 / 42 141 11 255 / -7.86964400 2.41203900 / 0.45395290 -0.89102570 -0.00000250 1.00000000
				-12.49141000 27.28940000 -11.82671000 / -0.89102570 -0.45395290 0.00000000 / 42 141 11 255 / -7.86964400 2.41203900 / 0.44846690 -0.88025770 -0.15499630 1.00000000
				-9.41251800 21.72979000 -14.07925000 / 0.89102570 0.45395290 0.00000000 / 42 141 11 255 / -5.95674900 2.62684300 / 0.45395090 -0.89102180 0.00299250 -1.00000000
				-8.80216700 20.53180000 -14.67763000 / 0.89102570 0.45395290 0.00000000 / 42 141 11 255 / -5.55198200 2.68380800 / 0.44846630 -0.88025650 -0.15500480 -1.00000000
				-8.80216700 20.53180000 -14.67763000 / 0.87437310 0.48525420 0.00019070 / 42 141 11 255 / -5.55198200 2.68380800 / 0.48525430 -0.87437310 -0.00000840 -1.00000000
				-8.80216700 20.53180000 -14.67763000 / 0.88931130 0.45719660 -0.00982300 / 42 141 11 255 / -5.55198200 2.68380800 / 0.45721860 -0.88935430 -0.00000550 -1.00000000
				-8.99592600 20.42856000 -14.08005000 / -0.89102570 -0.45395290 0.00000000 / 42 141 11 255 / -5.55077500 2.62684300 / 0.45395290 -0.89102570 -0.00001260 1.00000000
				-8.99592600 20.42856000 -14.08005000 / -0.89102570 -0.45395290 0.00000000 / 42 141 11 255 / -5.55077500 2.62684300 / 0.45395280 -0.89102550 -0.00059800 1.00000000
				-8.99816200 20.43295000 -14.81515000 / -0.89102570 -0.45395290 0.00000000 / 42 141 11 255 / -5.55225800 2.70657100 / 0.45395290 -0.89102570 0.00000220 1.00000000
				-8.99592600 20.42856000 -14.08005000 / -0.89102570 -0.45395290 0.00000000 / 42 141 11 255 / -5.55077500 2.62684300 / 0.45395290 -0.89102570 -0.00000280 1.00000000
				-8.99592600 20.42856000 -14.08005000 / -0.89102570 -0.45395290 0.00000000 / 42 141 11 255 / -5.55077500 2.62684300 / 0.45395290 -0.89102570 0.00000000 1.00000000
				-8.99592600 20.42856000 -14.08005000 / -0.89102570 -0.45395290 0.00000000 / 42 141 11 255 / -5.55077500 2.62684300 / 0.45395290 -0.89102570 -0.00001260 1.00000000
				-13.30533000 17.92073000 -11.82673000 / 0.46965200 -0.88285050 0.00143040 / 42 141 11 255 / -5.49092600 2.41204000 / -0.88285140 -0.46965250 -0.00000780 -1.00000000
				-8.80035000 20.52824000 -14.08005000 / 0.89102570 0.45395290 0.00000000 / 42 141 11 255 / -5.55077500 2.62684300 / 0.45395280 -0.89102550 -0.00059690 -1.00000000
				-12.49140000 27.28939000 -14.08005000 / -0.89102570 -0.45395290 0.00000000 / 42 141 11 255 / -7.86964400 2.78465500 / 0.44846690 -0.88025770 -0.15499630 1.00000000
				-8.80035000 20.52824000 -14.08005000 / 0.89102570 0.45395290 0.00000000 / 42 141 11 255 / -5.55077500 2.62684300 / 0.45395290 -0.89102570 -0.00000280 -1.00000000
				-8.80035000 20.52824000 -14.08005000 / 0.87437310 0.48525420 0.00019070 / 42 141 11 255 / -5.55077500 2.62684300 / 0.48525430 -0.87437310 -0.00000830 -1.00000000
				-8.80035000 20.52824000 -14.08005000 / 0.87437310 0.48525420 0.00019070 / 42 141 11 255 / -5.55077500 2.62684300 / 0.48525430 -0.87437310 -0.00000840 -1.00000000
				-9.61730900 21.64819000 -17.17333000 / -0.89102570 -0.45395290 0.00000000 / 42 141 11 255 / -5.96299600 3.29615800 / 0.45395290 -0.89102570 -0.00000320 1.00000000
				-8.99816200 20.43295000 -14.81515000 / -0.89102570 -0.45395290 0.00000000 / 42 141 11 255 / -5.55226000 2.70657100 / 0.44846650 -0.88025680 -0.15500220 1.00000000
				-9.61138900 21.63658000 -15.22912000 / -0.89102570 -0.45395290 0.00000000 / 42 141 11 255 / -5.95906900 2.81007200 / 0.45395290 -0.89102570 -0.00000320 1.00000000
				-9.61138900 21.63658000 -15.22912000 / -0.89102570 -0.45395290 0.00000000 / 42 141 11 255 / -5.95907000 2.81007200 / 0.44180130 -0.86717430 0.22982680 1.00000000
				-9.61138900 21.63658000 -15.22912000 / -0.89102570 -0.45395290 0.00000000 / 42 141 11 255 / -5.95907000 2.81007200 / 0.44846690 -0.88025750 -0.15499740 1.00000000
				-9.41581100 21.73626000 -15.22912000 / 0.89102570 0.45395290 0.00000000 / 42 141 11 255 / -5.95906900 2.81007200 / 0.45395290 -0.89102570 -0.00000270 -1.00000000
				-9.41581100 21.73626000 -15.22912000 / 0.89102570 0.45395290 0.00000000 / 42 141 11 255 / -5.95907000 2.81007200 / 0.44180060 -0.86717290 0.22983350 -1.00000000
				-9.41251800 21.72979000 -14.07925000 / 0.89102570 0.45395290 0.00000000 / 42 141 11 255 / -5.95695100 2.63632100 / 0.44180060 -0.86717290 0.22983350 -1.00000000
				-9.60809600 21.63011000 -14.07925000 / -0.89102570 -0.45395290 0.00000000 / 42 141 11 255 / -5.95674900 2.62684300 / 0.45395280 -0.89102550 -0.00059800 1.00000000
				-9.60809600 21.63011000 -14.07925000 / -0.89102570 -0.45395290 0.00000000 / 42 141 11 255 / -5.95674900 2.62684300 / 0.45395090 -0.89102180 0.00299270 1.00000000
				-9.60809600 21.63011000 -14.07925000 / -0.89102570 -0.45395290 0.00000000 / 42 141 11 255 / -5.95695000 2.63632100 / 0.44180130 -0.86717430 0.22982680 1.00000000
				-9.60103900 21.61625000 -11.82673000 / -0.89102570 -0.45395290 0.00000000 / 42 141 11 255 / -5.95219700 2.41204000 / 0.45395280 -0.89102550 -0.00059800 1.00000000
				-8.99774500 20.43213000 -14.67763000 / -0.89102570 -0.45395290 0.00000000 / 42 141 11 255 / -5.55198200 2.68380800 / 0.44846650 -0.88025680 -0.15500220 1.00000000
				-9.60103900 21.61625000 -11.82673000 / -0.89102570 -0.45395290 0.00000000 / 42 141 11 255 / -5.95219700 2.41204000 / 0.45395290 -0.89102570 -0.00000280 1.00000000
				-13.30533000 17.92073000 -11.82673000 / 0.46731800 -0.88408930 0.00000000 / 42 141 11 255 / -5.49092600 2.41204000 / -0.88408930 -0.46731800 -0.00001460 -1.00000000
				-9.60103900 21.61625000 -11.82673000 / -0.89102570 -0.45395290 0.00000000 / 42 141 11 255 / -5.95219700 2.41204000 / 0.45395290 -0.89102570 -0.00000250 1.00000000
				-9.60103900 21.61625000 -11.82673000 / -0.89102570 -0.45395290 0.00000000 / 42 141 11 255 / -5.95219700 2.41204000 / 0.45395090 -0.89102180 0.00299270 1.00000000
				-9.42173000 21.74787000 -17.17333000 / 0.89102570 0.45395290 0.00000000 / 42 141 11 255 / -5.96299500 3.29615800 / 0.45395290 -0.89102570 -0.00000270 -1.00000000
				-8.90571700 20.25149000 -11.82673000 / -0.89102570 -0.45395290 0.00000000 / 42 141 11 255 / -5.49092600 2.41204000 / 0.45395290 -0.89102570 0.00000000 1.00000000
				-12.49140000 27.28939000 -14.08005000 / -0.89102570 -0.45395290 0.00000000 / 42 141 11 255 / -7.86964400 2.78465500 / 0.44846690 -0.88025770 -0.15499640 1.00000000
				-8.90571700 20.25149000 -11.82673000 / -0.89102570 -0.45395290 0.00000000 / 42 141 11 255 / -5.49092600 2.41204000 / 0.45395290 -0.89102570 -0.00001260 1.00000000
				-8.71007900 20.36556000 -11.82669000 / 0.87289920 0.48790040 0.00000000 / 42 141 11 255 / -5.49092600 2.41204000 / 0.48790040 -0.87289920 0.00026570 -1.00000000
				-8.71007900 20.36556000 -11.82669000 / -0.44553440 0.89526480 0.00000000 / 42 141 11 255 / -7.86964400 2.41203900 / -0.87089770 -0.43340800 -0.23172130 1.00000000
				-8.99774500 20.43213000 -14.67763000 / -0.89102570 -0.45395290 0.00000000 / 42 141 11 255 / -5.55198200 2.68380800 / 0.45395290 -0.89102570 -0.00001260 1.00000000
				-8.71007900 20.36556000 -11.82669000 / 0.46965200 -0.88285050 0.00143040 / 42 141 11 255 / -7.86964400 2.41203900 / -0.88285140 -0.46965250 -0.00000780 -1.00000000
				-8.71007900 20.36556000 -11.82669000 / -0.44766770 0.89419100 0.00400550 / 42 141 11 255 / -7.86964400 2.41203900 / -0.89419820 -0.44767130 -0.00000810 1.00000000
				-9.41581100 21.73626000 -15.22912000 / 0.89102570 0.45395290 0.00000000 / 42 141 11 255 / -5.95907000 2.81007200 / 0.44846690 -0.88025760 -0.15499670 -1.00000000
				-8.71007900 20.36556000 -11.82669000 / 0.47040510 -0.88245060 0.00000000 / 42 141 11 255 / -7.86964400 2.41203900 / -0.85843800 -0.45760470 -0.23169430 -1.00000000
				-13.36397000 18.03586000 -17.17334000 / -0.44988210 0.89308790 0.00000000 / 42 141 11 255 / -5.49092600 3.29615800 / -0.89308800 -0.44988210 -0.00001390 1.00000000
				-8.71201700 20.37909000 -17.17326000 / 0.86384360 0.50373390 0.00514990 / 42 141 11 255 / -5.49092600 3.29615800 / 0.50373900 -0.86385580 0.00034410 -1.00000000
				-8.71201700 20.37909000 -17.17326000 / -0.44988210 0.89308790 0.00000000 / 42 141 11 255 / -7.86964400 3.29615800 / -0.89308800 -0.44988210 -0.00001390 1.00000000
				-8.71201700 20.37909000 -17.17326000 / 0.47191440 -0.88164440 0.00000000 / 42 141 11 255 / -7.86964400 3.29615800 / -0.88164440 -0.47191440 -0.00001350 -1.00000000
				-8.90571000 20.25149000 -14.75274000 / -0.89102570 -0.45395290 0.00000000 / 42 141 11 255 / -5.49092600 2.69096700 / 0.45395290 -0.89102570 0.00000220 1.00000000
				-8.71201700 20.37909000 -17.17326000 / 0.47017820 -0.88256170 -0.00419630 / 42 141 11 255 / -7.86964400 3.29615800 / -0.85901830 -0.45653410 -0.23165520 -1.00000000
				-8.99774500 20.43213000 -14.67763000 / -0.89102570 -0.45395290 0.00000000 / 42 141 11 255 / -5.55198200 2.68380800 / 0.45395290 -0.89102570 -0.00000700 1.00000000
				-8.71201700 20.37909000 -17.17326000 / -0.44812490 0.89396110 0.00419610 / 42 141 11 255 / -7.86964400 3.29615800 / -0.87008100 -0.43506690 -0.23168040 1.00000000
				-13.36400000 18.03587000 -14.75274000 / -0.44988210 0.89308790 0.00000000 / 42 141 11 255 / -5.49092600 2.69096700 / -0.89308800 -0.44988210 -0.00001390 1.00000000
				-13.36400000 18.03587000 -14.75274000 / -0.45444720 0.89077370 0.00000000 / 42 141 11 255 / -5.49092600 2.69096700 / -0.89077370 -0.45444720 -0.00001670 1.00000000
				-9.41581100 21.73626000 -15.22912000 / 0.89102570 0.45395290 0.00000000 / 42 141 11 255 / -5.95907000 2.81007200 / 0.44846690 -0.88025760 -0.15499680 -1.00000000
				-13.36400000 18.03587000 -14.75274000 / -0.44554190 0.89508910 -0.01754700 / 42 141 11 255 / -5.49092600 2.69096700 / -0.86907240 -0.43713160 -0.23157950 1.00000000
				-13.36400000 18.03587000 -14.75274000 / -0.44812490 0.89396110 0.00419610 / 42 141 11 255 / -5.49092600 2.69096700 / -0.87008100 -0.43506690 -0.23168040 1.00000000
				-12.49140000 27.28939000 -17.17331000 / -0.89102570 -0.45395290 0.00000000 / 42 141 11 255 / -7.86964400 3.29615800 / 0.45395290 -0.89102570 -0.00000320 1.00000000
				-12.49140000 27.28939000 -17.17331000 / -0.89102570 -0.45395290 0.00000000 / 42 141 11 255 / -7.86964400 3.29615800 / 0.44846690 -0.88025750 -0.15499740 1.00000000
				-12.49140000 27.28939000 -17.17331000 / -0.89102570 -0.45395290 0.00000000 / 42 141 11 255 / -7.86964400 3.29615800 / 0.44846690 -0.88025770 -0.15499640 1.00000000
				-8.90571000 20.25149000 -14.75274000 / -0.89102570 -0.45395290 0.00000000 / 42 141 11 255 / -5.49092600 2.69096700 / 0.45395290 -0.89102570 0.00000430 1.00000000
				-8.98907100 20.41510000 -11.82673000 / -0.89102570 -0.45395290 0.00000000 / 42 141 11 255 / -5.54622300 2.41204000 / 0.45395290 -0.89102570 -0.00000280 1.00000000
				-8.90571000 20.25149000 -14.75274000 / -0.89102570 -0.45395290 0.00000000 / 42 141 11 255 / -5.49092600 2.69096700 / 0.44846650 -0.88025680 -0.15500220 1.00000000
				-8.90571000 20.25149000 -14.75274000 / -0.89102570 -0.45395290 0.00000000 / 42 141 11 255 / -5.49092600 2.69096700 / 0.45395290 -0.89102570 -0.00000700 1.00000000
				-9.73004400 21.86947000 -14.08005000 / -0.89102570 -0.45395290 0.00000000 / 42 141 11 255 / -6.03778300 2.62684300 / 0.45395290 -0.89102570 -0.00000250 1.00000000
				-9.73004400 21.86947000 -14.08005000 / -0.89102570 -0.45395290 0.00000000 / 42 141 11 255 / -6.03778300 2.62684300 / 0.45395090 -0.89102180 0.00299270 1.00000000
				-9.40546200 21.71593000 -11.82673000 / 0.89102570 0.45395290 0.00000000 / 42 141 11 255 / -5.95219700 2.41203900 / 0.45395280 -0.89102550 -0.00059690 -1.00000000
				-9.73004400 21.86947000 -14.08005000 / -0.89102570 -0.45395290 0.00000000 / 42 141 11 255 / -6.03778300 2.62684300 / 0.44846690 -0.88025770 -0.15499630 1.00000000
				-13.36403000 18.03590000 -11.82673000 / -0.45444720 0.89077370 0.00000000 / 42 141 11 255 / -5.49092600 2.41204000 / -0.89077370 -0.45444720 -0.00001670 1.00000000
				-9.73004400 21.86947000 -14.08005000 / -0.89102570 -0.45395290 0.00000000 / 42 141 11 255 / -6.03778300 2.62684300 / 0.44180130 -0.86717430 0.22982680 1.00000000
				-9.73004400 21.86947000 -14.08005000 / -0.89102570 -0.45395290 0.00000000 / 42 141 11 255 / -6.03778300 2.62684300 / 0.44846690 -0.88025750 -0.15499740 1.00000000
				-9.73004400 21.86947000 -14.08005000 / -0.89102570 -0.45395290 0.00000000 / 42 141 11 255 / -6.03778300 2.62684300 / 0.44846690 -0.88025770 -0.15499640 1.00000000
				-13.30530000 17.92070000 -14.75274000 / 0.47047530 -0.88239150 -0.00619920 / 42 141 11 255 / -5.49092600 2.69096700 / -0.85910110 -0.45643050 -0.23155240 -1.00000000
				-8.90571000 20.25148000 -14.08005000 / -0.89102570 -0.45395290 0.00000000 / 42 141 11 255 / -5.49092600 2.62684200 / 0.45395290 -0.89102570 -0.00001260 1.00000000
				-8.90571000 20.25148000 -14.08005000 / -0.89102570 -0.45395290 0.00000000 / 42 141 11 255 / -5.49092600 2.62684200 / 0.45395290 -0.89102570 -0.00001260 1.00000000
				-8.90571000 20.25148000 -14.08005000 / -0.89102570 -0.45395290 0.00000000 / 42 141 11 255 / -5.49092600 2.62684200 / 0.45395290 -0.89102570 -0.00000700 1.00000000
				-12.29582000 27.38907000 -14.08005000 / 0.89102570 0.45395290 0.00000000 / 42 141 11 255 / -7.86964400 2.78465500 / 0.44846690 -0.88025760 -0.15499670 -1.00000000
				-12.29582000 27.38907000 -14.08005000 / 0.89102570 0.45395290 0.00000000 / 42 141 11 255 / -7.86964400 2.78465500 / 0.44846690 -0.88025760 -0.15499680 -1.00000000
				-9.40546200 21.71593000 -11.82673000 / 0.89102570 0.45395290 0.00000000 / 42 141 11 255 / -5.95219700 2.41203900 / 0.45395290 -0.89102570 -0.00000280 -1.00000000
				-12.29582000 27.38907000 -14.08005000 / 0.89102570 0.45395290 0.00000000 / 42 141 11 255 / -7.86964400 2.78465500 / 0.44846690 -0.88025770 -0.15499640 -1.00000000
				-9.53446700 21.96915000 -14.08005000 / 0.89102570 0.45395290 0.00000000 / 42 141 11 255 / -6.03778300 2.62684300 / 0.45395300 -0.89102570 -0.00000290 -1.00000000
				-13.36403000 18.03590000 -11.82673000 / -0.44766770 0.89419100 0.00400550 / 42 141 11 255 / -5.49092600 2.41204000 / -0.89419820 -0.44767130 -0.00000810 1.00000000
				-9.53446700 21.96915000 -14.08005000 / 0.89102570 0.45395290 0.00000000 / 42 141 11 255 / -6.03778300 2.62684300 / 0.45395090 -0.89102180 0.00299250 -1.00000000
			}
		}
	}
}
