Version 165 32
{
	Locked False
	Skinned False
	BoneCount 0
	Mask 255
	Bounds
	{
		Aabb
		{
			Min -38.38037000 -1.86669900 -16.96680000
			Max -17.91309000 24.82178000 -16.89453000
		}
	}
	Geometries
	{
		Geometry
		{
			ShaderIndex 5
			Flags -
			VertexDeclaration N209731BE
			Indices 66
			{
				23 26 29 30 32 24 0 50 47 63 18 55 35 38 5
				54 51 36 6 40 41 43 13 25 58 31 45 46 48 14
				20 21 37 49 52 61 27 28 42 53 56 64 33 34 57
				59 3 7 15 39 60 62 11 22 44 1 2 4 8 65
				9 12 16 17 19 10
			}
			Vertices 66
			{
				-34.56885000 1.96777300 -16.96680000 / 0.00000000 0.00000000 -1.00000000 / 42 141 11 255 / 0.07086180 0.34570310
				-17.97754000 24.69238000 -16.96680000 / 0.00000000 0.00000000 -1.00000000 / 42 141 11 255 / 0.07086180 0.34571840
				-18.02588000 24.78906000 -16.96680000 / 0.00000000 0.00000000 -1.00000000 / 42 141 11 255 / 0.07086180 0.32812500
				-29.02637000 19.18408000 -16.96680000 / 0.00000000 0.00000000 -1.00000000 / 42 141 11 255 / 0.07086180 0.32812500
				-18.02588000 24.78906000 -16.96680000 / 0.00000000 0.00000000 -1.00000000 / 42 141 11 255 / 0.07086180 0.32812500
				-34.91748000 16.18213000 -16.96680000 / 0.00000000 0.00000000 -1.00000000 / 42 141 11 255 / 0.07086180 0.32812500
				-36.14990000 4.82568400 -16.96680000 / 0.00000000 0.00000000 -1.00000000 / 42 141 11 255 / 0.07086180 0.34570310
				-28.97803000 19.08740000 -16.96680000 / 0.00000000 0.00000000 -1.00000000 / 42 141 11 255 / 0.07086180 0.34570310
				-17.96143000 24.82178000 -16.96680000 / 0.00000000 0.00000000 -1.00000000 / 42 141 11 255 / 0.07086180 0.32812500
				-19.37354000 23.98096000 -16.89453000 / 0.00000000 0.00000000 -1.00000000 / 42 141 11 255 / 0.07086180 0.34570310
				-19.37354000 23.98096000 -16.89453000 / 0.00000000 0.00000000 -1.00000000 / 42 141 11 255 / 0.07086180 0.34570310
				-20.87500000 23.33594000 -16.96680000 / 0.00000000 0.00000000 -1.00000000 / 42 141 11 255 / 0.77603150 0.32824710
				-19.43799000 23.94824000 -16.89453000 / 0.00000000 0.00000000 -1.00000000 / 42 141 11 255 / 0.07086180 0.34571840
				-36.24658000 4.77734400 -16.96680000 / 0.00000000 0.00000000 -1.00000000 / 42 141 11 255 / 0.07086180 0.32812500
				-37.61133000 7.72998000 -16.96680000 / 0.00000000 0.00000000 -1.00000000 / 42 141 11 255 / 0.07086180 0.34570310
				-18.02637000 24.78857000 -16.89453000 / -0.45436940 0.89080810 0.00305200 / 42 141 11 255 / 0.18164060 0.32812500
				-19.48633000 24.04492000 -16.89453000 / 0.00000000 0.00000000 -1.00000000 / 42 141 11 255 / 0.07086180 0.32812500
				-19.48633000 24.04492000 -16.89453000 / 0.00000000 0.00000000 -1.00000000 / 42 141 11 255 / 0.07086180 0.32812500
				-34.66406000 1.91650400 -16.96680000 / 0.00000000 0.00000000 -1.00000000 / 42 141 11 255 / 0.07086180 0.32812500
				-19.42187000 24.07764000 -16.89453000 / 0.00000000 0.00000000 -1.00000000 / 42 141 11 255 / 0.07086180 0.32812500
				-38.25537000 10.89355000 -16.96680000 / 0.00000000 0.00000000 -1.00000000 / 42 141 11 255 / 0.07086180 0.34570310
				-38.27783000 10.82471000 -16.96680000 / 0.00000000 0.00000000 -1.00000000 / 42 141 11 255 / 0.07086180 0.34571840
				-18.02588000 24.78906000 -16.96680000 / 0.00000000 0.00000000 -1.00000000 / 42 141 11 255 / 0.18209840 0.32814020
				-32.52979000 -1.75195300 -16.96680000 / 0.00000000 0.00000000 -1.00000000 / 42 141 11 255 / 0.07086180 0.34570310
				-32.52979000 -1.75195300 -16.96680000 / 0.00000000 0.00000000 -1.00000000 / 42 141 11 255 / 0.07086180 0.34570310
				-36.14990000 4.82568400 -16.96680000 / 0.00000000 0.00000000 -1.00000000 / 42 141 11 255 / 0.07086180 0.34570310
				-32.49463000 -1.81494100 -16.96680000 / 0.00000000 0.00000000 -1.00000000 / 42 141 11 255 / 0.07086180 0.34571840
				-31.89111000 17.60254000 -16.96680000 / 0.00000000 0.00000000 -1.00000000 / 42 141 11 255 / 0.07086180 0.34570310
				-31.95557000 17.56982000 -16.96680000 / 0.00000000 0.00000000 -1.00000000 / 42 141 11 255 / 0.07086180 0.34571840
				-32.58984000 -1.86669900 -16.96680000 / 0.00000000 0.00000000 -1.00000000 / 42 141 11 255 / 0.07086180 0.32812500
				-32.58984000 -1.86669900 -16.96680000 / 0.00000000 0.00000000 -1.00000000 / 42 141 11 255 / 0.07086180 0.32812500
				-37.59619000 7.65917900 -16.96680000 / 0.00000000 0.00000000 -1.00000000 / 42 141 11 255 / 0.07086180 0.34571840
				-32.62500000 -1.80322300 -16.96680000 / 0.00000000 0.00000000 -1.00000000 / 42 141 11 255 / 0.07086180 0.32812500
				-28.97803000 19.08740000 -16.96680000 / 0.00000000 0.00000000 -1.00000000 / 42 141 11 255 / 0.07086180 0.34570310
				-29.04248000 19.05420000 -16.96680000 / 0.00000000 0.00000000 -1.00000000 / 42 141 11 255 / 0.07086180 0.34571840
				-34.80469000 16.11816000 -16.96680000 / 0.00000000 0.00000000 -1.00000000 / 42 141 11 255 / 0.07086180 0.34570310
				-34.80469000 16.11816000 -16.96680000 / 0.00000000 0.00000000 -1.00000000 / 42 141 11 255 / 0.07086180 0.34570310
				-38.38037000 10.85889000 -16.96680000 / 0.00000000 0.00000000 -1.00000000 / 42 141 11 255 / 0.07086180 0.32812500
				-34.86914000 16.08545000 -16.96680000 / 0.00000000 0.00000000 -1.00000000 / 42 141 11 255 / 0.07086180 0.34571840
				-18.02588000 24.78906000 -16.96680000 / -0.45436940 0.89080810 0.00305200 / 42 141 11 255 / 0.18164060 0.34570310
				-36.11719000 4.76123000 -16.96680000 / 0.00000000 0.00000000 -1.00000000 / 42 141 11 255 / 0.07086180 0.34571840
				-36.21387000 4.71337900 -16.96680000 / 0.00000000 0.00000000 -1.00000000 / 42 141 11 255 / 0.07086180 0.32812500
				-32.00391000 17.66650000 -16.96680000 / 0.00000000 0.00000000 -1.00000000 / 42 141 11 255 / 0.07086180 0.32812500
				-36.21387000 4.71337900 -16.96680000 / 0.00000000 0.00000000 -1.00000000 / 42 141 11 255 / 0.07086180 0.32812500
				-17.91309000 24.72510000 -16.96680000 / 0.00000000 0.00000000 -1.00000000 / 42 141 11 255 / 0.07086180 0.34570310
				-37.70215000 7.63769500 -16.96680000 / 0.00000000 0.00000000 -1.00000000 / 42 141 11 255 / 0.07086180 0.32812500
				-37.70215000 7.63769500 -16.96680000 / 0.00000000 0.00000000 -1.00000000 / 42 141 11 255 / 0.07086180 0.32812500
				-34.62891000 1.85302700 -16.96680000 / 0.00000000 0.00000000 -1.00000000 / 42 141 11 255 / 0.07086180 0.32812500
				-37.71729000 7.70849600 -16.96680000 / 0.00000000 0.00000000 -1.00000000 / 42 141 11 255 / 0.07086180 0.32812500
				-38.38037000 10.85889000 -16.96680000 / 0.00000000 0.00000000 -1.00000000 / 42 141 11 255 / 0.07086180 0.32812500
				-34.53369000 1.90478500 -16.96680000 / 0.00000000 0.00000000 -1.00000000 / 42 141 11 255 / 0.07086180 0.34571840
				-34.85303000 16.21484000 -16.96680000 / 0.00000000 0.00000000 -1.00000000 / 42 141 11 255 / 0.07086180 0.32812500
				-38.35791000 10.92773000 -16.96680000 / 0.00000000 0.00000000 -1.00000000 / 42 141 11 255 / 0.07086180 0.32812500
				-32.00391000 17.66650000 -16.96680000 / 0.00000000 0.00000000 -1.00000000 / 42 141 11 255 / 0.07086180 0.32812500
				-34.91748000 16.18213000 -16.96680000 / 0.00000000 0.00000000 -1.00000000 / 42 141 11 255 / 0.07086180 0.32812500
				-34.56885000 1.96777300 -16.96680000 / 0.00000000 0.00000000 -1.00000000 / 42 141 11 255 / 0.07086180 0.34570310
				-31.93945000 17.69922000 -16.96680000 / 0.00000000 0.00000000 -1.00000000 / 42 141 11 255 / 0.07086180 0.32812500
				-29.09082000 19.15088000 -16.96680000 / 0.00000000 0.00000000 -1.00000000 / 42 141 11 255 / 0.07086180 0.32812500
				-37.61133000 7.72998000 -16.96680000 / 0.00000000 0.00000000 -1.00000000 / 42 141 11 255 / 0.07086180 0.34570310
				-29.09082000 19.15088000 -16.96680000 / 0.00000000 0.00000000 -1.00000000 / 42 141 11 255 / 0.07086180 0.32812500
				-20.87500000 23.33594000 -16.96680000 / -0.45436940 0.89080810 0.00305200 / 42 141 11 255 / 0.77555850 0.34565740
				-38.25537000 10.89355000 -16.96680000 / 0.00000000 0.00000000 -1.00000000 / 42 141 11 255 / 0.07086180 0.34570310
				-20.82617000 23.23975000 -16.96680000 / 0.00000000 0.00000000 -1.00000000 / 42 141 11 255 / 0.77563470 0.34593200
				-34.62891000 1.85302700 -16.96680000 / 0.00000000 0.00000000 -1.00000000 / 42 141 11 255 / 0.07086180 0.32812500
				-31.89111000 17.60254000 -16.96680000 / 0.00000000 0.00000000 -1.00000000 / 42 141 11 255 / 0.07086180 0.34570310
				-17.91309000 24.72510000 -16.96680000 / 0.00000000 0.00000000 -1.00000000 / 42 141 11 255 / 0.07086180 0.34570310
			}
		}
	}
}
