Version 165 32
{
	Locked False
	Skinned False
	BoneCount 0
	Mask 255
	Bounds
	{
		Aabb
		{
			Min -11.88573000 9.51716700 -17.57749000
			Max -7.52241200 15.74720000 -17.15228000
		}
	}
	Geometries
	{
		Geometry
		{
			ShaderIndex 7
			Flags -
			VertexDeclaration N51263BB5
			Indices 21
			{
				7 20 6 10 8 15 0 12 17 11 4 1 2 13 14
				5 16 18 19 9 3
			}
			Vertices 21
			{
				-11.66311000 14.42800000 -17.57749000 / 0.00000000 0.00000000 1.00000000 / 42 141 11 255 / 9.09704400 10.30897000 / 0.45409860 -0.89095150 0.00000000 1.00000000
				-7.91982300 11.20398000 -17.15228000 / -0.19748810 -0.10050820 0.97513930 / 42 141 11 255 / 12.58442000 8.97039800 / 0.45358040 -0.89121540 0.00000240 1.00000000
				-7.91982300 11.20398000 -17.15228000 / -0.19744040 -0.10060350 0.97513910 / 42 141 11 255 / 12.58442000 8.97039800 / 0.45356960 -0.89122090 -0.00010970 1.00000000
				-7.85731600 11.08114000 -17.15228000 / -0.19757070 -0.10052590 0.97512070 / 42 141 11 255 / 12.68946000 8.97040300 / 0.45403600 -0.89098330 0.00014080 1.00000000
				-7.85731600 11.08114000 -17.15228000 / -0.19748810 -0.10050820 0.97513930 / 42 141 11 255 / 12.68946000 8.97040300 / 0.45358040 -0.89121540 0.00000240 1.00000000
				-7.85731600 11.08114000 -17.15228000 / -0.19744040 -0.10060350 0.97513910 / 42 141 11 255 / 12.68946000 8.97040300 / 0.45401860 -0.89099220 0.00000480 1.00000000
				-10.23173000 15.74720000 -17.15228000 / -0.19748810 -0.10050820 0.97513930 / 42 141 11 255 / 8.69624800 8.97022900 / 0.45357050 -0.89122040 -0.00000020 1.00000000
				-9.72753300 10.63036000 -17.57749000 / -0.19748810 -0.10050820 0.97513930 / 42 141 11 255 / 12.34821000 10.30859000 / 0.45357050 -0.89122040 -0.00000020 1.00000000
				-10.23173000 15.74720000 -17.15228000 / -0.19712340 -0.10042140 0.97522200 / 42 141 11 255 / 8.69624800 8.97022900 / 0.70701960 -0.70367600 0.07045170 1.00000000
				-7.52241200 10.42301000 -17.15228000 / -0.19757070 -0.10052590 0.97512070 / 42 141 11 255 / 13.25266000 8.97070600 / 0.45403600 -0.89098330 0.00014080 1.00000000
				-9.72753300 10.63036000 -17.57749000 / -0.19712340 -0.10042140 0.97522200 / 42 141 11 255 / 12.34821000 10.30859000 / 0.70701960 -0.70367600 0.07045170 1.00000000
				-9.65893700 10.49577000 -17.57749000 / -0.19748810 -0.10050820 0.97513930 / 42 141 11 255 / 12.46333000 10.30853000 / 0.45358040 -0.89121540 0.00000240 1.00000000
				-9.72753300 10.63036000 -17.57749000 / 0.00000000 0.00000000 1.00000000 / 42 141 11 255 / 12.34821000 10.30859000 / 0.45409860 -0.89095150 0.00000000 1.00000000
				-9.72753300 10.63036000 -17.57749000 / -0.19739460 -0.10060450 0.97514830 / 42 141 11 255 / 12.34821000 10.30859000 / 0.45357390 -0.89121870 -0.00013080 1.00000000
				-9.65893700 10.49577000 -17.57749000 / -0.19739460 -0.10060450 0.97514830 / 42 141 11 255 / 12.46333000 10.30853000 / 0.45357390 -0.89121870 -0.00013080 1.00000000
				-11.88573000 14.86519000 -17.57749000 / -0.19712340 -0.10042140 0.97522200 / 42 141 11 255 / 8.72280600 9.70339900 / 0.70701960 -0.70367600 0.07045170 1.00000000
				-9.65893700 10.49577000 -17.57749000 / -0.19739460 -0.10060450 0.97514830 / 42 141 11 255 / 12.46333000 10.30853000 / 0.45402290 -0.89099000 -0.00001630 1.00000000
				-11.88573000 14.86519000 -17.57749000 / 0.00000000 0.00000000 1.00000000 / 42 141 11 255 / 8.72280600 9.70339900 / 0.45409860 -0.89095150 0.00000000 1.00000000
				-9.16016500 9.51716700 -17.57749000 / -0.19739460 -0.10060450 0.97514830 / 42 141 11 255 / 13.30104000 10.30846000 / 0.45402290 -0.89099000 -0.00001630 1.00000000
				-9.16016500 9.51716700 -17.57749000 / -0.19761650 -0.10052500 0.97511150 / 42 141 11 255 / 13.30104000 10.30846000 / 0.45403170 -0.89098550 0.00016190 1.00000000
				-7.91982300 11.20398000 -17.15228000 / -0.19748810 -0.10050820 0.97513930 / 42 141 11 255 / 12.58442000 8.97039800 / 0.45357050 -0.89122040 -0.00000020 1.00000000
			}
		}
	}
}
