Version 165 32
{
	Locked False
	Skinned False
	BoneCount 0
	Mask 255
	Bounds
	{
		Aabb
		{
			Min -16.88873000 7.55162500 -17.57764000
			Max -7.97368300 25.04821000 -12.51563000
		}
		Aabb
		{
			Min -16.88873000 7.55162500 -16.96680000
			Max -7.97368400 25.04821000 -12.51563000
		}
		Aabb
		{
			Min -16.88873000 7.55162500 -17.57764000
			Max -7.97368300 25.04821000 -16.96680000
		}
	}
	Geometries
	{
		Geometry
		{
			ShaderIndex 0
			Flags -
			VertexDeclaration N51263BB5
			Indices 42
			{
				21 0 26 14 32 27 25 36 10 40 12 11 37 2 33
				29 7 4 22 16 13 6 18 17 19 8 38 9 23 39
				41 24 28 5 20 30 1 34 3 31 15 35
			}
			Vertices 42
			{
				-7.97368400 7.55162600 -12.51563000 / 0.89100640 0.45399080 0.00000000 / 42 141 11 255 / -3.49548400 2.18328900 / 0.45399080 -0.89100640 0.00000000 -1.00000000
				-7.97368400 7.55162500 -13.43057000 / 0.89100640 0.45399080 0.00000000 / 42 141 11 255 / -3.49548400 2.41204000 / 0.45399080 -0.89100640 0.00000000 -1.00000000
				-7.97368400 7.55162500 -13.43057000 / 0.89100640 0.45399080 0.00000000 / 42 141 11 255 / -3.49548400 2.41204000 / 0.45399080 -0.89100640 -0.00000060 -1.00000000
				-8.73107600 9.03807400 -13.43057000 / 0.89102570 0.45395290 0.00000000 / 42 141 11 255 / -3.86709800 2.41204000 / 0.45395290 -0.89102570 0.00000000 -1.00000000
				-7.97368400 7.55162500 -13.43057000 / 0.89100640 0.45399080 0.00000000 / 42 141 11 255 / -3.49548400 2.41204000 / 0.45399080 -0.89100640 0.00000000 -1.00000000
				-9.80617500 11.14805000 -13.43057000 / 0.89102570 0.45395290 0.00000000 / 42 141 11 255 / -4.39459400 2.41204000 / 0.45395290 -0.89102570 -0.00000040 -1.00000000
				-12.04063000 15.53337000 -12.51563000 / 0.89102570 0.45395290 0.00000000 / 42 141 11 255 / -5.49092600 2.18328900 / 0.45395290 -0.89102570 0.00000000 -1.00000000
				-8.73107600 9.03807400 -12.89378000 / 0.89102570 0.45395290 0.00000000 / 42 141 11 255 / -3.86709800 2.27783500 / 0.45395290 -0.89102570 0.00000000 -1.00000000
				-12.04063000 15.53337000 -12.51563000 / 0.89102570 0.45395290 0.00000000 / 42 141 11 255 / -5.49092600 2.18328900 / 0.45395290 -0.89102570 0.00000000 -1.00000000
				-12.04063000 15.53337000 -12.51563000 / 0.89102570 0.45395290 0.00000000 / 42 141 11 255 / -5.49092600 2.18328900 / 0.45395290 -0.89102570 0.00000000 -1.00000000
				-12.04063000 15.53337000 -14.54620000 / 0.89102570 0.45395290 0.00000000 / 42 141 11 255 / -5.49092600 2.69096700 / 0.45395290 -0.89102570 0.00000000 -1.00000000
				-16.88873000 25.04820000 -13.43057000 / 0.89100600 0.45399150 0.00000000 / 42 141 11 255 / -7.86964400 2.41203900 / 0.45399150 -0.89100600 0.00000000 -1.00000000
				-12.04063000 15.53337000 -14.54620000 / 0.89102570 0.45395290 0.00000000 / 42 141 11 255 / -5.49092600 2.69096700 / 0.45395290 -0.89102570 0.00000000 -1.00000000
				-12.04063000 15.53337000 -13.43057000 / 0.89102570 0.45395290 0.00000000 / 42 141 11 255 / -5.49092600 2.41204000 / 0.45395290 -0.89102570 0.00000000 -1.00000000
				-12.04063000 15.53337000 -16.96680000 / 0.89102570 0.45395290 0.00000000 / 42 141 11 255 / -5.49092600 3.29615800 / 0.45395290 -0.89102570 0.00000000 -1.00000000
				-8.73107600 9.03807400 -13.43057000 / 0.89102570 0.45395290 0.00000000 / 42 141 11 255 / -3.86709800 2.41204000 / 0.45395290 -0.89102570 0.00000000 -1.00000000
				-16.88873000 25.04821000 -12.51563000 / 0.89100600 0.45399150 0.00000000 / 42 141 11 255 / -7.86964400 2.18328900 / 0.45399150 -0.89100600 0.00000000 -1.00000000
				-16.88873000 25.04821000 -12.51563000 / 0.89100600 0.45399150 0.00000000 / 42 141 11 255 / -7.86964400 2.18328900 / 0.45399150 -0.89100600 0.00000000 -1.00000000
				-12.04063000 15.53337000 -13.43057000 / 0.89102570 0.45395290 0.00000000 / 42 141 11 255 / -5.49092600 2.41204000 / 0.45395290 -0.89102570 0.00000000 -1.00000000
				-12.04063000 15.53337000 -13.43057000 / 0.89102570 0.45395290 0.00000000 / 42 141 11 255 / -5.49092600 2.41204000 / 0.45395290 -0.89102570 0.00000000 -1.00000000
				-8.73107600 9.03807400 -12.89378000 / 0.89102570 0.45395290 0.00000000 / 42 141 11 255 / -3.86709800 2.27783500 / 0.45395290 -0.89102570 -0.00000040 -1.00000000
				-8.73107500 9.03807600 -12.51563000 / 0.89102570 0.45395290 0.00000000 / 42 141 11 255 / -3.86709800 2.18328900 / 0.45395290 -0.89102570 0.00000000 -1.00000000
				-16.88873000 25.04820000 -13.43057000 / 0.89100600 0.45399150 0.00000000 / 42 141 11 255 / -7.86964400 2.41203900 / 0.45399150 -0.89100600 0.00000000 -1.00000000
				-8.73107500 9.03807600 -12.51563000 / 0.89102570 0.45395290 0.00000000 / 42 141 11 255 / -3.86709800 2.18328900 / 0.45395290 -0.89102570 0.00000000 -1.00000000
				-8.73107500 9.03807600 -12.51563000 / 0.89102570 0.45395290 0.00000000 / 42 141 11 255 / -3.86709800 2.18328900 / 0.45395290 -0.89102570 -0.00000080 -1.00000000
				-16.88873000 25.04821000 -16.96680000 / 0.89100600 0.45399150 0.00000000 / 42 141 11 255 / -7.86964400 3.29615800 / 0.45399150 -0.89100600 0.00000000 -1.00000000
				-8.73107500 9.03807400 -12.89379000 / 0.89102570 0.45395290 0.00000000 / 42 141 11 255 / -3.86709800 2.27783400 / 0.45395290 -0.89102570 0.00000000 -1.00000000
				-12.04063000 15.53337000 -14.54620000 / 0.89102570 0.45395290 0.00000000 / 42 141 11 255 / -5.49092600 2.69096700 / 0.45395290 -0.89102570 0.00000000 -1.00000000
				-8.73107500 9.03807400 -12.89379000 / 0.89102570 0.45395290 0.00000000 / 42 141 11 255 / -3.86709800 2.27783400 / 0.45395290 -0.89102570 -0.00000080 -1.00000000
				-8.73107600 9.03807400 -13.43057000 / 0.89102570 0.45395290 0.00000000 / 42 141 11 255 / -3.86709800 2.41204000 / 0.45395290 -0.89102570 0.00000000 -1.00000000
				-8.73107600 9.03807400 -13.43057000 / 0.89102570 0.45395290 0.00000000 / 42 141 11 255 / -3.86709800 2.41204000 / 0.45395290 -0.89102570 -0.00000040 -1.00000000
				-8.73107600 9.03807400 -16.96680000 / 0.89102570 0.45395290 0.00000000 / 42 141 11 255 / -3.86709800 3.29615800 / 0.45395290 -0.89102570 0.00000000 -1.00000000
				-16.88873000 25.04821000 -16.96680000 / 0.89100600 0.45399150 0.00000000 / 42 141 11 255 / -7.86964400 3.29615800 / 0.45399150 -0.89100600 0.00000000 -1.00000000
				-8.73107600 9.03807400 -12.89378000 / 0.89102570 0.45395290 0.00000000 / 42 141 11 255 / -3.86709800 2.27783500 / 0.45395290 -0.89102570 -0.00000060 -1.00000000
				-7.97368400 7.55162500 -16.96680000 / 0.89100640 0.45399080 0.00000000 / 42 141 11 255 / -3.49548400 3.29615800 / 0.45399080 -0.89100640 0.00000000 -1.00000000
				-7.97368400 7.55162500 -16.96680000 / 0.89100640 0.45399080 0.00000000 / 42 141 11 255 / -3.49548400 3.29615800 / 0.45399080 -0.89100640 0.00000000 -1.00000000
				-16.88873000 25.04820000 -13.43057000 / 0.89100600 0.45399150 0.00000000 / 42 141 11 255 / -7.86964400 2.41203900 / 0.45399150 -0.89100600 0.00000000 -1.00000000
				-7.97368400 7.55162500 -12.51563000 / 0.89100640 0.45399080 0.00000000 / 42 141 11 255 / -3.49548400 2.18328900 / 0.45399080 -0.89100640 -0.00000060 -1.00000000
				-9.80617400 11.14805000 -13.43057000 / 0.89102570 0.45395290 0.00000000 / 42 141 11 255 / -4.39459400 2.41204000 / 0.45395290 -0.89102570 0.00000000 -1.00000000
				-9.80617400 11.14805000 -13.43057000 / 0.89102570 0.45395290 0.00000000 / 42 141 11 255 / -4.39459400 2.41204000 / 0.45395290 -0.89102570 0.00000000 -1.00000000
				-12.04063000 15.53337000 -13.43057000 / 0.89102570 0.45395290 0.00000000 / 42 141 11 255 / -5.49092600 2.41204000 / 0.45395290 -0.89102570 0.00000000 -1.00000000
				-9.80617400 11.14805000 -13.43057000 / 0.89102570 0.45395290 0.00000000 / 42 141 11 255 / -4.39459400 2.41204000 / 0.45395290 -0.89102570 -0.00000080 -1.00000000
			}
		}
		Geometry
		{
			ShaderIndex 4
			Flags -
			VertexDeclaration N51263BB5
			Indices 18
			{
				4 14 5 11 0 13 8 2 6 1 7 3 17 15 9
				12 10 16
			}
			Vertices 18
			{
				-7.97368400 7.55162500 -16.96680000 / 0.89100640 0.45399080 0.00000000 / 42 141 11 255 / 4.01533500 -0.50500490 / 0.45399080 -0.89100640 0.00000000 -1.00000000
				-16.88873000 25.04821000 -16.96680000 / 0.89100600 0.45399150 0.00000000 / 42 141 11 255 / -7.75108300 -0.50500490 / 0.45399150 -0.89100600 0.00000000 -1.00000000
				-16.88873000 25.04821000 -17.57764000 / 0.89100600 0.45399150 0.00000000 / 42 141 11 255 / -7.75108300 -0.09788510 / 0.45399150 -0.89100600 0.00000000 -1.00000000
				-16.88873000 25.04821000 -17.57764000 / 0.89100600 0.45399150 0.00000000 / 42 141 11 255 / -7.75108300 -0.09788510 / 0.45399150 -0.89100600 0.00000000 -1.00000000
				-12.04063000 15.53337000 -17.57764000 / 0.89102570 0.45395290 0.00000000 / 42 141 11 255 / -1.35237200 -0.09788510 / 0.45395290 -0.89102570 0.00000000 -1.00000000
				-12.04063000 15.53337000 -17.24546000 / 0.89102570 0.45395290 0.00000000 / 42 141 11 255 / -1.35237200 -0.31928140 / 0.45395290 -0.89102570 0.00000000 -1.00000000
				-12.04063000 15.53337000 -16.96680000 / 0.89102570 0.45395290 0.00000000 / 42 141 11 255 / -1.35237200 -0.50500490 / 0.45395290 -0.89102570 0.00000000 -1.00000000
				-12.04063000 15.53337000 -16.96680000 / 0.89102570 0.45395290 0.00000000 / 42 141 11 255 / -1.35237200 -0.50500490 / 0.45395290 -0.89102570 0.00000000 -1.00000000
				-12.04063000 15.53337000 -17.24546000 / 0.89102570 0.45395290 0.00000000 / 42 141 11 255 / -1.35237200 -0.31928140 / 0.45395290 -0.89102570 0.00000000 -1.00000000
				-8.73107500 9.03807600 -17.01870000 / 0.89102570 0.45395290 0.00000000 / 42 141 11 255 / 3.01570000 -0.47041740 / 0.45395290 -0.89102570 0.00000020 -1.00000000
				-8.73107500 9.03807600 -17.01870000 / 0.89102570 0.45395290 0.00000000 / 42 141 11 255 / 3.01570000 -0.47041740 / 0.45395290 -0.89102570 0.00000000 -1.00000000
				-8.73107600 9.03807600 -16.96680000 / 0.89102570 0.45395290 0.00000000 / 42 141 11 255 / 3.01570000 -0.50500490 / 0.45395290 -0.89102570 0.00000000 -1.00000000
				-8.73107500 9.03807600 -17.57764000 / 0.89102570 0.45395290 0.00000000 / 42 141 11 255 / 3.01570000 -0.09788510 / 0.45395290 -0.89102570 0.00000000 -1.00000000
				-8.73107500 9.03807400 -17.01870000 / 0.89102570 0.45395290 0.00000000 / 42 141 11 255 / 3.01570000 -0.47041740 / 0.45395290 -0.89102570 0.00000000 -1.00000000
				-16.88873000 25.04821000 -17.57764000 / 0.89100600 0.45399150 0.00000000 / 42 141 11 255 / -7.75108300 -0.09788510 / 0.45399150 -0.89100600 0.00000000 -1.00000000
				-7.97368300 7.55162500 -17.57764000 / 0.89100640 0.45399080 0.00000000 / 42 141 11 255 / 4.01533500 -0.09788510 / 0.45399080 -0.89100640 0.00000020 -1.00000000
				-7.97368300 7.55162500 -17.57764000 / 0.89100640 0.45399080 0.00000000 / 42 141 11 255 / 4.01533500 -0.09788510 / 0.45399080 -0.89100640 0.00000000 -1.00000000
				-7.97368300 7.55162600 -16.96680000 / 0.89100640 0.45399080 0.00000000 / 42 141 11 255 / 4.01533500 -0.50500490 / 0.45399080 -0.89100640 0.00000020 -1.00000000
			}
		}
	}
}
