Version 165 32
{
	Locked False
	Skinned False
	BoneCount 0
	Mask 255
	Bounds
	{
		Aabb
		{
			Min -16.83590000 17.97496000 -13.49755000
			Max -8.92704200 27.15819000 -13.48483000
		}
	}
	Geometries
	{
		Geometry
		{
			ShaderIndex 13
			Flags -
			VertexDeclaration N209731BE
			Indices 33
			{
				0 28 29 30 1 27 9 7 2 4 10 13 14 12 5
				31 18 6 8 19 16 3 32 23 25 17 15 24 11 20
				21 22 26
			}
			Vertices 33
			{
				-10.12972000 21.92242000 -13.49744000 / 0.00000000 0.00000000 -1.00000000 / 42 141 11 255 / -1.02528400 0.65371700
				-11.04956000 19.15135000 -13.49742000 / 0.00000000 0.00000000 -1.00000000 / 42 141 11 255 / 0.70918270 -1.04356400
				-11.04956000 19.15135000 -13.49742000 / 0.00000000 0.00000000 -1.00000000 / 42 141 11 255 / 0.70918270 -1.04356400
				-12.19477000 21.42086000 -13.49746000 / 0.00000000 0.00000000 -1.00000000 / 42 141 11 255 / 0.69143680 1.06942800
				-10.69465000 23.01883000 -13.49746000 / 0.00028610 0.00133510 -0.99999910 / 42 141 11 255 / -1.02531400 1.67143300
				-10.69465000 23.01883000 -13.49746000 / 0.00028610 0.00133510 -0.99999910 / 42 141 11 255 / -1.02531400 1.67143300
				-10.69465000 23.01883000 -13.49746000 / 0.00028610 0.00133510 -0.99999910 / 42 141 11 255 / -1.02531400 1.67143300
				-10.12972000 21.92242000 -13.49744000 / 0.00000000 0.00000000 -1.00000000 / 42 141 11 255 / -1.02528400 0.65371700
				-10.69465000 23.01883000 -13.49746000 / 0.00028610 0.00133510 -0.99999910 / 42 141 11 255 / -1.02531400 1.67143300
				-10.69465000 23.01883000 -13.49746000 / 0.00028610 0.00133510 -0.99999910 / 42 141 11 255 / -1.02531400 1.67143300
				-12.20935000 27.15819000 -13.48483000 / 0.00314700 0.00419600 -0.99998640 / 42 141 11 255 / -1.44155900 5.28237900
				-14.49719000 20.23505000 -13.49747000 / 0.00000000 0.00000000 -1.00000000 / 42 141 11 255 / 2.84378000 1.06958000
				-12.20935000 27.15819000 -13.48483000 / 0.00314700 0.00419600 -0.99998640 / 42 141 11 255 / -1.44155900 5.28237900
				-10.20678000 23.27021000 -13.49697000 / -0.00047680 0.00286090 -0.99999590 / 42 141 11 255 / -1.41545100 1.69245900
				-14.46729000 25.99478000 -13.49753000 / 0.00123970 0.00152580 -0.99999800 / 42 141 11 255 / 0.62931830 5.28237900
				-12.19477000 21.42086000 -13.49746000 / 0.00000000 0.00000000 -1.00000000 / 42 141 11 255 / 0.69143680 1.06942800
				-14.46729000 25.99478000 -13.49753000 / 0.00123970 0.00152580 -0.99999800 / 42 141 11 255 / 0.62931830 5.28237900
				-14.46729000 25.99478000 -13.49753000 / 0.00123970 0.00152580 -0.99999800 / 42 141 11 255 / 0.62931830 5.28237900
				-12.19477000 21.42086000 -13.49746000 / 0.00000000 0.00000000 -1.00000000 / 42 141 11 255 / 0.69143680 1.06942800
				-12.19477000 21.42086000 -13.49746000 / 0.00000000 0.00000000 -1.00000000 / 42 141 11 255 / 0.69143680 1.06942800
				-12.19477000 21.42086000 -13.49746000 / 0.00000000 0.00000000 -1.00000000 / 42 141 11 255 / 0.69143680 1.06942800
				-12.19477000 21.42086000 -13.49746000 / 0.00000000 0.00000000 -1.00000000 / 42 141 11 255 / 0.69143680 1.06942800
				-14.49719000 20.23505000 -13.49747000 / 0.00000000 0.00000000 -1.00000000 / 42 141 11 255 / 2.84378000 1.06958000
				-13.33266000 17.97496000 -13.49743000 / 0.00000000 0.00000000 -1.00000000 / 42 141 11 255 / 2.84375000 -1.04356400
				-13.33266000 17.97496000 -13.49743000 / 0.00000000 0.00000000 -1.00000000 / 42 141 11 255 / 2.84375000 -1.04356400
				-16.83590000 24.77433000 -13.49755000 / 0.00000000 0.00000000 -1.00000000 / 42 141 11 255 / 2.84378000 5.28237900
				-16.83590000 24.77433000 -13.49755000 / 0.00000000 0.00000000 -1.00000000 / 42 141 11 255 / 2.84378000 5.28237900
				-10.12972000 21.92242000 -13.49744000 / 0.00000000 0.00000000 -1.00000000 / 42 141 11 255 / -1.02528400 0.65371700
				-9.86233100 22.06019000 -13.49744000 / 0.00000000 0.00000000 -1.00000000 / 42 141 11 255 / -1.27516200 0.65367130
				-8.92704200 20.24498000 -13.49741000 / 0.00000000 0.00000000 -1.00000000 / 42 141 11 255 / -1.27516200 -1.04356400
				-8.92704200 20.24498000 -13.49741000 / 0.00000000 0.00000000 -1.00000000 / 42 141 11 255 / -1.27516200 -1.04356400
				-11.04956000 19.15135000 -13.49742000 / 0.00000000 0.00000000 -1.00000000 / 42 141 11 255 / 0.70918270 -1.04356400
				-11.04956000 19.15135000 -13.49742000 / 0.00000000 0.00000000 -1.00000000 / 42 141 11 255 / 0.70918270 -1.04356400
			}
		}
	}
}
