Version 165 32
{
	Locked False
	Skinned False
	BoneCount 0
	Mask 255
	Bounds
	{
		Aabb
		{
			Min -1.27685500 -6.09326200 -1.33767800
			Max 1.27636700 5.84472700 1.27612300
		}
		Aabb
		{
			Min -1.27685500 -6.09326200 -1.33767800
			Max 1.27636700 5.84472700 1.23022500
		}
		Aabb
		{
			Min -1.27636700 -6.05126900 -1.26635800
			Max 1.27636700 5.84472700 -1.21362300
		}
		Aabb
		{
			Min -0.00048790 -5.99899300 -1.22045900
			Max 1.27587900 -5.99899300 1.27612300
		}
		Aabb
		{
			Min -1.27685500 -5.99899300 -1.22045900
			Max -0.00048790 -5.99899300 1.27612300
		}
	}
	Geometries
	{
		Geometry
		{
			ShaderIndex 0
			Flags -
			VertexDeclaration N51263BB5
			Indices 57
			{
				0 20 40 41 44 1 47 49 52 53 54 48 55 2 3
				4 5 56 6 9 10 7 11 12 8 13 14 15 19 21
				16 22 23 17 24 25 18 26 27 28 32 33 29 34 35
				30 36 37 31 38 39 43 46 45 51 42 50
			}
			Vertices 57
			{
				1.27636700 -6.06201200 -1.26635800 / 0.00000000 0.00000000 1.00000000 / 255 255 0 255 / -2.02569600 0.98715210 / 0.00000000 1.00000000 0.00000000 1.00000000
				1.27636700 -6.06201200 -1.26635800 / 0.00000000 0.00000000 1.00000000 / 255 255 0 255 / -2.02569600 0.98715210 / 0.00000000 1.00000000 0.00000000 1.00000000
				-1.27636700 5.84472700 -1.21362300 / 0.00000000 -1.00000000 0.00000000 / 211 211 0 255 / 2.36048900 1.00256300 / 1.00000000 0.00000000 0.00000000 1.00000000
				1.27636700 5.84472700 -1.21362300 / 0.00000000 -1.00000000 0.00000000 / 211 211 0 255 / 4.74235500 1.00256300 / 1.00000000 0.00000000 0.00000000 1.00000000
				1.27636700 5.84472700 -1.21362300 / 0.00000000 -1.00000000 0.00000000 / 211 211 0 255 / 4.74235500 1.00256300 / 1.00000000 0.00000000 0.00000000 1.00000000
				1.27636700 5.84472700 1.22827100 / 0.00000000 -1.00000000 0.00000000 / 211 211 0 255 / 4.74235500 -0.00767520 / 1.00000000 0.00000000 0.00000000 1.00000000
				-1.27636700 -6.09326200 1.23022500 / 0.99999240 -0.00391010 0.00000000 / 212 212 0 255 / 0.45819090 0.00428770 / 0 0 0 1.00000000
				-1.27636700 -6.09326200 1.23022500 / 0.99999240 -0.00391010 0.00000000 / 212 212 0 255 / 0.45819090 0.00428770 / 0 0 0 1.00000000
				-1.27636700 -6.09326200 1.23022500 / 0.99999240 -0.00391010 0.00000000 / 212 212 0 255 / 0.45819090 0.00428770 / 0 0 0 1.00000000
				-1.27685500 -6.09326200 1.07592800 / 0.99999240 -0.00391010 0.00000000 / 212 212 0 255 / 0.45819090 0.03100590 / -0.00391010 -0.99999240 0.00000000 -1.00000000
				-1.27636700 -6.06201200 1.07592800 / 0.99999240 -0.00391010 0.00000000 / 212 212 0 255 / 0.45278930 0.03100590 / -0.00390820 -0.99950440 0.03123400 -1.00000000
				-1.27636700 -6.06201200 1.07592800 / 0.99999240 -0.00391010 0.00000000 / 212 212 0 255 / 0.45278930 0.03100590 / -0.00390820 -0.99950440 0.03123400 -1.00000000
				-1.27636700 -6.06201200 1.22827100 / 0.99999240 -0.00391010 0.00000000 / 212 212 0 255 / 0.45278930 0.00428770 / 0 0 0 1.00000000
				-1.27636700 -6.06201200 1.22827100 / 0.99999240 -0.00391010 0.00000000 / 212 212 0 255 / 0.45278930 0.00428770 / 0 0 0 1.00000000
				-1.27636700 -6.06201200 1.23022500 / 0.99999240 -0.00391010 0.00000000 / 212 212 0 255 / 0.45278930 0.00428770 / 0 0 0 1.00000000
				-1.27636700 -6.06201200 1.22827100 / 1.00000000 0.00000000 0.00000000 / 211 211 0 255 / -2.00276200 -0.00767520 / 0.00000000 0.99993640 -0.01127990 1.00000000
				-1.27636700 -6.06201200 1.22827100 / 1.00000000 0.00000000 0.00000000 / 211 211 0 255 / -2.00276200 -0.00767520 / 0.00000000 0.99993640 -0.01127990 1.00000000
				-1.27636700 -6.06201200 1.22827100 / 1.00000000 0.00000000 0.00000000 / 211 211 0 255 / -2.00276200 -0.00767520 / 0.00000000 0.99993640 -0.01127990 1.00000000
				-1.27636700 -6.06201200 1.22827100 / 1.00000000 0.00000000 0.00000000 / 211 211 0 255 / -2.00276200 -0.00767520 / 0.00000000 0.99993640 -0.01127990 1.00000000
				-1.27636700 -6.06201200 -1.26635800 / 1.00000000 0.00000000 0.00000000 / 211 211 0 255 / -2.00276200 1.02438400 / 0.00000000 1.00000000 0.00000000 1.00000000
				1.27636700 -6.05126900 -1.26635800 / 0.00000000 0.00000000 1.00000000 / 255 255 0 255 / -2.01580800 0.98715210 / 0.00000000 1.00000000 0.00000000 1.00000000
				-1.27636700 -6.05126900 -1.26635800 / 1.00000000 0.00000000 0.00000000 / 211 211 0 255 / -1.99290500 1.02438400 / 0.00000000 0.99974980 -0.02236910 1.00000000
				-1.27636700 -6.05126900 -1.26635800 / 1.00000000 0.00000000 0.00000000 / 211 211 0 255 / -1.99290500 1.02438400 / 0.00000000 0.99974980 -0.02236910 1.00000000
				-1.27636700 -6.05126900 -1.21362300 / 1.00000000 0.00000000 0.00000000 / 211 211 0 255 / -1.99290500 1.00256300 / 0.00000000 0.99974560 -0.02255560 1.00000000
				-1.27636700 -6.05126900 -1.21362300 / 1.00000000 0.00000000 0.00000000 / 211 211 0 255 / -1.99290500 1.00256300 / 0.00000000 0.99974560 -0.02255560 1.00000000
				-1.27636700 5.84472700 -1.21362300 / 1.00000000 0.00000000 0.00000000 / 211 211 0 255 / 9.10560600 1.00256300 / 0.00000000 1.00000000 0.00000000 1.00000000
				-1.27636700 5.84472700 -1.21362300 / 1.00000000 0.00000000 0.00000000 / 211 211 0 255 / 9.10560600 1.00256300 / 0.00000000 1.00000000 0.00000000 1.00000000
				-1.27636700 5.84472700 1.22827100 / 1.00000000 0.00000000 0.00000000 / 211 211 0 255 / 9.10560600 -0.00767520 / 0.00000000 1.00000000 0.00000000 1.00000000
				1.27636700 -6.06201200 1.22827100 / -1.00000000 0.00000000 0.00000000 / 214 214 0 255 / 9.10560600 -0.00767520 / 0.00000000 -0.99993650 0.01127070 1.00000000
				1.27636700 -6.06201200 1.22827100 / -1.00000000 0.00000000 0.00000000 / 214 214 0 255 / 9.10560600 -0.00767520 / 0.00000000 -0.99993650 0.01127070 1.00000000
				1.27636700 -6.06201200 1.22827100 / -1.00000000 0.00000000 0.00000000 / 214 214 0 255 / 9.10560600 -0.00767520 / 0.00000000 -0.99993650 0.01127070 1.00000000
				1.27636700 -6.06201200 1.22827100 / -1.00000000 0.00000000 0.00000000 / 214 214 0 255 / 9.10560600 -0.00767520 / 0.00000000 -0.99993650 0.01127070 1.00000000
				1.27636700 5.84472700 1.22827100 / -1.00000000 0.00000000 0.00000000 / 214 214 0 255 / -2.00276200 -0.00767520 / 0.00000000 -1.00000000 0.00000000 1.00000000
				1.27636700 5.84472700 -1.21362300 / -1.00000000 0.00000000 0.00000000 / 214 214 0 255 / -2.00276200 1.00256300 / 0.00000000 -1.00000000 0.00000000 1.00000000
				1.27636700 5.84472700 -1.21362300 / -1.00000000 0.00000000 0.00000000 / 214 214 0 255 / -2.00276200 1.00256300 / 0.00000000 -1.00000000 0.00000000 1.00000000
				1.27636700 -6.05126900 -1.21362300 / -1.00000000 0.00000000 0.00000000 / 214 214 0 255 / 9.09573300 1.00256300 / 0.00000000 -0.99974600 0.02253710 1.00000000
				1.27636700 -6.05126900 -1.21362300 / -1.00000000 0.00000000 0.00000000 / 214 214 0 255 / 9.09573300 1.00256300 / 0.00000000 -0.99974600 0.02253710 1.00000000
				1.27636700 -6.05126900 -1.26635800 / -1.00000000 0.00000000 0.00000000 / 214 214 0 255 / 9.09573300 1.02438400 / 0.00000000 -0.99974980 0.02236910 1.00000000
				1.27636700 -6.05126900 -1.26635800 / -1.00000000 0.00000000 0.00000000 / 214 214 0 255 / 9.09573300 1.02438400 / 0.00000000 -0.99974980 0.02236910 1.00000000
				1.27636700 -6.06201200 -1.26635800 / -1.00000000 0.00000000 0.00000000 / 214 214 0 255 / 9.10560600 1.02438400 / 0.00000000 -1.00000000 0.00000000 1.00000000
				-1.27636700 -6.05126900 -1.26635800 / 0.00000000 0.00000000 1.00000000 / 255 255 0 255 / -2.01580800 -0.01551820 / 0.00000000 1.00000000 0.00000000 1.00000000
				-1.27636700 -6.05126900 -1.26635800 / 0.00000000 0.00000000 1.00000000 / 255 255 0 255 / -2.01580800 -0.01551820 / 0.00000000 1.00000000 0.00000000 1.00000000
				-1.27636700 -6.03594700 1.22827100 / 0.00000000 1.00000000 0.00000000 / 211 211 0 255 / 0.00000000 -1.00000000 / 1.00000000 0.00000000 0.00000000 -1.00000000
				1.27636700 -6.03594700 1.22827100 / 0.00000000 1.00000000 0.00000000 / 211 211 0 255 / 1.00000000 -1.00000000 / 1.00000000 0.00000000 0.00000000 -1.00000000
				-1.27636700 -6.06201200 -1.26635800 / 0.00000000 0.00000000 1.00000000 / 255 255 0 255 / -2.02569600 -0.01551820 / 0.00000000 1.00000000 0.00000000 1.00000000
				-1.27636700 -6.03594700 -1.33767800 / 0.00000000 1.00000000 0.00000000 / 211 211 0 255 / 0.00000000 0.00000000 / 1.00000000 0.00000000 0.00000000 -1.00000000
				1.27636700 -6.03594700 -1.33767800 / 0.00000000 1.00000000 0.00000000 / 211 211 0 255 / 1.00000000 0.00000000 / 1.00000000 0.00000000 0.00000000 -1.00000000
				1.27636700 -6.06201200 1.22827100 / 0.00000000 0.00000000 -1.00000000 / 153 153 0 255 / -2.02569600 -0.01551820 / 0.00000000 1.00000000 0.00000000 1.00000000
				1.27636700 -6.06201200 1.22827100 / 0.00000000 0.00000000 -1.00000000 / 153 153 0 255 / -2.02569600 -0.01551820 / 0.00000000 1.00000000 0.00000000 1.00000000
				-1.27636700 -6.06201200 1.22827100 / 0.00000000 0.00000000 -1.00000000 / 153 153 0 255 / -2.02569600 0.98715210 / 0.00000000 1.00000000 0.00000000 1.00000000
				1.27636700 -6.03594700 1.22827100 / 0.00000000 0.99999980 0.00000000 / 211 211 0 255 / 1.00000000 -1.00000000 / 1.00000000 0.00000000 0.00000000 -1.00000000
				-1.27636700 -6.03594700 -1.33767800 / 0.00000000 0.99999980 0.00000000 / 211 211 0 255 / 0.00000000 0.00000000 / 1.00000000 0.00000000 0.00000000 -1.00000000
				-1.27636700 5.84472700 1.22827100 / 0.00000000 0.00000000 -1.00000000 / 153 153 0 255 / 9.10311900 0.98715210 / 0.00000000 1.00000000 0.00000000 1.00000000
				-1.27636700 5.84472700 1.22827100 / 0.00000000 0.00000000 -1.00000000 / 153 153 0 255 / 9.10311900 0.98715210 / 0.00000000 1.00000000 0.00000000 1.00000000
				1.27636700 5.84472700 1.22827100 / 0.00000000 0.00000000 -1.00000000 / 153 153 0 255 / 9.10311900 -0.01551820 / 0.00000000 1.00000000 0.00000000 1.00000000
				-1.27636700 5.84472700 1.22827100 / 0.00000000 -1.00000000 0.00000000 / 211 211 0 255 / 2.36048900 -0.00767520 / 1.00000000 0.00000000 0.00000000 1.00000000
				-1.27636700 5.84472700 1.22827100 / 0.00000000 -1.00000000 0.00000000 / 211 211 0 255 / 2.36048900 -0.00767520 / 1.00000000 0.00000000 0.00000000 1.00000000
			}
		}
		Geometry
		{
			ShaderIndex 1
			Flags -
			VertexDeclaration N51263BB5
			Indices 12
			{
				0 2 3 4 5 1 6 8 9 10 11 7
			}
			Vertices 12
			{
				1.27636700 5.84472700 -1.21362300 / 0.00000000 0.00000000 1.00000000 / 255 255 0 255 / 1.77652000 -5.45332300 / 1.00000000 0.00000000 0.00000000 1.00000000
				1.27636700 5.84472700 -1.21362300 / 0.00000000 0.00000000 1.00000000 / 255 255 0 255 / 1.77652000 -5.45332300 / 1.00000000 0.00000000 0.00000000 1.00000000
				-1.27636700 5.84472700 -1.21362300 / 0.00000000 0.00000000 1.00000000 / 255 255 0 255 / -0.77651980 -5.45332300 / 1.00000000 0.00000000 0.00000000 1.00000000
				-1.27636700 -6.05126900 -1.21362300 / 0.00000000 0.00000000 1.00000000 / 255 255 0 255 / -0.77651980 6.44274900 / 1.00000000 0.00000000 0.00000000 1.00000000
				-1.27636700 -6.05126900 -1.21362300 / 0.00000000 0.00000000 1.00000000 / 255 255 0 255 / -0.77651980 6.44274900 / 1.00000000 0.00000000 0.00000000 1.00000000
				1.27636700 -6.05126900 -1.21362300 / 0.00000000 0.00000000 1.00000000 / 255 255 0 255 / 1.77652000 6.44274900 / 1.00000000 0.00000000 0.00000000 1.00000000
				1.27636700 -6.05126900 -1.21362300 / 0.00000000 -1.00000000 0.00000000 / 211 211 0 255 / 1.77652000 1.69461100 / 1.00000000 0.00000000 0.00000000 1.00000000
				1.27636700 -6.05126900 -1.21362300 / 0.00000000 -1.00000000 0.00000000 / 211 211 0 255 / 1.77652000 1.69461100 / 1.00000000 0.00000000 0.00000000 1.00000000
				-1.27636700 -6.05126900 -1.21362300 / 0.00000000 -1.00000000 0.00000000 / 211 211 0 255 / -0.77651980 1.69461100 / 1.00000000 0.00000000 0.00000000 1.00000000
				-1.27636700 -6.05126900 -1.26635800 / 0.00000000 -1.00000000 0.00000000 / 211 211 0 255 / -0.77651980 1.74734500 / 1.00000000 0.00000000 0.00000000 1.00000000
				-1.27636700 -6.05126900 -1.26635800 / 0.00000000 -1.00000000 0.00000000 / 211 211 0 255 / -0.77651980 1.74734500 / 1.00000000 0.00000000 0.00000000 1.00000000
				1.27636700 -6.05126900 -1.26635800 / 0.00000000 -1.00000000 0.00000000 / 211 211 0 255 / 1.77652000 1.74734500 / 1.00000000 0.00000000 0.00000000 1.00000000
			}
		}
		Geometry
		{
			ShaderIndex 2
			Flags -
			VertexDeclaration N51263BB5
			Indices 33
			{
				0 11 12 1 13 14 2 15 16 3 17 18 4 19 20
				5 21 22 6 23 24 7 25 26 8 27 28 9 29 30
				10 31 32
			}
			Vertices 33
			{
				-0.00048790 -5.99899300 -1.22045900 / 0.00000000 1.00000000 0.00000000 / 232 232 232 255 / 0.01078800 1.00293000 / 1.00000000 0.00000000 0.00004870 -1.00000000
				-0.00048790 -5.99899300 -1.22045900 / 0.00000000 1.00000000 0.00000000 / 232 232 232 255 / 0.01078800 1.00293000 / 1.00000000 0.00000000 0.00004870 -1.00000000
				-0.00048790 -5.99899300 -1.22045900 / 0.00000000 1.00000000 0.00000000 / 232 232 232 255 / 0.01078800 1.00293000 / 1.00000000 0.00000000 0.00004870 -1.00000000
				-0.00048790 -5.99899300 -1.22045900 / 0.00000000 1.00000000 0.00000000 / 232 232 232 255 / 0.01078800 1.00293000 / 1.00000000 0.00000000 0.00004870 -1.00000000
				-0.00048790 -5.99899300 -1.22045900 / 0.00000000 1.00000000 0.00000000 / 232 232 232 255 / 0.01078800 1.00293000 / 1.00000000 0.00000000 0.00004870 -1.00000000
				-0.00048790 -5.99899300 -1.22045900 / 0.00000000 1.00000000 0.00000000 / 232 232 232 255 / 0.01078800 1.00293000 / 1.00000000 0.00000000 0.00004870 -1.00000000
				-0.00048790 -5.99899300 -1.22045900 / 0.00000000 1.00000000 0.00000000 / 232 232 232 255 / 0.01078800 1.00293000 / 1.00000000 0.00000000 0.00004870 -1.00000000
				-0.00048790 -5.99899300 -1.22045900 / 0.00000000 1.00000000 0.00000000 / 232 232 232 255 / 0.01078800 1.00293000 / 1.00000000 0.00000000 0.00004870 -1.00000000
				-0.00048790 -5.99899300 -1.22045900 / 0.00000000 1.00000000 0.00000000 / 232 232 232 255 / 0.01078800 1.00293000 / 1.00000000 0.00000000 0.00004870 -1.00000000
				-0.00048790 -5.99899300 -1.22045900 / 0.00000000 1.00000000 0.00000000 / 232 232 232 255 / 0.01078800 1.00293000 / 1.00000000 0.00000000 0.00004870 -1.00000000
				-0.00048790 -5.99899300 -1.22045900 / 0.00000000 1.00000000 0.00000000 / 232 232 232 255 / 0.01078800 1.00293000 / 1.00000000 0.00000000 0.00004870 -1.00000000
				-0.00048790 -5.99899300 1.27612300 / 0.00000000 1.00000000 0.00000000 / 227 227 227 255 / 0.01080320 0.00320430 / 1.00000000 0.00000000 0.00000000 -1.00000000
				1.27587900 -5.99899300 1.27612300 / 0.00000000 1.00000000 0.00000000 / 227 227 227 255 / 0.99340820 0.00320430 / 0.99999980 0.00000000 0.00066920 -1.00000000
				1.27587900 -5.99899300 1.27612300 / 0.00000000 1.00000000 0.00000000 / 227 227 227 255 / 0.99340820 0.00320430 / 0.99999980 0.00000000 0.00066920 -1.00000000
				1.27587900 -5.99899300 1.12182600 / 0.00000000 1.00000000 0.00000000 / 229 229 229 255 / 0.99340820 0.06503301 / 0.99999790 0.00000000 -0.00203980 -1.00000000
				1.27587900 -5.99899300 1.12182600 / 0.00000000 1.00000000 0.00000000 / 229 229 229 255 / 0.99340820 0.06503301 / 0.99999790 0.00000000 -0.00203980 -1.00000000
				1.27587900 -5.99899300 1.01733400 / 0.00000000 1.00000000 0.00000000 / 232 232 232 255 / 0.99340820 0.10675050 / 0.99999680 0.00000000 -0.00252490 -1.00000000
				1.27587900 -5.99899300 1.01733400 / 0.00000000 1.00000000 0.00000000 / 232 232 232 255 / 0.99340820 0.10675050 / 0.99999680 0.00000000 -0.00252490 -1.00000000
				1.27587900 -5.99899300 0.42749020 / 0.00000000 1.00000000 0.00000000 / 234 234 234 255 / 0.99340820 0.34301760 / 0.99999900 0.00000000 0.00149880 -1.00000000
				1.27587900 -5.99899300 0.42749020 / 0.00000000 1.00000000 0.00000000 / 234 234 234 255 / 0.99340820 0.34301760 / 0.99999900 0.00000000 0.00149880 -1.00000000
				1.27587900 -5.99899300 0.32348630 / 0.00000000 1.00000000 0.00000000 / 234 234 234 255 / 0.99340820 0.38475040 / 0.99999930 0.00000000 0.00112540 -1.00000000
				1.27587900 -5.99899300 0.32348630 / 0.00000000 1.00000000 0.00000000 / 234 234 234 255 / 0.99340820 0.38475040 / 0.99999930 0.00000000 0.00112540 -1.00000000
				1.27587900 -5.99899300 -0.26538090 / 0.00000000 1.00000000 0.00000000 / 231 231 231 255 / 0.99340820 0.62045290 / 0.99999980 0.00000000 0.00041510 -1.00000000
				1.27587900 -5.99899300 -0.26538090 / 0.00000000 1.00000000 0.00000000 / 231 231 231 255 / 0.99340820 0.62045290 / 0.99999980 0.00000000 0.00041510 -1.00000000
				1.27587900 -5.99899300 -0.36938480 / 0.00000000 1.00000000 0.00000000 / 230 230 230 255 / 0.99340820 0.66217040 / 0.99999980 0.00000000 0.00068070 -1.00000000
				1.27587900 -5.99899300 -0.36938480 / 0.00000000 1.00000000 0.00000000 / 230 230 230 255 / 0.99340820 0.66217040 / 0.99999980 0.00000000 0.00068070 -1.00000000
				1.27587900 -5.99899300 -0.96166990 / 0.00000000 1.00000000 0.00000000 / 233 233 233 255 / 0.99340820 0.89936830 / 0.99999980 0.00000000 0.00031280 -1.00000000
				1.27587900 -5.99899300 -0.96166990 / 0.00000000 1.00000000 0.00000000 / 233 233 233 255 / 0.99340820 0.89936830 / 0.99999980 0.00000000 0.00031280 -1.00000000
				1.27587900 -5.99899300 -1.06567400 / 0.00000000 1.00000000 0.00000000 / 233 233 233 255 / 0.99340820 0.94108580 / 0.99999980 0.00000000 0.00031740 -1.00000000
				1.27587900 -5.99899300 -1.06567400 / 0.00000000 1.00000000 0.00000000 / 233 233 233 255 / 0.99340820 0.94108580 / 0.99999980 0.00000000 0.00031740 -1.00000000
				1.27587900 -5.99899300 -1.17456100 / 0.00000000 1.00000000 0.00000000 / 232 232 232 255 / 0.99340820 0.98464960 / 1.00000000 0.00000000 0.00008090 -1.00000000
				1.27587900 -5.99899300 -1.17456100 / 0.00000000 1.00000000 0.00000000 / 232 232 232 255 / 0.99340820 0.98464960 / 1.00000000 0.00000000 0.00008090 -1.00000000
				1.27587900 -5.99899300 -1.22045900 / 0.00000000 1.00000000 0.00000000 / 232 232 232 255 / 0.99340820 1.00293000 / 1.00000000 0.00000000 0.00000000 -1.00000000
			}
		}
		Geometry
		{
			ShaderIndex 3
			Flags -
			VertexDeclaration N51263BB5
			Indices 27
			{
				0 2 3 6 1 4 7 5 14 8 15 16 9 17 18
				10 19 20 11 21 22 24 12 23 25 26 13
			}
			Vertices 27
			{
				-0.00048790 -5.99899300 -1.22045900 / 0.00000000 1.00000000 0.00000000 / 231 231 231 255 / 0.00463870 1.00293000 / -1.00000000 0.00000000 0.00000660 1.00000000
				-0.00048790 -5.99899300 -1.22045900 / 0.00000000 1.00000000 0.00000000 / 231 231 231 255 / 0.00463870 1.00293000 / -1.00000000 0.00000000 0.00000660 1.00000000
				-1.27685500 -5.99899300 -1.22045900 / 0.00000000 1.00000000 0.00000000 / 230 230 230 255 / 0.98724370 1.00291400 / -1.00000000 0.00000000 -0.00003160 1.00000000
				-1.27685500 -5.99899300 -1.17456100 / 0.00000000 1.00000000 0.00000000 / 232 232 232 255 / 0.98724370 0.98457340 / -0.99999900 0.00000000 0.00148570 1.00000000
				-1.27685500 -5.99899300 -1.17456100 / 0.00000000 1.00000000 0.00000000 / 232 232 232 255 / 0.98724370 0.98457340 / -0.99999900 0.00000000 0.00148570 1.00000000
				-1.27685500 -5.99899300 -1.17456100 / 0.00000000 1.00000000 0.00000000 / 232 232 232 255 / 0.98724370 0.98457340 / -0.99999900 0.00000000 0.00148570 1.00000000
				-0.00048790 -5.99899300 1.27612300 / 0.00000000 1.00000000 0.00000000 / 232 232 232 255 / 0.00462340 0.00320430 / -1.00000000 0.00000000 0.00016590 1.00000000
				-0.00048790 -5.99899300 1.27612300 / 0.00000000 1.00000000 0.00000000 / 232 232 232 255 / 0.00462340 0.00320430 / -1.00000000 0.00000000 0.00016590 1.00000000
				-0.00048790 -5.99899300 1.27612300 / 0.00000000 1.00000000 0.00000000 / 232 232 232 255 / 0.00462340 0.00320430 / -1.00000000 0.00000000 0.00016590 1.00000000
				-0.00048790 -5.99899300 1.27612300 / 0.00000000 1.00000000 0.00000000 / 232 232 232 255 / 0.00462340 0.00320430 / -1.00000000 0.00000000 0.00016590 1.00000000
				-0.00048790 -5.99899300 1.27612300 / 0.00000000 1.00000000 0.00000000 / 232 232 232 255 / 0.00462340 0.00320430 / -1.00000000 0.00000000 0.00016590 1.00000000
				-0.00048790 -5.99899300 1.27612300 / 0.00000000 1.00000000 0.00000000 / 232 232 232 255 / 0.00462340 0.00320430 / -1.00000000 0.00000000 0.00016590 1.00000000
				-0.00048790 -5.99899300 1.27612300 / 0.00000000 1.00000000 0.00000000 / 232 232 232 255 / 0.00462340 0.00320430 / -1.00000000 0.00000000 0.00016590 1.00000000
				-0.00048790 -5.99899300 1.27612300 / 0.00000000 1.00000000 0.00000000 / 232 232 232 255 / 0.00462340 0.00320430 / -1.00000000 0.00000000 0.00016590 1.00000000
				-1.27685500 -5.99899300 -1.06567400 / 0.00000000 1.00000000 0.00000000 / 233 233 233 255 / 0.98724370 0.94107060 / -0.99999970 0.00000000 0.00078670 1.00000000
				-1.27685500 -5.99899300 -1.06567400 / 0.00000000 1.00000000 0.00000000 / 233 233 233 255 / 0.98724370 0.94107060 / -0.99999970 0.00000000 0.00078670 1.00000000
				-1.27685500 -5.99899300 -0.96166990 / 0.00000000 1.00000000 0.00000000 / 231 231 231 255 / 0.98707580 0.89935300 / -0.99999860 0.00000000 -0.00167810 1.00000000
				-1.27685500 -5.99899300 -0.96166990 / 0.00000000 1.00000000 0.00000000 / 231 231 231 255 / 0.98707580 0.89935300 / -0.99999860 0.00000000 -0.00167810 1.00000000
				-1.27685500 -5.99899300 -0.26538090 / 0.00000000 1.00000000 0.00000000 / 230 230 230 255 / 0.98706050 0.62043760 / -1.00000000 0.00000000 -0.00022060 1.00000000
				-1.27685500 -5.99899300 -0.26538090 / 0.00000000 1.00000000 0.00000000 / 230 230 230 255 / 0.98706050 0.62043760 / -1.00000000 0.00000000 -0.00022060 1.00000000
				-1.27685500 -5.99899300 0.42749020 / 0.00000000 1.00000000 0.00000000 / 230 230 230 255 / 0.98706050 0.34301760 / -1.00000000 0.00000000 -0.00008440 1.00000000
				-1.27685500 -5.99899300 0.42749020 / 0.00000000 1.00000000 0.00000000 / 230 230 230 255 / 0.98706050 0.34301760 / -1.00000000 0.00000000 -0.00008440 1.00000000
				-1.27685500 -5.99899300 1.01733400 / 0.00000000 1.00000000 0.00000000 / 230 230 230 255 / 0.98722840 0.10675050 / -1.00000000 0.00000000 0.00007400 1.00000000
				-1.27685500 -5.99899300 1.01733400 / 0.00000000 1.00000000 0.00000000 / 230 230 230 255 / 0.98722840 0.10675050 / -1.00000000 0.00000000 0.00007400 1.00000000
				-1.27685500 -5.99899300 1.12182600 / 0.00000000 1.00000000 0.00000000 / 232 232 232 255 / 0.98721310 0.06501770 / -1.00000000 0.00000000 0.00018550 1.00000000
				-1.27685500 -5.99899300 1.12182600 / 0.00000000 1.00000000 0.00000000 / 232 232 232 255 / 0.98721310 0.06501770 / -1.00000000 0.00000000 0.00018550 1.00000000
				-1.27685500 -5.99899300 1.27612300 / 0.00000000 1.00000000 0.00000000 / 234 234 234 255 / 0.98722840 0.00320430 / -1.00000000 0.00000000 0.00000000 1.00000000
			}
		}
	}
}
