Version 165 32
{
	Locked False
	Skinned False
	BoneCount 0
	Mask 255
	Bounds
	{
		Aabb
		{
			Min -1.56576600 -1.60947500 -0.42675600
			Max 1.61932700 1.58286200 0.42675600
		}
		Aabb
		{
			Min -1.42974800 -1.47340600 -0.42675600
			Max 1.48090700 1.46205800 0.41875650
		}
		Aabb
		{
			Min -1.00894500 -0.93537140 0.35673350
			Max 0.99452350 0.99145560 0.42675600
		}
		Aabb
		{
			Min -1.56576600 -1.60947500 0.14557090
			Max 1.61932700 1.58286200 0.42675600
		}
		Aabb
		{
			Min -1.00894500 -0.93537140 0.35673350
			Max 0.99452350 0.99145560 0.35673350
		}
	}
	Geometries
	{
		Geometry
		{
			ShaderIndex 0
			Flags -
			VertexDeclaration N209731BE
			Indices 378
			{
				150 121 236 236 249 150 160 188 237 237 122 160 14 161 123
				123 151 14 149 250 31 31 15 149 189 32 251 251 238 189
				196 206 70 70 162 196 183 126 101 101 133 183 47 69 97
				97 129 47 78 73 200 200 233 78 226 240 110 110 222 226
				194 66 60 60 63 194 64 61 244 244 106 64 107 113 193
				193 65 107 67 192 114 114 56 67 57 245 62 62 68 57
				243 55 223 223 108 243 224 221 54 54 112 224 239 225 111
				111 105 239 109 241 104 104 242 109 91 175 71 71 207 91
				208 197 142 142 92 208 195 163 11 11 143 195 176 12 164
				164 72 176 177 90 38 38 43 177 89 144 202 202 35 89
				153 201 145 145 13 153 10 178 44 44 152 10 234 198 117
				117 41 234 42 166 76 76 235 42 167 81 74 74 77 167
				82 118 199 199 75 82 116 80 84 84 46 116 33 83 79
				79 168 33 36 34 165 165 39 36 40 115 45 45 37 40
				102 124 50 50 87 102 125 181 156 156 51 125 95 157 182
				182 134 95 88 96 135 135 103 88 86 49 53 53 59 86
				119 52 48 48 155 119 127 120 154 154 94 127 93 85 58
				58 128 93 146 136 130 130 139 146 131 137 215 215 158 131
				138 147 219 219 216 138 148 140 217 217 220 148 159 218 141
				141 132 159 172 98 2 2 169 172 184 179 0 0 99 184
				100 173 190 190 185 100 174 170 186 186 191 174 180 187 171
				171 1 180 246 229 203 203 230 246 204 227 213 213 211 204
				228 247 5 5 214 228 3 6 248 248 231 3 212 4 232
				232 205 212 22 16 7 7 19 22 209 25 8 8 17 209
				18 23 29 29 210 18 24 20 27 27 30 24 21 9 26
				26 28 21
			}
			Vertices 252
			{
				0.00804470 -1.47340600 -0.41956110 / 0.57703270 -0.57776780 -0.57725000 / 20 255 20 255 / 0.91556080 -0.52023460
				0.00804470 -1.47340600 -0.41956110 / 0.57703270 -0.57776780 -0.57725000 / 20 255 20 255 / 2.98461600 -0.08443920
				0.00804470 -1.47340600 -0.41956110 / 0.57703270 -0.57776780 -0.57725000 / 20 255 20 255 / -1.98461600 -0.52023460
				-1.42974800 0.00081060 0.14557090 / -0.57702730 0.57777530 0.57724790 / 20 255 20 255 / -0.54684110 -0.64957400
				-1.42974800 0.00081060 0.14557090 / -0.57702730 0.57777530 0.57724790 / 20 255 20 255 / 0.64957400 -1.99448500
				-1.37472400 0.00072150 0.14557090 / 0.57767670 0.57692170 0.57745200 / 20 255 20 255 / 0.35042600 -1.99448500
				-1.37472400 0.00072150 0.14557090 / 0.57767670 0.57692170 0.57745200 / 20 255 20 255 / -0.60184140 -0.64957400
				0.00097270 1.40700700 -0.41956110 / 0.57731740 -0.57742640 -0.57730710 / 20 255 20 255 / -1.97753000 -3.40062100
				0.00097270 1.40700700 -0.41956110 / 0.57731740 -0.57742640 -0.57730710 / 20 255 20 255 / 0.91556070 -3.40062100
				0.00097270 1.40700700 -0.41956110 / 0.57731740 -0.57742640 -0.57730710 / 20 255 20 255 / 2.97753000 -0.08443930
				-0.00882200 -0.56552980 -0.00143230 / 0.69209530 0.05401000 0.71978260 / 20 255 20 255 / 0.49743000 -1.42821600
				-0.00882200 -0.56552980 -0.00143230 / 0.69209530 0.05401000 0.71978260 / 20 255 20 255 / 2.96773500 -1.42821600
				-0.00882200 -0.56552980 -0.00143230 / 0.69209530 0.05401000 0.71978260 / 20 255 20 255 / 0.49743000 -1.42821600
				-0.00882200 -0.56552980 -0.00143230 / 0.69209530 0.05401000 0.71978260 / 20 255 20 255 / 2.96773500 -1.42821600
				-0.04598000 -0.02119060 0.41875650 / -0.70704570 0.70716780 0.00000000 / 20 255 20 255 / -1.93062500 -0.92275670
				-0.04598000 -0.02119060 0.41875650 / -0.70704570 0.70716780 0.00000000 / 20 255 20 255 / 0.92275670 -1.97250800
				0.00095510 1.46196900 -0.41956100 / 0.57767250 0.57692740 -0.57745060 / 20 255 20 255 / -1.97753000 -3.45562100
				0.00095510 1.46196900 -0.41956100 / 0.57767250 0.57692740 -0.57745060 / 20 255 20 255 / 0.91556070 -3.45562100
				0.00095510 1.46196900 -0.41956100 / 0.57767250 0.57692740 -0.57745060 / 20 255 20 255 / -1.97753000 -0.08443930
				-0.05415580 1.40703500 -0.41956100 / -0.57798950 -0.57676920 -0.57729140 / 20 255 20 255 / -1.92253000 -3.40062100
				-0.05415580 1.40703500 -0.41956100 / -0.57798950 -0.57676920 -0.57729140 / 20 255 20 255 / 0.08443930 -3.40062100
				-0.05415580 1.40703500 -0.41956100 / -0.57798950 -0.57676920 -0.57729140 / 20 255 20 255 / 2.92253000 -0.08443930
				-0.05406760 1.46205800 -0.41956110 / -0.57642120 0.57827760 -0.57735050 / 20 255 20 255 / -1.92253000 -3.45562100
				-0.05406760 1.46205800 -0.41956110 / -0.57642120 0.57827760 -0.57735050 / 20 255 20 255 / -1.92253000 -0.08443930
				-0.05406760 1.46205800 -0.41956110 / -0.57642120 0.57827760 -0.57735050 / 20 255 20 255 / 0.08443930 -3.45562100
				0.00097270 1.40700700 0.14557090 / 0.57731750 -0.57742660 0.57730660 / 20 255 20 255 / 0.35042560 -3.40062100
				0.00097270 1.40700700 0.14557090 / 0.57731750 -0.57742660 0.57730660 / 20 255 20 255 / 2.97753000 -0.64957440
				-0.05415580 1.40703500 0.14557090 / -0.57798890 -0.57676850 0.57729280 / 20 255 20 255 / 0.64957430 -3.40062100
				-0.05415580 1.40703500 0.14557090 / -0.57798890 -0.57676850 0.57729280 / 20 255 20 255 / 2.92252900 -0.64957430
				-0.05406760 1.46205800 0.14557090 / -0.57642170 0.57827780 0.57734990 / 20 255 20 255 / -1.92252900 -0.64957430
				-0.05406760 1.46205800 0.14557090 / -0.57642170 0.57827780 0.57734990 / 20 255 20 255 / 0.64957430 -3.45562100
				-0.04596230 -0.07615180 0.41875650 / -0.70756590 -0.70664740 0.00000000 / 20 255 20 255 / 0.92275670 -1.91750800
				-0.04596230 -0.07615180 0.41875650 / -0.70756590 -0.70664740 0.00000000 / 20 255 20 255 / 2.93062500 -0.92275670
				-0.04632710 -0.05550190 -0.07320580 / -0.73114700 -0.07835540 0.67770530 / 20 255 20 255 / 2.93025300 -1.93820200
				-0.04632710 -0.05550190 -0.07320580 / -0.73114700 -0.07835540 0.67770530 / 20 255 20 255 / 0.43079700 -1.93820200
				-0.04655460 -0.05535130 -0.16841110 / -0.73321900 -0.01355240 -0.67985760 / 20 255 20 255 / 0.33580900 -1.93841800
				-0.04655460 -0.05535130 -0.16841110 / -0.73321900 -0.01355240 -0.67985760 / 20 255 20 255 / 0.33537100 -1.93820200
				-0.04655460 -0.05535130 -0.16841110 / -0.73321900 -0.01355240 -0.67985760 / 20 255 20 255 / -1.93025300 -1.93820200
				-0.04655460 -0.05535130 -0.16841110 / -0.73321900 -0.01355240 -0.67985760 / 20 255 20 255 / -1.92982300 -1.93841800
				-0.04624030 0.56446650 -0.10204870 / -0.72036290 0.04037440 -0.69242130 / 20 255 20 255 / 0.40195280 -2.55820200
				-0.04624030 0.56446650 -0.10204870 / -0.72036290 0.04037440 -0.69242130 / 20 255 20 255 / -1.93025500 -2.55820200
				-0.04624030 0.56446650 -0.10204870 / -0.72036290 0.04037440 -0.69242130 / 20 255 20 255 / -1.93025500 -2.55820200
				-0.04624030 0.56446650 -0.10204870 / -0.72036290 0.04037440 -0.69242130 / 20 255 20 255 / 0.40195280 -2.55820200
				-0.01259280 -0.05533650 -0.17340660 / 0.62486070 -0.01013020 -0.78067050 / 20 255 20 255 / -1.96380900 -1.93841800
				-0.01259280 -0.05533650 -0.17340660 / 0.62486070 -0.01013020 -0.78067050 / 20 255 20 255 / 0.66898720 -1.93841800
				-0.01259280 -0.05533650 -0.17340660 / 0.62486070 -0.01013020 -0.78067050 / 20 255 20 255 / -1.96423900 -1.93820200
				-0.01259280 -0.05533650 -0.17340660 / 0.62486070 -0.01013020 -0.78067050 / 20 255 20 255 / 0.66982130 -1.93820200
				-0.06589030 -0.02112770 -0.16680700 / -0.99984800 0.01743140 0.00000000 / 20 255 20 255 / 0.33719490 -1.97261300
				0.62823680 -0.06494430 -0.10204870 / 0.02531720 -0.71997860 -0.69353430 / 20 255 20 255 / 3.60482300 -0.40195190
				0.62823680 -0.06494430 -0.10204870 / 0.02531720 -0.71997860 -0.69353430 / 20 255 20 255 / -2.60482300 -1.92876100
				0.62823680 -0.06494430 -0.10204870 / 0.02531720 -0.71997860 -0.69353430 / 20 255 20 255 / -2.60482300 -1.92876100
				0.62823680 -0.06494430 -0.10204870 / 0.02531720 -0.71997860 -0.69353430 / 20 255 20 255 / 3.60482300 -0.40195190
				-0.02147100 -0.05411910 -0.17413520 / 0.06948210 -0.68133720 -0.72866450 / 20 255 20 255 / 2.95503400 -0.32986740
				-0.02147100 -0.05411910 -0.17413520 / 0.06948210 -0.68133720 -0.72866450 / 20 255 20 255 / -1.95503400 -1.93955700
				-0.56821580 -0.02021500 -0.00143230 / 0.05200080 0.69163300 0.72037480 / 20 255 20 255 / 2.40842800 -1.97342800
				-0.56821580 -0.02021500 -0.00143230 / 0.05200080 0.69163300 0.72037480 / 20 255 20 255 / -1.40842800 -0.50257000
				-0.56821580 -0.02021500 -0.00143230 / 0.05200080 0.69163300 0.72037480 / 20 255 20 255 / 2.40842800 -1.97342800
				-0.56821580 -0.02021500 -0.00143230 / 0.05200080 0.69163300 0.72037480 / 20 255 20 255 / -1.40842800 -0.50257000
				-0.02100230 -0.02001950 -0.17413520 / 0.09194000 0.68022820 -0.72721140 / 20 255 20 255 / -1.95562600 -0.32986740
				-0.02100230 -0.02001950 -0.17413520 / 0.09194000 0.68022820 -0.72721140 / 20 255 20 255 / -1.95562600 -1.97353700
				-1.41919200 -0.02015830 -0.10204870 / -0.57705980 0.57759800 -0.57739290 / 20 255 20 255 / 0.40195140 -1.97342700
				-1.41919200 -0.02015830 -0.10204870 / -0.57705980 0.57759800 -0.57739290 / 20 255 20 255 / -0.55738410 -1.97342700
				-1.41919200 -0.02015830 -0.10204870 / -0.57705980 0.57759800 -0.57739290 / 20 255 20 255 / -0.55738410 -0.40195140
				-1.41922200 -0.05428650 -0.10204860 / -0.57762160 -0.57712470 -0.57730430 / 20 255 20 255 / 0.40195140 -1.93944200
				-1.41922200 -0.05428650 -0.10204860 / -0.57762160 -0.57712470 -0.57730430 / 20 255 20 255 / -0.55738430 -1.93944200
				-1.41922200 -0.05428650 -0.10204860 / -0.57762160 -0.57712470 -0.57730430 / 20 255 20 255 / 1.55738400 -0.40195140
				-1.41919200 -0.02015830 -0.00143230 / -0.57705990 0.57759850 0.57739220 / 20 255 20 255 / 0.50256970 -1.97342700
				-1.41919200 -0.02015830 -0.00143230 / -0.57705990 0.57759850 0.57739220 / 20 255 20 255 / 1.55738400 -1.97342700
				-1.41919200 -0.02015830 -0.00143230 / -0.57705990 0.57759850 0.57739220 / 20 255 20 255 / -0.55738410 -0.50256970
				-0.06648110 -0.05501560 -0.16680700 / -0.99984800 0.01743140 0.00000000 / 20 255 20 255 / 0.33719490 -1.93863300
				-0.00771900 -1.41851400 -0.10204870 / 0.57705760 -0.57784900 -0.57714390 / 20 255 20 255 / 2.96885100 -0.40195180
				-0.00771900 -1.41851400 -0.10204870 / 0.57705760 -0.57784900 -0.57714390 / 20 255 20 255 / -1.96885100 -0.57523820
				-0.00771900 -1.41851400 -0.10204870 / 0.57705760 -0.57784900 -0.57714390 / 20 255 20 255 / 0.59804820 -0.57523820
				-0.01124570 1.41376500 -0.00143230 / 0.57681610 0.57813860 0.57709520 / 20 255 20 255 / -1.96535700 -0.50257100
				-0.01124570 1.41376500 -0.00143230 / 0.57681610 0.57813860 0.57709520 / 20 255 20 255 / 2.96535700 -3.40731100
				-0.01124570 1.41376500 -0.00143230 / 0.57681610 0.57813860 0.57709520 / 20 255 20 255 / 0.49742900 -3.40731100
				-0.04514600 1.41364400 -0.00143230 / -0.57788060 0.57656370 0.57760580 / 20 255 20 255 / 0.50257100 -3.40731100
				-0.04514600 1.41364400 -0.00143230 / -0.57788060 0.57656370 0.57760580 / 20 255 20 255 / 2.93137200 -3.40731100
				-0.04514600 1.41364400 -0.00143230 / -0.57788060 0.57656370 0.57760580 / 20 255 20 255 / -1.93137200 -0.50257100
				-0.01234010 0.56458710 -0.00143230 / 0.69429690 -0.04184840 0.71847100 / 20 255 20 255 / 2.96424100 -2.55820200
				-0.01234010 0.56458710 -0.00143230 / 0.69429690 -0.04184840 0.71847100 / 20 255 20 255 / 0.49742900 -2.55820200
				-0.01234010 0.56458710 -0.00143230 / 0.69429690 -0.04184840 0.71847100 / 20 255 20 255 / 2.96424100 -2.55820200
				-0.01234010 0.56458710 -0.00143230 / 0.69429690 -0.04184840 0.71847100 / 20 255 20 255 / 0.49742900 -2.55820200
				-0.01242640 -0.05538130 -0.07320580 / 0.73145240 -0.07869500 0.67733640 / 20 255 20 255 / 2.96423900 -1.93820200
				-0.01242640 -0.05538130 -0.07320580 / 0.73145240 -0.07869500 0.67733640 / 20 255 20 255 / 0.56920300 -1.93820200
				0.62881140 -0.03078320 -0.10204870 / 0.05139570 0.71931820 -0.69277680 / 20 255 20 255 / -2.60541600 -0.40195190
				0.62881140 -0.03078320 -0.10204870 / 0.05139570 0.71931820 -0.69277680 / 20 255 20 255 / -2.60541600 -1.96274000
				0.62881140 -0.03078320 -0.10204870 / 0.05139570 0.71931820 -0.69277680 / 20 255 20 255 / -2.60541600 -1.96274000
				0.62881140 -0.03078320 -0.10204870 / 0.05139570 0.71931820 -0.69277680 / 20 255 20 255 / -2.60541600 -0.40195190
				-0.04284480 -0.56543870 -0.10204870 / -0.72119210 -0.04829120 -0.69104990 / 20 255 20 255 / 0.40195180 -1.42821600
				-0.04284480 -0.56543870 -0.10204870 / -0.72119210 -0.04829120 -0.69104990 / 20 255 20 255 / -1.93375000 -1.42821600
				-0.04284480 -0.56543870 -0.10204870 / -0.72119210 -0.04829120 -0.69104990 / 20 255 20 255 / -1.93375000 -1.42821600
				-0.04284480 -0.56543870 -0.10204870 / -0.72119210 -0.04829120 -0.69104990 / 20 255 20 255 / 0.40195180 -1.42821600
				0.62881140 -0.03078320 -0.00143230 / -0.02701970 0.69584170 0.71768680 / 20 255 20 255 / -2.60541600 -0.50257020
				0.62881140 -0.03078320 -0.00143230 / -0.02701970 0.69584170 0.71768680 / 20 255 20 255 / 3.60541600 -1.96274000
				0.62881140 -0.03078320 -0.00143230 / -0.02701970 0.69584170 0.71768680 / 20 255 20 255 / 3.60541600 -1.96274000
				0.62881140 -0.03078320 -0.00143230 / -0.02701970 0.69584170 0.71768680 / 20 255 20 255 / -2.60541600 -0.50257020
				-0.06648110 -0.05501560 -0.07978230 / -0.99984800 0.01743140 0.00000000 / 20 255 20 255 / 0.42421910 -1.93863300
				0.00802710 -1.41844400 -0.41956100 / 0.57766800 0.57693310 -0.57744960 / 20 255 20 255 / -1.98461600 -0.57523490
				0.00802710 -1.41844400 -0.41956100 / 0.57766800 0.57693310 -0.57744960 / 20 255 20 255 / 0.91556080 -0.57523490
				0.00802710 -1.41844400 -0.41956100 / 0.57766800 0.57693310 -0.57744960 / 20 255 20 255 / -1.98461600 -0.08443920
				1.48090700 -0.04767230 -0.10204870 / 0.58889930 0.56560370 -0.57731290 / 20 255 20 255 / 0.59804790 -1.94595400
				1.48090700 -0.04767230 -0.10204870 / 0.58889930 0.56560370 -0.57731290 / 20 255 20 255 / -3.45744700 -1.94595400
				1.48090700 -0.04767230 -0.10204870 / 0.58889930 0.56560370 -0.57731290 / 20 255 20 255 / -3.45744700 -0.40195220
				-0.56814000 -0.05428220 -0.10204870 / -0.04523700 -0.72169830 -0.69072790 / 20 255 20 255 / -1.40842800 -1.93944200
				-0.56814000 -0.05428220 -0.10204870 / -0.04523700 -0.72169830 -0.69072790 / 20 255 20 255 / 2.40842800 -0.40195170
				-0.56814000 -0.05428220 -0.10204870 / -0.04523700 -0.72169830 -0.69072790 / 20 255 20 255 / -1.40842800 -1.93944200
				-0.56814000 -0.05428220 -0.10204870 / -0.04523700 -0.72169830 -0.69072790 / 20 255 20 255 / 2.40842800 -0.40195170
				-0.02301070 -0.02117920 -0.17257100 / 0.54171850 0.57090120 -0.61693830 / 20 255 20 255 / -1.95361400 -0.33143160
				-0.02301070 -0.02117920 -0.17257100 / 0.54171850 0.57090120 -0.61693830 / 20 255 20 255 / -1.95361400 -1.97248200
				-0.02301070 -0.02117920 -0.17257100 / 0.54171850 0.57090120 -0.61693830 / 20 255 20 255 / 0.66856840 -1.97248200
				-0.56814000 -0.05428220 -0.00143230 / 0.05105560 -0.69116570 0.72089060 / 20 255 20 255 / 2.40842800 -0.50256990
				-0.56814000 -0.05428220 -0.00143230 / 0.05105560 -0.69116570 0.72089060 / 20 255 20 255 / 2.40842800 -1.93944200
				-0.56814000 -0.05428220 -0.00143230 / 0.05105560 -0.69116570 0.72089060 / 20 255 20 255 / 2.40842800 -0.50256990
				-0.56814000 -0.05428220 -0.00143230 / 0.05105560 -0.69116570 0.72089060 / 20 255 20 255 / 2.40842800 -1.93944200
				-0.01234010 0.56458710 -0.10204870 / 0.72004380 0.03912610 -0.69282470 / 20 255 20 255 / -1.96424100 -2.55820200
				-0.01234010 0.56458710 -0.10204870 / 0.72004380 0.03912610 -0.69282470 / 20 255 20 255 / 0.59804730 -2.55820200
				-0.01234010 0.56458710 -0.10204870 / 0.72004380 0.03912610 -0.69282470 / 20 255 20 255 / -1.96424100 -2.55820200
				-0.01234010 0.56458710 -0.10204870 / 0.72004380 0.03912610 -0.69282470 / 20 255 20 255 / 0.59804730 -2.55820200
				-0.02147100 -0.05411910 -0.07351480 / -0.08748550 -0.72882530 0.67908750 / 20 255 20 255 / 2.95503400 -0.43048570
				-0.02147100 -0.05411910 -0.07351480 / -0.08748550 -0.72882530 0.67908750 / 20 255 20 255 / 2.95503400 -1.93955700
				0.00914910 -0.02121780 -0.42675600 / 0.57798420 0.57677420 -0.57729180 / 20 255 20 255 / -1.98562500 -1.97250800
				0.00914910 -0.02121780 -0.42675600 / 0.57798420 0.57677420 -0.57729180 / 20 255 20 255 / 0.92275580 -1.97250800
				0.00914910 -0.02121780 -0.42675600 / 0.57798420 0.57677420 -0.57729180 / 20 255 20 255 / -1.98562500 -0.07724420
				1.48021000 -0.08162120 -0.10204860 / 0.56563350 -0.58878500 -0.57740040 / 20 255 20 255 / -3.45685300 -1.91197300
				1.48021000 -0.08162120 -0.10204860 / 0.56563350 -0.58878500 -0.57740040 / 20 255 20 255 / 4.45685400 -0.40195220
				1.48021000 -0.08162120 -0.10204860 / 0.56563350 -0.58878500 -0.57740040 / 20 255 20 255 / 0.59804790 -1.91197300
				-0.02100230 -0.02001950 -0.07351480 / -0.06308860 0.73236100 0.67798760 / 20 255 20 255 / 2.95562600 -1.97353700
				-0.02100230 -0.02001950 -0.07351480 / -0.06308860 0.73236100 0.67798760 / 20 255 20 255 / -1.95562600 -0.43048570
				-0.06589030 -0.02112770 -0.07978230 / -0.99984800 0.01743140 0.00000000 / 20 255 20 255 / 0.42421910 -1.97261300
				1.47835800 -0.03617530 -0.41956110 / 0.58669980 0.56772620 -0.57746880 / 20 255 20 255 / -3.45502600 -1.95739600
				1.47835800 -0.03617530 -0.41956110 / 0.58669980 0.56772620 -0.57746880 / 20 255 20 255 / -3.45502600 -0.08443960
				1.47835800 -0.03617530 -0.41956110 / 0.58669980 0.56772620 -0.57746880 / 20 255 20 255 / 0.91556040 -1.95739600
				1.48090700 -0.04767230 -0.00143230 / 0.58889900 0.56560410 0.57731260 / 20 255 20 255 / 0.49742960 -1.94595400
				1.48090700 -0.04767230 -0.00143230 / 0.58889900 0.56560410 0.57731260 / 20 255 20 255 / 4.45744700 -1.94595400
				1.48090700 -0.04767230 -0.00143230 / 0.58889900 0.56560410 0.57731260 / 20 255 20 255 / -3.45744700 -0.50257040
				1.42339200 -0.03521010 -0.41956100 / -0.56783760 0.58682530 -0.57723190 / 20 255 20 255 / -3.40003500 -1.95835500
				1.42339200 -0.03521010 -0.41956100 / -0.56783760 0.58682530 -0.57723190 / 20 255 20 255 / -3.40003500 -0.08443960
				1.42339200 -0.03521010 -0.41956100 / -0.56783760 0.58682530 -0.57723190 / 20 255 20 255 / 0.08443960 -1.95835500
				1.47751300 -0.09135440 -0.41956100 / 0.56782940 -0.58683680 -0.57722820 / 20 255 20 255 / -3.45406600 -1.90240400
				1.47751300 -0.09135440 -0.41956100 / 0.56782940 -0.58683680 -0.57722820 / 20 255 20 255 / 4.45406600 -0.08443960
				1.47751300 -0.09135440 -0.41956100 / 0.56782940 -0.58683680 -0.57722820 / 20 255 20 255 / 0.91556040 -1.90240400
				-0.04284480 -0.56543870 -0.00143230 / -0.69074620 0.04866780 0.72145770 / 20 255 20 255 / 0.50257000 -1.42821600
				-0.04284480 -0.56543870 -0.00143230 / -0.69074620 0.04866780 0.72145770 / 20 255 20 255 / 2.93375000 -1.42821600
				-0.04284480 -0.56543870 -0.00143230 / -0.69074620 0.04866780 0.72145770 / 20 255 20 255 / 0.50257000 -1.42821600
				-0.04284480 -0.56543870 -0.00143230 / -0.69074620 0.04866780 0.72145770 / 20 255 20 255 / 2.93375000 -1.42821600
				1.42254600 -0.09038640 -0.41956110 / -0.58671890 -0.56770470 -0.57747060 / 20 255 20 255 / -3.39907400 -1.90336400
				1.42254600 -0.09038640 -0.41956110 / -0.58671890 -0.56770470 -0.57747060 / 20 255 20 255 / 0.08443960 -1.90336400
				1.42254600 -0.09038640 -0.41956110 / -0.58671890 -0.56770470 -0.57747060 / 20 255 20 255 / 4.39907400 -0.08443960
				-0.04598000 -0.02119060 -0.42675600 / -0.57732180 0.57742150 -0.57730760 / 20 255 20 255 / 0.07724420 -1.97250800
				-0.04598000 -0.02119060 -0.42675600 / -0.57732180 0.57742150 -0.57730760 / 20 255 20 255 / -1.93062500 -1.97250800
				-0.04598000 -0.02119060 -0.42675600 / -0.57732180 0.57742150 -0.57730760 / 20 255 20 255 / -1.93062500 -0.07724420
				-0.01275970 -0.05529170 -0.07456380 / 0.73384720 0.10192620 0.67162440 / 20 255 20 255 / 0.57056190 -1.93841800
				-0.01275970 -0.05529170 -0.07456380 / 0.73384720 0.10192620 0.67162440 / 20 255 20 255 / 2.96380800 -1.93841800
				0.62823680 -0.06494430 -0.00143230 / -0.05229340 -0.69374950 0.71831550 / 20 255 20 255 / 3.60482300 -1.92876100
				0.62823680 -0.06494430 -0.00143230 / -0.05229340 -0.69374950 0.71831550 / 20 255 20 255 / 3.60482300 -0.50257020
				0.62823680 -0.06494430 -0.00143230 / -0.05229340 -0.69374950 0.71831550 / 20 255 20 255 / 3.60482300 -0.50257020
				0.62823680 -0.06494430 -0.00143230 / -0.05229340 -0.69374950 0.71831550 / 20 255 20 255 / 3.60482300 -1.92876100
				1.47835800 -0.03617530 0.14557090 / 0.58670010 0.56772630 0.57746840 / 20 255 20 255 / -3.45502600 -0.64957460
				1.47835800 -0.03617530 0.14557090 / 0.58670010 0.56772630 0.57746840 / 20 255 20 255 / 0.35042540 -1.95739600
				0.00914910 -0.02121780 0.41875650 / 0.70784760 0.70636520 0.00000000 / 20 255 20 255 / 0.07724330 -1.97250800
				0.00914910 -0.02121780 0.41875650 / 0.70784760 0.70636520 0.00000000 / 20 255 20 255 / -1.98562500 -0.92275670
				-0.00771900 -1.41851400 -0.00143230 / 0.57705850 -0.57784950 0.57714240 / 20 255 20 255 / 2.96885100 -0.50257000
				-0.00771900 -1.41851400 -0.00143230 / 0.57705850 -0.57784950 0.57714240 / 20 255 20 255 / 2.96885100 -0.57523820
				-0.00771900 -1.41851400 -0.00143230 / 0.57705850 -0.57784950 0.57714240 / 20 255 20 255 / 0.49743000 -0.57523820
				-0.04624030 0.56446650 -0.00143230 / -0.69440450 -0.04094320 0.71841900 / 20 255 20 255 / 0.50257100 -2.55820200
				-0.04624030 0.56446650 -0.00143230 / -0.69440450 -0.04094320 0.71841900 / 20 255 20 255 / 0.50257100 -2.55820200
				-0.04624030 0.56446650 -0.00143230 / -0.69440450 -0.04094320 0.71841900 / 20 255 20 255 / 2.93025600 -2.55820200
				-0.04624030 0.56446650 -0.00143230 / -0.69440450 -0.04094320 0.71841900 / 20 255 20 255 / 2.93025600 -2.55820200
				-0.04697850 -1.47331800 -0.41956100 / -0.57766800 -0.57693310 -0.57744960 / 20 255 20 255 / -1.92961600 -0.52023460
				-0.04697850 -1.47331800 -0.41956100 / -0.57766800 -0.57693310 -0.57744960 / 20 255 20 255 / 0.08443920 -0.52023460
				-0.04697850 -1.47331800 -0.41956100 / -0.57766800 -0.57693310 -0.57744960 / 20 255 20 255 / 2.92961600 -0.08443920
				-0.04699610 -1.41835600 -0.41956110 / -0.57703270 0.57776780 -0.57725000 / 20 255 20 255 / -1.92961600 -0.57523490
				-0.04699610 -1.41835600 -0.41956110 / -0.57703270 0.57776780 -0.57725000 / 20 255 20 255 / -1.92961600 -0.08443920
				-0.04699610 -1.41835600 -0.41956110 / -0.57703270 0.57776780 -0.57725000 / 20 255 20 255 / 0.08443920 -0.57523490
				-0.00882200 -0.56552980 -0.10204870 / 0.72265650 -0.04140930 -0.68996580 / 20 255 20 255 / -1.96773500 -1.42821600
				-0.00882200 -0.56552980 -0.10204870 / 0.72265650 -0.04140930 -0.68996580 / 20 255 20 255 / 0.59804820 -1.42821600
				-0.00882200 -0.56552980 -0.10204870 / 0.72265650 -0.04140930 -0.68996580 / 20 255 20 255 / -1.96773500 -1.42821600
				-0.00882200 -0.56552980 -0.10204870 / 0.72265650 -0.04140930 -0.68996580 / 20 255 20 255 / 0.59804820 -1.42821600
				0.00804470 -1.47340600 0.14557090 / 0.57703280 -0.57776830 0.57724950 / 20 255 20 255 / 0.35042570 -0.52023460
				0.00804470 -1.47340600 0.14557090 / 0.57703280 -0.57776830 0.57724950 / 20 255 20 255 / 2.98461600 -0.64957430
				1.48021000 -0.08162120 -0.00143230 / 0.56563320 -0.58878460 0.57740070 / 20 255 20 255 / 4.45685400 -0.50257040
				1.48021000 -0.08162120 -0.00143230 / 0.56563320 -0.58878460 0.57740070 / 20 255 20 255 / 4.45685400 -1.91197300
				1.48021000 -0.08162120 -0.00143230 / 0.56563320 -0.58878460 0.57740070 / 20 255 20 255 / 0.49742960 -1.91197300
				0.00802710 -1.41844400 0.14557090 / 0.57766770 0.57693200 0.57745090 / 20 255 20 255 / 0.35042570 -0.57523490
				0.00802710 -1.41844400 0.14557090 / 0.57766770 0.57693200 0.57745090 / 20 255 20 255 / -1.98461600 -0.64957430
				-0.04697850 -1.47331800 0.14557090 / -0.57766770 -0.57693200 0.57745090 / 20 255 20 255 / 0.64957420 -0.52023460
				-0.04697850 -1.47331800 0.14557090 / -0.57766770 -0.57693200 0.57745090 / 20 255 20 255 / 2.92961600 -0.64957420
				0.00906090 -0.07624100 0.41875650 / 0.70596590 -0.70824570 0.00000000 / 20 255 20 255 / 0.07724330 -1.91750800
				0.00906090 -0.07624100 0.41875650 / 0.70596590 -0.70824570 0.00000000 / 20 255 20 255 / 2.98562500 -0.92275670
				-0.04699610 -1.41835600 0.14557090 / -0.57703280 0.57776830 0.57724950 / 20 255 20 255 / -1.92961600 -0.64957420
				-0.04699610 -1.41835600 0.14557090 / -0.57703280 0.57776830 0.57724950 / 20 255 20 255 / 0.64957420 -0.57523490
				-1.41922200 -0.05428650 -0.00143230 / -0.57762160 -0.57712480 0.57730430 / 20 255 20 255 / 1.55738400 -1.93944200
				-1.41922200 -0.05428650 -0.00143230 / -0.57762160 -0.57712480 0.57730430 / 20 255 20 255 / 1.55738400 -0.50256970
				-1.41922200 -0.05428650 -0.00143230 / -0.57762160 -0.57712480 0.57730430 / 20 255 20 255 / 0.50256970 -1.93944200
				-0.04174180 -1.41842400 -0.00143230 / -0.57764100 -0.57685030 0.57755920 / 20 255 20 255 / 2.93486600 -0.57523820
				-0.04174180 -1.41842400 -0.00143230 / -0.57764100 -0.57685030 0.57755920 / 20 255 20 255 / 2.93486600 -0.50257000
				-0.04174180 -1.41842400 -0.00143230 / -0.57764100 -0.57685030 0.57755920 / 20 255 20 255 / 0.50257000 -0.57523820
				-0.01124530 1.41376500 -0.10204870 / 0.57682600 0.57812880 -0.57709530 / 20 255 20 255 / -1.96535700 -3.40731100
				-0.01124530 1.41376500 -0.10204870 / 0.57682600 0.57812880 -0.57709530 / 20 255 20 255 / 0.59804730 -3.40731100
				-0.01124530 1.41376500 -0.10204870 / 0.57682600 0.57812880 -0.57709530 / 20 255 20 255 / -1.96535700 -0.40195270
				-0.04678250 -0.05520110 -0.07456380 / -0.73999460 0.09013640 0.66654590 / 20 255 20 255 / 2.92982300 -1.93841800
				-0.04678250 -0.05520110 -0.07456380 / -0.73999460 0.09013640 0.66654590 / 20 255 20 255 / 0.42943810 -1.93841800
				-1.42973000 -0.05415150 -0.41956110 / -0.57766800 -0.57693050 -0.57745230 / 20 255 20 255 / -0.54684130 -1.93948500
				-1.42973000 -0.05415150 -0.41956110 / -0.57766800 -0.57693050 -0.57745230 / 20 255 20 255 / 1.54684100 -0.08443890
				-1.42973000 -0.05415150 -0.41956110 / -0.57766800 -0.57693050 -0.57745230 / 20 255 20 255 / 0.08443890 -1.93948500
				-0.04174180 -1.41842400 -0.10204860 / -0.57764180 -0.57685070 -0.57755800 / 20 255 20 255 / 2.93486600 -0.40195180
				-0.04174180 -1.41842400 -0.10204860 / -0.57764180 -0.57685070 -0.57755800 / 20 255 20 255 / -1.93486600 -0.57523820
				-0.04174180 -1.41842400 -0.10204860 / -0.57764180 -0.57685070 -0.57755800 / 20 255 20 255 / 0.40195180 -0.57523820
				0.00095510 1.46196900 0.14557090 / 0.57767210 0.57692650 0.57745180 / 20 255 20 255 / 0.35042560 -3.45562100
				0.00095510 1.46196900 0.14557090 / 0.57767210 0.57692650 0.57745180 / 20 255 20 255 / -1.97753000 -0.64957440
				-1.42973000 -0.05415150 0.14557090 / -0.57766840 -0.57693050 0.57745170 / 20 255 20 255 / 1.54684100 -0.64957400
				-1.42973000 -0.05415150 0.14557090 / -0.57766840 -0.57693050 0.57745170 / 20 255 20 255 / 0.64957400 -1.93948500
				-1.37470700 -0.05423970 0.14557090 / 0.57702770 -0.57777350 0.57724950 / 20 255 20 255 / 1.60184100 -0.64957400
				-1.37470700 -0.05423970 0.14557090 / 0.57702770 -0.57777350 0.57724950 / 20 255 20 255 / 0.35042600 -1.93948500
				1.42339200 -0.03521010 0.14557090 / -0.56783650 0.58682500 0.57723310 / 20 255 20 255 / -3.40003500 -0.64957460
				1.42339200 -0.03521010 0.14557090 / -0.56783650 0.58682500 0.57723310 / 20 255 20 255 / 0.64957460 -1.95835500
				1.47751300 -0.09135440 0.14557090 / 0.56782860 -0.58683630 0.57722950 / 20 255 20 255 / 4.45406600 -0.64957460
				1.47751300 -0.09135440 0.14557090 / 0.56782860 -0.58683630 0.57722950 / 20 255 20 255 / 0.35042540 -1.90240400
				1.42254600 -0.09038640 0.14557090 / -0.58671920 -0.56770490 0.57747010 / 20 255 20 255 / 0.64957460 -1.90336400
				1.42254600 -0.09038640 0.14557090 / -0.58671920 -0.56770490 0.57747010 / 20 255 20 255 / 4.39907400 -0.64957460
				-0.02301070 -0.02117920 -0.07978230 / 0.61263670 0.58527080 0.53116330 / 20 255 20 255 / 2.95361500 -1.97248200
				-0.02301070 -0.02117920 -0.07978230 / 0.61263670 0.58527080 0.53116330 / 20 255 20 255 / 0.57578090 -1.97248200
				-0.02301070 -0.02117920 -0.07978230 / 0.61263670 0.58527080 0.53116330 / 20 255 20 255 / -1.95361500 -0.42421910
				-0.02293490 -0.05524640 -0.07978230 / 0.61295220 -0.58518800 0.53089040 / 20 255 20 255 / 2.95361500 -1.93849700
				-0.02293490 -0.05524640 -0.07978230 / 0.61295220 -0.58518800 0.53089040 / 20 255 20 255 / 2.95361500 -0.42421910
				-0.02293490 -0.05524640 -0.07978230 / 0.61295220 -0.58518800 0.53089040 / 20 255 20 255 / 0.57578090 -1.93849700
				-1.37470700 -0.05423970 -0.41956100 / 0.57702860 -0.57777380 -0.57724820 / 20 255 20 255 / 1.60184200 -0.08443890
				-1.37470700 -0.05423970 -0.41956100 / 0.57702860 -0.57777380 -0.57724820 / 20 255 20 255 / 0.91556110 -1.93948500
				-1.37470700 -0.05423970 -0.41956100 / 0.57702860 -0.57777380 -0.57724820 / 20 255 20 255 / -0.60184160 -1.93948500
				-1.42974800 0.00081060 -0.41956100 / -0.57702830 0.57777580 -0.57724650 / 20 255 20 255 / -0.54684130 -1.99448500
				-1.42974800 0.00081060 -0.41956100 / -0.57702830 0.57777580 -0.57724650 / 20 255 20 255 / -0.54684130 -0.08443890
				-1.42974800 0.00081060 -0.41956100 / -0.57702830 0.57777580 -0.57724650 / 20 255 20 255 / 0.08443890 -1.99448500
				-0.04514600 1.41364500 -0.10204860 / -0.57787380 0.57657320 -0.57760300 / 20 255 20 255 / -1.93137200 -0.40195270
				-0.04514600 1.41364500 -0.10204860 / -0.57787380 0.57657320 -0.57760300 / 20 255 20 255 / -1.93137200 -3.40731100
				-0.04514600 1.41364500 -0.10204860 / -0.57787380 0.57657320 -0.57760300 / 20 255 20 255 / 0.40195270 -3.40731100
				0.00906090 -0.07624100 -0.42675600 / 0.57641950 -0.57828070 -0.57734930 / 20 255 20 255 / -1.98562500 -1.91750700
				0.00906090 -0.07624100 -0.42675600 / 0.57641950 -0.57828070 -0.57734930 / 20 255 20 255 / 0.92275580 -1.91750700
				0.00906090 -0.07624100 -0.42675600 / 0.57641950 -0.57828070 -0.57734930 / 20 255 20 255 / 2.98562500 -0.07724420
				-0.02293490 -0.05524640 -0.17257100 / 0.54236260 -0.57086990 -0.61640110 / 20 255 20 255 / 2.95361500 -0.33143160
				-0.02293490 -0.05524640 -0.17257100 / 0.54236260 -0.57086990 -0.61640110 / 20 255 20 255 / 0.66856840 -1.93849600
				-0.02293490 -0.05524640 -0.17257100 / 0.54236260 -0.57086990 -0.61640110 / 20 255 20 255 / -1.95361500 -1.93849600
				-0.56821580 -0.02021500 -0.10204870 / -0.04369670 0.72202160 -0.69048910 / 20 255 20 255 / -1.40842800 -1.97342800
				-0.56821580 -0.02021500 -0.10204870 / -0.04369670 0.72202160 -0.69048910 / 20 255 20 255 / -1.40842800 -0.40195170
				-0.56821580 -0.02021500 -0.10204870 / -0.04369670 0.72202160 -0.69048910 / 20 255 20 255 / -1.40842800 -1.97342800
				-0.56821580 -0.02021500 -0.10204870 / -0.04369670 0.72202160 -0.69048910 / 20 255 20 255 / -1.40842800 -0.40195170
				-1.37472400 0.00072150 -0.41956110 / 0.57767670 0.57692130 -0.57745260 / 20 255 20 255 / -0.60184160 -1.99448500
				-1.37472400 0.00072150 -0.41956110 / 0.57767670 0.57692130 -0.57745260 / 20 255 20 255 / 0.91556110 -1.99448500
				-1.37472400 0.00072150 -0.41956110 / 0.57767670 0.57692130 -0.57745260 / 20 255 20 255 / -0.60184160 -0.08443890
				-0.04596230 -0.07615180 -0.42675600 / -0.57767400 -0.57692410 -0.57745240 / 20 255 20 255 / -1.93062500 -1.91750700
				-0.04596230 -0.07615180 -0.42675600 / -0.57767400 -0.57692410 -0.57745240 / 20 255 20 255 / 0.07724420 -1.91750700
				-0.04596230 -0.07615180 -0.42675600 / -0.57767400 -0.57692410 -0.57745240 / 20 255 20 255 / 2.93062500 -0.07724420
			}
		}
		Geometry
		{
			ShaderIndex 1
			Flags -
			VertexDeclaration N209731BE
			Indices 168
			{
				39 106 26 26 55 39 84 10 2 2 104 84 102 76 90
				90 100 102 88 28 12 12 82 88 54 50 4 4 38 54
				107 79 30 30 27 107 11 68 94 94 3 11 96 91 77
				77 60 96 51 48 16 16 5 51 81 17 49 49 46 81
				47 44 32 32 80 47 45 42 86 86 33 45 43 85 105
				105 87 43 78 9 36 36 31 78 18 37 8 8 74 18
				75 72 40 40 19 75 73 70 20 20 41 73 71 89 83
				83 21 71 111 95 69 69 67 111 6 110 66 66 24 6
				98 7 25 25 64 98 15 99 65 65 62 15 63 103 101
				101 14 63 108 97 61 61 22 108 93 109 23 23 58 93
				59 56 34 34 92 59 57 52 1 1 35 57 29 0 53
				53 13 29
			}
			Vertices 112
			{
				-1.00606800 0.92200470 0.42675600 / -0.95003880 -0.31213180 0.00000000 / 115 165 115 255 / -1.88188300 -0.53501120
				-1.00606800 0.92200470 0.42675600 / -0.95003890 -0.31213180 0.00000000 / 115 165 115 255 / -1.88188300 -0.53501120
				0.99445010 0.89157580 0.42675600 / 0.84250070 0.53869550 0.00000000 / 115 165 115 255 / 2.85132700 -0.53501120
				0.99445010 0.89157580 0.42675600 / 0.84250060 0.53869540 0.00000000 / 115 165 115 255 / 2.85132700 -0.53501120
				0.92498870 -0.93245030 0.42675600 / 0.66667600 -0.74534780 0.00000000 / 115 165 115 255 / 3.93439000 -0.53501120
				0.92498870 -0.93245030 0.42675600 / 0.66667600 -0.74534780 0.00000000 / 115 165 115 255 / 3.93439000 -0.53501120
				0.96949720 0.96653460 0.42675600 / 0.25882740 0.96592370 0.00000000 / 115 165 115 255 / 2.92632700 -0.53501120
				0.96949720 0.96653460 0.42675600 / 0.25882740 0.96592370 0.00000000 / 115 165 115 255 / -2.97883500 -0.53501120
				-0.96449140 -0.92417760 0.42675600 / 0.05254760 -0.99861850 0.00000000 / 115 165 115 255 / 2.04490300 -0.53501120
				-0.96449140 -0.92417760 0.42675600 / 0.05254760 -0.99861840 0.00000000 / 115 165 115 255 / 2.04490300 -0.53501120
				0.99445010 0.89157580 0.35673350 / 0.84250060 0.53869540 0.00000000 / 115 165 115 255 / 2.85132700 -0.46498880
				0.99445010 0.89157580 0.35673350 / 0.84250070 0.53869550 0.00000000 / 115 165 115 255 / 2.85132700 -0.46498880
				-1.00894500 0.89158770 0.35673350 / -0.88778950 -0.46025020 0.00000000 / 115 165 115 255 / -1.85132800 -0.46498880
				-1.00894500 0.89158770 0.35673350 / -0.88778920 -0.46025020 0.00000000 / 115 165 115 255 / -1.85132800 -0.46498880
				0.92506500 0.98880580 0.42675600 / -0.31206020 0.95006240 0.00000000 / 115 165 115 255 / -2.93439000 -0.53501120
				0.92506500 0.98880580 0.42675600 / -0.31206020 0.95006240 0.00000000 / 115 165 115 255 / -2.93439000 -0.53501120
				0.95008610 -0.92416190 0.42675600 / 0.83855070 -0.54482390 0.00000000 / 115 165 115 255 / 3.95939000 -0.53501120
				0.95008610 -0.92416190 0.42675600 / 0.83855040 -0.54482380 0.00000000 / 115 165 115 255 / 3.95939000 -0.53501120
				-0.98391910 -0.91030310 0.35673350 / -0.25876730 -0.96593980 0.00000000 / 115 165 115 255 / 2.02545900 -0.46498880
				-0.98391910 -0.91030310 0.35673350 / -0.25876720 -0.96593960 0.00000000 / 115 165 115 255 / -0.04952220 -0.46498880
				-1.00605600 -0.86585760 0.35673350 / -0.74528310 -0.66674820 0.00000000 / 115 165 115 255 / -0.09396670 -0.46498880
				-1.00605600 -0.86585760 0.35673350 / -0.74528300 -0.66674810 0.00000000 / 115 165 115 255 / -0.09396670 -0.46498880
				-0.96440220 0.98045300 0.35673350 / -0.83855040 0.54482380 0.00000000 / 115 165 115 255 / -1.04490400 -0.46498880
				-0.96440220 0.98045300 0.35673350 / -0.83855070 0.54482390 0.00000000 / 115 165 115 255 / -1.04490400 -0.46498880
				0.96949720 0.96653460 0.35673350 / 0.25882740 0.96592370 0.00000000 / 115 165 115 255 / 2.92632700 -0.46498880
				0.96949720 0.96653460 0.35673350 / 0.25882740 0.96592370 0.00000000 / 115 165 115 255 / -2.97883500 -0.46498880
				-0.90891980 -0.93522550 0.35673350 / 0.46025020 -0.88778950 0.00000000 / 115 165 115 255 / 2.10045900 -0.46498880
				-0.90891980 -0.93522550 0.35673350 / 0.46025020 -0.88778920 0.00000000 / 115 165 115 255 / 2.10045900 -0.46498880
				-1.00894500 0.89158770 0.42675600 / -0.88776960 -0.46028790 0.00000000 / 115 165 115 255 / -1.85132800 -0.53501120
				-1.00894500 0.89158770 0.42675600 / -0.88776980 -0.46028800 0.00000000 / 115 165 115 255 / -1.85132800 -0.53501120
				-0.93938060 -0.93251470 0.35673350 / 0.31223380 -0.95000530 0.00000000 / 115 165 115 255 / 2.06990300 -0.46498880
				-0.93938060 -0.93251470 0.35673350 / 0.31223380 -0.95000530 0.00000000 / 115 165 115 255 / 2.06990300 -0.46498880
				0.98341520 -0.89082530 0.42675600 / 0.99861340 0.05264270 0.00000000 / 115 165 115 255 / 1.06896600 -0.53501120
				0.98341520 -0.89082530 0.42675600 / 0.99861330 0.05264270 0.00000000 / 115 165 115 255 / 1.06896600 -0.53501120
				-0.99773070 0.94711540 0.42675600 / -0.99861600 -0.05259510 0.00000000 / 115 165 115 255 / -1.90688300 -0.53501120
				-0.99773070 0.94711540 0.42675600 / -0.99861590 -0.05259510 0.00000000 / 115 165 115 255 / -1.90688300 -0.53501120
				-0.96449140 -0.92417760 0.35673350 / 0.05254760 -0.99861850 0.00000000 / 115 165 115 255 / 2.04490300 -0.46498880
				-0.96449140 -0.92417760 0.35673350 / 0.05254760 -0.99861840 0.00000000 / 115 165 115 255 / 2.04490300 -0.46498880
				0.89453790 -0.93537140 0.42675600 / 0.53871350 -0.84248900 0.00000000 / 115 165 115 255 / 3.90383400 -0.53501120
				0.89453790 -0.93537140 0.42675600 / 0.53871350 -0.84248900 0.00000000 / 115 165 115 255 / 3.90383400 -0.53501120
				-0.99776840 -0.89095500 0.35673350 / -0.54484610 -0.83853610 0.00000000 / 115 165 115 255 / -0.06896690 -0.46498880
				-0.99776840 -0.89095500 0.35673350 / -0.54484610 -0.83853600 0.00000000 / 115 165 115 255 / -0.06896690 -0.46498880
				0.99164630 -0.86577420 0.35673350 / 0.95006590 0.31204940 0.00000000 / 115 165 115 255 / 1.09396600 -0.46498880
				0.99164630 -0.86577420 0.35673350 / 0.95006590 0.31204940 0.00000000 / 115 165 115 255 / 1.09396600 -0.46498880
				0.98341520 -0.89082530 0.35673350 / 0.99861330 0.05264270 0.00000000 / 115 165 115 255 / 1.06896600 -0.46498880
				0.98341520 -0.89082530 0.35673350 / 0.99861340 0.05264270 0.00000000 / 115 165 115 255 / 1.06896600 -0.46498880
				0.96960260 -0.91035750 0.35673350 / 0.96592060 -0.25883850 0.00000000 / 115 165 115 255 / 3.97883400 -0.46498880
				0.96960260 -0.91035750 0.35673350 / 0.96592060 -0.25883850 0.00000000 / 115 165 115 255 / 1.04952200 -0.46498880
				0.95008610 -0.92416190 0.35673350 / 0.83855040 -0.54482380 0.00000000 / 115 165 115 255 / 3.95939000 -0.46498880
				0.95008610 -0.92416190 0.35673350 / 0.83855070 -0.54482390 0.00000000 / 115 165 115 255 / 3.95939000 -0.46498880
				0.92498870 -0.93245030 0.35673350 / 0.66667600 -0.74534780 0.00000000 / 115 165 115 255 / 3.93439000 -0.46498880
				0.92498870 -0.93245030 0.35673350 / 0.66667600 -0.74534780 0.00000000 / 115 165 115 255 / 3.93439000 -0.46498880
				-1.00606800 0.92200470 0.35673350 / -0.95003880 -0.31213180 0.00000000 / 115 165 115 255 / -1.88188300 -0.46498880
				-1.00606800 0.92200470 0.35673350 / -0.95003890 -0.31213180 0.00000000 / 115 165 115 255 / -1.88188300 -0.46498880
				0.89453790 -0.93537140 0.35673350 / 0.53871350 -0.84248900 0.00000000 / 115 165 115 255 / 3.90383400 -0.46498880
				0.89453790 -0.93537140 0.35673350 / 0.53871350 -0.84248900 0.00000000 / 115 165 115 255 / 3.90383400 -0.46498880
				-0.99773070 0.94711540 0.35673350 / -0.99861590 -0.05259510 0.00000000 / 115 165 115 255 / -1.90688300 -0.46498880
				-0.99773070 0.94711540 0.35673350 / -0.99861600 -0.05259510 0.00000000 / 115 165 115 255 / -1.90688300 -0.46498880
				-0.98379610 0.96643640 0.35673350 / -0.96593640 0.25877990 0.00000000 / 115 165 115 255 / -1.02545900 -0.46498880
				-0.98379610 0.96643640 0.35673350 / -0.96593640 0.25877990 0.00000000 / 115 165 115 255 / -1.92632800 -0.46498880
				-0.93941070 0.98867990 0.35673350 / -0.66671980 0.74530850 0.00000000 / 115 165 115 255 / -1.06990400 -0.46498880
				-0.93941070 0.98867990 0.35673350 / -0.66671980 0.74530850 0.00000000 / 115 165 115 255 / -1.06990400 -0.46498880
				0.92506500 0.98880580 0.35673350 / -0.31206020 0.95006240 0.00000000 / 115 165 115 255 / -2.93439000 -0.46498880
				0.92506500 0.98880580 0.35673350 / -0.31206020 0.95006240 0.00000000 / 115 165 115 255 / -2.93439000 -0.46498880
				0.95006990 0.98040770 0.35673350 / -0.05254760 0.99861840 0.00000000 / 115 165 115 255 / -2.95939100 -0.46498880
				0.95006990 0.98040770 0.35673350 / -0.05254760 0.99861850 0.00000000 / 115 165 115 255 / -2.95939100 -0.46498880
				0.98346850 0.94697380 0.35673350 / 0.54490020 0.83850100 0.00000000 / 115 165 115 255 / 2.90688300 -0.46498880
				0.98346850 0.94697380 0.35673350 / 0.54490010 0.83850090 0.00000000 / 115 165 115 255 / 2.90688300 -0.46498880
				0.99174070 0.92214870 0.35673350 / 0.74530850 0.66671980 0.00000000 / 115 165 115 255 / 2.88188300 -0.46498880
				0.99174070 0.92214870 0.35673350 / 0.74530850 0.66671980 0.00000000 / 115 165 115 255 / 2.88188300 -0.46498880
				-1.00605600 -0.86585760 0.42675600 / -0.74528300 -0.66674810 0.00000000 / 115 165 115 255 / -0.09396670 -0.53501120
				-1.00605600 -0.86585760 0.42675600 / -0.74528310 -0.66674820 0.00000000 / 115 165 115 255 / -0.09396670 -0.53501120
				-0.99776840 -0.89095500 0.42675600 / -0.54484610 -0.83853600 0.00000000 / 115 165 115 255 / -0.06896690 -0.53501120
				-0.99776840 -0.89095500 0.42675600 / -0.54484610 -0.83853610 0.00000000 / 115 165 115 255 / -0.06896690 -0.53501120
				-0.98391910 -0.91030310 0.42675600 / -0.25876720 -0.96593960 0.00000000 / 115 165 115 255 / 2.02545900 -0.53501120
				-0.98391910 -0.91030310 0.42675600 / -0.25876730 -0.96593980 0.00000000 / 115 165 115 255 / -0.04952220 -0.53501120
				-0.90883780 0.99139030 0.35673350 / -0.53871350 0.84248900 0.00000000 / 115 165 115 255 / -1.10045900 -0.46498880
				-0.90883780 0.99139030 0.35673350 / -0.53871350 0.84248900 0.00000000 / 115 165 115 255 / -1.10045900 -0.46498880
				-0.93938060 -0.93251470 0.42675600 / 0.31223380 -0.95000530 0.00000000 / 115 165 115 255 / 2.06990300 -0.53501120
				-0.93938060 -0.93251470 0.42675600 / 0.31223380 -0.95000530 0.00000000 / 115 165 115 255 / 2.06990300 -0.53501120
				0.96960260 -0.91035750 0.42675600 / 0.96592060 -0.25883850 0.00000000 / 115 165 115 255 / 1.04952200 -0.53501120
				0.96960260 -0.91035750 0.42675600 / 0.96592060 -0.25883850 0.00000000 / 115 165 115 255 / 3.97883400 -0.53501120
				-1.00887200 -0.83534570 0.35673350 / -0.84250060 -0.53869540 0.00000000 / 115 165 115 255 / -0.12452220 -0.46498880
				-1.00887200 -0.83534570 0.35673350 / -0.84250070 -0.53869550 0.00000000 / 115 165 115 255 / -0.12452220 -0.46498880
				0.99452350 -0.83535860 0.35673350 / 0.88777940 0.46026920 0.00000000 / 115 165 115 255 / 1.12452200 -0.46498880
				0.99452350 -0.83535860 0.35673350 / 0.88777940 0.46026920 0.00000000 / 115 165 115 255 / 1.12452200 -0.46498880
				0.99164630 -0.86577420 0.42675600 / 0.95006590 0.31204940 0.00000000 / 115 165 115 255 / 1.09396600 -0.53501120
				0.99164630 -0.86577420 0.42675600 / 0.95006590 0.31204940 0.00000000 / 115 165 115 255 / 1.09396600 -0.53501120
				-1.00887200 -0.83534570 0.42675600 / -0.84250070 -0.53869550 0.00000000 / 115 165 115 255 / -0.12452220 -0.53501120
				-1.00887200 -0.83534570 0.42675600 / -0.84250060 -0.53869540 0.00000000 / 115 165 115 255 / -0.12452220 -0.53501120
				-0.90883780 0.99139030 0.42675600 / -0.53871350 0.84248900 0.00000000 / 115 165 115 255 / -1.10045900 -0.53501120
				-0.90883780 0.99139030 0.42675600 / -0.53871350 0.84248900 0.00000000 / 115 165 115 255 / -1.10045900 -0.53501120
				-0.98379560 0.96643590 0.42675600 / -0.96592690 0.25881470 0.00000000 / 115 165 115 255 / -1.92632800 -0.53501120
				-0.98379560 0.96643590 0.42675600 / -0.96592710 0.25881480 0.00000000 / 115 165 115 255 / -1.02545900 -0.53501120
				0.99174070 0.92214870 0.42675600 / 0.74530850 0.66671980 0.00000000 / 115 165 115 255 / 2.88188300 -0.53501120
				0.99174070 0.92214870 0.42675600 / 0.74530850 0.66671980 0.00000000 / 115 165 115 255 / 2.88188300 -0.53501120
				-0.93941070 0.98867990 0.42675600 / -0.66671980 0.74530850 0.00000000 / 115 165 115 255 / -1.06990400 -0.53501120
				-0.93941070 0.98867990 0.42675600 / -0.66671980 0.74530850 0.00000000 / 115 165 115 255 / -1.06990400 -0.53501120
				0.95006990 0.98040770 0.42675600 / -0.05254760 0.99861850 0.00000000 / 115 165 115 255 / -2.95939100 -0.53501120
				0.95006990 0.98040770 0.42675600 / -0.05254760 0.99861840 0.00000000 / 115 165 115 255 / -2.95939100 -0.53501120
				0.89449830 0.99145560 0.42675600 / -0.46025020 0.88778920 0.00000000 / 115 165 115 255 / -2.90383500 -0.53501120
				0.89449830 0.99145560 0.42675600 / -0.46025020 0.88778950 0.00000000 / 115 165 115 255 / -2.90383500 -0.53501120
				0.89449830 0.99145560 0.35673350 / -0.46028800 0.88776980 0.00000000 / 115 165 115 255 / -2.90383500 -0.46498880
				0.89449830 0.99145560 0.35673350 / -0.46028790 0.88776960 0.00000000 / 115 165 115 255 / -2.90383500 -0.46498880
				0.99452350 -0.83535860 0.42675600 / 0.88777940 0.46026920 0.00000000 / 115 165 115 255 / 1.12452200 -0.53501120
				0.99452350 -0.83535860 0.42675600 / 0.88777940 0.46026920 0.00000000 / 115 165 115 255 / 1.12452200 -0.53501120
				-0.90891980 -0.93522550 0.42675600 / 0.46025020 -0.88778920 0.00000000 / 115 165 115 255 / 2.10045900 -0.53501120
				-0.90891980 -0.93522550 0.42675600 / 0.46025020 -0.88778950 0.00000000 / 115 165 115 255 / 2.10045900 -0.53501120
				-0.96440220 0.98045300 0.42675600 / -0.83855070 0.54482390 0.00000000 / 115 165 115 255 / -1.04490400 -0.53501120
				-0.96440220 0.98045300 0.42675600 / -0.83855040 0.54482380 0.00000000 / 115 165 115 255 / -1.04490400 -0.53501120
				0.98346850 0.94697380 0.42675600 / 0.54490010 0.83850090 0.00000000 / 115 165 115 255 / 2.90688300 -0.53501120
				0.98346850 0.94697380 0.42675600 / 0.54490020 0.83850100 0.00000000 / 115 165 115 255 / 2.90688300 -0.53501120
			}
		}
		Geometry
		{
			ShaderIndex 2
			Flags -
			VertexDeclaration N209731BE
			Indices 246
			{
				10 122 124 124 123 10 134 128 125 125 131 134 137 144 32
				32 29 137 145 138 126 126 129 145 130 135 33 33 143 130
				136 132 30 30 34 136 133 127 139 139 31 133 12 13 15
				15 14 12 44 38 35 35 41 44 54 48 81 81 113 54
				114 82 36 36 39 114 55 112 40 40 45 55 46 42 49
				49 56 46 43 37 83 83 50 43 57 58 3 3 2 57
				66 84 95 95 75 66 102 140 108 108 115 102 141 103 67
				67 76 141 77 96 107 107 142 77 117 109 97 97 85 117
				101 116 86 86 68 101 4 53 7 7 6 4 59 72 78
				78 69 59 92 105 87 87 98 92 60 70 99 99 88 60
				71 79 94 94 100 71 106 93 80 80 73 106 74 61 89
				89 104 74 118 22 5 5 16 118 63 146 110 110 1 63
				91 121 62 91 62 21 91 21 0 91 0 18 18 24 26
				18 26 9 18 9 27 18 27 119 91 18 119 119 17 28
				119 28 20 119 20 47 119 47 111 91 119 111 11 91 111
				65 11 111 8 65 111 8 111 147 64 120 90 90 52 64
				23 25 19 19 51 23
			}
			Vertices 148
			{
				-1.00606800 0.92200470 0.42675600 / 0.00000000 0.00000000 1.00000000 / 0 200 0 255 / 0.00138650 -0.96395880
				0.99445010 0.89157580 0.42675600 / 0.00000000 0.00000000 0.99999980 / 0 200 0 255 / 1.00000000 -0.94810060
				-1.42974800 0.00081060 0.14557090 / -0.57702730 0.57777530 0.57724790 / 0 205 0 255 / 2.00205300 0.54558970
				-1.37472400 0.00072150 0.14557090 / 0.57767670 0.57692170 0.57745200 / 0 205 0 255 / 2.00205300 0.60059000
				0.00097270 1.40700700 0.14557090 / 0.57731750 -0.57742660 0.57730660 / 0 205 0 255 / 3.40818900 1.97627900
				0.92498870 -0.93245030 0.42675600 / 0.00000000 0.00000000 1.00000000 / 0 200 0 255 / 0.96533630 -0.00144160
				-0.05415580 1.40703500 0.14557090 / -0.57798890 -0.57676850 0.57729280 / 0 200 0 255 / 3.40818900 1.92127900
				-0.05406760 1.46205800 0.14557090 / -0.57642170 0.57827780 0.57734990 / 0 205 0 255 / 3.46318900 1.92127900
				0.96949720 0.96653460 0.42675600 / 0.00000000 0.00000000 1.00000000 / 0 200 0 255 / 0.98752110 -0.98702510
				-0.96449140 -0.92417760 0.42675600 / 0.00000000 0.00000000 1.00000000 / 0 200 0 255 / 0.02218480 -0.00576660
				1.47835800 -0.03617530 0.14557090 / 0.58670010 0.56772630 0.57746840 / 0 205 0 255 / 1.96496300 3.45377500
				0.92506500 0.98880580 0.42675600 / 0.00000000 0.00000000 1.00000000 / 0 200 0 255 / 0.96533630 -0.99855820
				0.00804470 -1.47340600 0.14557090 / 0.57703280 -0.57776830 0.57724950 / 0 205 0 255 / 0.52780230 1.98336400
				0.00802710 -1.41844400 0.14557090 / 0.57766770 0.57693200 0.57745090 / 0 205 0 255 / 0.58280240 1.98336400
				-0.04697850 -1.47331800 0.14557090 / -0.57766770 -0.57693200 0.57745090 / 0 205 0 255 / 0.52780230 1.92836400
				-0.04699610 -1.41835600 0.14557090 / -0.57703280 0.57776830 0.57724950 / 0 205 0 255 / 0.58280240 1.92836400
				0.95008610 -0.92416190 0.42675600 / 0.00000000 0.00000000 0.99999980 / 0 200 0 255 / 0.97781520 -0.00576660
				0.95008610 -0.92416190 0.42675600 / 0.00000000 0.00000000 0.99999980 / 0 200 0 255 / 0.97781520 -0.00576660
				-1.00894500 0.89158770 0.42675600 / 0.00000000 0.00000000 0.99999980 / 0 200 0 255 / 0.00000000 -0.94810060
				-1.00894500 0.89158770 0.42675600 / 0.00000000 0.00000000 0.99999980 / 0 200 0 255 / 0.00000000 -0.94810060
				0.98341520 -0.89082530 0.42675600 / 0.00000000 0.00000000 1.00000000 / 0 200 0 255 / 0.99445380 -0.02306640
				-0.99773070 0.94711540 0.42675600 / 0.00000000 0.00000000 1.00000000 / 0 200 0 255 / 0.00554620 -0.97693360
				0.89453790 -0.93537140 0.42675600 / 0.00000000 0.00000000 1.00000000 / 0 200 0 255 / 0.95008440 0.00000000
				-1.00605600 -0.86585760 0.42675600 / 0.00000000 0.00000000 1.00000000 / 0 200 0 255 / 0.00138650 -0.03604120
				-0.99776840 -0.89095500 0.42675600 / 0.00000000 0.00000000 1.00000000 / 0 200 0 255 / 0.00554620 -0.02306640
				-0.99776840 -0.89095500 0.42675600 / 0.00000000 0.00000000 1.00000000 / 0 200 0 255 / 0.00554620 -0.02306640
				-0.98391910 -0.91030310 0.42675600 / 0.00000000 0.00000000 1.00000000 / 0 200 0 255 / 0.01247890 -0.01297480
				-0.93938060 -0.93251470 0.42675600 / 0.00000000 0.00000000 1.00000000 / 0 200 0 255 / 0.03466370 -0.00144160
				0.96960260 -0.91035750 0.42675600 / 0.00000000 0.00000000 1.00000000 / 0 200 0 255 / 0.98752110 -0.01297480
				1.60840800 -0.37690830 0.20249380 / 0.56726650 -0.58723320 0.57737850 / 0 205 0 255 / 1.62424100 3.58383200
				1.60840800 -0.37690830 0.20249380 / 0.56726650 -0.58723320 0.57737850 / 0 205 0 255 / 4.58383200 -0.81102940
				1.60840800 -0.37690830 0.20249380 / 0.56726650 -0.58723320 0.57737850 / 0 205 0 255 / 1.62424100 -0.81102940
				1.29679500 -0.37160300 0.20249380 / -0.58714660 -0.56739390 0.57734140 / 0 205 0 255 / 1.62968300 3.27204700
				1.29679500 -0.37160300 0.20249380 / -0.58714660 -0.56739390 0.57734140 / 0 205 0 255 / -0.62968300 -0.81102940
				1.29679500 -0.37160300 0.20249380 / -0.58714660 -0.56739390 0.57734140 / 0 205 0 255 / 4.27204700 -0.81102940
				0.29141140 -1.60947500 0.14557090 / 0.57719550 -0.57750060 -0.57735450 / 0 205 0 255 / 0.60818230 2.26676300
				0.29141140 -1.60947500 0.14557090 / 0.57719550 -0.57750060 -0.57735450 / 0 205 0 255 / 0.39181770 -0.75410650
				0.29141140 -1.60947500 0.14557090 / 0.57719550 -0.57750060 -0.57735450 / 0 205 0 255 / 3.26676300 -0.75410650
				0.29150630 -1.29762700 0.14557090 / 0.57747860 0.57723150 -0.57734070 / 0 205 0 255 / 0.29634990 2.26676300
				0.29150630 -1.29762700 0.14557090 / 0.57747860 0.57723150 -0.57734070 / 0 205 0 255 / 0.70365010 -0.75410650
				0.29150630 -1.29762700 0.14557090 / 0.57747860 0.57723150 -0.57734070 / 0 205 0 255 / -2.26676300 -0.75410650
				-0.33042000 -1.60933600 0.14557090 / -0.57739840 -0.57728840 -0.57736380 / 0 205 0 255 / 0.60818210 1.64496400
				-0.33042000 -1.60933600 0.14557090 / -0.57739840 -0.57728840 -0.57736380 / 0 205 0 255 / 0.60818210 -0.75410650
				-0.33042000 -1.60933600 0.14557090 / -0.57739840 -0.57728840 -0.57736380 / 0 205 0 255 / 2.64496400 -0.75410650
				-0.33043050 -1.29755000 0.14557090 / -0.57732830 0.57738050 -0.57734190 / 0 205 0 255 / 0.29634960 1.64496400
				-0.33043050 -1.29755000 0.14557090 / -0.57732830 0.57738050 -0.57734190 / 0 205 0 255 / -1.64496400 -0.75410650
				-0.33043050 -1.29755000 0.14557090 / -0.57732830 0.57738050 -0.57734190 / 0 205 0 255 / 0.29634960 -0.75410650
				0.99164630 -0.86577420 0.42675600 / 0.00000000 0.00000000 1.00000000 / 0 200 0 255 / 0.99861350 -0.03604120
				-0.33042000 -1.60933600 0.20249380 / -0.57739840 -0.57728850 0.57736380 / 0 205 0 255 / 0.39181790 1.64496400
				-0.33042000 -1.60933600 0.20249380 / -0.57739840 -0.57728850 0.57736380 / 0 205 0 255 / 0.60818210 -0.81102940
				-0.33042000 -1.60933600 0.20249380 / -0.57739840 -0.57728850 0.57736380 / 0 205 0 255 / 2.64496400 -0.81102940
				-1.00887200 -0.83534570 0.42675600 / 0.00000000 0.00000000 1.00000000 / 0 200 0 255 / 0.00000000 -0.05189940
				-0.90883780 0.99139030 0.42675600 / 0.00000000 0.00000000 0.99999980 / 0 200 0 255 / 0.04991580 -1.00000000
				0.00095510 1.46196900 0.14557090 / 0.57767210 0.57692650 0.57745180 / 0 205 0 255 / 3.46318900 1.97627900
				-0.33043050 -1.29755000 0.20249380 / -0.57732820 0.57738080 0.57734190 / 0 205 0 255 / 0.70365040 1.64496400
				-0.33043050 -1.29755000 0.20249380 / -0.57732820 0.57738080 0.57734190 / 0 205 0 255 / -1.64496400 -0.81102940
				-0.33043050 -1.29755000 0.20249380 / -0.57732820 0.57738080 0.57734190 / 0 205 0 255 / 0.29634960 -0.81102940
				-1.42973000 -0.05415150 0.14557090 / -0.57766840 -0.57693050 0.57745170 / 0 205 0 255 / 1.94705300 0.54558970
				-1.37470700 -0.05423970 0.14557090 / 0.57702770 -0.57777350 0.57724950 / 0 200 0 255 / 1.94705300 0.60059000
				0.28433850 1.27093900 0.14557090 / 0.57719570 -0.57750030 -0.57735470 / 0 205 0 255 / -2.27220400 2.25967900
				0.28433850 1.27093900 0.14557090 / 0.57719570 -0.57750030 -0.57735470 / 0 205 0 255 / 3.27220400 -0.75410650
				0.28433850 1.27093900 0.14557090 / 0.57719570 -0.57750030 -0.57735470 / 0 205 0 255 / 3.25967800 -0.75410650
				-0.98379560 0.96643590 0.42675600 / 0.00000000 0.00000000 1.00000000 / 0 200 0 255 / 0.01247890 -0.98702510
				0.99174070 0.92214870 0.42675600 / 0.00000000 0.00000000 1.00000000 / 0 200 0 255 / 0.99861350 -0.96395880
				-0.93941070 0.98867990 0.42675600 / 0.00000000 0.00000000 1.00000000 / 0 200 0 255 / 0.03466370 -0.99855820
				0.95006990 0.98040770 0.42675600 / 0.00000000 0.00000000 1.00000000 / 0 200 0 255 / 0.97781520 -0.99423350
				-1.56573700 -0.33762450 0.14557090 / -0.57718550 -0.57754260 -0.57732270 / 0 205 0 255 / -0.66365310 0.40960530
				-1.56573700 -0.33762450 0.14557090 / -0.57718550 -0.57754260 -0.57732270 / 0 205 0 255 / 1.40960500 -0.75410650
				-1.56573700 -0.33762450 0.14557090 / -0.57718550 -0.57754260 -0.57732270 / 0 205 0 255 / -0.66365310 -0.75410650
				0.28443380 1.58278500 0.14557090 / 0.57747920 0.57723090 -0.57734070 / 0 205 0 255 / -2.58403600 2.25967900
				0.28443380 1.58278500 0.14557090 / 0.57747920 0.57723090 -0.57734070 / 0 205 0 255 / 3.58403600 -0.75410650
				0.28443380 1.58278500 0.14557090 / 0.57747920 0.57723090 -0.57734070 / 0 205 0 255 / -2.25967900 -0.75410650
				-0.33749200 1.27107700 0.14557090 / -0.57739800 -0.57728900 -0.57736380 / 0 205 0 255 / -2.27220400 1.63787900
				-0.33749200 1.27107700 0.14557090 / -0.57739800 -0.57728900 -0.57736380 / 0 205 0 255 / -2.27220400 -0.75410650
				-0.33749200 1.27107700 0.14557090 / -0.57739800 -0.57728900 -0.57736380 / 0 205 0 255 / 2.63787900 -0.75410650
				-1.25390700 -0.33744620 0.14557090 / 0.57750650 -0.57716490 -0.57737930 / 0 205 0 255 / -0.66365300 0.72143770
				-1.25390700 -0.33744620 0.14557090 / 0.57750650 -0.57716490 -0.57737930 / 0 205 0 255 / 1.72143800 -0.75410650
				-1.25390700 -0.33744620 0.14557090 / 0.57750650 -0.57716490 -0.57737930 / 0 205 0 255 / 1.66365300 -0.75410650
				-0.33750250 1.58286200 0.14557090 / -0.57732830 0.57738050 -0.57734190 / 0 205 0 255 / -2.58403700 1.63787900
				-0.33750250 1.58286200 0.14557090 / -0.57732830 0.57738050 -0.57734190 / 0 205 0 255 / -1.63787900 -0.75410650
				-0.33750250 1.58286200 0.14557090 / -0.57732830 0.57738050 -0.57734190 / 0 205 0 255 / -2.58403700 -0.75410650
				0.29141140 -1.60947500 0.20249380 / 0.57719570 -0.57750050 0.57735450 / 0 205 0 255 / 0.39181770 2.26676300
				0.29141140 -1.60947500 0.20249380 / 0.57719570 -0.57750050 0.57735450 / 0 205 0 255 / 0.39181770 -0.81102940
				0.29141140 -1.60947500 0.20249380 / 0.57719570 -0.57750050 0.57735450 / 0 205 0 255 / 3.26676300 -0.81102940
				-1.56576600 0.28425220 0.14557090 / -0.57728490 0.57743420 -0.57733160 / 0 205 0 255 / -1.28545300 0.40960530
				-1.56576600 0.28425220 0.14557090 / -0.57728490 0.57743420 -0.57733160 / 0 205 0 255 / -0.40960530 -0.75410650
				-1.56576600 0.28425220 0.14557090 / -0.57728490 0.57743420 -0.57733160 / 0 205 0 255 / -1.28545300 -0.75410650
				0.28433850 1.27093900 0.20249380 / 0.57719590 -0.57750000 0.57735470 / 0 205 0 255 / 3.27220400 2.25967900
				0.28433850 1.27093900 0.20249380 / 0.57719590 -0.57750000 0.57735470 / 0 205 0 255 / 3.27220400 -0.81102940
				0.28433850 1.27093900 0.20249380 / 0.57719590 -0.57750000 0.57735470 / 0 205 0 255 / 3.25967800 -0.81102940
				0.89449830 0.99145560 0.42675600 / 0.00000000 0.00000000 1.00000000 / 0 200 0 255 / 0.95008440 -1.00000000
				0.89449830 0.99145560 0.42675600 / 0.00000000 0.00000000 1.00000000 / 0 200 0 255 / 0.95008440 -1.00000000
				-0.33750250 1.58286200 0.20249380 / -0.57732830 0.57738050 0.57734190 / 0 205 0 255 / 3.58403700 1.63787900
				-0.33750250 1.58286200 0.20249380 / -0.57732830 0.57738050 0.57734190 / 0 205 0 255 / -2.58403700 -0.81102940
				-0.33750250 1.58286200 0.20249380 / -0.57732830 0.57738050 0.57734190 / 0 205 0 255 / -1.63787900 -0.81102940
				-1.25391900 0.28415680 0.14557090 / 0.57742450 0.57725890 -0.57736750 / 0 205 0 255 / -1.28545300 0.72143770
				-1.25391900 0.28415680 0.14557090 / 0.57742450 0.57725890 -0.57736750 / 0 205 0 255 / 2.28545300 -0.75410650
				-1.25391900 0.28415680 0.14557090 / 0.57742450 0.57725890 -0.57736750 / 0 205 0 255 / -0.72143770 -0.75410650
				0.28443380 1.58278500 0.20249380 / 0.57747910 0.57723100 0.57734080 / 0 205 0 255 / 3.58403600 2.25967900
				0.28443380 1.58278500 0.20249380 / 0.57747910 0.57723100 0.57734080 / 0 205 0 255 / 3.58403600 -0.81102940
				0.28443380 1.58278500 0.20249380 / 0.57747910 0.57723100 0.57734080 / 0 205 0 255 / -2.25967900 -0.81102940
				-1.56573700 -0.33762450 0.20249380 / -0.57718550 -0.57754260 0.57732260 / 0 205 0 255 / -0.66365310 -0.81102940
				-1.56573700 -0.33762450 0.20249380 / -0.57718550 -0.57754260 0.57732260 / 0 205 0 255 / 1.66365300 0.40960530
				-1.56573700 -0.33762450 0.20249380 / -0.57718550 -0.57754260 0.57732260 / 0 205 0 255 / 1.40960500 -0.81102940
				-0.33749200 1.27107700 0.20249380 / -0.57739780 -0.57728920 0.57736370 / 0 205 0 255 / 2.63787900 -0.81102940
				-0.33749200 1.27107700 0.20249380 / -0.57739780 -0.57728920 0.57736370 / 0 205 0 255 / 3.27220400 1.63787900
				-0.33749200 1.27107700 0.20249380 / -0.57739780 -0.57728920 0.57736370 / 0 205 0 255 / -2.27220400 -0.81102940
				-1.25391900 0.28415680 0.20249380 / 0.57742450 0.57725900 0.57736730 / 0 205 0 255 / 2.28545300 -0.81102940
				-1.25391900 0.28415680 0.20249380 / 0.57742450 0.57725900 0.57736730 / 0 205 0 255 / 2.28545300 0.72143770
				-1.25391900 0.28415680 0.20249380 / 0.57742450 0.57725900 0.57736730 / 0 205 0 255 / -0.72143770 -0.81102940
				0.99452350 -0.83535860 0.42675600 / 0.00000000 0.00000000 1.00000000 / 0 200 0 255 / 1.00000000 -0.05189940
				0.99452350 -0.83535860 0.42675600 / 0.00000000 0.00000000 1.00000000 / 0 200 0 255 / 1.00000000 -0.05189940
				0.29150630 -1.29762700 0.20249380 / 0.57747860 0.57723130 0.57734080 / 0 205 0 255 / -2.26676300 -0.81102940
				0.29150630 -1.29762700 0.20249380 / 0.57747860 0.57723130 0.57734080 / 0 205 0 255 / 0.70365010 2.26676300
				0.29150630 -1.29762700 0.20249380 / 0.57747860 0.57723130 0.57734080 / 0 205 0 255 / 0.70365010 -0.81102940
				-1.56576600 0.28425220 0.20249380 / -0.57728480 0.57743410 0.57733180 / 0 205 0 255 / 2.28545300 0.40960530
				-1.56576600 0.28425220 0.20249380 / -0.57728480 0.57743410 0.57733180 / 0 205 0 255 / -1.28545300 -0.81102940
				-1.56576600 0.28425220 0.20249380 / -0.57728480 0.57743410 0.57733180 / 0 205 0 255 / -0.40960530 -0.81102940
				-0.90891980 -0.93522550 0.42675600 / 0.00000000 0.00000000 1.00000000 / 0 200 0 255 / 0.04991580 0.00000000
				-0.90891980 -0.93522550 0.42675600 / 0.00000000 0.00000000 1.00000000 / 0 200 0 255 / 0.04991580 0.00000000
				-0.96440220 0.98045300 0.42675600 / 0.00000000 0.00000000 0.99999980 / 0 200 0 255 / 0.02218480 -0.99423350
				-0.96440220 0.98045300 0.42675600 / 0.00000000 0.00000000 0.99999980 / 0 200 0 255 / 0.02218480 -0.99423350
				1.42339200 -0.03521010 0.14557090 / -0.56783650 0.58682500 0.57723310 / 0 205 0 255 / 1.96592200 3.39878300
				1.47751300 -0.09135440 0.14557090 / 0.56782860 -0.58683630 0.57722950 / 0 205 0 255 / 1.90997100 3.45281400
				1.42254600 -0.09038640 0.14557090 / -0.58671920 -0.56770490 0.57747010 / 0 205 0 255 / 1.91093100 3.39782300
				1.61932700 0.24480440 0.14557090 / 0.58738290 0.56714400 -0.57734670 / 0 205 0 255 / -1.24594600 3.59468400
				1.61932700 0.24480440 0.14557090 / 0.58738290 0.56714400 -0.57734670 / 0 205 0 255 / -3.59468400 -0.75410650
				1.61932700 0.24480440 0.14557090 / 0.58738290 0.56714400 -0.57734670 / 0 205 0 255 / 2.24594600 -0.75410650
				1.30748600 0.25026040 0.14557090 / -0.56725930 0.58728370 -0.57733420 / 0 205 0 255 / -1.25138900 3.28289900
				1.30748600 0.25026040 0.14557090 / -0.56725930 0.58728370 -0.57733420 / 0 205 0 255 / -3.28289900 -0.75410650
				1.30748600 0.25026040 0.14557090 / -0.56725930 0.58728370 -0.57733420 / 0 205 0 255 / -1.25138900 -0.75410650
				1.60840800 -0.37690830 0.14557090 / 0.56726680 -0.58723290 -0.57737850 / 0 205 0 255 / -0.62424060 3.58383200
				1.60840800 -0.37690830 0.14557090 / 0.56726680 -0.58723290 -0.57737850 / 0 205 0 255 / 4.58383200 -0.75410650
				1.60840800 -0.37690830 0.14557090 / 0.56726680 -0.58723290 -0.57737850 / 0 205 0 255 / 1.62424100 -0.75410650
				1.29679500 -0.37160300 0.14557090 / -0.58714640 -0.56739400 -0.57734130 / 0 205 0 255 / -0.62968300 3.27204700
				1.29679500 -0.37160300 0.14557090 / -0.58714640 -0.56739400 -0.57734130 / 0 205 0 255 / -0.62968300 -0.75410650
				1.29679500 -0.37160300 0.14557090 / -0.58714640 -0.56739400 -0.57734130 / 0 205 0 255 / 4.27204700 -0.75410650
				1.61932700 0.24480440 0.20249380 / 0.58738300 0.56714400 0.57734640 / 0 205 0 255 / 2.24594600 3.59468400
				1.61932700 0.24480440 0.20249380 / 0.58738300 0.56714400 0.57734640 / 0 205 0 255 / -3.59468400 -0.81102940
				1.61932700 0.24480440 0.20249380 / 0.58738300 0.56714400 0.57734640 / 0 205 0 255 / 2.24594600 -0.81102940
				-1.25390700 -0.33744620 0.20249380 / 0.57750650 -0.57716490 0.57737930 / 0 205 0 255 / 1.66365300 0.72143770
				-1.25390700 -0.33744620 0.20249380 / 0.57750650 -0.57716490 0.57737930 / 0 205 0 255 / 1.72143800 -0.81102940
				-1.25390700 -0.33744620 0.20249380 / 0.57750650 -0.57716490 0.57737930 / 0 205 0 255 / 1.66365300 -0.81102940
				1.30748600 0.25026040 0.20249380 / -0.56725930 0.58728360 0.57733430 / 0 205 0 255 / -1.25138900 -0.81102940
				1.30748600 0.25026040 0.20249380 / -0.56725930 0.58728360 0.57733430 / 0 205 0 255 / 2.25138900 3.28289900
				1.30748600 0.25026040 0.20249380 / -0.56725930 0.58728360 0.57733430 / 0 205 0 255 / -3.28289900 -0.81102940
				0.98346850 0.94697380 0.42675600 / 0.00000000 0.00000000 1.00000000 / 0 200 0 255 / 0.99445380 -0.97693360
				0.98346850 0.94697380 0.42675600 / 0.00000000 0.00000000 1.00000000 / 0 200 0 255 / 0.99445380 -0.97693360
			}
		}
		Geometry
		{
			ShaderIndex 3
			Flags -
			VertexDeclaration N209731BE
			Indices 78
			{
				49 5 26 26 33 49 50 34 35 35 10 50 36 43 51
				51 11 36 44 55 37 45 38 39 39 12 45 46 13 40
				40 41 46 47 42 0 1 27 52 52 48 1 2 54 19
				19 20 2 3 21 22 22 23 3 4 24 25 25 32 4
				8 53 28 29 6 18 18 9 29 30 15 17 17 7 30
				14 16 31
			}
			Vertices 56
			{
				0.99445010 0.89157580 0.35673350 / 0.00000000 0.00000000 -1.00000000 / 0 200 0 255 / -3.00383500 -2.85132700
				0.99445010 0.89157580 0.35673350 / 0.00000000 0.00000000 -1.00000000 / 0 200 0 255 / -3.00383500 -2.85132700
				0.99445010 0.89157580 0.35673350 / 0.00000000 0.00000000 -1.00000000 / 0 200 0 255 / -3.00383500 -2.85132700
				0.99445010 0.89157580 0.35673350 / 0.00000000 0.00000000 -1.00000000 / 0 200 0 255 / -3.00383500 -2.85132700
				0.99445010 0.89157580 0.35673350 / 0.00000000 0.00000000 -1.00000000 / 0 200 0 255 / -3.00383500 -2.85132700
				-1.00894500 0.89158770 0.35673350 / 0.00000000 0.00000000 -0.99999980 / 0 200 0 255 / -1.00045900 -2.85132800
				-0.98391910 -0.91030310 0.35673350 / 0.00000000 0.00000000 -1.00000000 / 0 200 0 255 / -1.02545900 -1.04952200
				-0.98391910 -0.91030310 0.35673350 / 0.00000000 0.00000000 -1.00000000 / 0 200 0 255 / -1.02545900 -1.04952200
				-1.00605600 -0.86585760 0.35673350 / 0.00000000 0.00000000 -1.00000000 / 0 200 0 255 / -1.00323600 -1.09396700
				-1.00605600 -0.86585760 0.35673350 / 0.00000000 0.00000000 -1.00000000 / 0 200 0 255 / -1.00323600 -1.09396700
				-0.96440220 0.98045300 0.35673350 / 0.00000000 0.00000000 -1.00000000 / 0 200 0 255 / -1.04490400 -2.94021600
				-0.96440220 0.98045300 0.35673350 / 0.00000000 0.00000000 -1.00000000 / 0 200 0 255 / -1.04490400 -2.94021600
				0.96949720 0.96653460 0.35673350 / 0.00000000 0.00000000 -1.00000000 / 0 200 0 255 / -2.97883500 -2.92632700
				0.96949720 0.96653460 0.35673350 / 0.00000000 0.00000000 -1.00000000 / 0 200 0 255 / -2.97883500 -2.92632700
				-0.90891980 -0.93522550 0.35673350 / 0.00000000 0.00000000 -1.00000000 / 0 200 0 255 / -1.10045900 -1.02452200
				-0.93938060 -0.93251470 0.35673350 / 0.00000000 0.00000000 -1.00000000 / 0 200 0 255 / -1.06990300 -1.02730000
				-0.93938060 -0.93251470 0.35673350 / 0.00000000 0.00000000 -1.00000000 / 0 200 0 255 / -1.06990300 -1.02730000
				-0.96449140 -0.92417760 0.35673350 / 0.00000000 0.00000000 -1.00000000 / 0 200 0 255 / -1.04490300 -1.03563300
				-0.99776840 -0.89095500 0.35673350 / 0.00000000 0.00000000 -1.00000000 / 0 200 0 255 / -1.01157000 -1.06896700
				0.99164630 -0.86577420 0.35673350 / 0.00000000 0.00000000 -1.00000000 / 0 200 0 255 / -3.00105700 -1.09396600
				0.98341520 -0.89082530 0.35673350 / 0.00000000 0.00000000 -1.00000000 / 0 200 0 255 / -2.99272300 -1.06896600
				0.98341520 -0.89082530 0.35673350 / 0.00000000 0.00000000 -1.00000000 / 0 200 0 255 / -2.99272300 -1.06896600
				0.96960260 -0.91035750 0.35673350 / 0.00000000 0.00000000 -1.00000000 / 0 200 0 255 / -2.97883400 -1.04952200
				0.95008610 -0.92416190 0.35673350 / 0.00000000 0.00000000 -0.99999980 / 0 200 0 255 / -2.95939000 -1.03563300
				0.95008610 -0.92416190 0.35673350 / 0.00000000 0.00000000 -0.99999980 / 0 200 0 255 / -2.95939000 -1.03563300
				0.92498870 -0.93245030 0.35673350 / 0.00000000 0.00000000 -1.00000000 / 0 200 0 255 / -2.93439000 -1.02730000
				-1.00606800 0.92200470 0.35673350 / 0.00000000 0.00000000 -0.99999980 / 0 200 0 255 / -1.00323700 -2.88188300
				0.89453790 -0.93537140 0.35673350 / 0.00000000 0.00000000 -1.00000000 / 0 200 0 255 / -2.90383400 -1.02452200
				0.89453790 -0.93537140 0.35673350 / 0.00000000 0.00000000 -1.00000000 / 0 200 0 255 / -2.90383400 -1.02452200
				0.89453790 -0.93537140 0.35673350 / 0.00000000 0.00000000 -1.00000000 / 0 200 0 255 / -2.90383400 -1.02452200
				0.89453790 -0.93537140 0.35673350 / 0.00000000 0.00000000 -1.00000000 / 0 200 0 255 / -2.90383400 -1.02452200
				0.89453790 -0.93537140 0.35673350 / 0.00000000 0.00000000 -1.00000000 / 0 200 0 255 / -2.90383400 -1.02452200
				0.89453790 -0.93537140 0.35673350 / 0.00000000 0.00000000 -1.00000000 / 0 200 0 255 / -2.90383400 -1.02452200
				-0.99773070 0.94711540 0.35673350 / 0.00000000 0.00000000 -1.00000000 / 0 200 0 255 / -1.01157000 -2.90688300
				-0.99773070 0.94711540 0.35673350 / 0.00000000 0.00000000 -1.00000000 / 0 200 0 255 / -1.01157000 -2.90688300
				-0.98379610 0.96643640 0.35673350 / 0.00000000 0.00000000 -1.00000000 / 0 200 0 255 / -1.02545900 -2.92632800
				-0.93941070 0.98867990 0.35673350 / 0.00000000 0.00000000 -1.00000000 / 0 200 0 255 / -1.06990400 -2.94855000
				0.92506500 0.98880580 0.35673350 / 0.00000000 0.00000000 -1.00000000 / 0 200 0 255 / -2.93439000 -2.94855000
				0.92506500 0.98880580 0.35673350 / 0.00000000 0.00000000 -1.00000000 / 0 200 0 255 / -2.93439000 -2.94855000
				0.95006990 0.98040770 0.35673350 / 0.00000000 0.00000000 -1.00000000 / 0 200 0 255 / -2.95939100 -2.94021600
				0.98346850 0.94697380 0.35673350 / 0.00000000 0.00000000 -1.00000000 / 0 200 0 255 / -2.99272400 -2.90688300
				0.99174070 0.92214870 0.35673350 / 0.00000000 0.00000000 -1.00000000 / 0 200 0 255 / -3.00105700 -2.88188300
				0.99174070 0.92214870 0.35673350 / 0.00000000 0.00000000 -1.00000000 / 0 200 0 255 / -3.00105700 -2.88188300
				-0.90883780 0.99139030 0.35673350 / 0.00000000 0.00000000 -0.99999980 / 0 200 0 255 / -1.10045900 -2.95132800
				-0.90883780 0.99139030 0.35673350 / 0.00000000 0.00000000 -0.99999980 / 0 200 0 255 / -1.10045900 -2.95132800
				-0.90883780 0.99139030 0.35673350 / 0.00000000 0.00000000 -0.99999980 / 0 200 0 255 / -1.10045900 -2.95132800
				-0.90883780 0.99139030 0.35673350 / 0.00000000 0.00000000 -0.99999980 / 0 200 0 255 / -1.10045900 -2.95132800
				-0.90883780 0.99139030 0.35673350 / 0.00000000 0.00000000 -0.99999980 / 0 200 0 255 / -1.10045900 -2.95132800
				-0.90883780 0.99139030 0.35673350 / 0.00000000 0.00000000 -0.99999980 / 0 200 0 255 / -1.10045900 -2.95132800
				-1.00887200 -0.83534570 0.35673350 / 0.00000000 0.00000000 -1.00000000 / 0 200 0 255 / -1.00045900 -1.12452200
				-1.00887200 -0.83534570 0.35673350 / 0.00000000 0.00000000 -1.00000000 / 0 200 0 255 / -1.00045900 -1.12452200
				-1.00887200 -0.83534570 0.35673350 / 0.00000000 0.00000000 -1.00000000 / 0 200 0 255 / -1.00045900 -1.12452200
				-1.00887200 -0.83534570 0.35673350 / 0.00000000 0.00000000 -1.00000000 / 0 200 0 255 / -1.00045900 -1.12452200
				-1.00887200 -0.83534570 0.35673350 / 0.00000000 0.00000000 -1.00000000 / 0 200 0 255 / -1.00045900 -1.12452200
				0.99452350 -0.83535860 0.35673350 / 0.00000000 0.00000000 -1.00000000 / 0 200 0 255 / -3.00383400 -1.12452200
				0.89449830 0.99145560 0.35673350 / 0.00000000 0.00000000 -1.00000000 / 0 200 0 255 / -2.90383500 -2.95132700
			}
		}
	}
}
