Version 165 32
{
	Locked False
	Skinned False
	BoneCount 0
	Mask 255
	Bounds
	{
		Aabb
		{
			Min -2.15039600 -0.04291630 -1.26220100
			Max 2.15039600 0.04291150 1.26220100
		}
	}
	Geometries
	{
		Geometry
		{
			ShaderIndex 0
			Flags -
			VertexDeclaration N51263BB5
			Indices 60
			{
				1 17 37 36 51 0 52 54 55 56 57 53 58 2 4
				3 5 59 7 8 10 9 11 6 13 14 16 15 18 12
				20 21 23 22 24 19 26 28 30 29 32 27 35 25 33
				31 38 34 40 42 44 43 46 41 49 39 47 45 50 48
			}
			Vertices 60
			{
				2.15039600 0.02361970 -1.26220100 / 0.00000000 -1.00000000 0.00000000 / 78 77 0 255 / 0.00146340 -0.02246280 / -1.00000000 0.00000000 0.00000000 -1.00000000
				2.15039600 0.02361970 -1.26220100 / 0.00000000 -1.00000000 0.00000000 / 78 77 0 255 / 0.00146340 -0.02246280 / -1.00000000 0.00000000 0.00000000 -1.00000000
				2.15039100 0.02299790 1.26073600 / -1.00000000 0.00000000 0.00000000 / 78 77 0 255 / 0.49423120 -0.82199810 / 0.00000000 1.00000000 0.00000000 -1.00000000
				2.15011800 -0.04291630 1.26073600 / 0.00000000 1.00000000 0.00000000 / 78 77 0 255 / 0.46127800 -0.82199810 / 1.00000000 0.00000000 0.00000000 -1.00000000
				2.15011800 -0.04291630 1.26073600 / 0.00000000 1.00000000 0.00000000 / 78 77 0 255 / 0.46127800 -0.82199810 / 1.00000000 0.00000000 0.00000000 -1.00000000
				2.15012000 -0.04230400 -1.26220100 / 0.00000000 1.00000000 0.00000000 / 78 77 0 255 / 0.46158410 -0.02246280 / 1.00000000 0.00000000 0.00000000 -1.00000000
				-2.15012200 0.04229550 1.26073500 / 0.00000000 0.00000000 1.00000000 / 78 77 0 255 / 0.46161080 -0.82199810 / -0.00413790 -0.99999140 0.00000000 1.00000000
				-2.15012200 0.04229550 1.26073500 / 0.00000000 0.00000000 1.00000000 / 78 77 0 255 / 0.46161080 -0.82199810 / -0.00419580 -0.99999120 0.00000000 1.00000000
				-2.15012000 0.04291150 -1.26219900 / 1.00000000 0.00000000 0.00000000 / 78 77 0 255 / 0.46130280 -0.02246330 / 0.00000000 -1.00000000 0.00000000 -1.00000000
				-2.15039600 -0.02300260 -1.26219900 / 0.00000000 1.00000000 0.00000000 / 78 77 0 255 / 0.49425700 -0.02246330 / -1.00000000 0.00000000 0.00000000 1.00000000
				-2.15039600 -0.02300260 -1.26219900 / 0.00000000 1.00000000 0.00000000 / 78 77 0 255 / 0.49425700 -0.02246330 / -1.00000000 0.00000000 0.00000000 1.00000000
				-2.15039400 -0.02361870 1.26073500 / 0.00000000 1.00000000 0.00000000 / 78 77 0 255 / 0.49456310 -0.82199810 / -1.00000000 0.00000000 0.00000000 1.00000000
				-0.37322620 -0.03224470 1.26220100 / 0.00000000 1.00000000 0.00000000 / 78 77 0 255 / 0.41336800 -0.82246260 / 1.00000000 0.00000000 0.00000000 -1.00000000
				-0.37322620 -0.03224470 1.26220100 / 0.00000000 1.00000000 0.00000000 / 78 77 0 255 / 0.41336800 -0.82246260 / 1.00000000 0.00000000 0.00000000 -1.00000000
				-0.37273980 -0.03261280 -1.25878100 / 0.00000000 1.00000000 0.00000000 / 78 77 0 255 / 0.41347910 -0.02354670 / 1.00000000 0.00000000 0.00000000 -1.00000000
				2.15012000 -0.04230400 -1.26220100 / 0.00000000 1.00000000 0.00000000 / 78 77 0 255 / 0.99822710 -0.02246280 / 1.00000000 0.00000000 0.00000000 -1.00000000
				2.15012000 -0.04230400 -1.26220100 / 0.00000000 1.00000000 0.00000000 / 78 77 0 255 / 0.99822710 -0.02246280 / 1.00000000 0.00000000 0.00000000 -1.00000000
				-0.37246510 0.03330800 -1.25878100 / 0.00000000 -1.00000000 0.00000000 / 78 77 0 255 / 0.58621170 -0.02354670 / -1.00000000 0.00000000 0.00000000 -1.00000000
				2.15011800 -0.04291630 1.26073600 / 0.00000000 1.00000000 0.00000000 / 78 77 0 255 / 0.99822430 -0.82199810 / 1.00000000 0.00000000 0.00000000 -1.00000000
				-0.37322620 -0.03224470 1.26220100 / 0.00000000 1.00000000 0.00000000 / 78 77 0 255 / 0.41336800 -0.82246260 / 1.00000000 0.00000000 -0.00000040 -1.00000000
				-0.37322620 -0.03224470 1.26220100 / 0.00000000 1.00000000 0.00000000 / 78 77 0 255 / 0.41336800 -0.82246260 / 1.00000000 0.00000000 0.00000070 -1.00000000
				-2.15039400 -0.02361870 1.26073500 / 0.00000000 1.00000000 0.00000000 / 78 77 0 255 / 0.00146270 -0.82199810 / 1.00000000 0.00000000 0.00000070 -1.00000000
				-2.15039600 -0.02300260 -1.26219900 / 0.00000000 1.00000000 0.00000000 / 78 77 0 255 / 0.00146480 -0.02246330 / 1.00000000 0.00000000 -0.00000040 -1.00000000
				-2.15039600 -0.02300260 -1.26219900 / 0.00000000 1.00000000 0.00000000 / 78 77 0 255 / 0.00146480 -0.02246330 / 1.00000000 0.00000000 0.00000070 -1.00000000
				-0.37273980 -0.03261280 -1.25878100 / 0.00000000 1.00000000 0.00000000 / 78 77 0 255 / 0.41347910 -0.02354670 / 1.00000000 0.00000000 -0.00000040 -1.00000000
				-0.37322620 -0.03224470 1.26220100 / 0.00000000 1.00000000 0.00000000 / 78 77 0 255 / 0.58663200 -0.51313780 / -0.99999960 0.00000000 -0.00082530 1.00000000
				-0.37322620 -0.03224470 1.26220100 / 0.00000000 1.00000000 0.00000000 / 78 77 0 255 / 0.58663200 -0.51313780 / -0.99999980 0.00000000 0.00058080 -1.00000000
				-0.37322620 -0.03224470 1.26220100 / 0.00000000 1.00000000 0.00000000 / 78 77 0 255 / 0.58663200 -0.51313780 / -0.99999980 0.00000000 0.00058080 -1.00000000
				2.15011800 -0.04291630 1.26073600 / 0.00000000 1.00000000 0.00000000 / 78 77 0 255 / 0.00177570 -0.53872200 / -0.99999980 0.00000000 0.00058080 -1.00000000
				2.15039100 0.02299790 1.26073600 / -1.00000000 0.00000000 0.00000000 / 78 77 0 255 / 0.00146680 -0.50576880 / 0.00000000 -0.99934580 0.03616660 -1.00000000
				2.15039100 0.02299790 1.26073600 / -1.00000000 0.00000000 0.00000000 / 78 77 0 255 / 0.00146680 -0.50576880 / 0.00000000 -0.99934580 0.03616640 -1.00000000
				-0.37295150 0.03367230 1.26220100 / 0.00000000 0.00000000 1.00000000 / 78 77 0 255 / 0.58632280 -0.48018360 / -0.99987120 -0.01604900 0.00000000 1.00000000
				-0.37295150 0.03367230 1.26220100 / 0.00000000 0.00000000 1.00000000 / 78 77 0 255 / 0.58632280 -0.48018360 / -0.99987130 -0.01604770 0.00000000 1.00000000
				-0.37295150 0.03367230 1.26220100 / 0.00000000 0.00000000 1.00000000 / 78 77 0 255 / 0.58632280 -0.48018360 / -0.99987120 -0.01604920 0.00000000 1.00000000
				-2.15039400 -0.02361870 1.26073500 / 0.00000000 1.00000000 0.00000000 / 78 77 0 255 / 0.99853730 -0.49456310 / -0.99999960 0.00000000 -0.00082530 1.00000000
				-2.15039400 -0.02361870 1.26073500 / 0.00000000 1.00000000 0.00000000 / 78 77 0 255 / 0.99853730 -0.49456310 / -0.99999960 0.00000000 -0.00082530 1.00000000
				-0.37295150 0.03367230 1.26220100 / 0.00000000 -1.00000000 0.00000000 / 78 77 0 255 / 0.58632280 -0.82246260 / -1.00000000 0.00000000 0.00000000 -1.00000000
				-0.37295150 0.03367230 1.26220100 / 0.00000000 -1.00000000 0.00000000 / 78 77 0 255 / 0.58632280 -0.82246260 / -1.00000000 0.00000000 0.00000000 -1.00000000
				-2.15012200 0.04229550 1.26073500 / 0.00000000 0.00000000 1.00000000 / 78 77 0 255 / 0.99822880 -0.46161080 / -0.99987120 -0.01604900 0.00000000 1.00000000
				-0.37246510 0.03330800 -1.25878100 / 0.00000000 0.00000000 -1.00000000 / 78 77 0 255 / 0.41378830 -0.48036960 / 0.99987120 0.01604860 0.00000000 1.00000000
				-0.37246510 0.03330800 -1.25878100 / 0.00000000 0.00000000 -1.00000000 / 78 77 0 255 / 0.41378830 -0.48036960 / 0.99987130 0.01604740 0.00000000 1.00000000
				-0.37246510 0.03330800 -1.25878100 / 0.00000000 0.00000000 -1.00000000 / 78 77 0 255 / 0.41378830 -0.48036960 / 0.99987120 0.01604810 0.00000000 1.00000000
				2.15039600 0.02361970 -1.26220100 / 0.00000000 0.00000000 -1.00000000 / 78 77 0 255 / 0.99853660 -0.50545790 / 0.99987130 0.01604740 0.00000000 1.00000000
				2.15012000 -0.04230400 -1.26220100 / 0.00000000 1.00000000 0.00000000 / 78 77 0 255 / 0.99822710 -0.53841590 / 0.99999910 0.00000000 -0.00135540 1.00000000
				2.15012000 -0.04230400 -1.26220100 / 0.00000000 1.00000000 0.00000000 / 78 77 0 255 / 0.99822710 -0.53841590 / 0.99999910 0.00000000 -0.00135540 1.00000000
				-0.37273980 -0.03261280 -1.25878100 / 0.00000000 1.00000000 0.00000000 / 78 77 0 255 / 0.41347910 -0.51332570 / 0.99999820 0.00000000 0.00192260 -1.00000000
				-0.37273980 -0.03261280 -1.25878100 / 0.00000000 1.00000000 0.00000000 / 78 77 0 255 / 0.41347910 -0.51332570 / 0.99999910 0.00000000 -0.00135540 1.00000000
				-0.37273980 -0.03261280 -1.25878100 / 0.00000000 1.00000000 0.00000000 / 78 77 0 255 / 0.41347910 -0.51332570 / 0.99999820 0.00000000 0.00192260 -1.00000000
				-2.15012000 0.04291150 -1.26219900 / 1.00000000 0.00000000 0.00000000 / 78 77 0 255 / 0.00177410 -0.46130280 / 0.00000000 0.99290030 0.11894970 1.00000000
				-2.15012000 0.04291150 -1.26219900 / 1.00000000 0.00000000 0.00000000 / 78 77 0 255 / 0.00177410 -0.46130280 / 0.00000000 0.99290250 0.11893110 1.00000000
				-2.15039600 -0.02300260 -1.26219900 / 0.00000000 1.00000000 0.00000000 / 78 77 0 255 / 0.00146480 -0.49425700 / 0.99999820 0.00000000 0.00192260 -1.00000000
				2.15039100 0.02299790 1.26073600 / 0.00000000 -1.00000000 0.00000000 / 78 77 0 255 / 0.00146680 -0.82199810 / -1.00000000 0.00000000 0.00000000 -1.00000000
				-2.15012000 0.04291150 -1.26219900 / 0.00000000 -1.00000000 0.00000000 / 78 77 0 255 / 0.99822590 -0.02246330 / -1.00000000 0.00000000 -0.00000070 -1.00000000
				-2.15012000 0.04291150 -1.26219900 / 0.00000000 -1.00000000 0.00000000 / 78 77 0 255 / 0.99822590 -0.02246330 / -1.00000000 0.00000000 0.00000030 -1.00000000
				-2.15012200 0.04229550 1.26073500 / 0.00000000 -1.00000000 0.00000000 / 78 77 0 255 / 0.99822880 -0.82199810 / -1.00000000 0.00000000 -0.00000070 -1.00000000
				-0.37295150 0.03367230 1.26220100 / 0.00000000 -1.00000000 0.00000000 / 78 77 0 255 / 0.58632280 -0.82246260 / -1.00000000 0.00000000 -0.00000070 -1.00000000
				-0.37295150 0.03367230 1.26220100 / 0.00000000 -1.00000000 0.00000000 / 78 77 0 255 / 0.58632280 -0.82246260 / -1.00000000 0.00000000 0.00000030 -1.00000000
				-0.37246510 0.03330800 -1.25878100 / 0.00000000 -1.00000000 0.00000000 / 78 77 0 255 / 0.58621170 -0.02354670 / -1.00000000 0.00000000 0.00000030 -1.00000000
				2.15039600 0.02361970 -1.26220100 / 0.00000000 0.00000000 -1.00000000 / 78 77 0 255 / 0.49454210 -0.02246280 / 0.00413790 0.99999140 0.00000000 -1.00000000
				2.15039600 0.02361970 -1.26220100 / 0.00000000 0.00000000 -1.00000000 / 78 77 0 255 / 0.49454210 -0.02246280 / 0.00419520 0.99999120 0.00000000 1.00000000
			}
		}
	}
}
