Version 165 32
{
	Locked False
	Skinned False
	BoneCount 0
	Mask 255
	Bounds
	{
		Aabb
		{
			Min -24.90759000 20.47772000 -12.38741000
			Max -24.40751000 20.79258000 -12.13790000
		}
		Aabb
		{
			Min -24.90759000 20.47772000 -12.38741000
			Max -24.40751000 20.79258000 -12.13790000
		}
		Aabb
		{
			Min -24.85912000 20.49999000 -12.37228000
			Max -24.42891000 20.71506000 -12.15255000
		}
		Aabb
		{
			Min -24.85759000 20.49695000 -12.37228000
			Max -24.42739000 20.71200000 -12.15255000
		}
	}
	Geometries
	{
		Geometry
		{
			ShaderIndex 5
			Flags -
			VertexDeclaration N209731BE
			Indices 72
			{
				0 59 3 4 36 11 42 45 46 47 48 43 50 55 20
				21 49 51 52 54 56 57 58 53 60 9 40 41 62 61
				63 65 67 68 69 64 22 44 66 70 71 33 1 5 6
				7 8 2 10 14 17 18 23 12 26 19 15 29 13 24
				16 32 27 25 37 30 38 28 34 35 31 39
			}
			Vertices 72
			{
				-24.90759000 20.56421000 -12.38741000 / 0.00000000 0.00000000 -1.00000000 / 0 38 255 255 / 0.99949650 0.99949650
				-24.85125000 20.48428000 -12.15255000 / 0.89419820 0.44767130 0.00000000 / 0 82 255 255 / 0.00050350 0.06050110
				-24.85125000 20.48428000 -12.15255000 / 0.89419820 0.44767130 0.00000000 / 0 82 255 255 / 0.00050350 0.06050110
				-24.40752000 20.70610000 -12.38741000 / 0.00000000 0.00000000 -1.00000000 / 0 38 255 255 / 0.00050350 0.00050350
				-24.40752000 20.70610000 -12.38741000 / 0.00000000 0.00000000 -1.00000000 / 0 38 255 255 / 0.00050350 0.00050350
				-24.85126000 20.48427000 -12.37228000 / 0.89450340 0.44706100 0.00000000 / 0 82 255 255 / 0.00050350 0.93949890
				-24.85912000 20.49999000 -12.37228000 / 0.89438920 0.44728990 0.00000000 / 0 82 255 255 / 0.14228820 0.93949890
				-24.85912000 20.49999000 -12.37228000 / 0.89438920 0.44728990 0.00000000 / 0 82 255 255 / 0.14228820 0.93949890
				-24.85912000 20.49999000 -12.15255000 / 0.89412190 0.44782380 0.00000000 / 0 82 255 255 / 0.14228820 0.06050110
				-24.42106000 20.69933000 -12.37227000 / 0.00000000 0.00000000 1.00000000 / 0 13 255 255 / 0.99949650 0.02983090
				-24.86435000 20.47773000 -12.38741000 / 0.44690840 -0.89457980 -0.00019070 / 0 99 255 255 / 0.00050350 0.99949650
				-24.90759000 20.56421000 -12.38741000 / 0.00000000 0.00000000 -1.00000000 / 0 38 255 255 / 0.99949650 0.99949650
				-24.86435000 20.47773000 -12.38741000 / 0.44690840 -0.89457980 -0.00019070 / 0 99 255 255 / 0.00050350 0.99949650
				-24.86435000 20.47773000 -12.38741000 / 0.44690840 -0.89457980 -0.00019070 / 0 99 255 255 / 0.00050350 0.99949650
				-24.40752000 20.70610000 -12.38741000 / 0.44706100 -0.89450340 -0.00009540 / 0 101 255 255 / 0.99949650 0.99949650
				-24.40752000 20.70610000 -12.38741000 / 0.44706100 -0.89450340 -0.00009540 / 0 101 255 255 / 0.99949650 0.99949650
				-24.40752000 20.70610000 -12.38741000 / 0.44706100 -0.89450340 -0.00009540 / 0 101 255 255 / 0.99949650 0.99949650
				-24.42106000 20.69933000 -12.37227000 / 0.44706100 -0.89450340 -0.00009540 / 0 100 255 255 / 0.97016910 0.93949890
				-24.42106000 20.69933000 -12.37227000 / 0.44706100 -0.89450340 -0.00009540 / 0 100 255 255 / 0.97016910 0.93949890
				-24.42106000 20.69933000 -12.37227000 / 0.44706100 -0.89450340 -0.00009540 / 0 100 255 255 / 0.97016910 0.93949890
				-24.86436000 20.47772000 -12.13790000 / -0.89450340 -0.44706100 0.00000000 / 0 20 255 255 / 0.99949650 0.00050350
				-24.86436000 20.47772000 -12.13790000 / -0.89450340 -0.44706100 0.00000000 / 0 20 255 255 / 0.99949650 0.00050350
				-24.42106000 20.69933000 -12.15255000 / 0.00000000 0.00000000 -1.00000000 / 0 40 255 255 / 0.00050350 0.02983090
				-24.85126000 20.48427000 -12.37228000 / 0.44690840 -0.89457980 -0.00019070 / 0 98 255 255 / 0.02983090 0.93949890
				-24.85126000 20.48427000 -12.37228000 / 0.44690840 -0.89457980 -0.00019070 / 0 98 255 255 / 0.02983090 0.93949890
				-24.85126000 20.48427000 -12.37228000 / 0.44690840 -0.89457980 -0.00019070 / 0 98 255 255 / 0.02983090 0.93949890
				-24.42106000 20.69933000 -12.15255000 / 0.44728990 -0.89438920 0.00009540 / 0 101 255 255 / 0.97016910 0.06050110
				-24.42106000 20.69933000 -12.15255000 / 0.44728990 -0.89438920 0.00009540 / 0 101 255 255 / 0.97016910 0.06050110
				-24.42106000 20.69933000 -12.15255000 / 0.44728990 -0.89438920 0.00009540 / 0 101 255 255 / 0.97016910 0.06050110
				-24.86436000 20.47772000 -12.13790000 / 0.44706100 -0.89450340 0.00009540 / 0 98 255 255 / 0.00050350 0.00050350
				-24.86436000 20.47772000 -12.13790000 / 0.44706100 -0.89450340 0.00009540 / 0 98 255 255 / 0.00050350 0.00050350
				-24.86436000 20.47772000 -12.13790000 / 0.44706100 -0.89450340 0.00009540 / 0 98 255 255 / 0.00050350 0.00050350
				-24.40751000 20.70610000 -12.13790000 / 0.44728990 -0.89438920 0.00009540 / 0 100 255 255 / 0.99949650 0.00050350
				-24.42106000 20.69933000 -12.15255000 / 0.00000000 0.00000000 -1.00000000 / 0 40 255 255 / 0.00050350 0.02983090
				-24.40751000 20.70610000 -12.13790000 / 0.44728990 -0.89438920 0.00009540 / 0 100 255 255 / 0.99949650 0.00050350
				-24.40751000 20.70610000 -12.13790000 / 0.44728990 -0.89438920 0.00009540 / 0 100 255 255 / 0.99949650 0.00050350
				-24.86435000 20.47773000 -12.38741000 / 0.00000000 0.00000000 -1.00000000 / 0 38 255 255 / 0.00050350 0.99949650
				-24.85125000 20.48428000 -12.15255000 / 0.44706100 -0.89450340 0.00009540 / 0 99 255 255 / 0.02983090 0.06050110
				-24.85125000 20.48428000 -12.15255000 / 0.44706100 -0.89450340 0.00009540 / 0 99 255 255 / 0.02983090 0.06050110
				-24.85125000 20.48428000 -12.15255000 / 0.44706100 -0.89450340 0.00009540 / 0 99 255 255 / 0.02983090 0.06050110
				-24.42891000 20.71506000 -12.37227000 / 0.00000000 0.00000000 1.00000000 / 0 13 255 255 / 0.85771180 0.02983090
				-24.42891000 20.71506000 -12.37227000 / 0.00000000 0.00000000 1.00000000 / 0 13 255 255 / 0.85771180 0.02983090
				-24.90759000 20.56421000 -12.13790000 / 0.00000000 0.00000000 1.00000000 / 0 20 255 255 / 0.00050350 0.99949650
				-24.90759000 20.56421000 -12.13790000 / 0.00000000 0.00000000 1.00000000 / 0 20 255 255 / 0.00050350 0.99949650
				-24.85125000 20.48428000 -12.15255000 / 0.00000000 0.00000000 -1.00000000 / 0 40 255 255 / 0.00050350 0.97016910
				-24.86436000 20.47772000 -12.13790000 / 0.00000000 0.00000000 1.00000000 / 0 20 255 255 / 0.99949650 0.99949650
				-24.40751000 20.70610000 -12.13790000 / 0.00000000 0.00000000 1.00000000 / 0 20 255 255 / 0.99949650 0.00050350
				-24.40751000 20.70610000 -12.13790000 / 0.00000000 0.00000000 1.00000000 / 0 20 255 255 / 0.99949650 0.00050350
				-24.45075000 20.79257000 -12.13790000 / 0.00000000 0.00000000 1.00000000 / 0 20 255 255 / 0.00050350 0.00050350
				-24.90759000 20.56421000 -12.13790000 / -0.89450340 -0.44706100 0.00000000 / 0 20 255 255 / 0.00050350 0.00050350
				-24.90759000 20.56421000 -12.38741000 / -0.89450340 -0.44706100 0.00000000 / 0 20 255 255 / 0.00050350 0.99949650
				-24.90759000 20.56421000 -12.38741000 / -0.89450340 -0.44706100 0.00000000 / 0 20 255 255 / 0.00050350 0.99949650
				-24.40752000 20.70610000 -12.38741000 / 0.89438920 0.44728990 0.00000000 / 0 87 255 255 / 0.00050350 0.99949650
				-24.40752000 20.70610000 -12.38741000 / 0.89438920 0.44728990 0.00000000 / 0 87 255 255 / 0.00050350 0.99949650
				-24.45075000 20.79258000 -12.38741000 / 0.89450340 0.44706100 0.00000000 / 0 86 255 255 / 0.99949650 0.99949650
				-24.86435000 20.47773000 -12.38741000 / -0.89438920 -0.44728990 0.00000000 / 0 20 255 255 / 0.99949650 0.99949650
				-24.45075000 20.79257000 -12.13790000 / 0.89438920 0.44728990 0.00000000 / 0 87 255 255 / 0.99949650 0.00050350
				-24.45075000 20.79257000 -12.13790000 / 0.89438920 0.44728990 0.00000000 / 0 87 255 255 / 0.99949650 0.00050350
				-24.40751000 20.70610000 -12.13790000 / 0.89438920 0.44728990 0.00000000 / 0 88 255 255 / 0.00050350 0.00050350
				-24.45075000 20.79258000 -12.38741000 / 0.00000000 0.00000000 -1.00000000 / 0 38 255 255 / 0.99949650 0.00050350
				-24.85126000 20.48427000 -12.37228000 / 0.00000000 0.00000000 1.00000000 / 0 13 255 255 / 0.99949650 0.97016910
				-24.85126000 20.48427000 -12.37228000 / 0.00000000 0.00000000 1.00000000 / 0 13 255 255 / 0.99949650 0.97016910
				-24.85912000 20.49999000 -12.37228000 / 0.00000000 0.00000000 1.00000000 / 0 13 255 255 / 0.85771180 0.97016910
				-24.42106000 20.69933000 -12.37227000 / -0.89469410 -0.44667950 0.00000000 / 0 21 255 255 / 0.99949650 0.93949890
				-24.42106000 20.69933000 -12.37227000 / -0.89469410 -0.44667950 0.00000000 / 0 21 255 255 / 0.99949650 0.93949890
				-24.42106000 20.69933000 -12.15255000 / -0.89457980 -0.44690840 0.00000000 / 0 20 255 255 / 0.99949650 0.06050110
				-24.85912000 20.49999000 -12.15255000 / 0.00000000 0.00000000 -1.00000000 / 0 40 255 255 / 0.14228820 0.97016910
				-24.42891000 20.71506000 -12.15255000 / -0.89457980 -0.44690840 0.00000000 / 0 21 255 255 / 0.85771180 0.06050110
				-24.42891000 20.71506000 -12.15255000 / -0.89457980 -0.44690840 0.00000000 / 0 21 255 255 / 0.85771180 0.06050110
				-24.42891000 20.71506000 -12.37227000 / -0.89469410 -0.44667950 0.00000000 / 0 21 255 255 / 0.85771180 0.93949890
				-24.85912000 20.49999000 -12.15255000 / 0.00000000 0.00000000 -1.00000000 / 0 40 255 255 / 0.14228820 0.97016910
				-24.42891000 20.71506000 -12.15255000 / 0.00000000 0.00000000 -1.00000000 / 0 40 255 255 / 0.14228820 0.02983090
			}
		}
		Geometry
		{
			ShaderIndex 6
			Flags -
			VertexDeclaration N209731BE
			Indices 6
			{
				0 2 3 4 5 1
			}
			Vertices 6
			{
				-24.85912000 20.49999000 -12.37228000 / 0.44706100 -0.89450340 0.00000000 / 0 45 255 255 / 0.02983090 0.93949890
				-24.85912000 20.49999000 -12.37228000 / 0.44706100 -0.89450340 0.00000000 / 0 45 255 255 / 0.02983090 0.93949890
				-24.42891000 20.71506000 -12.37227000 / 0.44706100 -0.89450340 0.00000000 / 0 44 255 255 / 0.97016910 0.93949890
				-24.42891000 20.71506000 -12.15255000 / 0.44706100 -0.89450340 0.00000000 / 0 45 255 255 / 0.97016910 0.06050110
				-24.42891000 20.71506000 -12.15255000 / 0.44706100 -0.89450340 0.00000000 / 0 45 255 255 / 0.97016910 0.06050110
				-24.85912000 20.49999000 -12.15255000 / 0.44706100 -0.89450340 0.00000000 / 0 46 255 255 / 0.02983090 0.06050110
			}
		}
		Geometry
		{
			ShaderIndex 7
			Flags -
			VertexDeclaration N209731BE
			Indices 6
			{
				0 2 3 4 5 1
			}
			Vertices 6
			{
				-24.85759000 20.49695000 -12.37228000 / 0.44706100 -0.89450340 0.00000000 / 0 46 255 255 / 0.02983090 0.93949890
				-24.85759000 20.49695000 -12.37228000 / 0.44706100 -0.89450340 0.00000000 / 0 46 255 255 / 0.02983090 0.93949890
				-24.42739000 20.71200000 -12.37227000 / 0.44706100 -0.89450340 0.00000000 / 0 45 255 255 / 0.97016910 0.93949890
				-24.42739000 20.71200000 -12.15255000 / 0.44706100 -0.89450340 0.00000000 / 0 46 255 255 / 0.97016910 0.06050110
				-24.42739000 20.71200000 -12.15255000 / 0.44706100 -0.89450340 0.00000000 / 0 46 255 255 / 0.97016910 0.06050110
				-24.85759000 20.49695000 -12.15255000 / 0.44706100 -0.89450340 0.00000000 / 0 47 255 255 / 0.02983090 0.06050110
			}
		}
	}
}
