Version 165 32
{
	Locked False
	Skinned False
	BoneCount 0
	Mask 255
	Bounds
	{
		Aabb
		{
			Min -2.05499700 31.41309000 -14.48909000
			Max -1.55492400 31.72794000 -14.23957000
		}
		Aabb
		{
			Min -2.05499700 31.41309000 -14.48909000
			Max -1.55492400 31.72794000 -14.23957000
		}
		Aabb
		{
			Min -2.00652300 31.43535000 -14.47395000
			Max -1.57631900 31.65042000 -14.25422000
		}
		Aabb
		{
			Min -2.00500100 31.43231000 -14.47395000
			Max -1.57479500 31.64737000 -14.25422000
		}
	}
	Geometries
	{
		Geometry
		{
			ShaderIndex 5
			Flags -
			VertexDeclaration N209731BE
			Indices 72
			{
				0 59 3 4 36 11 42 45 46 47 48 43 50 55 20
				21 49 51 52 54 56 57 58 53 60 9 40 41 62 61
				63 65 67 68 69 64 22 44 66 70 71 33 1 5 6
				7 8 2 10 14 17 18 23 12 26 19 15 29 13 24
				16 32 27 25 37 30 38 28 34 35 31 39
			}
			Vertices 72
			{
				-2.05499600 31.49957000 -14.48909000 / 0.00000000 0.00000000 -1.00000000 / 0 38 255 255 / 0.99949650 0.99949650
				-1.99865500 31.41964000 -14.25422000 / 0.89420530 0.44765700 0.00000000 / 0 82 255 255 / 0.00050350 0.06050110
				-1.99865500 31.41964000 -14.25422000 / 0.89420530 0.44765700 0.00000000 / 0 82 255 255 / 0.00050350 0.06050110
				-1.55492600 31.64147000 -14.48908000 / 0.00001190 0.00000000 -1.00000000 / 0 38 255 255 / 0.00050350 0.00050350
				-1.55492600 31.64147000 -14.48908000 / 0.00001190 0.00000000 -1.00000000 / 0 38 255 255 / 0.00050350 0.00050350
				-1.99866400 31.41963000 -14.47395000 / 0.89458690 0.44689410 -0.00009540 / 0 82 255 255 / 0.00050350 0.93949890
				-2.00652300 31.43536000 -14.47395000 / 0.89449390 0.44708010 0.00000000 / 0 82 255 255 / 0.14228820 0.93949890
				-2.00652300 31.43536000 -14.47395000 / 0.89449390 0.44708010 0.00000000 / 0 82 255 255 / 0.14228820 0.93949890
				-2.00652200 31.43535000 -14.25422000 / 0.89420530 0.44765700 0.00000000 / 0 82 255 255 / 0.14228820 0.06050110
				-1.56846800 31.63470000 -14.47395000 / -0.00001190 0.00000000 1.00000000 / 0 13 255 255 / 0.99949650 0.02983090
				-2.01176400 31.41310000 -14.48909000 / 0.44662220 -0.89472260 -0.00038150 / 0 99 255 255 / 0.00050350 0.99949650
				-2.05499600 31.49957000 -14.48909000 / 0.00000000 0.00000000 -1.00000000 / 0 38 255 255 / 0.99949650 0.99949650
				-2.01176400 31.41310000 -14.48909000 / 0.44662220 -0.89472260 -0.00038150 / 0 99 255 255 / 0.00050350 0.99949650
				-2.01176400 31.41310000 -14.48909000 / 0.44662220 -0.89472260 -0.00038150 / 0 99 255 255 / 0.00050350 0.99949650
				-1.55492600 31.64147000 -14.48908000 / 0.44731850 -0.89437480 -0.00009540 / 0 101 255 255 / 0.99949650 0.99949650
				-1.55492600 31.64147000 -14.48908000 / 0.44731850 -0.89437480 -0.00009540 / 0 101 255 255 / 0.99949650 0.99949650
				-1.55492600 31.64147000 -14.48908000 / 0.44731850 -0.89437480 -0.00009540 / 0 101 255 255 / 0.99949650 0.99949650
				-1.56846800 31.63470000 -14.47395000 / 0.44731850 -0.89437480 -0.00009540 / 0 100 255 255 / 0.97016910 0.93949890
				-1.56846800 31.63470000 -14.47395000 / 0.44731850 -0.89437480 -0.00009540 / 0 100 255 255 / 0.97016910 0.93949890
				-1.56846800 31.63470000 -14.47395000 / 0.44731850 -0.89437480 -0.00009540 / 0 100 255 255 / 0.97016910 0.93949890
				-2.01177100 31.41309000 -14.23958000 / -0.89449390 -0.44708010 0.00000000 / 0 20 255 255 / 0.99949650 0.00050350
				-2.01177100 31.41309000 -14.23958000 / -0.89449390 -0.44708010 0.00000000 / 0 20 255 255 / 0.99949650 0.00050350
				-1.56846300 31.63469000 -14.25422000 / -0.00001190 0.00000000 -1.00000000 / 0 40 255 255 / 0.00050350 0.02983090
				-1.99866400 31.41963000 -14.47395000 / 0.44663170 -0.89471780 -0.00047680 / 0 98 255 255 / 0.02983090 0.93949890
				-1.99866400 31.41963000 -14.47395000 / 0.44663170 -0.89471780 -0.00047680 / 0 98 255 255 / 0.02983090 0.93949890
				-1.99866400 31.41963000 -14.47395000 / 0.44663170 -0.89471780 -0.00047680 / 0 98 255 255 / 0.02983090 0.93949890
				-1.56846300 31.63469000 -14.25422000 / 0.44731850 -0.89437480 0.00000000 / 0 101 255 255 / 0.97016910 0.06050110
				-1.56846300 31.63469000 -14.25422000 / 0.44731850 -0.89437480 0.00000000 / 0 101 255 255 / 0.97016910 0.06050110
				-1.56846300 31.63469000 -14.25422000 / 0.44731850 -0.89437480 0.00000000 / 0 101 255 255 / 0.97016910 0.06050110
				-2.01177100 31.41309000 -14.23958000 / 0.44692740 -0.89457010 0.00028610 / 0 98 255 255 / 0.00050350 0.00050350
				-2.01177100 31.41309000 -14.23958000 / 0.44692740 -0.89457010 0.00028610 / 0 98 255 255 / 0.00050350 0.00050350
				-2.01177100 31.41309000 -14.23958000 / 0.44692740 -0.89457010 0.00028610 / 0 98 255 255 / 0.00050350 0.00050350
				-1.55492400 31.64146000 -14.23957000 / 0.44731850 -0.89437480 0.00000000 / 0 100 255 255 / 0.99949650 0.00050350
				-1.56846300 31.63469000 -14.25422000 / -0.00001190 0.00000000 -1.00000000 / 0 40 255 255 / 0.00050350 0.02983090
				-1.55492400 31.64146000 -14.23957000 / 0.44731850 -0.89437480 0.00000000 / 0 100 255 255 / 0.99949650 0.00050350
				-1.55492400 31.64146000 -14.23957000 / 0.44731850 -0.89437480 0.00000000 / 0 100 255 255 / 0.99949650 0.00050350
				-2.01176400 31.41310000 -14.48909000 / 0.00000000 0.00000000 -1.00000000 / 0 38 255 255 / 0.00050350 0.99949650
				-1.99865500 31.41964000 -14.25422000 / 0.44695610 -0.89455590 0.00028610 / 0 99 255 255 / 0.02983090 0.06050110
				-1.99865500 31.41964000 -14.25422000 / 0.44695610 -0.89455590 0.00028610 / 0 99 255 255 / 0.02983090 0.06050110
				-1.99865500 31.41964000 -14.25422000 / 0.44695610 -0.89455590 0.00028610 / 0 99 255 255 / 0.02983090 0.06050110
				-1.57631900 31.65042000 -14.47395000 / -0.00001190 0.00000000 1.00000000 / 0 13 255 255 / 0.85771180 0.02983090
				-1.57631900 31.65042000 -14.47395000 / -0.00001190 0.00000000 1.00000000 / 0 13 255 255 / 0.85771180 0.02983090
				-2.05499700 31.49957000 -14.23958000 / -0.00002380 0.00000000 1.00000000 / 0 20 255 255 / 0.00050350 0.99949650
				-2.05499700 31.49957000 -14.23958000 / -0.00002380 0.00000000 1.00000000 / 0 20 255 255 / 0.00050350 0.99949650
				-1.99865500 31.41964000 -14.25422000 / 0.00001190 0.00000000 -1.00000000 / 0 40 255 255 / 0.00050350 0.97016910
				-2.01177100 31.41309000 -14.23958000 / -0.00002380 0.00000000 1.00000000 / 0 20 255 255 / 0.99949650 0.99949650
				-1.55492400 31.64146000 -14.23957000 / -0.00001190 0.00000000 1.00000000 / 0 20 255 255 / 0.99949650 0.00050350
				-1.55492400 31.64146000 -14.23957000 / -0.00001190 0.00000000 1.00000000 / 0 20 255 255 / 0.99949650 0.00050350
				-1.59816100 31.72794000 -14.23957000 / -0.00001190 0.00000000 1.00000000 / 0 20 255 255 / 0.00050350 0.00050350
				-2.05499700 31.49957000 -14.23958000 / -0.89449390 -0.44708010 0.00000000 / 0 20 255 255 / 0.00050350 0.00050350
				-2.05499600 31.49957000 -14.48909000 / -0.89449390 -0.44708010 0.00000000 / 0 20 255 255 / 0.00050350 0.99949650
				-2.05499600 31.49957000 -14.48909000 / -0.89449390 -0.44708010 0.00000000 / 0 20 255 255 / 0.00050350 0.99949650
				-1.55492600 31.64147000 -14.48908000 / 0.89449160 0.44708490 0.00000000 / 0 87 255 255 / 0.00050350 0.99949650
				-1.55492600 31.64147000 -14.48908000 / 0.89449160 0.44708490 0.00000000 / 0 87 255 255 / 0.00050350 0.99949650
				-1.59815700 31.72794000 -14.48908000 / 0.89449160 0.44708490 0.00000000 / 0 86 255 255 / 0.99949650 0.99949650
				-2.01176400 31.41310000 -14.48909000 / -0.89449390 -0.44708010 0.00000000 / 0 20 255 255 / 0.99949650 0.99949650
				-1.59816100 31.72794000 -14.23957000 / 0.89439860 0.44727080 0.00000000 / 0 87 255 255 / 0.99949650 0.00050350
				-1.59816100 31.72794000 -14.23957000 / 0.89439860 0.44727080 0.00000000 / 0 87 255 255 / 0.99949650 0.00050350
				-1.55492400 31.64146000 -14.23957000 / 0.89439860 0.44727080 0.00000000 / 0 88 255 255 / 0.00050350 0.00050350
				-1.59815700 31.72794000 -14.48908000 / 0.00001190 0.00000000 -1.00000000 / 0 38 255 255 / 0.99949650 0.00050350
				-1.99866400 31.41963000 -14.47395000 / -0.00001190 0.00000000 1.00000000 / 0 13 255 255 / 0.99949650 0.97016910
				-1.99866400 31.41963000 -14.47395000 / -0.00001190 0.00000000 1.00000000 / 0 13 255 255 / 0.99949650 0.97016910
				-2.00652300 31.43536000 -14.47395000 / 0.00000000 0.00000000 1.00000000 / 0 13 255 255 / 0.85771180 0.97016910
				-1.56846800 31.63470000 -14.47395000 / -0.89468450 -0.44669850 0.00000000 / 0 21 255 255 / 0.99949650 0.93949890
				-1.56846800 31.63470000 -14.47395000 / -0.89468450 -0.44669850 0.00000000 / 0 21 255 255 / 0.99949650 0.93949890
				-1.56846300 31.63469000 -14.25422000 / -0.89458920 -0.44688930 0.00000000 / 0 20 255 255 / 0.99949650 0.06050110
				-2.00652200 31.43535000 -14.25422000 / 0.00000000 0.00000000 -1.00000000 / 0 40 255 255 / 0.14228820 0.97016910
				-1.57632000 31.65042000 -14.25422000 / -0.89458920 -0.44688930 0.00000000 / 0 21 255 255 / 0.85771180 0.06050110
				-1.57632000 31.65042000 -14.25422000 / -0.89458920 -0.44688930 0.00000000 / 0 21 255 255 / 0.85771180 0.06050110
				-1.57631900 31.65042000 -14.47395000 / -0.89468450 -0.44669850 0.00000000 / 0 21 255 255 / 0.85771180 0.93949890
				-2.00652200 31.43535000 -14.25422000 / 0.00000000 0.00000000 -1.00000000 / 0 40 255 255 / 0.14228820 0.97016910
				-1.57632000 31.65042000 -14.25422000 / -0.00001190 0.00000000 -1.00000000 / 0 40 255 255 / 0.14228820 0.02983090
			}
		}
		Geometry
		{
			ShaderIndex 6
			Flags -
			VertexDeclaration N209731BE
			Indices 6
			{
				0 2 3 4 5 1
			}
			Vertices 6
			{
				-2.00652300 31.43536000 -14.47395000 / 0.44700380 -0.89453200 0.00000000 / 0 45 255 255 / 0.02983090 0.93949890
				-2.00652300 31.43536000 -14.47395000 / 0.44700380 -0.89453200 0.00000000 / 0 45 255 255 / 0.02983090 0.93949890
				-1.57631900 31.65042000 -14.47395000 / 0.44701330 -0.89452730 0.00000000 / 0 44 255 255 / 0.97016910 0.93949890
				-1.57632000 31.65042000 -14.25422000 / 0.44701330 -0.89452730 0.00000000 / 0 45 255 255 / 0.97016910 0.06050110
				-1.57632000 31.65042000 -14.25422000 / 0.44701330 -0.89452730 0.00000000 / 0 45 255 255 / 0.97016910 0.06050110
				-2.00652200 31.43535000 -14.25422000 / 0.44700380 -0.89453200 0.00000000 / 0 46 255 255 / 0.02983090 0.06050110
			}
		}
		Geometry
		{
			ShaderIndex 7
			Flags -
			VertexDeclaration N209731BE
			Indices 6
			{
				0 2 3 4 5 1
			}
			Vertices 6
			{
				-2.00500100 31.43231000 -14.47395000 / 0.44700380 -0.89453200 0.00000000 / 0 46 255 255 / 0.02983090 0.93949890
				-2.00500100 31.43231000 -14.47395000 / 0.44700380 -0.89453200 0.00000000 / 0 46 255 255 / 0.02983090 0.93949890
				-1.57479500 31.64736000 -14.47395000 / 0.44700380 -0.89453200 0.00000000 / 0 45 255 255 / 0.97016910 0.93949890
				-1.57479700 31.64737000 -14.25422000 / 0.44700380 -0.89453200 0.00000000 / 0 46 255 255 / 0.97016910 0.06050110
				-1.57479700 31.64737000 -14.25422000 / 0.44700380 -0.89453200 0.00000000 / 0 46 255 255 / 0.97016910 0.06050110
				-2.00499800 31.43232000 -14.25422000 / 0.44700380 -0.89453200 0.00000000 / 0 47 255 255 / 0.02983090 0.06050110
			}
		}
	}
}
