Version 165 32
{
	Locked False
	Skinned False
	BoneCount 0
	Mask 255
	Bounds
	{
		Aabb
		{
			Min -33.64033000 0.83164920 -12.41057000
			Max -33.32134000 1.33026600 -12.16106000
		}
		Aabb
		{
			Min -33.64033000 0.83164920 -12.41057000
			Max -33.32134000 1.33026600 -12.16106000
		}
		Aabb
		{
			Min -33.56304000 0.88076020 -12.39544000
			Max -33.34367000 1.30877800 -12.17571000
		}
		Aabb
		{
			Min -33.56000000 0.88232120 -12.39544000
			Max -33.34063000 1.31033600 -12.17571000
		}
	}
	Geometries
	{
		Geometry
		{
			ShaderIndex 5
			Flags -
			VertexDeclaration N209731BE
			Indices 72
			{
				0 59 3 4 36 11 42 45 46 47 48 43 50 55 20
				21 49 51 52 54 56 57 58 53 60 9 40 41 62 61
				63 65 67 68 69 64 22 44 66 70 71 33 1 5 6
				7 8 2 10 14 17 18 23 12 26 19 15 29 13 24
				16 32 27 25 37 30 38 28 34 35 31 39
			}
			Vertices 72
			{
				-33.40738000 0.83164920 -12.41057000 / 0.00000000 0.00000000 -1.00000000 / 0 38 255 255 / 0.99949650 0.99949650
				-33.32803000 0.88878390 -12.17571000 / -0.45661820 0.88966280 0.00000000 / 0 82 255 255 / 0.00050350 0.06050110
				-33.32803000 0.88878390 -12.17571000 / -0.45661820 0.88966280 0.00000000 / 0 82 255 255 / 0.00050350 0.06050110
				-33.55430000 1.33026600 -12.41057000 / 0.00000000 0.00000000 -1.00000000 / 0 38 255 255 / 0.00050350 0.00050350
				-33.55430000 1.33026600 -12.41057000 / 0.00000000 0.00000000 -1.00000000 / 0 38 255 255 / 0.00050350 0.00050350
				-33.32802000 0.88877880 -12.39544000 / -0.45623630 0.88985860 0.00000000 / 0 82 255 255 / 0.00050350 0.93949890
				-33.34367000 0.88076020 -12.39544000 / -0.45623630 0.88985860 0.00000000 / 0 82 255 255 / 0.14228820 0.93949890
				-33.34367000 0.88076020 -12.39544000 / -0.45623630 0.88985860 0.00000000 / 0 82 255 255 / 0.14228820 0.93949890
				-33.34367000 0.88076020 -12.17571000 / -0.45661820 0.88966280 0.00000000 / 0 82 255 255 / 0.14228820 0.06050110
				-33.54740000 1.31679200 -12.39544000 / 0.00000000 0.00002380 1.00000000 / 0 13 255 255 / 0.99949650 0.02983090
				-33.32135000 0.87574420 -12.41057000 / 0.88997300 0.45601340 -0.00019070 / 0 99 255 255 / 0.00050350 0.99949650
				-33.40738000 0.83164920 -12.41057000 / 0.00000000 0.00000000 -1.00000000 / 0 38 255 255 / 0.99949650 0.99949650
				-33.32135000 0.87574420 -12.41057000 / 0.88997300 0.45601340 -0.00019070 / 0 99 255 255 / 0.00050350 0.99949650
				-33.32135000 0.87574420 -12.41057000 / 0.88997300 0.45601340 -0.00019070 / 0 99 255 255 / 0.00050350 0.99949650
				-33.55430000 1.33026600 -12.41057000 / 0.88995360 0.45605110 -0.00009540 / 0 101 255 255 / 0.99949650 0.99949650
				-33.55430000 1.33026600 -12.41057000 / 0.88995360 0.45605110 -0.00009540 / 0 101 255 255 / 0.99949650 0.99949650
				-33.55430000 1.33026600 -12.41057000 / 0.88995360 0.45605110 -0.00009540 / 0 101 255 255 / 0.99949650 0.99949650
				-33.54740000 1.31679200 -12.39544000 / 0.88995360 0.45605110 -0.00009540 / 0 100 255 255 / 0.97016910 0.93949890
				-33.54740000 1.31679200 -12.39544000 / 0.88995360 0.45605110 -0.00009540 / 0 100 255 255 / 0.97016910 0.93949890
				-33.54740000 1.31679200 -12.39544000 / 0.88995360 0.45605110 -0.00009540 / 0 100 255 255 / 0.97016910 0.93949890
				-33.32134000 0.87574260 -12.16106000 / 0.45623870 -0.88985740 0.00000000 / 0 20 255 255 / 0.99949650 0.00050350
				-33.32134000 0.87574260 -12.16106000 / 0.45623870 -0.88985740 0.00000000 / 0 20 255 255 / 0.99949650 0.00050350
				-33.54740000 1.31679300 -12.17571000 / 0.00000000 -0.00002380 -1.00000000 / 0 40 255 255 / 0.00050350 0.02983090
				-33.32802000 0.88877880 -12.39544000 / 0.88997300 0.45601340 -0.00019070 / 0 98 255 255 / 0.02983090 0.93949890
				-33.32802000 0.88877880 -12.39544000 / 0.88997300 0.45601340 -0.00019070 / 0 98 255 255 / 0.02983090 0.93949890
				-33.32802000 0.88877880 -12.39544000 / 0.88997300 0.45601340 -0.00019070 / 0 98 255 255 / 0.02983090 0.93949890
				-33.54740000 1.31679300 -12.17571000 / 0.88995840 0.45604170 0.00000000 / 0 101 255 255 / 0.97016910 0.06050110
				-33.54740000 1.31679300 -12.17571000 / 0.88995840 0.45604170 0.00000000 / 0 101 255 255 / 0.97016910 0.06050110
				-33.54740000 1.31679300 -12.17571000 / 0.88995840 0.45604170 0.00000000 / 0 101 255 255 / 0.97016910 0.06050110
				-33.32134000 0.87574260 -12.16106000 / 0.88995360 0.45605110 -0.00009540 / 0 98 255 255 / 0.00050350 0.00050350
				-33.32134000 0.87574260 -12.16106000 / 0.88995360 0.45605110 -0.00009540 / 0 98 255 255 / 0.00050350 0.00050350
				-33.32134000 0.87574260 -12.16106000 / 0.88995360 0.45605110 -0.00009540 / 0 98 255 255 / 0.00050350 0.00050350
				-33.55430000 1.33026600 -12.16106000 / 0.88995840 0.45604170 0.00000000 / 0 100 255 255 / 0.99949650 0.00050350
				-33.54740000 1.31679300 -12.17571000 / 0.00000000 -0.00002380 -1.00000000 / 0 40 255 255 / 0.00050350 0.02983090
				-33.55430000 1.33026600 -12.16106000 / 0.88995840 0.45604170 0.00000000 / 0 100 255 255 / 0.99949650 0.00050350
				-33.55430000 1.33026600 -12.16106000 / 0.88995840 0.45604170 0.00000000 / 0 100 255 255 / 0.99949650 0.00050350
				-33.32135000 0.87574420 -12.41057000 / 0.00000000 0.00000000 -1.00000000 / 0 38 255 255 / 0.00050350 0.99949650
				-33.32803000 0.88878390 -12.17571000 / 0.88995120 0.45605580 -0.00009540 / 0 99 255 255 / 0.02983090 0.06050110
				-33.32803000 0.88878390 -12.17571000 / 0.88995120 0.45605580 -0.00009540 / 0 99 255 255 / 0.02983090 0.06050110
				-33.32803000 0.88878390 -12.17571000 / 0.88995120 0.45605580 -0.00009540 / 0 99 255 255 / 0.02983090 0.06050110
				-33.56304000 1.30877800 -12.39544000 / 0.00000000 0.00002380 1.00000000 / 0 13 255 255 / 0.85771180 0.02983090
				-33.56304000 1.30877800 -12.39544000 / 0.00000000 0.00002380 1.00000000 / 0 13 255 255 / 0.85771180 0.02983090
				-33.40738000 0.83164920 -12.16106000 / 0.00000000 -0.00000600 1.00000000 / 0 20 255 255 / 0.00050350 0.99949650
				-33.40738000 0.83164920 -12.16106000 / 0.00000000 -0.00000600 1.00000000 / 0 20 255 255 / 0.00050350 0.99949650
				-33.32803000 0.88878390 -12.17571000 / 0.00000000 0.00000000 -1.00000000 / 0 40 255 255 / 0.00050350 0.97016910
				-33.32134000 0.87574260 -12.16106000 / 0.00000000 -0.00000600 1.00000000 / 0 20 255 255 / 0.99949650 0.99949650
				-33.55430000 1.33026600 -12.16106000 / 0.00000000 0.00000000 1.00000000 / 0 20 255 255 / 0.99949650 0.00050350
				-33.55430000 1.33026600 -12.16106000 / 0.00000000 0.00000000 1.00000000 / 0 20 255 255 / 0.99949650 0.00050350
				-33.64033000 1.28616900 -12.16106000 / 0.00000000 -0.00001190 1.00000000 / 0 20 255 255 / 0.00050350 0.00050350
				-33.40738000 0.83164920 -12.16106000 / 0.45623630 -0.88985860 0.00000000 / 0 20 255 255 / 0.00050350 0.00050350
				-33.40738000 0.83164920 -12.41057000 / 0.45623630 -0.88985860 0.00000000 / 0 20 255 255 / 0.00050350 0.99949650
				-33.40738000 0.83164920 -12.41057000 / 0.45623630 -0.88985860 0.00000000 / 0 20 255 255 / 0.00050350 0.99949650
				-33.55430000 1.33026600 -12.41057000 / -0.45623630 0.88985860 0.00000000 / 0 87 255 255 / 0.00050350 0.99949650
				-33.55430000 1.33026600 -12.41057000 / -0.45623630 0.88985860 0.00000000 / 0 87 255 255 / 0.00050350 0.99949650
				-33.64033000 1.28616700 -12.41057000 / -0.45623630 0.88985860 0.00000000 / 0 86 255 255 / 0.99949650 0.99949650
				-33.32135000 0.87574420 -12.41057000 / 0.45623630 -0.88985860 0.00000000 / 0 20 255 255 / 0.99949650 0.99949650
				-33.64033000 1.28616900 -12.16106000 / -0.45623630 0.88985860 0.00000000 / 0 87 255 255 / 0.99949650 0.00050350
				-33.64033000 1.28616900 -12.16106000 / -0.45623630 0.88985860 0.00000000 / 0 87 255 255 / 0.99949650 0.00050350
				-33.55430000 1.33026600 -12.16106000 / -0.45623630 0.88985860 0.00000000 / 0 88 255 255 / 0.00050350 0.00050350
				-33.64033000 1.28616700 -12.41057000 / 0.00000000 0.00000000 -1.00000000 / 0 38 255 255 / 0.99949650 0.00050350
				-33.32802000 0.88877880 -12.39544000 / 0.00000000 0.00000000 1.00000000 / 0 13 255 255 / 0.99949650 0.97016910
				-33.32802000 0.88877880 -12.39544000 / 0.00000000 0.00000000 1.00000000 / 0 13 255 255 / 0.99949650 0.97016910
				-33.34367000 0.88076020 -12.39544000 / 0.00000000 0.00000000 1.00000000 / 0 13 255 255 / 0.85771180 0.97016910
				-33.54740000 1.31679200 -12.39544000 / 0.45585680 -0.89005320 0.00000000 / 0 21 255 255 / 0.99949650 0.93949890
				-33.54740000 1.31679200 -12.39544000 / 0.45585680 -0.89005320 0.00000000 / 0 21 255 255 / 0.99949650 0.93949890
				-33.54740000 1.31679300 -12.17571000 / 0.45585680 -0.89005320 0.00000000 / 0 20 255 255 / 0.99949650 0.06050110
				-33.34367000 0.88076020 -12.17571000 / 0.00000000 0.00000000 -1.00000000 / 0 40 255 255 / 0.14228820 0.97016910
				-33.56304000 1.30877800 -12.17571000 / 0.45585680 -0.89005320 0.00000000 / 0 21 255 255 / 0.85771180 0.06050110
				-33.56304000 1.30877800 -12.17571000 / 0.45585680 -0.89005320 0.00000000 / 0 21 255 255 / 0.85771180 0.06050110
				-33.56304000 1.30877800 -12.39544000 / 0.45585680 -0.89005320 0.00000000 / 0 21 255 255 / 0.85771180 0.93949890
				-33.34367000 0.88076020 -12.17571000 / 0.00000000 0.00000000 -1.00000000 / 0 40 255 255 / 0.14228820 0.97016910
				-33.56304000 1.30877800 -12.17571000 / 0.00000000 -0.00002380 -1.00000000 / 0 40 255 255 / 0.14228820 0.02983090
			}
		}
		Geometry
		{
			ShaderIndex 6
			Flags -
			VertexDeclaration N209731BE
			Indices 6
			{
				0 2 3 4 5 1
			}
			Vertices 6
			{
				-33.34367000 0.88076020 -12.39544000 / 0.88995840 0.45604170 0.00000000 / 0 45 255 255 / 0.02983090 0.93949890
				-33.34367000 0.88076020 -12.39544000 / 0.88995840 0.45604170 0.00000000 / 0 45 255 255 / 0.02983090 0.93949890
				-33.56304000 1.30877800 -12.39544000 / 0.88995840 0.45604170 0.00000000 / 0 44 255 255 / 0.97016910 0.93949890
				-33.56304000 1.30877800 -12.17571000 / 0.88995840 0.45604170 0.00000000 / 0 45 255 255 / 0.97016910 0.06050110
				-33.56304000 1.30877800 -12.17571000 / 0.88995840 0.45604170 0.00000000 / 0 45 255 255 / 0.97016910 0.06050110
				-33.34367000 0.88076020 -12.17571000 / 0.88995840 0.45604170 0.00000000 / 0 46 255 255 / 0.02983090 0.06050110
			}
		}
		Geometry
		{
			ShaderIndex 7
			Flags -
			VertexDeclaration N209731BE
			Indices 6
			{
				0 2 3 4 5 1
			}
			Vertices 6
			{
				-33.34063000 0.88232120 -12.39544000 / 0.88996090 0.45603700 0.00000000 / 0 46 255 255 / 0.02983090 0.93949890
				-33.34063000 0.88232120 -12.39544000 / 0.88996090 0.45603700 0.00000000 / 0 46 255 255 / 0.02983090 0.93949890
				-33.56000000 1.31033500 -12.39544000 / 0.88995840 0.45604170 0.00000000 / 0 45 255 255 / 0.97016910 0.93949890
				-33.56000000 1.31033600 -12.17571000 / 0.88995840 0.45604170 0.00000000 / 0 46 255 255 / 0.97016910 0.06050110
				-33.56000000 1.31033600 -12.17571000 / 0.88995840 0.45604170 0.00000000 / 0 46 255 255 / 0.97016910 0.06050110
				-33.34063000 0.88232130 -12.17571000 / 0.88996090 0.45603700 0.00000000 / 0 47 255 255 / 0.02983090 0.06050110
			}
		}
	}
}
