Version 165 32
{
	Locked False
	Skinned False
	BoneCount 0
	Mask 255
	Bounds
	{
		Aabb
		{
			Min 8.94935700 19.16745000 -13.37654000
			Max 9.19055900 19.62742000 -13.04987000
		}
	}
	Geometries
	{
		Geometry
		{
			ShaderIndex 4
			Flags -
			VertexDeclaration N209731BE
			Indices 30
			{
				0 16 15 17 18 3 19 21 23 11 22 20 24 26 27
				28 1 25 2 29 5 6 8 4 9 7 12 13 14 10
			}
			Vertices 30
			{
				9.18967100 19.16745000 -13.37654000 / 0.93516760 0.35419260 0.00305170 / 48 95 45 255 / 0.94216920 0.92846680
				8.94935700 19.61273000 -13.36189000 / 0.80546790 -0.45242010 -0.38280230 / 41 102 38 255 / 0.00242620 0.99430850
				8.94935700 19.61273000 -13.36189000 / 0.80546790 -0.45242010 -0.38280230 / 41 102 38 255 / 0.00242620 0.99430850
				9.18967100 19.16745000 -13.37654000 / 0.93516760 0.35419260 0.00305170 / 48 95 45 255 / 0.94216920 0.92846680
				8.94935700 19.61273000 -13.36189000 / 0.80546790 -0.45242010 -0.38280230 / 41 102 38 255 / 0.00242620 0.99430850
				9.17544600 19.17172000 -13.06306000 / 0.79612930 -0.44708360 0.40779210 / 41 97 37 255 / 0.99569700 0.00756840
				9.17544600 19.17172000 -13.06306000 / 0.79612930 -0.44708360 0.40779210 / 41 97 37 255 / 0.99569700 0.00756840
				9.17544600 19.17172000 -13.06306000 / 0.79612930 -0.44708360 0.40779210 / 41 97 37 255 / 0.99569700 0.00756840
				8.95066100 19.61338000 -13.06306000 / 0.79679380 -0.44746340 0.40607400 / 38 92 35 255 / 0.00242620 0.00756840
				8.95066100 19.61338000 -13.06306000 / 0.79679380 -0.44746340 0.40607400 / 38 92 35 255 / 0.00242620 0.00756840
				8.95066100 19.61338000 -13.06306000 / 0.79679380 -0.44746340 0.40607400 / 38 92 35 255 / 0.00242620 0.00756840
				8.94936100 19.61274000 -13.36189000 / 0.16003570 -0.98710950 0.00181210 / 33 95 30 255 / 0.00242620 0.99430850
				9.19055400 19.16788000 -13.04988000 / 0.65162180 -0.36600680 0.66440060 / 36 89 33 255 / 0.94216920 0.07342530
				9.19055400 19.16788000 -13.04988000 / 0.65162180 -0.36600680 0.66440060 / 36 89 33 255 / 0.94216920 0.07342530
				8.95667700 19.62742000 -13.04987000 / 0.65152560 -0.36600630 0.66449510 / 33 87 31 255 / 0.05595400 0.07342530
				9.17544700 19.17172000 -13.06306000 / 0.94325600 0.33206120 0.00190730 / 48 95 45 255 / 0.99569700 0.00756840
				9.19055900 19.16787000 -13.04988000 / 0.94345610 0.33149230 0.00190730 / 59 95 55 255 / 0.94216920 0.07342530
				9.17544700 19.17172000 -13.06306000 / 0.94325600 0.33206120 0.00190730 / 48 95 45 255 / 0.99569700 0.00756840
				9.17414200 19.17105000 -13.36189000 / 0.93466420 0.35551760 0.00314700 / 37 95 34 255 / 0.99569700 0.99430850
				8.95667900 19.62741000 -13.04987000 / 0.18302070 -0.98310430 0.00305190 / 33 95 30 255 / 0.05595400 0.07342530
				8.95667900 19.62741000 -13.04987000 / 0.18302070 -0.98310430 0.00305190 / 33 95 30 255 / 0.05595400 0.07342530
				8.95581900 19.62696000 -13.37654000 / 0.15954100 -0.98718970 0.00181190 / 37 95 34 255 / 0.05595400 0.92846680
				8.95066100 19.61339000 -13.06306000 / 0.18452950 -0.98282190 0.00314700 / 29 95 27 255 / 0.00242620 0.00756840
				8.94936100 19.61274000 -13.36189000 / 0.16003570 -0.98710950 0.00181210 / 33 95 30 255 / 0.00242620 0.99430850
				8.95581400 19.62698000 -13.37654000 / 0.66956540 -0.37612390 -0.64047860 / 47 108 43 255 / 0.05595400 0.92846680
				8.95581400 19.62698000 -13.37654000 / 0.66956540 -0.37612390 -0.64047860 / 47 108 43 255 / 0.05595400 0.92846680
				9.18968100 19.16746000 -13.37654000 / 0.66956540 -0.37612390 -0.64047860 / 54 109 50 255 / 0.94216920 0.92846680
				9.17413800 19.17105000 -13.36189000 / 0.80490480 -0.45204370 -0.38442790 / 45 106 41 255 / 0.99569700 0.99430850
				9.17413800 19.17105000 -13.36189000 / 0.80490480 -0.45204370 -0.38442790 / 45 106 41 255 / 0.99569700 0.99430850
				9.17413800 19.17105000 -13.36189000 / 0.80490480 -0.45204370 -0.38442790 / 45 106 41 255 / 0.99569700 0.99430850
			}
		}
	}
}
