Version 165 32
{
	Locked False
	Skinned False
	BoneCount 0
	Mask 255
	Bounds
	{
		Aabb
		{
			Min 3.00271600 30.84971000 -13.37654000
			Max 3.24391300 31.30968000 -13.04988000
		}
	}
	Geometries
	{
		Geometry
		{
			ShaderIndex 4
			Flags -
			VertexDeclaration N209731BE
			Indices 30
			{
				0 16 15 17 18 3 19 21 23 11 22 20 24 26 27
				28 1 25 2 29 5 6 8 4 9 7 12 13 14 10
			}
			Vertices 30
			{
				3.24303200 30.84971000 -13.37654000 / 0.93516760 0.35419260 0.00305170 / 48 95 45 255 / 0.94216920 0.92846680
				3.00271600 31.29498000 -13.36189000 / 0.80545950 -0.45242870 -0.38280960 / 41 102 38 255 / 0.00242620 0.99430850
				3.00271600 31.29498000 -13.36189000 / 0.80545950 -0.45242870 -0.38280960 / 41 102 38 255 / 0.00242620 0.99430850
				3.24303200 30.84971000 -13.37654000 / 0.93516760 0.35419260 0.00305170 / 48 95 45 255 / 0.94216920 0.92846680
				3.00271600 31.29498000 -13.36189000 / 0.80545950 -0.45242870 -0.38280960 / 41 102 38 255 / 0.00242620 0.99430850
				3.22880500 30.85398000 -13.06306000 / 0.79612930 -0.44708360 0.40779210 / 41 97 37 255 / 0.99569700 0.00756840
				3.22880500 30.85398000 -13.06306000 / 0.79612930 -0.44708360 0.40779210 / 41 97 37 255 / 0.99569700 0.00756840
				3.22880500 30.85398000 -13.06306000 / 0.79612930 -0.44708360 0.40779210 / 41 97 37 255 / 0.99569700 0.00756840
				3.00402200 31.29564000 -13.06306000 / 0.79679380 -0.44746340 0.40607400 / 38 92 35 255 / 0.00242620 0.00756840
				3.00402200 31.29564000 -13.06306000 / 0.79679380 -0.44746340 0.40607400 / 38 92 35 255 / 0.00242620 0.00756840
				3.00402200 31.29564000 -13.06306000 / 0.79679380 -0.44746340 0.40607400 / 38 92 35 255 / 0.00242620 0.00756840
				3.00272000 31.29499000 -13.36189000 / 0.16005900 -0.98710580 0.00181210 / 33 95 30 255 / 0.00242620 0.99430850
				3.24391100 30.85014000 -13.04988000 / 0.65159430 -0.36601820 0.66442120 / 36 89 33 255 / 0.94216920 0.07342530
				3.24391100 30.85014000 -13.04988000 / 0.65159430 -0.36601820 0.66442120 / 36 89 33 255 / 0.94216920 0.07342530
				3.01003500 31.30968000 -13.04988000 / 0.65149820 -0.36601770 0.66451570 / 33 87 31 255 / 0.05595400 0.07342530
				3.22880400 30.85398000 -13.06306000 / 0.94325330 0.33206860 0.00190730 / 48 95 45 255 / 0.99569700 0.00756840
				3.24391300 30.85013000 -13.04988000 / 0.94345330 0.33149970 0.00190740 / 59 95 55 255 / 0.94216920 0.07342530
				3.22880400 30.85398000 -13.06306000 / 0.94325330 0.33206860 0.00190730 / 48 95 45 255 / 0.99569700 0.00756840
				3.22750400 30.85331000 -13.36189000 / 0.93465830 0.35553350 0.00314720 / 37 95 34 255 / 0.99569700 0.99430850
				3.01004000 31.30967000 -13.04988000 / 0.18304370 -0.98310010 0.00305190 / 33 95 30 255 / 0.05595400 0.07342530
				3.01004000 31.30967000 -13.04988000 / 0.18304370 -0.98310010 0.00305190 / 33 95 30 255 / 0.05595400 0.07342530
				3.00917900 31.30922000 -13.37654000 / 0.15951780 -0.98719340 0.00181190 / 37 95 34 255 / 0.05595400 0.92846680
				3.00401800 31.29564000 -13.06306000 / 0.18450640 -0.98282630 0.00314700 / 29 95 27 255 / 0.00242620 0.00756840
				3.00272000 31.29499000 -13.36189000 / 0.16005900 -0.98710580 0.00181210 / 33 95 30 255 / 0.00242620 0.99430850
				3.00917500 31.30923000 -13.37654000 / 0.66955220 -0.37612990 -0.64048900 / 47 108 43 255 / 0.05595400 0.92846680
				3.00917500 31.30923000 -13.37654000 / 0.66955220 -0.37612990 -0.64048900 / 47 108 43 255 / 0.05595400 0.92846680
				3.24304000 30.84972000 -13.37654000 / 0.66955220 -0.37612990 -0.64048900 / 54 109 50 255 / 0.94216920 0.92846680
				3.22749900 30.85331000 -13.36189000 / 0.80490480 -0.45204370 -0.38442790 / 45 106 41 255 / 0.99569700 0.99430850
				3.22749900 30.85331000 -13.36189000 / 0.80490480 -0.45204370 -0.38442790 / 45 106 41 255 / 0.99569700 0.99430850
				3.22749900 30.85331000 -13.36189000 / 0.80490480 -0.45204370 -0.38442790 / 45 106 41 255 / 0.99569700 0.99430850
			}
		}
	}
}
