Version 165 32
{
	Locked False
	Skinned False
	BoneCount 0
	Mask 255
	Bounds
	{
		Aabb
		{
			Min -12.75036000 15.92780000 -17.14857000
			Max -12.07046000 17.18924000 -12.95989000
		}
		Aabb
		{
			Min -12.75036000 16.37557000 -17.14857000
			Max -12.07046000 17.18924000 -16.28088000
		}
		Aabb
		{
			Min -12.71883000 16.48297000 -15.79553000
			Max -12.48147000 16.92178000 -15.28186000
		}
		Aabb
		{
			Min -12.70559000 16.50301000 -16.20814000
			Max -12.50363000 16.89772000 -15.30188000
		}
		Aabb
		{
			Min -12.27723000 15.92780000 -16.88587000
			Max -12.21558000 16.03527000 -15.76770000
		}
		Aabb
		{
			Min -12.73829000 16.46670000 -13.28655000
			Max -12.49614000 16.92617000 -12.95989000
		}
	}
	Geometries
	{
		Geometry
		{
			ShaderIndex 0
			Flags -
			VertexDeclaration N209731BE
			Indices 288
			{
				0 26 217 271 111 218 272 27 211 273 65 28 120 29 66
				176 68 274 275 193 177 179 194 67 69 254 121 7 122 256
				70 180 39 40 257 71 181 78 79 258 131 8 190 9 132
				202 80 89 100 235 203 236 280 59 237 60 96 238 97 144
				239 146 204 195 205 147 81 206 196 148 207 197 198 222 82
				182 83 233 41 183 244 1 199 208 255 201 12 209 112 23
				42 266 145 34 156 277 210 45 123 167 56 212 134 219 213
				223 43 178 259 44 224 225 133 260 214 229 189 230 226 200
				240 215 220 231 216 241 221 191 242 135 243 192 232 247 227
				245 248 234 136 228 249 250 246 137 251 261 262 263 264 252
				268 253 265 267 276 269 281 270 278 279 284 282 287 283 285
				286 4 2 10 3 5 6 14 11 17 13 15 16 20 18
				24 19 21 22 30 25 31 36 37 32 38 46 48 33 47
				49 54 35 50 57 55 51 61 58 52 63 62 53 72 64
				73 77 84 85 87 74 88 86 93 98 75 90 99 108 76
				94 110 91 101 92 113 114 95 117 124 109 102 118 126 115
				103 116 127 128 119 138 104 141 125 139 149 129 105 130 150
				151 140 157 142 106 160 107 152 161 162 165 143 158 169 153
				170 159 173 154 184 163 155 171 185 166 164 186 174 187 172
				188 175 168
			}
			Vertices 288
			{
				-12.42254000 16.37558000 -17.14856000 / 0.45543360 -0.89026980 0.00000000 / 145 83 135 255 / -0.06039430 1.02320900
				-12.72514000 17.00453000 -16.28674000 / 0.13140680 0.56663210 0.81342510 / 249 103 235 255 / 1.02578700 -0.01651000
				-12.07791000 16.60786000 -17.14857000 / 0.93269040 0.36067840 0.00019070 / 206 100 194 255 / 0.00050350 0.06990050
				-12.07791000 16.60786000 -17.14857000 / 0.93269040 0.36067840 0.00019070 / 206 100 194 255 / 0.00050350 0.06990050
				-12.07791000 16.60785000 -17.12562000 / 0.93269040 0.36067840 0.00019070 / 223 98 210 255 / 0.00050350 0.06990050
				-12.07791000 16.60785000 -17.12562000 / 0.93269040 0.36067840 0.00019070 / 223 98 210 255 / 0.00050350 0.06990050
				-12.07791000 16.60785000 -17.12562000 / 0.93269040 0.36067840 0.00019070 / 223 98 210 255 / 0.00050350 0.06990050
				-12.43254000 16.39515000 -16.28675000 / 0.21676180 -0.42417800 0.87925400 / 131 101 122 255 / -0.02578730 -0.01651000
				-12.43254000 16.39515000 -16.28675000 / 0.21676180 -0.42417800 0.87925400 / 131 101 122 255 / -0.02578730 -0.01651000
				-12.43254000 16.39515000 -16.28675000 / 0.21676180 -0.42417800 0.87925400 / 131 101 122 255 / -0.02578730 -0.01651000
				-12.07046000 16.58041000 -17.14856000 / 0.99972480 -0.02346010 0.00000000 / 208 95 196 255 / 0.01396180 0.03134150
				-12.07046000 16.58041000 -17.14856000 / 0.99972480 -0.02346010 0.00000000 / 208 95 196 255 / 0.01396180 0.03134150
				-12.72514000 17.00453000 -16.28674000 / 0.13140680 0.56663210 0.81342510 / 249 103 235 255 / 1.02578700 -0.01651000
				-12.07046000 16.58041000 -17.14856000 / 0.99972480 -0.02346010 0.00000000 / 208 95 196 255 / 0.01396180 0.03134150
				-12.07046000 16.58041000 -17.12561000 / 0.99972480 -0.02346010 0.00000000 / 186 91 174 255 / 0.01396180 0.03134150
				-12.07046000 16.58041000 -17.12561000 / 0.99972480 -0.02346010 0.00000000 / 186 91 174 255 / 0.01396180 0.03134150
				-12.07046000 16.58041000 -17.12561000 / 0.99972480 -0.02346010 0.00000000 / 186 91 174 255 / 0.01396180 0.03134150
				-12.07767000 16.55806000 -17.14856000 / 0.81985410 -0.57257230 0.00019070 / 161 87 150 255 / 0.05433660 0.00820920
				-12.07767000 16.55806000 -17.14856000 / 0.81985410 -0.57257230 0.00019070 / 161 87 150 255 / 0.05433660 0.00820920
				-12.07767000 16.55806000 -17.14856000 / 0.81985410 -0.57257230 0.00019070 / 161 87 150 255 / 0.05433660 0.00820920
				-12.07766000 16.55807000 -17.12561000 / 0.81997500 -0.57239940 0.00019070 / 162 83 152 255 / 0.05433660 0.00820920
				-12.07766000 16.55807000 -17.12561000 / 0.81997500 -0.57239940 0.00019070 / 162 83 152 255 / 0.05433660 0.00820920
				-12.07766000 16.55807000 -17.12561000 / 0.81997500 -0.57239940 0.00019070 / 162 83 152 255 / 0.05433660 0.00820920
				-12.72514000 17.00453000 -16.28674000 / 0.13140680 0.56663210 0.81342510 / 249 103 235 255 / 1.02578700 -0.01651000
				-12.10000000 16.54059000 -17.14856000 / 0.61605110 -0.78770620 0.00019070 / 150 81 140 255 / 0.12162780 0.00050350
				-12.10000000 16.54059000 -17.14856000 / 0.61605110 -0.78770620 0.00019070 / 150 81 140 255 / 0.12162780 0.00050350
				-12.10000000 16.54059000 -17.14856000 / 0.45543360 -0.89026980 0.00000000 / 150 81 140 255 / -0.06039430 1.02320900
				-12.42254000 16.37557000 -16.33118000 / 0.45348010 -0.88616980 0.09517841 / 179 89 167 255 / -0.06039430 0.03707890
				-12.42254000 16.37557000 -16.33118000 / 0.45348010 -0.88616980 0.09517841 / 179 89 167 255 / -0.06039430 0.03707890
				-12.42254000 16.37557000 -16.33118000 / 0.45348010 -0.88616980 0.09517841 / 179 89 167 255 / -0.06039430 0.03707890
				-12.10000000 16.54059000 -17.12561000 / 0.61620290 -0.78758760 0.00000000 / 149 81 139 255 / 0.12162780 0.00050350
				-12.42254000 16.37558000 -17.14856000 / -0.89025000 -0.45547230 0.00000000 / 74 53 69 255 / -0.06039430 1.02320900
				-12.42254000 16.37558000 -17.14856000 / -0.89025000 -0.45547230 0.00000000 / 74 53 69 255 / -0.06039430 1.02320900
				-12.42254000 16.37558000 -17.14856000 / -0.89025000 -0.45547230 0.00000000 / 74 53 69 255 / -0.06039430 1.02320900
				-12.72514000 17.00453000 -16.28674000 / 0.13140680 0.56663210 0.81342510 / 249 103 235 255 / 1.02578700 -0.01651000
				-12.42254000 16.37558000 -17.14856000 / -0.89025000 -0.45547230 0.00000000 / 74 53 69 255 / -0.06039430 1.02320900
				-12.42254000 16.37557000 -16.33118000 / -0.89015280 -0.45566210 0.00000000 / 78 53 73 255 / -0.06039430 0.03707890
				-12.42499000 16.38036000 -16.30335000 / -0.89073510 -0.45452280 0.00000000 / 75 53 70 255 / -0.05174250 0.00358580
				-12.42499000 16.38036000 -16.30335000 / -0.89073510 -0.45452280 0.00000000 / 75 53 70 255 / -0.05174250 0.00358580
				-12.40764000 16.39472000 -16.30579000 / 0.97733940 0.09060029 0.19130980 / 206 105 194 255 / -0.04457090 0.00656130
				-12.40764000 16.39472000 -16.30579000 / 0.97733940 0.09060029 0.19130980 / 206 105 194 255 / -0.04457090 0.00656130
				-12.40764000 16.39472000 -16.30579000 / 0.97733940 0.09060029 0.19130980 / 206 105 194 255 / -0.04457090 0.00656130
				-12.40764000 16.39472000 -16.30579000 / 0.97733940 0.09060029 0.19130980 / 206 105 194 255 / -0.04457090 0.00656130
				-12.40764000 16.39472000 -16.30579000 / 0.97733940 0.09060029 0.19130980 / 206 105 194 255 / -0.04457090 0.00656130
				-12.40764000 16.39472000 -16.30579000 / 0.97733940 0.09060029 0.19130980 / 206 105 194 255 / -0.04457090 0.00656130
				-12.72514000 17.00453000 -16.28674000 / 0.13140680 0.56663210 0.81342510 / 249 103 235 255 / 1.02578700 -0.01651000
				-12.43254000 16.39515000 -16.28675000 / -0.89025000 -0.45547230 0.00000000 / 73 53 68 255 / -0.02578730 -0.01651000
				-12.43254000 16.39515000 -16.28675000 / -0.89025000 -0.45547230 0.00000000 / 73 53 68 255 / -0.02578730 -0.01651000
				-12.44523000 16.41992000 -16.28089000 / -0.89015280 -0.45566210 0.00000000 / 67 52 62 255 / 0.01747130 -0.02320860
				-12.44523000 16.41992000 -16.28089000 / -0.89015280 -0.45566210 0.00000000 / 67 52 62 255 / 0.01747130 -0.02320860
				-12.44523000 16.41992000 -16.28089000 / -0.89015280 -0.45566210 0.00000000 / 67 52 62 255 / 0.01747130 -0.02320860
				-12.44523000 16.41992000 -16.28089000 / -0.89015280 -0.45566210 0.00000000 / 67 52 62 255 / 0.01747130 -0.02320860
				-12.44523000 16.41992000 -16.28089000 / -0.89015280 -0.45566210 0.00000000 / 67 52 62 255 / 0.01747130 -0.02320860
				-12.44523000 16.41992000 -16.28089000 / -0.89015280 -0.45566210 0.00000000 / 67 52 62 255 / 0.01747130 -0.02320860
				-12.75036000 17.01631000 -17.14856000 / -0.89025000 -0.45547230 0.00000000 / 70 52 65 255 / 1.06039400 1.02320900
				-12.75036000 17.01631000 -17.14856000 / -0.89025000 -0.45547230 0.00000000 / 70 52 65 255 / 1.06039400 1.02320900
				-12.72514000 17.00453000 -16.28674000 / 0.13140680 0.56663210 0.81342510 / 249 103 235 255 / 1.02578700 -0.01651000
				-12.75036000 17.01631000 -16.33118000 / -0.89025000 -0.45547230 0.00000000 / 72 52 67 255 / 1.06039400 0.03707890
				-12.75036000 17.01631000 -16.33118000 / -0.89025000 -0.45547230 0.00000000 / 72 52 67 255 / 1.06039400 0.03707890
				-12.42783000 17.18133000 -17.14856000 / -0.45551090 0.89023020 0.00019070 / 137 72 127 255 / 1.06039400 1.02320900
				-12.42783000 17.18133000 -17.14856000 / -0.45551090 0.89023020 0.00019070 / 137 72 127 255 / 1.06039400 1.02320900
				-12.74791000 17.01153000 -16.30334000 / -0.89025000 -0.45547230 0.00000000 / 73 51 68 255 / 1.05174300 0.00358580
				-12.74791000 17.01153000 -16.30334000 / -0.89025000 -0.45547230 0.00000000 / 73 51 68 255 / 1.05174300 0.00358580
				-12.74035000 16.99675000 -16.28674000 / -0.89025000 -0.45547230 -0.00038150 / 56 51 51 255 / 1.02578700 -0.01651000
				-12.74035000 16.99675000 -16.28674000 / -0.89025000 -0.45547230 -0.00038150 / 56 51 51 255 / 1.02578700 -0.01651000
				-12.40733000 16.38335000 -16.33118000 / 0.75551370 -0.64889110 0.09021910 / 166 96 156 255 / -0.06039430 0.03707890
				-12.40733000 16.38335000 -16.33118000 / 0.75551370 -0.64889110 0.09021910 / 166 96 156 255 / -0.06039430 0.03707890
				-12.72857000 17.02198000 -17.12072000 / 0.59449290 0.80410080 0.00000000 / 179 97 168 255 / 1.05261200 0.98936460
				-12.40733000 16.38335000 -16.33118000 / 0.75551370 -0.64889110 0.09021910 / 166 96 156 255 / -0.06039430 0.03707890
				-12.40733000 16.38335000 -16.33118000 / 0.75551370 -0.64889110 0.09021910 / 166 96 156 255 / -0.06039430 0.03707890
				-12.40733000 16.38335000 -16.33118000 / 0.75551370 -0.64889110 0.09021910 / 166 96 156 255 / -0.06039430 0.03707890
				-12.40733000 16.38335000 -16.33118000 / 0.75551370 -0.64889110 0.09021910 / 166 96 156 255 / -0.06039430 0.03707890
				-12.72767000 16.97198000 -16.28088000 / -0.89024960 -0.45547210 0.00095370 / 40 51 37 255 / 0.98252870 -0.02320860
				-12.40520000 16.38994000 -17.12073000 / 0.20236520 -0.39557540 0.89586190 / 125 99 117 255 / 0.94659420 0.00744630
				-12.40520000 16.38994000 -17.12073000 / 0.20236520 -0.39557540 0.89586190 / 125 99 117 255 / 0.94659420 0.00744630
				-12.40520000 16.38994000 -17.12073000 / 0.20236520 -0.39557540 0.89586190 / 125 99 117 255 / 0.94659420 0.00744630
				-12.40520000 16.38994000 -17.12073000 / 0.20236520 -0.39557540 0.89586190 / 125 99 117 255 / 0.94659420 0.00744630
				-12.40733000 16.38336000 -17.12561000 / 0.32204110 -0.62939630 0.70721260 / 112 97 104 255 / 0.95870970 0.00050350
				-12.72857000 17.02198000 -17.12072000 / 0.59449290 0.80410080 0.00000000 / 179 97 168 255 / 1.05261200 0.98936460
				-12.72858000 17.02197000 -16.33166000 / 0.63362930 0.77267680 0.03852890 / 195 100 183 255 / 1.05261200 0.03768920
				-12.72858000 17.02197000 -16.33166000 / 0.63362930 0.77267680 0.03852890 / 195 100 183 255 / 1.05261200 0.03768920
				-12.72858000 17.02197000 -16.33166000 / 0.63362930 0.77267680 0.03852890 / 195 100 183 255 / 1.05261200 0.03768920
				-12.72858000 17.02197000 -16.33166000 / 0.63362930 0.77267680 0.03852890 / 195 100 183 255 / 1.05261200 0.03768920
				-12.72858000 17.02197000 -16.33166000 / 0.63362930 0.77267680 0.03852890 / 195 100 183 255 / 1.05261200 0.03768920
				-12.10000000 16.54059000 -17.12561000 / 0.37983860 -0.59469590 0.70856170 / 138 98 129 255 / 0.12162780 0.00050350
				-12.10000000 16.54059000 -17.12561000 / 0.37983860 -0.59469590 0.70856170 / 138 98 129 255 / 0.12162780 0.00050350
				-12.10000000 16.54059000 -17.12561000 / 0.37983860 -0.59469590 0.70856170 / 138 98 129 255 / 0.12162780 0.00050350
				-12.10265000 16.54472000 -17.12073000 / 0.21630380 -0.33799840 0.91595290 / 137 100 127 255 / 0.12283320 0.00744630
				-12.10265000 16.54472000 -17.12073000 / 0.21630380 -0.33799840 0.91595290 / 137 100 127 255 / 0.12283320 0.00744630
				-12.72857000 17.02198000 -17.12072000 / 0.59449290 0.80410080 0.00000000 / 179 97 168 255 / 1.05261200 0.98936460
				-12.10265000 16.54472000 -17.12073000 / 0.21630380 -0.33799840 0.91595290 / 137 100 127 255 / 0.12283320 0.00744630
				-12.10265000 16.54472000 -17.12073000 / 0.21630380 -0.33799840 0.91595290 / 137 100 127 255 / 0.12283320 0.00744630
				-12.10265000 16.54472000 -17.12073000 / 0.21630380 -0.33799840 0.91595290 / 137 100 127 255 / 0.12283320 0.00744630
				-12.07766000 16.55807000 -17.12561000 / 0.55010810 -0.38206190 0.74256970 / 137 102 128 255 / 0.05433660 0.00820920
				-12.07766000 16.55807000 -17.12561000 / 0.55010810 -0.38206190 0.74256970 / 137 102 128 255 / 0.05433660 0.00820920
				-12.07766000 16.55807000 -17.12561000 / 0.55010810 -0.38206190 0.74256970 / 137 102 128 255 / 0.05433660 0.00820920
				-12.75036000 17.01631000 -17.14856000 / -0.45558660 0.89019160 0.00000000 / 95 74 88 255 / 1.06039400 1.02320900
				-12.75036000 17.01631000 -17.14856000 / -0.45558660 0.89019160 0.00000000 / 95 74 88 255 / 1.06039400 1.02320900
				-12.42603000 17.17677000 -17.12072000 / -0.14561940 0.37553980 0.91529490 / 143 103 134 255 / 0.12283320 0.99255370
				-12.42603000 17.17677000 -17.12072000 / -0.14561940 0.37553980 0.91529490 / 143 103 134 255 / 0.12283320 0.99255370
				-12.72857000 17.02198000 -17.12072000 / 0.59449290 0.80410080 0.00000000 / 179 97 168 255 / 1.05261200 0.98936460
				-12.42603000 17.17677000 -17.12072000 / -0.14561940 0.37553980 0.91529490 / 143 103 134 255 / 0.12283320 0.99255370
				-12.42603000 17.17677000 -17.12072000 / -0.14561940 0.37553980 0.91529490 / 143 103 134 255 / 0.12283320 0.99255370
				-12.42603000 17.17677000 -17.12072000 / -0.14561940 0.37553980 0.91529490 / 143 103 134 255 / 0.12283320 0.99255370
				-12.42603000 17.17677000 -17.12072000 / -0.14561940 0.37553980 0.91529490 / 143 103 134 255 / 0.12283320 0.99255370
				-12.42603000 17.17677000 -17.12072000 / -0.14561940 0.37553980 0.91529490 / 143 103 134 255 / 0.12283320 0.99255370
				-12.42603000 17.17677000 -17.12072000 / -0.14561940 0.37553980 0.91529490 / 143 103 134 255 / 0.12283320 0.99255370
				-12.42603000 17.17677000 -17.12072000 / -0.14561940 0.37553980 0.91529490 / 143 103 134 255 / 0.12283320 0.99255370
				-12.72857000 17.02198000 -17.12072000 / -0.20245670 0.39556770 0.89584460 / 133 99 124 255 / 0.94659420 0.99255370
				-12.72857000 17.02198000 -17.12072000 / -0.20245670 0.39556770 0.89584460 / 133 99 124 255 / 0.94659420 0.99255370
				-12.08206000 16.56129000 -17.12073000 / 0.34053560 -0.23230040 0.91108300 / 134 103 125 255 / 0.06030270 0.01460270
				-12.42254000 16.37558000 -17.14856000 / 0.45543360 -0.89026980 0.00000000 / 145 83 135 255 / -0.06039430 1.02320900
				-12.74035000 16.99675000 -16.28674000 / -0.21696110 0.42400400 0.87928860 / 204 102 192 255 / 1.02578700 -0.01651000
				-12.08206000 16.56129000 -17.12073000 / 0.34053560 -0.23230040 0.91108300 / 134 103 125 255 / 0.06030270 0.01460270
				-12.08206000 16.56129000 -17.12073000 / 0.34053560 -0.23230040 0.91108300 / 134 103 125 255 / 0.06030270 0.01460270
				-12.08206000 16.56129000 -17.12073000 / 0.34053560 -0.23230040 0.91108300 / 134 103 125 255 / 0.06030270 0.01460270
				-12.08206000 16.56129000 -17.12073000 / 0.34053560 -0.23230040 0.91108300 / 134 103 125 255 / 0.06030270 0.01460270
				-12.07046000 16.58041000 -17.12561000 / 0.69425370 -0.02078950 0.71943000 / 160 106 150 255 / 0.01396180 0.03134150
				-12.07046000 16.58041000 -17.12561000 / 0.69425370 -0.02078950 0.71943000 / 160 106 150 255 / 0.01396180 0.03134150
				-12.07046000 16.58041000 -17.12561000 / 0.69425370 -0.02078950 0.71943000 / 160 106 150 255 / 0.01396180 0.03134150
				-12.42499000 16.38036000 -16.30335000 / 0.40243690 -0.78618230 0.46900110 / 164 95 154 255 / -0.05174250 0.00358580
				-12.42499000 16.38036000 -16.30335000 / 0.40243690 -0.78618230 0.46900110 / 164 95 154 255 / -0.05174250 0.00358580
				-12.42499000 16.38036000 -16.30335000 / 0.40243690 -0.78618230 0.46900110 / 164 95 154 255 / -0.05174250 0.00358580
				-12.74035000 16.99675000 -16.28674000 / -0.21696110 0.42400400 0.87928860 / 204 102 192 255 / 1.02578700 -0.01651000
				-12.73516000 17.02409000 -17.12561000 / -0.32208460 0.62948130 0.70711730 / 143 101 134 255 / 0.95870970 0.99949650
				-12.73516000 17.02409000 -17.12561000 / -0.32208460 0.62948130 0.70711730 / 143 101 134 255 / 0.95870970 0.99949650
				-12.07548000 16.58056000 -17.12073000 / 0.43384860 -0.01335210 0.90088680 / 186 107 174 255 / 0.02511600 0.03475950
				-12.07548000 16.58056000 -17.12073000 / 0.43384860 -0.01335210 0.90088680 / 186 107 174 255 / 0.02511600 0.03475950
				-12.07548000 16.58056000 -17.12073000 / 0.43384860 -0.01335210 0.90088680 / 186 107 174 255 / 0.02511600 0.03475950
				-12.07548000 16.58056000 -17.12073000 / 0.43384860 -0.01335210 0.90088680 / 186 107 174 255 / 0.02511600 0.03475950
				-12.07548000 16.58056000 -17.12073000 / 0.43384860 -0.01335210 0.90088680 / 186 107 174 255 / 0.02511600 0.03475950
				-12.41733000 16.40293000 -16.28674000 / 0.52813790 -0.22773440 0.81805100 / 158 106 147 255 / -0.02578730 -0.01651000
				-12.41733000 16.40293000 -16.28674000 / 0.52813790 -0.22773440 0.81805100 / 158 106 147 255 / -0.02578730 -0.01651000
				-12.41733000 16.40293000 -16.28674000 / 0.52813790 -0.22773440 0.81805100 / 158 106 147 255 / -0.02578730 -0.01651000
				-12.74035000 16.99675000 -16.28674000 / -0.21696110 0.42400400 0.87928860 / 204 102 192 255 / 1.02578700 -0.01651000
				-12.41733000 16.40293000 -16.28674000 / 0.52813790 -0.22773440 0.81805100 / 158 106 147 255 / -0.02578730 -0.01651000
				-12.41733000 16.40293000 -16.28674000 / 0.52813790 -0.22773440 0.81805100 / 158 106 147 255 / -0.02578730 -0.01651000
				-12.41733000 16.40293000 -16.28674000 / 0.52813790 -0.22773440 0.81805100 / 158 106 147 255 / -0.02578730 -0.01651000
				-12.07791000 16.60785000 -17.12562000 / 0.62651870 0.24870030 0.73866270 / 216 109 203 255 / 0.00050350 0.06990050
				-12.07791000 16.60785000 -17.12562000 / 0.62651870 0.24870030 0.73866270 / 216 109 203 255 / 0.00050350 0.06990050
				-12.07791000 16.60785000 -17.12562000 / 0.62651870 0.24870030 0.73866270 / 216 109 203 255 / 0.00050350 0.06990050
				-12.42782000 17.18133000 -17.12561000 / -0.25556680 0.65550980 0.71062820 / 123 105 115 255 / 0.12162780 0.99949650
				-12.42782000 17.18133000 -17.12561000 / -0.25556680 0.65550980 0.71062820 / 123 105 115 255 / 0.12162780 0.99949650
				-12.42782000 17.18133000 -17.12561000 / -0.25556680 0.65550980 0.71062820 / 123 105 115 255 / 0.12162780 0.99949650
				-12.75036000 17.01631000 -16.33118000 / -0.45355590 0.88613150 0.09517430 / 145 86 135 255 / 1.06039400 0.03707890
				-12.71945000 17.00415000 -16.29113000 / 0.71830000 0.58688510 0.37364570 / 255 108 243 255 / 1.02194200 -0.01095580
				-12.75036000 17.01631000 -16.33118000 / -0.45355590 0.88613150 0.09517430 / 145 86 135 255 / 1.06039400 0.03707890
				-12.75036000 17.01631000 -16.33118000 / -0.45355590 0.88613150 0.09517430 / 145 86 135 255 / 1.06039400 0.03707890
				-12.75036000 17.01631000 -16.33118000 / -0.45355590 0.88613150 0.09517430 / 145 86 135 255 / 1.06039400 0.03707890
				-12.08293000 16.60584000 -17.12073000 / 0.35073650 0.13998940 0.92595190 / 185 109 173 255 / 0.01261900 0.07058720
				-12.08293000 16.60584000 -17.12073000 / 0.35073650 0.13998940 0.92595190 / 185 109 173 255 / 0.01261900 0.07058720
				-12.08293000 16.60584000 -17.12073000 / 0.35073650 0.13998940 0.92595190 / 185 109 173 255 / 0.01261900 0.07058720
				-12.08293000 16.60584000 -17.12073000 / 0.35073650 0.13998940 0.92595190 / 185 109 173 255 / 0.01261900 0.07058720
				-12.08293000 16.60584000 -17.12073000 / 0.35073650 0.13998940 0.92595190 / 185 109 173 255 / 0.01261900 0.07058720
				-12.08293000 16.60584000 -17.12073000 / 0.35073650 0.13998940 0.92595190 / 185 109 173 255 / 0.01261900 0.07058720
				-12.08293000 16.60584000 -17.12073000 / 0.35073650 0.13998940 0.92595190 / 185 109 173 255 / 0.01261900 0.07058720
				-12.71945000 17.00415000 -16.29113000 / 0.71830000 0.58688510 0.37364570 / 255 108 243 255 / 1.02194200 -0.01095580
				-12.36036000 17.15990000 -17.12561000 / 0.56278900 0.36546470 0.74142030 / 182 111 171 255 / 0.00050350 0.93009950
				-12.36036000 17.15990000 -17.12561000 / 0.56278900 0.36546470 0.74142030 / 182 111 171 255 / 0.00050350 0.93009950
				-12.36036000 17.15990000 -17.12561000 / 0.56278900 0.36546470 0.74142030 / 182 111 171 255 / 0.00050350 0.93009950
				-12.40054000 17.18377000 -17.12073000 / 0.00858260 0.41253720 0.91090040 / 134 108 125 255 / 0.06030270 0.98539740
				-12.40054000 17.18377000 -17.12073000 / 0.00858260 0.41253720 0.91090040 / 134 108 125 255 / 0.06030270 0.98539740
				-12.40054000 17.18377000 -17.12073000 / 0.00858260 0.41253720 0.91090040 / 134 108 125 255 / 0.06030270 0.98539740
				-12.40054000 17.18377000 -17.12073000 / 0.00858260 0.41253720 0.91090040 / 134 108 125 255 / 0.06030270 0.98539740
				-12.40054000 17.18377000 -17.12073000 / 0.00858260 0.41253720 0.91090040 / 134 108 125 255 / 0.06030270 0.98539740
				-12.40061000 17.18924000 -17.12561000 / 0.00782080 0.66629480 0.74564730 / 125 109 116 255 / 0.05433660 0.99179080
				-12.40061000 17.18924000 -17.12561000 / 0.00782080 0.66629480 0.74564730 / 125 109 116 255 / 0.05433660 0.99179080
				-12.71945000 17.00415000 -16.29113000 / 0.71830000 0.58688510 0.37364570 / 255 108 243 255 / 1.02194200 -0.01095580
				-12.40061000 17.18924000 -17.12561000 / 0.00782080 0.66629480 0.74564730 / 125 109 116 255 / 0.05433660 0.99179080
				-12.36493000 17.15703000 -17.12073000 / 0.31852240 0.20694420 0.92505000 / 191 111 179 255 / 0.01261900 0.92941280
				-12.36493000 17.15703000 -17.12073000 / 0.31852240 0.20694420 0.92505000 / 191 111 179 255 / 0.01261900 0.92941280
				-12.36493000 17.15703000 -17.12073000 / 0.31852240 0.20694420 0.92505000 / 191 111 179 255 / 0.01261900 0.92941280
				-12.36493000 17.15703000 -17.12073000 / 0.31852240 0.20694420 0.92505000 / 191 111 179 255 / 0.01261900 0.92941280
				-12.37825000 17.18201000 -17.12561000 / 0.38117730 0.56017900 0.73546140 / 181 111 170 255 / 0.01396180 0.96865850
				-12.37825000 17.18201000 -17.12561000 / 0.38117730 0.56017900 0.73546140 / 181 111 170 255 / 0.01396180 0.96865850
				-12.37825000 17.18201000 -17.12561000 / 0.38117730 0.56017900 0.73546140 / 181 111 170 255 / 0.01396180 0.96865850
				-12.40520000 16.38994000 -16.33166000 / 0.99732790 0.06046150 0.04100700 / 203 101 190 255 / -0.05261230 0.03768920
				-12.40520000 16.38994000 -16.33166000 / 0.99732790 0.06046150 0.04100700 / 203 101 190 255 / -0.05261230 0.03768920
				-12.71945000 17.00415000 -16.29113000 / 0.71830000 0.58688510 0.37364570 / 255 108 243 255 / 1.02194200 -0.01095580
				-12.40520000 16.38994000 -16.33166000 / 0.99732790 0.06046150 0.04100700 / 203 101 190 255 / -0.05261230 0.03768920
				-12.40520000 16.38994000 -16.33166000 / 0.99732790 0.06046150 0.04100700 / 203 101 190 255 / -0.05261230 0.03768920
				-12.40520000 16.38994000 -16.33166000 / 0.99732790 0.06046150 0.04100700 / 203 101 190 255 / -0.05261230 0.03768920
				-12.40520000 16.38994000 -16.33166000 / 0.99732790 0.06046150 0.04100700 / 203 101 190 255 / -0.05261230 0.03768920
				-12.40520000 16.38994000 -16.33166000 / 0.99732790 0.06046150 0.04100700 / 203 101 190 255 / -0.05261230 0.03768920
				-12.38083000 17.17741000 -17.12073000 / 0.24860920 0.34273170 0.90594070 / 177 110 166 255 / 0.02511600 0.96524050
				-12.38083000 17.17741000 -17.12073000 / 0.24860920 0.34273170 0.90594070 / 177 110 166 255 / 0.02511600 0.96524050
				-12.38083000 17.17741000 -17.12073000 / 0.24860920 0.34273170 0.90594070 / 177 110 166 255 / 0.02511600 0.96524050
				-12.38083000 17.17741000 -17.12073000 / 0.24860920 0.34273170 0.90594070 / 177 110 166 255 / 0.02511600 0.96524050
				-12.38083000 17.17741000 -17.12073000 / 0.24860920 0.34273170 0.90594070 / 177 110 166 255 / 0.02511600 0.96524050
				-12.71945000 17.00415000 -16.29113000 / 0.71830000 0.58688510 0.37364570 / 255 108 243 255 / 1.02194200 -0.01095580
				-12.44523000 16.41992000 -16.28089000 / 0.04701320 -0.09230990 0.99461990 / 147 104 138 255 / 0.01747130 -0.02320860
				-12.44523000 16.41992000 -16.28089000 / 0.04701320 -0.09230990 0.99461990 / 147 104 138 255 / 0.01747130 -0.02320860
				-12.44523000 16.41992000 -16.28089000 / 0.04701320 -0.09230990 0.99461990 / 147 104 138 255 / 0.01747130 -0.02320860
				-12.40520000 16.38994000 -17.12073000 / 0.99992320 0.01239770 0.00000000 / 207 98 195 255 / -0.05261230 0.98936460
				-12.40520000 16.38994000 -17.12073000 / 0.99992320 0.01239770 0.00000000 / 207 98 195 255 / -0.05261230 0.98936460
				-12.73271000 17.01931000 -16.30334000 / -0.03347600 0.90013190 0.43432940 / 183 97 171 255 / 1.05174300 0.00358580
				-12.73271000 17.01931000 -16.30334000 / -0.03347600 0.90013190 0.43432940 / 183 97 171 255 / 1.05174300 0.00358580
				-12.73271000 17.01931000 -16.30334000 / -0.03347600 0.90013190 0.43432940 / 183 97 171 255 / 1.05174300 0.00358580
				-12.73271000 17.01931000 -16.30334000 / -0.03347600 0.90013190 0.43432940 / 183 97 171 255 / 1.05174300 0.00358580
				-12.73271000 17.01931000 -16.30334000 / -0.03347600 0.90013190 0.43432940 / 183 97 171 255 / 1.05174300 0.00358580
				-12.71945000 17.00415000 -16.29113000 / 0.71830000 0.58688510 0.37364570 / 255 108 243 255 / 1.02194200 -0.01095580
				-12.73271000 17.01931000 -16.30334000 / -0.03347600 0.90013190 0.43432940 / 183 97 171 255 / 1.05174300 0.00358580
				-12.73516000 17.02409000 -16.33117000 / -0.08583019 0.99238840 0.08830981 / 163 92 152 255 / 1.06039400 0.03707890
				-12.73516000 17.02409000 -16.33117000 / -0.08583019 0.99238840 0.08830981 / 163 92 152 255 / 1.06039400 0.03707890
				-12.73516000 17.02409000 -16.33117000 / -0.08583019 0.99238840 0.08830981 / 163 92 152 255 / 1.06039400 0.03707890
				-12.73516000 17.02409000 -16.33117000 / -0.08583019 0.99238840 0.08830981 / 163 92 152 255 / 1.06039400 0.03707890
				-12.73516000 17.02409000 -16.33117000 / -0.08583019 0.99238840 0.08830981 / 163 92 152 255 / 1.06039400 0.03707890
				-12.74791000 17.01153000 -16.30334000 / -0.40225260 0.78638580 0.46881790 / 214 97 201 255 / 1.05174300 0.00358580
				-12.74791000 17.01153000 -16.30334000 / -0.40225260 0.78638580 0.46881790 / 214 97 201 255 / 1.05174300 0.00358580
				-12.74791000 17.01153000 -16.30334000 / -0.40225260 0.78638580 0.46881790 / 214 97 201 255 / 1.05174300 0.00358580
				-12.71246000 16.97975000 -16.28088000 / 0.29021170 0.25616450 0.92203970 / 200 106 188 255 / 0.98252870 -0.02320860
				-12.42254000 16.37558000 -17.14856000 / 0.45543360 -0.89026980 0.00000000 / 145 83 135 255 / -0.06039430 1.02320900
				-12.71246000 16.97975000 -16.28088000 / 0.29021170 0.25616450 0.92203970 / 200 106 188 255 / 0.98252870 -0.02320860
				-12.71246000 16.97975000 -16.28088000 / 0.29021170 0.25616450 0.92203970 / 200 106 188 255 / 0.98252870 -0.02320860
				-12.71246000 16.97975000 -16.28088000 / 0.29021170 0.25616450 0.92203970 / 200 106 188 255 / 0.98252870 -0.02320860
				-12.71246000 16.97975000 -16.28088000 / 0.29021170 0.25616450 0.92203970 / 200 106 188 255 / 0.98252870 -0.02320860
				-12.71246000 16.97975000 -16.28088000 / 0.29021170 0.25616450 0.92203970 / 200 106 188 255 / 0.98252870 -0.02320860
				-12.10000000 16.54059000 -17.12561000 / 0.45543360 -0.89026980 0.00000000 / 149 81 139 255 / -0.06039430 0.99539190
				-12.10000000 16.54059000 -17.12561000 / 0.45543360 -0.89026980 0.00000000 / 149 81 139 255 / -0.06039430 0.99539190
				-12.72767000 16.97198000 -16.28088000 / -0.04720430 0.09211990 0.99462850 / 138 104 129 255 / 0.98252870 -0.02320860
				-12.72767000 16.97198000 -16.28088000 / -0.04720430 0.09211990 0.99462850 / 138 104 129 255 / 0.98252870 -0.02320860
				-12.72767000 16.97198000 -16.28088000 / -0.04720430 0.09211990 0.99462850 / 138 104 129 255 / 0.98252870 -0.02320860
				-12.72613000 17.01720000 -16.30578000 / 0.64584550 0.73740070 0.19779730 / 238 105 224 255 / 1.04457100 0.00656130
				-12.41410000 16.40733000 -16.29114000 / 0.89606850 0.22830860 0.38070510 / 190 109 178 255 / -0.02194210 -0.01095580
				-12.41410000 16.40733000 -16.29114000 / 0.89606850 0.22830860 0.38070510 / 190 109 178 255 / -0.02194210 -0.01095580
				-12.41410000 16.40733000 -16.29114000 / 0.89606850 0.22830860 0.38070510 / 190 109 178 255 / -0.02194210 -0.01095580
				-12.41410000 16.40733000 -16.29114000 / 0.89606850 0.22830860 0.38070510 / 190 109 178 255 / -0.02194210 -0.01095580
				-12.41410000 16.40733000 -16.29114000 / 0.89606850 0.22830860 0.38070510 / 190 109 178 255 / -0.02194210 -0.01095580
				-12.41410000 16.40733000 -16.29114000 / 0.89606850 0.22830860 0.38070510 / 190 109 178 255 / -0.02194210 -0.01095580
				-12.70790000 16.98155000 -16.28576000 / 0.79534560 0.45412900 0.40148740 / 228 110 215 255 / 0.98176580 -0.01718140
				-12.70790000 16.98155000 -16.28576000 / 0.79534560 0.45412900 0.40148740 / 228 110 215 255 / 0.98176580 -0.01718140
				-12.70790000 16.98155000 -16.28576000 / 0.79534560 0.45412900 0.40148740 / 228 110 215 255 / 0.98176580 -0.01718140
				-12.70790000 16.98155000 -16.28576000 / 0.79534560 0.45412900 0.40148740 / 228 110 215 255 / 0.98176580 -0.01718140
				-12.72613000 17.01720000 -16.30578000 / 0.64584550 0.73740070 0.19779730 / 238 105 224 255 / 1.04457100 0.00656130
				-12.70790000 16.98155000 -16.28576000 / 0.79534560 0.45412900 0.40148740 / 228 110 215 255 / 0.98176580 -0.01718140
				-12.73516000 17.02409000 -17.12561000 / -0.34132190 0.93994640 0.00000000 / 105 79 98 255 / 1.06039400 0.99539190
				-12.73516000 17.02409000 -17.12561000 / -0.34132190 0.93994640 0.00000000 / 105 79 98 255 / 1.06039400 0.99539190
				-12.73516000 17.02409000 -17.12561000 / -0.34132190 0.93994640 0.00000000 / 105 79 98 255 / 1.06039400 0.99539190
				-12.73516000 17.02409000 -17.12561000 / -0.34132190 0.93994640 0.00000000 / 105 79 98 255 / 1.06039400 0.99539190
				-12.73516000 17.02409000 -17.12561000 / -0.34132190 0.93994640 0.00000000 / 105 79 98 255 / 1.06039400 0.99539190
				-12.43002000 16.42770000 -16.28088000 / 0.37787280 0.08564610 0.92188760 / 190 107 178 255 / 0.01747130 -0.02320860
				-12.43002000 16.42770000 -16.28088000 / 0.37787280 0.08564610 0.92188760 / 190 107 178 255 / 0.01747130 -0.02320860
				-12.43002000 16.42770000 -16.28088000 / 0.37787280 0.08564610 0.92188760 / 190 107 178 255 / 0.01747130 -0.02320860
				-12.43002000 16.42770000 -16.28088000 / 0.37787280 0.08564610 0.92188760 / 190 107 178 255 / 0.01747130 -0.02320860
				-12.72613000 17.01720000 -16.30578000 / 0.64584550 0.73740070 0.19779730 / 238 105 224 255 / 1.04457100 0.00656130
				-12.43002000 16.42770000 -16.28088000 / 0.37787280 0.08564610 0.92188760 / 190 107 178 255 / 0.01747130 -0.02320860
				-12.43002000 16.42770000 -16.28088000 / 0.37787280 0.08564610 0.92188760 / 190 107 178 255 / 0.01747130 -0.02320860
				-12.42590000 16.43036000 -16.28577000 / 0.83332540 0.37975530 0.40168990 / 204 110 191 255 / 0.01823420 -0.01718140
				-12.42590000 16.43036000 -16.28577000 / 0.83332540 0.37975530 0.40168990 / 204 110 191 255 / 0.01823420 -0.01718140
				-12.42590000 16.43036000 -16.28577000 / 0.83332540 0.37975530 0.40168990 / 204 110 191 255 / 0.01823420 -0.01718140
				-12.42590000 16.43036000 -16.28577000 / 0.83332540 0.37975530 0.40168990 / 204 110 191 255 / 0.01823420 -0.01718140
				-12.40060000 17.18923000 -17.14856000 / 0.01497350 0.99988780 0.00000000 / 191 79 179 255 / 0.05433660 0.99179080
				-12.40060000 17.18923000 -17.14856000 / 0.01497350 0.99988780 0.00000000 / 191 79 179 255 / 0.05433660 0.99179080
				-12.40060000 17.18923000 -17.14856000 / 0.01497350 0.99988780 0.00000000 / 191 79 179 255 / 0.05433660 0.99179080
				-12.40977000 16.38815000 -16.30335000 / 0.71149450 -0.55481510 0.43122610 / 142 102 133 255 / -0.05174250 0.00358580
				-12.72613000 17.01720000 -16.30578000 / 0.64584550 0.73740070 0.19779730 / 238 105 224 255 / 1.04457100 0.00656130
				-12.40977000 16.38815000 -16.30335000 / 0.71149450 -0.55481510 0.43122610 / 142 102 133 255 / -0.05174250 0.00358580
				-12.40977000 16.38815000 -16.30335000 / 0.71149450 -0.55481510 0.43122610 / 142 102 133 255 / -0.05174250 0.00358580
				-12.40977000 16.38815000 -16.30335000 / 0.71149450 -0.55481510 0.43122610 / 142 102 133 255 / -0.05174250 0.00358580
				-12.40977000 16.38815000 -16.30335000 / 0.71149450 -0.55481510 0.43122610 / 142 102 133 255 / -0.05174250 0.00358580
				-12.40977000 16.38815000 -16.30335000 / 0.71149450 -0.55481510 0.43122610 / 142 102 133 255 / -0.05174250 0.00358580
				-12.42783000 17.18133000 -17.14856000 / -0.27867400 0.96038590 0.00019070 / 137 72 127 255 / 0.12162780 0.99949650
				-12.42782000 17.18133000 -17.12561000 / -0.27876200 0.96036030 0.00000000 / 160 75 149 255 / 0.12162780 0.99949650
				-12.42782000 17.18133000 -17.12561000 / -0.27876200 0.96036030 0.00000000 / 160 75 149 255 / 0.12162780 0.99949650
				-12.40061000 17.18924000 -17.12561000 / 0.01487820 0.99988930 0.00000000 / 187 85 176 255 / 0.05433660 0.99179080
				-12.40061000 17.18924000 -17.12561000 / 0.01487820 0.99988930 0.00000000 / 187 85 176 255 / 0.05433660 0.99179080
				-12.72613000 17.01720000 -16.30578000 / 0.64584550 0.73740070 0.19779730 / 238 105 224 255 / 1.04457100 0.00656130
				-12.40061000 17.18924000 -17.12561000 / 0.01487820 0.99988930 0.00000000 / 187 85 176 255 / 0.05433660 0.99179080
				-12.37826000 17.18202000 -17.14856000 / 0.56587300 0.82449250 0.00000000 / 195 91 183 255 / 0.01396180 0.96865850
				-12.37826000 17.18202000 -17.14856000 / 0.56587300 0.82449250 0.00000000 / 195 91 183 255 / 0.01396180 0.96865850
				-12.37826000 17.18202000 -17.14856000 / 0.56587300 0.82449250 0.00000000 / 195 91 183 255 / 0.01396180 0.96865850
				-12.40733000 16.38336000 -17.12561000 / 0.56268560 -0.82667100 0.00000000 / 161 91 151 255 / -0.06039430 0.99539190
				-12.40733000 16.38336000 -17.12561000 / 0.56268560 -0.82667100 0.00000000 / 161 91 151 255 / -0.06039430 0.99539190
				-12.40733000 16.38336000 -17.12561000 / 0.56268560 -0.82667100 0.00000000 / 161 91 151 255 / -0.06039430 0.99539190
				-12.40733000 16.38336000 -17.12561000 / 0.56268560 -0.82667100 0.00000000 / 161 91 151 255 / -0.06039430 0.99539190
				-12.40733000 16.38336000 -17.12561000 / 0.56268560 -0.82667100 0.00000000 / 161 91 151 255 / -0.06039430 0.99539190
				-12.37825000 17.18201000 -17.12561000 / 0.56587300 0.82449250 0.00000000 / 187 96 175 255 / 0.01396180 0.96865850
				-12.72613000 17.01720000 -16.30578000 / 0.64584550 0.73740070 0.19779730 / 238 105 224 255 / 1.04457100 0.00656130
				-12.37825000 17.18201000 -17.12561000 / 0.56587300 0.82449250 0.00000000 / 187 96 175 255 / 0.01396180 0.96865850
				-12.37825000 17.18201000 -17.12561000 / 0.56587300 0.82449250 0.00000000 / 187 96 175 255 / 0.01396180 0.96865850
				-12.42782000 17.18133000 -17.12561000 / -0.45551090 0.89023020 0.00019070 / 160 75 149 255 / 1.06039400 0.99539190
				-12.36037000 17.15990000 -17.14856000 / 0.83836300 0.54511240 -0.00019070 / 177 99 166 255 / 0.00050350 0.93009950
				-12.36037000 17.15990000 -17.14856000 / 0.83836300 0.54511240 -0.00019070 / 177 99 166 255 / 0.00050350 0.93009950
				-12.36037000 17.15990000 -17.14856000 / 0.83836300 0.54511240 -0.00019070 / 177 99 166 255 / 0.00050350 0.93009950
				-12.36036000 17.15990000 -17.12561000 / 0.83836300 0.54511240 -0.00019070 / 184 100 172 255 / 0.00050350 0.93009950
				-12.36036000 17.15990000 -17.12561000 / 0.83836300 0.54511240 -0.00019070 / 184 100 172 255 / 0.00050350 0.93009950
				-12.36036000 17.15990000 -17.12561000 / 0.83836300 0.54511240 -0.00019070 / 184 100 172 255 / 0.00050350 0.93009950
				-12.07791000 16.60786000 -17.14857000 / 0.93269040 0.36067840 0.00019070 / 206 100 194 255 / 0.00050350 0.06990050
			}
		}
		Geometry
		{
			ShaderIndex 1
			Flags -
			VertexDeclaration N209731BE
			Indices 72
			{
				52 54 55 56 57 53 58 60 61 62 63 59 64 66 67
				68 69 65 70 0 1 2 3 71 4 6 7 8 9 5
				10 12 13 14 15 11 16 18 19 20 21 17 22 24 25
				26 27 23 28 30 31 32 34 29 37 39 35 36 40 38
				43 45 41 42 46 44 47 33 49 50 51 48
			}
			Vertices 72
			{
				-12.48147000 16.49185000 -15.28186000 / 0.45475140 -0.89061840 0.00000000 / 117 81 109 255 / 0.00000000 0.00000000
				-12.49887000 16.48297000 -15.28186000 / 0.45475140 -0.89061840 0.00000000 / 126 81 117 255 / 0.00000000 1.00000000
				-12.49887000 16.48297000 -15.28186000 / 0.45475140 -0.89061840 0.00000000 / 126 81 117 255 / 0.00000000 1.00000000
				-12.49888000 16.48297000 -15.79553000 / 0.45497830 -0.89050260 0.00000000 / 134 81 125 255 / 1.00000000 1.00000000
				-12.70559000 16.89771000 -15.77551000 / 0.00009540 0.00000000 1.00000000 / 140 78 130 255 / 1.00000000 1.00000000
				-12.70559000 16.89771000 -15.77551000 / 0.00009540 0.00000000 1.00000000 / 140 78 130 255 / 1.00000000 1.00000000
				-12.50365000 16.50302000 -15.77551000 / 0.00009540 0.00000000 1.00000000 / 139 78 130 255 / 0.00000000 1.00000000
				-12.49059000 16.50969000 -15.77551000 / 0.00009540 0.00000000 1.00000000 / 140 78 130 255 / 0.00000000 1.00000000
				-12.49059000 16.50969000 -15.77551000 / 0.00009540 0.00000000 1.00000000 / 140 78 130 255 / 0.00000000 1.00000000
				-12.69233000 16.90394000 -15.77551000 / 0.00009540 0.00000000 1.00000000 / 140 78 131 255 / 1.00000000 1.00000000
				-12.70559000 16.89772000 -15.30188000 / 0.42502990 -0.90517930 0.00000000 / 133 77 124 255 / 1.00000000 0.00000000
				-12.70559000 16.89772000 -15.30188000 / 0.42502990 -0.90517930 0.00000000 / 133 77 124 255 / 1.00000000 0.00000000
				-12.70559000 16.89771000 -15.77551000 / 0.42533770 -0.90503480 0.00000000 / 130 77 121 255 / 1.00000000 1.00000000
				-12.69233000 16.90394000 -15.77551000 / 0.42533770 -0.90503480 0.00000000 / 133 77 124 255 / 1.00000000 1.00000000
				-12.69233000 16.90394000 -15.77551000 / 0.42533770 -0.90503480 0.00000000 / 133 77 124 255 / 1.00000000 1.00000000
				-12.69232000 16.90395000 -15.30188000 / 0.42495180 -0.90521600 0.00000000 / 135 77 126 255 / 1.00000000 0.00000000
				-12.50363000 16.50301000 -15.30188000 / 0.00000000 0.00000000 -1.00000000 / 95 60 88 255 / 0.00000000 0.00000000
				-12.50363000 16.50301000 -15.30188000 / 0.00000000 0.00000000 -1.00000000 / 95 60 88 255 / 0.00000000 0.00000000
				-12.70559000 16.89772000 -15.30188000 / -0.00009540 0.00000000 -1.00000000 / 103 61 96 255 / 1.00000000 0.00000000
				-12.69232000 16.90395000 -15.30188000 / -0.00009540 0.00000000 -1.00000000 / 95 60 88 255 / 1.00000000 0.00000000
				-12.69232000 16.90395000 -15.30188000 / -0.00009540 0.00000000 -1.00000000 / 95 60 88 255 / 1.00000000 0.00000000
				-12.49059000 16.50969000 -15.30188000 / 0.00000000 0.00000000 -1.00000000 / 87 60 81 255 / 0.00000000 0.00000000
				-12.50365000 16.50302000 -15.77551000 / -0.45535810 0.89030840 0.00000000 / 154 84 144 255 / 0.00000000 1.00000000
				-12.50365000 16.50302000 -15.77551000 / -0.45535810 0.89030840 0.00000000 / 154 84 144 255 / 0.00000000 1.00000000
				-12.50363000 16.50301000 -15.30188000 / -0.45604170 0.88995840 0.00000000 / 144 84 134 255 / 0.00000000 0.00000000
				-12.49059000 16.50969000 -15.30188000 / -0.45604170 0.88995840 0.00000000 / 154 84 144 255 / 0.00000000 0.00000000
				-12.49059000 16.50969000 -15.30188000 / -0.45604170 0.88995840 0.00000000 / 154 84 144 255 / 0.00000000 0.00000000
				-12.49059000 16.50969000 -15.77551000 / -0.45535810 0.89030840 0.00000000 / 165 84 154 255 / 0.00000000 1.00000000
				-12.48148000 16.49186000 -15.79553000 / 0.89024960 0.45547210 -0.00085830 / 208 118 196 255 / 0.00000000 0.00000000
				-12.48148000 16.49186000 -15.79553000 / 0.89024960 0.45547210 -0.00085830 / 208 118 196 255 / 0.00000000 0.00000000
				-12.70144000 16.92178000 -15.79553000 / 0.89024990 0.45547230 0.00047680 / 198 118 186 255 / 1.00000000 0.00000000
				-12.69233000 16.90394000 -15.77551000 / 0.89034700 0.45528240 0.00019070 / 203 118 191 255 / 1.00000000 1.00000000
				-12.69233000 16.90394000 -15.77551000 / 0.89034700 0.45528240 0.00019070 / 203 118 191 255 / 1.00000000 1.00000000
				-12.69233000 16.90394000 -15.77551000 / 0.89034700 0.45528240 0.00019070 / 203 118 191 255 / 1.00000000 1.00000000
				-12.49059000 16.50969000 -15.77551000 / 0.89044410 0.45509250 -0.00047680 / 209 118 196 255 / 0.00000000 1.00000000
				-12.49059000 16.50969000 -15.77551000 / 0.89044410 0.45509250 -0.00047680 / 209 118 196 255 / 0.00000000 1.00000000
				-12.49059000 16.50969000 -15.77551000 / 0.89044410 0.45509250 -0.00047680 / 209 118 196 255 / 0.00000000 1.00000000
				-12.48147000 16.49185000 -15.28186000 / 0.89054120 0.45490270 0.00000000 / 202 118 189 255 / 0.00000000 0.00000000
				-12.48147000 16.49185000 -15.28186000 / 0.89054120 0.45490270 0.00000000 / 202 118 189 255 / 0.00000000 0.00000000
				-12.48148000 16.49186000 -15.79553000 / 0.89063820 0.45471280 0.00000000 / 208 118 196 255 / 1.00000000 0.00000000
				-12.49059000 16.50969000 -15.30188000 / 0.89034700 0.45528240 0.00028610 / 189 119 177 255 / 0.00000000 0.00000000
				-12.49059000 16.50969000 -15.30188000 / 0.89034700 0.45528240 0.00028610 / 189 119 177 255 / 0.00000000 0.00000000
				-12.49059000 16.50969000 -15.30188000 / 0.89034700 0.45528240 0.00028610 / 189 119 177 255 / 0.00000000 0.00000000
				-12.70145000 16.92178000 -15.28186000 / 0.89025000 0.45547230 0.00019070 / 195 119 183 255 / 0.00000000 0.00000000
				-12.70145000 16.92178000 -15.28186000 / 0.89025000 0.45547230 0.00019070 / 195 119 183 255 / 0.00000000 0.00000000
				-12.48147000 16.49185000 -15.28186000 / 0.89024990 0.45547230 0.00057220 / 202 118 189 255 / 1.00000000 0.00000000
				-12.69232000 16.90395000 -15.30188000 / 0.89015280 0.45566210 0.00009540 / 191 119 179 255 / 1.00000000 0.00000000
				-12.69232000 16.90395000 -15.30188000 / 0.89015280 0.45566210 0.00009540 / 191 119 179 255 / 1.00000000 0.00000000
				-12.69232000 16.90395000 -15.30188000 / 0.89015280 0.45566210 0.00009540 / 191 119 179 255 / 1.00000000 0.00000000
				-12.70144000 16.92178000 -15.79553000 / 0.89044420 0.45509260 0.00000000 / 198 118 186 255 / 0.00000000 0.00000000
				-12.70144000 16.92178000 -15.79553000 / 0.89044420 0.45509260 0.00000000 / 198 118 186 255 / 0.00000000 0.00000000
				-12.70145000 16.92178000 -15.28186000 / 0.89015280 0.45566210 0.00000000 / 195 119 183 255 / 1.00000000 0.00000000
				-12.70144000 16.92178000 -15.79553000 / -0.00009540 0.00000000 -1.00000000 / 91 60 85 255 / 1.00000000 0.00000000
				-12.70144000 16.92178000 -15.79553000 / -0.00009540 0.00000000 -1.00000000 / 91 60 85 255 / 1.00000000 0.00000000
				-12.48148000 16.49186000 -15.79553000 / -0.00009540 0.00000000 -1.00000000 / 81 60 76 255 / 0.00000000 0.00000000
				-12.49888000 16.48297000 -15.79553000 / -0.00009540 0.00000000 -1.00000000 / 91 60 85 255 / 0.00000000 1.00000000
				-12.49888000 16.48297000 -15.79553000 / -0.00009540 0.00000000 -1.00000000 / 91 60 85 255 / 0.00000000 1.00000000
				-12.71883000 16.91287000 -15.79553000 / -0.00009540 0.00000000 -1.00000000 / 100 60 93 255 / 1.00000000 1.00000000
				-12.70145000 16.92178000 -15.28186000 / -0.45634570 0.88980260 0.00000000 / 175 75 164 255 / 1.00000000 0.00000000
				-12.70145000 16.92178000 -15.28186000 / -0.45634570 0.88980260 0.00000000 / 175 75 164 255 / 1.00000000 0.00000000
				-12.70144000 16.92178000 -15.79553000 / -0.45596620 0.88999720 0.00000000 / 179 75 168 255 / 0.00000000 0.00000000
				-12.71883000 16.91287000 -15.79553000 / -0.45596620 0.88999720 0.00000000 / 175 75 164 255 / 0.00000000 1.00000000
				-12.71883000 16.91287000 -15.79553000 / -0.45596620 0.88999720 0.00000000 / 175 75 164 255 / 0.00000000 1.00000000
				-12.71882000 16.91286000 -15.28186000 / -0.45634570 0.88980260 0.00000000 / 171 75 160 255 / 1.00000000 1.00000000
				-12.48147000 16.49185000 -15.28186000 / 0.00009540 0.00000000 1.00000000 / 109 67 102 255 / 1.00000000 0.00000000
				-12.48147000 16.49185000 -15.28186000 / 0.00009540 0.00000000 1.00000000 / 109 67 102 255 / 1.00000000 0.00000000
				-12.70145000 16.92178000 -15.28186000 / 0.00000000 0.00000000 1.00000000 / 121 67 113 255 / 0.00000000 0.00000000
				-12.71882000 16.91286000 -15.28186000 / 0.00000000 0.00000000 1.00000000 / 109 67 102 255 / 0.00000000 1.00000000
				-12.71882000 16.91286000 -15.28186000 / 0.00000000 0.00000000 1.00000000 / 109 67 102 255 / 0.00000000 1.00000000
				-12.49887000 16.48297000 -15.28186000 / 0.00009540 0.00000000 1.00000000 / 97 67 90 255 / 1.00000000 1.00000000
				-12.48148000 16.49186000 -15.79553000 / 0.45497830 -0.89050260 0.00000000 / 126 81 117 255 / 1.00000000 0.00000000
				-12.48148000 16.49186000 -15.79553000 / 0.45497830 -0.89050260 0.00000000 / 126 81 117 255 / 1.00000000 0.00000000
			}
		}
		Geometry
		{
			ShaderIndex 2
			Flags -
			VertexDeclaration N209731BE
			Indices 12
			{
				0 2 3 4 5 1 6 8 9 10 11 7
			}
			Vertices 12
			{
				-12.70559000 16.89772000 -15.30188000 / 0.89025000 0.45547230 0.00000000 / 202 84 190 255 / 0.74786380 0.25228880
				-12.70559000 16.89772000 -15.30188000 / 0.89025000 0.45547230 0.00000000 / 202 84 190 255 / 0.74786380 0.25228880
				-12.50363000 16.50301000 -15.30188000 / 0.89025000 0.45547230 0.00000000 / 194 84 182 255 / 0.50094610 0.25228880
				-12.50365000 16.50302000 -15.77551000 / 0.89025000 0.45547230 0.00000000 / 202 84 190 255 / 0.50094610 0.49884030
				-12.50365000 16.50302000 -15.77551000 / 0.89025000 0.45547230 0.00000000 / 202 84 190 255 / 0.50094610 0.49884030
				-12.70559000 16.89771000 -15.77551000 / 0.89025000 0.45547230 0.00000000 / 210 84 198 255 / 0.74786380 0.49884030
				-12.66731000 16.82076000 -15.93421000 / 0.89025000 0.45547230 0.00000000 / 237 115 224 255 / 0.99919130 0.00196840
				-12.66731000 16.82076000 -15.93421000 / 0.89025000 0.45547230 0.00000000 / 237 115 224 255 / 0.99919130 0.00196840
				-12.53254000 16.55734000 -15.93421000 / 0.89025000 0.45547230 0.00000000 / 236 115 222 255 / 0.75227360 0.00196840
				-12.53254000 16.55734000 -16.20814000 / 0.89025000 0.45547230 0.00000000 / 237 115 224 255 / 0.75227360 0.24851990
				-12.53254000 16.55734000 -16.20814000 / 0.89025000 0.45547230 0.00000000 / 237 115 224 255 / 0.75227360 0.24851990
				-12.66731000 16.82076000 -16.20813000 / 0.89025000 0.45547230 0.00000000 / 239 115 225 255 / 0.99919130 0.24851990
			}
		}
		Geometry
		{
			ShaderIndex 3
			Flags -
			VertexDeclaration N209731BE
			Indices 102
			{
				0 2 3 4 5 1 6 8 9 10 11 7 12 14 15
				16 17 13 18 20 21 22 23 19 24 26 27 28 29 25
				30 32 33 34 35 31 36 38 39 40 41 37 42 44 45
				46 47 43 48 50 51 52 53 49 54 56 57 58 59 55
				60 62 63 64 65 61 66 68 69 70 71 67 72 75 76
				77 78 73 81 74 79 80 83 82 84 87 88 85 89 90
				86 91 92 93 96 97 94 98 99 95 100 101
			}
			Vertices 102
			{
				-12.26653000 16.03525000 -15.77161000 / 0.89025000 0.45547230 0.00000000 / 220 113 207 255 / 0.47161860 0.52838130
				-12.26653000 16.03525000 -15.77161000 / 0.89025000 0.45547230 0.00000000 / 220 113 207 255 / 0.47161860 0.52838130
				-12.21558000 15.93572000 -15.77161000 / 0.89015280 0.45566210 -0.00009540 / 228 113 215 255 / 0.00791930 0.52838130
				-12.21559000 15.93573000 -15.88342000 / 0.89025000 0.45547230 0.00000000 / 220 113 207 255 / 0.00791930 0.99208070
				-12.21559000 15.93573000 -15.88342000 / 0.89025000 0.45547230 0.00000000 / 220 113 207 255 / 0.00791930 0.99208070
				-12.26652000 16.03527000 -15.88342000 / 0.89025000 0.45547230 0.00019070 / 212 113 199 255 / 0.47161860 0.99208070
				-12.26652000 16.03527000 -15.88342000 / 0.36497350 0.18673060 -0.91209980 / 112 61 104 255 / 0.47161860 0.99208070
				-12.26652000 16.03527000 -15.88342000 / 0.36497350 0.18673060 -0.91209980 / 112 61 104 255 / 0.47161860 0.99208070
				-12.21559000 15.93573000 -15.88342000 / 0.36505610 0.18672410 -0.91206810 / 110 61 102 255 / 0.00791930 0.99208070
				-12.22252000 15.92780000 -15.88782000 / 0.36505610 0.18672410 -0.91206810 / 112 61 104 255 / 0.00050350 0.99949650
				-12.22252000 15.92780000 -15.88782000 / 0.36505610 0.18672410 -0.91206810 / 112 61 104 255 / 0.00050350 0.99949650
				-12.27723000 16.03474000 -15.88782000 / 0.36497350 0.18673060 -0.91209980 / 114 61 106 255 / 0.47903440 0.99949650
				-12.26653000 16.03525000 -15.77161000 / -0.04882460 0.99880740 0.00009540 / 224 101 210 255 / 0.47161860 0.52838130
				-12.26653000 16.03525000 -15.77161000 / -0.04882460 0.99880740 0.00009540 / 224 101 210 255 / 0.47161860 0.52838130
				-12.26652000 16.03527000 -15.88342000 / -0.04930030 0.99878400 0.00019070 / 230 100 216 255 / 0.47161860 0.99208070
				-12.27723000 16.03474000 -15.88782000 / -0.04930030 0.99878400 0.00019070 / 224 101 210 255 / 0.47903440 0.99949650
				-12.27723000 16.03474000 -15.88782000 / -0.04930030 0.99878400 0.00019070 / 224 101 210 255 / 0.47903440 0.99949650
				-12.27722000 16.03473000 -15.76770000 / -0.04882460 0.99880740 0.00009540 / 217 101 204 255 / 0.47903440 0.52096560
				-12.21558000 15.93572000 -15.77161000 / 0.33035680 0.16899320 0.92860420 / 212 99 199 255 / 0.00791930 0.52838130
				-12.21558000 15.93572000 -15.77161000 / 0.33035680 0.16899320 0.92860420 / 212 99 199 255 / 0.00791930 0.52838130
				-12.26653000 16.03525000 -15.77161000 / 0.33101790 0.16937130 0.92829980 / 181 99 169 255 / 0.47161860 0.52838130
				-12.27722000 16.03473000 -15.76770000 / 0.33093300 0.16937670 0.92832910 / 212 99 199 255 / 0.47903440 0.52096560
				-12.27722000 16.03473000 -15.76770000 / 0.33093300 0.16937670 0.92832910 / 212 99 199 255 / 0.47903440 0.52096560
				-12.22251000 15.92780000 -15.76770000 / 0.33035680 0.16899320 0.92860420 / 241 99 227 255 / 0.00050350 0.52096560
				-12.21559000 15.93573000 -15.88342000 / 0.75340320 -0.65755890 -0.00009540 / 192 87 180 255 / 0.00791930 0.99208070
				-12.21559000 15.93573000 -15.88342000 / 0.75340320 -0.65755890 -0.00009540 / 192 87 180 255 / 0.00791930 0.99208070
				-12.21558000 15.93572000 -15.77161000 / 0.75300190 -0.65801840 -0.00009540 / 183 87 171 255 / 0.00791930 0.52838130
				-12.22251000 15.92780000 -15.76770000 / 0.75304910 -0.65796430 -0.00009540 / 192 87 180 255 / 0.00050350 0.52096560
				-12.22251000 15.92780000 -15.76770000 / 0.75304910 -0.65796430 -0.00009540 / 192 87 180 255 / 0.00050350 0.52096560
				-12.22252000 15.92780000 -15.88782000 / 0.75340320 -0.65755890 -0.00009540 / 201 87 188 255 / 0.00050350 0.99949650
				-12.24279000 15.99531000 -15.83801000 / 0.00000000 0.00000000 -1.00000000 / 152 49 142 255 / 0.27781680 0.80297850
				-12.24279000 15.99531000 -15.83801000 / 0.00000000 0.00000000 -1.00000000 / 152 49 142 255 / 0.27781680 0.80297850
				-12.23567000 15.98140000 -15.83801000 / 0.00000000 0.00000000 -1.00000000 / 0 49 0 255 / 0.21449280 0.80297850
				-12.23827000 15.98006000 -15.83801000 / 0.00000000 0.00000000 -1.00000000 / 152 49 142 255 / 0.21449280 0.80297850
				-12.23827000 15.98006000 -15.83801000 / 0.00000000 0.00000000 -1.00000000 / 152 49 142 255 / 0.21449280 0.80297850
				-12.24540000 15.99397000 -15.83801000 / 0.00000000 0.00000000 -1.00000000 / 255 49 243 255 / 0.27781680 0.80297850
				-12.23133000 15.98363000 -15.81311000 / 0.31261030 0.16002440 0.93630500 / 165 118 154 255 / 0.22505190 0.77281190
				-12.23133000 15.98363000 -15.81311000 / 0.31261030 0.16002440 0.93630500 / 165 118 154 255 / 0.22505190 0.77281190
				-12.23843000 15.99753000 -15.81311000 / 0.31233850 0.15974560 0.93644330 / 169 118 158 255 / 0.26594540 0.77281190
				-12.24540000 15.99397000 -15.81018000 / 0.31241980 0.15983380 0.93640120 / 165 118 154 255 / 0.26594540 0.79061890
				-12.24540000 15.99397000 -15.81018000 / 0.31241980 0.15983380 0.93640120 / 165 118 154 255 / 0.26594540 0.79061890
				-12.23827000 15.98006000 -15.81018000 / 0.31271470 0.16021980 0.93623660 / 160 118 149 255 / 0.22505190 0.79061890
				-12.25852000 16.01963000 -16.77015000 / 0.89025000 0.45547230 0.00000000 / 199 103 187 255 / 0.43110660 0.01426700
				-12.25852000 16.01963000 -16.77015000 / 0.89025000 0.45547230 0.00000000 / 199 103 187 255 / 0.43110660 0.01426700
				-12.21871000 15.94181000 -16.77015000 / 0.89028870 0.45539670 0.00000000 / 205 103 193 255 / 0.06919860 0.01426700
				-12.21871000 15.94182000 -16.88197000 / 0.89028870 0.45539670 0.00000000 / 199 103 187 255 / 0.06919860 0.47795100
				-12.21871000 15.94182000 -16.88197000 / 0.89028870 0.45539670 0.00000000 / 199 103 187 255 / 0.06919860 0.47795100
				-12.25852000 16.01963000 -16.88197000 / 0.89025000 0.45547230 0.00000000 / 192 103 180 255 / 0.43110660 0.47795100
				-12.25852000 16.01963000 -16.88197000 / 0.33015770 0.16898890 -0.92867580 / 107 50 99 255 / 0.43133550 0.99536140
				-12.25852000 16.01963000 -16.88197000 / 0.33015770 0.16898890 -0.92867580 / 107 50 99 255 / 0.43133550 0.99536140
				-12.21871000 15.94182000 -16.88197000 / 0.33024800 0.16889090 -0.92866150 / 74 50 68 255 / 0.02322390 0.99131780
				-12.22564000 15.93389000 -16.88587000 / 0.33024800 0.16889090 -0.92866150 / 107 50 99 255 / 0.01441960 1.00064100
				-12.22564000 15.93389000 -16.88587000 / 0.33024800 0.16889090 -0.92866150 / 107 50 99 255 / 0.01441960 1.00064100
				-12.26900000 16.01865000 -16.88587000 / 0.33015770 0.16898890 -0.92867580 / 137 50 128 255 / 0.43795780 0.99745180
				-12.25852000 16.01963000 -16.77015000 / -0.09279710 0.99568500 0.00000000 / 169 93 158 255 / 0.42898560 0.53012080
				-12.25852000 16.01963000 -16.77015000 / -0.09279710 0.99568500 0.00000000 / 169 93 158 255 / 0.42898560 0.53012080
				-12.25852000 16.01963000 -16.88197000 / -0.09279710 0.99568500 0.00000000 / 157 93 147 255 / 0.43133550 0.99536140
				-12.26900000 16.01865000 -16.88587000 / -0.09279710 0.99568500 0.00000000 / 169 93 158 255 / 0.43795780 0.99745180
				-12.26900000 16.01865000 -16.88587000 / -0.09279710 0.99568500 0.00000000 / 169 93 158 255 / 0.43795780 0.99745180
				-12.26899000 16.01865000 -16.76576000 / -0.09279710 0.99568500 0.00000000 / 181 93 170 255 / 0.44030760 0.51786810
				-12.21871000 15.94181000 -16.77015000 / 0.36497990 0.18663850 0.91211610 / 179 104 168 255 / 0.02236940 0.52717590
				-12.21871000 15.94181000 -16.77015000 / 0.36497990 0.18663850 0.91211610 / 179 104 168 255 / 0.02236940 0.52717590
				-12.25852000 16.01963000 -16.77015000 / 0.36527190 0.18692770 0.91194000 / 177 104 166 255 / 0.42898560 0.53012080
				-12.26899000 16.01865000 -16.76576000 / 0.36513870 0.18671760 0.91203630 / 179 104 168 255 / 0.44030760 0.51786810
				-12.26899000 16.01865000 -16.76576000 / 0.36513870 0.18671760 0.91203630 / 179 104 168 255 / 0.44030760 0.51786810
				-12.22564000 15.93388000 -16.76576000 / 0.36497990 0.18663850 0.91211610 / 182 104 170 255 / 0.01527400 0.52171330
				-12.21871000 15.94182000 -16.88197000 / 0.75304910 -0.65796430 0.00000000 / 121 78 113 255 / 0.02322390 0.99131780
				-12.21871000 15.94182000 -16.88197000 / 0.75304910 -0.65796430 0.00000000 / 121 78 113 255 / 0.02322390 0.99131780
				-12.21871000 15.94181000 -16.77015000 / 0.75255900 -0.65852490 0.00000000 / 114 78 106 255 / 0.02236940 0.52717590
				-12.22564000 15.93388000 -16.76576000 / 0.75260030 -0.65847760 0.00000000 / 121 78 113 255 / 0.01527400 0.52171330
				-12.22564000 15.93388000 -16.76576000 / 0.75260030 -0.65847760 0.00000000 / 121 78 113 255 / 0.01527400 0.52171330
				-12.22564000 15.93389000 -16.88587000 / 0.75304910 -0.65796430 0.00000000 / 127 78 119 255 / 0.01441960 1.00064100
				-12.23567000 15.98140000 -15.82386000 / 0.87019010 0.44486980 -0.21180190 / 255 107 253 255 / 0.21449280 0.74520870
				-12.23567000 15.98140000 -15.82386000 / 0.87019010 0.44486980 -0.21180190 / 255 107 253 255 / 0.21449280 0.74520870
				-12.23567000 15.98140000 -15.82386000 / 0.87019010 0.44486980 -0.21180190 / 255 107 253 255 / 0.21449280 0.74520870
				-12.23567000 15.98140000 -15.83801000 / 0.89040550 0.45516820 -0.00009540 / 255 108 255 255 / 0.21449280 0.80297850
				-12.24279000 15.99531000 -15.83801000 / 0.89038570 0.45520680 -0.00009540 / 240 107 226 255 / 0.27781680 0.80297850
				-12.24279000 15.99531000 -15.83801000 / 0.89038570 0.45520680 -0.00009540 / 240 107 226 255 / 0.27781680 0.80297850
				-12.24278000 15.99531000 -15.82386000 / 0.87016700 0.44490670 -0.21181950 / 249 107 235 255 / 0.27781680 0.74520870
				-12.24278000 15.99531000 -15.82386000 / 0.87016700 0.44490670 -0.21181950 / 249 107 235 255 / 0.27781680 0.74520870
				-12.24278000 15.99531000 -15.82386000 / 0.87016700 0.44490670 -0.21181950 / 249 107 235 255 / 0.27781680 0.74520870
				-12.23133000 15.98363000 -15.81311000 / 0.81050890 0.41436180 -0.41398040 / 255 106 255 255 / 0.21449280 0.68740840
				-12.23133000 15.98363000 -15.81311000 / 0.81050890 0.41436180 -0.41398040 / 255 106 255 255 / 0.21449280 0.68740840
				-12.23843000 15.99753000 -15.81311000 / 0.81044420 0.41447290 -0.41399600 / 248 106 234 255 / 0.27781680 0.68740840
				-12.24278000 15.99531000 -15.82386000 / -0.45456140 0.89071540 0.00000000 / 104 115 97 255 / 0.26000980 0.74520870
				-12.24278000 15.99531000 -15.82386000 / -0.45456140 0.89071540 0.00000000 / 104 115 97 255 / 0.26000980 0.74520870
				-12.24278000 15.99531000 -15.82386000 / -0.45456140 0.89071540 0.00000000 / 104 115 97 255 / 0.26000980 0.74520870
				-12.24279000 15.99531000 -15.83801000 / -0.45471280 0.89063820 0.00000000 / 56 119 52 255 / 0.26000980 0.80297850
				-12.24540000 15.99397000 -15.83801000 / -0.45467420 0.89065790 0.00000000 / 126 117 118 255 / 0.26000980 0.80297850
				-12.24540000 15.99397000 -15.83801000 / -0.45467420 0.89065790 0.00000000 / 126 117 118 255 / 0.26000980 0.80297850
				-12.24540000 15.99397000 -15.81018000 / -0.45463710 0.89067680 0.00000000 / 126 113 118 255 / 0.26000980 0.68740840
				-12.24540000 15.99397000 -15.81018000 / -0.45463710 0.89067680 0.00000000 / 126 113 118 255 / 0.26000980 0.68740840
				-12.23843000 15.99753000 -15.81311000 / -0.45459850 0.89069650 0.00000000 / 56 111 52 255 / 0.26000980 0.68740840
				-12.23567000 15.98140000 -15.82386000 / 0.45680060 -0.88956920 0.00000000 / 82 87 76 255 / 0.22505190 0.74520870
				-12.23567000 15.98140000 -15.82386000 / 0.45680060 -0.88956920 0.00000000 / 82 87 76 255 / 0.22505190 0.74520870
				-12.23567000 15.98140000 -15.82386000 / 0.45680060 -0.88956920 0.00000000 / 82 87 76 255 / 0.22505190 0.74520870
				-12.23133000 15.98363000 -15.81311000 / 0.45680060 -0.88956920 0.00000000 / 66 88 61 255 / 0.22505190 0.68740840
				-12.23827000 15.98006000 -15.81018000 / 0.45680060 -0.88956920 0.00000000 / 83 87 77 255 / 0.22505190 0.68740840
				-12.23827000 15.98006000 -15.81018000 / 0.45680060 -0.88956920 0.00000000 / 83 87 77 255 / 0.22505190 0.68740840
				-12.23827000 15.98006000 -15.83801000 / 0.45672520 -0.88960790 0.00000000 / 89 86 83 255 / 0.22505190 0.80297850
				-12.23827000 15.98006000 -15.83801000 / 0.45672520 -0.88960790 0.00000000 / 89 86 83 255 / 0.22505190 0.80297850
				-12.23567000 15.98140000 -15.83801000 / 0.45672520 -0.88960790 0.00000000 / 80 85 75 255 / 0.22505190 0.80297850
			}
		}
		Geometry
		{
			ShaderIndex 4
			Flags -
			VertexDeclaration N209731BE
			Indices 30
			{
				0 2 3 4 5 1 6 8 9 10 11 7 12 14 15
				16 18 13 19 17 21 22 24 20 25 23 27 28 29 26
			}
			Vertices 30
			{
				-12.73742000 16.92617000 -13.28655000 / 0.22278230 0.97486340 0.00305180 / 48 95 45 255 / 0.94216920 0.92846680
				-12.73742000 16.92617000 -13.28655000 / 0.22278230 0.97486340 0.00305180 / 48 95 45 255 / 0.94216920 0.92846680
				-12.73829000 16.92574000 -12.95989000 / 0.24625860 0.96920230 0.00190750 / 59 95 55 255 / 0.94216920 0.07342530
				-12.72319000 16.92193000 -12.97308000 / 0.24576510 0.96932750 0.00190740 / 48 95 45 255 / 0.99569700 0.00756840
				-12.72319000 16.92193000 -12.97308000 / 0.24576510 0.96932750 0.00190740 / 48 95 45 255 / 0.99569700 0.00756840
				-12.72188000 16.92259000 -13.27190000 / 0.22124900 0.97521230 0.00314710 / 37 95 34 255 / 0.99569700 0.99430850
				-12.50344000 16.46670000 -12.95989000 / 0.92030090 -0.39119940 0.00305180 / 33 95 30 255 / 0.05595400 0.07342530
				-12.50344000 16.46670000 -12.95989000 / 0.92030090 -0.39119940 0.00305180 / 33 95 30 255 / 0.05595400 0.07342530
				-12.50257000 16.46714000 -13.28655000 / 0.91084440 -0.41274570 0.00181200 / 37 95 34 255 / 0.05595400 0.92846680
				-12.49614000 16.48140000 -13.27191000 / 0.91102010 -0.41235750 0.00190730 / 33 95 30 255 / 0.00242620 0.99430850
				-12.49614000 16.48140000 -13.27191000 / 0.91102010 -0.41235750 0.00190730 / 33 95 30 255 / 0.00242620 0.99430850
				-12.49745000 16.48074000 -12.97308000 / 0.92086790 -0.38986210 0.00314710 / 29 95 27 255 / 0.00242620 0.00756840
				-12.50257000 16.46714000 -13.28655000 / 0.68368210 0.34980410 -0.64048110 / 47 108 43 255 / 0.05595400 0.92846680
				-12.50257000 16.46714000 -13.28655000 / 0.68368210 0.34980410 -0.64048110 / 47 108 43 255 / 0.05595400 0.92846680
				-12.73742000 16.92617000 -13.28655000 / 0.68395570 0.34998850 -0.64008800 / 54 109 50 255 / 0.94216920 0.92846680
				-12.72188000 16.92259000 -13.27190000 / 0.82187770 0.42057100 -0.38423590 / 45 106 41 255 / 0.99569700 0.99430850
				-12.72188000 16.92259000 -13.27190000 / 0.82187770 0.42057100 -0.38423590 / 45 106 41 255 / 0.99569700 0.99430850
				-12.72188000 16.92259000 -13.27190000 / 0.82187770 0.42057100 -0.38423590 / 45 106 41 255 / 0.99569700 0.99430850
				-12.49614000 16.48140000 -13.27191000 / 0.82241810 0.42074540 -0.38288600 / 41 102 38 255 / 0.00242620 0.99430850
				-12.49614000 16.48140000 -13.27191000 / 0.82241810 0.42074540 -0.38288600 / 41 102 38 255 / 0.00242620 0.99430850
				-12.49614000 16.48140000 -13.27191000 / 0.82241810 0.42074540 -0.38288600 / 41 102 38 255 / 0.00242620 0.99430850
				-12.72319000 16.92193000 -12.97308000 / 0.81297030 0.41597380 0.40748640 / 41 97 37 255 / 0.99569700 0.00756840
				-12.72319000 16.92193000 -12.97308000 / 0.81297030 0.41597380 0.40748640 / 41 97 37 255 / 0.99569700 0.00756840
				-12.72319000 16.92193000 -12.97308000 / 0.81297030 0.41597380 0.40748640 / 41 97 37 255 / 0.99569700 0.00756840
				-12.49745000 16.48074000 -12.97308000 / 0.81350890 0.41619610 0.40618220 / 38 92 35 255 / 0.00242620 0.00756840
				-12.49745000 16.48074000 -12.97308000 / 0.81350890 0.41619610 0.40618220 / 38 92 35 255 / 0.00242620 0.00756840
				-12.49745000 16.48074000 -12.97308000 / 0.81350890 0.41619610 0.40618220 / 38 92 35 255 / 0.00242620 0.00756840
				-12.73829000 16.92574000 -12.95989000 / 0.66567110 0.34065580 0.66395450 / 36 89 33 255 / 0.94216920 0.07342530
				-12.73829000 16.92574000 -12.95989000 / 0.66567110 0.34065580 0.66395450 / 36 89 33 255 / 0.94216920 0.07342530
				-12.50344000 16.46670000 -12.95989000 / 0.66519680 0.34027560 0.66462450 / 33 87 31 255 / 0.05595400 0.07342530
			}
		}
	}
}
