Version 165 32
{
	Locked False
	Skinned False
	BoneCount 0
	Mask 255
	Bounds
	{
		Aabb
		{
			Min -5.90735200 -34.01624000 -6.13778700
			Max 32.70244000 33.95982000 -3.53857600
		}
	}
	Geometries
	{
		Geometry
		{
			ShaderIndex 0
			Flags -
			VertexDeclaration N209731BE
			Indices 531
			{
				129 140 426 267 271 127 128 145 268 71 81 107 108 350 72
				352 143 131 132 70 353 265 226 115 116 272 266 113 224 155
				156 121 114 354 110 153 154 225 355 133 427 312 313 9 134
				13 60 67 68 130 14 65 73 77 78 69 66 75 89 105
				106 80 76 90 53 151 152 104 91 58 168 118 119 159 59
				166 214 111 112 120 167 273 117 220 221 297 274 295 449 122
				123 270 296 424 144 124 126 448 423 263 137 511 512 254 264
				347 223 27 28 52 348 138 349 44 45 510 139 12 314 514
				315 422 451 450 517 316 259 515 452 453 299 260 92 74 63
				64 51 93 10 513 47 48 61 11 255 298 216 217 29 256
				218 169 54 55 25 219 56 94 49 50 26 57 518 262 504
				503 412 519 7 177 388 389 23 8 257 24 390 391 269 258
				192 407 189 443 410 413 414 404 444 308 371 380 381 386 309
				372 408 193 194 379 373 415 95 399 400 405 416 323 333 396
				397 62 324 310 230 318 319 374 311 322 79 375 195 190 277
				278 165 196 160 290 376 377 191 161 288 303 383 384 378 289
				300 233 304 305 385 301 228 351 184 183 325 227 181 253 330
				331 317 182 251 242 393 394 332 252 240 344 401 402 395 241
				342 236 0 1 403 343 234 275 185 188 409 306 157 235 187
				368 46 200 201 382 369 406 370 291 164 279 362 363 280 237
				238 173 364 186 239 346 293 367 231 232 302 294 320 292 162
				163 361 321 244 215 141 142 345 245 178 261 246 247 250 179
				335 276 180 459 398 509 307 360 387 135 205 365 366 125 136
				248 32 498 499 229 249 109 243 500 158 501 392 482 18 478
				203 22 529 530 149 204 441 508 30 31 209 442 210 20 483
				484 440 211 3 176 85 86 150 4 83 174 42 43 359 84
				34 101 40 39 212 33 41 175 213 420 485 479 480 472 421
				490 462 436 437 481 491 466 326 505 506 438 467 328 96 35
				36 507 329 286 468 356 357 38 287 470 454 87 88 358 471
				460 493 146 147 82 461 496 520 197 198 148 497 476 21 202
				199 525 477 526 15 473 474 334 527 340 411 170 171 528 341
				206 172 446 447 428 207 434 19 16 17 208 435 489 417 502
				418 475 522 521 2 419 338 516 523 524 495 339 98 327 465
				464 433 97 429 463 486 487 488 430 336 494 455 456 425 337
				281 439 457 458 469 282 431 445 283 284 37 100 99 432 285
				102 222 5 6 492 103
			}
			Vertices 531
			{
				8.67265700 33.68591000 -3.53857600 / 0.78876290 -0.21819480 0.57466880 / 155 255 155 255 / 0.25671770 -0.60102180
				8.67265700 33.68591000 -3.53857600 / 0.78876290 -0.21819480 0.57466880 / 155 255 155 255 / 0.25671770 -0.60102180
				-5.78050200 -33.66910000 -3.75677300 / -0.19583010 0.93037190 -0.30993320 / 155 255 155 255 / 0.91225810 -0.89794750
				-4.50953300 -33.27823000 -3.75676700 / 0.19693760 -0.92927850 -0.31250140 / 255 0 0 255 / 0.91273700 -0.89992100
				-4.50953300 -33.27823000 -3.75676700 / 0.19693760 -0.92927850 -0.31250140 / 255 0 0 255 / 0.91273700 -0.89992100
				-5.78050200 -33.66910000 -3.75677300 / -0.00395770 0.00648500 -0.99997120 / 155 255 155 255 / -0.10160490 -0.28362940
				-5.78050200 -33.66910000 -3.75677300 / -0.00395770 0.00648500 -0.99997120 / 155 255 155 255 / -0.10160490 -0.28362940
				32.57164000 -11.94574000 -6.06301400 / -0.86411090 -0.50330160 -0.00004770 / 255 0 0 255 / 1.12609900 -0.09257360
				32.57164000 -11.94574000 -6.06301400 / -0.86411090 -0.50330160 -0.00004770 / 255 0 0 255 / 1.12609900 -0.09257360
				31.07008000 -12.22961000 -3.75540200 / -0.96663590 0.25615470 -0.00002380 / 155 255 155 255 / 0.73352910 -0.41502950
				31.07008000 -12.22961000 -3.75540200 / -0.96663590 0.25615470 -0.00002380 / 155 255 155 255 / 1.02047900 -0.88714100
				31.07008000 -12.22961000 -3.75540200 / -0.96663590 0.25615470 -0.00002380 / 155 255 155 255 / 1.02047900 -0.88714100
				31.07008000 -12.22961000 -3.75540200 / -0.96663590 0.25615470 -0.00002380 / 155 255 155 255 / 1.02047900 -0.88714100
				31.07008000 -12.22961000 -3.75540200 / -0.96663590 0.25615470 -0.00002380 / 155 255 155 255 / 1.10160500 -0.89678690
				31.07008000 -12.22961000 -3.75540200 / -0.96663590 0.25615470 -0.00002380 / 155 255 155 255 / 1.10160500 -0.89678690
				-5.62236500 -33.94301000 -3.75677500 / 0.71899350 -0.63020420 -0.29307170 / 255 0 0 255 / -0.12673430 -0.28362940
				-5.62236500 -33.94301000 -3.75677500 / 0.71899350 -0.63020420 -0.29307170 / 255 0 0 255 / -0.12673430 -0.89678690
				-5.62236500 -33.94301000 -3.75677500 / 0.71899350 -0.63020420 -0.29307170 / 255 0 0 255 / -0.12673430 -0.89678690
				-5.62236500 -33.94301000 -3.75677500 / 0.71899350 -0.63020420 -0.29307170 / 255 0 0 255 / 0.08125640 -0.89991810
				-5.78050200 -33.66910000 -3.75677300 / -0.19583010 0.93037190 -0.30993320 / 155 255 155 255 / -0.10160490 -0.89678690
				-5.62236500 -33.94301000 -3.75677500 / 0.71899350 -0.63020420 -0.29307170 / 255 0 0 255 / 0.08125640 -0.89991810
				-5.62236500 -33.94301000 -3.75677500 / 0.71899350 -0.63020420 -0.29307170 / 255 0 0 255 / 0.08125640 -0.89991810
				-5.62236500 -33.94301000 -3.75677500 / 0.71899350 -0.63020420 -0.29307170 / 255 0 0 255 / 0.08125640 -0.89991810
				32.31674000 -11.50984000 -6.05683200 / -0.71375520 0.63125940 0.30342220 / 155 255 155 255 / 1.10160500 -0.09257360
				32.31674000 -11.50984000 -6.05683200 / -0.71375520 0.63125940 0.30342220 / 155 255 155 255 / 1.10160500 -0.09257360
				32.31674000 -11.50984000 -6.05683200 / -0.71375520 0.63125940 0.30342220 / 155 255 155 255 / 0.11091110 -0.07314641
				32.31674000 -11.50984000 -6.05683200 / -0.71375520 0.63125940 0.30342220 / 155 255 155 255 / 0.11091110 -0.07314641
				32.31674000 -11.50984000 -6.05683200 / -0.71375520 0.63125940 0.30342220 / 155 255 155 255 / 1.10160500 -0.70340530
				32.31674000 -11.50984000 -6.05683200 / -0.71375520 0.63125940 0.30342220 / 155 255 155 255 / 1.10160500 -0.70340530
				32.31674000 -11.50984000 -6.05683200 / -0.71375520 0.63125940 0.30342220 / 155 255 155 255 / 0.11091110 -0.07314641
				-5.71217000 -33.99487000 -6.11736900 / 0.35490800 -0.61187410 -0.70685950 / 255 0 0 255 / 0.01415590 -0.06472411
				-5.71217000 -33.99487000 -6.11736900 / 0.35490800 -0.61187410 -0.70685950 / 255 0 0 255 / 0.01415590 -0.06472411
				8.47809200 33.57998000 -6.02282900 / 0.18370420 -0.93893280 0.29096040 / 155 255 155 255 / 1.12678100 -0.09266490
				-5.71217000 -33.99487000 -6.11736900 / 0.35490800 -0.61187410 -0.70685950 / 255 0 0 255 / 0.01415590 -0.06472411
				-5.71217000 -33.99487000 -6.11736900 / 0.35490800 -0.61187410 -0.70685950 / 255 0 0 255 / -0.12673430 -0.23818970
				-5.71217000 -33.99487000 -6.11736900 / 0.35490800 -0.61187410 -0.70685950 / 255 0 0 255 / -0.12673430 -0.23818970
				-5.71217000 -33.99487000 -6.11736900 / 0.35490800 -0.61187410 -0.70685950 / 255 0 0 255 / -0.12673430 -0.23818970
				-4.41100300 -33.22133000 -6.11737100 / 0.35547430 -0.60995670 -0.70823070 / 255 0 0 255 / -0.12673430 -0.74800680
				-4.41100300 -33.22133000 -6.11737100 / 0.35547430 -0.60995670 -0.70823070 / 255 0 0 255 / -0.12673430 -0.74800680
				-4.41100300 -33.22133000 -6.11737100 / 0.35547430 -0.60995670 -0.70823070 / 255 0 0 255 / 0.98635640 -0.06472360
				-4.41100300 -33.22133000 -6.11737100 / 0.35547430 -0.60995670 -0.70823070 / 255 0 0 255 / -0.12673430 -0.74800680
				-4.41100300 -33.22133000 -6.11737100 / 0.35547430 -0.60995670 -0.70823070 / 255 0 0 255 / 0.98635640 -0.06472360
				-4.41100300 -33.22133000 -6.11737100 / 0.35547430 -0.60995670 -0.70823070 / 255 0 0 255 / 0.98635640 -0.06472360
				-4.41100300 -33.22133000 -6.11737100 / 0.35547430 -0.60995670 -0.70823070 / 255 0 0 255 / 0.98635640 -0.06472360
				31.21719000 -12.14468000 -6.05684100 / -0.19493780 0.93396570 0.29951180 / 155 255 155 255 / -0.10160490 -0.09257360
				31.21719000 -12.14468000 -6.05684100 / -0.19493780 0.93396570 0.29951180 / 155 255 155 255 / -0.10160490 -0.09257360
				8.47809200 33.57998000 -6.02282900 / 0.18370420 -0.93893280 0.29096040 / 155 255 155 255 / 1.12673400 -0.70340530
				31.21719000 -12.14468000 -6.05684100 / -0.19493780 0.93396570 0.29951180 / 155 255 155 255 / 0.91314590 -0.07314340
				31.21719000 -12.14468000 -6.05684100 / -0.19493780 0.93396570 0.29951180 / 155 255 155 255 / 0.91314590 -0.07314340
				31.21719000 -12.14468000 -6.05684100 / -0.19493780 0.93396570 0.29951180 / 155 255 155 255 / 0.91314590 -0.07314340
				31.21719000 -12.14468000 -6.05684100 / -0.19493780 0.93396570 0.29951180 / 155 255 155 255 / 0.91314590 -0.07314340
				31.21719000 -12.14468000 -6.05684100 / -0.19493780 0.93396570 0.29951180 / 155 255 155 255 / 0.91314590 -0.07314340
				31.21719000 -12.14468000 -6.05684100 / -0.19493780 0.93396570 0.29951180 / 155 255 155 255 / 1.10160500 -0.28362940
				32.39068000 -11.46715000 -6.13365700 / -0.35514140 0.61482190 -0.70417940 / 155 255 155 255 / -0.10160490 -0.74800680
				32.39068000 -11.46715000 -6.13365700 / -0.35514140 0.61482190 -0.70417940 / 155 255 155 255 / 0.05696740 -0.04597450
				32.39068000 -11.46715000 -6.13365700 / -0.35514140 0.61482190 -0.70417940 / 155 255 155 255 / 0.05696740 -0.04597450
				32.39068000 -11.46715000 -6.13365700 / -0.35514140 0.61482190 -0.70417940 / 155 255 155 255 / 0.05696740 -0.04597450
				32.39068000 -11.46715000 -6.13365700 / -0.35514140 0.61482190 -0.70417940 / 155 255 155 255 / 0.05696740 -0.04597450
				32.39068000 -11.46715000 -6.13365700 / -0.35514140 0.61482190 -0.70417940 / 155 255 155 255 / -0.10160490 -0.74800680
				32.39068000 -11.46715000 -6.13365700 / -0.35514140 0.61482190 -0.70417940 / 155 255 155 255 / -0.10160490 -0.74800680
				31.07007000 -12.22961000 -6.06898500 / -0.96663590 0.25615470 0.00009540 / 155 255 155 255 / 1.10160500 -0.09257360
				31.07007000 -12.22961000 -6.06898500 / -0.96663590 0.25615470 0.00009540 / 155 255 155 255 / 1.02048500 -0.06884840
				8.47809200 33.57998000 -6.02282900 / 0.18370420 -0.93893280 0.29096040 / 155 255 155 255 / 0.89212390 -0.07963750
				31.07007000 -12.22961000 -6.06898500 / -0.96663590 0.25615470 0.00009540 / 155 255 155 255 / 1.02048500 -0.06884840
				31.07007000 -12.22961000 -6.06898500 / -0.96663590 0.25615470 0.00009540 / 155 255 155 255 / 1.02048500 -0.06884840
				31.07007000 -12.22961000 -6.06898500 / -0.96663590 0.25615470 0.00009540 / 155 255 155 255 / 1.10160500 -0.09257360
				31.07007000 -12.22961000 -6.06898500 / -0.96663590 0.25615470 0.00009540 / 155 255 155 255 / 1.10160500 -0.09257360
				31.32895000 -12.67243000 -6.06301400 / -0.25615470 -0.96663590 -0.00004770 / 255 0 0 255 / 1.12673400 -0.09257360
				31.32895000 -12.67243000 -6.06301400 / -0.25615470 -0.96663590 -0.00004770 / 255 0 0 255 / 1.12673400 -0.09257360
				31.32895000 -12.67243000 -6.06301400 / -0.25615470 -0.96663590 -0.00004770 / 255 0 0 255 / 1.12673400 -0.09257360
				31.32895000 -12.67243000 -6.06301400 / -0.25615470 -0.96663590 -0.00004770 / 255 0 0 255 / -0.00453950 -0.07690370
				31.32895000 -12.67243000 -6.06301400 / -0.25615470 -0.96663590 -0.00004770 / 255 0 0 255 / -0.00453950 -0.07690370
				31.32895000 -12.67243000 -6.06301400 / -0.25615470 -0.96663590 -0.00004770 / 255 0 0 255 / -0.00453950 -0.07690370
				31.07006000 -12.22961000 -6.13365700 / -0.79095630 0.21075640 -0.57443030 / 155 255 155 255 / 1.10160500 -0.04546210
				31.07006000 -12.22961000 -6.13365700 / -0.79095630 0.21075640 -0.57443030 / 155 255 155 255 / 1.02049400 -0.04597450
				31.07006000 -12.22961000 -6.13365700 / -0.79095630 0.21075640 -0.57443030 / 155 255 155 255 / -0.10160490 -0.22141890
				31.07006000 -12.22961000 -6.13365700 / -0.79095630 0.21075640 -0.57443030 / 155 255 155 255 / -0.10160490 -0.22141890
				31.32895000 -12.67242000 -6.13776700 / -0.20981470 -0.78699590 -0.58018540 / 255 0 0 255 / 1.12673400 -0.04546210
				31.32895000 -12.67242000 -6.13776700 / -0.20981470 -0.78699590 -0.58018540 / 255 0 0 255 / 1.12673400 -0.04546210
				8.47809200 33.57998000 -6.02282900 / 0.18370420 -0.93893280 0.29096040 / 155 255 155 255 / 0.89212390 -0.07963750
				31.32895000 -12.67242000 -6.13776700 / -0.20981470 -0.78699590 -0.58018540 / 255 0 0 255 / -0.12673430 -0.22141890
				31.32895000 -12.67242000 -6.13776700 / -0.20981470 -0.78699590 -0.58018540 / 255 0 0 255 / -0.00453950 -0.05036680
				-4.37465300 -33.20035000 -6.05454700 / 0.96627910 -0.25749640 -0.00052450 / 255 0 0 255 / -0.12673430 -0.09257360
				-4.37465300 -33.20035000 -6.05454700 / 0.96627910 -0.25749640 -0.00052450 / 255 0 0 255 / 1.01351600 -0.08695110
				-4.37465300 -33.20035000 -6.05454700 / 0.96627910 -0.25749640 -0.00052450 / 255 0 0 255 / 1.01351600 -0.08695110
				-4.37465300 -33.20035000 -6.05454700 / 0.96627910 -0.25749640 -0.00052450 / 255 0 0 255 / 1.01351600 -0.08695110
				-4.37465300 -33.20035000 -6.05454700 / 0.96627910 -0.25749640 -0.00052450 / 255 0 0 255 / 1.01351600 -0.08695110
				-4.37465300 -33.20035000 -6.05454700 / 0.96627910 -0.25749640 -0.00052450 / 255 0 0 255 / -0.12673430 -0.09257360
				-4.37465300 -33.20035000 -6.05454700 / 0.96627910 -0.25749640 -0.00052450 / 255 0 0 255 / -0.12673430 -0.09257360
				31.10710000 -12.20822000 -6.13366300 / -0.35514140 0.61482190 -0.70417940 / 155 255 155 255 / -0.10160490 -0.23818970
				31.10710000 -12.20822000 -6.13366300 / -0.35514140 0.61482190 -0.70417940 / 155 255 155 255 / -0.10160490 -0.23818970
				31.10710000 -12.20822000 -6.13366300 / -0.35514140 0.61482190 -0.70417940 / 155 255 155 255 / -0.10160490 -0.23818970
				31.10710000 -12.20822000 -6.13366300 / -0.35514140 0.61482190 -0.70417940 / 155 255 155 255 / 0.99346890 -0.04597210
				31.10710000 -12.20822000 -6.13366300 / -0.35514140 0.61482190 -0.70417940 / 155 255 155 255 / 0.99346890 -0.04597210
				31.10710000 -12.20822000 -6.13366300 / -0.35514140 0.61482190 -0.70417940 / 155 255 155 255 / 0.99346890 -0.04597210
				8.47809200 33.57998000 -6.02282900 / 0.18370420 -0.93893280 0.29096040 / 155 255 155 255 / 0.89212390 -0.07963750
				-5.87030400 -33.72095000 -6.11736900 / -0.35505490 0.61111800 -0.70743960 / 155 255 155 255 / -0.10160490 -0.23818970
				-5.87030400 -33.72095000 -6.11736900 / -0.35505490 0.61111800 -0.70743960 / 155 255 155 255 / 0.97831680 -0.05634750
				-5.87030400 -33.72095000 -6.11736900 / -0.35505490 0.61111800 -0.70743960 / 155 255 155 255 / -0.95098700 0.05626350
				-5.87030400 -33.72095000 -6.11736900 / -0.35505490 0.61111800 -0.70743960 / 155 255 155 255 / 0.97831680 -0.05634750
				-5.87030400 -33.72095000 -6.11736900 / -0.35505490 0.61111800 -0.70743960 / 155 255 155 255 / -0.10160490 -0.23818970
				-5.87030400 -33.72095000 -6.11736900 / -0.35505490 0.61111800 -0.70743960 / 155 255 155 255 / -0.10160490 -0.23818970
				-4.50883900 -33.27942000 -3.75923900 / -0.00400540 0.00686640 -0.99996840 / 255 0 0 255 / -0.12684460 -0.70340160
				-4.50883900 -33.27942000 -3.75923900 / -0.00400540 0.00686640 -0.99996840 / 255 0 0 255 / -0.12684460 -0.70340160
				31.42112000 -12.61921000 -6.13777900 / 0.35210250 -0.60988490 -0.70997480 / 255 0 0 255 / -0.12673430 -0.23818970
				31.42112000 -12.61921000 -6.13777900 / 0.35210250 -0.60988490 -0.70997480 / 255 0 0 255 / -0.12673430 -0.23818970
				31.42112000 -12.61921000 -6.13777900 / 0.35210250 -0.60988490 -0.70997480 / 255 0 0 255 / -0.12673430 -0.23818970
				31.42112000 -12.61921000 -6.13777900 / 0.35210250 -0.60988490 -0.70997480 / 255 0 0 255 / 0.06317520 -0.05036250
				31.42112000 -12.61921000 -6.13777900 / 0.35210250 -0.60988490 -0.70997480 / 255 0 0 255 / 0.06317520 -0.05036250
				8.31965600 33.85440000 -3.71602100 / -0.70880260 0.64433140 -0.28711660 / 255 0 0 255 / 1.10160500 -0.89678690
				31.42112000 -12.61921000 -6.13777900 / 0.35210250 -0.60988490 -0.70997480 / 255 0 0 255 / 0.06317520 -0.05036250
				32.70244000 -11.87945000 -6.06301400 / 0.96663590 -0.25615470 -0.00004770 / 255 0 0 255 / -0.12673430 -0.09257360
				32.70244000 -11.87945000 -6.06301400 / 0.96663590 -0.25615470 -0.00004770 / 255 0 0 255 / -0.12673430 -0.09257360
				32.70244000 -11.87945000 -6.06301400 / 0.96663590 -0.25615470 -0.00004770 / 255 0 0 255 / 1.00454100 -0.07690370
				32.70244000 -11.87945000 -6.06301400 / 0.96663590 -0.25615470 -0.00004770 / 255 0 0 255 / 1.00454100 -0.07690370
				32.70244000 -11.87945000 -6.06301400 / 0.96663590 -0.25615470 -0.00004770 / 255 0 0 255 / 1.00454100 -0.07690370
				32.70244000 -11.87945000 -6.06301400 / 0.96663590 -0.25615470 -0.00004770 / 255 0 0 255 / 1.00454100 -0.07690370
				32.70244000 -11.87945000 -6.06301400 / 0.96663590 -0.25615470 -0.00004770 / 255 0 0 255 / -0.12673430 -0.09257360
				32.70243000 -11.87945000 -6.13778700 / 0.78805860 -0.20769500 -0.57950530 / 255 0 0 255 / -0.12673430 -0.76446390
				32.70243000 -11.87945000 -6.13778700 / 0.78805860 -0.20769500 -0.57950530 / 255 0 0 255 / -0.12673430 -0.76446390
				32.70243000 -11.87945000 -6.13778700 / 0.78805860 -0.20769500 -0.57950530 / 255 0 0 255 / -0.12673430 -0.04545450
				32.70243000 -11.87945000 -6.13778700 / 0.78805860 -0.20769500 -0.57950530 / 255 0 0 255 / 1.00453600 -0.05035960
				32.70244000 -11.87945000 -3.60457700 / 0.78933860 -0.20925680 0.57719670 / 255 0 0 255 / 0.25671770 -0.60102180
				32.70244000 -11.87945000 -3.60457700 / 0.78933860 -0.20925680 0.57719670 / 255 0 0 255 / 0.25671770 -0.60102180
				32.70244000 -11.87945000 -3.60457700 / 0.78933860 -0.20925680 0.57719670 / 255 0 0 255 / 1.00454100 -0.94964020
				8.31965600 33.85440000 -3.71602100 / -0.70880260 0.64433140 -0.28711660 / 255 0 0 255 / -0.10160490 -0.70340160
				32.70244000 -11.87945000 -3.60457700 / 0.78933860 -0.20925680 0.57719670 / 255 0 0 255 / 1.12673400 -0.76446390
				32.70244000 -11.87945000 -3.60457700 / 0.78933860 -0.20925680 0.57719670 / 255 0 0 255 / 1.00454100 -0.94964020
				32.70244000 -11.87945000 -3.60457700 / 0.78933860 -0.20925680 0.57719670 / 255 0 0 255 / 1.00454100 -0.94964020
				31.32895000 -12.67243000 -3.75539400 / -0.25615470 -0.96663590 0.00000000 / 255 0 0 255 / -0.00453950 -0.89610080
				31.32895000 -12.67243000 -3.75539400 / -0.25615470 -0.96663590 0.00000000 / 255 0 0 255 / 1.12673400 -0.89678690
				31.32895000 -12.67243000 -3.75539400 / -0.25615470 -0.96663590 0.00000000 / 255 0 0 255 / -0.00453950 -0.89610080
				31.32895000 -12.67243000 -3.75539400 / -0.25615470 -0.96663590 0.00000000 / 255 0 0 255 / -0.00453950 -0.89610080
				31.32895000 -12.67243000 -3.75539400 / -0.25615470 -0.96663590 0.00000000 / 255 0 0 255 / 0.74328230 -0.41502950
				31.32895000 -12.67243000 -3.75539400 / -0.25615470 -0.96663590 0.00000000 / 255 0 0 255 / 0.74328230 -0.41502950
				8.47849300 33.57928000 -3.71849100 / -0.00391000 0.00686640 -0.99996890 / 155 255 155 255 / -0.12684460 -0.70340160
				8.47849300 33.57928000 -3.71849100 / -0.00391000 0.00686640 -0.99996890 / 155 255 155 255 / -0.12684460 -0.70340160
				31.47606000 -12.58750000 -3.75539400 / 0.71337540 -0.63192860 -0.30292230 / 255 0 0 255 / -0.12673430 -0.28362940
				31.47606000 -12.58750000 -3.75539400 / 0.71337540 -0.63192860 -0.30292230 / 255 0 0 255 / -0.12673430 -0.89678690
				31.47606000 -12.58750000 -3.75539400 / 0.71337540 -0.63192860 -0.30292230 / 255 0 0 255 / -0.12673430 -0.89678690
				31.47606000 -12.58750000 -3.75539400 / 0.71337540 -0.63192860 -0.30292230 / 255 0 0 255 / 0.10354040 -0.89610080
				8.31965600 33.85440000 -3.71602100 / -0.70880260 0.64433140 -0.28711660 / 255 0 0 255 / 0.11513140 -0.89705840
				8.31965600 33.85440000 -3.71602100 / -0.70880260 0.64433140 -0.28711660 / 255 0 0 255 / 0.11513140 -0.89705840
				31.47606000 -12.58750000 -3.75539400 / 0.71337540 -0.63192860 -0.30292230 / 255 0 0 255 / 0.10354040 -0.89610080
				31.47606000 -12.58750000 -3.75539400 / 0.71337540 -0.63192860 -0.30292230 / 255 0 0 255 / 0.10354040 -0.89610080
				31.47606000 -12.58750000 -3.75539400 / 0.71337540 -0.63192860 -0.30292230 / 255 0 0 255 / 0.10354040 -0.89610080
				-4.37464900 -33.20034000 -3.75628600 / 0.96597490 -0.25863600 0.00000000 / 255 0 0 255 / -0.12673430 -0.89696570
				-4.37464900 -33.20034000 -3.75628600 / 0.96597490 -0.25863600 0.00000000 / 255 0 0 255 / -0.12673430 -0.89696570
				-4.37464900 -33.20034000 -3.75628600 / 0.96597490 -0.25863600 0.00000000 / 255 0 0 255 / 0.25671770 -0.41560550
				-4.37464900 -33.20034000 -3.75628600 / 0.96597490 -0.25863600 0.00000000 / 255 0 0 255 / 1.01351900 -0.90009110
				-4.37464900 -33.20034000 -3.75628600 / 0.96597490 -0.25863600 0.00000000 / 255 0 0 255 / 1.01351900 -0.90009110
				32.66609000 -11.90043000 -6.13778000 / 0.35209390 -0.60996550 -0.70990980 / 255 0 0 255 / -0.12673430 -0.74800680
				32.66609000 -11.90043000 -6.13778000 / 0.35209390 -0.60996550 -0.70990980 / 255 0 0 255 / -0.12673430 -0.74800680
				32.66609000 -11.90043000 -6.13778000 / 0.35209390 -0.60996550 -0.70990980 / 255 0 0 255 / 0.97783470 -0.05036200
				32.66609000 -11.90043000 -6.13778000 / 0.35209390 -0.60996550 -0.70990980 / 255 0 0 255 / 0.97783470 -0.05036200
				32.66609000 -11.90043000 -6.13778000 / 0.35209390 -0.60996550 -0.70990980 / 255 0 0 255 / 0.97783470 -0.05036200
				32.66609000 -11.90043000 -6.13778000 / 0.35209390 -0.60996550 -0.70990980 / 255 0 0 255 / 0.97783470 -0.05036200
				8.67265700 33.68591000 -3.53857600 / 0.78876290 -0.21819480 0.57466880 / 155 255 155 255 / 1.12673400 -0.76446390
				8.31965600 33.85440000 -3.71602100 / -0.70880260 0.64433140 -0.28711660 / 255 0 0 255 / 1.10160500 -0.89678690
				32.66609000 -11.90043000 -6.13778000 / 0.35209390 -0.60996550 -0.70990980 / 255 0 0 255 / -0.12673430 -0.74800680
				7.15034800 33.17856000 -3.71602100 / -0.96638360 0.25710470 0.00000000 / 255 0 0 255 / 1.10160500 -0.89678690
				7.15034800 33.17856000 -3.71602100 / -0.96638360 0.25710470 0.00000000 / 255 0 0 255 / 1.10160500 -0.89678690
				7.15034800 33.17856000 -3.71602100 / -0.96638360 0.25710470 0.00000000 / 255 0 0 255 / 1.03879300 -0.89705840
				7.15034800 33.17856000 -3.71602100 / -0.96638360 0.25710470 0.00000000 / 255 0 0 255 / 1.03879300 -0.89705840
				7.15034800 33.17856000 -3.71602100 / -0.96638360 0.25710470 0.00000000 / 255 0 0 255 / 1.03879300 -0.89705840
				7.15034800 33.17856000 -3.71602100 / -0.96638360 0.25710470 0.00000000 / 255 0 0 255 / 0.73352910 -0.41502950
				32.44355000 -11.43663000 -6.13367900 / 0.20828230 0.79097680 -0.57530360 / 155 255 155 255 / -0.10160490 -0.04545450
				32.44355000 -11.43663000 -6.13367900 / 0.20828230 0.79097680 -0.57530360 / 155 255 155 255 / -0.10160490 -0.04545450
				32.44355000 -11.43663000 -6.13367900 / 0.20828230 0.79097680 -0.57530360 / 155 255 155 255 / -0.10160490 -0.76446390
				32.44355000 -11.43663000 -6.13367900 / 0.20828230 0.79097680 -0.57530360 / 155 255 155 255 / 0.01839140 -0.04596650
				-4.50923400 -33.27874000 -6.05454900 / 0.21189300 -0.92729400 0.30858940 / 255 0 0 255 / 1.12673400 -0.09257360
				-4.50923400 -33.27874000 -6.05454900 / 0.21189300 -0.92729400 0.30858940 / 255 0 0 255 / 1.12673400 -0.09257360
				-4.50923400 -33.27874000 -6.05454900 / 0.21189300 -0.92729400 0.30858940 / 255 0 0 255 / 1.12673400 -0.70340530
				8.31965600 33.85440000 -3.71602100 / -0.70880260 0.64433140 -0.28711660 / 255 0 0 255 / 0.11513140 -0.89705840
				-4.50923400 -33.27874000 -6.05454900 / 0.21189300 -0.92729400 0.30858940 / 255 0 0 255 / 0.91296050 -0.08695010
				-4.50923400 -33.27874000 -6.05454900 / 0.21189300 -0.92729400 0.30858940 / 255 0 0 255 / 0.91296050 -0.08695010
				-4.50923400 -33.27874000 -6.05454900 / 0.21189300 -0.92729400 0.30858940 / 255 0 0 255 / 0.91296050 -0.08695010
				32.57622000 -11.95369000 -6.05087000 / -0.86638250 -0.49938110 0.00000000 / 255 0 0 255 / 1.12654600 -0.09700500
				8.47816900 33.93884000 -6.11791700 / -0.34266660 0.61151620 -0.71318130 / 255 0 0 255 / -0.01008180 -0.03959770
				8.47816900 33.93884000 -6.11791700 / -0.34266660 0.61151620 -0.71318130 / 255 0 0 255 / -0.01008180 -0.03959770
				8.47816900 33.93884000 -6.11791700 / -0.34266660 0.61151620 -0.71318130 / 255 0 0 255 / -0.01008180 -0.03959770
				8.47816900 33.93884000 -6.11791700 / -0.34266660 0.61151620 -0.71318130 / 255 0 0 255 / -0.10160490 -0.74800680
				8.47816900 33.93884000 -6.11791700 / -0.34266660 0.61151620 -0.71318130 / 255 0 0 255 / -0.10160490 -0.74800680
				8.47816900 33.93884000 -6.11791700 / -0.34266660 0.61151620 -0.71318130 / 255 0 0 255 / -0.10160490 -0.74800680
				8.47816900 33.93884000 -6.11791700 / -0.34266660 0.61151620 -0.71318130 / 255 0 0 255 / -0.01008180 -0.03959770
				7.30848700 32.90466000 -3.53857600 / -0.21144560 -0.78893920 0.57694520 / 155 255 155 255 / 1.12673400 -0.22141890
				8.31965600 33.85440000 -3.71602100 / -0.70880260 0.64433140 -0.28711660 / 255 0 0 255 / 0.11513140 -0.89705840
				7.30848700 32.90466000 -3.53857600 / -0.21144560 -0.78893920 0.57694520 / 155 255 155 255 / 1.12673400 -0.22141890
				7.30848700 32.90466000 -3.53857600 / -0.21144560 -0.78893920 0.57694520 / 155 255 155 255 / -0.03182290 -0.95382600
				7.30848700 32.90466000 -3.53857600 / -0.21144560 -0.78893920 0.57694520 / 155 255 155 255 / -0.03182290 -0.95382600
				7.30848700 32.90466000 -3.53857600 / -0.21144560 -0.78893920 0.57694520 / 155 255 155 255 / 0.74328230 -0.60102180
				7.30848700 32.90466000 -3.71602100 / -0.25714020 -0.96637400 0.00000000 / 155 255 155 255 / 1.12673400 -0.89678690
				7.30848700 32.90466000 -3.71602100 / -0.25714020 -0.96637400 0.00000000 / 155 255 155 255 / -0.03182290 -0.89138450
				7.30848700 32.90466000 -3.71602100 / -0.25714020 -0.96637400 0.00000000 / 155 255 155 255 / -0.03182290 -0.89138450
				7.30848700 32.90466000 -3.71602100 / -0.25714020 -0.96637400 0.00000000 / 155 255 155 255 / -0.03182290 -0.89138450
				7.30848700 32.90466000 -3.71602100 / -0.25714020 -0.96637400 0.00000000 / 155 255 155 255 / 0.74328230 -0.41502950
				7.30848700 32.90466000 -3.71602100 / -0.25714020 -0.96637400 0.00000000 / 155 255 155 255 / 0.74328230 -0.41502950
				-4.37465300 -33.20035000 -3.62856700 / 0.78973440 -0.20904450 0.57673210 / 255 0 0 255 / 0.25671770 -0.60102180
				-4.37465300 -33.20035000 -3.62856700 / 0.78973440 -0.20904450 0.57673210 / 255 0 0 255 / 0.25671770 -0.60102180
				-4.37465300 -33.20035000 -3.62856700 / 0.78973440 -0.20904450 0.57673210 / 255 0 0 255 / 1.12673400 -0.76446390
				8.31965600 33.85440000 -6.01377100 / -0.71768920 0.63930210 0.27607100 / 255 0 0 255 / 1.10160500 -0.70340530
				8.31965600 33.85440000 -6.01377100 / -0.71768920 0.63930210 0.27607100 / 255 0 0 255 / 1.10160500 -0.70340530
				-4.37465300 -33.20035000 -3.62856700 / 0.78973440 -0.20904450 0.57673210 / 255 0 0 255 / 1.01351600 -0.94527880
				-4.37465300 -33.20035000 -3.62856700 / 0.78973440 -0.20904450 0.57673210 / 255 0 0 255 / 1.01351600 -0.94527880
				-4.37465300 -33.20035000 -3.62856700 / 0.78973440 -0.20904450 0.57673210 / 255 0 0 255 / 1.01351600 -0.94527880
				7.45674100 32.98937000 -3.71848200 / -0.00386240 0.00686640 -0.99996900 / 155 255 155 255 / -0.12684460 -0.28203390
				-5.62237300 -33.94301000 -6.05455100 / 0.71239750 -0.64087170 0.28596040 / 255 0 0 255 / 1.12673400 -0.28362940
				-5.62237300 -33.94301000 -6.05455100 / 0.71239750 -0.64087170 0.28596040 / 255 0 0 255 / 1.12673400 -0.28362940
				-5.62237300 -33.94301000 -6.05455100 / 0.71239750 -0.64087170 0.28596040 / 255 0 0 255 / -0.12673430 -0.09257360
				-5.62237300 -33.94301000 -6.05455100 / 0.71239750 -0.64087170 0.28596040 / 255 0 0 255 / 0.08125070 -0.08694970
				-5.62237300 -33.94301000 -6.05455100 / 0.71239750 -0.64087170 0.28596040 / 255 0 0 255 / 0.08125070 -0.08694970
				-5.62237300 -33.94301000 -6.05455100 / 0.71239750 -0.64087170 0.28596040 / 255 0 0 255 / 0.08125070 -0.08694970
				-5.62237300 -33.94301000 -6.05455100 / 0.71239750 -0.64087170 0.28596040 / 255 0 0 255 / 0.08125070 -0.08694970
				-5.62237300 -33.94301000 -6.05455100 / 0.71239750 -0.64087170 0.28596040 / 255 0 0 255 / 0.08125070 -0.08694970
				32.44355000 -11.43662000 -6.06898600 / 0.25635650 0.96658230 -0.00004770 / 155 255 155 255 / -0.10160490 -0.09257360
				8.31965600 33.85440000 -6.01377100 / -0.71768920 0.63930210 0.27607100 / 255 0 0 255 / 0.11513140 -0.07677720
				32.44355000 -11.43662000 -6.06898600 / 0.25635650 0.96658230 -0.00004770 / 155 255 155 255 / 0.01839140 -0.06884790
				32.44355000 -11.43662000 -6.06898600 / 0.25635650 0.96658230 -0.00004770 / 155 255 155 255 / 0.01839140 -0.06884790
				32.44355000 -11.43662000 -6.06898600 / 0.25635650 0.96658230 -0.00004770 / 155 255 155 255 / 0.01839140 -0.06884790
				32.44355000 -11.43662000 -6.06898600 / 0.25635650 0.96658230 -0.00004770 / 155 255 155 255 / 0.01839140 -0.06884790
				32.44355000 -11.43662000 -6.06898600 / 0.25635650 0.96658230 -0.00004770 / 155 255 155 255 / -0.10160490 -0.09257360
				32.44355000 -11.43662000 -6.06898600 / 0.25635650 0.96658230 -0.00004770 / 155 255 155 255 / -0.10160490 -0.09257360
				-5.62519800 -33.94625000 -3.75923300 / -0.00395770 0.00648500 -0.99997120 / 255 0 0 255 / -0.12684460 -0.28203390
				32.57563000 -11.95266000 -6.06301400 / 0.47723840 -0.82095690 0.31348580 / 255 0 0 255 / 1.12673400 -0.70340530
				32.57563000 -11.95266000 -6.06301400 / 0.47723840 -0.82095690 0.31348580 / 255 0 0 255 / 0.91137700 -0.07690370
				32.57563000 -11.95266000 -6.06301400 / 0.47723840 -0.82095690 0.31348580 / 255 0 0 255 / 0.91137700 -0.07690370
				32.57563000 -11.95266000 -6.06301400 / 0.47723840 -0.82095690 0.31348580 / 255 0 0 255 / 0.91137700 -0.07690370
				7.18738900 33.19994000 -6.11791600 / -0.35366750 0.61149140 -0.70781180 / 255 0 0 255 / -0.10160490 -0.23818970
				7.18738900 33.19994000 -6.11791600 / -0.35366750 0.61149140 -0.70781180 / 255 0 0 255 / 1.00953400 -0.03959800
				8.31965600 33.85440000 -6.01377100 / -0.71768920 0.63930210 0.27607100 / 255 0 0 255 / 1.10160500 -0.09257360
				7.18738900 33.19994000 -6.11791600 / -0.35366750 0.61149140 -0.70781180 / 255 0 0 255 / -0.10160490 -0.23818970
				7.18738900 33.19994000 -6.11791600 / -0.35366750 0.61149140 -0.70781180 / 255 0 0 255 / 1.00953400 -0.03959800
				7.18738900 33.19994000 -6.11791600 / -0.35366750 0.61149140 -0.70781180 / 255 0 0 255 / 1.00953400 -0.03959800
				7.18738900 33.19994000 -6.11791600 / -0.35366750 0.61149140 -0.70781180 / 255 0 0 255 / -0.10160490 -0.23818970
				8.51451600 33.95982000 -3.53857600 / 0.21716140 0.78510000 0.58005080 / 255 0 0 255 / 1.10160500 -0.76446390
				8.51451600 33.95982000 -3.53857600 / 0.21716140 0.78510000 0.58005080 / 255 0 0 255 / 1.10160500 -0.76446390
				8.51451600 33.95982000 -3.53857600 / 0.21716140 0.78510000 0.58005080 / 255 0 0 255 / 0.26647090 -0.60102180
				8.51451600 33.95982000 -3.53857600 / 0.21716140 0.78510000 0.58005080 / 255 0 0 255 / -0.03879210 -0.96040510
				8.51451600 33.95982000 -3.53857600 / 0.21716140 0.78510000 0.58005080 / 255 0 0 255 / -0.03879210 -0.96040510
				8.51451600 33.95982000 -3.53857600 / 0.21716140 0.78510000 0.58005080 / 255 0 0 255 / -0.03879210 -0.96040510
				8.51451600 33.95982000 -6.04581200 / 0.26963850 0.96295370 -0.00391060 / 255 0 0 255 / -0.10160490 -0.09257360
				8.51451600 33.95982000 -6.04581200 / 0.26963850 0.96295370 -0.00391060 / 255 0 0 255 / -0.10160490 -0.09257360
				8.51451600 33.95982000 -6.04581200 / 0.26963850 0.96295370 -0.00391060 / 255 0 0 255 / -0.10160490 -0.09257360
				8.31965600 33.85440000 -6.01377100 / -0.71768920 0.63930210 0.27607100 / 255 0 0 255 / 1.10160500 -0.09257360
				8.51451600 33.95982000 -6.04581200 / 0.26963850 0.96295370 -0.00391060 / 255 0 0 255 / -0.03879210 -0.06533860
				8.51451600 33.95982000 -6.04581200 / 0.26963850 0.96295370 -0.00391060 / 255 0 0 255 / -0.03879210 -0.06533860
				8.51451600 33.95982000 -6.04581200 / 0.26963850 0.96295370 -0.00391060 / 255 0 0 255 / -0.03879210 -0.06533860
				8.51451600 33.95982000 -6.04581200 / 0.26963850 0.96295370 -0.00391060 / 255 0 0 255 / -0.03879210 -0.06533860
				8.47380100 33.58741000 -6.02282900 / -0.86595690 -0.50011870 0.00000000 / 155 255 155 255 / 1.12609900 -0.09257360
				8.47380100 33.58741000 -6.02282900 / -0.86595690 -0.50011870 0.00000000 / 155 255 155 255 / 1.12609900 -0.09257360
				8.51451700 33.95982000 -6.11792500 / 0.21135120 0.78856130 -0.57749610 / 255 0 0 255 / -0.03879310 -0.03959490
				8.51451700 33.95982000 -6.11792500 / 0.21135120 0.78856130 -0.57749610 / 255 0 0 255 / -0.10160490 -0.04545450
				8.51451700 33.95982000 -6.11792500 / 0.21135120 0.78856130 -0.57749610 / 255 0 0 255 / -0.10160490 -0.04545450
				8.51451700 33.95982000 -6.11792500 / 0.21135120 0.78856130 -0.57749610 / 255 0 0 255 / -0.10160490 -0.76446390
				32.31675000 -11.50984000 -3.75539400 / 0.00000000 0.00000000 -1.00000000 / 155 255 155 255 / -0.10160490 -0.70340160
				32.31675000 -11.50984000 -3.75539400 / -0.71329610 0.63223960 -0.30245940 / 155 255 155 255 / 0.11090460 -0.88714370
				32.31675000 -11.50984000 -3.75539400 / -0.71329610 0.63223960 -0.30245940 / 155 255 155 255 / 0.11090460 -0.88714370
				32.31675000 -11.50984000 -3.75539400 / -0.71329610 0.63223960 -0.30245940 / 155 255 155 255 / 1.10160500 -0.89678690
				32.31675000 -11.50984000 -3.75539400 / -0.71329610 0.63223960 -0.30245940 / 155 255 155 255 / 1.10160500 -0.89678690
				32.31675000 -11.50984000 -3.75539400 / -0.71329610 0.63223960 -0.30245940 / 155 255 155 255 / 0.11090460 -0.88714370
				32.31675000 -11.50984000 -3.75539400 / -0.71329610 0.63223960 -0.30245940 / 155 255 155 255 / 0.11090460 -0.88714370
				8.31965600 33.85440000 -6.01377100 / -0.71768920 0.63930210 0.27607100 / 255 0 0 255 / 0.11513140 -0.07677720
				32.31675000 -11.50984000 -3.75539400 / -0.71329610 0.63223960 -0.30245940 / 155 255 155 255 / -0.10160490 -0.70340160
				32.57563000 -11.95266000 -3.75539400 / 0.47453250 -0.82184910 -0.31525040 / 255 0 0 255 / -0.12673430 -0.70340160
				32.57563000 -11.95266000 -3.75539400 / 0.47453250 -0.82184910 -0.31525040 / 255 0 0 255 / -0.12673430 -0.70340160
				32.57563000 -11.95266000 -3.75539400 / 0.47453250 -0.82184910 -0.31525040 / 255 0 0 255 / 0.91137700 -0.89610080
				32.57563000 -11.95266000 -3.75539400 / 0.47453250 -0.82184910 -0.31525040 / 255 0 0 255 / 0.91137700 -0.89610080
				32.57563000 -11.95266000 -3.75539400 / 0.47453250 -0.82184910 -0.31525040 / 255 0 0 255 / 0.91137700 -0.89610080
				32.57563000 -11.95266000 -3.75539400 / 0.47453250 -0.82184910 -0.31525040 / 255 0 0 255 / 0.91137700 -0.89610080
				32.57618000 -11.95362000 -3.75539400 / -0.86329420 -0.50470100 0.00000000 / 255 0 0 255 / 1.12682200 -0.89678690
				32.70244000 -11.87945000 -3.75491500 / 0.96663590 -0.25615470 0.00000000 / 255 0 0 255 / 0.25671770 -0.41560550
				32.70244000 -11.87945000 -3.75491500 / 0.96663590 -0.25615470 0.00000000 / 255 0 0 255 / 1.00454100 -0.89627080
				32.70244000 -11.87945000 -3.75491500 / 0.96663590 -0.25615470 0.00000000 / 255 0 0 255 / 1.00454100 -0.89627080
				32.70244000 -11.87945000 -3.75491500 / 0.96663590 -0.25615470 0.00000000 / 255 0 0 255 / -0.12673430 -0.89696570
				32.70244000 -11.87945000 -3.75491500 / 0.96663590 -0.25615470 0.00000000 / 255 0 0 255 / -0.12673430 -0.89696570
				7.15034800 33.17856000 -3.53857600 / -0.78831540 0.21133640 0.57783730 / 255 0 0 255 / 1.10160500 -0.22141890
				8.31965600 33.85440000 -6.01377100 / -0.71768920 0.63930210 0.27607100 / 255 0 0 255 / 0.11513140 -0.07677720
				7.15034800 33.17856000 -3.53857600 / -0.78831540 0.21133640 0.57783730 / 255 0 0 255 / 0.73352910 -0.60102180
				7.15034800 33.17856000 -3.53857600 / -0.78831540 0.21133640 0.57783730 / 255 0 0 255 / 0.73352910 -0.60102180
				7.15034800 33.17856000 -3.53857600 / -0.78831540 0.21133640 0.57783730 / 255 0 0 255 / 1.03879300 -0.96040510
				7.15034800 33.17856000 -3.53857600 / -0.78831540 0.21133640 0.57783730 / 255 0 0 255 / 1.03879300 -0.96040510
				-4.56913800 -32.94743000 -6.11736700 / -0.35543720 0.61150080 -0.70691670 / 155 255 155 255 / 0.02117900 -0.05634820
				-4.56913800 -32.94743000 -6.11736700 / -0.35543720 0.61150080 -0.70691670 / 155 255 155 255 / 0.02117900 -0.05634820
				-4.56913800 -32.94743000 -6.11736700 / -0.35543720 0.61150080 -0.70691670 / 155 255 155 255 / 0.02117900 -0.05634820
				-4.56913800 -32.94743000 -6.11736700 / -0.35543720 0.61150080 -0.70691670 / 155 255 155 255 / -0.10160490 -0.74800680
				-4.56913800 -32.94743000 -6.11736700 / -0.35543720 0.61150080 -0.70691670 / 155 255 155 255 / 0.02117900 -0.05634820
				-4.56913800 -32.94743000 -6.11736700 / -0.35543720 0.61150080 -0.70691670 / 155 255 155 255 / -0.10160490 -0.74800680
				-4.56913800 -32.94743000 -6.11736700 / -0.35543720 0.61150080 -0.70691670 / 155 255 155 255 / -0.10160490 -0.74800680
				7.15034800 33.17856000 -6.04581200 / -0.96627910 0.25749640 -0.00052450 / 255 0 0 255 / 1.10160500 -0.09257360
				7.15034800 33.17856000 -6.04581200 / -0.96627910 0.25749640 -0.00052450 / 255 0 0 255 / 1.10160500 -0.09257360
				7.15034800 33.17856000 -6.04581200 / -0.96627910 0.25749640 -0.00052450 / 255 0 0 255 / 1.10160500 -0.09257360
				7.30143900 33.26651000 -6.01377200 / -0.18320340 0.93690270 0.29774130 / 255 0 0 255 / -0.10160490 -0.09257360
				7.15034800 33.17856000 -6.04581200 / -0.96627910 0.25749640 -0.00052450 / 255 0 0 255 / 1.03879300 -0.06533860
				7.15034800 33.17856000 -6.04581200 / -0.96627910 0.25749640 -0.00052450 / 255 0 0 255 / 1.03879300 -0.06533860
				7.15034800 33.17856000 -6.04581200 / -0.96627910 0.25749640 -0.00052450 / 255 0 0 255 / 1.03879300 -0.06533860
				32.44355000 -11.43663000 -3.75491400 / 0.25635650 0.96658230 -0.00002380 / 155 255 155 255 / 0.26647090 -0.41560550
				32.44355000 -11.43663000 -3.75491400 / 0.25635650 0.96658230 -0.00002380 / 155 255 155 255 / 0.26647090 -0.41560550
				32.44355000 -11.43663000 -3.75491400 / 0.25635650 0.96658230 -0.00002380 / 155 255 155 255 / -0.10160490 -0.89696570
				32.44355000 -11.43663000 -3.75491400 / 0.25635650 0.96658230 -0.00002380 / 155 255 155 255 / 0.01839140 -0.88731350
				32.44355000 -11.43663000 -3.75491400 / 0.25635650 0.96658230 -0.00002380 / 155 255 155 255 / 0.01839140 -0.88731350
				7.15034700 33.17856000 -6.11790500 / -0.78873830 0.21133480 -0.57726050 / 255 0 0 255 / -0.10160490 -0.22141890
				7.15034700 33.17856000 -6.11790500 / -0.78873830 0.21133480 -0.57726050 / 255 0 0 255 / -0.10160490 -0.22141890
				7.15034700 33.17856000 -6.11790500 / -0.78873830 0.21133480 -0.57726050 / 255 0 0 255 / 1.03879400 -0.03960180
				7.15034700 33.17856000 -6.11790500 / -0.78873830 0.21133480 -0.57726050 / 255 0 0 255 / 1.10160500 -0.04546210
				7.34552700 32.92604000 -6.11791600 / 0.35480230 -0.61261930 -0.70626690 / 155 255 155 255 / -0.12673430 -0.23818970
				7.34552700 32.92604000 -6.11791600 / 0.35480230 -0.61261930 -0.70626690 / 155 255 155 255 / -0.12673430 -0.23818970
				8.67265700 33.68591000 -3.53857600 / 0.78876290 -0.21819480 0.57466880 / 155 255 155 255 / 1.04582300 -0.95382600
				7.30143900 33.26651000 -6.01377200 / -0.18320340 0.93690270 0.29774130 / 255 0 0 255 / -0.10160490 -0.09257360
				7.34552700 32.92604000 -6.11791600 / 0.35480230 -0.61261930 -0.70626690 / 155 255 155 255 / -0.00256210 -0.04617710
				7.34552700 32.92604000 -6.11791600 / 0.35480230 -0.61261930 -0.70626690 / 155 255 155 255 / -0.00256210 -0.04617710
				7.34552700 32.92604000 -6.11791600 / 0.35480230 -0.61261930 -0.70626690 / 155 255 155 255 / -0.12673430 -0.23818970
				7.34552700 32.92604000 -6.11791600 / 0.35480230 -0.61261930 -0.70626690 / 155 255 155 255 / -0.00256210 -0.04617710
				31.07007000 -12.22961000 -3.60457700 / -0.78945400 0.20923680 0.57704620 / 155 255 155 255 / 0.73352910 -0.60102180
				31.07007000 -12.22961000 -3.60457700 / -0.78945400 0.20923680 0.57704620 / 155 255 155 255 / 0.73352910 -0.60102180
				31.07007000 -12.22961000 -3.60457700 / -0.78945400 0.20923680 0.57704620 / 155 255 155 255 / 1.02048500 -0.94048630
				31.07007000 -12.22961000 -3.60457700 / -0.78945400 0.20923680 0.57704620 / 155 255 155 255 / 1.10160500 -0.22141890
				31.07007000 -12.22961000 -3.60457700 / -0.78945400 0.20923680 0.57704620 / 155 255 155 255 / 1.02048500 -0.94048630
				8.57632800 33.63738000 -6.11791700 / 0.32871940 -0.60842180 -0.72233410 / 155 255 155 255 / -0.12673430 -0.74800680
				8.57632800 33.63738000 -6.11791700 / 0.32871940 -0.60842180 -0.72233410 / 155 255 155 255 / -0.12673430 -0.74800680
				8.57632800 33.63738000 -6.11791700 / 0.32871940 -0.60842180 -0.72233410 / 155 255 155 255 / 0.96972660 -0.04617690
				7.30143900 33.26651000 -6.01377200 / -0.18320340 0.93690270 0.29774130 / 255 0 0 255 / 0.91944360 -0.07677700
				7.30143900 33.26651000 -6.01377200 / -0.18320340 0.93690270 0.29774130 / 255 0 0 255 / 0.91944360 -0.07677700
				8.57632800 33.63738000 -6.11791700 / 0.32871940 -0.60842180 -0.72233410 / 155 255 155 255 / 0.96972660 -0.04617690
				8.57632800 33.63738000 -6.11791700 / 0.32871940 -0.60842180 -0.72233410 / 155 255 155 255 / 0.96972660 -0.04617690
				8.57632800 33.63738000 -6.11791700 / 0.32871940 -0.60842180 -0.72233410 / 155 255 155 255 / 0.96972660 -0.04617690
				8.57632800 33.63738000 -6.11791700 / 0.32871940 -0.60842180 -0.72233410 / 155 255 155 255 / -0.12673430 -0.74800680
				-5.90735200 -33.74233000 -6.11735800 / -0.78877790 0.21133260 -0.57720690 / 155 255 155 255 / 1.10160500 -0.04546210
				-5.90735200 -33.74233000 -6.11735800 / -0.78877790 0.21133260 -0.57720690 / 155 255 155 255 / -0.96020510 0.05625930
				-5.90735200 -33.74233000 -6.11735800 / -0.78877790 0.21133260 -0.57720690 / 155 255 155 255 / -0.10160490 -0.22141890
				-5.90735200 -33.74233000 -6.11735800 / -0.78877790 0.21133260 -0.57720690 / 155 255 155 255 / -0.10160490 -0.22141890
				8.67265700 33.68591000 -6.11792500 / 0.78431070 -0.23422510 -0.57445230 / 155 255 155 255 / -0.12673430 -0.76446390
				8.67265700 33.68591000 -6.11792500 / 0.78431070 -0.23422510 -0.57445230 / 155 255 155 255 / -0.12673430 -0.76446390
				8.67265700 33.68591000 -6.11792500 / 0.78431070 -0.23422510 -0.57445230 / 155 255 155 255 / -0.12673430 -0.04545450
				8.67265700 33.68591000 -6.11792500 / 0.78431070 -0.23422510 -0.57445230 / 155 255 155 255 / 1.04582300 -0.04617400
				-4.66767500 -33.00431000 -3.75676700 / -0.72036390 0.62981180 -0.29053930 / 155 255 155 255 / -0.10160490 -0.70340160
				7.30143900 33.26651000 -6.01377200 / -0.18320340 0.93690270 0.29774130 / 255 0 0 255 / 0.91944360 -0.07677700
				-4.66767500 -33.00431000 -3.75676700 / -0.72036390 0.62981180 -0.29053930 / 155 255 155 255 / 0.09366270 -0.89794980
				-4.66767500 -33.00431000 -3.75676700 / -0.72036390 0.62981180 -0.29053930 / 155 255 155 255 / 0.09366270 -0.89794980
				-4.66767500 -33.00431000 -3.75676700 / -0.72036390 0.62981180 -0.29053930 / 155 255 155 255 / 0.09366270 -0.89794980
				-4.66767500 -33.00431000 -3.75676700 / -0.72036390 0.62981180 -0.29053930 / 155 255 155 255 / 0.09366270 -0.89794980
				-4.66767500 -33.00431000 -3.75676700 / -0.72036390 0.62981180 -0.29053930 / 155 255 155 255 / 1.10160500 -0.89678690
				-4.66767500 -33.00431000 -3.75676700 / -0.72036390 0.62981180 -0.29053930 / 155 255 155 255 / 1.10160500 -0.89678690
				8.51451600 33.95982000 -3.71554200 / 0.27222580 0.96223340 0.00000000 / 255 0 0 255 / 0.26647090 -0.41560550
				8.51451600 33.95982000 -3.71554200 / 0.27222580 0.96223340 0.00000000 / 255 0 0 255 / 0.26647090 -0.41560550
				8.51451600 33.95982000 -3.71554200 / 0.27222580 0.96223340 0.00000000 / 255 0 0 255 / -0.10160490 -0.89696570
				8.51451600 33.95982000 -3.71554200 / 0.27222580 0.96223340 0.00000000 / 255 0 0 255 / -0.03879210 -0.89722930
				8.51451600 33.95982000 -3.71554200 / 0.27222580 0.96223340 0.00000000 / 255 0 0 255 / -0.03879210 -0.89722930
				31.47606000 -12.58750000 -6.05087100 / 0.71582400 -0.62884940 0.30355290 / 255 0 0 255 / 1.12673400 -0.28362940
				31.47606000 -12.58750000 -6.05087100 / 0.71582400 -0.62884940 0.30355290 / 255 0 0 255 / 1.12673400 -0.28362940
				31.47606000 -12.58750000 -6.05087100 / 0.71582400 -0.62884940 0.30355290 / 255 0 0 255 / -0.12673430 -0.09257360
				31.47606000 -12.58750000 -6.05087100 / 0.71582400 -0.62884940 0.30355290 / 255 0 0 255 / 0.10354040 -0.08121451
				7.30143900 33.26651000 -6.01377200 / -0.18320340 0.93690270 0.29774130 / 255 0 0 255 / 0.91944360 -0.07677700
				31.47606000 -12.58750000 -6.05087100 / 0.71582400 -0.62884940 0.30355290 / 255 0 0 255 / 0.10354040 -0.08121451
				31.47606000 -12.58750000 -6.05087100 / 0.71582400 -0.62884940 0.30355290 / 255 0 0 255 / 0.10354040 -0.08121451
				31.47606000 -12.58750000 -6.05087100 / 0.71582400 -0.62884940 0.30355290 / 255 0 0 255 / 0.10354040 -0.08121451
				31.47606000 -12.58750000 -6.05087100 / 0.71582400 -0.62884940 0.30355290 / 255 0 0 255 / 0.10354040 -0.08121451
				-4.37465700 -33.20035000 -6.11737800 / 0.78863700 -0.21133320 -0.57739920 / 255 0 0 255 / -0.12673430 -0.76446390
				-4.37465700 -33.20035000 -6.11737800 / 0.78863700 -0.21133320 -0.57739920 / 255 0 0 255 / -0.12673430 -0.76446390
				-4.37465700 -33.20035000 -6.11737800 / 0.78863700 -0.21133320 -0.57739920 / 255 0 0 255 / -0.12673430 -0.04545450
				-4.37465700 -33.20035000 -6.11737800 / 0.78863700 -0.21133320 -0.57739920 / 255 0 0 255 / 1.01351300 -0.06472090
				7.30143900 33.26652000 -3.71602100 / -0.19214820 0.93451730 -0.29959390 / 255 0 0 255 / -0.10160490 -0.89678690
				7.30143900 33.26652000 -3.71602100 / -0.19214820 0.93451730 -0.29959390 / 255 0 0 255 / 0.91944360 -0.89705840
				7.30143900 33.26652000 -3.71602100 / -0.19214820 0.93451730 -0.29959390 / 255 0 0 255 / 0.91944360 -0.89705840
				7.30143900 33.26652000 -3.71602100 / -0.19214820 0.93451730 -0.29959390 / 255 0 0 255 / 0.91944360 -0.89705840
				7.30143900 33.26652000 -3.71602100 / -0.19214820 0.93451730 -0.29959390 / 255 0 0 255 / 0.91944360 -0.89705840
				7.30143900 33.26652000 -3.71602100 / -0.19214820 0.93451730 -0.29959390 / 255 0 0 255 / -0.10160490 -0.28362940
				7.30143900 33.26652000 -3.71602100 / -0.19214820 0.93451730 -0.29959390 / 255 0 0 255 / -0.10160490 -0.28362940
				7.30143900 33.26651000 -6.01377200 / -0.18320340 0.93690270 0.29774130 / 255 0 0 255 / 0.91944360 -0.07677700
				7.45958000 32.99262000 -6.02282800 / 0.70912360 -0.63707150 0.30213210 / 155 255 155 255 / 1.12673400 -0.28362940
				7.45958000 32.99262000 -6.02282800 / 0.70912360 -0.63707150 0.30213210 / 155 255 155 255 / 1.12673400 -0.28362940
				7.45958000 32.99262000 -6.02282800 / 0.70912360 -0.63707150 0.30213210 / 155 255 155 255 / -0.12673430 -0.09257360
				7.45958000 32.99262000 -6.02282800 / 0.70912360 -0.63707150 0.30213210 / 155 255 155 255 / 0.08753570 -0.07963800
				7.45958000 32.99262000 -6.02282800 / 0.70912360 -0.63707150 0.30213210 / 155 255 155 255 / 0.08753570 -0.07963800
				7.45958000 32.99262000 -6.02282800 / 0.70912360 -0.63707150 0.30213210 / 155 255 155 255 / 0.08753570 -0.07963800
				7.45958000 32.99262000 -6.02282800 / 0.70912360 -0.63707150 0.30213210 / 155 255 155 255 / 0.08753570 -0.07963800
				7.45958000 32.99262000 -6.02282800 / 0.70912360 -0.63707150 0.30213210 / 155 255 155 255 / 0.08753570 -0.07963800
				7.30848700 32.90466000 -6.04581200 / -0.25745190 -0.96629100 0.00052450 / 155 255 155 255 / 1.12673400 -0.09257360
				7.30848700 32.90466000 -6.04581200 / -0.25745190 -0.96629100 0.00052450 / 155 255 155 255 / 1.12673400 -0.09257360
				7.30848700 32.90466000 -6.04581200 / -0.25745190 -0.96629100 0.00052450 / 155 255 155 255 / 1.12673400 -0.09257360
				7.30848700 32.90466000 -6.04581200 / -0.25745190 -0.96629100 0.00052450 / 155 255 155 255 / -0.03182290 -0.07154990
				7.30848700 32.90466000 -6.04581200 / -0.25745190 -0.96629100 0.00052450 / 155 255 155 255 / -0.03182290 -0.07154990
				7.30848700 32.90466000 -6.04581200 / -0.25745190 -0.96629100 0.00052450 / 155 255 155 255 / -0.03182290 -0.07154990
				7.30143900 33.26651000 -6.01377200 / -0.18320340 0.93690270 0.29774130 / 255 0 0 255 / 1.10160500 -0.28362940
				7.30848700 32.90466000 -6.11790500 / -0.21131670 -0.78881400 -0.57716350 / 155 255 155 255 / 1.12673400 -0.04546210
				7.30848700 32.90466000 -6.11790500 / -0.21131670 -0.78881400 -0.57716350 / 155 255 155 255 / 1.12673400 -0.04546210
				7.30848700 32.90466000 -6.11790500 / -0.21131670 -0.78881400 -0.57716350 / 155 255 155 255 / -0.12673430 -0.22141890
				7.30848700 32.90466000 -6.11790500 / -0.21131670 -0.78881400 -0.57716350 / 155 255 155 255 / -0.03182290 -0.04618100
				7.46046500 32.99109000 -3.71602100 / 0.86596880 0.50009800 0.00000000 / 155 255 155 255 / -0.12687490 -0.89678690
				32.57610000 -11.95348000 -4.59552500 / -0.86329420 -0.50470100 0.00000000 / 255 0 0 255 / 1.12680900 -0.62319470
				32.57610000 -11.95348000 -4.59552500 / -0.86329420 -0.50470100 0.00000000 / 255 0 0 255 / 1.12680900 -0.62319470
				32.57610000 -11.95348000 -4.59552500 / -0.86329420 -0.50470100 0.00000000 / 255 0 0 255 / 1.12680900 -0.62319470
				32.57610000 -11.95348000 -4.59552500 / -0.86329420 -0.50470100 0.00000000 / 255 0 0 255 / 1.12680900 -0.62319470
				8.47835100 33.57952000 -3.71602100 / -0.86595690 -0.50011870 0.00000000 / 155 255 155 255 / 1.12682200 -0.89678690
				8.67265700 33.68591000 -6.04581200 / 0.96108520 -0.27617610 -0.00648480 / 155 255 155 255 / -0.12673430 -0.09257360
				8.67265700 33.68591000 -6.04581200 / 0.96108520 -0.27617610 -0.00648480 / 155 255 155 255 / -0.12673430 -0.09257360
				8.67265700 33.68591000 -6.04581200 / 0.96108520 -0.27617610 -0.00648480 / 155 255 155 255 / -0.12673430 -0.09257360
				8.67265700 33.68591000 -6.04581200 / 0.96108520 -0.27617610 -0.00648480 / 155 255 155 255 / 1.04582300 -0.07154990
				8.67265700 33.68591000 -6.04581200 / 0.96108520 -0.27617610 -0.00648480 / 155 255 155 255 / 1.04582300 -0.07154990
				7.46067800 32.99072000 -6.02282900 / 0.86595690 0.50011870 0.00000000 / 155 255 155 255 / -0.12690860 -0.09267870
				8.67265700 33.68591000 -6.04581200 / 0.96108520 -0.27617610 -0.00648480 / 155 255 155 255 / 1.04582300 -0.07154990
				8.67265700 33.68591000 -6.04581200 / 0.96108520 -0.27617610 -0.00648480 / 155 255 155 255 / 1.04582300 -0.07154990
				8.67265700 33.68591000 -3.71554200 / 0.96229750 -0.27199920 0.00000000 / 155 255 155 255 / -0.12673430 -0.89696570
				8.67265700 33.68591000 -3.71554200 / 0.96229750 -0.27199920 0.00000000 / 155 255 155 255 / -0.12673430 -0.89696570
				8.67265700 33.68591000 -3.71554200 / 0.96229750 -0.27199920 0.00000000 / 155 255 155 255 / 0.25671770 -0.41560550
				8.67265700 33.68591000 -3.71554200 / 0.96229750 -0.27199920 0.00000000 / 155 255 155 255 / 1.04582300 -0.89155300
				8.67265700 33.68591000 -3.71554200 / 0.96229750 -0.27199920 0.00000000 / 155 255 155 255 / 1.04582300 -0.89155300
				7.45958000 32.99262000 -3.71602100 / 0.52504750 -0.85106250 -0.00422000 / 155 255 155 255 / -0.12673430 -0.89678690
				7.45958000 32.99262000 -3.71602100 / 0.52504750 -0.85106250 -0.00422000 / 155 255 155 255 / 0.08753570 -0.89138450
				7.45958000 32.99262000 -3.71602100 / 0.52504750 -0.85106250 -0.00422000 / 155 255 155 255 / 0.08753570 -0.89138450
				7.45958000 32.99262000 -3.71602100 / 0.52504750 -0.85106250 -0.00422000 / 155 255 155 255 / 0.08753570 -0.89138450
				7.45958000 32.99262000 -3.71602100 / 0.52504750 -0.85106250 -0.00422000 / 155 255 155 255 / 0.08753570 -0.89138450
				-4.66767500 -33.00431000 -6.03932400 / -0.72898390 0.61950280 0.29120250 / 155 255 155 255 / 1.10160500 -0.09257360
				31.47322000 -12.59074000 -3.75785500 / -0.00247950 0.00410080 -0.99998850 / 255 0 0 255 / -0.12684460 -0.28203390
				8.47779500 33.58049000 -3.71602100 / 0.48845950 -0.87239900 -0.01809550 / 155 255 155 255 / 0.89188890 -0.89138450
				8.47779500 33.58049000 -3.71602100 / 0.48845950 -0.87239900 -0.01809550 / 155 255 155 255 / 0.89188890 -0.89138450
				8.47779500 33.58049000 -3.71602100 / 0.48845950 -0.87239900 -0.01809550 / 155 255 155 255 / 0.89188890 -0.89138450
				8.47779500 33.58049000 -3.71602100 / 0.48845950 -0.87239900 -0.01809550 / 155 255 155 255 / 0.89188890 -0.89138450
				-5.90733700 -33.74233000 -3.62856900 / -0.78965500 0.20904880 0.57683920 / 155 255 155 255 / 1.00555800 -0.94365490
				-5.90733700 -33.74233000 -3.62856900 / -0.78965500 0.20904880 0.57683920 / 155 255 155 255 / 1.10160500 -0.22141890
				-5.90733700 -33.74233000 -3.62856900 / -0.78965500 0.20904880 0.57683920 / 155 255 155 255 / 1.00555800 -0.94365490
				-5.90733700 -33.74233000 -3.62856900 / -0.78965500 0.20904880 0.57683920 / 155 255 155 255 / 0.73352910 -0.60102180
				-5.90733700 -33.74233000 -3.62856900 / -0.78965500 0.20904880 0.57683920 / 155 255 155 255 / 0.73352910 -0.60102180
				31.32895000 -12.67243000 -3.60457700 / -0.20904540 -0.78907020 0.57764050 / 255 0 0 255 / 1.12673400 -0.22141890
				31.32895000 -12.67243000 -3.60457700 / -0.20904540 -0.78907020 0.57764050 / 255 0 0 255 / 1.12673400 -0.22141890
				31.32895000 -12.67243000 -3.60457700 / -0.20904540 -0.78907020 0.57764050 / 255 0 0 255 / -0.00453950 -0.94964020
				-4.66767500 -33.00431000 -6.03932400 / -0.72898390 0.61950280 0.29120250 / 155 255 155 255 / 0.09366270 -0.07874620
				31.32895000 -12.67243000 -3.60457700 / -0.20904540 -0.78907020 0.57764050 / 255 0 0 255 / -0.00453950 -0.94964020
				31.32895000 -12.67243000 -3.60457700 / -0.20904540 -0.78907020 0.57764050 / 255 0 0 255 / 0.74328230 -0.60102180
				-5.78050200 -33.66910000 -6.03933200 / -0.18257420 0.93151480 0.31455790 / 155 255 155 255 / 1.10160500 -0.28362940
				-5.78050200 -33.66910000 -6.03933200 / -0.18257420 0.93151480 0.31455790 / 155 255 155 255 / 0.91225810 -0.07874330
				-5.78050200 -33.66910000 -6.03933200 / -0.18257420 0.93151480 0.31455790 / 155 255 155 255 / 0.91225810 -0.07874330
				-5.78050200 -33.66910000 -6.03933200 / -0.18257420 0.93151480 0.31455790 / 155 255 155 255 / 0.91225810 -0.07874330
				-5.78050200 -33.66910000 -6.03933200 / -0.18257420 0.93151480 0.31455790 / 155 255 155 255 / 0.91225810 -0.07874330
				-5.78050200 -33.66910000 -6.03933200 / -0.18257420 0.93151480 0.31455790 / 155 255 155 255 / 0.91225810 -0.07874330
				-5.78050200 -33.66910000 -6.03933200 / -0.18257420 0.93151480 0.31455790 / 155 255 155 255 / -0.10160490 -0.09257360
				-5.78050200 -33.66910000 -6.03933200 / -0.18257420 0.93151480 0.31455790 / 155 255 155 255 / -0.10160490 -0.09257360
				-5.74920600 -34.01623000 -6.05455100 / -0.25883780 -0.96592090 0.00009540 / 255 0 0 255 / 1.12673400 -0.09257360
				-5.74920600 -34.01623000 -6.05455100 / -0.25883780 -0.96592090 0.00009540 / 255 0 0 255 / 1.12673400 -0.09257360
				-5.74920600 -34.01623000 -6.05455100 / -0.25883780 -0.96592090 0.00009540 / 255 0 0 255 / 1.12673400 -0.09257360
				-4.66767500 -33.00431000 -6.03932400 / -0.72898390 0.61950280 0.29120250 / 155 255 155 255 / 0.09366270 -0.07874620
				-5.74920600 -34.01623000 -6.05455100 / -0.25883780 -0.96592090 0.00009540 / 255 0 0 255 / -0.01351590 -0.08694970
				-5.74920600 -34.01623000 -6.05455100 / -0.25883780 -0.96592090 0.00009540 / 255 0 0 255 / -0.01351590 -0.08694970
				-5.74920600 -34.01623000 -6.05455100 / -0.25883780 -0.96592090 0.00009540 / 255 0 0 255 / -0.01351590 -0.08694970
				8.67265700 33.68591000 -3.53857600 / 0.78876290 -0.21819480 0.57466880 / 155 255 155 255 / 1.04582300 -0.95382600
				8.67265700 33.68591000 -3.53857600 / 0.78876290 -0.21819480 0.57466880 / 155 255 155 255 / 1.04582300 -0.95382600
				-4.66767500 -33.00431000 -6.03932400 / -0.72898390 0.61950280 0.29120250 / 155 255 155 255 / 0.09366270 -0.07874620
				-4.66767500 -33.00431000 -6.03932400 / -0.72898390 0.61950280 0.29120250 / 155 255 155 255 / 1.10160500 -0.70340530
				-4.66767500 -33.00431000 -6.03932400 / -0.72898390 0.61950280 0.29120250 / 155 255 155 255 / 1.10160500 -0.70340530
				32.44355000 -11.43662000 -3.60457700 / 0.20904830 0.78908090 0.57762460 / 155 255 155 255 / 1.10160500 -0.76446390
				32.44355000 -11.43662000 -3.60457700 / 0.20904830 0.78908090 0.57762460 / 155 255 155 255 / 0.26647090 -0.60102180
				32.44355000 -11.43662000 -3.60457700 / 0.20904830 0.78908090 0.57762460 / 155 255 155 255 / 0.01839140 -0.94048630
				32.44355000 -11.43662000 -3.60457700 / 0.20904830 0.78908090 0.57762460 / 155 255 155 255 / 1.10160500 -0.76446390
				32.44355000 -11.43662000 -3.60457700 / 0.20904830 0.78908090 0.57762460 / 155 255 155 255 / 0.01839140 -0.94048630
				32.44355000 -11.43662000 -3.60457700 / 0.20904830 0.78908090 0.57762460 / 155 255 155 255 / 0.01839140 -0.94048630
				-4.53278700 -32.92644000 -6.05454700 / 0.25888230 0.96590890 -0.00004770 / 155 255 155 255 / -0.10160490 -0.09257360
				-4.53278700 -32.92644000 -6.05454700 / 0.25888230 0.96590890 -0.00004770 / 155 255 155 255 / -0.00556110 -0.07874480
				-4.53278700 -32.92644000 -6.05454700 / 0.25888230 0.96590890 -0.00004770 / 155 255 155 255 / -0.00556110 -0.07874480
				-4.53278700 -32.92644000 -6.05454700 / 0.25888230 0.96590890 -0.00004770 / 155 255 155 255 / -0.00556110 -0.07874480
				-4.53278700 -32.92644000 -6.05454700 / 0.25888230 0.96590890 -0.00004770 / 155 255 155 255 / -0.00556110 -0.07874480
				7.46066300 32.99075000 -5.33333100 / 0.86595690 0.50011870 0.00000000 / 155 255 155 255 / -0.12690590 -0.33472540
				-4.53278700 -32.92644000 -6.05454700 / 0.25888230 0.96590890 -0.00004770 / 155 255 155 255 / -0.10160490 -0.09257360
				-4.53278700 -32.92644000 -6.05454700 / 0.25888230 0.96590890 -0.00004770 / 155 255 155 255 / -0.10160490 -0.09257360
				-5.90734100 -33.74233000 -6.05455100 / -0.96587310 0.25901570 0.00004770 / 155 255 155 255 / 1.10160500 -0.09257360
				-5.90734100 -33.74233000 -6.05455100 / -0.96587310 0.25901570 0.00004770 / 155 255 155 255 / 1.00556100 -0.07874330
				-5.90734100 -33.74233000 -6.05455100 / -0.96587310 0.25901570 0.00004770 / 155 255 155 255 / 1.00556100 -0.07874330
				-5.90734100 -33.74233000 -6.05455100 / -0.96587310 0.25901570 0.00004770 / 155 255 155 255 / -0.96020510 -0.00096130
				-5.90734100 -33.74233000 -6.05455100 / -0.96587310 0.25901570 0.00004770 / 155 255 155 255 / 1.10160500 -0.09257360
				-5.90734100 -33.74233000 -6.05455100 / -0.96587310 0.25901570 0.00004770 / 155 255 155 255 / 1.10160500 -0.09257360
				-4.53279100 -32.92645000 -6.11737800 / 0.21129400 0.78852580 -0.57756560 / 155 255 155 255 / -0.10160490 -0.76446390
				-4.53279100 -32.92645000 -6.11737800 / 0.21129400 0.78852580 -0.57756560 / 155 255 155 255 / -0.00555800 -0.05634420
				-4.53279100 -32.92645000 -6.11737800 / 0.21129400 0.78852580 -0.57756560 / 155 255 155 255 / -0.10160490 -0.04545450
				-4.53279100 -32.92645000 -6.11737800 / 0.21129400 0.78852580 -0.57756560 / 155 255 155 255 / -0.10160490 -0.04545450
				-5.74919900 -34.01623000 -3.62856900 / -0.20904520 -0.78887840 0.57790210 / 255 0 0 255 / 0.74328230 -0.60102180
				-5.78050200 -33.66910000 -3.75677300 / -0.19583010 0.93037190 -0.30993320 / 155 255 155 255 / -0.10160490 -0.28362940
				-5.78050200 -33.66910000 -3.75677300 / -0.19583010 0.93037190 -0.30993320 / 155 255 155 255 / -0.10160490 -0.28362940
				-5.74919900 -34.01623000 -3.62856900 / -0.20904520 -0.78887840 0.57790210 / 255 0 0 255 / 1.12673400 -0.22141890
				-5.74919900 -34.01623000 -3.62856900 / -0.20904520 -0.78887840 0.57790210 / 255 0 0 255 / -0.01351070 -0.94527830
				-5.74919900 -34.01623000 -3.62856900 / -0.20904520 -0.78887840 0.57790210 / 255 0 0 255 / 1.12673400 -0.22141890
				-5.74919900 -34.01623000 -3.62856900 / -0.20904520 -0.78887840 0.57790210 / 255 0 0 255 / -0.01351070 -0.94527830
				-5.74919900 -34.01623000 -3.75677300 / -0.25883780 -0.96592090 0.00000000 / 255 0 0 255 / 0.74328230 -0.41502950
				-5.74919900 -34.01623000 -3.75677300 / -0.25883780 -0.96592090 0.00000000 / 255 0 0 255 / 0.74328230 -0.41502950
				-5.74919900 -34.01623000 -3.75677300 / -0.25883780 -0.96592090 0.00000000 / 255 0 0 255 / 1.12673400 -0.89678690
				-5.74919900 -34.01623000 -3.75677300 / -0.25883780 -0.96592090 0.00000000 / 255 0 0 255 / -0.01351070 -0.89991880
				-5.74919900 -34.01623000 -3.75677300 / -0.25883780 -0.96592090 0.00000000 / 255 0 0 255 / -0.01351070 -0.89991880
				-5.74919900 -34.01623000 -3.75677300 / -0.25883780 -0.96592090 0.00000000 / 255 0 0 255 / -0.01351070 -0.89991880
				-5.90733700 -33.74233000 -3.75677300 / -0.96587310 0.25901570 0.00000000 / 155 255 155 255 / 0.73352910 -0.41502950
				-5.90733700 -33.74233000 -3.75677300 / -0.96587310 0.25901570 0.00000000 / 155 255 155 255 / 1.00555800 -0.89794770
				-5.90733700 -33.74233000 -3.75677300 / -0.96587310 0.25901570 0.00000000 / 155 255 155 255 / 1.00555800 -0.89794770
				-5.78050200 -33.66910000 -3.75677300 / -0.19583010 0.93037190 -0.30993320 / 155 255 155 255 / 0.91225810 -0.89794750
				-5.90733700 -33.74233000 -3.75677300 / -0.96587310 0.25901570 0.00000000 / 155 255 155 255 / 1.00555800 -0.89794770
				-5.90733700 -33.74233000 -3.75677300 / -0.96587310 0.25901570 0.00000000 / 155 255 155 255 / 1.10160500 -0.89678690
				-5.90733700 -33.74233000 -3.75677300 / -0.96587310 0.25901570 0.00000000 / 155 255 155 255 / 1.10160500 -0.89678690
				-4.66767500 -33.00431000 -3.75676700 / -0.00400540 0.00686640 -0.99996840 / 155 255 155 255 / -0.10160490 -0.70340160
				-4.53279100 -32.92643000 -3.75629000 / 0.25883780 0.96592090 0.00000000 / 155 255 155 255 / -0.10160490 -0.89696570
				-4.53279100 -32.92643000 -3.75629000 / 0.25883780 0.96592090 0.00000000 / 155 255 155 255 / -0.00555800 -0.89811990
				-4.53279100 -32.92643000 -3.75629000 / 0.25883780 0.96592090 0.00000000 / 155 255 155 255 / -0.00555800 -0.89811990
				-4.53279100 -32.92643000 -3.75629000 / 0.25883780 0.96592090 0.00000000 / 155 255 155 255 / 0.26647090 -0.41560550
				-4.53279100 -32.92643000 -3.75629000 / 0.25883780 0.96592090 0.00000000 / 155 255 155 255 / 0.26647090 -0.41560550
				8.47826800 33.57967000 -4.56035100 / -0.86595690 -0.50011870 0.00000000 / 155 255 155 255 / 1.12680900 -0.62319470
				8.47826800 33.57967000 -4.56035100 / -0.86595690 -0.50011870 0.00000000 / 155 255 155 255 / 1.12680900 -0.62319470
				8.47826800 33.57967000 -4.56035100 / -0.86595690 -0.50011870 0.00000000 / 155 255 155 255 / 1.12680900 -0.62319470
				8.47826800 33.57967000 -4.56035100 / -0.86595690 -0.50011870 0.00000000 / 155 255 155 255 / 1.12680900 -0.62319470
				-5.78050200 -33.66910000 -3.75677300 / -0.19583010 0.93037190 -0.30993320 / 155 255 155 255 / 0.91225810 -0.89794750
				32.57632000 -11.95386000 -3.75786400 / -0.00228880 0.00419610 -0.99998850 / 255 0 0 255 / -0.12684460 -0.70340160
				32.57632000 -11.95386000 -3.75786400 / -0.00228880 0.00419610 -0.99998850 / 255 0 0 255 / -0.12684460 -0.70340160
				-5.74921000 -34.01624000 -6.11735800 / -0.21141360 -0.78881980 -0.57712010 / 255 0 0 255 / 1.12673400 -0.04546210
				-5.74921000 -34.01624000 -6.11735800 / -0.21141360 -0.78881980 -0.57712010 / 255 0 0 255 / 1.12673400 -0.04546210
				-5.74921000 -34.01624000 -6.11735800 / -0.21141360 -0.78881980 -0.57712010 / 255 0 0 255 / -0.12673430 -0.22141890
				-5.74921000 -34.01624000 -6.11735800 / -0.21141360 -0.78881980 -0.57712010 / 255 0 0 255 / -0.01351880 -0.06472811
				7.45558300 32.99954000 -6.02282900 / 0.86595690 0.50011870 0.00000000 / 155 255 155 255 / -0.12609930 -0.09257360
				31.21718000 -12.14467000 -3.75539400 / -0.17051790 0.82874750 -0.53301140 / 155 255 155 255 / -0.10160490 -0.89678690
				31.21718000 -12.14467000 -3.75539400 / -0.17051790 0.82874750 -0.53301140 / 155 255 155 255 / -0.10160490 -0.28362940
				31.21718000 -12.14467000 -3.75539400 / -0.17051790 0.82874750 -0.53301140 / 155 255 155 255 / -0.10160490 -0.28362940
				31.21718000 -12.14467000 -3.75539400 / -0.17051790 0.82874750 -0.53301140 / 155 255 155 255 / 0.91315240 -0.88714360
				31.21718000 -12.14467000 -3.75539400 / -0.17051790 0.82874750 -0.53301140 / 155 255 155 255 / 0.91315240 -0.88714360
				31.21718000 -12.14467000 -3.75539400 / -0.17051790 0.82874750 -0.53301140 / 155 255 155 255 / 0.91315240 -0.88714360
				-5.78050200 -33.66910000 -3.75677300 / -0.19583010 0.93037190 -0.30993320 / 155 255 155 255 / 0.91225810 -0.89794750
				31.21718000 -12.14467000 -3.75539400 / -0.17051790 0.82874750 -0.53301140 / 155 255 155 255 / 0.91315240 -0.88714360
				31.21718000 -12.14467000 -3.75539400 / -0.17051790 0.82874750 -0.53301140 / 155 255 155 255 / -0.10160490 -0.28362940
				31.21718000 -12.14467000 -3.75539400 / -0.17051790 0.82874750 -0.53301140 / 155 255 155 255 / -0.10160490 -0.28362940
				-4.53279100 -32.92643000 -3.62856700 / 0.20871440 0.78889000 0.57800590 / 155 255 155 255 / 0.26647090 -0.60102180
				-4.53279100 -32.92643000 -3.62856700 / 0.20871440 0.78889000 0.57800590 / 155 255 155 255 / -0.00555800 -0.94365570
				-4.53279100 -32.92643000 -3.62856700 / 0.20871440 0.78889000 0.57800590 / 155 255 155 255 / 1.10160500 -0.76446390
				-4.53279100 -32.92643000 -3.62856700 / 0.20871440 0.78889000 0.57800590 / 155 255 155 255 / -0.00555800 -0.94365570
				-4.53279100 -32.92643000 -3.62856700 / 0.20871440 0.78889000 0.57800590 / 155 255 155 255 / -0.00555800 -0.94365570
				-4.53279100 -32.92643000 -3.62856700 / 0.20871440 0.78889000 0.57800590 / 155 255 155 255 / 1.10160500 -0.76446390
				-4.50953300 -33.27823000 -3.75676700 / 0.19693760 -0.92927850 -0.31250140 / 255 0 0 255 / -0.12673430 -0.70340160
				-4.50953300 -33.27823000 -3.75676700 / 0.19693760 -0.92927850 -0.31250140 / 255 0 0 255 / -0.12673430 -0.70340160
				-4.50953300 -33.27823000 -3.75676700 / 0.19693760 -0.92927850 -0.31250140 / 255 0 0 255 / 1.12673400 -0.89678690
				-4.50953300 -33.27823000 -3.75676700 / 0.19693760 -0.92927850 -0.31250140 / 255 0 0 255 / 0.91273700 -0.89992100
				-4.50953300 -33.27823000 -3.75676700 / 0.19693760 -0.92927850 -0.31250140 / 255 0 0 255 / 0.91273700 -0.89992100
			}
		}
	}
}
