Version 165 32
{
	Locked False
	Skinned False
	BoneCount 0
	Mask 255
	Bounds
	{
		Aabb
		{
			Min -22.50195000 7.86035200 -3.42431600
			Max -16.17822000 20.27002000 15.72607000
		}
	}
	Geometries
	{
		Geometry
		{
			ShaderIndex 45
			Flags -
			VertexDeclaration N209731BE
			Indices 6
			{
				0 2 3 4 5 1
			}
			Vertices 6
			{
				-16.17822000 7.86035200 15.72607000 / -0.89098660 -0.45402960 0.00000000 / 181 137 255 255 / 0.83586340 -0.98015820
				-16.17822000 7.86035200 15.72607000 / -0.89098660 -0.45402960 0.00000000 / 181 137 255 255 / 0.83586340 -0.98015820
				-22.50195000 20.27002000 15.72607000 / -0.89098650 -0.45402960 0.00000000 / 181 134 255 255 / 0.16448020 -0.97723360
				-22.50195000 20.27002000 -3.42431600 / -0.89098660 -0.45402960 0.00000000 / 181 137 255 255 / 0.16851770 -0.01988340
				-22.50195000 20.27002000 -3.42431600 / -0.89098660 -0.45402960 0.00000000 / 181 137 255 255 / 0.16851770 -0.01988340
				-16.17822000 7.86035200 -3.42431600 / -0.89098650 -0.45402960 0.00000000 / 181 140 255 255 / 0.83990080 -0.02280790
			}
		}
	}
}
