Version 165 32
{
	Locked False
	Skinned False
	BoneCount 0
	Mask 255
	Bounds
	{
		Aabb
		{
			Min -32.04070000 -4.85045200 -16.39041000
			Max -30.93776000 -2.93513500 -14.25174000
		}
		Aabb
		{
			Min -31.98613000 -4.79450600 -16.34792000
			Max -30.98733000 -2.98829700 -14.29422000
		}
		Aabb
		{
			Min -32.04070000 -4.85045200 -16.39041000
			Max -30.93776000 -2.93513500 -14.25174000
		}
	}
	Geometries
	{
		Geometry
		{
			ShaderIndex 42
			Flags -
			VertexDeclaration N209731BE
			Indices 6
			{
				0 2 3 4 5 1
			}
			Vertices 6
			{
				-30.98733000 -4.79450600 -16.33817000 / -0.87509810 -0.48394560 0.00000000 / 175 15 255 255 / 1.00000000 1.00000000
				-30.98733000 -4.79450600 -16.33817000 / -0.87509810 -0.48394560 0.00000000 / 175 15 255 255 / 1.00000000 1.00000000
				-30.98733000 -4.79450400 -14.29423000 / -0.87509810 -0.48394560 0.00000000 / 175 11 255 255 / 1.00000000 0.37153620
				-31.98613000 -2.98829700 -14.29422000 / -0.87510810 -0.48392730 0.00000000 / 175 15 255 255 / 0.00000000 0.37153620
				-31.98613000 -2.98829700 -14.29422000 / -0.87510810 -0.48392730 0.00000000 / 175 15 255 255 / 0.00000000 0.37153620
				-31.98613000 -2.98830400 -16.34792000 / -0.87510810 -0.48392730 0.00000000 / 175 20 255 255 / 0.00000000 1.00000000
			}
		}
		Geometry
		{
			ShaderIndex 44
			Flags -
			VertexDeclaration N209731BE
			Indices 72
			{
				53 59 61 62 63 54 64 60 66 67 68 65 69 71 0
				1 2 70 3 5 6 7 8 4 9 11 12 13 14 10
				15 17 18 19 20 16 21 23 24 25 26 22 27 29 30
				31 32 28 33 35 36 37 38 34 39 41 42 43 44 40
				45 47 48 49 50 46 51 55 56 57 58 52
			}
			Vertices 72
			{
				-31.02100000 -4.81310200 -16.33818000 / -0.48351590 0.87533550 0.00000000 / 116 14 255 255 / 0.03153990 0.96786500
				-31.02100000 -4.81310200 -16.33818000 / -0.48351590 0.87533550 0.00000000 / 116 14 255 255 / 0.03153990 0.96786500
				-31.02100000 -4.81309700 -14.29424000 / -0.48332940 0.87543860 0.00000000 / 116 14 255 255 / 1.14553800 0.96786500
				-31.98613000 -2.98829700 -14.29422000 / 0.00000000 0.00000000 -1.00000000 / 123 3 255 255 / 1.14799500 0.95771790
				-31.98613000 -2.98829700 -14.29422000 / 0.00000000 0.00000000 -1.00000000 / 123 3 255 255 / 1.14799500 0.95771790
				-30.98733000 -4.79450400 -14.29423000 / 0.00019070 0.00009540 -1.00000000 / 122 3 255 255 / 0.02281190 0.95770270
				-31.02100000 -4.81309700 -14.29424000 / 0.00019070 0.00009540 -1.00000000 / 123 3 255 255 / 0.02281190 0.96791070
				-31.02100000 -4.81309700 -14.29424000 / 0.00019070 0.00009540 -1.00000000 / 123 3 255 255 / 0.02281190 0.96791070
				-32.02049000 -3.00693100 -14.29422000 / 0.00000000 0.00000000 -1.00000000 / 123 3 255 255 / 1.14799500 0.96792600
				-32.02049000 -3.00693200 -16.34793000 / -0.87774980 -0.47911940 0.00000000 / 181 33 255 255 / 1.14523300 0.96786500
				-32.02049000 -3.00693200 -16.34793000 / -0.87774980 -0.47911940 0.00000000 / 181 33 255 255 / 1.14523300 0.96786500
				-32.02049000 -3.00693100 -14.29422000 / -0.87777980 -0.47906430 0.00000000 / 183 34 255 255 / 0.02592470 0.96784960
				-32.04069000 -2.96991400 -14.25174000 / -0.87777980 -0.47906430 0.00000000 / 182 33 255 255 / 0.00282290 0.97903440
				-32.04069000 -2.96991400 -14.25174000 / -0.87777980 -0.47906430 0.00000000 / 182 33 255 255 / 0.00282290 0.97903440
				-32.04070000 -2.96991500 -16.39041000 / -0.87774980 -0.47911940 0.00000000 / 181 32 255 255 / 1.16841100 0.97903440
				-31.02100000 -4.81310200 -16.33818000 / -0.87505600 -0.48401780 0.00190730 / 181 33 255 255 / 1.14550800 0.96788020
				-31.02100000 -4.81310200 -16.33818000 / -0.87505600 -0.48401780 0.00190730 / 181 33 255 255 / 1.14550800 0.96788020
				-32.02049000 -3.00693200 -16.34793000 / -0.87500300 -0.48408380 -0.00572150 / 181 33 255 255 / 0.02032470 0.96789550
				-32.04070000 -2.96991500 -16.39041000 / -0.87500390 -0.48408430 -0.00553080 / 181 32 255 255 / -0.00283810 0.97908020
				-32.04070000 -2.96991500 -16.39041000 / -0.87500390 -0.48408430 -0.00553080 / 181 32 255 255 / -0.00283810 0.97908020
				-31.00043000 -4.85045200 -16.38017000 / -0.87505600 -0.48401780 0.00190730 / 182 34 255 255 / 1.16856400 0.97909550
				-31.02100000 -4.81309700 -14.29424000 / -0.87600650 -0.48229940 0.00000000 / 183 35 255 255 / 1.14553800 0.96786500
				-31.02100000 -4.81309700 -14.29424000 / -0.87600650 -0.48229940 0.00000000 / 183 35 255 255 / 1.14553800 0.96786500
				-31.02100000 -4.81310200 -16.33818000 / -0.87598630 -0.48233600 0.00000000 / 181 33 255 255 / 0.03153990 0.96786500
				-31.00043000 -4.85045200 -16.38017000 / -0.87598630 -0.48233600 0.00000000 / 182 34 255 255 / 0.00848390 0.97908020
				-31.00043000 -4.85045200 -16.38017000 / -0.87598630 -0.48233600 0.00000000 / 182 34 255 255 / 0.00848390 0.97908020
				-31.00043000 -4.85045000 -14.25175000 / -0.87600650 -0.48229940 0.00000000 / 183 35 255 255 / 1.16864000 0.97906490
				-32.02049000 -3.00693100 -14.29422000 / -0.87505440 -0.48399300 0.00553110 / 183 34 255 255 / 1.14799500 0.96792600
				-32.02049000 -3.00693100 -14.29422000 / -0.87505440 -0.48399300 0.00553110 / 183 34 255 255 / 1.14799500 0.96792600
				-31.02100000 -4.81309700 -14.29424000 / -0.87493010 -0.48424430 -0.00219350 / 183 35 255 255 / 0.02281190 0.96791070
				-31.00043000 -4.85045000 -14.25175000 / -0.87493040 -0.48424450 -0.00200280 / 183 35 255 255 / -0.00028990 0.97911070
				-31.00043000 -4.85045000 -14.25175000 / -0.87493040 -0.48424450 -0.00200280 / 183 35 255 255 / -0.00028990 0.97911070
				-32.04069000 -2.96991400 -14.25174000 / -0.87505390 -0.48399270 0.00562640 / 182 33 255 255 / 1.17111200 0.97911070
				-32.04070000 -2.96991500 -16.39041000 / -0.48523400 0.87438430 0.00000000 / 105 18 255 255 / 1.16841100 0.97903440
				-32.04070000 -2.96991500 -16.39041000 / -0.48523400 0.87438430 0.00000000 / 105 18 255 255 / 1.16841100 0.97903440
				-32.04069000 -2.96991400 -14.25174000 / -0.48523400 0.87438430 0.00000000 / 105 19 255 255 / 0.00282290 0.97903440
				-31.97803000 -2.93513500 -14.25174000 / -0.48523400 0.87438430 0.00000000 / 105 18 255 255 / 0.00282290 0.99795530
				-31.97803000 -2.93513500 -14.25174000 / -0.48523400 0.87438430 0.00000000 / 105 18 255 255 / 0.00282290 0.99795530
				-31.97804000 -2.93514400 -16.39041000 / -0.48523400 0.87438430 0.00000000 / 105 17 255 255 / 1.16841100 0.99795530
				-31.00043000 -4.85045200 -16.38017000 / 0.00228870 -0.00419600 -0.99998860 / 81 1 255 255 / 1.16856400 0.97909550
				-31.00043000 -4.85045200 -16.38017000 / 0.00228870 -0.00419600 -0.99998860 / 81 1 255 255 / 1.16856400 0.97909550
				-32.04070000 -2.96991500 -16.39041000 / 0.00228870 -0.00417220 -0.99998860 / 81 1 255 255 / -0.00283810 0.97908020
				-31.97804000 -2.93514400 -16.39041000 / 0.00228870 -0.00417220 -0.99998860 / 81 1 255 255 / -0.00283810 0.99800110
				-31.97804000 -2.93514400 -16.39041000 / 0.00228870 -0.00417220 -0.99998860 / 81 1 255 255 / -0.00283810 0.99800110
				-30.93777000 -4.81566600 -16.38017000 / 0.00228870 -0.00419600 -0.99998860 / 81 1 255 255 / 1.16856400 0.99800110
				-31.00043000 -4.85045000 -14.25175000 / 0.48542020 -0.87428090 0.00000000 / 122 65 255 255 / 1.16864000 0.97906490
				-31.00043000 -4.85045000 -14.25175000 / 0.48542020 -0.87428090 0.00000000 / 122 65 255 255 / 1.16864000 0.97906490
				-31.00043000 -4.85045200 -16.38017000 / 0.48542020 -0.87428090 0.00000000 / 123 66 255 255 / 0.00848390 0.97908020
				-30.93777000 -4.81566600 -16.38017000 / 0.48542020 -0.87428090 0.00000000 / 122 65 255 255 / 0.00848390 0.99798570
				-30.93777000 -4.81566600 -16.38017000 / 0.48542020 -0.87428090 0.00000000 / 122 65 255 255 / 0.00848390 0.99798570
				-30.93776000 -4.81565800 -14.25175000 / 0.48542020 -0.87428090 0.00000000 / 122 64 255 255 / 1.16864000 0.99798570
				-32.04069000 -2.96991400 -14.25174000 / 0.00000000 0.00000000 1.00000000 / 102 13 255 255 / 1.17111200 0.97911070
				-32.04069000 -2.96991400 -14.25174000 / 0.00000000 0.00000000 1.00000000 / 102 13 255 255 / 1.17111200 0.97911070
				-31.98613000 -2.98830400 -16.34792000 / 0.47664560 -0.87909550 0.00000000 / 151 53 255 255 / 1.14523300 0.95765680
				-31.98613000 -2.98830400 -16.34792000 / 0.47664560 -0.87909550 0.00000000 / 151 53 255 255 / 1.14523300 0.95765680
				-31.00043000 -4.85045000 -14.25175000 / 0.00000000 0.00004770 1.00000000 / 102 13 255 255 / -0.00028990 0.97911070
				-30.93776000 -4.81565800 -14.25175000 / 0.00000000 0.00004770 1.00000000 / 102 13 255 255 / -0.00028990 0.99803160
				-30.93776000 -4.81565800 -14.25175000 / 0.00000000 0.00004770 1.00000000 / 102 13 255 255 / -0.00028990 0.99803160
				-31.97803000 -2.93513500 -14.25174000 / 0.00000000 0.00000000 1.00000000 / 101 12 255 255 / 1.17111200 0.99803160
				-31.98613000 -2.98829700 -14.29422000 / 0.47665560 -0.87909010 0.00000000 / 151 43 255 255 / 0.02592470 0.95765680
				-31.98613000 -2.98830400 -16.34792000 / -0.00247950 0.00405300 0.99998860 / 164 11 255 255 / 0.02032470 0.95768740
				-32.02049000 -3.00693100 -14.29422000 / 0.47683300 -0.87899400 0.00000000 / 151 53 255 255 / 0.02592470 0.96784960
				-32.02049000 -3.00693100 -14.29422000 / 0.47683300 -0.87899400 0.00000000 / 151 53 255 255 / 0.02592470 0.96784960
				-32.02049000 -3.00693200 -16.34793000 / 0.47682300 -0.87899940 0.00000000 / 151 64 255 255 / 1.14523300 0.96786500
				-30.98733000 -4.79450600 -16.33817000 / -0.00247950 0.00405300 0.99998860 / 164 12 255 255 / 1.14550800 0.95768740
				-30.98733000 -4.79450600 -16.33817000 / -0.00247950 0.00405300 0.99998860 / 164 12 255 255 / 1.14550800 0.95768740
				-32.02049000 -3.00693200 -16.34793000 / -0.00228870 0.00405300 0.99998920 / 164 12 255 255 / 0.02032470 0.96789550
				-32.02049000 -3.00693200 -16.34793000 / -0.00228870 0.00405300 0.99998920 / 164 12 255 255 / 0.02032470 0.96789550
				-31.02100000 -4.81310200 -16.33818000 / -0.00247950 0.00405300 0.99998860 / 164 13 255 255 / 1.14550800 0.96788020
				-30.98733000 -4.79450400 -14.29423000 / -0.48332940 0.87543860 0.00000000 / 116 14 255 255 / 1.14553800 0.95767210
				-30.98733000 -4.79450400 -14.29423000 / -0.48332940 0.87543860 0.00000000 / 116 14 255 255 / 1.14553800 0.95767210
				-30.98733000 -4.79450600 -16.33817000 / -0.48351590 0.87533550 0.00000000 / 116 14 255 255 / 0.03153990 0.95767210
			}
		}
	}
}
