Version 165 32
{
	Locked False
	Skinned False
	BoneCount 0
	Mask 255
	Bounds
	{
		Aabb
		{
			Min -13.83253000 26.88959000 -17.37231000
			Max -9.61122000 29.03261000 -13.94800000
		}
	}
	Geometries
	{
		Geometry
		{
			ShaderIndex 42
			Flags -
			VertexDeclaration N209731BE
			Indices 6
			{
				0 2 3 4 5 1
			}
			Vertices 6
			{
				-13.83253000 26.88959000 -17.35571000 / -0.45338250 0.89131530 0.00114440 / 132 4 255 255 / 1.00000000 0.89059450
				-13.83253000 26.88959000 -17.35571000 / -0.45338250 0.89131530 0.00114440 / 132 4 255 255 / 1.00000000 0.89059450
				-13.80556000 26.89595000 -13.94800000 / -0.45391350 0.89104370 0.00190720 / 132 4 255 255 / 1.00000000 0.37153620
				-9.61122200 29.03261000 -13.94800000 / -0.45315410 0.89143190 0.00076290 / 132 4 255 255 / 0.00000000 0.37153620
				-9.61122200 29.03261000 -13.94800000 / -0.45315410 0.89143190 0.00076290 / 132 4 255 255 / 0.00000000 0.37153620
				-9.61122000 29.03261000 -17.37231000 / -0.45269820 0.89166380 0.00000000 / 133 3 255 255 / 0.00000000 0.89059450
			}
		}
	}
}
