Version 165 32
{
	Locked False
	Skinned False
	BoneCount 0
	Mask 255
	Bounds
	{
		Aabb
		{
			Min -17.17676000 25.16846000 -16.96680000
			Max -14.53857000 26.51270000 -12.51563000
		}
	}
	Geometries
	{
		Geometry
		{
			ShaderIndex 5
			Flags -
			VertexDeclaration N209731BE
			Indices 6
			{
				0 2 3 4 5 1
			}
			Vertices 6
			{
				-17.17676000 25.16846000 -16.96680000 / -0.45399150 0.89100600 0.00000000 / 101 27 0 255 / 5.72596700 1.00666800
				-17.17676000 25.16846000 -16.96680000 / -0.45399150 0.89100600 0.00000000 / 101 27 0 255 / 5.72596700 1.00666800
				-17.17676000 25.16846000 -12.51563000 / -0.45399150 0.89100600 0.00000000 / 104 42 0 255 / 5.72596700 0.00062560
				-14.53857000 26.51270000 -12.51563000 / -0.45399150 0.89100600 0.00000000 / 110 60 0 255 / 4.24551400 0.00062560
				-14.53857000 26.51270000 -12.51563000 / -0.45399150 0.89100600 0.00000000 / 110 60 0 255 / 4.24551400 0.00062560
				-14.53857000 26.51270000 -16.96680000 / -0.45399150 0.89100600 0.00000000 / 117 55 0 255 / 4.24549900 1.00666800
			}
		}
	}
}
