Version 165 32
{
	Locked False
	Skinned False
	BoneCount 0
	Mask 255
	Bounds
	{
		Aabb
		{
			Min -40.86670000 -5.18847600 -15.25342000
			Max -20.54248000 21.32422000 -10.93994000
		}
	}
	Geometries
	{
		Geometry
		{
			ShaderIndex 19
			Flags -
			VertexDeclaration N209731BE
			Indices 372
			{
				0 222 306 317 328 111 339 361 1 12 23 350 34 56 67
				78 89 45 100 123 134 145 156 112 167 189 200 211 223 178
				234 256 267 278 289 245 300 305 307 308 309 304 310 312 313
				314 315 311 316 319 320 321 322 318 323 325 326 327 329 324
				330 332 333 334 335 331 336 338 340 341 342 337 343 345 346
				347 348 344 349 352 353 354 355 351 356 358 359 360 362 357
				363 365 366 367 368 364 369 371 2 3 4 370 5 7 8
				9 10 6 11 14 15 16 17 13 18 20 21 22 24 19
				25 27 28 29 30 26 31 33 35 36 37 32 38 40 41
				42 43 39 44 47 48 49 50 46 51 53 54 55 57 52
				58 60 61 62 63 59 64 66 68 69 70 65 71 73 74
				75 76 72 77 80 81 82 83 79 84 86 87 88 90 85
				91 93 94 95 96 92 97 99 101 102 103 98 104 106 107
				108 109 105 110 114 115 116 117 113 118 120 121 122 124 119
				125 127 128 129 130 126 131 133 135 136 137 132 138 140 141
				142 143 139 144 147 148 149 150 146 151 153 154 155 157 152
				158 160 161 162 163 159 164 166 168 169 170 165 171 173 174
				175 176 172 177 180 181 182 183 179 184 186 187 188 190 185
				191 193 194 195 196 192 197 199 201 202 203 198 204 206 207
				208 209 205 210 213 214 215 216 212 217 219 220 221 224 218
				225 227 228 229 230 226 231 233 235 236 237 232 238 240 241
				242 243 239 244 247 248 249 250 246 251 253 254 255 257 252
				258 260 261 262 263 259 264 266 268 269 270 265 271 273 274
				275 276 272 277 280 281 282 283 279 284 286 287 288 290 285
				291 293 294 295 296 292 297 299 301 302 303 298
			}
			Vertices 372
			{
				-35.85596000 -3.81201200 -12.07373000 / -0.88046090 -0.47411860 0.00000000 / 146 19 0 255 / 0.64378030 2.29907000
				-35.85596000 -3.81201200 -12.07373000 / 0.88046090 0.47411860 0.00000000 / 146 19 0 255 / 0.35621970 2.29907000
				-37.15381000 -1.46875000 -15.25342000 / -0.87444550 -0.48512390 0.00000000 / 135 87 0 255 / 0.55539760 3.03622200
				-37.15381000 -1.46875000 -15.25342000 / -0.87444540 -0.48512380 0.00000000 / 135 87 0 255 / 0.55539760 3.03622200
				-37.15381000 -1.46875000 -12.07373000 / -0.87444540 -0.48512380 0.00000000 / 135 28 0 255 / 0.55539760 2.29907000
				-37.15381000 -1.46875000 -15.25342000 / 0.87444550 0.48512390 0.00000000 / 135 87 0 255 / 0.44460240 3.03622200
				-37.15381000 -1.46875000 -15.25342000 / 0.87444540 0.48512380 0.00000000 / 135 87 0 255 / 0.44460240 3.03622200
				-38.70410000 1.32568400 -15.25342000 / 0.87444540 0.48512380 0.00000000 / 136 23 0 255 / 0.55000220 3.03622200
				-38.70410000 1.32568400 -12.07373000 / 0.87444540 0.48512380 0.00000000 / 135 25 0 255 / 0.55000220 2.29907000
				-38.70410000 1.32568400 -12.07373000 / 0.87444550 0.48512390 0.00000000 / 135 25 0 255 / 0.55000220 2.29907000
				-37.15381000 -1.46875000 -12.07373000 / 0.87444540 0.48512380 0.00000000 / 135 28 0 255 / 0.44460240 2.29907000
				-37.15381000 -1.46875000 -12.00146000 / -0.87444550 -0.48512390 0.00000000 / 76 94 0 255 / 0.55539760 2.28231500
				-35.85596000 -3.81201200 -12.07373000 / 0.88046100 0.47411870 0.00000000 / 146 19 0 255 / 0.35621970 2.29907000
				-37.15381000 -1.46875000 -12.00146000 / -0.87444540 -0.48512380 0.00000000 / 76 94 0 255 / 0.55539760 2.28231500
				-37.15381000 -1.46875000 -10.93994000 / -0.87444540 -0.48512380 0.00000000 / 75 32 0 255 / 0.55539760 2.03622200
				-38.70410000 1.32568400 -10.93994000 / -0.87444540 -0.48512380 0.00000000 / 76 33 0 255 / 0.44999780 2.03622200
				-38.70410000 1.32568400 -10.93994000 / -0.87444550 -0.48512390 0.00000000 / 76 33 0 255 / 0.44999780 2.03622200
				-38.70410000 1.32568400 -12.00146000 / -0.87444540 -0.48512380 0.00000000 / 76 35 0 255 / 0.44999780 2.28231500
				-38.70410000 1.32568400 -10.93994000 / 0.87444540 0.48512380 0.00000000 / 76 33 0 255 / 0.55000220 2.03622200
				-38.70410000 1.32568400 -10.93994000 / 0.87444550 0.48512390 0.00000000 / 76 33 0 255 / 0.55000220 2.03622200
				-37.15381000 -1.46875000 -10.93994000 / 0.87444540 0.48512380 0.00000000 / 75 32 0 255 / 0.44460240 2.03622200
				-37.15381000 -1.46875000 -12.00146000 / 0.87444550 0.48512390 0.00000000 / 76 94 0 255 / 0.44460240 2.28231500
				-37.15381000 -1.46875000 -12.00146000 / 0.87444540 0.48512380 0.00000000 / 76 94 0 255 / 0.44460240 2.28231500
				-35.11475000 -5.18847600 -12.07373000 / 0.88046090 0.47411860 0.00000000 / 145 21 0 255 / 0.30430250 2.29907000
				-38.70410000 1.32568400 -12.00146000 / 0.87444540 0.48512380 0.00000000 / 76 35 0 255 / 0.55000220 2.28231500
				-34.52051000 14.20215000 -12.07373000 / -0.45428970 0.89085410 0.00000000 / 143 37 0 255 / 2.19849100 2.29907000
				-34.52051000 14.20215000 -12.07373000 / -0.45428970 0.89085410 0.00000000 / 143 37 0 255 / 2.19849100 2.29907000
				-34.52051000 14.20215000 -15.25342000 / -0.45428970 0.89085390 0.00000000 / 143 148 0 255 / 2.19849100 3.03622200
				-37.36719000 12.75049000 -15.25342000 / -0.45428970 0.89085410 0.00000000 / 143 38 0 255 / 2.33855400 3.03622200
				-37.36719000 12.75049000 -15.25342000 / -0.45428970 0.89085410 0.00000000 / 143 38 0 255 / 2.33855400 3.03622200
				-37.36719000 12.75049000 -12.07373000 / -0.45428970 0.89085390 0.00000000 / 142 41 0 255 / 2.33855400 2.29907000
				-37.36719000 12.75049000 -15.25342000 / 0.45428970 -0.89085410 0.00000000 / 143 38 0 255 / -1.33855400 3.03622200
				-37.36719000 12.75049000 -15.25342000 / 0.45428970 -0.89085410 0.00000000 / 143 38 0 255 / -1.33855400 3.03622200
				-34.52051000 14.20215000 -15.25342000 / 0.45428970 -0.89085390 0.00000000 / 143 148 0 255 / -1.19849100 3.03622200
				-35.11475000 -5.18847600 -12.00146000 / -0.88046100 -0.47411860 0.00000000 / 75 70 0 255 / 0.69569740 2.28231500
				-34.52051000 14.20215000 -12.07373000 / 0.45428970 -0.89085410 0.00000000 / 143 37 0 255 / -1.19849100 2.29907000
				-34.52051000 14.20215000 -12.07373000 / 0.45428970 -0.89085410 0.00000000 / 143 37 0 255 / -1.19849100 2.29907000
				-37.36719000 12.75049000 -12.07373000 / 0.45428970 -0.89085390 0.00000000 / 142 41 0 255 / -1.33855400 2.29907000
				-37.36719000 12.75049000 -12.00146000 / -0.45428980 0.89085400 0.00000000 / 83 47 0 255 / 2.33855400 2.28231500
				-37.36719000 12.75049000 -12.00146000 / -0.45428970 0.89085410 0.00000000 / 83 47 0 255 / 2.33855400 2.28231500
				-37.36719000 12.75049000 -10.93994000 / -0.45428970 0.89085390 0.00000000 / 82 49 0 255 / 2.33855400 2.03622200
				-34.52051000 14.20215000 -10.93994000 / -0.45428970 0.89085410 0.00000000 / 83 46 0 255 / 2.19849100 2.03622200
				-34.52051000 14.20215000 -10.93994000 / -0.45428980 0.89085400 0.00000000 / 83 46 0 255 / 2.19849100 2.03622200
				-34.52051000 14.20215000 -12.00146000 / -0.45428970 0.89085390 0.00000000 / 83 158 0 255 / 2.19849100 2.28231500
				-34.52051000 14.20215000 -10.93994000 / 0.45428970 -0.89085410 0.00000000 / 83 46 0 255 / -1.19849100 2.03622200
				-35.11475000 -5.18847600 -12.00146000 / -0.88046100 -0.47411870 0.00000000 / 75 70 0 255 / 0.69569740 2.28231500
				-34.52051000 14.20215000 -10.93994000 / 0.45428980 -0.89085400 0.00000000 / 83 46 0 255 / -1.19849100 2.03622200
				-37.36719000 12.75049000 -10.93994000 / 0.45428970 -0.89085390 0.00000000 / 82 49 0 255 / -1.33855400 2.03622200
				-37.36719000 12.75049000 -12.00146000 / 0.45428980 -0.89085400 0.00000000 / 83 47 0 255 / -1.33855400 2.28231500
				-37.36719000 12.75049000 -12.00146000 / 0.45428970 -0.89085410 0.00000000 / 83 47 0 255 / -1.33855400 2.28231500
				-34.52051000 14.20215000 -12.00146000 / 0.45428970 -0.89085390 0.00000000 / 83 158 0 255 / -1.19849100 2.28231500
				-37.43115000 12.71924000 -12.07373000 / -0.66940250 0.74290010 0.00000000 / 136 95 0 255 / 0.02025820 2.29907000
				-37.43115000 12.71924000 -12.07373000 / -0.66940240 0.74290000 0.00000000 / 136 95 0 255 / 0.02025820 2.29907000
				-37.43115000 12.71924000 -15.25342000 / -0.66940240 0.74290010 0.00000000 / 137 95 0 255 / 0.02025820 3.03622200
				-39.80518000 10.58008000 -15.25342000 / -0.66940240 0.74290000 0.00000000 / 136 95 0 255 / 0.10094250 3.03622200
				-39.80518000 10.58008000 -15.25342000 / -0.66940250 0.74290010 0.00000000 / 136 95 0 255 / 0.10094250 3.03622200
				-35.11475000 -5.18847600 -10.93994000 / -0.88046090 -0.47411860 0.00000000 / 75 25 0 255 / 0.69569740 2.03622200
				-39.80518000 10.58008000 -12.07373000 / -0.66940240 0.74290010 0.00000000 / 136 95 0 255 / 0.10094250 2.29907000
				-39.80518000 10.58008000 -15.25342000 / 0.66940240 -0.74290000 0.00000000 / 136 95 0 255 / 0.89905750 3.03622200
				-39.80518000 10.58008000 -15.25342000 / 0.66940250 -0.74290010 0.00000000 / 136 95 0 255 / 0.89905750 3.03622200
				-37.43115000 12.71924000 -15.25342000 / 0.66940240 -0.74290010 0.00000000 / 137 95 0 255 / 0.97974180 3.03622200
				-37.43115000 12.71924000 -12.07373000 / 0.66940250 -0.74290010 0.00000000 / 136 95 0 255 / 0.97974180 2.29907000
				-37.43115000 12.71924000 -12.07373000 / 0.66940240 -0.74290000 0.00000000 / 136 95 0 255 / 0.97974180 2.29907000
				-39.80518000 10.58008000 -12.07373000 / 0.66940240 -0.74290010 0.00000000 / 136 95 0 255 / 0.89905750 2.29907000
				-39.80518000 10.58008000 -12.00146000 / -0.66940240 0.74290000 0.00000000 / 73 95 0 255 / 0.10094250 2.28231500
				-39.80518000 10.58008000 -12.00146000 / -0.66940240 0.74290000 0.00000000 / 73 95 0 255 / 0.10094250 2.28231500
				-39.80518000 10.58008000 -10.93994000 / -0.66940240 0.74290000 0.00000000 / 72 95 0 255 / 0.10094250 2.03622200
				-35.85596000 -3.81201200 -10.93994000 / -0.88046100 -0.47411870 0.00000000 / 75 24 0 255 / 0.64378030 2.03622200
				-37.43115000 12.71924000 -10.93994000 / -0.66940240 0.74290000 0.00000000 / 73 95 0 255 / 0.02025820 2.03622200
				-37.43115000 12.71924000 -10.93994000 / -0.66940240 0.74290000 0.00000000 / 73 95 0 255 / 0.02025820 2.03622200
				-37.43115000 12.71924000 -12.00146000 / -0.66940240 0.74290000 0.00000000 / 73 95 0 255 / 0.02025820 2.28231500
				-37.43115000 12.71924000 -10.93994000 / 0.66940240 -0.74290000 0.00000000 / 73 95 0 255 / 0.97974180 2.03622200
				-37.43115000 12.71924000 -10.93994000 / 0.66940240 -0.74290000 0.00000000 / 73 95 0 255 / 0.97974180 2.03622200
				-39.80518000 10.58008000 -10.93994000 / 0.66940240 -0.74290000 0.00000000 / 72 95 0 255 / 0.89905750 2.03622200
				-39.80518000 10.58008000 -12.00146000 / 0.66940240 -0.74290000 0.00000000 / 73 95 0 255 / 0.89905750 2.28231500
				-39.80518000 10.58008000 -12.00146000 / 0.66940240 -0.74290000 0.00000000 / 73 95 0 255 / 0.89905750 2.28231500
				-37.43115000 12.71924000 -12.00146000 / 0.66940240 -0.74290000 0.00000000 / 73 95 0 255 / 0.97974180 2.28231500
				-40.18750000 4.23779300 -12.07373000 / -0.89088550 -0.45422790 0.00000000 / 143 37 0 255 / 0.34015950 2.29907000
				-35.85596000 -3.81201200 -10.93994000 / -0.88046100 -0.47411860 0.00000000 / 75 24 0 255 / 0.64378030 2.03622200
				-40.18750000 4.23779300 -12.07373000 / -0.89088560 -0.45422790 0.00000000 / 143 37 0 255 / 0.34015950 2.29907000
				-40.18750000 4.23779300 -15.25342000 / -0.89088550 -0.45422780 0.00000000 / 143 36 0 255 / 0.34015950 3.03622200
				-38.73584000 1.39062500 -15.25342000 / -0.89088560 -0.45422790 0.00000000 / 143 120 0 255 / 0.44754830 3.03622200
				-38.73584000 1.39062500 -15.25342000 / -0.89088550 -0.45422790 0.00000000 / 143 120 0 255 / 0.44754830 3.03622200
				-38.73584000 1.39062500 -12.07373000 / -0.89088550 -0.45422780 0.00000000 / 142 33 0 255 / 0.44754830 2.29907000
				-38.73584000 1.39062500 -15.25342000 / 0.89088560 0.45422790 0.00000000 / 143 120 0 255 / 0.55245170 3.03622200
				-38.73584000 1.39062500 -15.25342000 / 0.89088550 0.45422790 0.00000000 / 143 120 0 255 / 0.55245170 3.03622200
				-40.18750000 4.23779300 -15.25342000 / 0.89088550 0.45422780 0.00000000 / 143 36 0 255 / 0.65984050 3.03622200
				-40.18750000 4.23779300 -12.07373000 / 0.89088550 0.45422790 0.00000000 / 143 37 0 255 / 0.65984050 2.29907000
				-40.18750000 4.23779300 -12.07373000 / 0.89088560 0.45422790 0.00000000 / 143 37 0 255 / 0.65984050 2.29907000
				-35.85596000 -3.81201200 -12.00146000 / -0.88046090 -0.47411860 0.00000000 / 75 25 0 255 / 0.64378030 2.28231500
				-38.73584000 1.39062500 -12.07373000 / 0.89088550 0.45422780 0.00000000 / 142 33 0 255 / 0.55245170 2.29907000
				-38.73584000 1.39062500 -12.00146000 / -0.89088550 -0.45422790 0.00000000 / 83 125 0 255 / 0.44754830 2.28231500
				-38.73584000 1.39062500 -12.00146000 / -0.89088550 -0.45422790 0.00000000 / 83 125 0 255 / 0.44754830 2.28231500
				-38.73584000 1.39062500 -10.93994000 / -0.89088550 -0.45422790 0.00000000 / 82 40 0 255 / 0.44754830 2.03622200
				-40.18750000 4.23779300 -10.93994000 / -0.89088550 -0.45422790 0.00000000 / 83 42 0 255 / 0.34015950 2.03622200
				-40.18750000 4.23779300 -10.93994000 / -0.89088550 -0.45422790 0.00000000 / 83 42 0 255 / 0.34015950 2.03622200
				-40.18750000 4.23779300 -12.00146000 / -0.89088550 -0.45422790 0.00000000 / 83 50 0 255 / 0.34015950 2.28231500
				-40.18750000 4.23779300 -10.93994000 / 0.89088550 0.45422790 0.00000000 / 83 42 0 255 / 0.65984050 2.03622200
				-40.18750000 4.23779300 -10.93994000 / 0.89088550 0.45422790 0.00000000 / 83 42 0 255 / 0.65984050 2.03622200
				-38.73584000 1.39062500 -10.93994000 / 0.89088550 0.45422790 0.00000000 / 82 40 0 255 / 0.55245170 2.03622200
				-35.85596000 -3.81201200 -10.93994000 / 0.88046100 0.47411870 0.00000000 / 75 24 0 255 / 0.35621970 2.03622200
				-38.73584000 1.39062500 -12.00146000 / 0.89088550 0.45422790 0.00000000 / 83 125 0 255 / 0.55245170 2.28231500
				-38.73584000 1.39062500 -12.00146000 / 0.89088550 0.45422790 0.00000000 / 83 125 0 255 / 0.55245170 2.28231500
				-40.18750000 4.23779300 -12.00146000 / 0.89088550 0.45422790 0.00000000 / 83 50 0 255 / 0.65984050 2.28231500
				-40.86670000 7.43261800 -12.07373000 / -0.97807220 -0.20826620 0.00000000 / 137 95 0 255 / 0.21965780 2.29907000
				-40.86670000 7.43261800 -12.07373000 / -0.97807220 -0.20826620 0.00000000 / 137 95 0 255 / 0.21965780 2.29907000
				-40.86670000 7.43261800 -15.25342000 / -0.97807220 -0.20826620 0.00000000 / 137 95 0 255 / 0.21965780 3.03622200
				-40.20117000 4.30712900 -15.25342000 / -0.97807220 -0.20826620 0.00000000 / 137 95 0 255 / 0.33754430 3.03622200
				-40.20117000 4.30712900 -15.25342000 / -0.97807220 -0.20826620 0.00000000 / 137 95 0 255 / 0.33754430 3.03622200
				-40.20117000 4.30712900 -12.07373000 / -0.97807220 -0.20826620 0.00000000 / 137 95 0 255 / 0.33754430 2.29907000
				-40.20117000 4.30712900 -15.25342000 / 0.97807220 0.20826620 0.00000000 / 137 95 0 255 / 0.66245570 3.03622200
				-35.85596000 -3.81201200 -12.07373000 / -0.88046100 -0.47411870 0.00000000 / 146 19 0 255 / 0.64378030 2.29907000
				-35.85596000 -3.81201200 -10.93994000 / 0.88046100 0.47411860 0.00000000 / 75 24 0 255 / 0.35621970 2.03622200
				-40.20117000 4.30712900 -15.25342000 / 0.97807220 0.20826620 0.00000000 / 137 95 0 255 / 0.66245570 3.03622200
				-40.86670000 7.43261800 -15.25342000 / 0.97807220 0.20826620 0.00000000 / 137 95 0 255 / 0.78034220 3.03622200
				-40.86670000 7.43261800 -12.07373000 / 0.97807220 0.20826620 0.00000000 / 137 95 0 255 / 0.78034220 2.29907000
				-40.86670000 7.43261800 -12.07373000 / 0.97807220 0.20826620 0.00000000 / 137 95 0 255 / 0.78034220 2.29907000
				-40.20117000 4.30712900 -12.07373000 / 0.97807220 0.20826620 0.00000000 / 137 95 0 255 / 0.66245570 2.29907000
				-40.20117000 4.30712900 -12.00146000 / -0.97807220 -0.20826620 0.00000000 / 80 95 0 255 / 0.33754430 2.28231500
				-40.20117000 4.30712900 -12.00146000 / -0.97807220 -0.20826620 0.00000000 / 80 95 0 255 / 0.33754430 2.28231500
				-40.20117000 4.30712900 -10.93994000 / -0.97807220 -0.20826620 0.00000000 / 80 95 0 255 / 0.33754430 2.03622200
				-40.86670000 7.43261800 -10.93994000 / -0.97807220 -0.20826620 0.00000000 / 80 95 0 255 / 0.21965780 2.03622200
				-40.86670000 7.43261800 -10.93994000 / -0.97807220 -0.20826620 0.00000000 / 80 95 0 255 / 0.21965780 2.03622200
				-35.11475000 -5.18847600 -10.93994000 / 0.88046090 0.47411860 0.00000000 / 75 25 0 255 / 0.30430250 2.03622200
				-40.86670000 7.43261800 -12.00146000 / -0.97807220 -0.20826620 0.00000000 / 80 95 0 255 / 0.21965780 2.28231500
				-40.86670000 7.43261800 -10.93994000 / 0.97807220 0.20826620 0.00000000 / 80 95 0 255 / 0.78034220 2.03622200
				-40.86670000 7.43261800 -10.93994000 / 0.97807220 0.20826620 0.00000000 / 80 95 0 255 / 0.78034220 2.03622200
				-40.20117000 4.30712900 -10.93994000 / 0.97807220 0.20826620 0.00000000 / 80 95 0 255 / 0.66245570 2.03622200
				-40.20117000 4.30712900 -12.00146000 / 0.97807220 0.20826620 0.00000000 / 80 95 0 255 / 0.66245570 2.28231500
				-40.20117000 4.30712900 -12.00146000 / 0.97807220 0.20826620 0.00000000 / 80 95 0 255 / 0.66245570 2.28231500
				-40.86670000 7.43261800 -12.00146000 / 0.97807220 0.20826620 0.00000000 / 80 95 0 255 / 0.78034220 2.28231500
				-39.85693000 10.53613000 -12.07373000 / -0.95117380 0.30865550 0.00000000 / 140 95 0 255 / 0.10260020 2.29907000
				-39.85693000 10.53613000 -12.07373000 / -0.95117400 0.30865550 0.00000000 / 140 95 0 255 / 0.10260020 2.29907000
				-39.85693000 10.53613000 -15.25342000 / -0.95117400 0.30865550 0.00000000 / 141 95 0 255 / 0.10260020 3.03622200
				-35.11475000 -5.18847600 -12.00146000 / 0.88046100 0.47411860 0.00000000 / 75 70 0 255 / 0.30430250 2.28231500
				-40.84326000 7.49658200 -15.25342000 / -0.95117400 0.30865550 0.00000000 / 140 95 0 255 / 0.21724520 3.03622200
				-40.84326000 7.49658200 -15.25342000 / -0.95117380 0.30865550 0.00000000 / 140 95 0 255 / 0.21724520 3.03622200
				-40.84326000 7.49658200 -12.07373000 / -0.95117400 0.30865550 0.00000000 / 140 95 0 255 / 0.21724520 2.29907000
				-40.84326000 7.49658200 -15.25342000 / 0.95117400 -0.30865550 0.00000000 / 140 95 0 255 / 0.78275480 3.03622200
				-40.84326000 7.49658200 -15.25342000 / 0.95117380 -0.30865550 0.00000000 / 140 95 0 255 / 0.78275480 3.03622200
				-39.85693000 10.53613000 -15.25342000 / 0.95117400 -0.30865550 0.00000000 / 141 95 0 255 / 0.89739980 3.03622200
				-39.85693000 10.53613000 -12.07373000 / 0.95117380 -0.30865550 0.00000000 / 140 95 0 255 / 0.89739980 2.29907000
				-39.85693000 10.53613000 -12.07373000 / 0.95117400 -0.30865550 0.00000000 / 140 95 0 255 / 0.89739980 2.29907000
				-40.84326000 7.49658200 -12.07373000 / 0.95117400 -0.30865550 0.00000000 / 140 95 0 255 / 0.78275480 2.29907000
				-40.84326000 7.49658200 -12.00146000 / -0.95117380 0.30865550 0.00000000 / 79 95 0 255 / 0.21724520 2.28231500
				-35.11475000 -5.18847600 -12.00146000 / 0.88046100 0.47411870 0.00000000 / 75 70 0 255 / 0.30430250 2.28231500
				-40.84326000 7.49658200 -12.00146000 / -0.95117390 0.30865550 0.00000000 / 79 95 0 255 / 0.21724520 2.28231500
				-40.84326000 7.49658200 -10.93994000 / -0.95117380 0.30865540 0.00000000 / 79 95 0 255 / 0.21724520 2.03622200
				-39.85693000 10.53613000 -10.93994000 / -0.95117390 0.30865550 0.00000000 / 79 95 0 255 / 0.10260020 2.03622200
				-39.85693000 10.53613000 -10.93994000 / -0.95117380 0.30865550 0.00000000 / 79 95 0 255 / 0.10260020 2.03622200
				-39.85693000 10.53613000 -12.00146000 / -0.95117380 0.30865540 0.00000000 / 79 95 0 255 / 0.10260020 2.28231500
				-39.85693000 10.53613000 -10.93994000 / 0.95117390 -0.30865550 0.00000000 / 79 95 0 255 / 0.89739980 2.03622200
				-39.85693000 10.53613000 -10.93994000 / 0.95117380 -0.30865550 0.00000000 / 79 95 0 255 / 0.89739980 2.03622200
				-40.84326000 7.49658200 -10.93994000 / 0.95117380 -0.30865540 0.00000000 / 79 95 0 255 / 0.78275480 2.03622200
				-40.84326000 7.49658200 -12.00146000 / 0.95117380 -0.30865550 0.00000000 / 79 95 0 255 / 0.78275480 2.28231500
				-40.84326000 7.49658200 -12.00146000 / 0.95117390 -0.30865550 0.00000000 / 79 95 0 255 / 0.78275480 2.28231500
				-35.85596000 -3.81201200 -12.00146000 / 0.88046090 0.47411860 0.00000000 / 75 25 0 255 / 0.35621970 2.28231500
				-39.85693000 10.53613000 -12.00146000 / 0.95117380 -0.30865540 0.00000000 / 79 95 0 255 / 0.89739980 2.28231500
				-31.60693000 15.68652000 -12.07373000 / -0.45440890 0.89079330 0.00000000 / 141 27 0 255 / 2.05513500 2.29907000
				-31.60693000 15.68652000 -12.07373000 / -0.45440890 0.89079330 0.00000000 / 141 27 0 255 / 2.05513500 2.29907000
				-31.60693000 15.68652000 -15.25342000 / -0.45440890 0.89079330 0.00000000 / 142 113 0 255 / 2.05513500 3.03622200
				-34.45361000 14.23438000 -15.25342000 / -0.45440890 0.89079330 0.00000000 / 141 28 0 255 / 2.19519900 3.03622200
				-34.45361000 14.23438000 -15.25342000 / -0.45440890 0.89079330 0.00000000 / 141 28 0 255 / 2.19519900 3.03622200
				-34.45361000 14.23438000 -12.07373000 / -0.45440890 0.89079330 0.00000000 / 141 31 0 255 / 2.19519900 2.29907000
				-34.45361000 14.23438000 -15.25342000 / 0.45440890 -0.89079330 0.00000000 / 141 28 0 255 / -1.19519900 3.03622200
				-34.45361000 14.23438000 -15.25342000 / 0.45440890 -0.89079330 0.00000000 / 141 28 0 255 / -1.19519900 3.03622200
				-31.60693000 15.68652000 -15.25342000 / 0.45440890 -0.89079330 0.00000000 / 142 113 0 255 / -1.05513600 3.03622200
				-35.81836000 -3.77587900 -15.25342000 / -0.48556390 0.87420110 0.00000000 / 94 18 0 255 / 2.26234800 3.03622200
				-31.60693000 15.68652000 -12.07373000 / 0.45440890 -0.89079330 0.00000000 / 141 27 0 255 / -1.05513600 2.29907000
				-31.60693000 15.68652000 -12.07373000 / 0.45440890 -0.89079330 0.00000000 / 141 27 0 255 / -1.05513600 2.29907000
				-34.45361000 14.23438000 -12.07373000 / 0.45440890 -0.89079330 0.00000000 / 141 31 0 255 / -1.19519900 2.29907000
				-34.45361000 14.23438000 -12.00146000 / -0.45440890 0.89079330 0.00000000 / 78 36 0 255 / 2.19519900 2.28231500
				-34.45361000 14.23438000 -12.00146000 / -0.45440890 0.89079330 0.00000000 / 78 36 0 255 / 2.19519900 2.28231500
				-34.45361000 14.23438000 -10.93994000 / -0.45440890 0.89079330 0.00000000 / 78 33 0 255 / 2.19519900 2.03622200
				-31.60693000 15.68652000 -10.93994000 / -0.45440890 0.89079330 0.00000000 / 78 34 0 255 / 2.05513500 2.03622200
				-31.60693000 15.68652000 -10.93994000 / -0.45440890 0.89079330 0.00000000 / 78 34 0 255 / 2.05513500 2.03622200
				-31.60693000 15.68652000 -12.00146000 / -0.45440890 0.89079330 0.00000000 / 78 126 0 255 / 2.05513500 2.28231500
				-31.60693000 15.68652000 -10.93994000 / 0.45440890 -0.89079330 0.00000000 / 78 34 0 255 / -1.05513600 2.03622200
				-35.81836000 -3.77587900 -15.25342000 / -0.48556400 0.87420110 0.00000000 / 94 18 0 255 / 2.26234800 3.03622200
				-31.60693000 15.68652000 -10.93994000 / 0.45440890 -0.89079330 0.00000000 / 78 34 0 255 / -1.05513600 2.03622200
				-34.45361000 14.23438000 -10.93994000 / 0.45440890 -0.89079330 0.00000000 / 78 33 0 255 / -1.19519900 2.03622200
				-34.45361000 14.23438000 -12.00146000 / 0.45440890 -0.89079330 0.00000000 / 78 36 0 255 / -1.19519900 2.28231500
				-34.45361000 14.23438000 -12.00146000 / 0.45440890 -0.89079330 0.00000000 / 78 36 0 255 / -1.19519900 2.28231500
				-31.60693000 15.68652000 -12.00146000 / 0.45440890 -0.89079330 0.00000000 / 78 126 0 255 / -1.05513600 2.28231500
				-28.69336000 17.17090000 -12.07373000 / -0.45422770 0.89088570 0.00000000 / 140 20 0 255 / 1.91178100 2.29907000
				-28.69336000 17.17090000 -12.07373000 / -0.45422760 0.89088560 0.00000000 / 140 20 0 255 / 1.91178100 2.29907000
				-28.69336000 17.17090000 -15.25342000 / -0.45422760 0.89088560 0.00000000 / 141 90 0 255 / 1.91178100 3.03622200
				-31.54053000 15.71924000 -15.25342000 / -0.45422760 0.89088560 0.00000000 / 140 22 0 255 / 2.05186800 3.03622200
				-31.54053000 15.71924000 -15.25342000 / -0.45422770 0.89088570 0.00000000 / 140 22 0 255 / 2.05186800 3.03622200
				-35.81836000 -3.77587900 -12.07373000 / -0.48556390 0.87420110 0.00000000 / 94 18 0 255 / 2.26234800 2.29907000
				-31.54053000 15.71924000 -12.07373000 / -0.45422760 0.89088560 0.00000000 / 140 23 0 255 / 2.05186800 2.29907000
				-31.54053000 15.71924000 -15.25342000 / 0.45422760 -0.89088560 0.00000000 / 140 22 0 255 / -1.05186800 3.03622200
				-31.54053000 15.71924000 -15.25342000 / 0.45422770 -0.89088570 0.00000000 / 140 22 0 255 / -1.05186800 3.03622200
				-28.69336000 17.17090000 -15.25342000 / 0.45422760 -0.89088560 0.00000000 / 141 90 0 255 / -0.91178100 3.03622200
				-28.69336000 17.17090000 -12.07373000 / 0.45422770 -0.89088570 0.00000000 / 140 20 0 255 / -0.91178100 2.29907000
				-28.69336000 17.17090000 -12.07373000 / 0.45422760 -0.89088560 0.00000000 / 140 20 0 255 / -0.91178100 2.29907000
				-31.54053000 15.71924000 -12.07373000 / 0.45422760 -0.89088560 0.00000000 / 140 23 0 255 / -1.05186800 2.29907000
				-31.54053000 15.71924000 -12.00146000 / -0.45422770 0.89088570 0.00000000 / 81 30 0 255 / 2.05186800 2.28231500
				-31.54053000 15.71924000 -12.00146000 / -0.45422770 0.89088570 0.00000000 / 81 30 0 255 / 2.05186800 2.28231500
				-31.54053000 15.71924000 -10.93994000 / -0.45422760 0.89088560 0.00000000 / 80 28 0 255 / 2.05186800 2.03622200
				-35.37354000 -3.52880900 -12.07373000 / -0.48556400 0.87420110 0.00000000 / 94 17 0 255 / 2.24046200 2.29907000
				-28.69336000 17.17090000 -10.93994000 / -0.45422770 0.89088570 0.00000000 / 81 28 0 255 / 1.91178100 2.03622200
				-28.69336000 17.17090000 -10.93994000 / -0.45422770 0.89088570 0.00000000 / 81 28 0 255 / 1.91178100 2.03622200
				-28.69336000 17.17090000 -12.00146000 / -0.45422760 0.89088560 0.00000000 / 81 103 0 255 / 1.91178100 2.28231500
				-28.69336000 17.17090000 -10.93994000 / 0.45422770 -0.89088570 0.00000000 / 81 28 0 255 / -0.91178100 2.03622200
				-28.69336000 17.17090000 -10.93994000 / 0.45422770 -0.89088570 0.00000000 / 81 28 0 255 / -0.91178100 2.03622200
				-31.54053000 15.71924000 -10.93994000 / 0.45422760 -0.89088560 0.00000000 / 80 28 0 255 / -1.05186800 2.03622200
				-31.54053000 15.71924000 -12.00146000 / 0.45422770 -0.89088570 0.00000000 / 81 30 0 255 / -1.05186800 2.28231500
				-31.54053000 15.71924000 -12.00146000 / 0.45422770 -0.89088570 0.00000000 / 81 30 0 255 / -1.05186800 2.28231500
				-28.69336000 17.17090000 -12.00146000 / 0.45422760 -0.89088560 0.00000000 / 81 103 0 255 / -0.91178100 2.28231500
				-28.62695000 17.20459000 -13.32812000 / -0.45482920 0.89057870 0.00000000 / 128 24 0 255 / 1.90851300 2.58987700
				-35.37354000 -3.52880900 -12.07373000 / -0.48556390 0.87420110 0.00000000 / 94 17 0 255 / 2.24046200 2.29907000
				-28.62695000 17.20459000 -13.32812000 / -0.45482920 0.89057860 0.00000000 / 128 24 0 255 / 1.90851300 2.58987700
				-28.62695000 17.20459000 -12.80713000 / -0.45482920 0.89057860 0.00000000 / 128 26 0 255 / 1.90851300 2.46909500
				-26.37061000 18.35693000 -12.80713000 / -0.45482920 0.89057860 0.00000000 / 128 22 0 255 / 1.79749600 2.46909500
				-26.37061000 18.35693000 -12.80713000 / -0.45482920 0.89057870 0.00000000 / 128 22 0 255 / 1.79749600 2.46909500
				-26.37061000 18.35693000 -13.32812000 / -0.45482920 0.89057860 0.00000000 / 128 86 0 255 / 1.79749600 2.58987700
				-26.37061000 18.35693000 -12.80713000 / 0.45482920 -0.89057860 0.00000000 / 128 22 0 255 / -0.79749620 2.46909500
				-26.37061000 18.35693000 -12.80713000 / 0.45482920 -0.89057870 0.00000000 / 128 22 0 255 / -0.79749620 2.46909500
				-28.62695000 17.20459000 -12.80713000 / 0.45482920 -0.89057860 0.00000000 / 128 26 0 255 / -0.90851340 2.46909500
				-28.62695000 17.20459000 -13.32812000 / 0.45482920 -0.89057870 0.00000000 / 128 24 0 255 / -0.90851340 2.58987700
				-28.62695000 17.20459000 -13.32812000 / 0.45482920 -0.89057860 0.00000000 / 128 24 0 255 / -0.90851340 2.58987700
				-35.85596000 -3.81201200 -15.25342000 / -0.88046090 -0.47411860 0.00000000 / 146 20 0 255 / 0.64378030 3.03622200
				-35.37354000 -3.52880900 -15.25342000 / -0.48556390 0.87420110 0.00000000 / 95 116 0 255 / 2.24046200 3.03622200
				-26.37061000 18.35693000 -13.32812000 / 0.45482920 -0.89057860 0.00000000 / 128 86 0 255 / -0.79749620 2.58987700
				-28.62695000 17.20459000 -12.73340000 / -0.45482920 0.89057870 0.00000000 / 96 28 0 255 / 1.90851300 2.45200200
				-28.62695000 17.20459000 -12.73340000 / -0.45482920 0.89057870 0.00000000 / 96 28 0 255 / 1.90851300 2.45200200
				-28.62695000 17.20459000 -10.93994000 / -0.45482920 0.89057870 0.00000000 / 95 30 0 255 / 1.90851300 2.03622200
				-26.37061000 18.35693000 -10.93994000 / -0.45482920 0.89057870 0.00000000 / 96 26 0 255 / 1.79749600 2.03622200
				-26.37061000 18.35693000 -10.93994000 / -0.45482920 0.89057870 0.00000000 / 96 26 0 255 / 1.79749600 2.03622200
				-26.37061000 18.35693000 -12.73340000 / -0.45482920 0.89057870 0.00000000 / 96 94 0 255 / 1.79749600 2.45200200
				-26.37061000 18.35693000 -10.93994000 / 0.45482920 -0.89057870 0.00000000 / 96 26 0 255 / -0.79749620 2.03622200
				-26.37061000 18.35693000 -10.93994000 / 0.45482920 -0.89057870 0.00000000 / 96 26 0 255 / -0.79749620 2.03622200
				-28.62695000 17.20459000 -10.93994000 / 0.45482920 -0.89057870 0.00000000 / 95 30 0 255 / -0.90851340 2.03622200
				-35.37354000 -3.52880900 -12.07373000 / 0.48556400 -0.87420110 0.00000000 / 94 17 0 255 / -1.24046200 2.29907000
				-28.62695000 17.20459000 -12.73340000 / 0.45482920 -0.89057870 0.00000000 / 96 28 0 255 / -0.90851340 2.45200200
				-28.62695000 17.20459000 -12.73340000 / 0.45482920 -0.89057870 0.00000000 / 96 28 0 255 / -0.90851340 2.45200200
				-26.37061000 18.35693000 -12.73340000 / 0.45482920 -0.89057870 0.00000000 / 96 94 0 255 / -0.79749620 2.45200200
				-23.45850000 19.83838000 -12.07373000 / -0.45428970 0.89085410 0.00000000 / 136 16 0 255 / 1.65421400 2.29907000
				-23.45850000 19.83838000 -12.07373000 / -0.45428970 0.89085410 0.00000000 / 136 16 0 255 / 1.65421400 2.29907000
				-23.45850000 19.83838000 -15.25342000 / -0.45428970 0.89085390 0.00000000 / 137 36 0 255 / 1.65421400 3.03622200
				-26.30518000 18.38672000 -15.25342000 / -0.45428970 0.89085410 0.00000000 / 136 18 0 255 / 1.79427700 3.03622200
				-26.30518000 18.38672000 -15.25342000 / -0.45428970 0.89085410 0.00000000 / 136 18 0 255 / 1.79427700 3.03622200
				-26.30518000 18.38672000 -12.07373000 / -0.45428970 0.89085390 0.00000000 / 136 17 0 255 / 1.79427700 2.29907000
				-26.30518000 18.38672000 -15.25342000 / 0.45428970 -0.89085410 0.00000000 / 136 18 0 255 / -0.79427680 3.03622200
				-35.37354000 -3.52880900 -12.07373000 / 0.48556390 -0.87420110 0.00000000 / 94 17 0 255 / -1.24046200 2.29907000
				-26.30518000 18.38672000 -15.25342000 / 0.45428970 -0.89085410 0.00000000 / 136 18 0 255 / -0.79427680 3.03622200
				-23.45850000 19.83838000 -15.25342000 / 0.45428970 -0.89085390 0.00000000 / 137 36 0 255 / -0.65421350 3.03622200
				-23.45850000 19.83838000 -12.07373000 / 0.45428970 -0.89085410 0.00000000 / 136 16 0 255 / -0.65421350 2.29907000
				-23.45850000 19.83838000 -12.07373000 / 0.45428970 -0.89085410 0.00000000 / 136 16 0 255 / -0.65421350 2.29907000
				-26.30518000 18.38672000 -12.07373000 / 0.45428970 -0.89085390 0.00000000 / 136 17 0 255 / -0.79427680 2.29907000
				-26.30518000 18.38672000 -12.00146000 / -0.45428980 0.89085400 0.00000000 / 77 24 0 255 / 1.79427700 2.28231500
				-26.30518000 18.38672000 -12.00146000 / -0.45428970 0.89085410 0.00000000 / 77 24 0 255 / 1.79427700 2.28231500
				-26.30518000 18.38672000 -10.93994000 / -0.45428970 0.89085390 0.00000000 / 77 23 0 255 / 1.79427700 2.03622200
				-23.45850000 19.83838000 -10.93994000 / -0.45428970 0.89085410 0.00000000 / 77 22 0 255 / 1.65421400 2.03622200
				-23.45850000 19.83838000 -10.93994000 / -0.45428980 0.89085400 0.00000000 / 77 22 0 255 / 1.65421400 2.03622200
				-35.81836000 -3.77587900 -12.07373000 / 0.48556390 -0.87420110 0.00000000 / 94 18 0 255 / -1.26234800 2.29907000
				-23.45850000 19.83838000 -12.00146000 / -0.45428970 0.89085390 0.00000000 / 78 77 0 255 / 1.65421400 2.28231500
				-23.45850000 19.83838000 -10.93994000 / 0.45428970 -0.89085410 0.00000000 / 77 22 0 255 / -0.65421350 2.03622200
				-23.45850000 19.83838000 -10.93994000 / 0.45428980 -0.89085400 0.00000000 / 77 22 0 255 / -0.65421350 2.03622200
				-26.30518000 18.38672000 -10.93994000 / 0.45428970 -0.89085390 0.00000000 / 77 23 0 255 / -0.79427680 2.03622200
				-26.30518000 18.38672000 -12.00146000 / 0.45428980 -0.89085400 0.00000000 / 77 24 0 255 / -0.79427680 2.28231500
				-26.30518000 18.38672000 -12.00146000 / 0.45428970 -0.89085410 0.00000000 / 77 24 0 255 / -0.79427680 2.28231500
				-23.45850000 19.83838000 -12.00146000 / 0.45428970 -0.89085390 0.00000000 / 78 77 0 255 / -0.65421350 2.28231500
				-21.95850000 20.60205000 -12.07373000 / -0.45432610 0.89083550 0.00000000 / 141 12 0 255 / 1.58041000 2.29907000
				-21.95850000 20.60205000 -12.07373000 / -0.45432610 0.89083550 0.00000000 / 141 12 0 255 / 1.58041000 2.29907000
				-20.54248000 21.32422000 -12.07373000 / -0.45432610 0.89083550 0.00000000 / 140 15 0 255 / 1.51073800 2.29907000
				-35.81836000 -3.77587900 -15.25342000 / 0.48556390 -0.87420110 0.00000000 / 94 18 0 255 / -1.26234800 3.03622200
				-20.54248000 21.32422000 -15.25342000 / -0.45432610 0.89083550 0.00000000 / 141 16 0 255 / 1.51073800 3.03622200
				-20.54248000 21.32422000 -15.25342000 / -0.45432610 0.89083550 0.00000000 / 141 16 0 255 / 1.51073800 3.03622200
				-21.95850000 20.60205000 -15.25342000 / -0.45432610 0.89083550 0.00000000 / 141 8 0 255 / 1.58041000 3.03622200
				-20.54248000 21.32422000 -15.25342000 / 0.45432610 -0.89083550 0.00000000 / 141 16 0 255 / -0.51073850 3.03622200
				-20.54248000 21.32422000 -15.25342000 / 0.45432610 -0.89083550 0.00000000 / 141 16 0 255 / -0.51073850 3.03622200
				-20.54248000 21.32422000 -12.07373000 / 0.45432610 -0.89083550 0.00000000 / 140 15 0 255 / -0.51073850 2.29907000
				-21.95850000 20.60205000 -12.07373000 / 0.45432610 -0.89083550 0.00000000 / 141 12 0 255 / -0.58041000 2.29907000
				-21.95850000 20.60205000 -12.07373000 / 0.45432610 -0.89083550 0.00000000 / 141 12 0 255 / -0.58041000 2.29907000
				-21.95850000 20.60205000 -15.25342000 / 0.45432610 -0.89083550 0.00000000 / 141 8 0 255 / -0.58041000 3.03622200
				-23.38916000 19.87256000 -12.00146000 / -0.45428980 0.89085400 0.00000000 / 78 23 0 255 / 1.65080200 2.28231500
				-35.81836000 -3.77587900 -15.25342000 / 0.48556400 -0.87420110 0.00000000 / 94 18 0 255 / -1.26234800 3.03622200
				-23.38916000 19.87256000 -12.00146000 / -0.45428970 0.89085410 0.00000000 / 78 23 0 255 / 1.65080200 2.28231500
				-23.38916000 19.87256000 -10.93994000 / -0.45428970 0.89085390 0.00000000 / 78 23 0 255 / 1.65080200 2.03622200
				-20.54248000 21.32422000 -10.93994000 / -0.45428970 0.89085410 0.00000000 / 78 20 0 255 / 1.51073800 2.03622200
				-20.54248000 21.32422000 -10.93994000 / -0.45428980 0.89085400 0.00000000 / 78 20 0 255 / 1.51073800 2.03622200
				-20.54248000 21.32422000 -12.00146000 / -0.45428970 0.89085390 0.00000000 / 78 66 0 255 / 1.51073800 2.28231500
				-20.54248000 21.32422000 -10.93994000 / 0.45428970 -0.89085410 0.00000000 / 78 20 0 255 / -0.51073850 2.03622200
				-20.54248000 21.32422000 -10.93994000 / 0.45428980 -0.89085400 0.00000000 / 78 20 0 255 / -0.51073850 2.03622200
				-23.38916000 19.87256000 -10.93994000 / 0.45428970 -0.89085390 0.00000000 / 78 23 0 255 / -0.65080180 2.03622200
				-23.38916000 19.87256000 -12.00146000 / 0.45428980 -0.89085400 0.00000000 / 78 23 0 255 / -0.65080180 2.28231500
				-23.38916000 19.87256000 -12.00146000 / 0.45428970 -0.89085410 0.00000000 / 78 23 0 255 / -0.65080180 2.28231500
				-35.37354000 -3.52880900 -15.25342000 / 0.48556390 -0.87420110 0.00000000 / 95 116 0 255 / -1.24046200 3.03622200
				-20.54248000 21.32422000 -12.00146000 / 0.45428970 -0.89085390 0.00000000 / 78 66 0 255 / -0.51073850 2.28231500
				-21.98633000 20.58789000 -12.07373000 / -0.45426900 0.89086460 0.00000000 / 139 15 0 255 / 1.58177900 2.29907000
				-21.98633000 20.58789000 -12.07373000 / -0.45426910 0.89086460 0.00000000 / 139 15 0 255 / 1.58177900 2.29907000
				-21.98633000 20.58789000 -15.25342000 / -0.45426900 0.89086460 0.00000000 / 139 13 0 255 / 1.58177900 3.03622200
				-23.38916000 19.87256000 -15.25342000 / -0.45426910 0.89086460 0.00000000 / 139 15 0 255 / 1.65080200 3.03622200
				-23.38916000 19.87256000 -15.25342000 / -0.45426900 0.89086460 0.00000000 / 139 15 0 255 / 1.65080200 3.03622200
				-23.38916000 19.87256000 -12.07373000 / -0.45426900 0.89086460 0.00000000 / 139 17 0 255 / 1.65080200 2.29907000
				-23.38916000 19.87256000 -15.25342000 / 0.45426910 -0.89086460 0.00000000 / 139 15 0 255 / -0.65080180 3.03622200
				-23.38916000 19.87256000 -15.25342000 / 0.45426900 -0.89086460 0.00000000 / 139 15 0 255 / -0.65080180 3.03622200
				-21.98633000 20.58789000 -15.25342000 / 0.45426900 -0.89086460 0.00000000 / 139 13 0 255 / -0.58177920 3.03622200
				-35.81836000 -3.77587900 -12.00146000 / -0.48556390 0.87420110 0.00000000 / 61 19 0 255 / 2.26234800 2.28231500
				-21.98633000 20.58789000 -12.07373000 / 0.45426900 -0.89086460 0.00000000 / 139 15 0 255 / -0.58177920 2.29907000
				-21.98633000 20.58789000 -12.07373000 / 0.45426910 -0.89086460 0.00000000 / 139 15 0 255 / -0.58177920 2.29907000
				-23.38916000 19.87256000 -12.07373000 / 0.45426900 -0.89086460 0.00000000 / 139 17 0 255 / -0.65080180 2.29907000
				-35.81836000 -3.77587900 -12.00146000 / -0.48556390 0.87420110 0.00000000 / 61 19 0 255 / 2.26234800 2.28231500
				-35.81836000 -3.77587900 -10.93994000 / -0.48556390 0.87420110 0.00000000 / 61 20 0 255 / 2.26234800 2.03622200
				-35.11475000 -5.18847600 -15.25342000 / -0.88046100 -0.47411870 0.00000000 / 146 64 0 255 / 0.69569740 3.03622200
				-35.37354000 -3.52880900 -10.93994000 / -0.48556390 0.87420110 0.00000000 / 61 19 0 255 / 2.24046200 2.03622200
				-35.37354000 -3.52880900 -10.93994000 / -0.48556390 0.87420110 0.00000000 / 61 19 0 255 / 2.24046200 2.03622200
				-35.37354000 -3.52880900 -12.00146000 / -0.48556390 0.87420110 0.00000000 / 61 71 0 255 / 2.24046200 2.28231500
				-35.37354000 -3.52880900 -10.93994000 / 0.48556390 -0.87420110 0.00000000 / 61 19 0 255 / -1.24046200 2.03622200
				-35.37354000 -3.52880900 -10.93994000 / 0.48556390 -0.87420110 0.00000000 / 61 19 0 255 / -1.24046200 2.03622200
				-35.81836000 -3.77587900 -10.93994000 / 0.48556390 -0.87420110 0.00000000 / 61 20 0 255 / -1.26234800 2.03622200
				-35.81836000 -3.77587900 -12.00146000 / 0.48556390 -0.87420110 0.00000000 / 61 19 0 255 / -1.26234800 2.28231500
				-35.81836000 -3.77587900 -12.00146000 / 0.48556390 -0.87420110 0.00000000 / 61 19 0 255 / -1.26234800 2.28231500
				-35.37354000 -3.52880900 -12.00146000 / 0.48556390 -0.87420110 0.00000000 / 61 71 0 255 / -1.24046200 2.28231500
				-37.10303000 -1.45751900 -15.25342000 / 0.48408520 -0.87502080 0.00000000 / 90 12 0 204 / -1.32555700 3.03622200
				-35.11475000 -5.18847600 -15.25342000 / -0.88046090 -0.47411860 0.00000000 / 146 64 0 255 / 0.69569740 3.03622200
				-37.10303000 -1.45751900 -15.25342000 / 0.48408520 -0.87502090 0.00000000 / 90 12 0 204 / -1.32555700 3.03622200
				-36.65820000 -1.21142600 -15.25342000 / 0.48408530 -0.87502090 0.00000000 / 91 15 0 204 / -1.30367000 3.03622200
				-36.65820000 -1.21142600 -12.07373000 / 0.48408520 -0.87502090 0.00000000 / 90 12 0 204 / -1.30367000 2.29907000
				-36.65820000 -1.21142600 -12.07373000 / 0.48408520 -0.87502080 0.00000000 / 90 12 0 204 / -1.30367000 2.29907000
				-37.10303000 -1.45751900 -12.07373000 / 0.48408530 -0.87502090 0.00000000 / 90 11 0 204 / -1.32555700 2.29907000
				-36.65820000 -1.21142600 -12.07373000 / -0.48408520 0.87502090 0.00000000 / 90 12 0 204 / 2.30367000 2.29907000
				-36.65820000 -1.21142600 -12.07373000 / -0.48408520 0.87502080 0.00000000 / 90 12 0 204 / 2.30367000 2.29907000
				-36.65820000 -1.21142600 -15.25342000 / -0.48408530 0.87502090 0.00000000 / 91 15 0 204 / 2.30367000 3.03622200
				-37.10303000 -1.45751900 -15.25342000 / -0.48408520 0.87502080 0.00000000 / 90 12 0 204 / 2.32555700 3.03622200
				-37.10303000 -1.45751900 -15.25342000 / -0.48408520 0.87502090 0.00000000 / 90 12 0 204 / 2.32555700 3.03622200
				-35.11475000 -5.18847600 -12.07373000 / -0.88046090 -0.47411860 0.00000000 / 145 21 0 255 / 0.69569740 2.29907000
				-37.10303000 -1.45751900 -12.07373000 / -0.48408530 0.87502090 0.00000000 / 90 11 0 204 / 2.32555700 2.29907000
				-37.10303000 -1.45751900 -12.00146000 / 0.48408530 -0.87502090 0.00000000 / 60 6 0 204 / -1.32555700 2.28231500
				-37.10303000 -1.45751900 -12.00146000 / 0.48408520 -0.87502080 0.00000000 / 60 6 0 204 / -1.32555700 2.28231500
				-36.65820000 -1.21142600 -12.00146000 / 0.48408520 -0.87502080 0.00000000 / 61 11 0 204 / -1.30367000 2.28231500
				-36.65820000 -1.21142600 -10.93994000 / 0.48408520 -0.87502080 0.00000000 / 60 6 0 204 / -1.30367000 2.03622200
				-36.65820000 -1.21142600 -10.93994000 / 0.48408530 -0.87502090 0.00000000 / 60 6 0 204 / -1.30367000 2.03622200
				-37.10303000 -1.45751900 -10.93994000 / 0.48408520 -0.87502080 0.00000000 / 60 5 0 204 / -1.32555700 2.03622200
				-36.65820000 -1.21142600 -10.93994000 / -0.48408520 0.87502080 0.00000000 / 60 6 0 204 / 2.30367000 2.03622200
				-36.65820000 -1.21142600 -10.93994000 / -0.48408530 0.87502090 0.00000000 / 60 6 0 204 / 2.30367000 2.03622200
				-36.65820000 -1.21142600 -12.00146000 / -0.48408520 0.87502080 0.00000000 / 61 11 0 204 / 2.30367000 2.28231500
				-35.11475000 -5.18847600 -15.25342000 / 0.88046100 0.47411870 0.00000000 / 146 64 0 255 / 0.30430250 3.03622200
				-37.10303000 -1.45751900 -12.00146000 / -0.48408530 0.87502090 0.00000000 / 60 6 0 204 / 2.32555700 2.28231500
				-37.10303000 -1.45751900 -12.00146000 / -0.48408520 0.87502080 0.00000000 / 60 6 0 204 / 2.32555700 2.28231500
				-37.10303000 -1.45751900 -10.93994000 / -0.48408520 0.87502080 0.00000000 / 60 5 0 204 / 2.32555700 2.03622200
				-35.35205000 -3.45117200 -13.32812000 / -0.87415730 -0.48564290 0.00000000 / 118 67 0 255 / 0.63017020 2.58987700
				-35.35205000 -3.45117200 -13.32812000 / -0.87415740 -0.48564290 0.00000000 / 118 67 0 255 / 0.63017020 2.58987700
				-35.35205000 -3.45117200 -12.80713000 / -0.87415720 -0.48564280 0.00000000 / 117 19 0 255 / 0.63017020 2.46909500
				-36.58252000 -1.23632800 -12.80713000 / -0.87415740 -0.48564290 0.00000000 / 118 20 0 255 / 0.54663120 2.46909500
				-36.58252000 -1.23632800 -12.80713000 / -0.87415730 -0.48564290 0.00000000 / 118 20 0 255 / 0.54663120 2.46909500
				-36.58252000 -1.23632800 -13.32812000 / -0.87415720 -0.48564280 0.00000000 / 118 22 0 255 / 0.54663120 2.58987700
				-36.58252000 -1.23632800 -12.80713000 / 0.87415740 0.48564290 0.00000000 / 118 20 0 255 / 0.45336880 2.46909500
				-35.11475000 -5.18847600 -15.25342000 / 0.88046090 0.47411860 0.00000000 / 146 64 0 255 / 0.30430250 3.03622200
				-36.58252000 -1.23632800 -12.80713000 / 0.87415730 0.48564290 0.00000000 / 118 20 0 255 / 0.45336880 2.46909500
				-35.35205000 -3.45117200 -12.80713000 / 0.87415720 0.48564280 0.00000000 / 117 19 0 255 / 0.36982980 2.46909500
				-35.35205000 -3.45117200 -13.32812000 / 0.87415730 0.48564290 0.00000000 / 118 67 0 255 / 0.36982980 2.58987700
				-35.35205000 -3.45117200 -13.32812000 / 0.87415740 0.48564290 0.00000000 / 118 67 0 255 / 0.36982980 2.58987700
				-36.58252000 -1.23632800 -13.32812000 / 0.87415720 0.48564280 0.00000000 / 118 22 0 255 / 0.45336880 2.58987700
				-35.35205000 -3.45117200 -12.73340000 / -0.87415740 -0.48564290 0.00000000 / 79 65 0 255 / 0.63017020 2.45200200
				-35.35205000 -3.45117200 -12.73340000 / -0.87415730 -0.48564290 0.00000000 / 79 65 0 255 / 0.63017020 2.45200200
				-35.35205000 -3.45117200 -10.93994000 / -0.87415720 -0.48564280 0.00000000 / 78 24 0 255 / 0.63017020 2.03622200
				-36.58252000 -1.23632800 -10.93994000 / -0.87415730 -0.48564290 0.00000000 / 79 23 0 255 / 0.54663120 2.03622200
				-36.58252000 -1.23632800 -10.93994000 / -0.87415740 -0.48564290 0.00000000 / 79 23 0 255 / 0.54663120 2.03622200
				-35.85596000 -3.81201200 -15.25342000 / 0.88046090 0.47411860 0.00000000 / 146 20 0 255 / 0.35621970 3.03622200
				-36.58252000 -1.23632800 -12.73340000 / -0.87415720 -0.48564280 0.00000000 / 79 23 0 255 / 0.54663120 2.45200200
				-36.58252000 -1.23632800 -10.93994000 / 0.87415730 0.48564290 0.00000000 / 79 23 0 255 / 0.45336880 2.03622200
				-36.58252000 -1.23632800 -10.93994000 / 0.87415740 0.48564290 0.00000000 / 79 23 0 255 / 0.45336880 2.03622200
				-35.35205000 -3.45117200 -10.93994000 / 0.87415720 0.48564280 0.00000000 / 78 24 0 255 / 0.36982980 2.03622200
				-35.35205000 -3.45117200 -12.73340000 / 0.87415740 0.48564290 0.00000000 / 79 65 0 255 / 0.36982980 2.45200200
				-35.35205000 -3.45117200 -12.73340000 / 0.87415730 0.48564290 0.00000000 / 79 65 0 255 / 0.36982980 2.45200200
				-36.58252000 -1.23632800 -12.73340000 / 0.87415720 0.48564280 0.00000000 / 79 23 0 255 / 0.45336880 2.45200200
				-38.70410000 1.32568400 -12.07373000 / -0.87444540 -0.48512380 0.00000000 / 135 25 0 255 / 0.44999780 2.29907000
				-38.70410000 1.32568400 -12.07373000 / -0.87444550 -0.48512390 0.00000000 / 135 25 0 255 / 0.44999780 2.29907000
				-38.70410000 1.32568400 -15.25342000 / -0.87444540 -0.48512380 0.00000000 / 136 23 0 255 / 0.44999780 3.03622200
			}
		}
	}
}
