Version 165 32
{
	Locked False
	Skinned False
	BoneCount 0
	Mask 255
	Bounds
	{
		Aabb
		{
			Min 2.53513200 -12.38827000 0.54888010
			Max 8.95445400 9.11069500 2.58666600
		}
	}
	Geometries
	{
		Geometry
		{
			ShaderIndex 13
			Flags -
			VertexDeclaration N51263BB5
			Indices 108
			{
				0 6 24 25 42 1 59 79 96 97 103 60 17 51 105
				106 84 18 35 104 68 69 100 36 2 7 12 13 10 3
				4 107 8 9 11 5 15 21 28 29 26 16 19 14 22
				23 27 20 31 37 43 44 40 32 33 30 38 39 41 34
				46 50 56 57 54 47 48 45 52 53 55 49 61 65 72
				73 70 62 63 58 66 67 71 64 75 80 86 87 83 76
				77 74 81 82 85 78 89 93 101 102 98 90 91 88 95
				94 99 92
			}
			Vertices 108
			{
				8.95445400 6.05474300 0.97219510 / 1.00000000 0.00000000 0.00000000 / 255 255 255 255 / 0.00000000 0.00000000 / 0.00000000 1.00000000 0.00000000 1.00000000
				8.95445400 6.05474300 0.97219510 / 1.00000000 0.00000000 0.00000000 / 255 255 255 255 / 0.00000000 0.00000000 / 0.00000000 1.00000000 0.00000000 1.00000000
				2.59720800 -0.17160610 0.54888010 / 1.00000000 0.00000000 0.00000000 / 255 255 255 255 / 0.00000000 0.00000000 / 0.00000000 1.00000000 0.00000000 1.00000000
				2.59720800 -0.17160610 0.54888010 / 1.00000000 0.00000000 0.00000000 / 255 255 255 255 / 0.00000000 0.00000000 / 0.00000000 1.00000000 0.00000000 1.00000000
				2.53513200 1.19562700 0.54888010 / -1.00000000 0.00000000 0.00000000 / 255 255 255 255 / 0.00000000 0.00000000 / 0.00000000 -1.00000000 0.00000000 1.00000000
				2.53513200 1.19562700 0.54888010 / -1.00000000 0.00000000 0.00000000 / 255 255 255 255 / 0.00000000 0.00000000 / 0.00000000 -1.00000000 0.00000000 1.00000000
				8.95445400 9.09616500 0.97219510 / 1.00000000 0.00000000 0.00000000 / 255 255 255 255 / 1.00000000 0.00000000 / 0.00000000 1.00000000 0.00000000 1.00000000
				2.59720800 1.19562700 0.54888010 / 1.00000000 0.00000000 0.00000000 / 255 255 255 255 / 1.00000000 0.00000000 / 0.00000000 1.00000000 0.00000000 1.00000000
				2.53513200 -0.17160610 2.39930400 / -1.00000000 0.00000000 0.00000000 / 255 255 255 255 / 1.00000000 -1.00000000 / 0.00000000 -1.00000000 0.00000000 1.00000000
				2.53513200 -0.17160610 2.39930400 / -1.00000000 0.00000000 0.00000000 / 255 255 255 255 / 1.00000000 -1.00000000 / 0.00000000 -1.00000000 0.00000000 1.00000000
				2.59720800 -0.17160610 2.39930400 / 1.00000000 0.00000000 0.00000000 / 255 255 255 255 / 0.00000000 -1.00000000 / 0.00000000 1.00000000 0.00000000 1.00000000
				2.53513200 1.19562700 2.39930400 / -1.00000000 0.00000000 0.00000000 / 255 255 255 255 / 0.00000000 -1.00000000 / 0.00000000 -1.00000000 0.00000000 1.00000000
				2.59720800 1.19562700 2.39930400 / 1.00000000 0.00000000 0.00000000 / 255 255 255 255 / 1.00000000 -1.00000000 / 0.00000000 1.00000000 0.00000000 1.00000000
				2.59720800 1.19562700 2.39930400 / 1.00000000 0.00000000 0.00000000 / 255 255 255 255 / 1.00000000 -1.00000000 / 0.00000000 1.00000000 0.00000000 1.00000000
				2.53513200 -1.99950000 0.54888010 / -1.00000000 0.00000000 0.00000000 / 255 255 255 255 / 1.00000000 0.00000000 / 0.00000000 -1.00000000 0.00000000 1.00000000
				2.59720800 -1.99950000 0.54888010 / 1.00000000 0.00000000 0.00000000 / 255 255 255 255 / 0.00000000 0.00000000 / 0.00000000 1.00000000 0.00000000 1.00000000
				2.59720800 -1.99950000 0.54888010 / 1.00000000 0.00000000 0.00000000 / 255 255 255 255 / 0.00000000 0.00000000 / 0.00000000 1.00000000 0.00000000 1.00000000
				2.59720800 -12.38827000 0.54888010 / 1.00000000 0.00000000 0.00000000 / 255 255 255 255 / 0.00000000 0.00000000 / 0.00000000 1.00000000 0.00000000 1.00000000
				2.59720800 -12.38827000 0.54888010 / 1.00000000 0.00000000 0.00000000 / 255 255 255 255 / 0.00000000 0.00000000 / 0.00000000 1.00000000 0.00000000 1.00000000
				2.53513200 -0.38460730 0.54888010 / -1.00000000 0.00000000 0.00000000 / 255 255 255 255 / 0.00000000 0.00000000 / 0.00000000 -1.00000000 0.00000000 1.00000000
				2.53513200 -0.38460730 0.54888010 / -1.00000000 0.00000000 0.00000000 / 255 255 255 255 / 0.00000000 0.00000000 / 0.00000000 -1.00000000 0.00000000 1.00000000
				2.59720800 -0.38460730 0.54888010 / 1.00000000 0.00000000 0.00000000 / 255 255 255 255 / 1.00000000 0.00000000 / 0.00000000 1.00000000 0.00000000 1.00000000
				2.53513200 -1.99950000 2.39930400 / -1.00000000 0.00000000 0.00000000 / 255 255 255 255 / 1.00000000 -1.00000000 / 0.00000000 -1.00000000 0.00000000 1.00000000
				2.53513200 -1.99950000 2.39930400 / -1.00000000 0.00000000 0.00000000 / 255 255 255 255 / 1.00000000 -1.00000000 / 0.00000000 -1.00000000 0.00000000 1.00000000
				8.95445400 9.09616500 2.58666600 / 1.00000000 0.00000000 0.00000000 / 255 255 255 255 / 1.00000000 -1.00000000 / 0.00000000 1.00000000 0.00000000 1.00000000
				8.95445400 9.09616500 2.58666600 / 1.00000000 0.00000000 0.00000000 / 255 255 255 255 / 1.00000000 -1.00000000 / 0.00000000 1.00000000 0.00000000 1.00000000
				2.59720800 -1.99950000 2.39930400 / 1.00000000 0.00000000 0.00000000 / 255 255 255 255 / 0.00000000 -1.00000000 / 0.00000000 1.00000000 0.00000000 1.00000000
				2.53513200 -0.38460730 2.39930400 / -1.00000000 0.00000000 0.00000000 / 255 255 255 255 / 0.00000000 -1.00000000 / 0.00000000 -1.00000000 0.00000000 1.00000000
				2.59720800 -0.38460730 2.39930400 / 1.00000000 0.00000000 0.00000000 / 255 255 255 255 / 1.00000000 -1.00000000 / 0.00000000 1.00000000 0.00000000 1.00000000
				2.59720800 -0.38460730 2.39930400 / 1.00000000 0.00000000 0.00000000 / 255 255 255 255 / 1.00000000 -1.00000000 / 0.00000000 1.00000000 0.00000000 1.00000000
				2.53513200 -3.65214300 0.54888010 / -1.00000000 0.00000000 0.00000000 / 255 255 255 255 / 1.00000000 0.00000000 / 0.00000000 -1.00000000 0.00000000 1.00000000
				2.59720800 -3.65214300 0.54888010 / 1.00000000 0.00000000 0.00000000 / 255 255 255 255 / 0.00000000 0.00000000 / 0.00000000 1.00000000 0.00000000 1.00000000
				2.59720800 -3.65214300 0.54888010 / 1.00000000 0.00000000 0.00000000 / 255 255 255 255 / 0.00000000 0.00000000 / 0.00000000 1.00000000 0.00000000 1.00000000
				2.53513200 -2.21250200 0.54888010 / -1.00000000 0.00000000 0.00000000 / 255 255 255 255 / 0.00000000 0.00000000 / 0.00000000 -1.00000000 0.00000000 1.00000000
				2.53513200 -2.21250200 0.54888010 / -1.00000000 0.00000000 0.00000000 / 255 255 255 255 / 0.00000000 0.00000000 / 0.00000000 -1.00000000 0.00000000 1.00000000
				2.53513200 -10.82621000 0.54888010 / -1.00000000 0.00000000 0.00000000 / 255 255 255 255 / 0.00000000 0.00000000 / 0.00000000 -1.00000000 0.00000000 1.00000000
				2.53513200 -10.82621000 0.54888010 / -1.00000000 0.00000000 0.00000000 / 255 255 255 255 / 0.00000000 0.00000000 / 0.00000000 -1.00000000 0.00000000 1.00000000
				2.59720800 -2.21250200 0.54888010 / 1.00000000 0.00000000 0.00000000 / 255 255 255 255 / 1.00000000 0.00000000 / 0.00000000 1.00000000 0.00000000 1.00000000
				2.53513200 -3.65214300 2.39930400 / -1.00000000 0.00000000 0.00000000 / 255 255 255 255 / 1.00000000 -1.00000000 / 0.00000000 -1.00000000 0.00000000 1.00000000
				2.53513200 -3.65214300 2.39930400 / -1.00000000 0.00000000 0.00000000 / 255 255 255 255 / 1.00000000 -1.00000000 / 0.00000000 -1.00000000 0.00000000 1.00000000
				2.59720800 -3.65214300 2.39930400 / 1.00000000 0.00000000 0.00000000 / 255 255 255 255 / 0.00000000 -1.00000000 / 0.00000000 1.00000000 0.00000000 1.00000000
				2.53513200 -2.21250200 2.39930400 / -1.00000000 0.00000000 0.00000000 / 255 255 255 255 / 0.00000000 -1.00000000 / 0.00000000 -1.00000000 0.00000000 1.00000000
				8.95445400 6.05474700 2.58666600 / 1.00000000 0.00000000 0.00000000 / 255 255 255 255 / 0.00000000 -1.00000000 / 0.00000000 1.00000000 0.00000000 1.00000000
				2.59720800 -2.21250200 2.39930400 / 1.00000000 0.00000000 0.00000000 / 255 255 255 255 / 1.00000000 -1.00000000 / 0.00000000 1.00000000 0.00000000 1.00000000
				2.59720800 -2.21250200 2.39930400 / 1.00000000 0.00000000 0.00000000 / 255 255 255 255 / 1.00000000 -1.00000000 / 0.00000000 1.00000000 0.00000000 1.00000000
				2.53513200 -5.48003800 0.54888010 / -1.00000000 0.00000000 0.00000000 / 255 255 255 255 / 1.00000000 0.00000000 / 0.00000000 -1.00000000 0.00000000 1.00000000
				2.59720800 -5.48003800 0.54888010 / 1.00000000 0.00000000 0.00000000 / 255 255 255 255 / 0.00000000 0.00000000 / 0.00000000 1.00000000 0.00000000 1.00000000
				2.59720800 -5.48003800 0.54888010 / 1.00000000 0.00000000 0.00000000 / 255 255 255 255 / 0.00000000 0.00000000 / 0.00000000 1.00000000 0.00000000 1.00000000
				2.53513200 -3.86514400 0.54888010 / -1.00000000 0.00000000 0.00000000 / 255 255 255 255 / 0.00000000 0.00000000 / 0.00000000 -1.00000000 0.00000000 1.00000000
				2.53513200 -3.86514400 0.54888010 / -1.00000000 0.00000000 0.00000000 / 255 255 255 255 / 0.00000000 0.00000000 / 0.00000000 -1.00000000 0.00000000 1.00000000
				2.59720800 -3.86514400 0.54888010 / 1.00000000 0.00000000 0.00000000 / 255 255 255 255 / 1.00000000 0.00000000 / 0.00000000 1.00000000 0.00000000 1.00000000
				2.59720800 -10.82621000 0.54888010 / 1.00000000 0.00000000 0.00000000 / 255 255 255 255 / 1.00000000 0.00000000 / 0.00000000 1.00000000 0.00000000 1.00000000
				2.53513200 -5.48003800 2.39930400 / -1.00000000 0.00000000 0.00000000 / 255 255 255 255 / 1.00000000 -1.00000000 / 0.00000000 -1.00000000 0.00000000 1.00000000
				2.53513200 -5.48003800 2.39930400 / -1.00000000 0.00000000 0.00000000 / 255 255 255 255 / 1.00000000 -1.00000000 / 0.00000000 -1.00000000 0.00000000 1.00000000
				2.59720800 -5.48003800 2.39930400 / 1.00000000 0.00000000 0.00000000 / 255 255 255 255 / 0.00000000 -1.00000000 / 0.00000000 1.00000000 0.00000000 1.00000000
				2.53513200 -3.86514400 2.39930400 / -1.00000000 0.00000000 0.00000000 / 255 255 255 255 / 0.00000000 -1.00000000 / 0.00000000 -1.00000000 0.00000000 1.00000000
				2.59720800 -3.86514400 2.39930400 / 1.00000000 0.00000000 0.00000000 / 255 255 255 255 / 1.00000000 -1.00000000 / 0.00000000 1.00000000 0.00000000 1.00000000
				2.59720800 -3.86514400 2.39930400 / 1.00000000 0.00000000 0.00000000 / 255 255 255 255 / 1.00000000 -1.00000000 / 0.00000000 1.00000000 0.00000000 1.00000000
				2.53513200 -7.13268000 0.54888010 / -1.00000000 0.00000000 0.00000000 / 255 255 255 255 / 1.00000000 0.00000000 / 0.00000000 -1.00000000 0.00000000 1.00000000
				8.88200200 9.11069500 0.97219510 / -1.00000000 0.00000000 0.00000000 / 255 255 255 255 / 0.00000000 0.00000000 / 0.00000000 -1.00000000 0.00000000 1.00000000
				8.88200200 9.11069500 0.97219510 / -1.00000000 0.00000000 0.00000000 / 255 255 255 255 / 0.00000000 0.00000000 / 0.00000000 -1.00000000 0.00000000 1.00000000
				2.59720800 -7.13268000 0.54888010 / 1.00000000 0.00000000 0.00000000 / 255 255 255 255 / 0.00000000 0.00000000 / 0.00000000 1.00000000 0.00000000 1.00000000
				2.59720800 -7.13268000 0.54888010 / 1.00000000 0.00000000 0.00000000 / 255 255 255 255 / 0.00000000 0.00000000 / 0.00000000 1.00000000 0.00000000 1.00000000
				2.53513200 -5.69303800 0.54888010 / -1.00000000 0.00000000 0.00000000 / 255 255 255 255 / 0.00000000 0.00000000 / 0.00000000 -1.00000000 0.00000000 1.00000000
				2.53513200 -5.69303800 0.54888010 / -1.00000000 0.00000000 0.00000000 / 255 255 255 255 / 0.00000000 0.00000000 / 0.00000000 -1.00000000 0.00000000 1.00000000
				2.59720800 -5.69303800 0.54888010 / 1.00000000 0.00000000 0.00000000 / 255 255 255 255 / 1.00000000 0.00000000 / 0.00000000 1.00000000 0.00000000 1.00000000
				2.53513200 -7.13268000 2.39930400 / -1.00000000 0.00000000 0.00000000 / 255 255 255 255 / 1.00000000 -1.00000000 / 0.00000000 -1.00000000 0.00000000 1.00000000
				2.53513200 -7.13268000 2.39930400 / -1.00000000 0.00000000 0.00000000 / 255 255 255 255 / 1.00000000 -1.00000000 / 0.00000000 -1.00000000 0.00000000 1.00000000
				2.53513200 -12.38827000 2.39930400 / -1.00000000 0.00000000 0.00000000 / 255 255 255 255 / 1.00000000 -1.00000000 / 0.00000000 -1.00000000 0.00000000 1.00000000
				2.53513200 -12.38827000 2.39930400 / -1.00000000 0.00000000 0.00000000 / 255 255 255 255 / 1.00000000 -1.00000000 / 0.00000000 -1.00000000 0.00000000 1.00000000
				2.59720800 -7.13268000 2.39930400 / 1.00000000 0.00000000 0.00000000 / 255 255 255 255 / 0.00000000 -1.00000000 / 0.00000000 1.00000000 0.00000000 1.00000000
				2.53513200 -5.69303800 2.39930400 / -1.00000000 0.00000000 0.00000000 / 255 255 255 255 / 0.00000000 -1.00000000 / 0.00000000 -1.00000000 0.00000000 1.00000000
				2.59720800 -5.69303800 2.39930400 / 1.00000000 0.00000000 0.00000000 / 255 255 255 255 / 1.00000000 -1.00000000 / 0.00000000 1.00000000 0.00000000 1.00000000
				2.59720800 -5.69303800 2.39930400 / 1.00000000 0.00000000 0.00000000 / 255 255 255 255 / 1.00000000 -1.00000000 / 0.00000000 1.00000000 0.00000000 1.00000000
				2.53513200 -8.96057200 0.54888010 / -1.00000000 0.00000000 0.00000000 / 255 255 255 255 / 1.00000000 0.00000000 / 0.00000000 -1.00000000 0.00000000 1.00000000
				2.59720800 -8.96057200 0.54888010 / 1.00000000 0.00000000 0.00000000 / 255 255 255 255 / 0.00000000 0.00000000 / 0.00000000 1.00000000 0.00000000 1.00000000
				2.59720800 -8.96057200 0.54888010 / 1.00000000 0.00000000 0.00000000 / 255 255 255 255 / 0.00000000 0.00000000 / 0.00000000 1.00000000 0.00000000 1.00000000
				2.53513200 -7.34567900 0.54888010 / -1.00000000 0.00000000 0.00000000 / 255 255 255 255 / 0.00000000 0.00000000 / 0.00000000 -1.00000000 0.00000000 1.00000000
				2.53513200 -7.34567900 0.54888010 / -1.00000000 0.00000000 0.00000000 / 255 255 255 255 / 0.00000000 0.00000000 / 0.00000000 -1.00000000 0.00000000 1.00000000
				8.88200200 6.05474300 0.97219510 / -1.00000000 0.00000000 0.00000000 / 255 255 255 255 / 1.00000000 0.00000000 / 0.00000000 -1.00000000 0.00000000 1.00000000
				2.59720800 -7.34567900 0.54888010 / 1.00000000 0.00000000 0.00000000 / 255 255 255 255 / 1.00000000 0.00000000 / 0.00000000 1.00000000 0.00000000 1.00000000
				2.53513200 -8.96057200 2.39930400 / -1.00000000 0.00000000 0.00000000 / 255 255 255 255 / 1.00000000 -1.00000000 / 0.00000000 -1.00000000 0.00000000 1.00000000
				2.53513200 -8.96057200 2.39930400 / -1.00000000 0.00000000 0.00000000 / 255 255 255 255 / 1.00000000 -1.00000000 / 0.00000000 -1.00000000 0.00000000 1.00000000
				2.59720800 -8.96057200 2.39930400 / 1.00000000 0.00000000 0.00000000 / 255 255 255 255 / 0.00000000 -1.00000000 / 0.00000000 1.00000000 0.00000000 1.00000000
				2.59720800 -12.38827000 2.39930400 / 1.00000000 0.00000000 0.00000000 / 255 255 255 255 / 0.00000000 -1.00000000 / 0.00000000 1.00000000 0.00000000 1.00000000
				2.53513200 -7.34567900 2.39930400 / -1.00000000 0.00000000 0.00000000 / 255 255 255 255 / 0.00000000 -1.00000000 / 0.00000000 -1.00000000 0.00000000 1.00000000
				2.59720800 -7.34567900 2.39930400 / 1.00000000 0.00000000 0.00000000 / 255 255 255 255 / 1.00000000 -1.00000000 / 0.00000000 1.00000000 0.00000000 1.00000000
				2.59720800 -7.34567900 2.39930400 / 1.00000000 0.00000000 0.00000000 / 255 255 255 255 / 1.00000000 -1.00000000 / 0.00000000 1.00000000 0.00000000 1.00000000
				2.53513200 -10.61321000 0.54888010 / -1.00000000 0.00000000 0.00000000 / 255 255 255 255 / 1.00000000 0.00000000 / 0.00000000 -1.00000000 0.00000000 1.00000000
				2.59720800 -10.61321000 0.54888010 / 1.00000000 0.00000000 0.00000000 / 255 255 255 255 / 0.00000000 0.00000000 / 0.00000000 1.00000000 0.00000000 1.00000000
				2.59720800 -10.61321000 0.54888010 / 1.00000000 0.00000000 0.00000000 / 255 255 255 255 / 0.00000000 0.00000000 / 0.00000000 1.00000000 0.00000000 1.00000000
				2.53513200 -9.17357200 0.54888010 / -1.00000000 0.00000000 0.00000000 / 255 255 255 255 / 0.00000000 0.00000000 / 0.00000000 -1.00000000 0.00000000 1.00000000
				2.53513200 -9.17357200 0.54888010 / -1.00000000 0.00000000 0.00000000 / 255 255 255 255 / 0.00000000 0.00000000 / 0.00000000 -1.00000000 0.00000000 1.00000000
				2.59720800 -9.17357200 0.54888010 / 1.00000000 0.00000000 0.00000000 / 255 255 255 255 / 1.00000000 0.00000000 / 0.00000000 1.00000000 0.00000000 1.00000000
				2.53513200 -10.61321000 2.39930400 / -1.00000000 0.00000000 0.00000000 / 255 255 255 255 / 1.00000000 -1.00000000 / 0.00000000 -1.00000000 0.00000000 1.00000000
				2.53513200 -10.61321000 2.39930400 / -1.00000000 0.00000000 0.00000000 / 255 255 255 255 / 1.00000000 -1.00000000 / 0.00000000 -1.00000000 0.00000000 1.00000000
				8.88200200 5.98621500 2.58666600 / -1.00000000 0.00000000 0.00000000 / 255 255 255 255 / 1.00000000 -1.00000000 / 0.00000000 -1.00000000 0.00000000 1.00000000
				8.88200200 5.98621500 2.58666600 / -1.00000000 0.00000000 0.00000000 / 255 255 255 255 / 1.00000000 -1.00000000 / 0.00000000 -1.00000000 0.00000000 1.00000000
				2.59720800 -10.61321000 2.39930400 / 1.00000000 0.00000000 0.00000000 / 255 255 255 255 / 0.00000000 -1.00000000 / 0.00000000 1.00000000 0.00000000 1.00000000
				2.53513200 -9.17357200 2.39930400 / -1.00000000 0.00000000 0.00000000 / 255 255 255 255 / 0.00000000 -1.00000000 / 0.00000000 -1.00000000 0.00000000 1.00000000
				2.53513200 -10.82621000 2.39930400 / -1.00000000 0.00000000 0.00000000 / 255 255 255 255 / 0.00000000 -1.00000000 / 0.00000000 -1.00000000 0.00000000 1.00000000
				2.59720800 -9.17357200 2.39930400 / 1.00000000 0.00000000 0.00000000 / 255 255 255 255 / 1.00000000 -1.00000000 / 0.00000000 1.00000000 0.00000000 1.00000000
				2.59720800 -9.17357200 2.39930400 / 1.00000000 0.00000000 0.00000000 / 255 255 255 255 / 1.00000000 -1.00000000 / 0.00000000 1.00000000 0.00000000 1.00000000
				8.88200200 9.11069500 2.58666600 / -1.00000000 0.00000000 0.00000000 / 255 255 255 255 / 0.00000000 -1.00000000 / 0.00000000 -1.00000000 0.00000000 1.00000000
				2.53513200 -12.38827000 0.54888010 / -1.00000000 0.00000000 0.00000000 / 255 255 255 255 / 1.00000000 0.00000000 / 0.00000000 -1.00000000 0.00000000 1.00000000
				2.59720800 -10.82621000 2.39930400 / 1.00000000 0.00000000 0.00000000 / 255 255 255 255 / 1.00000000 -1.00000000 / 0.00000000 1.00000000 0.00000000 1.00000000
				2.59720800 -10.82621000 2.39930400 / 1.00000000 0.00000000 0.00000000 / 255 255 255 255 / 1.00000000 -1.00000000 / 0.00000000 1.00000000 0.00000000 1.00000000
				2.53513200 -0.17160610 0.54888010 / -1.00000000 0.00000000 0.00000000 / 255 255 255 255 / 1.00000000 0.00000000 / 0.00000000 -1.00000000 0.00000000 1.00000000
			}
		}
	}
}
