Version 165 32
{
	Locked False
	Skinned False
	BoneCount 0
	Mask 255
	Bounds
	{
		Aabb
		{
			Min -6.70198400 -0.01372010 -1.37695600
			Max 6.70704400 0.01372030 1.37703900
		}
		Aabb
		{
			Min -6.70198400 -0.01372010 -1.37695600
			Max 6.70704400 0.01372030 1.37703900
		}
		Aabb
		{
			Min -6.67074500 -0.01371980 -1.34685100
			Max 6.67657500 -0.01152340 1.34562300
		}
	}
	Geometries
	{
		Geometry
		{
			ShaderIndex 0
			Flags -
			VertexDeclaration N209731BE
			Indices 66
			{
				32 51 58 59 28 33 30 36 11 12 0 31 37 39 54
				55 42 38 26 53 43 44 57 27 40 45 47 48 46 41
				34 29 49 50 52 35 61 60 2 8 3 7 23 9 10
				14 4 13 6 15 16 17 5 18 65 63 19 22 21 20
				62 64 1 25 56 24
			}
			Vertices 66
			{
				-6.70198400 -0.01152340 -1.34628300 / -0.00014310 -1.00000000 0.00000000 / 255 255 255 255 / 0.00000000 -1.00000000
				-6.70198400 0.01371990 1.34562300 / -1.00000000 0.00000000 0.00000000 / 255 255 255 255 / 0.00000000 -1.00000000
				-6.70198400 0.01372010 -1.37695600 / 0.00000000 0.00000000 -1.00000000 / 255 255 255 255 / 0.00000000 0.00000000
				6.67657500 0.01262210 -1.37683200 / 0.00000000 0.00000000 -1.00000000 / 255 255 255 255 / 1.00000000 0.00000000
				6.70704400 0.01372030 -1.37670800 / 0.00405310 0.00000000 -0.99999180 / 255 255 255 255 / 1.00000000 0.00000000
				6.70704400 0.01372020 1.34553200 / 1.00000000 0.00001740 0.00000000 / 255 255 255 255 / 1.00000000 -1.00000000
				6.70704400 -0.01372000 1.34553300 / 1.00000000 0.00000000 0.00000000 / 255 255 255 255 / 1.00000000 -1.00000000
				6.67657500 -0.01371940 -1.37683200 / 0.00000000 0.00000000 -1.00000000 / 255 255 255 255 / 1.00000000 0.00000000
				-6.70198400 0.01372010 -1.37695600 / 0.00000000 0.00000000 -1.00000000 / 255 255 255 255 / 0.00000000 0.00000000
				6.67657500 -0.01371940 -1.37683200 / 0.00405310 0.00000000 -0.99999180 / 255 255 255 255 / 0.00000000 0.00000000
				6.67657500 0.01262210 -1.37683200 / 0.00405310 0.00000000 -0.99999180 / 255 255 255 255 / 0.00000000 0.00000000
				6.67657500 -0.01371950 -1.34628300 / -0.00014310 -1.00000000 0.00000000 / 255 255 255 255 / 1.00000000 -1.00000000
				6.67657500 -0.01371950 -1.34628300 / -0.00014310 -1.00000000 0.00000000 / 255 255 255 255 / 1.00000000 -1.00000000
				6.70704400 -0.01371920 -1.37670800 / 0.00405310 0.00000000 -0.99999180 / 255 255 255 255 / 1.00000000 0.00000000
				6.67657500 0.01262210 -1.37683200 / 0.00405310 0.00000000 -0.99999180 / 255 255 255 255 / 0.00000000 0.00000000
				6.70704400 -0.01371920 -1.37670800 / 1.00000000 0.00000000 0.00000000 / 255 255 255 255 / 1.00000000 0.00000000
				6.70704400 0.01372030 -1.37670800 / 1.00000000 0.00000000 0.00000000 / 255 255 255 255 / 1.00000000 0.00000000
				6.70704400 0.01372030 -1.37670800 / 1.00000000 0.00001740 0.00000000 / 255 255 255 255 / 1.00000000 0.00000000
				6.70704400 -0.01372000 1.34553300 / 1.00000000 0.00001740 0.00000000 / 255 255 255 255 / 1.00000000 -1.00000000
				6.70704400 -0.01372000 1.34553300 / 1.00000000 0.00000000 0.00001190 / 255 255 255 255 / 1.00000000 0.00000000
				6.70704400 0.01372010 1.37703900 / 1.00000000 0.00001740 0.00000000 / 255 255 255 255 / 1.00000000 -1.00000000
				6.70704400 0.01372020 1.34553200 / 1.00000000 0.00001740 0.00000000 / 255 255 255 255 / 1.00000000 -1.00000000
				6.70704400 -0.01372000 1.34553300 / 1.00000000 0.00001740 0.00000000 / 255 255 255 255 / 1.00000000 0.00000000
				6.70704400 -0.01371920 -1.37670800 / 0.00405310 0.00000000 -0.99999180 / 255 255 255 255 / 1.00000000 0.00000000
				-6.70198400 -0.01372010 1.37703900 / -1.00000000 0.00000000 0.00000000 / 255 255 255 255 / 0.00000000 0.00000000
				-6.70198400 0.01371990 1.34562300 / -1.00000000 0.00000000 0.00000000 / 255 255 255 255 / 0.00000000 -1.00000000
				-6.70198400 -0.01372010 1.34562300 / -0.44703440 -0.89451660 -0.00035760 / 255 255 255 255 / 0.00000000 0.00000000
				-6.70198400 -0.01372010 1.34562300 / -0.44703440 -0.89451660 -0.00035760 / 255 255 255 255 / 0.00000000 0.00000000
				-6.70198400 -0.01372010 1.34562300 / -0.44703440 -0.89451660 -0.00035760 / 255 255 255 255 / 0.00000000 -1.00000000
				-6.70198400 -0.01372010 1.34562300 / -0.44703440 -0.89451660 -0.00035760 / 255 255 255 255 / 0.00000000 -1.00000000
				-6.70198400 -0.01152330 -1.37695600 / -0.55179730 -0.83397820 -0.00022650 / 255 255 255 255 / 0.00000000 0.00000000
				-6.70198400 -0.01152330 -1.37695600 / -0.55179730 -0.83397820 -0.00022650 / 255 255 255 255 / 0.00000000 0.00000000
				-6.70198400 -0.01152330 -1.37695600 / -0.55179730 -0.83397820 -0.00022650 / 255 255 255 255 / 0.00000000 0.00000000
				-6.70198400 -0.01152330 -1.37695600 / -0.55179730 -0.83397820 -0.00022650 / 255 255 255 255 / 0.00000000 0.00000000
				-6.70198400 -0.01152330 -1.37695600 / -0.55179730 -0.83397820 -0.00022650 / 255 255 255 255 / 0.00000000 0.00000000
				-6.70198400 -0.01152330 -1.37695600 / -0.55179730 -0.83397820 -0.00022650 / 255 255 255 255 / 0.00000000 0.00000000
				6.67657500 -0.01371940 -1.37683200 / -0.00009540 -1.00000000 0.00000000 / 255 255 255 255 / 1.00000000 0.00000000
				6.67657500 -0.01371940 -1.37683200 / -0.00009540 -1.00000000 0.00000000 / 255 255 255 255 / 0.00000000 0.00000000
				6.67657500 -0.01371940 -1.37683200 / -0.00009540 -1.00000000 0.00000000 / 255 255 255 255 / 0.00000000 0.00000000
				6.70704400 -0.01371920 -1.37670800 / 0.00000000 -1.00000000 0.00000000 / 255 255 255 255 / 1.00000000 0.00000000
				-6.70198400 -0.01372010 1.37703900 / 0.00000000 0.00000870 1.00000000 / 255 255 255 255 / 0.00000000 0.00000000
				-6.70198400 -0.01372010 1.37703900 / 0.00000000 0.00000870 1.00000000 / 255 255 255 255 / 0.00000000 0.00000000
				6.67657500 -0.01371970 1.34553200 / 0.00000000 -1.00000000 0.00000000 / 255 255 255 255 / 0.00000000 -1.00000000
				6.70704400 -0.01372010 1.37703900 / 0.00000000 -0.70711310 0.70710040 / 255 255 255 255 / 1.00000000 -1.00000000
				6.70704400 -0.01372010 1.37703900 / 0.00000000 -0.70711310 0.70710040 / 255 255 255 255 / 1.00000000 -1.00000000
				6.70704400 -0.01372010 1.37703900 / 0.00000000 -0.70711310 0.70710040 / 255 255 255 255 / 1.00000000 0.00000000
				-6.70198400 0.01372010 1.37703900 / 0.00000000 0.00000870 1.00000000 / 255 255 255 255 / 0.00000000 -1.00000000
				6.70704400 0.01372010 1.37703900 / 0.00000000 0.00000000 1.00000000 / 255 255 255 255 / 1.00000000 -1.00000000
				6.70704400 0.01372010 1.37703900 / 0.00000000 0.00000000 1.00000000 / 255 255 255 255 / 1.00000000 -1.00000000
				-6.70198400 0.01371990 1.34562300 / -1.00000000 0.00000000 0.00000000 / 255 255 255 255 / 0.00000000 -1.00000000
				-6.70198400 0.01371990 1.34562300 / -1.00000000 0.00000000 0.00000000 / 255 255 255 255 / 0.00000000 -1.00000000
				-6.67074500 -0.01152320 -1.34685100 / 0.00081060 -0.99999940 -0.00081060 / 255 255 255 255 / 1.00000000 0.00000000
				-6.70198400 0.01372010 -1.37695600 / -1.00000000 0.00000000 0.00000000 / 255 255 255 255 / 0.00000000 0.00000000
				6.70704400 -0.01372000 1.34553300 / 0.00000000 -1.00000000 0.00000000 / 255 255 255 255 / 1.00000000 0.00000000
				6.70704400 -0.01372000 1.34553300 / 0.00000000 -1.00000000 0.00000000 / 255 255 255 255 / 1.00000000 -1.00000000
				6.70704400 -0.01372000 1.34553300 / 0.00000000 -1.00000000 0.00000000 / 255 255 255 255 / 1.00000000 -1.00000000
				-6.70198400 -0.01372010 1.34562300 / -1.00000000 0.00000000 0.00000000 / 255 255 255 255 / 0.00000000 0.00000000
				-6.70198400 -0.01372010 1.37703900 / 0.00000000 0.00000000 1.00000000 / 255 255 255 255 / 0.00000000 -1.00000000
				-6.67074500 -0.01372000 1.34562300 / 0.00000000 -0.99999980 -0.00081060 / 255 255 255 255 / 1.00000000 -1.00000000
				-6.67074500 -0.01372000 1.34562300 / 0.00000000 -0.99999980 -0.00081060 / 255 255 255 255 / 1.00000000 -1.00000000
				-6.70198400 -0.01152330 -1.37695600 / 0.00000000 0.00000000 -1.00000000 / 255 255 255 255 / 0.00000000 0.00000000
				6.67657500 -0.01371940 -1.37683200 / 0.00000000 0.00000000 -1.00000000 / 255 255 255 255 / 1.00000000 0.00000000
				-6.70198400 -0.01372010 1.37703900 / -1.00000000 0.00000000 0.00000000 / 255 255 255 255 / 0.00000000 0.00000000
				6.70704400 -0.01372010 1.37703900 / 1.00000000 0.00000000 0.00001190 / 255 255 255 255 / 1.00000000 0.00000000
				-6.70198400 0.01372010 1.37703900 / -1.00000000 0.00000000 0.00000000 / 255 255 255 255 / 0.00000000 -1.00000000
				6.70704400 0.01372010 1.37703900 / 1.00000000 0.00000000 0.00001190 / 255 255 255 255 / 1.00000000 -1.00000000
			}
		}
		Geometry
		{
			ShaderIndex 1
			Flags -
			VertexDeclaration N51263BB5
			Indices 6
			{
				2 0 4 5 1 3
			}
			Vertices 6
			{
				-6.67074500 -0.01371960 1.34562300 / 0.00000000 -1.00000000 0.00000000 / 23 142 0 255 / 0.00000000 1.00000000 / 0.00000000 0.00000000 -1.00000000 1.00000000
				6.67657400 -0.01371960 -1.34628300 / 0.00000000 -1.00000000 0.00000000 / 23 142 0 255 / 1.00000000 0.00000000 / -0.00000070 0.00000000 -1.00000000 1.00000000
				6.67657500 -0.01371980 1.34553200 / 0.00000000 -1.00000000 0.00000000 / 23 142 0 255 / 0.00000000 0.00000000 / -0.00000040 0.00000000 -1.00000000 1.00000000
				6.67657500 -0.01371980 1.34553200 / 0.00000000 -1.00000000 0.00000000 / 23 142 0 255 / 0.00000000 0.00000000 / -0.00000040 0.00000000 -1.00000000 1.00000000
				-6.67074500 -0.01152340 -1.34685100 / 0.00000000 -1.00000000 0.00000000 / 23 142 0 255 / 1.00000000 1.00000000 / -0.00000040 0.00000000 -1.00000000 1.00000000
				-6.67074500 -0.01152340 -1.34685100 / 0.00000000 -1.00000000 0.00000000 / 23 142 0 255 / 1.00000000 1.00000000 / -0.00000040 0.00000000 -1.00000000 1.00000000
			}
		}
	}
}
